<?xml version="1.0" encoding="UTF-8"?>
<svg xmlns="http://www.w3.org/2000/svg" xmlns:xlink="http://www.w3.org/1999/xlink" viewBox="0 0 985.32 665"><defs><style>.cls-1{fill:url(#linear-gradient-12);}.cls-1,.cls-2,.cls-3,.cls-4,.cls-5,.cls-6,.cls-7,.cls-8,.cls-9,.cls-10,.cls-11,.cls-12,.cls-13,.cls-14,.cls-15,.cls-16,.cls-17,.cls-18,.cls-19,.cls-20,.cls-21,.cls-22,.cls-23,.cls-24,.cls-25,.cls-26,.cls-27,.cls-28,.cls-29,.cls-30,.cls-31,.cls-32,.cls-33,.cls-34,.cls-35,.cls-36,.cls-37,.cls-38,.cls-39,.cls-40,.cls-41,.cls-42,.cls-43,.cls-44,.cls-45,.cls-46,.cls-47,.cls-48,.cls-49,.cls-50,.cls-51,.cls-52,.cls-53,.cls-54,.cls-55,.cls-56,.cls-57,.cls-58,.cls-59,.cls-60,.cls-61,.cls-62,.cls-63,.cls-64,.cls-65,.cls-66,.cls-67,.cls-68,.cls-69,.cls-70,.cls-71,.cls-72,.cls-73,.cls-74,.cls-75,.cls-76,.cls-77,.cls-78,.cls-79,.cls-80,.cls-81,.cls-82,.cls-83,.cls-84,.cls-85,.cls-86,.cls-87,.cls-88,.cls-89,.cls-90,.cls-91,.cls-92,.cls-93,.cls-94,.cls-95,.cls-96,.cls-97,.cls-98,.cls-99,.cls-100{stroke-width:0px;}.cls-2{fill:url(#linear-gradient-8);opacity:.22;}.cls-3{fill:#4f5d77;}.cls-4{fill:url(#linear-gradient-17);}.cls-5{fill:#53617a;}.cls-6{fill:#212c42;}.cls-101{stroke:#000;stroke-linecap:round;stroke-linejoin:round;stroke-width:5.99px;}.cls-101,.cls-75{fill:#eb0037;}.cls-7{fill:#4c5a74;}.cls-8{fill:url(#linear-gradient);}.cls-9{fill:#57657d;}.cls-10{fill:#3b4c67;}.cls-11{fill:#213048;}.cls-12{fill:#223451;}.cls-102{opacity:.5;}.cls-13{fill:#223654;}.cls-14{fill:url(#linear-gradient-6);}.cls-15{fill:#364763;}.cls-103{clip-path:url(#clippath-2);}.cls-16{fill:#324460;}.cls-17{fill:#526079;}.cls-18{fill:#936037;opacity:.58;}.cls-19{fill:#151c2b;}.cls-20{fill:#1a1a1a;}.cls-21{fill:#1c2538;}.cls-22{fill:url(#linear-gradient-15);}.cls-23{fill:#212d44;}.cls-24{fill:#2d3f5c;}.cls-25{fill:#43536e;}.cls-26{fill:url(#linear-gradient-11);}.cls-27{fill:#475671;}.cls-28{fill:#384a65;}.cls-29{fill:#374864;}.cls-30{fill:url(#linear-gradient-5);}.cls-31{fill:#54627b;}.cls-32{fill:#4a5973;}.cls-33{fill:none;}.cls-34{fill:#212d43;}.cls-35{fill:#2b3e5b;}.cls-36{fill:#3f4f6a;}.cls-104{clip-path:url(#clippath-1);}.cls-37{fill:#22334f;}.cls-38{fill:#22324d;}.cls-39{fill:#4e5c76;}.cls-40{fill:#59677f;}.cls-41{fill:#515f78;}.cls-42{fill:#42526d;}.cls-43{fill:url(#linear-gradient-13);}.cls-44{fill:#97afbf;opacity:.25;}.cls-45{fill:#5b6881;}.cls-46{fill:url(#linear-gradient-16);}.cls-47{fill:#3a4b66;}.cls-48{fill:#233755;}.cls-49{fill:#fff;}.cls-50{fill:#223450;}.cls-51{fill:url(#linear-gradient-14);}.cls-52{fill:#22324e;}.cls-53{fill:url(#linear-gradient-2);}.cls-54{fill:#465570;}.cls-55{fill:#45546f;}.cls-56{fill:#58667e;}.cls-57{fill:url(#linear-gradient-7);}.cls-58{fill:url(#radial-gradient-2);}.cls-59{fill:#263a57;}.cls-60{fill:url(#linear-gradient-3);}.cls-61{fill:#3bc81e;}.cls-62{fill:#212e45;}.cls-63{fill:#354662;}.cls-64{fill:#2e415d;}.cls-65{fill:#223553;}.cls-66{fill:#5a6780;}.cls-67{fill:#2f425e;}.cls-105{clip-path:url(#clippath);}.cls-68{fill:#4d5b75;}.cls-69{fill:url(#linear-gradient-9);}.cls-70{fill:url(#radial-gradient);}.cls-71{fill:#293c59;}.cls-72{fill:#22314c;}.cls-73{fill:#253856;}.cls-74{fill:#495872;}.cls-106{clip-path:url(#clippath-3);}.cls-76{fill:#334561;}.cls-77{fill:#2a3d5a;}.cls-78{fill:url(#linear-gradient-18);}.cls-79{fill:#edb67a;}.cls-80{fill:#41516c;}.cls-81{fill:#55637c;}.cls-82{fill:#272728;}.cls-83{fill:#a3ea2a;}.cls-84{fill:#213049;}.cls-85{fill:#223552;}.cls-86{fill:#3d4e69;}.cls-87{fill:#212e46;}.cls-88{fill:url(#linear-gradient-10);}.cls-89{fill:#3c4d68;}.cls-90{fill:#432918;}.cls-91{fill:url(#linear-gradient-4);}.cls-92{fill:#273b58;}.cls-93{fill:#485772;}.cls-94{fill:#212f47;}.cls-95{fill:#40506b;}.cls-107{opacity:.59;}.cls-96{fill:#56647d;}.cls-97{fill:#505e78;}.cls-98{fill:#21314a;}.cls-99{fill:#f2f2f2;}.cls-100{fill:#31435f;}</style><linearGradient id="linear-gradient" x1="677.71" y1="262.05" x2="672.7" y2="332.17" gradientUnits="userSpaceOnUse"><stop offset="0" stop-color="#9da8c4"/><stop offset=".57" stop-color="#4f5669"/><stop offset="1" stop-color="#444b5c"/></linearGradient><linearGradient id="linear-gradient-2" x1="632.77" y1="282.75" x2="646.03" y2="359.38" xlink:href="#linear-gradient"/><linearGradient id="linear-gradient-3" x1="785.26" y1="220.11" x2="658.86" y2="423.46" xlink:href="#linear-gradient"/><linearGradient id="linear-gradient-4" x1="-7474.56" y1="114" x2="-7454.62" y2="117.49" gradientTransform="translate(-6728.09 -256.24) rotate(-176.41) scale(1 -1)" gradientUnits="userSpaceOnUse"><stop offset="0" stop-color="#666"/><stop offset=".57" stop-color="#4d4d4d"/><stop offset="1" stop-color="#333"/></linearGradient><linearGradient id="linear-gradient-5" x1="-7484.54" y1="136.37" x2="-7434.44" y2="136.37" xlink:href="#linear-gradient-4"/><linearGradient id="linear-gradient-6" x1="-7487.38" y1="155.76" x2="-7436.37" y2="155.76" gradientTransform="translate(-6728.09 -256.24) rotate(-176.41) scale(1 -1)" gradientUnits="userSpaceOnUse"><stop offset="0" stop-color="#666"/><stop offset=".19" stop-color="#4d4d4d"/><stop offset=".65" stop-color="#333"/></linearGradient><clipPath id="clippath"><rect class="cls-33" x="91.13" y="466.49" width="138.24" height="95.78" rx="12" ry="12"/></clipPath><clipPath id="clippath-1"><rect class="cls-33" x="91.13" y="466.49" width="138.24" height="95.78" rx="12" ry="12"/></clipPath><clipPath id="clippath-2"><path class="cls-33" d="m92.9,469.31l63.24,46.58c2.45,1.8,5.79,1.8,8.23,0l63.24-46.58v-6.62H92.9v6.62Z"/></clipPath><linearGradient id="linear-gradient-7" x1="164.23" y1="82.73" x2="165.42" y2="200.24" gradientUnits="userSpaceOnUse"><stop offset="0" stop-color="#ca9e67"/><stop offset=".22" stop-color="#c79b64"/><stop offset=".37" stop-color="#be925d"/><stop offset=".5" stop-color="#af8250"/><stop offset=".62" stop-color="#9a6c3d"/><stop offset=".73" stop-color="#7f5026"/><stop offset=".74" stop-color="#7d4e24"/></linearGradient><linearGradient id="linear-gradient-8" x1="163.96" y1="55.64" x2="165.15" y2="173.14" gradientUnits="userSpaceOnUse"><stop offset="0" stop-color="#f39200"/><stop offset=".13" stop-color="#f39200" stop-opacity=".78"/><stop offset=".35" stop-color="#f39200" stop-opacity=".45"/><stop offset=".53" stop-color="#f39200" stop-opacity=".21"/><stop offset=".67" stop-color="#f39200" stop-opacity=".06"/><stop offset=".74" stop-color="#f39200" stop-opacity="0"/></linearGradient><clipPath id="clippath-3"><path class="cls-33" d="m223.25,108.58c0-15.86-6.29-30.24-16.51-40.81v-.02s3.68-6.28-3.23-7.33c-1.87-.28-4.49-.76-7.32-1.3-9.15-5.87-20.02-9.29-31.7-9.29-5.32,0-10.48.72-15.38,2.05-1.89-1.71-4.22-3.13-6.03-2.05-3.68,2.19-10.55,9.42-11.65,10.18-.02.01-.05.04-.07.06-4.82,3.3-9.12,7.3-12.76,11.86-.04.04-.07.07-.07.07,0,0-10.13,4.2-10.13,6.3s-.53,10.82,0,12.77c0,0,0,0,0,0-1.73,5.53-2.66,11.42-2.66,17.52,0,7.92,1.58,15.47,4.42,22.36,0,0,0,.03,0,.03.04.09.09.23.16.39.01.03.03.07.04.1,1.31,3.26,7.05,18,13.27,23.02,6.63,5.35,21.97,9.74,21.97,9.74h.04c5.92,2,12.25,3.1,18.84,3.1.7,0,1.4-.03,2.1-.05,3.51,1.23,7.61,1.81,11.17.05,8.27-4.07,11.55-5.49,11.55-5.49h6.84l1.89-5.05c15.23-10.62,25.2-28.25,25.2-48.22Z"/></clipPath><linearGradient id="linear-gradient-9" x1="177.46" y1="55.42" x2="178.75" y2="63.24" gradientUnits="userSpaceOnUse"><stop offset="0" stop-color="#683c11"/><stop offset=".21" stop-color="#503015"/><stop offset=".38" stop-color="#432918"/></linearGradient><linearGradient id="linear-gradient-10" x1="134.87" y1="65.65" x2="135.34" y2="70.38" xlink:href="#linear-gradient-9"/><linearGradient id="linear-gradient-11" x1="154.32" y1="97.95" x2="158.48" y2="107.67" gradientUnits="userSpaceOnUse"><stop offset="0" stop-color="#683c11"/><stop offset=".32" stop-color="#503015"/><stop offset=".58" stop-color="#432918"/></linearGradient><linearGradient id="linear-gradient-12" x1="185.13" y1="138.06" x2="190.45" y2="148.26" gradientUnits="userSpaceOnUse"><stop offset="0" stop-color="#683c11"/><stop offset=".41" stop-color="#503015"/><stop offset=".74" stop-color="#432918"/></linearGradient><linearGradient id="linear-gradient-13" x1="131.28" y1="137.23" x2="137.37" y2="148.45" xlink:href="#linear-gradient-9"/><linearGradient id="linear-gradient-14" x1="159.74" y1="157.38" x2="161.61" y2="167.41" xlink:href="#linear-gradient-9"/><linearGradient id="linear-gradient-15" x1="113.66" y1="104.66" x2="115.35" y2="110.77" xlink:href="#linear-gradient-9"/><linearGradient id="linear-gradient-16" x1="24.02" y1="332.5" x2="748.53" y2="332.5" gradientUnits="userSpaceOnUse"><stop offset=".34" stop-color="#223654"/><stop offset=".4" stop-color="#38554c"/><stop offset=".5" stop-color="#5e8940"/><stop offset=".6" stop-color="#7bb336"/><stop offset=".68" stop-color="#91d12f"/><stop offset=".76" stop-color="#9ee32b"/><stop offset=".81" stop-color="#a3ea2a"/></linearGradient><linearGradient id="linear-gradient-17" x1="323.47" y1="-147.78" x2="807.06" y2="-147.78" gradientTransform="translate(0 329.43) scale(1 -1)" xlink:href="#linear-gradient-16"/><linearGradient id="linear-gradient-18" x1="345.34" y1="286.81" x2="763.63" y2="286.81" gradientTransform="translate(0 -99.02)" xlink:href="#linear-gradient-16"/><radialGradient id="radial-gradient" cx="233.34" cy="514.11" fx="233.34" fy="514.11" r="13.82" gradientUnits="userSpaceOnUse"><stop offset=".03" stop-color="#a3ea2a"/><stop offset="1" stop-color="#3bc81e"/></radialGradient><radialGradient id="radial-gradient-2" cx="227.23" cy="116.46" fx="227.23" fy="116.46" r="13.82" xlink:href="#radial-gradient"/></defs><g id="Layer_5"><rect class="cls-13" x="560.98" y="229.53" width="399.51" height="205.94" rx="25.91" ry="25.91"/><rect class="cls-13" x="24.18" y="28.76" width="272.15" height="205.94" rx="25.91" ry="25.91"/><rect class="cls-13" x="24.18" y="430.31" width="272.15" height="205.94" rx="25.91" ry="25.91"/><path class="cls-83" d="m816.32,317.48c.21.38.45.85.72,1.41.27.56.55,1.16.85,1.81.29.65.59,1.32.88,2,.29.68.56,1.32.81,1.92.25-.6.53-1.24.81-1.92.29-.68.58-1.35.88-2,.29-.65.58-1.26.85-1.81.27-.56.51-1.03.72-1.41h2.45c.12.79.22,1.69.32,2.67.1.99.18,2.01.26,3.08.07,1.07.14,2.13.21,3.21.06,1.07.12,2.08.16,3.02h-2.63c-.03-1.16-.08-2.43-.14-3.8s-.14-2.75-.26-4.15c-.21.48-.44,1.02-.69,1.61-.25.59-.5,1.18-.75,1.76-.25.59-.49,1.15-.72,1.69-.23.54-.43.99-.59,1.37h-1.88c-.16-.38-.36-.84-.59-1.37-.23-.54-.47-1.1-.72-1.69-.25-.59-.5-1.18-.75-1.76-.25-.59-.49-1.12-.69-1.61-.12,1.39-.2,2.78-.26,4.15s-.1,2.64-.14,3.8h-2.63c.05-.94.1-1.95.16-3.02.06-1.07.13-2.14.21-3.21.08-1.07.16-2.09.26-3.08.1-.98.2-1.88.32-2.67h2.58Z"/><path class="cls-83" d="m831.74,320.13c.76,0,1.39.09,1.9.26s.91.42,1.22.74c.31.32.52.71.65,1.18s.19.97.19,1.54v5.36c-.37.08-.88.18-1.54.29-.66.11-1.45.16-2.38.16-.59,0-1.12-.05-1.6-.16-.48-.1-.89-.27-1.24-.51-.35-.24-.61-.54-.8-.92-.18-.38-.28-.85-.28-1.4s.11-.98.32-1.35c.21-.37.5-.66.86-.88.36-.22.77-.38,1.23-.48.46-.1.94-.15,1.43-.15.33,0,.63.01.89.04.26.03.47.07.63.11v-.24c0-.44-.13-.79-.4-1.05s-.73-.4-1.38-.4c-.44,0-.87.03-1.3.1-.43.06-.79.15-1.11.27l-.33-2.07c.15-.05.34-.1.56-.15s.47-.1.73-.14c.26-.04.54-.07.84-.1s.59-.04.89-.04Zm.21,7.53c.25,0,.5,0,.73-.02.23-.01.42-.03.55-.05v-1.95c-.1-.02-.26-.05-.47-.07-.21-.02-.4-.03-.57-.03-.24,0-.47.01-.68.04-.21.03-.4.08-.56.16s-.29.19-.38.33c-.09.14-.14.31-.14.52,0,.4.14.68.41.84.27.16.64.23,1.12.23Z"/><path class="cls-83" d="m837.94,318.1l2.58-.41v2.68h3.09v2.14h-3.09v3.2c0,.54.09.97.29,1.3.19.32.57.48,1.15.48.28,0,.56-.03.86-.08.29-.05.56-.12.8-.22l.36,2c-.31.13-.66.24-1.04.33-.38.09-.85.14-1.4.14-.7,0-1.29-.1-1.75-.29-.46-.19-.83-.46-1.11-.79s-.47-.75-.58-1.24-.16-1.02-.16-1.61v-7.64Z"/><path class="cls-83" d="m844.92,324.91c0-.66.11-1.28.32-1.86.21-.58.52-1.09.92-1.52s.89-.77,1.47-1.03c.58-.25,1.23-.38,1.97-.38.48,0,.93.04,1.33.13.4.09.79.21,1.17.37l-.54,2.06c-.24-.09-.51-.17-.79-.24-.29-.07-.61-.1-.97-.1-.76,0-1.33.24-1.7.71-.37.47-.56,1.09-.56,1.87,0,.82.18,1.45.53,1.9s.96.67,1.84.67c.31,0,.65-.03,1-.09.36-.06.69-.15.99-.28l.36,2.11c-.3.13-.67.24-1.12.33s-.95.14-1.49.14c-.83,0-1.54-.12-2.14-.37-.6-.25-1.09-.58-1.48-1.01-.39-.43-.67-.93-.85-1.51-.18-.58-.27-1.21-.27-1.89Z"/><path class="cls-83" d="m854,329.46v-13l2.57-.41v4.35c.17-.06.39-.11.67-.16.27-.05.53-.08.79-.08.74,0,1.35.1,1.84.3.49.2.88.49,1.17.86.29.37.5.81.62,1.31.12.51.18,1.07.18,1.69v5.13h-2.58v-4.82c0-.83-.11-1.42-.32-1.76-.21-.35-.61-.52-1.18-.52-.23,0-.45.02-.65.06-.2.04-.38.08-.54.13v6.91h-2.57Z"/><path class="cls-83" d="m867.54,323.13h5.01v2.33h-5.01v-2.33Z"/><path class="cls-83" d="m772.68,338.08c1.8,0,3.17.32,4.13.96.96.64,1.43,1.63,1.43,2.98,0,.84-.19,1.52-.58,2.05s-.94.94-1.67,1.24c.24.3.5.64.76,1.03.26.39.53.79.79,1.21.26.42.51.86.75,1.31s.47.9.67,1.34h-3.01c-.22-.39-.44-.79-.67-1.19s-.46-.79-.69-1.17-.47-.74-.7-1.08-.46-.65-.69-.92h-1.33v4.37h-2.7v-11.8c.59-.12,1.19-.2,1.82-.24.63-.05,1.19-.07,1.68-.07Zm.16,2.3c-.2,0-.37,0-.53.02-.16.01-.3.02-.44.03v3.25h.76c1.01,0,1.74-.13,2.18-.38.44-.25.66-.69.66-1.3s-.22-1-.67-1.25c-.44-.25-1.1-.37-1.96-.37Z"/><path class="cls-83" d="m779.66,345.72c0-.81.12-1.51.37-2.12.25-.6.57-1.11.98-1.51.4-.4.87-.71,1.39-.92s1.06-.31,1.62-.31c1.29,0,2.31.4,3.06,1.18s1.12,1.95,1.12,3.48c0,.15,0,.31-.02.49-.01.18-.02.34-.03.47h-5.84c.06.53.3.95.74,1.26.44.31,1.03.47,1.76.47.47,0,.94-.04,1.39-.13.46-.09.83-.19,1.12-.32l.35,2.09c-.14.07-.32.14-.55.21-.23.07-.49.13-.77.18s-.58.1-.91.13c-.32.03-.65.05-.97.05-.82,0-1.53-.12-2.13-.36-.6-.24-1.11-.57-1.5-.99s-.69-.92-.88-1.5c-.19-.58-.29-1.2-.29-1.87Zm6.05-.99c-.01-.22-.05-.43-.11-.64-.06-.21-.16-.39-.29-.55-.13-.16-.3-.29-.5-.4-.2-.1-.45-.16-.75-.16s-.54.05-.74.15c-.21.1-.38.23-.52.39-.14.16-.24.35-.32.56s-.13.43-.16.65h3.4Z"/><path class="cls-83" d="m789.75,345.65c0-.7.11-1.34.32-1.93.21-.58.52-1.08.92-1.5.4-.42.9-.75,1.49-.98.59-.23,1.26-.35,2-.35.31,0,.64.01.98.04.34.03.67.07,1,.11s.64.1.94.16c.3.06.56.13.79.2v11.98h-2.58v-3.42c-.29.13-.59.22-.9.29-.31.07-.65.1-1,.1-1.29,0-2.28-.42-2.96-1.27-.68-.85-1.02-2-1.02-3.45Zm2.63.07c0,1.65.61,2.47,1.83,2.47.26,0,.53-.04.79-.1.26-.07.47-.16.63-.26v-4.65c-.13-.02-.29-.04-.48-.06-.2-.02-.41-.03-.64-.03-.7,0-1.23.24-1.59.72-.36.48-.54,1.11-.54,1.91Z"/><path class="cls-83" d="m808.38,349.89c-.44.13-1,.25-1.69.35-.69.11-1.42.17-2.18.17s-1.41-.1-1.93-.31-.92-.5-1.22-.87c-.3-.37-.51-.82-.64-1.34s-.19-1.09-.19-1.71v-5.06h2.58v4.75c0,.83.11,1.43.33,1.8.22.37.63.55,1.23.55.18,0,.38,0,.59-.03.21-.02.39-.04.55-.06v-7.02h2.57v8.78Z"/><path class="cls-83" d="m810.37,345.72c0-.81.12-1.51.37-2.12.25-.6.57-1.11.98-1.51.4-.4.87-.71,1.39-.92s1.06-.31,1.62-.31c1.29,0,2.31.4,3.06,1.18s1.12,1.95,1.12,3.48c0,.15,0,.31-.02.49-.01.18-.02.34-.03.47h-5.84c.06.53.3.95.74,1.26.44.31,1.03.47,1.76.47.47,0,.94-.04,1.39-.13.46-.09.83-.19,1.12-.32l.35,2.09c-.14.07-.32.14-.55.21-.23.07-.49.13-.77.18s-.58.1-.91.13c-.32.03-.65.05-.97.05-.82,0-1.53-.12-2.13-.36-.6-.24-1.11-.57-1.5-.99s-.69-.92-.88-1.5c-.19-.58-.29-1.2-.29-1.87Zm6.05-.99c-.01-.22-.05-.43-.11-.64-.06-.21-.16-.39-.29-.55-.13-.16-.3-.29-.5-.4-.2-.1-.45-.16-.75-.16s-.54.05-.74.15c-.21.1-.38.23-.52.39-.14.16-.24.35-.32.56s-.13.43-.16.65h3.4Z"/><path class="cls-83" d="m823.5,348.35c.47,0,.81-.05,1-.14.2-.09.29-.27.29-.54,0-.21-.13-.39-.38-.54-.25-.16-.64-.33-1.16-.53-.4-.15-.77-.3-1.1-.47-.33-.16-.61-.35-.84-.58s-.41-.49-.54-.8c-.13-.31-.19-.69-.19-1.12,0-.85.32-1.53.95-2.02.63-.5,1.5-.74,2.61-.74.55,0,1.08.05,1.59.15s.91.2,1.21.32l-.45,2c-.3-.1-.62-.2-.98-.28-.35-.08-.75-.12-1.18-.12-.81,0-1.21.22-1.21.67,0,.1.02.2.05.28.04.08.1.16.21.23.1.08.24.16.42.24s.41.18.68.29c.56.21,1.03.42,1.4.62.37.2.66.42.87.66s.36.5.45.78c.09.29.13.62.13,1,0,.9-.34,1.58-1.01,2.04-.67.46-1.63.69-2.86.69-.81,0-1.48-.07-2.01-.21-.54-.14-.91-.25-1.12-.35l.43-2.09c.44.17.89.31,1.35.41.46.1.92.15,1.37.15Z"/><path class="cls-83" d="m829.19,338.84l2.58-.42v2.68h3.09v2.14h-3.09v3.2c0,.54.09.97.29,1.3.19.32.57.48,1.15.48.28,0,.56-.03.86-.08.29-.05.56-.12.8-.22l.36,2c-.31.13-.66.24-1.04.33-.38.09-.85.14-1.4.14-.7,0-1.29-.1-1.75-.29-.46-.19-.83-.46-1.11-.79s-.47-.75-.58-1.24c-.11-.48-.16-1.02-.16-1.61v-7.64Z"/><path class="cls-83" d="m849.3,350.2c-.13-.42-.28-.84-.43-1.28s-.31-.88-.46-1.31h-4.68c-.15.44-.3.87-.46,1.31-.15.44-.29.87-.42,1.28h-2.8c.45-1.29.88-2.48,1.28-3.58.41-1.09.8-2.12,1.19-3.09.39-.97.77-1.89,1.14-2.76.38-.87.77-1.72,1.17-2.55h2.56c.39.83.78,1.68,1.16,2.55s.77,1.79,1.15,2.76.78,2,1.19,3.09c.41,1.09.83,2.29,1.29,3.58h-2.89Zm-3.24-9.26c-.06.17-.15.41-.26.71-.12.3-.25.65-.4,1.04-.15.39-.31.82-.5,1.3-.18.47-.37.97-.56,1.48h3.42c-.18-.52-.36-1.02-.53-1.49-.17-.47-.34-.91-.49-1.3s-.29-.74-.41-1.04c-.12-.3-.21-.53-.28-.7Z"/><path class="cls-83" d="m852.93,345.65c0-.66.11-1.28.32-1.86.21-.58.52-1.09.92-1.52.4-.43.89-.78,1.47-1.03.58-.25,1.23-.38,1.97-.38.48,0,.93.04,1.33.13.4.09.79.21,1.17.37l-.54,2.06c-.24-.09-.51-.17-.79-.24-.29-.07-.61-.1-.97-.1-.76,0-1.33.24-1.7.71s-.56,1.09-.56,1.87c0,.82.18,1.45.53,1.9s.96.67,1.84.67c.31,0,.65-.03,1-.09.36-.06.69-.15.99-.28l.36,2.11c-.3.13-.67.24-1.12.33-.45.09-.95.14-1.49.14-.83,0-1.54-.12-2.14-.37-.6-.25-1.09-.58-1.48-1.01-.39-.43-.67-.93-.85-1.51-.18-.58-.27-1.21-.27-1.89Z"/><path class="cls-83" d="m861.14,345.65c0-.66.11-1.28.32-1.86.21-.58.52-1.09.92-1.52.4-.43.89-.78,1.47-1.03.58-.25,1.23-.38,1.97-.38.48,0,.93.04,1.33.13.4.09.79.21,1.17.37l-.54,2.06c-.24-.09-.51-.17-.79-.24-.29-.07-.61-.1-.97-.1-.76,0-1.33.24-1.7.71s-.56,1.09-.56,1.87c0,.82.18,1.45.53,1.9s.96.67,1.84.67c.31,0,.65-.03,1-.09.36-.06.69-.15.99-.28l.36,2.11c-.3.13-.67.24-1.12.33-.45.09-.95.14-1.49.14-.83,0-1.54-.12-2.14-.37-.6-.25-1.09-.58-1.48-1.01-.39-.43-.67-.93-.85-1.51-.18-.58-.27-1.21-.27-1.89Z"/><path class="cls-83" d="m869.35,345.72c0-.81.12-1.51.37-2.12.25-.6.57-1.11.98-1.51.4-.4.87-.71,1.39-.92s1.06-.31,1.62-.31c1.29,0,2.31.4,3.06,1.18s1.12,1.95,1.12,3.48c0,.15,0,.31-.02.49-.01.18-.02.34-.03.47h-5.84c.06.53.3.95.74,1.26.44.31,1.03.47,1.76.47.47,0,.94-.04,1.39-.13.46-.09.83-.19,1.12-.32l.35,2.09c-.14.07-.32.14-.55.21-.23.07-.49.13-.77.18s-.58.1-.91.13c-.32.03-.65.05-.97.05-.82,0-1.53-.12-2.13-.36-.6-.24-1.11-.57-1.5-.99s-.69-.92-.88-1.5c-.19-.58-.29-1.2-.29-1.87Zm6.05-.99c-.01-.22-.05-.43-.11-.64-.06-.21-.16-.39-.29-.55-.13-.16-.3-.29-.5-.4-.2-.1-.45-.16-.75-.16s-.54.05-.74.15c-.21.1-.38.23-.52.39-.14.16-.24.35-.32.56s-.13.43-.16.65h3.4Z"/><path class="cls-83" d="m888.33,345.65c0,.7-.09,1.34-.26,1.92-.17.58-.43,1.07-.76,1.49-.33.42-.75.74-1.24.97s-1.07.35-1.71.35c-.36,0-.69-.03-1-.1-.31-.07-.61-.17-.9-.29v3.42h-2.57v-11.98c.23-.07.5-.14.79-.2.3-.06.61-.12.94-.16s.66-.08,1-.11c.34-.03.67-.04.98-.04.75,0,1.42.11,2,.34s1.08.54,1.49.95c.4.41.71.91.92,1.5.21.59.32,1.24.32,1.97Zm-2.63.07c0-.79-.18-1.43-.54-1.91-.36-.48-.89-.72-1.59-.72-.23,0-.44,0-.64.03-.2.02-.36.04-.48.06v4.65c.16.1.37.19.63.26.26.07.52.1.79.1,1.22,0,1.83-.82,1.83-2.47Z"/><path class="cls-83" d="m890.23,338.84l2.58-.42v2.68h3.09v2.14h-3.09v3.2c0,.54.09.97.29,1.3.19.32.57.48,1.15.48.28,0,.56-.03.86-.08.29-.05.56-.12.8-.22l.36,2c-.31.13-.66.24-1.04.33-.38.09-.85.14-1.4.14-.7,0-1.29-.1-1.75-.29-.46-.19-.83-.46-1.11-.79s-.47-.75-.58-1.24c-.11-.48-.16-1.02-.16-1.61v-7.64Z"/><path class="cls-83" d="m897.21,345.72c0-.81.12-1.51.37-2.12.25-.6.57-1.11.98-1.51.4-.4.87-.71,1.39-.92s1.06-.31,1.62-.31c1.29,0,2.31.4,3.06,1.18s1.12,1.95,1.12,3.48c0,.15,0,.31-.02.49-.01.18-.02.34-.03.47h-5.84c.06.53.3.95.74,1.26.44.31,1.03.47,1.76.47.47,0,.94-.04,1.39-.13.46-.09.83-.19,1.12-.32l.35,2.09c-.14.07-.32.14-.55.21-.23.07-.49.13-.77.18s-.58.1-.91.13c-.32.03-.65.05-.97.05-.82,0-1.53-.12-2.13-.36-.6-.24-1.11-.57-1.5-.99s-.69-.92-.88-1.5c-.19-.58-.29-1.2-.29-1.87Zm6.05-.99c-.01-.22-.05-.43-.11-.64-.06-.21-.16-.39-.29-.55-.13-.16-.3-.29-.5-.4-.2-.1-.45-.16-.75-.16s-.54.05-.74.15c-.21.1-.38.23-.52.39-.14.16-.24.35-.32.56s-.13.43-.16.65h3.4Z"/><path class="cls-83" d="m915.75,349.9c-.23.07-.5.14-.79.2-.3.06-.61.12-.94.16s-.66.08-1,.11c-.34.03-.67.04-.98.04-.75,0-1.42-.11-2-.33-.59-.22-1.08-.53-1.49-.94s-.71-.9-.92-1.49c-.21-.58-.32-1.24-.32-1.96s.09-1.4.28-2c.18-.59.45-1.1.79-1.51.35-.42.77-.73,1.27-.95s1.07-.33,1.72-.33c.36,0,.68.04.96.1.28.07.57.17.86.29v-4.11l2.58-.42v13.12Zm-5.82-4.32c0,.79.18,1.43.54,1.92.36.48.89.73,1.59.73.23,0,.44,0,.64-.03.2-.02.36-.04.48-.06v-4.68c-.16-.1-.37-.19-.63-.26-.26-.07-.52-.1-.79-.1-1.22,0-1.83.83-1.83,2.49Z"/><path class="cls-83" d="m71.85,593.89c-.13-.42-.28-.84-.43-1.28s-.31-.88-.46-1.31h-4.68c-.15.44-.3.88-.46,1.31-.15.44-.29.87-.42,1.28h-2.8c.45-1.29.88-2.48,1.28-3.58.41-1.09.8-2.13,1.19-3.09.39-.97.77-1.89,1.14-2.76.38-.87.77-1.72,1.17-2.55h2.56c.39.83.78,1.68,1.16,2.55.38.87.77,1.79,1.15,2.76s.78,2,1.19,3.09.83,2.29,1.29,3.58h-2.89Zm-3.24-9.26c-.06.17-.15.41-.26.71-.12.3-.25.64-.4,1.04-.15.39-.31.82-.5,1.3-.18.47-.37.97-.56,1.48h3.42c-.18-.52-.36-1.02-.53-1.49-.17-.47-.34-.91-.49-1.3s-.29-.74-.41-1.04c-.12-.3-.21-.53-.28-.7Z"/><path class="cls-83" d="m76.02,582.54l2.58-.41v2.68h3.09v2.14h-3.09v3.2c0,.54.09.97.29,1.3s.57.48,1.15.48c.28,0,.56-.03.86-.08.29-.05.56-.12.8-.22l.36,2c-.31.13-.66.24-1.04.33-.38.09-.85.14-1.4.14-.7,0-1.29-.09-1.75-.29-.46-.19-.83-.46-1.11-.79s-.47-.75-.58-1.24c-.11-.48-.16-1.02-.16-1.61v-7.64Z"/><path class="cls-83" d="m83.69,582.54l2.58-.41v2.68h3.09v2.14h-3.09v3.2c0,.54.09.97.29,1.3s.57.48,1.15.48c.28,0,.56-.03.86-.08.29-.05.56-.12.8-.22l.36,2c-.31.13-.66.24-1.04.33-.38.09-.85.14-1.4.14-.7,0-1.29-.09-1.75-.29-.46-.19-.83-.46-1.11-.79s-.47-.75-.58-1.24c-.11-.48-.16-1.02-.16-1.61v-7.64Z"/><path class="cls-83" d="m94.37,584.56c.76,0,1.39.09,1.9.26s.91.42,1.22.74c.31.32.52.71.65,1.18s.19.97.19,1.54v5.36c-.37.08-.88.18-1.54.29-.66.11-1.45.16-2.38.16-.59,0-1.12-.05-1.6-.16-.48-.1-.89-.27-1.24-.51-.35-.24-.61-.54-.8-.92-.18-.38-.28-.85-.28-1.4s.11-.98.32-1.35c.21-.37.5-.66.86-.88.36-.22.77-.38,1.23-.47.46-.1.94-.15,1.43-.15.33,0,.63.01.89.04.26.03.47.07.63.11v-.24c0-.44-.13-.79-.4-1.05-.26-.26-.73-.4-1.38-.4-.44,0-.87.03-1.3.1-.43.06-.79.15-1.11.27l-.33-2.07c.15-.05.34-.09.56-.15s.47-.1.73-.14c.26-.04.54-.07.84-.1.29-.03.59-.04.89-.04Zm.21,7.53c.25,0,.5,0,.73-.02s.42-.03.55-.05v-1.95c-.1-.02-.26-.05-.47-.07-.21-.02-.4-.03-.57-.03-.24,0-.47.01-.68.04-.21.03-.4.08-.56.16-.16.08-.29.19-.38.33-.09.14-.14.31-.14.52,0,.4.14.68.41.84.27.16.64.23,1.12.23Z"/><path class="cls-83" d="m100.23,589.35c0-.66.11-1.28.32-1.86.21-.58.52-1.09.92-1.52.4-.43.89-.77,1.47-1.03.58-.25,1.23-.38,1.97-.38.48,0,.93.04,1.33.13.4.09.79.21,1.17.37l-.54,2.06c-.24-.09-.51-.17-.79-.24s-.61-.1-.97-.1c-.76,0-1.33.24-1.7.71-.37.47-.56,1.09-.56,1.87,0,.82.18,1.45.53,1.9s.96.67,1.84.67c.31,0,.65-.03,1-.09.36-.06.69-.15.99-.28l.36,2.11c-.3.13-.67.24-1.12.33-.45.09-.95.14-1.49.14-.83,0-1.54-.12-2.14-.37-.6-.25-1.09-.58-1.48-1.01-.39-.43-.67-.93-.85-1.51-.18-.58-.27-1.21-.27-1.89Z"/><path class="cls-83" d="m111.87,588.07c.25-.27.52-.56.79-.86s.53-.59.79-.88c.25-.29.49-.57.72-.83.22-.26.42-.49.58-.69h3.06c-.61.7-1.21,1.37-1.79,2.01-.58.64-1.22,1.3-1.91,1.97.35.31.7.68,1.07,1.12.37.43.73.88,1.07,1.34.34.46.66.92.95,1.38s.53.88.73,1.26h-2.96c-.18-.3-.39-.63-.63-1-.24-.36-.49-.73-.75-1.09-.26-.36-.54-.71-.84-1.05-.29-.33-.58-.62-.87-.85v3.98h-2.57v-13l2.57-.41v7.58Z"/><path class="cls-83" d="m118.25,589.42c0-.81.12-1.51.37-2.12.25-.61.57-1.11.98-1.51s.87-.71,1.39-.92c.52-.21,1.06-.31,1.62-.31,1.29,0,2.31.39,3.06,1.18s1.12,1.95,1.12,3.48c0,.15,0,.31-.02.49-.01.18-.02.34-.03.48h-5.84c.06.53.3.95.74,1.26.44.31,1.03.47,1.76.47.47,0,.94-.04,1.39-.13.46-.09.83-.19,1.12-.32l.35,2.09c-.14.07-.32.14-.55.21s-.49.13-.77.18-.58.09-.91.13c-.32.04-.65.05-.97.05-.82,0-1.53-.12-2.13-.36-.6-.24-1.11-.57-1.5-.99-.4-.42-.69-.92-.88-1.49-.19-.58-.29-1.2-.29-1.87Zm6.05-.98c-.01-.22-.05-.43-.11-.64s-.16-.39-.29-.55-.3-.29-.5-.4c-.2-.1-.45-.16-.75-.16s-.54.05-.74.15c-.21.1-.38.23-.52.39-.14.16-.24.35-.32.56-.08.21-.13.43-.16.65h3.4Z"/><path class="cls-83" d="m134.25,587.08c-.23-.06-.5-.12-.81-.18-.31-.06-.65-.1-1-.1-.16,0-.35.01-.58.04-.22.03-.39.06-.51.09v6.95h-2.57v-8.61c.46-.16,1-.31,1.63-.46.63-.14,1.33-.22,2.1-.22.14,0,.31,0,.5.03.2.02.39.04.59.07.2.03.39.06.59.1.2.04.36.09.5.15l-.43,2.13Z"/><path class="cls-83" d="m143.03,582.18c0,.47-.15.84-.46,1.11-.3.27-.67.41-1.08.41s-.77-.13-1.08-.41c-.3-.27-.46-.64-.46-1.11s.15-.84.46-1.12c.31-.27.67-.41,1.08-.41s.78.13,1.08.41c.31.27.46.64.46,1.12Zm-.24,11.72h-2.57v-9.09h2.57v9.09Z"/><path class="cls-83" d="m145.21,585.11c.44-.13,1-.24,1.69-.35.69-.11,1.42-.16,2.18-.16s1.41.1,1.93.3c.51.2.92.49,1.22.86.3.37.51.81.64,1.31s.19,1.07.19,1.69v5.13h-2.58v-4.82c0-.83-.11-1.42-.33-1.76-.22-.35-.63-.52-1.23-.52-.18,0-.38,0-.59.03-.21.02-.39.04-.55.06v7.02h-2.57v-8.78Z"/><path class="cls-83" d="m154.96,589.35c0-.66.11-1.28.32-1.86.21-.58.52-1.09.92-1.52.4-.43.89-.77,1.47-1.03.58-.25,1.23-.38,1.97-.38.48,0,.93.04,1.33.13.4.09.79.21,1.17.37l-.54,2.06c-.24-.09-.51-.17-.79-.24s-.61-.1-.97-.1c-.76,0-1.33.24-1.7.71-.37.47-.56,1.09-.56,1.87,0,.82.18,1.45.53,1.9s.96.67,1.84.67c.31,0,.65-.03,1-.09.36-.06.69-.15.99-.28l.36,2.11c-.3.13-.67.24-1.12.33-.45.09-.95.14-1.49.14-.83,0-1.54-.12-2.14-.37-.6-.25-1.09-.58-1.48-1.01-.39-.43-.67-.93-.85-1.51-.18-.58-.27-1.21-.27-1.89Z"/><path class="cls-83" d="m167.66,594.07c-.75-.01-1.36-.09-1.82-.24s-.84-.36-1.11-.63-.46-.6-.55-.99c-.1-.39-.15-.82-.15-1.3v-10.01l2.57-.41v9.9c0,.23.02.44.05.62.03.18.1.34.2.47.1.13.24.23.42.31.18.08.43.13.74.16l-.36,2.13Z"/><path class="cls-83" d="m177.25,593.58c-.44.13-1,.25-1.69.35s-1.42.16-2.18.16-1.41-.1-1.93-.31c-.51-.21-.92-.5-1.22-.87-.3-.37-.51-.82-.64-1.34-.13-.52-.19-1.09-.19-1.71v-5.06h2.58v4.75c0,.83.11,1.43.33,1.8.22.37.63.55,1.23.55.18,0,.38,0,.59-.03.21-.02.39-.04.55-.06v-7.02h2.57v8.78Z"/><path class="cls-83" d="m187.69,593.6c-.23.07-.5.14-.79.2-.3.06-.61.12-.94.17-.33.05-.66.08-1,.11-.34.03-.67.04-.98.04-.75,0-1.42-.11-2-.33-.59-.22-1.08-.53-1.49-.94-.4-.41-.71-.9-.92-1.49-.21-.58-.32-1.24-.32-1.96s.09-1.4.28-2c.18-.59.45-1.1.79-1.51.35-.42.77-.73,1.27-.95s1.07-.33,1.72-.33c.36,0,.68.03.96.1s.57.17.86.29v-4.11l2.58-.41v13.12Zm-5.82-4.32c0,.79.18,1.43.54,1.92.36.48.89.73,1.59.73.23,0,.44,0,.64-.03.2-.02.36-.04.48-.06v-4.68c-.16-.1-.37-.19-.63-.26s-.52-.1-.79-.1c-1.22,0-1.83.83-1.83,2.49Z"/><path class="cls-83" d="m189.67,589.42c0-.81.12-1.51.37-2.12.25-.61.57-1.11.98-1.51s.87-.71,1.39-.92c.52-.21,1.06-.31,1.62-.31,1.29,0,2.31.39,3.06,1.18s1.12,1.95,1.12,3.48c0,.15,0,.31-.02.49-.01.18-.02.34-.03.48h-5.84c.06.53.3.95.74,1.26.44.31,1.03.47,1.76.47.47,0,.94-.04,1.39-.13.46-.09.83-.19,1.12-.32l.35,2.09c-.14.07-.32.14-.55.21s-.49.13-.77.18-.58.09-.91.13c-.32.04-.65.05-.97.05-.82,0-1.53-.12-2.13-.36-.6-.24-1.11-.57-1.5-.99-.4-.42-.69-.92-.88-1.49-.19-.58-.29-1.2-.29-1.87Zm6.05-.98c-.01-.22-.05-.43-.11-.64s-.16-.39-.29-.55-.3-.29-.5-.4c-.2-.1-.45-.16-.75-.16s-.54.05-.74.15c-.21.1-.38.23-.52.39-.14.16-.24.35-.32.56-.08.21-.13.43-.16.65h3.4Z"/><path class="cls-83" d="m202.81,592.04c.47,0,.81-.05,1-.14.2-.09.29-.27.29-.54,0-.21-.13-.39-.38-.54-.25-.16-.64-.33-1.16-.53-.4-.15-.77-.3-1.1-.47-.33-.16-.61-.35-.84-.58s-.41-.49-.54-.8c-.13-.31-.19-.69-.19-1.12,0-.85.32-1.53.95-2.02s1.5-.74,2.61-.74c.55,0,1.08.05,1.59.15.51.1.91.21,1.21.32l-.45,2c-.3-.1-.62-.2-.98-.28-.35-.08-.75-.12-1.18-.12-.81,0-1.21.22-1.21.67,0,.1.02.2.05.28.04.08.1.16.21.23.1.07.24.16.42.24.18.09.41.18.68.29.56.21,1.03.42,1.4.62.37.2.66.42.87.66.21.24.36.5.45.79.09.29.13.62.13,1,0,.9-.34,1.57-1.01,2.03s-1.63.69-2.86.69c-.81,0-1.48-.07-2.01-.21-.54-.14-.91-.25-1.12-.35l.43-2.09c.44.17.89.31,1.35.41s.92.15,1.37.15Z"/><path class="cls-83" d="m215.3,588.07c.25-.27.52-.56.79-.86s.53-.59.79-.88c.25-.29.49-.57.72-.83.22-.26.42-.49.58-.69h3.06c-.61.7-1.21,1.37-1.79,2.01-.58.64-1.22,1.3-1.91,1.97.35.31.7.68,1.07,1.12.37.43.73.88,1.07,1.34.34.46.66.92.95,1.38s.53.88.73,1.26h-2.96c-.18-.3-.39-.63-.63-1-.24-.36-.49-.73-.75-1.09-.26-.36-.54-.71-.84-1.05-.29-.33-.58-.62-.87-.85v3.98h-2.57v-13l2.57-.41v7.58Z"/><path class="cls-83" d="m222.73,585.11c.44-.13,1-.24,1.69-.35.69-.11,1.42-.16,2.18-.16s1.41.1,1.93.3c.51.2.92.49,1.22.86.3.37.51.81.64,1.31s.19,1.07.19,1.69v5.13h-2.58v-4.82c0-.83-.11-1.42-.33-1.76-.22-.35-.63-.52-1.23-.52-.18,0-.38,0-.59.03-.21.02-.39.04-.55.06v7.02h-2.57v-8.78Z"/><path class="cls-83" d="m241.41,589.33c0,.71-.1,1.37-.31,1.96-.21.59-.51,1.1-.9,1.52s-.86.75-1.41.98c-.55.23-1.16.34-1.84.34s-1.28-.12-1.82-.34c-.55-.23-1.02-.56-1.41-.98s-.7-.93-.92-1.52c-.22-.59-.33-1.25-.33-1.96s.11-1.37.34-1.95c.22-.59.54-1.09.93-1.5s.87-.74,1.42-.97,1.14-.35,1.79-.35,1.26.12,1.81.35c.55.23,1.02.55,1.41.97s.7.92.92,1.5c.22.59.33,1.24.33,1.95Zm-2.63,0c0-.79-.16-1.42-.47-1.88-.32-.46-.77-.68-1.36-.68s-1.04.23-1.37.68c-.32.46-.48,1.08-.48,1.88s.16,1.43.48,1.89c.32.47.78.7,1.37.7s1.04-.23,1.36-.7c.32-.47.47-1.1.47-1.89Z"/><path class="cls-83" d="m248.73,588.67c-.23.88-.47,1.75-.73,2.61-.26.86-.53,1.73-.82,2.61h-2c-.21-.48-.43-1.06-.68-1.73-.24-.67-.49-1.4-.75-2.19s-.53-1.62-.8-2.51c-.27-.88-.53-1.77-.79-2.67h2.71c.09.41.19.87.3,1.36.11.49.23.99.35,1.51.12.52.25,1.04.38,1.56.13.52.27,1.03.41,1.51.15-.51.3-1.03.44-1.56.14-.53.28-1.05.42-1.56.13-.51.26-1.01.38-1.49.12-.48.23-.92.32-1.34h1.87c.09.41.2.86.31,1.34.12.48.24.97.36,1.49.13.51.26,1.03.4,1.56.14.53.28,1.05.43,1.56.14-.48.28-.99.42-1.51.14-.52.27-1.05.39-1.56.12-.52.24-1.02.35-1.51.11-.49.21-.94.3-1.36h2.68c-.25.9-.52,1.79-.79,2.67-.27.88-.54,1.72-.8,2.51-.26.79-.51,1.52-.76,2.19-.25.67-.48,1.24-.68,1.73h-2c-.29-.88-.57-1.75-.85-2.61-.28-.86-.53-1.73-.76-2.61Z"/><path class="cls-83" d="m256.74,585.11c.44-.13,1-.24,1.69-.35.69-.11,1.42-.16,2.18-.16s1.41.1,1.93.3c.51.2.92.49,1.22.86.3.37.51.81.64,1.31s.19,1.07.19,1.69v5.13h-2.58v-4.82c0-.83-.11-1.42-.33-1.76-.22-.35-.63-.52-1.23-.52-.18,0-.38,0-.59.03-.21.02-.39.04-.55.06v7.02h-2.57v-8.78Z"/><path class="cls-83" d="m73.57,603.28l2.58-.41v2.68h3.09v2.14h-3.09v3.2c0,.54.09.97.29,1.3s.57.48,1.15.48c.28,0,.56-.03.86-.08.29-.05.56-.12.8-.22l.36,2c-.31.13-.66.24-1.04.33-.38.09-.85.14-1.4.14-.7,0-1.29-.09-1.75-.29-.46-.19-.83-.46-1.11-.79s-.47-.75-.58-1.24c-.11-.48-.16-1.02-.16-1.61v-7.64Z"/><path class="cls-83" d="m89.49,610.07c0,.71-.1,1.37-.31,1.96-.21.59-.51,1.1-.9,1.52s-.86.75-1.41.98c-.55.23-1.16.34-1.84.34s-1.28-.12-1.82-.34c-.55-.23-1.02-.56-1.41-.98s-.7-.93-.92-1.52c-.22-.59-.33-1.25-.33-1.96s.11-1.37.34-1.95c.22-.59.54-1.09.93-1.5s.87-.74,1.42-.97,1.14-.35,1.79-.35,1.26.12,1.81.35c.55.23,1.02.55,1.41.97s.7.92.92,1.5c.22.59.33,1.24.33,1.95Zm-2.63,0c0-.79-.16-1.42-.47-1.88-.32-.46-.77-.68-1.36-.68s-1.04.23-1.37.68c-.32.46-.48,1.08-.48,1.88s.16,1.43.48,1.89c.32.47.78.7,1.37.7s1.04-.23,1.36-.7c.32-.47.47-1.1.47-1.89Z"/><path class="cls-83" d="m94.05,608.8c.25-.27.52-.56.79-.86s.53-.59.79-.88c.25-.29.49-.57.72-.83.22-.26.42-.49.58-.69h3.06c-.61.7-1.21,1.37-1.79,2.01-.58.64-1.22,1.3-1.91,1.97.35.31.7.68,1.07,1.12.37.43.73.88,1.07,1.34.34.46.66.92.95,1.38s.53.88.73,1.26h-2.96c-.18-.3-.39-.63-.63-1-.24-.36-.49-.73-.75-1.09-.26-.36-.54-.71-.84-1.05-.29-.33-.58-.62-.87-.85v3.98h-2.57v-13l2.57-.41v7.58Z"/><path class="cls-83" d="m100.42,610.15c0-.81.12-1.51.37-2.12.25-.61.57-1.11.98-1.51s.87-.71,1.39-.92c.52-.21,1.06-.31,1.62-.31,1.29,0,2.31.39,3.06,1.18s1.12,1.95,1.12,3.48c0,.15,0,.31-.02.49-.01.18-.02.34-.03.48h-5.84c.06.53.3.95.74,1.26.44.31,1.03.47,1.76.47.47,0,.94-.04,1.39-.13.46-.09.83-.19,1.12-.32l.35,2.09c-.14.07-.32.14-.55.21s-.49.13-.77.18-.58.09-.91.13c-.32.04-.65.05-.97.05-.82,0-1.53-.12-2.13-.36-.6-.24-1.11-.57-1.5-.99-.4-.42-.69-.92-.88-1.49-.19-.58-.29-1.2-.29-1.87Zm6.05-.98c-.01-.22-.05-.43-.11-.64s-.16-.39-.29-.55-.3-.29-.5-.4c-.2-.1-.45-.16-.75-.16s-.54.05-.74.15c-.21.1-.38.23-.52.39-.14.16-.24.35-.32.56-.08.21-.13.43-.16.65h3.4Z"/><path class="cls-83" d="m110.95,605.85c.44-.13,1-.24,1.69-.35.69-.11,1.42-.16,2.18-.16s1.41.1,1.93.3c.51.2.92.49,1.22.86.3.37.51.81.64,1.31s.19,1.07.19,1.69v5.13h-2.58v-4.82c0-.83-.11-1.42-.33-1.76-.22-.35-.63-.52-1.23-.52-.18,0-.38,0-.59.03-.21.02-.39.04-.55.06v7.02h-2.57v-8.78Z"/><path class="cls-83" d="m128.09,602.91c0,.47-.15.84-.46,1.11-.3.27-.67.41-1.08.41s-.77-.13-1.08-.41c-.3-.27-.46-.64-.46-1.11s.15-.84.46-1.12c.31-.27.67-.41,1.08-.41s.78.13,1.08.41c.31.27.46.64.46,1.12Zm-.24,11.72h-2.57v-9.09h2.57v9.09Z"/><path class="cls-83" d="m130.27,605.85c.44-.13,1-.24,1.69-.35.69-.11,1.42-.16,2.18-.16s1.41.1,1.93.3c.51.2.92.49,1.22.86.3.37.51.81.64,1.31s.19,1.07.19,1.69v5.13h-2.58v-4.82c0-.83-.11-1.42-.33-1.76-.22-.35-.63-.52-1.23-.52-.18,0-.38,0-.59.03-.21.02-.39.04-.55.06v7.02h-2.57v-8.78Z"/><path class="cls-83" d="m150.23,614.87c-1.95,0-3.43-.54-4.45-1.62s-1.53-2.62-1.53-4.61c0-.99.16-1.88.47-2.65.31-.78.74-1.43,1.28-1.97.54-.54,1.19-.94,1.94-1.22s1.56-.42,2.44-.42c.51,0,.97.04,1.38.11.42.08.78.16,1.09.26.31.1.57.2.78.3.21.1.36.18.45.24l-.78,2.18c-.37-.2-.8-.36-1.29-.5-.49-.14-1.04-.21-1.67-.21-.42,0-.82.07-1.22.21-.4.14-.75.36-1.05.67s-.55.7-.73,1.18c-.18.48-.28,1.07-.28,1.76,0,.55.06,1.07.18,1.55.12.48.32.89.59,1.24s.62.62,1.06.82c.44.2.97.3,1.59.3.39,0,.74-.02,1.05-.07.31-.05.59-.1.83-.16s.46-.14.64-.22c.18-.08.35-.16.5-.22l.74,2.16c-.38.23-.92.44-1.61.62-.69.18-1.49.28-2.4.28Z"/><path class="cls-83" d="m159.53,612.57c.38,0,.69-.03.94-.09.25-.06.45-.15.6-.26s.25-.24.31-.39.09-.32.09-.5c0-.39-.18-.72-.55-.98-.37-.26-1-.54-1.9-.84-.39-.14-.78-.3-1.17-.48s-.74-.4-1.05-.67c-.31-.27-.57-.6-.76-.99-.2-.39-.29-.86-.29-1.41s.1-1.05.31-1.5c.21-.44.5-.82.88-1.13.38-.31.84-.55,1.38-.72.54-.17,1.15-.25,1.83-.25.81,0,1.5.09,2.09.26.59.17,1.07.36,1.45.57l-.78,2.12c-.33-.17-.71-.33-1.11-.46-.41-.13-.9-.2-1.48-.2-.65,0-1.11.09-1.39.27s-.42.45-.42.82c0,.22.05.4.16.55s.25.29.44.41.41.23.66.33c.25.1.52.2.82.3.62.23,1.16.46,1.62.68s.84.49,1.15.79.53.65.68,1.05c.15.4.22.89.22,1.47,0,1.12-.39,1.98-1.17,2.6s-1.96.92-3.54.92c-.53,0-1.01-.03-1.43-.09-.43-.06-.8-.14-1.13-.23-.33-.09-.61-.19-.85-.29-.24-.1-.43-.2-.6-.29l.76-2.14c.36.2.8.37,1.32.53s1.17.23,1.93.23Z"/><path class="cls-83" d="m169.83,602.52c1.8,0,3.17.32,4.13.96s1.43,1.63,1.43,2.98c0,.84-.19,1.52-.58,2.05-.39.52-.94.94-1.67,1.24.24.3.5.64.76,1.03s.53.79.79,1.21c.26.42.51.86.75,1.31s.47.9.67,1.34h-3.01c-.22-.39-.44-.79-.67-1.19s-.46-.79-.69-1.18c-.24-.38-.47-.74-.7-1.08-.23-.34-.46-.65-.69-.92h-1.33v4.37h-2.7v-11.8c.59-.11,1.19-.2,1.82-.24.63-.05,1.19-.07,1.68-.07Zm.16,2.3c-.2,0-.37,0-.53.02-.16.01-.3.02-.44.04v3.25h.76c1.01,0,1.74-.13,2.18-.38.44-.25.66-.69.66-1.3s-.22-1-.67-1.25c-.44-.25-1.1-.37-1.96-.37Z"/><path class="cls-83" d="m177.84,614.63v-11.98h8.02v2.26h-5.32v2.51h4.74v2.26h-4.74v4.94h-2.7Z"/><path class="cls-83" d="m200.19,610.09c0,.7-.09,1.34-.26,1.92s-.43,1.07-.76,1.49-.75.74-1.24.97-1.07.35-1.71.35c-.36,0-.69-.04-1-.1-.31-.07-.61-.17-.9-.29v3.42h-2.57v-11.98c.23-.07.5-.13.79-.2.3-.06.61-.12.94-.16s.66-.08,1-.11c.34-.03.67-.04.98-.04.75,0,1.42.11,2,.34s1.08.54,1.49.95.71.91.92,1.49c.21.59.32,1.24.32,1.97Zm-2.63.07c0-.79-.18-1.43-.54-1.91-.36-.48-.89-.72-1.59-.72-.23,0-.44,0-.64.03-.2.02-.36.04-.48.06v4.65c.16.1.37.19.63.26.26.07.52.1.79.1,1.22,0,1.83-.82,1.83-2.47Z"/><path class="cls-83" d="m205.44,605.3c.76,0,1.39.09,1.9.26s.91.42,1.22.74c.31.32.52.71.65,1.18s.19.97.19,1.54v5.36c-.37.08-.88.18-1.54.29-.66.11-1.45.16-2.38.16-.59,0-1.12-.05-1.6-.16-.48-.1-.89-.27-1.24-.51-.35-.24-.61-.54-.8-.92-.18-.38-.28-.85-.28-1.4s.11-.98.32-1.35c.21-.37.5-.66.86-.88.36-.22.77-.38,1.23-.47.46-.1.94-.15,1.43-.15.33,0,.63.01.89.04.26.03.47.07.63.11v-.24c0-.44-.13-.79-.4-1.05-.26-.26-.73-.4-1.38-.4-.44,0-.87.03-1.3.1-.43.06-.79.15-1.11.27l-.33-2.07c.15-.05.34-.09.56-.15s.47-.1.73-.14c.26-.04.54-.07.84-.1.29-.03.59-.04.89-.04Zm.21,7.53c.25,0,.5,0,.73-.02s.42-.03.55-.05v-1.95c-.1-.02-.26-.05-.47-.07-.21-.02-.4-.03-.57-.03-.24,0-.47.01-.68.04-.21.03-.4.08-.56.16-.16.08-.29.19-.38.33-.09.14-.14.31-.14.52,0,.4.14.68.41.84.27.16.64.23,1.12.23Z"/><path class="cls-83" d="m219.59,605.54c-.52,1.75-1.06,3.39-1.63,4.92-.57,1.53-1.18,3.02-1.85,4.46-.24.52-.48.96-.73,1.32-.24.36-.51.66-.8.9-.29.24-.61.41-.98.52-.36.11-.79.17-1.27.17-.4,0-.78-.04-1.12-.11-.34-.07-.62-.16-.84-.25l.45-2.06c.26.09.5.16.71.19.21.03.43.05.66.05.46,0,.82-.12,1.06-.37.25-.25.46-.59.63-1.03-.59-1.15-1.18-2.45-1.76-3.88-.59-1.43-1.14-3.04-1.66-4.83h2.73c.12.45.25.94.41,1.46s.32,1.05.49,1.59.35,1.06.53,1.56c.18.51.35.97.51,1.38.15-.42.31-.88.47-1.38.16-.51.32-1.03.48-1.56s.31-1.07.45-1.59.27-1.01.39-1.46h2.66Z"/><path class="cls-83" d="m224.59,614.8c-.75-.01-1.36-.09-1.82-.24s-.84-.36-1.11-.63-.46-.6-.55-.99c-.1-.39-.15-.82-.15-1.3v-10.01l2.57-.41v9.9c0,.23.02.44.05.62.03.18.1.34.2.47.1.13.24.23.42.31.18.08.43.13.74.16l-.36,2.13Z"/><path class="cls-83" d="m234.92,610.07c0,.71-.1,1.37-.31,1.96-.21.59-.51,1.1-.9,1.52s-.86.75-1.41.98c-.55.23-1.16.34-1.84.34s-1.28-.12-1.82-.34c-.55-.23-1.02-.56-1.41-.98s-.7-.93-.92-1.52c-.22-.59-.33-1.25-.33-1.96s.11-1.37.34-1.95c.22-.59.54-1.09.93-1.5s.87-.74,1.42-.97,1.14-.35,1.79-.35,1.26.12,1.81.35c.55.23,1.02.55,1.41.97s.7.92.92,1.5c.22.59.33,1.24.33,1.95Zm-2.63,0c0-.79-.16-1.42-.47-1.88-.32-.46-.77-.68-1.36-.68s-1.04.23-1.37.68c-.32.46-.48,1.08-.48,1.88s.16,1.43.48,1.89c.32.47.78.7,1.37.7s1.04-.23,1.36-.7c.32-.47.47-1.1.47-1.89Z"/><path class="cls-83" d="m240.18,605.3c.76,0,1.39.09,1.9.26s.91.42,1.22.74c.31.32.52.71.65,1.18s.19.97.19,1.54v5.36c-.37.08-.88.18-1.54.29-.66.11-1.45.16-2.38.16-.59,0-1.12-.05-1.6-.16-.48-.1-.89-.27-1.24-.51-.35-.24-.61-.54-.8-.92-.18-.38-.28-.85-.28-1.4s.11-.98.32-1.35c.21-.37.5-.66.86-.88.36-.22.77-.38,1.23-.47.46-.1.94-.15,1.43-.15.33,0,.63.01.89.04.26.03.47.07.63.11v-.24c0-.44-.13-.79-.4-1.05-.26-.26-.73-.4-1.38-.4-.44,0-.87.03-1.3.1-.43.06-.79.15-1.11.27l-.33-2.07c.15-.05.34-.09.56-.15s.47-.1.73-.14c.26-.04.54-.07.84-.1.29-.03.59-.04.89-.04Zm.21,7.53c.25,0,.5,0,.73-.02s.42-.03.55-.05v-1.95c-.1-.02-.26-.05-.47-.07-.21-.02-.4-.03-.57-.03-.24,0-.47.01-.68.04-.21.03-.4.08-.56.16-.16.08-.29.19-.38.33-.09.14-.14.31-.14.52,0,.4.14.68.41.84.27.16.64.23,1.12.23Z"/><path class="cls-83" d="m254.49,614.34c-.23.07-.5.14-.79.2-.3.06-.61.12-.94.17-.33.05-.66.08-1,.11-.34.03-.67.04-.98.04-.75,0-1.42-.11-2-.33-.59-.22-1.08-.53-1.49-.94-.4-.41-.71-.9-.92-1.49-.21-.58-.32-1.24-.32-1.96s.09-1.4.28-2c.18-.59.45-1.1.79-1.51.35-.42.77-.73,1.27-.95s1.07-.33,1.72-.33c.36,0,.68.03.96.1s.57.17.86.29v-4.11l2.58-.41v13.12Zm-5.82-4.32c0,.79.18,1.43.54,1.92.36.48.89.73,1.59.73.23,0,.44,0,.64-.03.2-.02.36-.04.48-.06v-4.68c-.16-.1-.37-.19-.63-.26s-.52-.1-.79-.1c-1.22,0-1.83.83-1.83,2.49Z"/><path class="cls-83" d="m131.24,194.15c-.13-.42-.28-.84-.43-1.28s-.31-.88-.46-1.31h-4.68c-.15.44-.3.87-.46,1.31-.15.44-.29.87-.42,1.28h-2.8c.45-1.29.88-2.48,1.28-3.58.41-1.09.8-2.13,1.19-3.09.39-.97.77-1.89,1.14-2.76.38-.87.77-1.72,1.17-2.55h2.56c.39.83.78,1.68,1.16,2.55.38.87.77,1.79,1.15,2.76s.78,2,1.19,3.09c.41,1.09.83,2.29,1.29,3.58h-2.89Zm-3.24-9.26c-.06.17-.15.41-.26.71s-.25.65-.4,1.04c-.15.39-.31.82-.5,1.3-.18.47-.37.97-.56,1.48h3.42c-.18-.52-.36-1.02-.53-1.49-.17-.47-.34-.91-.49-1.3s-.29-.74-.41-1.04c-.12-.3-.21-.53-.28-.7Z"/><path class="cls-83" d="m135.4,182.8l2.58-.41v2.68h3.09v2.14h-3.09v3.2c0,.54.09.97.29,1.3.19.32.57.48,1.15.48.28,0,.56-.03.86-.08.29-.05.56-.12.8-.22l.36,2c-.31.13-.66.24-1.04.33-.38.09-.85.14-1.4.14-.7,0-1.29-.1-1.75-.29-.46-.19-.83-.46-1.11-.79s-.47-.75-.58-1.24-.16-1.02-.16-1.61v-7.64Z"/><path class="cls-83" d="m143.07,182.8l2.58-.41v2.68h3.09v2.14h-3.09v3.2c0,.54.09.97.29,1.3.19.32.57.48,1.15.48.28,0,.56-.03.86-.08.29-.05.56-.12.8-.22l.36,2c-.31.13-.66.24-1.04.33-.38.09-.85.14-1.4.14-.7,0-1.29-.1-1.75-.29-.46-.19-.83-.46-1.11-.79s-.47-.75-.58-1.24-.16-1.02-.16-1.61v-7.64Z"/><path class="cls-83" d="m153.75,184.82c.76,0,1.39.09,1.9.26s.91.42,1.22.74c.31.32.52.71.65,1.18s.19.97.19,1.54v5.36c-.37.08-.88.18-1.54.29-.66.11-1.45.16-2.38.16-.59,0-1.12-.05-1.6-.16-.48-.1-.89-.27-1.24-.51-.35-.24-.61-.54-.8-.92-.18-.38-.28-.85-.28-1.4s.11-.98.32-1.35c.21-.37.5-.66.86-.88.36-.22.77-.38,1.23-.48.46-.1.94-.15,1.43-.15.33,0,.63.01.89.04.26.03.47.07.63.11v-.24c0-.44-.13-.79-.4-1.05s-.73-.4-1.38-.4c-.44,0-.87.03-1.3.1-.43.06-.79.15-1.11.27l-.33-2.07c.15-.05.34-.1.56-.15s.47-.1.73-.14c.26-.04.54-.07.84-.1s.59-.04.89-.04Zm.21,7.53c.25,0,.5,0,.73-.02.23-.01.42-.03.55-.05v-1.95c-.1-.02-.26-.05-.47-.07-.21-.02-.4-.03-.57-.03-.24,0-.47.01-.68.04-.21.03-.4.08-.56.16s-.29.19-.38.33c-.09.14-.14.31-.14.52,0,.4.14.68.41.84.27.16.64.23,1.12.23Z"/><path class="cls-83" d="m159.61,189.61c0-.66.11-1.28.32-1.86.21-.58.52-1.09.92-1.52s.89-.77,1.47-1.03c.58-.25,1.23-.38,1.97-.38.48,0,.93.04,1.33.13.4.09.79.21,1.17.37l-.54,2.06c-.24-.09-.51-.17-.79-.24-.29-.07-.61-.1-.97-.1-.76,0-1.33.24-1.7.71-.37.47-.56,1.09-.56,1.87,0,.82.18,1.45.53,1.9s.96.67,1.84.67c.31,0,.65-.03,1-.09.36-.06.69-.15.99-.28l.36,2.11c-.3.13-.67.24-1.12.33s-.95.14-1.49.14c-.83,0-1.54-.12-2.14-.37-.6-.25-1.09-.58-1.48-1.01-.39-.43-.67-.93-.85-1.51-.18-.58-.27-1.21-.27-1.89Z"/><path class="cls-83" d="m171.26,188.33c.25-.27.52-.56.79-.86s.53-.59.79-.88c.25-.29.49-.57.72-.83.22-.26.42-.49.58-.69h3.06c-.61.7-1.21,1.37-1.79,2.01-.58.64-1.22,1.3-1.91,1.97.35.31.7.68,1.07,1.12.37.43.73.88,1.07,1.34.34.46.66.92.95,1.38.29.46.53.88.73,1.26h-2.96c-.18-.3-.39-.63-.63-1-.24-.36-.49-.73-.75-1.09s-.54-.71-.84-1.05c-.29-.33-.58-.62-.87-.85v3.98h-2.57v-13l2.57-.41v7.58Z"/><path class="cls-83" d="m177.64,189.67c0-.81.12-1.51.37-2.12.25-.6.57-1.11.98-1.51.4-.4.87-.71,1.39-.92.52-.21,1.06-.31,1.62-.31,1.29,0,2.31.4,3.06,1.18s1.12,1.95,1.12,3.48c0,.15,0,.31-.02.49-.01.18-.02.34-.03.48h-5.84c.06.53.3.95.74,1.26.44.31,1.03.47,1.76.47.47,0,.94-.04,1.39-.13s.83-.19,1.12-.32l.35,2.09c-.14.07-.32.14-.55.21-.23.07-.49.13-.77.18s-.58.1-.91.13c-.32.03-.65.05-.97.05-.82,0-1.53-.12-2.13-.36-.6-.24-1.11-.57-1.5-.99-.4-.42-.69-.92-.88-1.49-.19-.58-.29-1.2-.29-1.87Zm6.05-.98c-.01-.22-.05-.43-.11-.64-.06-.21-.16-.39-.29-.55-.13-.16-.3-.29-.5-.4-.2-.1-.45-.16-.75-.16s-.54.05-.74.15c-.21.1-.38.23-.52.39-.14.16-.24.35-.32.56-.08.21-.13.43-.16.65h3.4Z"/><path class="cls-83" d="m193.64,187.34c-.23-.06-.5-.12-.81-.18-.31-.06-.65-.1-1-.1-.16,0-.35.01-.58.04-.22.03-.39.06-.51.09v6.95h-2.57v-8.61c.46-.16,1-.31,1.63-.46s1.33-.22,2.1-.22c.14,0,.31,0,.5.03.2.02.39.04.59.07.2.03.39.06.59.1.2.04.36.09.5.15l-.43,2.13Z"/><path class="cls-83" d="m198.51,180.9c.02.16.04.33.05.5.01.17.02.3.02.38,0,.77-.14,1.51-.41,2.2-.28.7-.62,1.29-1.02,1.77l-1.82-.41c.22-.5.39-1.05.53-1.68s.2-1.22.2-1.78v-.15c0-.07,0-.16,0-.26,0-.1-.01-.2-.02-.3,0-.1-.01-.2-.03-.28h2.51Z"/><path class="cls-83" d="m201.76,192.3c.47,0,.81-.05,1-.14s.29-.27.29-.54c0-.21-.13-.39-.38-.54-.25-.16-.64-.33-1.16-.53-.4-.15-.77-.3-1.1-.47-.33-.16-.61-.35-.84-.58s-.41-.49-.54-.8c-.13-.31-.19-.69-.19-1.12,0-.85.32-1.53.95-2.02.63-.5,1.5-.74,2.61-.74.55,0,1.08.05,1.59.15.51.1.91.2,1.21.32l-.45,2c-.3-.1-.62-.2-.98-.28s-.75-.12-1.18-.12c-.81,0-1.21.22-1.21.67,0,.1.02.2.05.28.04.08.1.16.21.23.1.07.24.16.42.24.18.09.41.18.68.29.56.21,1.03.42,1.4.62.37.2.66.42.87.66.21.24.36.5.45.78.09.29.13.62.13,1,0,.9-.34,1.57-1.01,2.03-.67.46-1.63.69-2.86.69-.81,0-1.48-.07-2.01-.21-.54-.14-.91-.25-1.12-.35l.43-2.09c.44.17.89.31,1.35.41.46.1.92.15,1.37.15Z"/><path class="cls-83" d="m120.2,215.13c-1.95,0-3.43-.54-4.45-1.62s-1.53-2.62-1.53-4.61c0-.99.16-1.88.47-2.65.31-.78.74-1.43,1.28-1.97.54-.54,1.19-.94,1.94-1.22.75-.28,1.56-.41,2.44-.41.51,0,.97.04,1.38.11.42.08.78.16,1.09.26.31.1.57.2.78.3.21.1.36.18.45.24l-.78,2.18c-.37-.2-.8-.36-1.29-.5-.49-.14-1.04-.21-1.67-.21-.42,0-.82.07-1.22.21s-.75.36-1.05.67-.55.7-.73,1.18c-.18.48-.28,1.07-.28,1.76,0,.55.06,1.07.18,1.55.12.48.32.89.59,1.24s.62.62,1.06.82c.44.2.97.3,1.59.3.39,0,.74-.02,1.05-.07.31-.05.59-.1.83-.16s.46-.14.64-.22c.18-.08.35-.16.5-.22l.74,2.16c-.38.23-.92.44-1.61.62-.69.18-1.49.28-2.4.28Z"/><path class="cls-83" d="m129.5,212.83c.38,0,.69-.03.94-.09.25-.06.45-.15.6-.26s.25-.24.31-.39c.06-.15.09-.32.09-.5,0-.39-.18-.72-.55-.98-.37-.26-1-.54-1.9-.84-.39-.14-.78-.3-1.17-.48s-.74-.4-1.05-.67c-.31-.27-.57-.6-.76-.98-.2-.39-.29-.86-.29-1.41s.1-1.05.31-1.5c.21-.44.5-.82.88-1.13s.84-.55,1.38-.72c.54-.17,1.15-.25,1.83-.25.81,0,1.5.09,2.09.26.59.17,1.07.36,1.45.57l-.78,2.13c-.33-.17-.71-.33-1.11-.46-.41-.13-.9-.2-1.48-.2-.65,0-1.11.09-1.39.27s-.42.45-.42.82c0,.22.05.4.16.55.1.15.25.29.44.41s.41.23.66.33c.25.1.52.2.82.3.62.23,1.16.46,1.62.68s.84.49,1.15.79c.31.3.53.65.68,1.05.15.4.22.89.22,1.47,0,1.12-.39,1.98-1.17,2.6-.78.62-1.96.92-3.54.92-.53,0-1.01-.03-1.43-.09-.43-.06-.8-.14-1.13-.23-.33-.09-.61-.19-.85-.29-.24-.1-.43-.2-.6-.29l.76-2.14c.36.2.8.37,1.32.53.52.16,1.17.23,1.93.23Z"/><path class="cls-83" d="m139.8,202.77c1.8,0,3.17.32,4.13.96.96.64,1.43,1.63,1.43,2.98,0,.84-.19,1.52-.58,2.05-.39.52-.94.94-1.67,1.24.24.3.5.64.76,1.03.26.39.53.79.79,1.21.26.42.51.86.75,1.31s.47.9.67,1.34h-3.01c-.22-.39-.44-.79-.67-1.19s-.46-.79-.69-1.18c-.24-.38-.47-.74-.7-1.08-.23-.34-.46-.65-.69-.92h-1.33v4.37h-2.7v-11.8c.59-.11,1.19-.2,1.82-.24.63-.05,1.19-.07,1.68-.07Zm.16,2.3c-.2,0-.37,0-.53.02-.16.01-.3.02-.44.03v3.25h.76c1.01,0,1.74-.13,2.18-.38.44-.25.66-.69.66-1.3s-.22-1-.67-1.25c-.44-.25-1.1-.37-1.96-.37Z"/><path class="cls-83" d="m147.82,214.89v-11.98h8.02v2.26h-5.32v2.51h4.74v2.26h-4.74v4.94h-2.7Z"/><path class="cls-83" d="m161.28,210.34c0-.66.11-1.28.32-1.86.21-.58.52-1.09.92-1.52s.89-.77,1.47-1.03c.58-.25,1.23-.38,1.97-.38.48,0,.93.04,1.33.13.4.09.79.21,1.17.37l-.54,2.06c-.24-.09-.51-.17-.79-.24-.29-.07-.61-.1-.97-.1-.76,0-1.33.24-1.7.71-.37.47-.56,1.09-.56,1.87,0,.82.18,1.45.53,1.9s.96.67,1.84.67c.31,0,.65-.03,1-.09.36-.06.69-.15.99-.28l.36,2.11c-.3.13-.67.24-1.12.33s-.95.14-1.49.14c-.83,0-1.54-.12-2.14-.37-.6-.25-1.09-.58-1.48-1.01-.39-.43-.67-.93-.85-1.51-.18-.58-.27-1.21-.27-1.89Z"/><path class="cls-83" d="m178.42,210.33c0,.71-.1,1.37-.31,1.96-.21.59-.51,1.1-.9,1.52-.39.42-.86.75-1.41.98-.55.23-1.16.35-1.84.35s-1.28-.12-1.82-.35c-.55-.23-1.02-.56-1.41-.98-.39-.42-.7-.93-.92-1.52-.22-.59-.33-1.25-.33-1.96s.11-1.37.34-1.95c.22-.59.54-1.09.93-1.5.4-.41.87-.74,1.42-.97s1.14-.35,1.79-.35,1.26.12,1.81.35c.55.23,1.02.55,1.41.97.39.42.7.92.92,1.5.22.59.33,1.24.33,1.95Zm-2.63,0c0-.8-.16-1.42-.47-1.88-.32-.45-.77-.68-1.36-.68s-1.04.23-1.37.68c-.32.46-.48,1.08-.48,1.88s.16,1.43.48,1.89c.32.47.78.7,1.37.7s1.04-.23,1.36-.7c.32-.47.47-1.1.47-1.89Z"/><path class="cls-83" d="m188.91,210.33c0,.71-.1,1.37-.31,1.96-.21.59-.51,1.1-.9,1.52-.39.42-.86.75-1.41.98-.55.23-1.16.35-1.84.35s-1.28-.12-1.82-.35c-.55-.23-1.02-.56-1.41-.98-.39-.42-.7-.93-.92-1.52-.22-.59-.33-1.25-.33-1.96s.11-1.37.34-1.95c.22-.59.54-1.09.93-1.5.4-.41.87-.74,1.42-.97s1.14-.35,1.79-.35,1.26.12,1.81.35c.55.23,1.02.55,1.41.97.39.42.7.92.92,1.5.22.59.33,1.24.33,1.95Zm-2.63,0c0-.8-.16-1.42-.47-1.88-.32-.45-.77-.68-1.36-.68s-1.04.23-1.37.68c-.32.46-.48,1.08-.48,1.88s.16,1.43.48,1.89c.32.47.78.7,1.37.7s1.04-.23,1.36-.7c.32-.47.47-1.1.47-1.89Z"/><path class="cls-83" d="m193.47,209.06c.25-.27.52-.56.79-.86s.53-.59.79-.88c.25-.29.49-.57.72-.83.22-.26.42-.49.58-.69h3.06c-.61.7-1.21,1.37-1.79,2.01-.58.64-1.22,1.3-1.91,1.97.35.31.7.68,1.07,1.12.37.43.73.88,1.07,1.34.34.46.66.92.95,1.38.29.46.53.88.73,1.26h-2.96c-.18-.3-.39-.63-.63-1-.24-.36-.49-.73-.75-1.09s-.54-.71-.84-1.05c-.29-.33-.58-.62-.87-.85v3.98h-2.57v-13l2.57-.41v7.58Z"/><path class="cls-83" d="m203.72,203.17c0,.47-.15.84-.46,1.11-.3.27-.67.41-1.08.41s-.77-.14-1.08-.41c-.3-.27-.46-.64-.46-1.11s.15-.84.46-1.11c.31-.27.67-.41,1.08-.41s.78.14,1.08.41c.31.27.46.64.46,1.11Zm-.24,11.72h-2.57v-9.09h2.57v9.09Z"/><path class="cls-83" d="m205.47,210.41c0-.81.12-1.51.37-2.12.25-.6.57-1.11.98-1.51.4-.4.87-.71,1.39-.92.52-.21,1.06-.31,1.62-.31,1.29,0,2.31.4,3.06,1.18s1.12,1.95,1.12,3.48c0,.15,0,.31-.02.49-.01.18-.02.34-.03.48h-5.84c.06.53.3.95.74,1.26.44.31,1.03.47,1.76.47.47,0,.94-.04,1.39-.13s.83-.19,1.12-.32l.35,2.09c-.14.07-.32.14-.55.21-.23.07-.49.13-.77.18s-.58.1-.91.13c-.32.03-.65.05-.97.05-.82,0-1.53-.12-2.13-.36-.6-.24-1.11-.57-1.5-.99-.4-.42-.69-.92-.88-1.49-.19-.58-.29-1.2-.29-1.87Zm6.05-.98c-.01-.22-.05-.43-.11-.64-.06-.21-.16-.39-.29-.55-.13-.16-.3-.29-.5-.4-.2-.1-.45-.16-.75-.16s-.54.05-.74.15c-.21.1-.38.23-.52.39-.14.16-.24.35-.32.56-.08.21-.13.43-.16.65h3.4Z"/></g><g id="Layer_4"><polygon class="cls-8" points="610.05 300.77 677.03 271.39 739.78 301.45 674.68 329.31 610.05 300.77"/><polyline class="cls-53" points="675.32 328.34 675.86 393.61 612.4 365.4 610.05 300.77"/><polygon class="cls-60" points="675.27 328.39 675.86 393.61 738.73 363.64 739.9 301.36 675.27 328.39"/><path class="cls-91" d="m684.67,346.32l47.24-21.68c.6-.28,1.01-.86,1.05-1.53l.77-12.33c.08-1.35-1.3-2.31-2.53-1.76l-47.92,21.33c-.65.29-1.06.93-1.07,1.63l-.1,12.68c-.01,1.32,1.36,2.2,2.56,1.65Z"/><path class="cls-20" d="m682.28,345.46c.41.85,1.45,1.29,2.39.86l47.25-21.68c.6-.27,1-.86,1.05-1.52l.77-12.33c.07-1.14-.89-2-1.94-1.92.13.26.19.57.17.9l-.77,12.33c-.04.66-.44,1.25-1.05,1.52l-47.25,21.68c-.21.09-.41.15-.62.16Z"/><path class="cls-30" d="m685.3,365.87l47.24-21.68c.6-.28,1.01-.86,1.05-1.53l.77-12.33c.08-1.35-1.3-2.31-2.53-1.76l-47.92,21.33c-.65.29-1.06.93-1.07,1.63l-.1,12.68c-.01,1.32,1.36,2.2,2.56,1.65Z"/><path class="cls-20" d="m682.91,365.01c.41.85,1.45,1.29,2.39.86l47.25-21.68c.6-.27,1-.86,1.05-1.52l.77-12.33c.07-1.14-.89-2-1.94-1.92.13.26.19.57.17.9l-.77,12.33c-.04.66-.44,1.25-1.05,1.52l-47.25,21.68c-.21.09-.41.15-.62.16Z"/><path class="cls-14" d="m686.01,385.35l48.15-21.62c.6-.28,1.01-.86,1.05-1.53l.77-12.33c.08-1.35-1.3-2.31-2.53-1.76l-48.83,21.27c-.65.29-1.06.93-1.07,1.63l-.1,12.68c-.01,1.32,1.36,2.2,2.56,1.65Z"/><path class="cls-20" d="m683.62,384.49c.41.85,1.45,1.29,2.39.86l48.16-21.62c.6-.27,1-.86,1.05-1.52l.77-12.33c.07-1.14-.89-2-1.94-1.92.13.26.19.57.17.9l-.77,12.33c-.04.66-.44,1.25-1.05,1.52l-48.16,21.62c-.21.09-.41.15-.62.16Z"/><circle class="cls-83" cx="687.3" cy="333.2" r="1.43"/><circle class="cls-83" cx="687.48" cy="338.78" r="1.43"/><circle class="cls-99" cx="694.11" cy="330.29" r="1.43"/><circle class="cls-83" cx="694.93" cy="335.54" r="1.43"/><circle class="cls-83" cx="700.91" cy="327.37" r="1.43"/><circle class="cls-83" cx="701.09" cy="332.95" r="1.43"/><circle class="cls-75" cx="707.71" cy="324.13" r="1.43"/><circle class="cls-83" cx="707.89" cy="329.71" r="1.43"/><circle class="cls-83" cx="714.51" cy="321.22" r="1.43"/><circle class="cls-20" cx="714.69" cy="326.8" r="1.43"/><circle class="cls-83" cx="721.32" cy="317.98" r="1.43"/><circle class="cls-83" cx="721.49" cy="323.88" r="1.43"/><circle class="cls-83" cx="727.79" cy="314.74" r="1.43"/><circle class="cls-83" cx="727.97" cy="320.32" r="1.43"/><circle class="cls-99" cx="687.95" cy="352.31" r="1.43"/><circle class="cls-75" cx="688.13" cy="357.89" r="1.43"/><circle class="cls-83" cx="694.75" cy="349.4" r="1.43"/><circle class="cls-75" cx="695.58" cy="354.65" r="1.43"/><circle class="cls-83" cx="701.56" cy="346.48" r="1.43"/><circle class="cls-75" cx="701.73" cy="352.06" r="1.43"/><circle class="cls-83" cx="708.36" cy="343.24" r="1.43"/><circle class="cls-75" cx="708.54" cy="348.82" r="1.43"/><circle class="cls-83" cx="715.16" cy="340.33" r="1.43"/><circle class="cls-75" cx="715.34" cy="345.91" r="1.43"/><circle class="cls-20" cx="721.96" cy="337.09" r="1.43"/><circle class="cls-75" cx="722.14" cy="342.99" r="1.43"/><circle class="cls-83" cx="728.44" cy="333.85" r="1.43"/><circle class="cls-75" cx="728.62" cy="339.43" r="1.43"/><circle class="cls-83" cx="689.57" cy="371.75" r="1.43"/><circle class="cls-83" cx="689.75" cy="377.33" r="1.43"/><circle class="cls-83" cx="696.37" cy="368.83" r="1.43"/><circle class="cls-83" cx="697.2" cy="374.09" r="1.43"/><circle class="cls-20" cx="703.18" cy="365.92" r="1.43"/><circle class="cls-83" cx="703.35" cy="371.5" r="1.43"/><circle class="cls-83" cx="709.98" cy="362.68" r="1.43"/><circle class="cls-83" cx="710.16" cy="368.26" r="1.43"/><circle class="cls-75" cx="716.78" cy="359.76" r="1.43"/><circle class="cls-83" cx="716.96" cy="365.34" r="1.43"/><circle class="cls-83" cx="723.58" cy="356.52" r="1.43"/><circle class="cls-20" cx="723.76" cy="362.43" r="1.43"/><circle class="cls-83" cx="730.06" cy="353.29" r="1.43"/><circle class="cls-83" cx="730.24" cy="358.87" r="1.43"/><polygon class="cls-82" points="613.69 305.17 616.61 363.08 671.75 388.32 671.75 329.56 613.69 305.17"/><polygon class="cls-20" points="613.69 305.17 615.98 306.03 618.42 362.54 616.61 363.08 613.69 305.17"/><polygon class="cls-20" points="618.42 362.54 671.75 387.14 671.75 388.32 616.61 363.08 618.42 362.54"/><line class="cls-101" x1="623.82" y1="361.59" x2="623.2" y2="338.96"/><line class="cls-101" x1="627.23" y1="363.14" x2="626.61" y2="340.51"/><line class="cls-101" x1="630.64" y1="365" x2="630.02" y2="342.37"/><line class="cls-101" x1="634.05" y1="366.86" x2="633.43" y2="344.23"/><line class="cls-101" x1="637.46" y1="368.41" x2="636.84" y2="345.78"/><line class="cls-101" x1="640.87" y1="369.96" x2="640.25" y2="347.33"/><line class="cls-101" x1="645.14" y1="371.54" x2="644.52" y2="348.91"/><line class="cls-101" x1="648.55" y1="373.09" x2="647.93" y2="350.46"/><line class="cls-101" x1="651.96" y1="374.95" x2="651.34" y2="352.32"/><line class="cls-101" x1="655.37" y1="376.81" x2="654.75" y2="354.18"/><line class="cls-101" x1="658.78" y1="378.36" x2="658.16" y2="355.73"/><line class="cls-101" x1="662.19" y1="379.9" x2="661.57" y2="357.28"/><polygon class="cls-44" points="620.97 299.81 674.98 325.39 728.99 301.23 674.98 322.55 620.97 299.81"/><polygon class="cls-44" points="618.13 299.81 676.4 274.23 728.99 299.81 676.4 275.65 618.13 299.81"/><g class="cls-107"><g id="_1"><path class="cls-49" d="m645,343.87l-.16-.06.02-.64v-.1s.01-.11.01-.11c-.03.03-.05.05-.06.06l-.09.07-.08-.17.26-.2.14.05-.03,1.11Z"/></g><g id="_0"><path class="cls-49" d="m644.53,343.15c0,.19-.03.33-.08.4-.05.08-.12.1-.21.07-.08-.02-.15-.1-.2-.21-.04-.11-.06-.26-.06-.45s.03-.33.08-.41c.05-.08.11-.1.21-.07.08.02.16.1.2.21.05.12.06.27.06.45Zm-.38-.13c0,.13,0,.23.02.3.01.07.06.12.1.12.03,0,.05-.03.06-.06.02-.05.03-.15.03-.28s0-.23-.02-.3c0-.05-.04-.1-.08-.12s-.07.01-.08.06c-.02.05-.03.15-.03.29Z"/></g><g id="_0-2"><path class="cls-49" d="m648.08,342.7c-.01.28-.05.47-.12.58-.07.11-.17.15-.29.1s-.21-.14-.27-.3c-.06-.16-.08-.37-.07-.63s.05-.47.12-.58c.07-.11.16-.15.29-.11s.22.14.27.3c.06.16.08.37.07.64Zm-.53-.17c0,.19,0,.34.02.43.02.09.06.14.11.16s.09-.01.12-.09c.03-.08.05-.21.05-.4s0-.34-.02-.43c-.02-.09-.06-.15-.11-.16s-.09.01-.12.09c-.03.08-.05.22-.05.41h0Z"/></g><g id="_1-2"><path class="cls-49" d="m647,343.14l-.23-.08.03-.9v-.15s.02-.16.02-.16c-.04.04-.07.07-.08.08l-.13.1-.1-.24.36-.29.19.06-.06,1.56h0Z"/></g><g id="_0-3"><path class="cls-49" d="m646.35,342.14c0,.27-.05.46-.11.57-.07.11-.16.14-.29.1s-.22-.14-.27-.3c-.06-.16-.08-.36-.07-.62s.05-.46.11-.57c.07-.11.16-.15.29-.1s.22.14.28.29c.06.16.09.37.08.63Zm-.53-.17c0,.19,0,.33.02.42.02.09.06.14.11.16s.09-.01.12-.09c.02-.08.04-.21.05-.4s0-.33-.02-.42c-.02-.09-.06-.15-.11-.16s-.09.01-.12.09c-.02.08-.04.22-.05.4h0Z"/></g><g id="_1-3"><path class="cls-49" d="m642.89,341.78l-.16-.05v-.63s.02-.1.02-.1v-.11s-.04.05-.05.06l-.09.07-.08-.16.26-.2.13.04-.02,1.09Z"/></g><g id="_0-4"><path class="cls-49" d="m642.41,341.07c0,.19-.03.32-.07.4-.05.08-.11.1-.21.07-.08-.02-.16-.1-.2-.21-.04-.11-.06-.26-.06-.44,0-.19.03-.32.07-.4.05-.08.11-.1.21-.07.08.02.16.1.2.21.04.11.06.26.06.44Zm-.38-.12c0,.13,0,.23.02.29.01.07.06.12.11.12.03,0,.05-.02.06-.06.02-.05.03-.14.03-.28s0-.23-.02-.3c-.01-.07-.06-.12-.11-.12-.03,0-.05.03-.06.06-.01.06-.02.15-.03.28Z"/></g><g id="_1-4"><path class="cls-49" d="m648.03,341.67l-.23-.07.04-.93v-.15s.02-.17.02-.17c-.04.04-.07.07-.09.09l-.13.11-.1-.24.37-.3.19.06-.07,1.61h0Z"/></g><g id="_0-5"><path class="cls-49" d="m647.37,340.65c-.01.28-.05.48-.12.59-.07.11-.17.15-.3.11s-.22-.14-.28-.3c-.06-.16-.09-.37-.08-.64s.05-.48.12-.59c.07-.11.17-.15.3-.11s.22.14.28.3c.06.16.08.38.07.64Zm-.54-.17c0,.2,0,.34.02.43.02.09.06.15.11.16s.09-.01.12-.09c.03-.08.05-.21.05-.41s0-.34-.02-.43c-.02-.09-.06-.15-.11-.17s-.1.01-.12.09c-.03.08-.05.21-.05.41Z"/></g><g id="_1-5"><path class="cls-49" d="m645.08,340.74l-.23-.07.03-.89v-.14s.02-.16.02-.16c-.04.04-.07.07-.08.08l-.13.1-.1-.23.36-.29.19.06-.05,1.54Z"/></g><g id="_0-6"><path class="cls-49" d="m644.42,339.76c0,.27-.04.46-.11.56-.06.11-.16.14-.29.1s-.22-.13-.28-.29c-.06-.15-.09-.36-.08-.61s.04-.46.11-.56c.06-.11.16-.14.29-.11s.22.13.28.28c.06.15.09.36.08.62Zm-.53-.16c0,.19,0,.33.02.41.02.09.06.14.11.16s.09-.01.12-.09c.02-.08.04-.21.05-.39s0-.33-.03-.41c-.02-.09-.06-.14-.11-.16s-.09.01-.12.09c-.02.08-.04.2-.05.39h0Z"/></g><g id="_1-6"><path class="cls-49" d="m643.35,340.19l-.23-.07.02-.88v-.14s.01-.16.01-.16c-.04.04-.07.07-.08.08l-.13.1-.11-.23.36-.28.19.06-.04,1.52Z"/></g><g id="_0-7"><path class="cls-49" d="m642.68,339.23c0,.26-.04.45-.1.55-.06.11-.16.14-.29.1s-.22-.13-.28-.28c-.06-.15-.09-.35-.09-.6s.04-.45.1-.56c.06-.11.16-.14.29-.1s.22.13.28.28c.06.15.09.36.09.61Zm-.53-.16c0,.18,0,.32.03.41.02.09.06.14.11.15s.09-.01.12-.09c.02-.07.04-.2.04-.39s0-.32-.03-.41c-.02-.09-.06-.14-.11-.16s-.09.01-.12.09c-.02.07-.04.2-.04.39h0Z"/></g><g id="_0-8"><path class="cls-49" d="m646.66,336.92c-.08-.22-.22-.35-.39-.4s-.32,0-.42.16c-.09.16-.15.43-.16.81s.03.66.11.87c.08.21.21.35.39.4s.32,0,.42-.16c.1-.16.15-.43.16-.81.02-.37-.02-.67-.11-.88Zm-.28,1.35c-.04.11-.09.15-.17.13s-.13-.1-.16-.22c-.03-.13-.04-.32-.03-.59s.03-.45.07-.56c.04-.11.1-.15.17-.13s.13.09.16.22c.03.13.04.33.03.59,0,.27-.03.45-.07.56Z"/></g><g id="_1-7"><path class="cls-49" d="m645.24,338.46l-.32-.09.04-1.25v-.2s.02-.22.02-.22c-.06.06-.1.1-.12.12l-.18.15-.15-.32.51-.42.27.07-.06,2.16Z"/></g><g id="_1-8"><path class="cls-49" d="m644.01,338.1l-.32-.09.03-1.24v-.2s.02-.22.02-.22c-.06.06-.09.1-.12.12l-.18.15-.15-.31.51-.41.27.07-.06,2.14h0Z"/></g><g id="_1-9"><path class="cls-49" d="m642.78,337.75l-.32-.09.02-1.22v-.2s.02-.22.02-.22c-.06.06-.09.1-.12.11l-.18.15-.15-.31.51-.4.27.07-.04,2.12Z"/></g><g id="_10"><path class="cls-49" d="m646.66,335.52l-.33-.09.04-1.26v-.21s.02-.23.02-.23c-.06.06-.1.1-.12.12l-.19.16-.15-.32.53-.44.27.07-.08,2.19h0Z"/><path class="cls-49" d="m648.11,333.92c-.09-.22-.22-.35-.4-.39s-.33.01-.42.18c-.1.17-.15.44-.17.83s.02.66.11.88c.09.21.22.34.4.39s.33,0,.42-.17c.1-.16.15-.44.17-.82.01-.37-.02-.67-.11-.89Zm-.3,1.38c-.04.11-.1.15-.17.13s-.13-.09-.16-.22c-.03-.13-.04-.33-.03-.59s.03-.46.07-.57c.04-.11.1-.15.18-.14s.13.09.16.22c.03.13.04.32.03.6s-.03.46-.07.57Z"/></g><g id="_10-2"><path class="cls-49" d="m642.84,334.53l-.33-.09.02-1.22v-.2s.02-.22.02-.22c-.06.06-.1.1-.12.12l-.18.15-.16-.31.52-.42.27.07-.04,2.12Z"/><path class="cls-49" d="m644.39,333.85c-.01.37-.06.64-.16.8-.09.16-.23.21-.42.16s-.31-.17-.4-.38c-.09-.21-.13-.49-.12-.85s.06-.64.15-.8c.09-.16.23-.21.42-.17s.32.17.4.38c.09.21.13.5.12.86Zm-.77-.19c0,.26,0,.45.04.58.03.12.09.19.16.21s.13-.02.17-.13c.04-.1.06-.29.06-.55s0-.46-.04-.58c-.03-.12-.09-.19-.16-.21s-.13.03-.17.13c-.04.1-.06.29-.06.55h0Z"/></g><g id="Layer_2"><path id="cloud" class="cls-49" d="m647.76,332.15c-.17-1.8-1.25-3.35-2.61-3.63l-.49-.1c-.3-2.5-1.88-4.55-3.79-4.86s-3.53,1.11-3.89,3.34c-1.39-.09-2.45,1.13-2.42,2.87.03,1.87,1.27,3.72,2.75,4.12l3.99,1.07c.21.05.38-.14.38-.43,0-.28-.16-.54-.36-.6l-4.01-1.04c-1.07-.28-1.95-1.6-1.97-2.94-.02-1.34.86-2.25,1.95-2.02.4.08.8.32,1.13.7.16.18.37.2.51.06h0c.15-.16.16-.48,0-.71-.02-.02-.03-.04-.05-.06-.32-.37-.7-.64-1.1-.82.34-1.71,1.59-2.77,3.08-2.51,1.57.27,2.85,2,3.04,4.08-.13.06-.25.13-.36.21-.18.13-.23.45-.11.71.01.03.02.05.04.08h0c.13.21.35.28.5.16.34-.25.74-.33,1.14-.24.97.2,1.74,1.31,1.87,2.59.03.26.18.48.37.53h0c.21.05.4-.15.41-.45,0-.04,0-.08,0-.11Z"/></g></g><g class="cls-105"><polygon class="cls-13" points="110.62 466.49 91.13 514.39 91.13 466.49 110.62 466.49"/><polygon class="cls-13" points="118.91 466.49 91.13 534.77 91.13 514.39 110.62 466.49 118.91 466.49"/><polygon class="cls-65" points="127.2 466.49 91.13 555.15 91.13 534.77 118.91 466.49 127.2 466.49"/><polygon class="cls-85" points="135.49 466.49 96.53 562.28 91.21 562.28 91.13 562.25 91.13 555.15 127.2 466.49 135.49 466.49"/><polygon class="cls-12" points="143.78 466.49 104.82 562.28 96.53 562.28 135.49 466.49 143.78 466.49"/><polygon class="cls-50" points="152.08 466.49 113.11 562.28 104.82 562.28 143.78 466.49 152.08 466.49"/><polygon class="cls-37" points="160.37 466.49 121.4 562.28 113.11 562.28 152.08 466.49 160.37 466.49"/><polygon class="cls-52" points="168.66 466.49 129.69 562.28 121.4 562.28 160.37 466.49 168.66 466.49"/><polygon class="cls-38" points="176.95 466.49 137.98 562.28 129.69 562.28 168.66 466.49 176.95 466.49"/><polygon class="cls-72" points="185.24 466.49 146.27 562.28 137.98 562.28 176.95 466.49 185.24 466.49"/><polygon class="cls-98" points="193.53 466.49 154.57 562.28 146.27 562.28 185.24 466.49 193.53 466.49"/><polygon class="cls-84" points="201.83 466.49 162.86 562.28 154.57 562.28 193.53 466.49 201.83 466.49"/><polygon class="cls-11" points="210.12 466.49 171.15 562.28 162.86 562.28 201.83 466.49 210.12 466.49"/><polygon class="cls-94" points="218.41 466.49 179.44 562.28 171.15 562.28 210.12 466.49 218.41 466.49"/><polygon class="cls-87" points="226.7 466.49 187.73 562.28 179.44 562.28 218.41 466.49 226.7 466.49"/><polygon class="cls-62" points="229.31 466.49 229.38 466.52 229.38 480.29 196.02 562.28 187.73 562.28 226.7 466.49 229.31 466.49"/><polygon class="cls-23" points="229.38 500.67 204.32 562.28 196.02 562.28 229.38 480.29 229.38 500.67"/><polygon class="cls-34" points="229.38 521.05 212.61 562.28 204.32 562.28 229.38 500.67 229.38 521.05"/><polygon class="cls-6" points="229.38 541.43 220.9 562.28 212.61 562.28 229.38 521.05 229.38 541.43"/><polygon class="cls-6" points="220.9 562.28 229.38 541.43 229.38 562.28 220.9 562.28"/></g><g class="cls-104"><path class="cls-21" d="m234.37,567.23l-3.69-2.44c-26.3-17.38-65.86-43.37-70.92-46.31l-7.53.52,82.14-60.3v108.53Zm-69.82-51.37c4.34,2.67,13.41,8.57,33.22,21.57,12.83,8.42,25.71,16.92,31.85,20.96v-90.29l-65.06,47.76Z"/><path class="cls-21" d="m86.14,567.23v-108.53l82.14,60.3-7.53-.52c-5.06,2.94-44.61,28.93-70.92,46.31l-3.69,2.44Zm4.76-99.13v90.29c6.13-4.05,19.02-12.55,31.85-20.96,19.8-12.99,28.88-18.9,33.22-21.57l-65.06-47.76Z"/><g class="cls-102"><path class="cls-19" d="m89.26,473.47l66.66,49.1c2.58,1.9,6.1,1.9,8.68,0l66.66-49.1v-6.98H89.26v6.98Z"/></g><g class="cls-103"><rect class="cls-45" x="92.9" y="462.69" width="1.39" height="55"/><rect class="cls-66" x="94.3" y="462.69" width="2.52" height="55"/><rect class="cls-40" x="96.82" y="462.69" width="2.52" height="55"/><rect class="cls-56" x="99.33" y="462.69" width="2.52" height="55"/><rect class="cls-9" x="101.85" y="462.69" width="2.52" height="55"/><rect class="cls-96" x="104.37" y="462.69" width="2.52" height="55"/><rect class="cls-81" x="106.89" y="462.69" width="2.52" height="55"/><rect class="cls-31" x="109.41" y="462.69" width="2.52" height="55"/><rect class="cls-5" x="111.93" y="462.69" width="2.52" height="55"/><rect class="cls-17" x="114.45" y="462.69" width="2.52" height="55"/><rect class="cls-41" x="116.97" y="462.69" width="2.52" height="55"/><rect class="cls-97" x="119.49" y="462.69" width="2.52" height="55"/><rect class="cls-3" x="122.01" y="462.69" width="2.52" height="55"/><rect class="cls-39" x="124.53" y="462.69" width="2.52" height="55"/><rect class="cls-68" x="127.05" y="462.69" width="2.52" height="55"/><rect class="cls-7" x="129.57" y="462.69" width="2.52" height="55"/><rect class="cls-32" x="132.09" y="462.69" width="2.52" height="55"/><rect class="cls-74" x="134.61" y="462.69" width="2.52" height="55"/><rect class="cls-93" x="137.13" y="462.69" width="2.52" height="55"/><rect class="cls-27" x="139.64" y="462.69" width="2.52" height="55"/><rect class="cls-54" x="142.16" y="462.69" width="2.52" height="55"/><rect class="cls-55" x="144.68" y="462.69" width="2.52" height="55"/><rect class="cls-25" x="147.2" y="462.69" width="2.52" height="55"/><rect class="cls-42" x="149.72" y="462.69" width="2.52" height="55"/><rect class="cls-80" x="152.24" y="462.69" width="2.52" height="55"/><rect class="cls-95" x="154.76" y="462.69" width="2.52" height="55"/><rect class="cls-36" x="157.28" y="462.69" width="2.52" height="55"/><rect class="cls-86" x="159.8" y="462.69" width="2.52" height="55"/><rect class="cls-89" x="162.32" y="462.69" width="2.52" height="55"/><rect class="cls-10" x="164.84" y="462.69" width="2.52" height="55"/><rect class="cls-47" x="167.36" y="462.69" width="2.52" height="55"/><rect class="cls-28" x="169.88" y="462.69" width="2.52" height="55"/><rect class="cls-29" x="172.4" y="462.69" width="2.52" height="55"/><rect class="cls-15" x="174.92" y="462.69" width="2.52" height="55"/><rect class="cls-63" x="177.44" y="462.69" width="2.52" height="55"/><rect class="cls-76" x="179.96" y="462.69" width="2.52" height="55"/><rect class="cls-16" x="182.47" y="462.69" width="2.52" height="55"/><rect class="cls-100" x="184.99" y="462.69" width="2.52" height="55"/><rect class="cls-67" x="187.51" y="462.69" width="2.52" height="55"/><rect class="cls-64" x="190.03" y="462.69" width="2.52" height="55"/><rect class="cls-24" x="192.55" y="462.69" width="2.52" height="55"/><rect class="cls-35" x="195.07" y="462.69" width="2.52" height="55"/><rect class="cls-77" x="197.59" y="462.69" width="2.52" height="55"/><rect class="cls-71" x="200.11" y="462.69" width="2.52" height="55"/><rect class="cls-92" x="202.63" y="462.69" width="2.52" height="55"/><rect class="cls-59" x="205.15" y="462.69" width="2.52" height="55"/><rect class="cls-73" x="207.67" y="462.69" width="2.52" height="55"/><rect class="cls-48" x="210.19" y="462.69" width="2.52" height="55"/><rect class="cls-13" x="212.71" y="462.69" width="2.52" height="55"/><rect class="cls-13" x="215.23" y="462.69" width="12.38" height="55"/></g></g><path class="cls-57" d="m223.25,108.58c0-15.86-6.29-30.24-16.51-40.81v-.02s3.68-6.28-3.23-7.33c-1.87-.28-4.49-.76-7.32-1.3-9.15-5.87-20.02-9.29-31.7-9.29-5.32,0-10.48.72-15.38,2.05-1.89-1.71-4.22-3.13-6.03-2.05-3.68,2.19-10.55,9.42-11.65,10.18-.02.01-.05.04-.07.06-4.82,3.3-9.12,7.3-12.76,11.86-.04.04-.07.07-.07.07,0,0-10.13,4.2-10.13,6.3s-.53,10.82,0,12.77c0,0,0,0,0,0-1.73,5.53-2.66,11.42-2.66,17.52,0,7.92,1.58,15.47,4.42,22.36,0,0,0,.03,0,.03.04.09.09.23.16.39.01.03.03.07.04.1,1.31,3.26,7.05,18,13.27,23.02,6.63,5.35,21.97,9.74,21.97,9.74h.04c5.92,2,12.25,3.1,18.84,3.1.7,0,1.4-.03,2.1-.05,3.51,1.23,7.61,1.81,11.17.05,8.27-4.07,11.55-5.49,11.55-5.49h6.84l1.89-5.05c15.23-10.62,25.2-28.25,25.2-48.22Z"/><path class="cls-2" d="m223.25,108.58c0-15.86-6.29-30.24-16.51-40.81v-.02s3.68-6.28-3.23-7.33c-1.87-.28-4.49-.76-7.32-1.3-9.15-5.87-20.02-9.29-31.7-9.29-5.32,0-10.48.72-15.38,2.05-1.89-1.71-4.22-3.13-6.03-2.05-3.68,2.19-10.55,9.42-11.65,10.18-.02.01-.05.04-.07.06-4.82,3.3-9.12,7.3-12.76,11.86-.04.04-.07.07-.07.07,0,0-10.13,4.2-10.13,6.3s-.53,10.82,0,12.77c0,0,0,0,0,0-1.73,5.53-2.66,11.42-2.66,17.52,0,7.92,1.58,15.47,4.42,22.36,0,0,0,.03,0,.03.04.09.09.23.16.39.01.03.03.07.04.1,1.31,3.26,7.05,18,13.27,23.02,6.63,5.35,21.97,9.74,21.97,9.74h.04c5.92,2,12.25,3.1,18.84,3.1.7,0,1.4-.03,2.1-.05,3.51,1.23,7.61,1.81,11.17.05,8.27-4.07,11.55-5.49,11.55-5.49h6.84l1.89-5.05c15.23-10.62,25.2-28.25,25.2-48.22Z"/><path class="cls-18" d="m128.97,137.85s-7.92-6.01-6.55-8.73,10.1-22.66,10.1-22.66c0,0-.55,21.84-1.64,23.75-1.09,1.91-1.91,7.64-1.91,7.64Z"/><path class="cls-18" d="m164.5,145.77l-7.41-4.91s5.27-.82,7.41-4.64,0-12.01,0-12.01c0,0,7.33,3.55,8.97,6.01,1.64,2.46,3.28,3.82,0,3.82s-5.19.82-4.91,3.82,3.55,6.55-.55,7.92-3.51,0-3.51,0Z"/><path class="cls-18" d="m182.47,102.09c-5.46-4.37-4.37-3.82-3.82-6.28s4.64-10.65,7.92-7.1c3.28,3.55,4.37,4.58,3.82,6.25-.55,1.67-6.04,7.13-6.04,7.13h-1.88Z"/><g class="cls-106"><path class="cls-18" d="m113.04,137.85s6.76,9.55,14.34,11.46c7.59,1.91,17.96,4.37,20.96,4.37s-3.28,2.18,0,4.37,5.46,2.46,7.37,2.46,10.1-4.09,11.74-4.64,6.28-1.36,9.55-.82,5.73.27,12.28-.55c6.55-.82,16.38-9.55,17.2-10.1s2.73-5.19,3-6.55,4.09-4.37,5.46-6.28,4.37-7.37,4.37-7.37l3.27-6.79s8.2,45.27,7.65,48.28c-.55,3-34.12,23.48-36.3,23.48s-42.86-14.47-51.86-16.65c-9.01-2.18-33.57-12.56-34.39-13.92s5.37-20.75,5.37-20.75Z"/></g><path class="cls-18" d="m186.56,140.79c-1.62-2.91,1.62-8.73,1.94-10.68.32-1.94,7.76-7.96,7.76-7.96,0,0,4.53-7.24,6.47-4.98s4.53,6.79,2.26,9.7c-2.26,2.91-4.21,9.65-9.06,10.97s-4.7,4.88-5.42,7.14c-.72,2.26-.98,6.47-4.41,6.47s-2.46-.65-5.37,0-.32-6.79,1.94-7.12,3.88-3.56,3.88-3.56Z"/><path class="cls-18" d="m132.52,93.56s2.29-8.73,3.26-12.62,7.12-7.76,7.12-7.76c0,0,4.21,11.97.97,12.94-3.23.97-9.7,7.44-9.7,7.44h-1.64Z"/><path class="cls-18" d="m184.35,68.98c.52.38,1.01.74,1.47,1.09,6.66,5.06,7.46,7.38,11.09,8.29,3.88.97,9.2,8.29,8.97,9.48s1.38,7.13,1.38,7.13c0,0,5.18,6.68,5.18,4.09s-2.26-14.74-2.26-14.74c-.65-2.08-4.85-8.55-9.38-9.84-4.53-1.29-16.45-5.5-16.45-5.5Z"/><circle class="cls-69" cx="177.56" cy="56.06" r="3.96"/><circle class="cls-88" cx="134.89" cy="65.88" r="2.38"/><path class="cls-26" d="m158.39,94.97c-1.46-.63-7.92,3.07-7.92,3.07,0,0-2.53,6.02,2.22,6.65s7.29-.44,7.29-2.6,1.58-5.76-1.58-7.13Z"/><path class="cls-1" d="m186.75,135.29c-4.27,2.67-6.38,1.98-5.22,5.52s-3.39,2.33,1.16,3.54,7.19,3.21,7.84.65,3.25-8.13,0-9.71c-3.25-1.57-3.77,0-3.77,0Z"/><path class="cls-43" d="m134.89,134.59c-5.56.51-3.48-2.6-5.52.86s-1.95,2.36-1.99,4.97c-.04,2.61,4.75,4.2,4.75,4.2,0,0,1.75.63,2.76,0s2.48-.95,2.38-2.53,0-4.22,0-4.22c0,0-.86-3.4-2.38-3.26Z"/><path class="cls-51" d="m155.09,159.19c-.49-4.44-.58-5.39,2-5.39s7.81.95,7.41,2.69,1.35,3.33,0,3.96-1.83,1.27-4.12,1.58-1.93,1.53-3.29,0l-1.36-1.53-.63-1.32Z"/><path class="cls-22" d="m112.14,102.09c-1.27.7-1.58,2.78-1.58,2.78,0,0,.63.51,1.58,1.59.95,1.08,2.85,2.49,2.85,2.49l1.9-2.49v-1.59l-3.17-1.76-1.58-1.01Z"/><path class="cls-90" d="m175.35,111.34v1.58h2.37l.63-1.9-.79-2.08-2.21,2.4Z"/><path class="cls-79" d="m184.35,83.37c.18,2.24,2.22,5.35,2.22,5.35l2.77,3.06,3.33,4.63-.54,10.05s-3.65,2.43-3.61,4.48,7.07-3.38,8.08-6.07c1-2.68,1.86-10.89,1.81-11.31s-2.82-5.72-2.82-5.72c0,0-1.08-3.69-5.06-4.47s-6.17,0-6.17,0Z"/><path class="cls-79" d="m145.08,77.82s2.27-6.03,2.27-6.78-2.27-2.06-2.27-2.06c0,0-9.54,2.32-11.3,4.07-1.76,1.76-5.27,9.98-5.27,9.98l-3.27,5.85v3.27l7.03-11.3s3.71-4.52,4.99-4.52,3.05-.25,3.55-1,2.07-2.13,2.07-2.13l2.19,4.64Z"/><path class="cls-79" d="m184.35,64.51v4.47s9.79,3.37,10.77,3.7,4.74,1.46,5.68,1.8,3.84.58,5.09,1.59,3.76,4.49,3.76,4.49c0,0-6.28-8.76-7.03-9.27s-9.95-5.41-9.95-5.41c0,0-5.98-2.37-8.32-1.37Z"/><path class="cls-79" d="m159.91,54.97c-1.26,3.52-.58,3.57.46,5.05s5.84,3.49,5.84,3.49c0,0,2.99-3.26,3.99.76,1,4.02,1.26-2.01,1.26-2.01,0,0,.25-5.53-2.26-6.78-2.51-1.26-9.29-1.76-9.29-1.76v1.26Z"/><path class="cls-79" d="m132.52,106.46s2.68-4.37,3.78-2.99c1.11,1.38,2.17,1.15,2.5,2.99.33,1.84-1.53,10.28-1.53,10.28l-2.38,2.62-2.38-12.9Z"/><path class="cls-79" d="m164.5,80.56c-.48.11-.91,2.41.86,2.81s4.88-1.67,5.92-1.67,4.95-1.94,5.59-1.14,7.49-3,7.49-3c0,0,1.21-3.91-2.83-4.37s-5.93-1.43-7.23-.77-9.31,8.04-9.8,8.15Z"/><g id="arrow_styles_for_diagrams_etc"><g id="arrow_styles_for_diagrams_etc-2"><path class="cls-46" d="m581.43,333.68l-31.05,17.86c-.92.52-2.06-.13-2.06-1.19v-9.21H116.21c-2.75,0-4.98-2.23-4.98-4.98v-7.31c0-2.74,2.22-4.97,4.97-4.97h432.12v-9.21c0-1.06,1.15-1.72,2.06-1.19l31.05,17.86c.92.52.92,1.84,0,2.36Z"/></g></g><path class="cls-4" d="m725.69,443.6h-9.21v96.06c0,.25-.04.5-.07.74v.46c0,2.08-1.69,3.77-3.77,3.77h-424.13c-2.08,0-3.77-1.69-3.77-3.77v-9.73c0-2.08,1.69-3.77,3.77-3.77h410.71v-83.76h-9.21c-1.06,0-1.72-1.15-1.2-2.06l17.86-31.05c.52-.92,1.84-.92,2.36,0l17.86,31.05c.52.92-.13,2.06-1.19,2.06Z"/><path class="cls-78" d="m725.69,221.4h-9.21v-96.06c0-.25-.04-.5-.07-.74v-.46c0-2.08-1.69-3.77-3.77-3.77h-424.8c-2.08,0-3.77,1.69-3.77,3.77v9.73c0,2.08,1.69,3.77,3.77,3.77h411.37v83.76h-9.21c-1.06,0-1.72,1.15-1.2,2.06l17.86,31.05c.52.92,1.84.92,2.36,0l17.86-31.05c.52-.92-.13-2.06-1.19-2.06Z"/><rect class="cls-13" x="103.04" y="305.17" width="113.74" height="55.12" rx="10.71" ry="10.71"/><path class="cls-83" d="m130.83,325.24c1.8,0,3.17.32,4.13.96.96.64,1.43,1.63,1.43,2.98,0,.84-.19,1.52-.58,2.05-.39.52-.94.94-1.67,1.24.24.3.5.64.76,1.03s.53.79.79,1.21c.26.42.51.86.75,1.31s.47.9.67,1.34h-3.01c-.22-.39-.44-.79-.67-1.19s-.46-.79-.69-1.18c-.24-.38-.47-.74-.7-1.08-.23-.34-.46-.65-.69-.92h-1.33v4.37h-2.7v-11.8c.59-.11,1.19-.2,1.82-.24.63-.05,1.19-.07,1.68-.07Zm.16,2.3c-.2,0-.37,0-.53.02-.16.01-.3.02-.44.03v3.25h.76c1.01,0,1.74-.13,2.18-.38.44-.25.66-.69.66-1.3s-.22-1-.67-1.25c-.44-.25-1.1-.37-1.96-.37Z"/><path class="cls-83" d="m137.81,332.88c0-.81.12-1.51.37-2.12.25-.6.57-1.11.98-1.51.4-.4.87-.71,1.39-.92.52-.21,1.06-.31,1.62-.31,1.29,0,2.31.4,3.06,1.18s1.12,1.95,1.12,3.48c0,.15,0,.31-.02.49-.01.18-.02.34-.03.48h-5.84c.06.53.3.95.74,1.26.44.31,1.03.47,1.76.47.47,0,.94-.04,1.39-.13.46-.09.83-.19,1.12-.32l.35,2.09c-.14.07-.32.14-.55.21s-.49.13-.77.18-.58.09-.91.13c-.32.04-.65.05-.97.05-.82,0-1.53-.12-2.13-.36-.6-.24-1.11-.57-1.5-.99-.4-.42-.69-.92-.88-1.49-.19-.58-.29-1.2-.29-1.87Zm6.05-.98c-.01-.22-.05-.43-.11-.64-.06-.21-.16-.39-.29-.55-.13-.16-.3-.29-.5-.4-.2-.1-.45-.16-.75-.16s-.54.05-.74.15c-.21.1-.38.23-.52.39-.14.16-.24.35-.32.56-.08.21-.13.43-.16.65h3.4Z"/><path class="cls-83" d="m147.9,332.81c0-.7.11-1.35.32-1.93.21-.58.52-1.08.92-1.5s.9-.75,1.49-.98c.59-.23,1.26-.35,2-.35.31,0,.64.01.98.04s.67.07,1,.11.64.1.94.16c.3.06.56.13.79.2v11.98h-2.58v-3.42c-.29.13-.59.22-.9.29-.31.07-.65.1-1,.1-1.29,0-2.28-.42-2.96-1.27s-1.02-2-1.02-3.45Zm2.63.07c0,1.65.61,2.47,1.83,2.47.26,0,.53-.03.79-.1s.47-.16.63-.26v-4.65c-.13-.02-.29-.04-.48-.06-.2-.02-.41-.03-.64-.03-.7,0-1.23.24-1.59.72-.36.48-.54,1.11-.54,1.91Z"/><path class="cls-83" d="m166.53,337.04c-.44.13-1,.25-1.69.35s-1.42.16-2.18.16-1.41-.1-1.93-.31c-.51-.21-.92-.5-1.22-.87-.3-.37-.51-.82-.64-1.34-.13-.52-.19-1.09-.19-1.71v-5.06h2.58v4.75c0,.83.11,1.43.33,1.8.22.37.63.55,1.23.55.18,0,.38,0,.59-.03.21-.02.39-.04.55-.06v-7.02h2.57v8.78Z"/><path class="cls-83" d="m168.52,332.88c0-.81.12-1.51.37-2.12.25-.6.57-1.11.98-1.51.4-.4.87-.71,1.39-.92.52-.21,1.06-.31,1.62-.31,1.29,0,2.31.4,3.06,1.18s1.12,1.95,1.12,3.48c0,.15,0,.31-.02.49-.01.18-.02.34-.03.48h-5.84c.06.53.3.95.74,1.26.44.31,1.03.47,1.76.47.47,0,.94-.04,1.39-.13.46-.09.83-.19,1.12-.32l.35,2.09c-.14.07-.32.14-.55.21s-.49.13-.77.18-.58.09-.91.13c-.32.04-.65.05-.97.05-.82,0-1.53-.12-2.13-.36-.6-.24-1.11-.57-1.5-.99-.4-.42-.69-.92-.88-1.49-.19-.58-.29-1.2-.29-1.87Zm6.05-.98c-.01-.22-.05-.43-.11-.64-.06-.21-.16-.39-.29-.55-.13-.16-.3-.29-.5-.4-.2-.1-.45-.16-.75-.16s-.54.05-.74.15c-.21.1-.38.23-.52.39-.14.16-.24.35-.32.56-.08.21-.13.43-.16.65h3.4Z"/><path class="cls-83" d="m181.65,335.5c.47,0,.81-.05,1-.14.2-.09.29-.27.29-.54,0-.21-.13-.39-.38-.54-.25-.16-.64-.33-1.16-.53-.4-.15-.77-.3-1.1-.47-.33-.16-.61-.35-.84-.58s-.41-.49-.54-.8c-.13-.31-.19-.69-.19-1.12,0-.85.32-1.53.95-2.02.63-.5,1.5-.74,2.61-.74.55,0,1.08.05,1.59.15.51.1.91.2,1.21.32l-.45,2c-.3-.1-.62-.2-.98-.28s-.75-.12-1.18-.12c-.81,0-1.21.22-1.21.67,0,.1.02.2.05.28.04.08.1.16.21.23.1.07.24.16.42.24.18.09.41.18.68.29.56.21,1.03.42,1.4.62.37.2.66.42.87.66.21.24.36.5.45.78.09.29.13.62.13,1,0,.9-.34,1.57-1.01,2.03s-1.63.69-2.86.69c-.81,0-1.48-.07-2.01-.21-.54-.14-.91-.25-1.12-.35l.43-2.09c.44.17.89.31,1.35.41s.92.15,1.37.15Z"/><path class="cls-83" d="m187.34,326l2.58-.41v2.68h3.09v2.14h-3.09v3.2c0,.54.09.97.29,1.3s.57.48,1.15.48c.28,0,.56-.03.86-.08.29-.05.56-.12.8-.22l.36,2c-.31.13-.66.24-1.04.33-.38.09-.85.14-1.4.14-.7,0-1.29-.09-1.75-.29-.46-.19-.83-.46-1.11-.79s-.47-.75-.58-1.24c-.11-.48-.16-1.02-.16-1.61v-7.64Z"/><path class="cls-61" d="m231.2,525.08l.56,8.1c-.64.08-1.2.52-1.4,1.17-.27.89.23,1.82,1.11,2.09s1.82-.23,2.09-1.11-.23-1.82-1.11-2.09c-.08-.03-.17-.04-.25-.05l1.07-8.05-2.07-.06Z"/><path class="cls-61" d="m242.21,519.99l4.59,6.7c-.51.39-.77,1.06-.61,1.72.22.9,1.12,1.46,2.02,1.24s1.46-1.12,1.24-2.02-1.12-1.46-2.02-1.24c-.09.02-.17.05-.24.08l-3.16-7.48-1.82,1Z"/><path class="cls-61" d="m239.39,504.03l1.38-7.39c.72.21,1.53,0,2.05-.6.7-.82.61-2.06-.22-2.76s-2.06-.61-2.76.22-.61,2.06.22,2.76c.08.07.16.12.24.18l-4.09,6.13,3.18,1.48Z"/><path class="cls-61" d="m245.85,518.75l7.41-1.3c.05.75.53,1.43,1.28,1.71,1.02.37,2.14-.15,2.51-1.17.37-1.02-.15-2.14-1.17-2.51s-2.14.15-2.51,1.17c-.03.1-.06.19-.08.29l-7.17-1.68-.27,3.5Z"/><path class="cls-83" d="m221.8,510.93l-6.03-1.64c.17-.62-.03-1.31-.56-1.74-.72-.58-1.78-.47-2.36.24s-.47,1.78.24,2.36,1.78.47,2.36-.24c.06-.07.1-.14.14-.21l5.36,3.13.84-1.9Z"/><path class="cls-83" d="m244.93,512.96l4.25-4.07c.44.61,1.22.93,2,.76,1.06-.23,1.73-1.27,1.5-2.33s-1.27-1.73-2.33-1.5-1.73,1.27-1.5,2.33c.02.1.05.19.09.29l-5.65,1.42,1.64,3.1Z"/><path class="cls-83" d="m224.24,522.31l-1.81,5.6c-.68-.32-1.51-.24-2.12.28-.82.7-.91,1.94-.21,2.76s1.94.91,2.76.21.91-1.94.21-2.76c-.07-.08-.14-.15-.21-.21l4.29-3.94-2.92-1.94Z"/><path class="cls-83" d="m236.87,525.65l2.08,2.95c-.41.21-.67.65-.64,1.14.04.66.62,1.16,1.28,1.12s1.16-.62,1.12-1.28-.62-1.16-1.28-1.12c-.06,0-.12.01-.18.03l-.35-3.56-2.03.71Z"/><path class="cls-83" d="m231.12,501.17l-2.53-5.71c.59-.26,1-.85,1-1.53,0-.93-.75-1.68-1.68-1.68s-1.68.75-1.68,1.68.75,1.68,1.68,1.68c.09,0,.17,0,.26-.02l.95,6.14,2-.55Z"/><circle class="cls-70" cx="233.34" cy="514.11" r="13.82"/><path class="cls-61" d="m220.17,515.82l-7,4.12c-.35-.54-1-.84-1.68-.73-.91.15-1.53,1.02-1.38,1.93s1.02,1.53,1.93,1.38,1.53-1.02,1.38-1.93c-.01-.09-.04-.17-.06-.25l7.68-2.63-.87-1.88Z"/><path class="cls-61" d="m244.53,506.01l1.17-2.07c.5.4,1.21.49,1.82.18.82-.43,1.14-1.44.71-2.26-.43-.82-1.44-1.14-2.26-.71s-1.14,1.44-.71,2.26c.04.08.09.15.14.22l-2.1.91,1.24,1.48Z"/><path class="cls-61" d="m224.47,504.44l-6.72-5.97c.42-.48.55-1.19.26-1.81-.39-.84-1.39-1.2-2.23-.81s-1.2,1.39-.81,2.23,1.39,1.2,2.23.81c.08-.04.15-.08.22-.13l5.47,7.02,1.58-1.34Z"/><ellipse class="cls-83" cx="235.4" cy="503.67" rx="2.06" ry="1.04"/><ellipse class="cls-83" cx="240.81" cy="512.5" rx="3.05" ry="2.5"/><ellipse class="cls-83" cx="224.75" cy="509.37" rx="2.18" ry="1.78"/><ellipse class="cls-83" cx="231.12" cy="521.05" rx="2.18" ry="1.78"/><ellipse class="cls-83" cx="231.97" cy="506.06" rx="1.37" ry=".86"/><path class="cls-61" d="m225.1,127.43l.56,8.1c-.64.08-1.2.52-1.4,1.17-.27.89.23,1.82,1.11,2.09s1.82-.23,2.09-1.11-.23-1.82-1.11-2.09c-.08-.03-.17-.04-.25-.05l1.07-8.05-2.07-.06Z"/><path class="cls-61" d="m236.11,122.35l4.59,6.7c-.51.39-.77,1.06-.61,1.72.22.9,1.12,1.46,2.02,1.24s1.46-1.12,1.24-2.02-1.12-1.46-2.02-1.24c-.09.02-.17.05-.24.08l-3.16-7.48-1.82,1Z"/><path class="cls-61" d="m233.29,106.39l1.38-7.39c.72.21,1.53,0,2.05-.6.7-.82.61-2.06-.22-2.76s-2.06-.61-2.76.22-.61,2.06.22,2.76c.08.07.16.12.24.18l-4.09,6.13,3.18,1.48Z"/><path class="cls-61" d="m239.75,121.11l7.41-1.3c.05.75.53,1.43,1.28,1.71,1.02.37,2.14-.15,2.51-1.17s-.15-2.14-1.17-2.51-2.14.15-2.51,1.17c-.03.1-.06.19-.08.29l-7.17-1.68-.27,3.5Z"/><path class="cls-83" d="m215.7,113.29l-6.03-1.64c.17-.62-.03-1.31-.56-1.74-.72-.58-1.78-.47-2.36.24s-.47,1.78.24,2.36,1.78.47,2.36-.24c.06-.07.1-.14.14-.21l5.36,3.13.84-1.9Z"/><path class="cls-83" d="m238.83,115.31l4.25-4.07c.44.61,1.22.93,2,.76,1.06-.23,1.73-1.27,1.5-2.33s-1.27-1.73-2.33-1.5-1.73,1.27-1.5,2.33c.02.1.05.19.09.29l-5.65,1.42,1.64,3.1Z"/><path class="cls-83" d="m218.14,124.67l-1.81,5.6c-.68-.32-1.51-.24-2.12.28-.82.7-.91,1.94-.21,2.76s1.94.91,2.76.21c.82-.7.91-1.94.21-2.76-.07-.08-.14-.15-.21-.21l4.29-3.94-2.92-1.94Z"/><path class="cls-83" d="m230.77,128l2.08,2.95c-.41.21-.67.65-.64,1.14.04.66.62,1.16,1.28,1.12s1.16-.62,1.12-1.28-.62-1.16-1.28-1.12c-.06,0-.12.01-.18.03l-.35-3.56-2.03.71Z"/><path class="cls-83" d="m225.02,103.53l-2.53-5.71c.59-.26,1-.85,1-1.53,0-.93-.75-1.68-1.68-1.68s-1.68.75-1.68,1.68.75,1.68,1.68,1.68c.09,0,.17,0,.26-.02l.95,6.14,2-.55Z"/><circle class="cls-58" cx="227.23" cy="116.46" r="13.82"/><path class="cls-61" d="m214.06,118.17l-7,4.12c-.35-.54-1-.84-1.68-.73-.91.15-1.53,1.02-1.38,1.93s1.02,1.53,1.93,1.38,1.53-1.02,1.38-1.93c-.01-.09-.04-.17-.06-.25l7.68-2.63-.87-1.88Z"/><path class="cls-61" d="m238.43,108.36l1.17-2.07c.5.4,1.21.49,1.82.18.82-.43,1.14-1.44.71-2.26s-1.44-1.14-2.26-.71-1.14,1.44-.71,2.26c.04.08.09.15.14.22l-2.1.91,1.24,1.48Z"/><path class="cls-61" d="m218.37,106.79l-6.72-5.97c.42-.48.55-1.19.26-1.81-.39-.84-1.39-1.2-2.23-.81s-1.2,1.39-.81,2.23c.39.84,1.39,1.2,2.23.81.08-.04.15-.08.22-.13l5.47,7.02,1.58-1.34Z"/><ellipse class="cls-83" cx="229.29" cy="106.03" rx="2.06" ry="1.04"/><ellipse class="cls-83" cx="234.71" cy="114.85" rx="3.05" ry="2.5"/><ellipse class="cls-83" cx="218.64" cy="111.72" rx="2.18" ry="1.78"/><ellipse class="cls-83" cx="225.02" cy="123.4" rx="2.18" ry="1.78"/><ellipse class="cls-83" cx="225.86" cy="108.42" rx="1.37" ry=".86"/></g><g id="Layer_10"><path id="path32" class="cls-49" d="m929.77,262.58v-2.75l-.7.54-.46-.63,1.23-.9h.81v3.74h-.88"/><path id="path34" class="cls-49" d="m933.4,260.69c0-.12,0-.24-.02-.39-.01-.14-.04-.27-.08-.39-.04-.12-.09-.22-.17-.31-.07-.08-.17-.12-.28-.12s-.21.04-.29.12c-.07.08-.13.19-.17.31-.04.12-.07.25-.08.39-.01.14-.02.27-.02.39s0,.25.02.39c.01.14.04.27.08.4.04.12.1.22.17.31.07.08.17.12.29.12s.21-.04.28-.12c.07-.08.13-.19.17-.31.04-.12.07-.25.08-.4.01-.14.02-.27.02-.39Zm.91,0c0,.26-.03.52-.08.76-.05.24-.14.45-.25.63-.12.18-.27.33-.45.43-.19.11-.41.16-.67.16s-.49-.05-.68-.16c-.19-.11-.34-.25-.46-.43-.12-.18-.2-.39-.26-.63-.05-.24-.08-.49-.08-.76s.03-.52.08-.75c.05-.24.14-.45.26-.62.12-.18.27-.32.46-.43.19-.11.41-.16.68-.16s.49.05.67.16c.19.11.34.25.45.43.12.18.2.39.25.62.05.24.08.49.08.75"/><path id="path36" class="cls-49" d="m939.27,262.58v-2.75l-.7.54-.46-.63,1.23-.9h.81v3.74h-.88"/><path id="path38" class="cls-49" d="m942.89,260.69c0-.12,0-.24-.02-.39-.01-.14-.04-.27-.08-.39-.04-.12-.09-.22-.17-.31-.07-.08-.17-.12-.28-.12s-.21.04-.29.12c-.07.08-.13.19-.17.31-.04.12-.07.25-.08.39-.01.14-.02.27-.02.39s0,.25.02.39c.01.14.04.27.08.4.04.12.1.22.17.31.07.08.17.12.29.12s.21-.04.28-.12c.07-.08.13-.19.17-.31.04-.12.07-.25.08-.4.01-.14.02-.27.02-.39Zm.91,0c0,.26-.03.52-.08.76-.05.24-.14.45-.25.63-.12.18-.27.33-.45.43-.19.11-.41.16-.67.16s-.49-.05-.68-.16c-.19-.11-.34-.25-.46-.43-.12-.18-.2-.39-.26-.63-.05-.24-.08-.49-.08-.76s.03-.52.08-.75c.05-.24.14-.45.26-.62s.27-.32.46-.43c.19-.11.41-.16.68-.16s.49.05.67.16c.19.11.34.25.45.43.12.18.2.39.25.62.05.24.08.49.08.75"/><path id="path40" class="cls-49" d="m929.69,268.47v-2.75l-.7.54-.46-.63,1.23-.9h.81v3.74h-.88"/><path id="path42" class="cls-49" d="m932.8,268.47v-2.75l-.7.54-.46-.63,1.23-.9h.81v3.74h-.88"/><path id="path44" class="cls-49" d="m935.9,268.47v-2.75l-.7.54-.46-.63,1.23-.9h.81v3.74h-.88"/><path id="path46" class="cls-49" d="m939.69,266.58c0-.12,0-.24-.02-.39-.01-.14-.04-.27-.08-.39-.04-.12-.09-.22-.17-.31-.07-.08-.17-.12-.28-.12s-.21.04-.29.12c-.07.08-.13.19-.17.31-.04.12-.07.25-.08.39-.01.14-.02.27-.02.39s0,.25.02.39c.01.14.04.27.08.4.04.12.1.22.17.31.07.08.17.12.29.12s.21-.04.28-.12c.07-.08.13-.19.17-.31.04-.12.07-.25.08-.4.01-.14.02-.27.02-.39Zm.91,0c0,.26-.03.52-.08.76-.05.24-.14.45-.25.63-.12.18-.27.33-.45.43-.19.11-.41.16-.67.16s-.49-.05-.68-.16c-.19-.11-.34-.25-.46-.43-.12-.18-.2-.39-.26-.63-.05-.24-.08-.49-.08-.76s.03-.52.08-.75c.05-.24.14-.45.26-.62.12-.18.27-.32.46-.43.19-.1.41-.16.68-.16s.49.05.67.16c.19.11.34.25.45.43.12.18.2.39.25.62.05.24.08.49.08.75"/><path id="path48" class="cls-49" d="m931.48,272.66v-2l-.51.39-.33-.46.89-.66h.59v2.72h-.64"/><path id="path50" class="cls-49" d="m935.97,272.66v-2l-.51.39-.33-.46.89-.66h.59v2.72h-.64"/><path id="path52" class="cls-49" d="m929.68,271.3c0-.08,0-.18-.02-.28-.01-.1-.03-.2-.06-.29-.03-.09-.07-.16-.12-.22-.05-.06-.12-.09-.2-.09s-.15.03-.21.09c-.05.06-.1.13-.12.22-.03.09-.05.18-.06.29-.01.1-.02.2-.02.28s0,.18.02.29c.01.1.03.2.06.29.03.09.07.16.12.22.05.06.12.09.21.09s.15-.03.2-.09c.05-.06.09-.13.12-.22.03-.09.05-.19.06-.29.01-.1.02-.2.02-.29Zm.66,0c0,.19-.02.37-.06.55-.04.17-.1.33-.18.46-.08.13-.19.24-.33.32-.13.08-.3.12-.49.12s-.36-.04-.49-.12c-.14-.08-.25-.18-.33-.32-.09-.13-.15-.28-.19-.46-.04-.17-.06-.36-.06-.55s.02-.37.06-.55c.04-.17.1-.32.19-.45.09-.13.2-.23.33-.31.14-.08.3-.12.49-.12s.36.04.49.12c.13.08.24.18.33.31.08.13.15.28.18.45.04.17.06.36.06.55"/><path id="path54" class="cls-49" d="m934.2,271.3c0-.08,0-.18-.02-.28-.01-.1-.03-.2-.06-.29-.03-.09-.07-.16-.12-.22-.05-.06-.12-.09-.2-.09s-.15.03-.21.09c-.05.06-.1.13-.12.22-.03.09-.05.18-.06.29-.01.1-.02.2-.02.28s0,.18.02.29c0,.1.03.2.06.29.03.09.07.16.12.22.05.06.12.09.21.09s.15-.03.2-.09c.05-.06.09-.13.12-.22.03-.09.05-.19.06-.29.01-.1.02-.2.02-.29Zm.66,0c0,.19-.02.37-.06.55-.04.17-.1.33-.18.46-.08.13-.19.24-.33.32-.13.08-.3.12-.49.12s-.36-.04-.49-.12c-.14-.08-.25-.18-.33-.32-.09-.13-.15-.28-.19-.46-.04-.17-.06-.36-.06-.55s.02-.37.06-.55c.04-.17.1-.32.19-.45.09-.13.2-.23.33-.31.14-.08.3-.12.49-.12s.35.04.49.12c.13.08.24.18.33.31.08.13.15.28.18.45.04.17.06.36.06.55"/><path id="path56" class="cls-49" d="m943.45,272.66v-2l-.51.39-.33-.46.89-.66h.59v2.72h-.64"/><path id="path58" class="cls-49" d="m941.68,271.3c0-.08,0-.18-.02-.28-.01-.1-.03-.2-.06-.29-.03-.09-.07-.16-.12-.22-.05-.06-.12-.09-.2-.09s-.15.03-.21.09c-.05.06-.1.13-.13.22-.03.09-.05.18-.06.29-.01.1-.02.2-.02.28s0,.18.02.29c.01.1.03.2.06.29.03.09.07.16.13.22.05.06.12.09.21.09s.15-.03.2-.09c.05-.06.09-.13.12-.22.03-.09.05-.19.06-.29.01-.1.02-.2.02-.29Zm.66,0c0,.19-.02.37-.06.55-.04.17-.1.33-.18.46-.08.13-.19.24-.33.32-.13.08-.3.12-.49.12s-.36-.04-.49-.12c-.14-.08-.25-.18-.33-.32-.09-.13-.15-.28-.19-.46-.04-.17-.06-.36-.06-.55s.02-.37.06-.55c.04-.17.1-.32.19-.45.09-.13.2-.23.33-.31.14-.08.3-.12.49-.12s.35.04.49.12c.13.08.24.18.33.31.08.13.15.28.18.45.04.17.06.36.06.55"/><path id="path60" class="cls-49" d="m940.98,275.86v-2l-.51.39-.33-.46.89-.66h.59v2.72h-.64"/><path id="path62" class="cls-49" d="m939.21,274.5c0-.08,0-.18-.02-.28-.01-.1-.03-.2-.06-.29-.03-.09-.07-.16-.12-.22-.05-.06-.12-.09-.2-.09s-.15.03-.21.09c-.05.06-.1.13-.12.22-.03.09-.05.18-.06.29-.01.1-.02.2-.02.28s0,.18.02.29c.01.1.03.2.06.29.03.09.07.16.12.22.05.06.12.09.21.09s.15-.03.2-.09c.05-.06.09-.13.12-.22.03-.09.05-.18.06-.29.01-.1.02-.2.02-.29Zm.66,0c0,.19-.02.37-.06.55-.04.17-.1.33-.18.46-.08.13-.19.24-.33.31-.13.08-.3.12-.49.12s-.36-.04-.49-.12c-.14-.08-.25-.18-.33-.31-.09-.13-.15-.29-.19-.46-.04-.17-.06-.36-.06-.55s.02-.37.06-.55c.04-.17.1-.32.19-.45.09-.13.2-.23.33-.31.14-.08.3-.12.49-.12s.35.04.49.12c.13.08.24.18.33.31.08.13.15.28.18.45.04.17.06.35.06.55"/><path id="path64" class="cls-49" d="m930.58,275.83v-1.38l-.35.27-.23-.32.62-.45h.41v1.88h-.44"/><path id="path66" class="cls-49" d="m929.35,274.88c0-.06,0-.12-.01-.19,0-.07-.02-.14-.04-.2-.02-.06-.05-.11-.08-.15-.04-.04-.08-.06-.14-.06s-.11.02-.14.06c-.04.04-.07.09-.09.15-.02.06-.03.13-.04.2,0,.07-.01.14-.01.19s0,.13.01.2c0,.07.02.14.04.2.02.06.05.11.09.15.04.04.08.06.14.06s.11-.02.14-.06c.04-.04.06-.09.08-.15.02-.06.03-.13.04-.2,0-.07.01-.14.01-.2Zm.46,0c0,.13-.01.26-.04.38-.03.12-.07.23-.13.32-.06.09-.13.16-.23.22-.09.05-.21.08-.34.08s-.25-.03-.34-.08c-.09-.05-.17-.13-.23-.22-.06-.09-.1-.2-.13-.32-.03-.12-.04-.25-.04-.38s.01-.26.04-.38c.03-.12.07-.22.13-.31.06-.09.14-.16.23-.21.09-.05.21-.08.34-.08s.25.03.34.08c.09.05.17.12.23.21.06.09.1.19.13.31.03.12.04.25.04.38"/><path id="path68" class="cls-49" d="m936.11,278.24v-1.38l-.35.27-.23-.32.62-.46h.41v1.88h-.44"/><path id="path70" class="cls-49" d="m934.88,277.3c0-.06,0-.12-.01-.19,0-.07-.02-.14-.04-.2s-.05-.11-.08-.15c-.04-.04-.08-.06-.14-.06s-.11.02-.14.06c-.04.04-.07.09-.09.15-.02.06-.03.13-.04.2,0,.07-.01.14-.01.19s0,.13.01.2c0,.07.02.14.04.2.02.06.05.11.09.15.04.04.08.06.14.06s.11-.02.14-.06c.04-.04.06-.09.08-.15.02-.06.03-.13.04-.2,0-.07.01-.14.01-.2Zm.46,0c0,.13-.01.26-.04.38-.03.12-.07.23-.13.32-.06.09-.13.16-.23.22-.09.05-.21.08-.34.08s-.25-.03-.34-.08c-.09-.05-.17-.13-.23-.22-.06-.09-.1-.2-.13-.32-.03-.12-.04-.25-.04-.38s.01-.26.04-.38c.03-.12.07-.22.13-.31.06-.09.14-.16.23-.21.09-.05.21-.08.34-.08s.25.03.34.08c.09.05.17.12.23.21.06.09.1.19.13.31.03.12.04.25.04.38"/><path id="path72" class="cls-49" d="m943.7,274.5c0-.08,0-.18-.02-.28-.01-.1-.03-.2-.06-.29-.03-.09-.07-.16-.12-.22-.05-.06-.12-.09-.2-.09s-.15.03-.21.09c-.05.06-.1.13-.12.22-.03.09-.05.18-.06.29-.01.1-.02.2-.02.28s0,.18.02.29c.01.1.03.2.06.29.03.09.07.16.12.22.05.06.12.09.21.09s.15-.03.2-.09c.05-.06.09-.13.12-.22.03-.09.05-.18.06-.29.01-.1.02-.2.02-.29Zm.66,0c0,.19-.02.37-.06.55-.04.17-.1.33-.18.46-.08.13-.19.24-.33.31-.13.08-.3.12-.49.12s-.36-.04-.49-.12c-.14-.08-.25-.18-.33-.31-.09-.13-.15-.29-.19-.46-.04-.17-.06-.36-.06-.55s.02-.37.06-.55c.04-.17.1-.32.19-.45.09-.13.2-.23.33-.31.14-.08.3-.12.49-.12s.35.04.49.12c.13.08.24.18.33.31.08.13.15.28.18.45.04.17.06.35.06.55"/><path id="path74" class="cls-49" d="m942.46,256.16c-.63-3.06-3.35-5.28-6.48-5.28-.48,0-.95.05-1.4.15-.76-4.46-4.65-7.87-9.33-7.87s-8.5,3.35-9.31,7.75c-3.37.31-6.01,3.14-6.01,6.59,0,3.65,2.97,6.62,6.62,6.62h9.9c.51,0,.91-.41.91-.91s-.41-.91-.91-.91h-9.9c-2.64,0-4.79-2.15-4.79-4.79s2.15-4.79,4.79-4.79c.96,0,1.88.28,2.68.82.42.28.99.17,1.27-.25.28-.42.17-.99-.25-1.27-.75-.51-1.58-.84-2.46-1.01.75-3.43,3.81-6.01,7.46-6.01,3.89,0,7.11,2.93,7.58,6.69-.25.13-.49.28-.71.45-.41.3-.5.87-.21,1.28.3.41.87.5,1.28.21.82-.59,1.79-.9,2.8-.9,2.27,0,4.24,1.61,4.69,3.82.09.43.47.73.9.73.06,0,.12,0,.18-.02.49-.1.81-.58.71-1.08"/></g></svg>