<svg xmlns="http://www.w3.org/2000/svg" width="781" height="440" viewBox="0 0 781 440"><title>file-path-traversal_1</title><rect x="446.08" y="39.4" width="288.93" height="19.19" rx="2" ry="2" fill="#ebf0f2" stroke="#cbd0d1" stroke-miterlimit="10"/><path d="M489.37,22.44l2.84,9.43c1.89.28,13.92,0,13.92,0l-2.22-9.26Z" fill="#fff" stroke="#d60000" stroke-miterlimit="10"/><line x1="411.3" y1="28.82" x2="462.37" y2="28.82" fill="none" stroke="#d60000" stroke-miterlimit="10"/><line x1="476.81" y1="25.7" x2="482.84" y2="31.73" fill="none" stroke="#d60000" stroke-miterlimit="10"/><line x1="483.06" y1="25.92" x2="477.03" y2="31.95" fill="none" stroke="#d60000" stroke-miterlimit="10"/><polyline points="412.5 46.42 408.28 50.64 412.24 54.61" fill="none" stroke="#d60000" stroke-miterlimit="10"/><line x1="415.84" y1="50.51" x2="408.28" y2="50.51" fill="#ebf0f2" stroke="#d60000" stroke-miterlimit="10"/><polyline points="422.68 54.61 426.9 50.38 422.94 46.42" fill="none" stroke="#edd6d6" stroke-miterlimit="10"/><line x1="419.34" y1="50.51" x2="426.9" y2="50.51" fill="#ebf0f2" stroke="#edd6d6" stroke-miterlimit="10"/><path d="M440.59,51.88a4.09,4.09,0,1,1-1-4.26" fill="none" stroke="#d60000" stroke-miterlimit="10"/><polygon points="436.73 48.4 440.59 45.17 440.59 49.23 436.73 48.4" fill="#d60000"/><circle cx="739.55" cy="44.55" r="1.11" fill="#d60000"/><circle cx="739.55" cy="48.39" r="1.11" fill="#d60000"/><circle cx="739.55" cy="52.23" r="1.11" fill="#d60000"/><polygon points="744.75 263.95 403.44 263.95 403.44 19.82 485.1 19.82 489.96 34.68 744.75 34.68 744.75 263.95" fill="none" stroke="#d60000" stroke-miterlimit="10"/><text transform="translate(449.44 53.8)" font-size="14" fill="#333332" font-family="Arial-BoldMT, Arial" font-weight="700">/loadImage?filename=../../../etc/passwd<tspan x="257.14" y="0" fill="#d60000">|</tspan></text><line x1="403.44" y1="62.51" x2="744.75" y2="62.51" fill="none" stroke="#d60000" stroke-miterlimit="10"/><text transform="translate(414.9 80.7)" font-size="10.86" fill="#333332" font-family="Courier-Bold, Courier" font-weight="700">root:x:0:0:root:/root:/bin/bash<tspan x="0" y="13.04">daemon:x:1:1:daemon:/usr/sbin:/bin/sh</tspan><tspan x="0" y="26.07">bin:x:2:2:bin:/bin:/bin/sh</tspan><tspan x="0" y="39.11">sys:x:3:3:sys:/dev:/bin/sh</tspan><tspan x="0" y="52.14">sync:x:4:65534:sync:/bin:/bin/sync</tspan><tspan x="0" y="65.18">games:x:5:60:games:/usr/games:/bin/sh</tspan><tspan x="0" y="78.21">man:x:6:12:man:/var/cache/man:/bin/sh</tspan><tspan x="0" y="91.25">lp:x:7:7:lp:/var/spool/lpd:/bin/sh</tspan><tspan x="0" y="104.28">mail:x:8:8:mail:/var/mail:/bin/sh</tspan><tspan x="0" y="117.32">news:x:9:9:news:/var/spool/news:/bin/sh</tspan><tspan x="0" y="130.35">uucp:x:10:10:uucp:/var/spool/uucp:/bin/sh</tspan><tspan x="0" y="143.39">proxy:x:13:13:proxy:/bin:/bin/sh</tspan><tspan x="0" y="156.43">www-data:x:33:33:www-data:/var/www:/bin/sh</tspan><tspan x="0" y="169.46">backup:x:34:34:backup:/var/backups:/bin/sh</tspan></text><rect x="69.8" y="39.65" width="289.15" height="19.21" rx="2" ry="2" fill="#ebf0f2" stroke="#cbd0d1" stroke-miterlimit="10"/><text transform="translate(76.35 53.63)" font-size="14" fill="#333332" font-family="Arial-BoldMT, Arial" font-weight="700">/loadImage?filename=gift.png</text><path d="M113.14,22.67,116,32.11c1.89.29,13.94,0,13.94,0l-2.22-9.26Z" fill="#fff" stroke="#70d16d" stroke-miterlimit="10"/><line x1="34.97" y1="29.06" x2="86.1" y2="29.06" fill="none" stroke="#70d16d" stroke-miterlimit="10"/><line x1="100.78" y1="26.16" x2="106.81" y2="32.19" fill="none" stroke="#70d16d" stroke-miterlimit="10"/><line x1="106.81" y1="26.16" x2="100.78" y2="32.19" fill="none" stroke="#70d16d" stroke-miterlimit="10"/><polyline points="35.4 46.72 31.35 50.78 35.15 54.58" fill="none" stroke="#70d16d" stroke-miterlimit="10"/><line x1="38.6" y1="50.65" x2="31.35" y2="50.65" fill="#ebf0f2" stroke="#70d16d" stroke-miterlimit="10"/><polyline points="46.36 54.88 50.59 50.65 46.62 46.68" fill="none" stroke="#b8e8b5" stroke-miterlimit="10"/><line x1="43.02" y1="50.78" x2="50.59" y2="50.78" fill="#ebf0f2" stroke="#b8e8b5" stroke-miterlimit="10"/><path d="M64.3,52.14a4.1,4.1,0,1,1-1-4.26" fill="none" stroke="#70d16d" stroke-miterlimit="10"/><polygon points="60.43 48.66 64.3 45.42 64.3 49.5 60.43 48.66" fill="#70d16d"/><circle cx="363.19" cy="44.21" r="1.21" fill="#70d16d"/><circle cx="363.19" cy="48.39" r="1.21" fill="#70d16d"/><circle cx="363.19" cy="52.57" r="1.21" fill="#70d16d"/><line x1="27.11" y1="62.79" x2="368.8" y2="62.79" fill="none" stroke="#70d16d" stroke-miterlimit="10"/><polygon points="207.97 73.78 203.48 69.8 209.17 68.18 192.22 57.41 197.89 76.68 200.7 72.15 203.6 77.07 207.97 73.78" stroke="#fff" stroke-miterlimit="10"/><polygon points="368.8 264.46 27.11 264.46 27.11 20.05 108.86 20.05 113.73 34.93 368.8 34.93 368.8 264.46" fill="none" stroke="#70d16d" stroke-miterlimit="10"/><polygon points="180.92 373.43 155.58 373.43 155.58 354.53 161.11 354.53 161.97 356.18 180.92 356.18 180.92 373.43" fill="#70d16d"/><polygon points="505.18 350.41 479.83 350.41 479.83 331.51 485.37 331.51 486.22 333.16 505.18 333.16 505.18 350.41" fill="none" stroke="#cbd0d1" stroke-miterlimit="10"/><polygon points="605.05 350.41 579.71 350.41 579.71 331.51 585.25 331.51 586.1 333.16 605.05 333.16 605.05 350.41" fill="#70d16d"/><polyline points="327.65 368.21 261.13 368.21 261.13 346.91 235.24 346.91 235.24 357.56 285.46 357.56 285.46 322.11 67.8 321.69 67.8 363.98" fill="none" stroke="#cbd0d1" stroke-miterlimit="10"/><path d="M374.21,306.36a6.77,6.77,0,0,1-3.52.85" fill="#fff" stroke="#4c5054" stroke-miterlimit="10" stroke-width="2"/><polyline points="348.6 294.38 319.7 294.38 326.94 376.9 454.76 376.9 462 294.38 436.99 294.38" fill="#fff" stroke="#4c5054" stroke-miterlimit="10" stroke-width="2"/><path d="M348.3,301.52H330.37a2.4,2.4,0,0,0-2.36,2.82l5.52,61.88a2.4,2.4,0,0,0,2.37,2l110.82-1a2.39,2.39,0,0,0,2.36-2l5.09-60.89a2.4,2.4,0,0,0-2.36-2.82H434.48" fill="#fff" stroke="#4c5054" stroke-miterlimit="10" stroke-width="2"/><path d="M383,240.78c-6.23-.68-27.39,2-26.79,38.06,18.64,27.31,67.24,18.71,74.08,0-.79-8.46-1-30.1-23.71-38.81C403.6,238.9,386.32,241.14,383,240.78Z" fill="#4c5054" stroke="#4c5054" stroke-miterlimit="10" stroke-width="2"/><rect x="353.59" y="278.84" width="5.2" height="15.38" rx="2.6" ry="2.6" fill="#fff" stroke="#4c5054" stroke-miterlimit="10" stroke-width="2"/><rect x="358.18" y="283.08" width="5.2" height="15.38" rx="2.6" ry="2.6" fill="#fff" stroke="#4c5054" stroke-miterlimit="10" stroke-width="2"/><rect x="363.91" y="286.53" width="5.2" height="15.38" rx="2.6" ry="2.6" fill="#fff" stroke="#4c5054" stroke-miterlimit="10" stroke-width="2"/><rect x="369.1" y="288.14" width="5.2" height="15.38" rx="2.6" ry="2.6" fill="#fff" stroke="#4c5054" stroke-miterlimit="10" stroke-width="2"/><rect x="374.83" y="290.77" width="5.2" height="15.38" rx="2.6" ry="2.6" fill="#fff" stroke="#4c5054" stroke-miterlimit="10" stroke-width="2"/><rect x="380.57" y="292.3" width="5.2" height="15.38" rx="2.6" ry="2.6" fill="#fff" stroke="#4c5054" stroke-miterlimit="10" stroke-width="2"/><rect x="426.56" y="278.84" width="5.2" height="15.38" rx="2.6" ry="2.6" transform="translate(858.33 573.05) rotate(180)" fill="#fff" stroke="#4c5054" stroke-miterlimit="10" stroke-width="2"/><rect x="420.83" y="282.17" width="5.2" height="15.38" rx="2.6" ry="2.6" transform="translate(846.86 579.72) rotate(-180)" fill="#fff" stroke="#4c5054" stroke-miterlimit="10" stroke-width="2"/><rect x="415.47" y="287.29" width="5.2" height="15.38" rx="2.6" ry="2.6" transform="translate(836.15 589.96) rotate(-180)" fill="#fff" stroke="#4c5054" stroke-miterlimit="10" stroke-width="2"/><rect x="409.6" y="289.86" width="5.2" height="15.38" rx="2.6" ry="2.6" transform="translate(824.4 595.1) rotate(180)" fill="#fff" stroke="#4c5054" stroke-miterlimit="10" stroke-width="2"/><rect x="403.4" y="291.15" width="5.2" height="15.38" rx="2.6" ry="2.6" transform="translate(812 597.68) rotate(-180)" fill="#fff" stroke="#4c5054" stroke-miterlimit="10" stroke-width="2"/><rect x="397.68" y="292.3" width="5.2" height="15.38" rx="2.6" ry="2.6" transform="translate(800.56 599.97) rotate(180)" fill="#fff" stroke="#4c5054" stroke-miterlimit="10" stroke-width="2"/><rect x="386.37" y="293.3" width="5.2" height="15.38" rx="2.6" ry="2.6" fill="#fff" stroke="#4c5054" stroke-miterlimit="10" stroke-width="2"/><rect x="392.17" y="293.3" width="5.2" height="15.38" rx="2.6" ry="2.6" fill="#fff" stroke="#4c5054" stroke-miterlimit="10" stroke-width="2"/><path d="M334.88,432.1c6.41-6.77,9.57-18.61,11.12-25.71.1-.5,1.41,20.44,2.57,39.3,10.43.89,20.9,1.15,31.36,1.15,18.55,0,37.1-.88,55.66-.79l1.62,0c-.54-20-1.14-42.53-.66-41.57,3.41,6.85,8.93,24.05,9.91,23.87,0,0,18.4,15.49,23.86-8.4-3.84-13.58-12.24-55.77-31.61-63.28-16.35-3.44-26.27-4.61-28.68-12.62-2.77-9.18.2-14.79.2-14.79H371.57a22.24,22.24,0,0,1,1.14,14.79c-2.17,8.08-12.34,9.18-28.69,12.62-9.84,1.34-30.11,42.17-30.11,58C311.83,444.14,334.88,432.1,334.88,432.1Z" fill="#fff" stroke="#4c5054" stroke-miterlimit="10" stroke-width="2"/><path d="M409.44,334.46c15.14-2.87,20,12.34,22.33,20-.08,2.55-13.7,37.86-42.16,37.86-31.43,0-43.17-28.49-39.42-35.56,2.39-8.92,4.64-24.75,21.93-22.31C375.33,332.87,408.94,332.57,409.44,334.46Z" fill="#4c5054" stroke="#4c5054" stroke-miterlimit="10" stroke-width="2"/><polygon points="434.48 386.76 352.26 386.77 352.06 374.7 434.48 373.51 434.48 386.76" fill="#4c5054"/><path d="M332.24,370.44c3.28,6.42,17.48,16.13,20,16.33s3.33-11.18,3.33-11.18c-8.53-4.34-14.72-9.34-16.78-15.08Z" fill="#4c5054"/><path d="M325.32,380.17c5.32,6.79,21.62,18.76,24.2,18.09-.58,1.81-5.06,12.52-5.06,12.52s-20.65-7.65-24.43-19.1C318.94,388.36,325.8,380.1,325.32,380.17Z" fill="#4c5054"/><path d="M315.52,404.79c-1.08,3.31,19.36,19,26.1,16.21-3.95,10.81-9.38,12.21-9.38,12.21s-16.58-8.72-18-13.24C312.53,416.63,315.52,404.79,315.52,404.79Z" fill="#4c5054"/><path d="M452.28,370.44c-3.27,6.42-15.25,16.12-17.8,16.32s-6.7-10.13-6.7-10.13c8.6-2.49,15.88-10.38,17.94-16.12Z" fill="#4c5054"/><path d="M458.34,381.55c-5.32,6.79-22.52,17.4-25.11,16.73.59,1.82,3.62,6.51,4.58,6.51,0,1.6,13.34-3.28,13.34-3.28s12.48-5.95,11.34-8.74C461.16,389.54,457.87,381.48,458.34,381.55Z" fill="#4c5054"/><path d="M466.89,407.26c-1.63,1.34-15.74,9.37-25.61,5.69.07.92,4.45,14.4,4.45,14.4S462.58,430,470.32,420C470,416.73,466.89,407.26,466.89,407.26Z" fill="#4c5054"/><line x1="354.83" y1="294.21" x2="354.83" y2="301.9" fill="none" stroke="#4c5054" stroke-miterlimit="10" stroke-width="2"/><line x1="358.79" y1="297.52" x2="358.79" y2="310.06" fill="none" stroke="#4c5054" stroke-miterlimit="10" stroke-width="2"/><line x1="364.72" y1="301.18" x2="364.72" y2="319.24" fill="none" stroke="#4c5054" stroke-miterlimit="10" stroke-width="2"/><line x1="371.7" y1="324.69" x2="371.7" y2="301.9" fill="none" stroke="#4c5054" stroke-miterlimit="10" stroke-width="2"/><line x1="377.92" y1="306.15" x2="377.92" y2="327.99" fill="none" stroke="#4c5054" stroke-miterlimit="10" stroke-width="2"/><line x1="384.83" y1="307.06" x2="384.83" y2="328.71" fill="none" stroke="#4c5054" stroke-miterlimit="10" stroke-width="2"/><line x1="390.78" y1="308.67" x2="390.78" y2="328.71" fill="none" stroke="#4c5054" stroke-miterlimit="10" stroke-width="2"/><line x1="396.8" y1="307.68" x2="396.8" y2="327.13" fill="none" stroke="#4c5054" stroke-miterlimit="10" stroke-width="2"/><line x1="402.15" y1="307.68" x2="402.15" y2="327.99" fill="none" stroke="#4c5054" stroke-miterlimit="10" stroke-width="2"/><line x1="407.33" y1="306.15" x2="407.33" y2="325.69" fill="none" stroke="#4c5054" stroke-miterlimit="10" stroke-width="2"/><line x1="414.52" y1="303.79" x2="414.52" y2="322.11" fill="none" stroke="#4c5054" stroke-miterlimit="10" stroke-width="2"/><line x1="420.08" y1="301.9" x2="420.08" y2="317.88" fill="none" stroke="#4c5054" stroke-miterlimit="10" stroke-width="2"/><line x1="424.58" y1="297.55" x2="424.58" y2="313.3" fill="none" stroke="#4c5054" stroke-miterlimit="10" stroke-width="2"/><line x1="429.48" y1="293.3" x2="429.48" y2="305.42" fill="none" stroke="#4c5054" stroke-miterlimit="10" stroke-width="2"/><path d="M349.52,398.26c9.09,4,73.91,1.73,85,0,1.66,3.61,3.64,13.19,1.95,16.63s-77,6.95-89.83.8C343.92,408.26,349.52,398.26,349.52,398.26Z" fill="#4c5054"/><path d="M348.47,426.43c7.65,2.88,85.38,6.42,88.2-2.21.32-.93.29,9.49.32,14s-71.4,5.57-89,1.22C345.87,429.53,348.47,426.43,348.47,426.43Z" fill="#4c5054"/><line x1="332.24" y1="433.21" x2="348.47" y2="428.03" fill="none" stroke="#4c5054" stroke-miterlimit="10" stroke-width="2"/><line x1="436.99" y1="424.18" x2="446.46" y2="428.37" fill="none" stroke="#4c5054" stroke-miterlimit="10" stroke-width="2"/><path d="M355.69,309.89H339.11a4.4,4.4,0,0,0,0,8.8h20.68" fill="#ebf0f2" stroke="#cbd0d1" stroke-miterlimit="10"/><path d="M425.91,318.69H443.5a4.4,4.4,0,0,0,0-8.8H432.11" fill="#dce3e5" stroke="#cbd0d1" stroke-miterlimit="10"/><polyline points="180.92 365.54 197.72 365.54 197.72 416.31 36.15 416.31 36.15 322 16.44 322.63 16.44 244.86 27.11 244.86" fill="none" stroke="#70d16d" stroke-miterlimit="10"/><path d="M745.09,396.75v12h21.35V294.88s-22.06,1.14-20.92,0,0,17.32,0,17.32h10.25V250.25H745.09" fill="none" stroke="#d60000" stroke-miterlimit="10"/><polygon points="300.63 374.21 291.85 368.17 300.88 362.21 300.63 374.21" fill="#cbd0d1"/><line x1="80.86" y1="364.98" x2="155.58" y2="364.98" fill="none" stroke="#cbd0d1" stroke-miterlimit="10"/><line x1="505.17" y1="342.34" x2="579.71" y2="342.34" fill="none" stroke="#cbd0d1" stroke-miterlimit="10"/><line x1="592.38" y1="350.41" x2="592.38" y2="386.01" fill="none" stroke="#edd6d6" stroke-miterlimit="10"/><line x1="601.49" y1="386.86" x2="732.42" y2="386.86" fill="none" stroke="#edd6d6" stroke-miterlimit="10"/><polygon points="757.76 396.31 732.42 396.31 732.42 377.41 737.96 377.41 738.81 379.06 757.76 379.06 757.76 396.31" fill="#d60000"/><path d="M746.36,382.05l-.54,4.94,5-1.4.33,2.43-4.75.35,3.08,4.1-2.24,1.2-2.21-4.5-2,4.5-2.31-1.2,3-4.1-4.71-.35.36-2.43,4.92,1.4-.54-4.94Z" fill="#fff"/><polyline points="493.07 350.18 493.07 369.15 529.06 369.15 529.06 404.79 479.83 405.1 479.83 368.19 455.8 368.19" fill="none" stroke="#cbd0d1" stroke-miterlimit="10"/><polygon points="178.88 328.11 170.1 322.07 179.12 316.11 178.88 328.11" fill="#cbd0d1"/><polygon points="73.79 335.45 67.75 344.23 61.8 335.2 73.79 335.45" fill="#cbd0d1"/><polygon points="203.72 386.77 197.68 395.56 191.72 386.53 203.72 386.77" fill="#70d16d"/><polygon points="139.82 358.94 148.6 364.98 139.58 370.94 139.82 358.94" fill="#cbd0d1"/><polygon points="125.7 422.31 116.92 416.27 125.95 410.31 125.7 422.31" fill="#70d16d"/><polygon points="10.44 287.08 16.48 278.3 22.44 287.33 10.44 287.08" fill="#70d16d"/><polygon points="500.9 399.11 509.69 405.14 500.66 411.1 500.9 399.11" fill="#cbd0d1"/><polygon points="513.96 375.64 505.18 369.6 514.2 363.64 513.96 375.64" fill="#cbd0d1"/><polygon points="563.11 336.3 571.89 342.34 562.86 348.3 563.11 336.3" fill="#cbd0d1"/><polygon points="665.4 380.86 674.19 386.9 665.16 392.86 665.4 380.86" fill="#edd6d6"/><polygon points="598.49 362.49 592.45 371.27 586.49 362.25 598.49 362.49" fill="#edd6d6"/><polygon points="760.44 368.9 766.48 360.12 772.44 369.14 760.44 368.9" fill="#d60000"/><polygon points="749.77 272.25 755.81 263.46 761.77 272.49 749.77 272.25" fill="#d60000"/><polygon points="82.76 373.43 57.42 373.43 57.42 354.53 62.95 354.53 63.8 356.18 82.76 356.18 82.76 373.43" fill="#fff" stroke="#cbd0d1" stroke-miterlimit="10"/><polygon points="132.69 373.43 107.35 373.43 107.35 354.53 112.89 354.53 113.74 356.18 132.69 356.18 132.69 373.43" fill="#fff" stroke="#cbd0d1" stroke-miterlimit="10"/><polygon points="555.11 350.41 529.77 350.41 529.77 331.51 535.31 331.51 536.16 333.16 555.11 333.16 555.11 350.41" fill="#fff" stroke="#cbd0d1" stroke-miterlimit="10"/><polygon points="605.05 395.46 579.71 395.46 579.71 376.56 585.25 376.56 586.1 378.21 605.05 378.21 605.05 395.46" fill="#fff" stroke="#edd6d6" stroke-miterlimit="10"/><polygon points="654.99 395.46 629.65 395.46 629.65 376.56 635.18 376.56 636.04 378.21 654.99 378.21 654.99 395.46" fill="#fff" stroke="#edd6d6" stroke-miterlimit="10"/><polygon points="706.37 395.46 681.03 395.46 681.03 376.56 686.57 376.56 687.42 378.21 706.37 378.21 706.37 395.46" fill="#fff" stroke="#edd6d6" stroke-miterlimit="10"/><path d="M402,366.94l.35-.07h0c.35-.06.69-.1,1-.14l.17,0,.37,0H404l.33,0h0a3.75,3.75,0,0,0,.8-.25,1.68,1.68,0,0,0,.86-.94,1.44,1.44,0,0,0,.11-.92,1.46,1.46,0,0,0-.65-.82,1.88,1.88,0,0,0-.05-.62,1.6,1.6,0,0,0-1.12-1.31,2.14,2.14,0,0,0-.41-.06,2,2,0,0,0-1.51.84,4.51,4.51,0,0,1-1.43,1.13l-.74.36v0l-.52.24c-.48.22-1,.45-1.52.67.28-4.32,2.21-8,.17-10.79s-5.8-3.51-9.39-3.58h-.87a16.28,16.28,0,0,0-5.3.89l-.19.07a7.73,7.73,0,0,0-3.44,2.48c-1.69,2.22-.41,4.93.29,8l.08.37a14,14,0,0,1,.3,2.36v.57a5.09,5.09,0,0,0,.56,2.37,32.83,32.83,0,0,0-4.76-1.76c-1.94-.5-3.57-.19-3.66-1.84a.92.92,0,0,1,.67-.71,1.41,1.41,0,0,0,.51.65,1.46,1.46,0,0,1,.38-2.39c1.25-.24,1.18,1,2.93,2,.95.52,2.1,1.09,3.37,1.68v-.56c-1.17-.56-2.24-1.09-3.12-1.57a4.24,4.24,0,0,1-.54-.34l-.15-.12a6.82,6.82,0,0,1-.71-.73,1.92,1.92,0,0,0-1.46-.89,2.06,2.06,0,0,0-.42,0,1.61,1.61,0,0,0-1.17,1.26,2.25,2.25,0,0,0-.08.62,1.34,1.34,0,0,0-.72,1.1,1.76,1.76,0,0,0,.95,1.59,5.66,5.66,0,0,0,1.73.45c.44.07.89.14,1.36.26a38.08,38.08,0,0,1,5.36,2h0a9.94,9.94,0,0,0,1.74,1.79l.08.06.32.26.18.17-.12.06-.83.29-.11,0a37.88,37.88,0,0,1-5,1.41,22.17,22.17,0,0,1-2.7.3,7.23,7.23,0,0,0-2.13.34,1.78,1.78,0,0,0-1.08,1.64,2,2,0,0,0,.45,1.42,1.78,1.78,0,0,0,.75.49,2.53,2.53,0,0,0,0,.73,1.58,1.58,0,0,0,.95,1.21,2.49,2.49,0,0,0,.87.19,1.64,1.64,0,0,0,.6-.09l.36-.16a5.33,5.33,0,0,0,1-.85,10.81,10.81,0,0,1,2.32-1.8,28.62,28.62,0,0,1,4.16-1.87l1-.39.44-.16h0l.36-.13.09,0a7.47,7.47,0,0,0,.63.56,5.84,5.84,0,0,0,3.53.91c2.11,0,3.25-.52,3.95-1.25h0c1.17.48,2.36,1,3.45,1.49.49.23,1.76.92,1.76.92l.58.34a10.83,10.83,0,0,1,2.24,1.9c.62.65,1.11,1.16,1.92,1.17a2.46,2.46,0,0,0,.88-.16,1.49,1.49,0,0,0,.84-.74,1.89,1.89,0,0,0,.19-.65,2.18,2.18,0,0,0,0-.51h0l.05,0a1.61,1.61,0,0,0,.71-.44,2,2,0,0,0,.51-1.39,1.76,1.76,0,0,0-1-1.69,7.12,7.12,0,0,0-2.11-.42l-.47-.05-.75-.1-.28,0v0c-.37-.05-.77-.13-1.18-.22a27.4,27.4,0,0,1-3.26-1l-.78-.28-1.78-.69h0l.18-.2a7.47,7.47,0,0,1,.73-.53c.36-.25,1.34-1,1.34-1a5.77,5.77,0,0,0,.61-.68h0l1-.38.11,0q.88-.33,1.71-.6l.08,0C400.79,367.25,401.45,367.07,402,366.94Zm-18,6.11h0l-.6.22-.52.19-.44.17h0a34.82,34.82,0,0,0-3.32,1.43s0,0-.16.08l-.67.36c-2.87,1.65-3,3.38-4.71,2.68-1-.38-.77-2-.14-2.57a1.49,1.49,0,0,0-.52.68,1.3,1.3,0,0,1-1.2-1.44c.15-1.88,2-1.23,5.22-1.77l.14,0,.14,0a43.78,43.78,0,0,0,6.27-1.86l.08,0,.05.09c.29.47.45,1.07.77,1.65v0Zm4.55,1.63h0Zm.13-.58.08-.12Zm7.2-1.93.55.2h0l0,0h0l.21.08h0l.11,0h0l.44.16c1,.34,1.94.62,2.76.81.56.12,1.08.21,1.56.28l.44.06.95.1h.07c1.5.17,2.34.33,2.39,1.59a1.29,1.29,0,0,1-1.24,1.39,1.45,1.45,0,0,0-.5-.7,2.05,2.05,0,0,1,.37,1.94l0,0a1,1,0,0,1-.59.58c-1.78.63-1.8-1.1-4.6-2.86l-.65-.39c-.46-.27-1.94-1-1.94-1-1-.47-2.07-.92-3.13-1.35a14.6,14.6,0,0,0,.91-1.72Zm.2-3.18,0,0Zm1.48-3.81c0,.19,0,.38,0,.57s0,.28,0,.41A3.16,3.16,0,0,1,396,369c-.91.56-1.94.75-2.32,1.11a2.26,2.26,0,0,0-.35.48c-.07.15-.14.31-.2.47a3.75,3.75,0,0,1-.51.94,3,3,0,0,1-.05.93.69.69,0,0,1-.36.33l-.11,0-.12,0a1,1,0,0,1-.1-.59v-.09l-.06,0v0a5.37,5.37,0,0,1,0,.56c.05.43-.56.8-.6-.24a.76.76,0,0,1,0-.15l-.11,0v.08c0,.5.15,1-.35,1.09s-.41-.38-.36-1.05l-.3,0c0,.56.28,1.23-.49,1.22a.85.85,0,0,1-.31-.06c-.27-.1-.25-.55-.25-.55,0-.16,0-.36.05-.58h-.31c0,.49.21,1.06-.3,1.16h-.19c-.72,0-.57-.47-.51-1.23l-.23,0c0,.53.08,1.12-.35,1s-.4-.44-.36-1.12l-.1,0c0,.43,0,.83-.3.76s-.33-.3-.31-.74c0-.06,0-.12,0-.19l-.06,0a1.94,1.94,0,0,1,0,.24c.05.67-.4.3-.56.2a.58.58,0,0,1-.27-.45.81.81,0,0,1,0-.22v-.27a2.21,2.21,0,0,1-.46-.63l0,0c-.11-.21-.2-.43-.31-.64a2.27,2.27,0,0,0-.27-.44l-.08-.09a23,23,0,0,0-2.07-1.28,4.15,4.15,0,0,1-1-1,3.58,3.58,0,0,1-.61-2.15v-.23c0-.19,0-.38,0-.57l0-.34a10,10,0,0,1,.61-2.28h0c0-.1.08-.19.13-.29l.07-.15v0c1.07-2.24,1.24-4,.86-5.06l-.28-.34c-.16.37-.46,1.86-1,3.72l0,.2c-.13.49-.28,1-.43,1.51a.49.49,0,0,0,0,.11l-.14.54c0,.09-.05.19-.07.28,0-.11,0-.22-.07-.33l-.14-.6c-.66-2.67-1.53-5-.09-6.94a8.35,8.35,0,0,1,1.95-1.89s1.07-.68,1.33-.81A12.67,12.67,0,0,1,389,351a12.45,12.45,0,0,1,4.67,1,.23.23,0,0,1,.21.1,9.47,9.47,0,0,1,3.87,3.07,4.45,4.45,0,0,1,.45.79l.1.26c.7,1.91.07,4.16-.38,6.71,0-.2-.09-.4-.14-.6-.52-2-.84-3.8-1-4.79l-.07-.33c-.08-.34-.14-.5-.18-.43a1.66,1.66,0,0,0-.19.35,6.09,6.09,0,0,0-.22.8,8.44,8.44,0,0,0,.86,4.34,9.36,9.36,0,0,1,.7,2.71C397.62,365,397.62,365.11,397.61,365.18Zm.85,2.32-.18.07-.64.24a5,5,0,0,0,.52-2.18v-.13h0l1.29-.56.66-.3c.38-.18.75-.35,1.08-.52,1.8-.89,1.77-2.16,3-1.87a1.46,1.46,0,0,1,.28,2.4A1.39,1.39,0,0,0,405,364a.9.9,0,0,1,.64.74c-.09.94-.65,1.22-1.49,1.36l-.6.09c-.37,0-.77.08-1.19.15h0l-.42.08A27.39,27.39,0,0,0,398.46,367.5Z" fill="#fff"/><path d="M390.38,369.36c0-.2-.07-.44-.12-.69-.23-1.21-1-2.26-1.37-2.26s-1,.77-1.34,1.76a2.18,2.18,0,0,0-.11.44l0,.06a14.12,14.12,0,0,0-.27,2.06c0,.46.17.41.39.16l.2-.23.08-.12h0l.05-.07h0l.09-.12c.3-.39.62-.78.87-.78s.42.24.65.53l.2.26c.57.74,1.06,1.49.8-.42C390.45,369.78,390.42,369.59,390.38,369.36Z" fill="#fff"/><path d="M388,362.88c-.15-.92-1.14-.94-3.9-1.44a2.26,2.26,0,0,0-.45,0h-.07l-.21.05-.25.1a3.3,3.3,0,0,0-1.54,2.94v.05a3,3,0,0,0,.06.59v0h0a3.89,3.89,0,0,0,.11.43.19.19,0,0,0,0,.07,2.09,2.09,0,0,0,.38.67,2.22,2.22,0,0,0,.7.51,5,5,0,0,0,1.51.26,3.65,3.65,0,0,0,.55-.05l.12,0a6.11,6.11,0,0,0,.74-.17A3.36,3.36,0,0,0,388,362.88Z" fill="#fff"/><path d="M396.15,363.53l0,.05a2.86,2.86,0,0,0-.15-.41h0L396,363a2.75,2.75,0,0,0-.24-.41v0h0a1.87,1.87,0,0,0-1.78-.93l-.88.12H393l0,0h0l0,0c-2.07.28-2.85.35-3,1.16A3.37,3.37,0,0,0,392,367a4.81,4.81,0,0,0,2.35.25,3.24,3.24,0,0,0,.7-.22l.11-.06.05,0h0l.18-.12a1.55,1.55,0,0,0,.27-.24l.06-.06a2,2,0,0,0,.32-.56,3.79,3.79,0,0,0,.13-2.25Z" fill="#fff"/><rect x="130.81" y="123.76" width="132.53" height="100.08" fill="none" stroke="#b8e8b5" stroke-miterlimit="10"/><polyline points="236.29 123.47 236.29 131.54 229.22 131.54 229.22 138.61 222.15 138.61 222.15 145.68 215.08 145.68 215.08 152.75 208.01 152.75 208.01 159.83 200.94 159.83 200.94 166.9 193.87 166.9 193.87 173.97 186.79 173.97 186.79 181.04 179.72 181.04 179.72 188.11 172.65 188.11 172.65 195.18 165.58 195.18 165.58 202.25 158.51 202.25 158.51 209.32 151.44 209.32 151.44 216.4 144.37 216.4 144.37 223.47" fill="none" stroke="#b8e8b5" stroke-miterlimit="10"/><polyline points="149.37 223.84 149.37 221.4 156.44 221.4 156.44 214.32 163.51 214.32 163.51 207.25 170.58 207.25 170.58 200.18 177.65 200.18 177.65 193.11 184.72 193.11 184.72 186.04 191.79 186.04 191.79 178.97 198.87 178.97 198.87 171.9 205.94 171.9 205.94 164.83 213.01 164.83 213.01 157.75 220.08 157.75 220.08 150.68 227.15 150.68 227.15 143.61 234.22 143.61 234.22 136.54 241.29 136.54 241.29 129.47 247.71 129.47 247.71 124.05" fill="none" stroke="#b8e8b5" stroke-miterlimit="10"/><polyline points="173.44 224.4 173.44 217.32 180.51 217.32 180.51 210.25 187.58 210.25 187.58 203.18 194.65 203.18 194.65 196.11 201.72 196.11 201.72 189.04 208.79 189.04 208.79 181.97 215.87 181.97 215.87 174.9 222.94 174.9 222.94 167.83 230.01 167.83 230.01 160.75 237.08 160.75 237.08 153.68 244.15 153.68 244.15 146.61 251.22 146.61 251.22 139.54 258.29 139.54 258.29 132.47 263.34 132.47" fill="none" stroke="#b8e8b5" stroke-miterlimit="10"/><polyline points="263.15 144.68 256.08 144.68 256.08 151.75 249.01 151.75 249.01 158.83 241.94 158.83 241.94 165.9 234.87 165.9 234.87 172.97 227.79 172.97 227.79 180.04 220.72 180.04 220.72 187.11 213.65 187.11 213.65 194.18 206.58 194.18 206.58 201.25 199.51 201.25 199.51 208.32 192.44 208.32 192.44 215.4 185.37 215.4 185.37 223.47" fill="none" stroke="#b8e8b5" stroke-miterlimit="10"/><polyline points="263.34 161.83 258.94 161.83 258.94 168.9 251.87 168.9 251.87 175.97 244.79 175.97 244.79 183.04 237.72 183.04 237.72 190.11 230.65 190.11 230.65 197.18 223.58 197.18 223.58 204.25 216.51 204.25 216.51 211.32 209.44 211.32 209.44 218.4 202.37 218.4 202.37 223.84" fill="none" stroke="#b8e8b5" stroke-miterlimit="10"/><polyline points="263.94 166.83 263.94 173.9 256.87 173.9 256.87 180.97 249.79 180.97 249.79 188.04 242.72 188.04 242.72 195.11 235.65 195.11 235.65 202.18 228.58 202.18 228.58 209.25 221.51 209.25 221.51 216.32 214.44 216.32 214.44 223.4" fill="none" stroke="#b8e8b5" stroke-miterlimit="10"/><polyline points="263.34 191.04 259.72 191.04 259.72 198.11 252.65 198.11 252.65 205.18 245.58 205.18 245.58 212.25 238.51 212.25 238.51 219.32 231.44 219.32 231.44 223.84" fill="none" stroke="#b8e8b5" stroke-miterlimit="10"/><polyline points="263.34 203.18 257.58 203.18 257.58 210.25 250.51 210.25 250.51 217.32 243.44 217.32 243.44 224.4" fill="none" stroke="#b8e8b5" stroke-miterlimit="10"/><polyline points="161.29 123.76 161.29 126.54 154.22 126.54 154.22 133.61 147.15 133.61 147.15 140.68 140.08 140.68 140.08 147.75 133.01 147.75 133.01 154.83 130.81 154.83" fill="none" stroke="#b8e8b5" stroke-miterlimit="10"/><polyline points="178.29 123.76 178.29 129.54 171.22 129.54 171.22 136.61 164.15 136.61 164.15 143.68 157.08 143.68 157.08 150.75 150.01 150.75 150.01 157.83 142.94 157.83 142.94 164.9 135.87 164.9 135.87 171.97 130.94 171.97" fill="none" stroke="#b8e8b5" stroke-miterlimit="10"/><polyline points="189.83 123.76 189.83 127.47 183.29 127.47 183.29 134.54 176.22 134.54 176.22 141.61 169.15 141.61 169.15 148.68 162.08 148.68 162.08 155.75 155.01 155.75 155.01 162.83 147.94 162.83 147.94 169.9 140.87 169.9 140.87 176.97 133.79 176.97 133.79 184.04 130.81 184.04" fill="none" stroke="#b8e8b5" stroke-miterlimit="10"/><polyline points="130.81 201.18 136.65 201.18 136.65 194.11 143.72 194.11 143.72 187.04 150.79 187.04 150.79 179.97 157.87 179.97 157.87 172.9 164.94 172.9 164.94 165.83 172.01 165.83 172.01 158.75 179.08 158.75 179.08 151.68 186.15 151.68 186.15 144.61 193.22 144.61 193.22 137.54 200.29 137.54 200.29 130.47 207.33 130.47 207.33 124.05" fill="none" stroke="#b8e8b5" stroke-miterlimit="10"/><polyline points="218.21 123.76 218.21 128.47 212.29 128.47 212.29 135.54 205.22 135.54 205.22 142.61 198.15 142.61 198.15 149.68 191.08 149.68 191.08 156.75 184.01 156.75 184.01 163.83 176.94 163.83 176.94 170.9 169.87 170.9 169.87 177.97 162.79 177.97 162.79 185.04 155.72 185.04 155.72 192.11 148.65 192.11 148.65 199.18 141.58 199.18 141.58 206.25 134.51 206.25 134.51 213.32 130.94 213.32" fill="none" stroke="#b8e8b5" stroke-miterlimit="10"/><polyline points="149.22 123.54 149.22 128.61 142.15 128.61 142.15 135.68 135.08 135.68 135.08 142.75 130.81 142.75" fill="none" stroke="#b8e8b5" stroke-miterlimit="10"/><path d="M233.74,109.37c-3.13-19.1-34.05,8.13-35.67,11.25a2.47,2.47,0,0,0-.44,2.53C201.88,125.16,234.63,131.9,233.74,109.37Zm-35.67,12.87c.88-1.86,10.11-10.38,18-14.23s16-3.39,11.81,5.59S202.6,123.64,198.07,122.24Z" fill="#59b254"/><path d="M197.5,122.85a2.46,2.46,0,0,0-.19-2.56c-1.3-3.27-29.39-33.41-34.39-14.71C159.81,127.91,193.07,124.43,197.5,122.85Zm-29.16-12.48c-3.23-9.35,4.83-9,12.3-4.41s15.82,14,16.52,15.94C192.51,122.85,171.57,119.72,168.34,110.37Z" fill="#59b254"/><rect x="161.28" y="360.63" width="13.93" height="10.01" fill="#fff"/><path d="M164.16,362.8a8,8,0,0,0,4.19-2.35c-.4,1.14-2.29,3.44-3.91,3.16a2.67,2.67,0,0,0,.83-.72A2.37,2.37,0,0,1,164.16,362.8Z" fill="#59b254"/><path d="M172.1,359.12c-.33-2-3.58.85-3.75,1.18a.27.27,0,0,0,0,.27C168.75,360.78,172.19,361.48,172.1,359.12Zm-3.75,1.35a6.31,6.31,0,0,1,1.89-1.5c.83-.4,1.68-.35,1.24.59S168.83,360.62,168.35,360.47Z" fill="#59b254"/><path d="M168.29,360.53a.25.25,0,0,0,0-.27c-.14-.34-3.09-3.51-3.61-1.54C164.33,361.07,167.82,360.7,168.29,360.53Zm-3.07-1.31c-.33-1,.51-1,1.3-.46a6.35,6.35,0,0,1,1.73,1.67C167.76,360.53,165.56,360.2,165.22,359.22Z" fill="#59b254"/><path d="M171.52,363.15a6.8,6.8,0,0,1-3.06-2.7c.12,1,1.28,3.26,2.68,3.33a2.45,2.45,0,0,1-.57-.75A2.19,2.19,0,0,0,171.52,363.15Z" fill="#59b254"/><path d="M168.7,360.39c0,.1-.18.27-.41.27s-.42-.17-.42-.27.22-.2.42-.1C168.59,360.19,168.7,360.29,168.7,360.39Z" fill="#59b254"/><rect x="161.28" y="365.26" width="13.93" height="0.75" fill="#59b254"/><rect x="163.21" y="365.23" width="10.06" height="0.75" transform="translate(533.85 197.36) rotate(90)" fill="#59b254"/><rect x="129.58" y="166.78" width="135.03" height="8.45" fill="#70d16d"/><rect x="146.12" y="168.87" width="101.95" height="8" transform="translate(369.96 -24.22) rotate(90)" fill="#70d16d"/><path d="M201.43,122a4,4,0,0,1-7.94,0c0-1.34,2.09-2.71,4-1.34C200.37,119.31,201.43,120.68,201.43,122Z" fill="#59b254"/><path d="M158.19,144.36c8.85-1.18,26.68-8.26,39.85-22.26-3.73,10.81-21.72,32.67-37.18,30.05a26.92,26.92,0,0,0,7.94-6.85A23.1,23.1,0,0,1,158.19,144.36Z" fill="#59b254"/><path d="M228.23,147.7c-7.15-2.57-20.7-11.63-29.15-25.63,1.17,9.66,12.22,31,25.54,31.63a22.87,22.87,0,0,1-5.38-7.11A19.74,19.74,0,0,0,228.23,147.7Z" fill="#59b254"/><rect x="585.42" y="337.22" width="13.93" height="10.01" fill="#fff"/><path d="M588.29,339.39a7.94,7.94,0,0,0,4.19-2.34c-.39,1.14-2.28,3.44-3.9,3.16a2.94,2.94,0,0,0,.83-.72A2.48,2.48,0,0,1,588.29,339.39Z" fill="#59b254"/><path d="M596.24,335.71c-.33-2-3.58.86-3.75,1.19a.25.25,0,0,0,0,.26C592.89,337.37,596.33,338.08,596.24,335.71Zm-3.75,1.36a6.31,6.31,0,0,1,1.89-1.5c.83-.4,1.67-.36,1.24.59S593,337.21,592.49,337.07Z" fill="#59b254"/><path d="M592.43,337.13a.28.28,0,0,0,0-.27c-.14-.34-3.09-3.51-3.62-1.54C588.47,337.66,592,337.3,592.43,337.13Zm-3.07-1.31c-.34-1,.51-.95,1.29-.46a6.28,6.28,0,0,1,1.74,1.67C591.9,337.13,589.7,336.8,589.36,335.82Z" fill="#59b254"/><path d="M595.66,339.74a6.78,6.78,0,0,1-3.07-2.69c.13,1,1.29,3.26,2.69,3.32a2.3,2.3,0,0,1-.57-.74A2.1,2.1,0,0,0,595.66,339.74Z" fill="#59b254"/><path d="M592.84,337c0,.1-.19.28-.42.28s-.41-.18-.41-.28.21-.2.41-.1C592.73,336.78,592.84,336.89,592.84,337Z" fill="#59b254"/><rect x="585.42" y="341.86" width="13.93" height="0.75" fill="#59b254"/><rect x="587.35" y="341.83" width="10.06" height="0.75" transform="translate(934.59 -250.18) rotate(90)" fill="#59b254"/></svg>