<?xml version="1.0" encoding="UTF-8"?>
<svg id="Layer_1" data-name="Layer 1" xmlns="http://www.w3.org/2000/svg" width="927.17" height="425" xmlns:xlink="http://www.w3.org/1999/xlink" viewBox="0 0 927.17 425">
  <defs>
    <linearGradient id="linear-gradient" x1="497.08" y1="227.06" x2="142.64" y2="227.06" gradientUnits="userSpaceOnUse">
      <stop offset=".11" stop-color="#223654"/>
      <stop offset=".2" stop-color="#426349"/>
      <stop offset=".29" stop-color="#5f8c3f"/>
      <stop offset=".39" stop-color="#78ae37"/>
      <stop offset=".49" stop-color="#8ac831"/>
      <stop offset=".59" stop-color="#98db2d"/>
      <stop offset=".69" stop-color="#a0e62a"/>
      <stop offset=".81" stop-color="#a3ea2a"/>
    </linearGradient>
    <linearGradient id="linear-gradient-2" x1="-100.37" y1="227.82" x2="413.24" y2="227.82" gradientUnits="userSpaceOnUse">
      <stop offset=".4" stop-color="#223654"/>
      <stop offset=".45" stop-color="#426349"/>
      <stop offset=".51" stop-color="#5f8c3f"/>
      <stop offset=".56" stop-color="#78ae37"/>
      <stop offset=".62" stop-color="#8ac831"/>
      <stop offset=".68" stop-color="#98db2d"/>
      <stop offset=".74" stop-color="#a0e62a"/>
      <stop offset=".81" stop-color="#a3ea2a"/>
    </linearGradient>
    <linearGradient id="linear-gradient-3" x1="865.89" y1="231.41" x2="511.45" y2="231.41" xlink:href="#linear-gradient"/>
  </defs>
  <path d="m472.57,369.32V84.81h-16.59s-.01,0-.01.01v164.85s-284.27,0-284.27,0v-8.85c0-1.02-1.1-1.65-1.98-1.15l-29.85,17.17c-.88.5-.88,1.77,0,2.27l29.85,17.17c.88.5,1.98-.13,1.98-1.15v-8.85h284.27v103.04h16.6Z" style="fill: url(#linear-gradient); stroke-width: 0px;"/>
  <path d="m428.62,134.85l-29.85-17.17c-.88-.5-1.98.13-1.98,1.15v8.85H112.06v-37.12h-16.59s-.01,0-.01.01v274.5h16.6v-220.78s284.73,0,284.73,0v8.85c0,1.02,1.1,1.65,1.98,1.15l29.85-17.17c.88-.5.88-1.77,0-2.27Z" style="fill: url(#linear-gradient-2); stroke-width: 0px;"/>
  <rect x="366.35" y="38.08" width="194.47" height="56.08" rx="7.48" ry="7.48" style="fill: #223654; stroke-width: 0px;"/>
  <g>
    <path d="m403.59,76.32v-18.22h12.2v3.44h-8.1v3.81h7.2v3.44h-7.2v7.52h-4.1Z" style="fill: #a3ea2a; stroke-width: 0px;"/>
    <path d="m426.22,65.96c-.35-.09-.76-.18-1.24-.28-.47-.1-.98-.14-1.52-.14-.25,0-.54.02-.88.07-.34.04-.6.09-.78.14v10.57h-3.92v-13.09c.7-.25,1.53-.48,2.48-.7s2.02-.33,3.19-.33c.21,0,.46.01.76.04.3.03.6.06.89.1.3.04.6.1.89.16.3.06.55.14.76.22l-.66,3.23Z" style="fill: #a3ea2a; stroke-width: 0px;"/>
    <path d="m441.65,69.38c0,1.09-.16,2.08-.47,2.98-.32.9-.77,1.67-1.37,2.31-.6.64-1.31,1.13-2.14,1.48-.83.35-1.77.53-2.8.53s-1.94-.18-2.77-.53c-.83-.35-1.55-.85-2.14-1.48s-1.06-1.41-1.39-2.31c-.33-.9-.5-1.9-.5-2.98s.17-2.08.51-2.97.81-1.66,1.42-2.29c.6-.63,1.32-1.12,2.16-1.47.83-.35,1.74-.53,2.72-.53s1.91.18,2.75.53c.83.35,1.55.84,2.14,1.47.6.63,1.06,1.39,1.39,2.29.33.89.5,1.88.5,2.97Zm-4,0c0-1.21-.24-2.16-.72-2.85-.48-.69-1.17-1.04-2.06-1.04s-1.59.35-2.08,1.04c-.49.69-.74,1.64-.74,2.85s.25,2.17.74,2.88c.49.71,1.18,1.06,2.08,1.06s1.58-.35,2.06-1.06c.48-.71.72-1.67.72-2.88Z" style="fill: #a3ea2a; stroke-width: 0px;"/>
    <path d="m444.67,62.96c.67-.19,1.52-.37,2.58-.54,1.05-.17,2.16-.25,3.31-.25s2.15.15,2.93.46c.78.31,1.4.74,1.85,1.3.46.56.78,1.23.97,2s.29,1.63.29,2.58v7.81h-3.92v-7.33c0-1.26-.17-2.16-.5-2.68-.33-.53-.96-.79-1.87-.79-.28,0-.58.01-.89.04-.32.03-.6.06-.84.09v10.67h-3.92v-13.35Z" style="fill: #a3ea2a; stroke-width: 0px;"/>
    <path d="m460.02,59.05l3.92-.63v4.07h4.7v3.26h-4.7v4.86c0,.82.14,1.48.43,1.97.29.49.87.74,1.75.74.42,0,.85-.04,1.3-.12.45-.08.85-.19,1.22-.33l.55,3.05c-.47.19-1,.36-1.58.5-.58.14-1.29.21-2.13.21-1.07,0-1.95-.14-2.65-.43-.7-.29-1.26-.69-1.68-1.21-.42-.52-.71-1.14-.88-1.88-.17-.74-.25-1.55-.25-2.44v-11.62Z" style="fill: #a3ea2a; stroke-width: 0px;"/>
    <path d="m470.38,66.7h7.62v3.55h-7.62v-3.55Z" style="fill: #a3ea2a; stroke-width: 0px;"/>
    <path d="m480.16,69.51c0-1.23.19-2.3.57-3.22.38-.92.87-1.69,1.48-2.3.61-.61,1.32-1.08,2.12-1.39.8-.32,1.62-.47,2.46-.47,1.96,0,3.51.6,4.65,1.8,1.14,1.2,1.71,2.97,1.71,5.3,0,.23,0,.48-.03.75-.02.27-.04.51-.05.72h-8.88c.09.81.46,1.45,1.13,1.92s1.56.71,2.68.71c.72,0,1.42-.07,2.12-.2.69-.13,1.26-.29,1.7-.49l.53,3.18c-.21.11-.49.21-.84.32-.35.11-.74.2-1.17.28-.43.08-.89.14-1.38.2-.49.05-.98.08-1.47.08-1.24,0-2.33-.18-3.25-.55-.92-.37-1.68-.87-2.29-1.51s-1.05-1.4-1.34-2.27c-.29-.88-.43-1.82-.43-2.84Zm9.2-1.5c-.02-.33-.07-.66-.17-.97s-.25-.6-.45-.84c-.2-.25-.46-.45-.76-.6-.31-.16-.69-.24-1.14-.24s-.81.07-1.13.22c-.32.15-.58.35-.79.59-.21.25-.37.53-.49.85-.11.32-.2.65-.25.99h5.18Z" style="fill: #a3ea2a; stroke-width: 0px;"/>
    <path d="m496.16,62.96c.67-.19,1.52-.37,2.58-.54,1.05-.17,2.16-.25,3.31-.25s2.15.15,2.93.46c.78.31,1.4.74,1.85,1.3.46.56.78,1.23.97,2s.29,1.63.29,2.58v7.81h-3.92v-7.33c0-1.26-.17-2.16-.5-2.68-.33-.53-.96-.79-1.87-.79-.28,0-.58.01-.89.04-.32.03-.6.06-.84.09v10.67h-3.92v-13.35Z" style="fill: #a3ea2a; stroke-width: 0px;"/>
    <path d="m523.84,75.87c-.35.1-.75.21-1.21.3-.46.1-.93.18-1.43.25-.5.07-1.01.13-1.52.17-.52.04-1.01.07-1.48.07-1.14,0-2.16-.17-3.05-.5-.89-.33-1.65-.81-2.26-1.43-.61-.62-1.08-1.38-1.41-2.26s-.49-1.88-.49-2.98.14-2.13.42-3.04c.28-.9.68-1.67,1.21-2.3.53-.63,1.17-1.11,1.93-1.45.76-.33,1.63-.5,2.62-.5.54,0,1.03.05,1.46.16.43.1.86.25,1.3.45v-6.26l3.92-.63v19.95Zm-8.86-6.57c0,1.21.27,2.18.81,2.92.54.74,1.35,1.1,2.42,1.1.35,0,.67-.01.97-.04.3-.03.54-.06.74-.09v-7.12c-.25-.16-.57-.29-.96-.39-.39-.11-.79-.16-1.2-.16-1.86,0-2.79,1.26-2.79,3.78Z" style="fill: #a3ea2a; stroke-width: 0px;"/>
  </g>
  <rect x="725.72" y="38.08" width="194.47" height="56.08" rx="7.48" ry="7.48" style="fill: #223654; stroke-width: 0px;"/>
  <g>
    <path d="m773.45,76.55c-1,0-1.99-.03-2.98-.09-.99-.06-2.02-.21-3.09-.43v-17.66c.84-.16,1.76-.28,2.76-.36,1-.08,1.93-.12,2.79-.12,1.16,0,2.22.08,3.19.25.97.17,1.81.45,2.51.85.7.4,1.25.93,1.64,1.59.39.66.59,1.47.59,2.43,0,1.45-.7,2.6-2.1,3.44,1.16.44,1.95,1.03,2.37,1.79.42.75.63,1.6.63,2.55,0,1.91-.7,3.35-2.09,4.31s-3.47,1.45-6.22,1.45Zm-2.08-11.3h2c1.26,0,2.16-.16,2.71-.49s.81-.85.81-1.56-.28-1.25-.84-1.55c-.56-.3-1.38-.45-2.47-.45-.35,0-.73,0-1.13.01-.4,0-.76.03-1.08.07v3.97Zm0,3.13v4.7c.3.04.62.06.97.08s.74.03,1.16.03c1.23,0,2.22-.17,2.97-.53.75-.35,1.13-1,1.13-1.95,0-.84-.32-1.44-.95-1.8-.63-.36-1.53-.54-2.71-.54h-2.58Z" style="fill: #a3ea2a; stroke-width: 0px;"/>
    <path d="m789.74,62.12c1.16,0,2.12.13,2.89.39.77.26,1.39.64,1.85,1.13.46.49.79,1.09.99,1.79.19.7.29,1.48.29,2.34v8.15c-.56.12-1.34.27-2.34.43-1,.17-2.21.25-3.63.25-.89,0-1.7-.08-2.43-.24-.73-.16-1.35-.42-1.88-.78-.53-.36-.93-.83-1.21-1.41s-.42-1.29-.42-2.13.16-1.49.49-2.05c.32-.56.76-1.01,1.3-1.34.54-.33,1.17-.57,1.87-.72.7-.15,1.43-.22,2.18-.22.51,0,.96.02,1.35.07.39.04.71.1.96.17v-.37c0-.67-.2-1.2-.6-1.6-.4-.4-1.1-.6-2.1-.6-.67,0-1.32.05-1.97.14-.65.1-1.21.23-1.68.41l-.5-3.15c.23-.07.51-.14.85-.22s.71-.15,1.12-.21c.4-.06.83-.11,1.27-.16s.9-.07,1.35-.07Zm.32,11.46c.39,0,.75,0,1.1-.03.35-.02.63-.04.84-.08v-2.97c-.16-.04-.39-.07-.71-.11s-.6-.05-.87-.05c-.37,0-.71.02-1.04.07s-.61.13-.85.25c-.25.12-.44.29-.58.5-.14.21-.21.47-.21.79,0,.61.21,1.04.62,1.27.41.24.98.36,1.7.36Z" style="fill: #a3ea2a; stroke-width: 0px;"/>
    <path d="m798.65,69.4c0-1,.16-1.94.49-2.83s.79-1.66,1.41-2.31,1.36-1.18,2.23-1.56c.88-.39,1.87-.58,3-.58.74,0,1.41.07,2.02.2.61.13,1.21.32,1.79.56l-.81,3.13c-.37-.14-.77-.26-1.21-.37-.44-.1-.93-.16-1.47-.16-1.16,0-2.02.36-2.59,1.08-.57.72-.85,1.67-.85,2.84,0,1.25.27,2.21.8,2.89s1.47,1.03,2.8,1.03c.47,0,.98-.04,1.52-.13.54-.09,1.04-.23,1.5-.42l.55,3.21c-.46.19-1.02.36-1.71.5-.68.14-1.44.21-2.26.21-1.26,0-2.35-.19-3.26-.57s-1.66-.89-2.25-1.54-1.02-1.42-1.29-2.3c-.27-.88-.41-1.84-.41-2.88Z" style="fill: #a3ea2a; stroke-width: 0px;"/>
    <path d="m816.37,67.46c.39-.42.78-.85,1.19-1.31.41-.45.81-.9,1.19-1.35.39-.44.75-.87,1.09-1.27s.63-.75.88-1.04h4.66c-.93,1.07-1.84,2.08-2.72,3.05-.88.97-1.85,1.97-2.9,3,.53.47,1.07,1.04,1.63,1.7.56.66,1.1,1.34,1.63,2.04s1.01,1.4,1.45,2.11c.44.7.81,1.34,1.1,1.92h-4.5c-.28-.46-.6-.96-.96-1.51-.36-.55-.74-1.11-1.14-1.66-.4-.55-.83-1.08-1.27-1.59-.45-.51-.89-.94-1.32-1.29v6.06h-3.92v-19.77l3.92-.63v11.54Z" style="fill: #a3ea2a; stroke-width: 0px;"/>
    <path d="m825.33,66.7h7.62v3.55h-7.62v-3.55Z" style="fill: #a3ea2a; stroke-width: 0px;"/>
    <path d="m835.11,69.51c0-1.23.19-2.3.57-3.22.38-.92.87-1.69,1.48-2.3s1.32-1.08,2.12-1.39c.8-.32,1.62-.47,2.46-.47,1.96,0,3.51.6,4.65,1.8,1.14,1.2,1.71,2.97,1.71,5.3,0,.23,0,.48-.03.75-.02.27-.04.51-.05.72h-8.88c.09.81.46,1.45,1.13,1.92.67.47,1.56.71,2.68.71.72,0,1.42-.07,2.12-.2.69-.13,1.26-.29,1.7-.49l.53,3.18c-.21.1-.49.21-.84.32-.35.1-.74.2-1.17.28-.43.08-.89.14-1.38.2-.49.05-.98.08-1.47.08-1.24,0-2.33-.18-3.25-.55-.92-.37-1.68-.87-2.29-1.51s-1.05-1.4-1.34-2.27c-.29-.88-.43-1.82-.43-2.84Zm9.2-1.5c-.02-.33-.07-.66-.17-.97s-.25-.6-.45-.84c-.2-.25-.46-.45-.76-.6-.31-.16-.69-.24-1.14-.24s-.81.08-1.13.22c-.32.15-.58.35-.79.59-.21.25-.37.53-.49.85-.11.33-.2.65-.25.99h5.18Z" style="fill: #a3ea2a; stroke-width: 0px;"/>
    <path d="m851.12,62.96c.67-.19,1.52-.37,2.58-.54,1.05-.17,2.16-.25,3.31-.25s2.15.15,2.93.46c.78.31,1.4.74,1.85,1.3.46.56.78,1.23.97,2,.19.77.29,1.63.29,2.58v7.81h-3.92v-7.33c0-1.26-.17-2.16-.5-2.68-.33-.53-.96-.79-1.87-.79-.28,0-.58.01-.89.04-.32.03-.6.06-.84.09v10.67h-3.92v-13.35Z" style="fill: #a3ea2a; stroke-width: 0px;"/>
    <path d="m878.8,75.87c-.35.11-.75.21-1.21.3-.46.1-.93.18-1.43.25-.5.07-1.01.13-1.53.17-.52.04-1.01.07-1.48.07-1.14,0-2.16-.17-3.05-.5-.89-.33-1.65-.81-2.26-1.43s-1.08-1.38-1.41-2.26-.49-1.88-.49-2.98.14-2.13.42-3.04c.28-.9.68-1.67,1.21-2.3.53-.63,1.17-1.11,1.93-1.45s1.63-.5,2.62-.5c.54,0,1.03.05,1.46.16.43.11.86.25,1.3.45v-6.26l3.92-.63v19.95Zm-8.86-6.57c0,1.21.27,2.18.81,2.92.54.74,1.35,1.1,2.42,1.1.35,0,.67-.01.97-.04.3-.03.54-.06.74-.09v-7.12c-.25-.16-.57-.29-.96-.39-.39-.1-.79-.16-1.2-.16-1.86,0-2.79,1.26-2.79,3.79Z" style="fill: #a3ea2a; stroke-width: 0px;"/>
  </g>
  <rect x="6.98" y="38.08" width="194.47" height="56.08" rx="7.48" ry="7.48" style="fill: #223654; stroke-width: 0px;"/>
  <g>
    <path d="m63.46,76.32c-.2-.63-.42-1.28-.65-1.95-.23-.67-.47-1.33-.7-1.99h-7.11c-.23.66-.46,1.33-.69,2-.23.67-.45,1.32-.65,1.94h-4.26c.69-1.96,1.34-3.78,1.95-5.44.62-1.66,1.22-3.23,1.81-4.71.59-1.47,1.17-2.87,1.74-4.19.57-1.32,1.16-2.62,1.78-3.88h3.89c.6,1.26,1.19,2.55,1.77,3.88.58,1.32,1.17,2.72,1.76,4.19.59,1.47,1.19,3.04,1.81,4.71.62,1.67,1.27,3.48,1.95,5.44h-4.39Zm-4.93-14.09c-.09.26-.23.62-.4,1.08-.18.46-.38.98-.6,1.58-.23.6-.48,1.25-.75,1.97-.28.72-.56,1.47-.85,2.26h5.21c-.28-.79-.55-1.54-.81-2.26-.26-.72-.51-1.38-.74-1.97-.24-.6-.44-1.12-.62-1.58-.18-.45-.32-.81-.43-1.07Z" style="fill: #a3ea2a; stroke-width: 0px;"/>
    <path d="m69.8,59.05l3.92-.63v4.07h4.7v3.26h-4.7v4.86c0,.82.14,1.48.43,1.97.29.49.87.74,1.75.74.42,0,.85-.04,1.3-.12.45-.08.85-.19,1.22-.33l.55,3.05c-.47.19-1,.36-1.58.5-.58.14-1.29.21-2.13.21-1.07,0-1.95-.14-2.65-.43-.7-.29-1.26-.69-1.68-1.21-.42-.52-.71-1.14-.88-1.88-.17-.74-.25-1.55-.25-2.44v-11.62Z" style="fill: #a3ea2a; stroke-width: 0px;"/>
    <path d="m81.47,59.05l3.92-.63v4.07h4.7v3.26h-4.7v4.86c0,.82.14,1.48.43,1.97.29.49.87.74,1.75.74.42,0,.85-.04,1.3-.12.45-.08.85-.19,1.22-.33l.55,3.05c-.47.19-1,.36-1.58.5-.58.14-1.29.21-2.13.21-1.07,0-1.95-.14-2.65-.43-.7-.29-1.26-.69-1.68-1.21-.42-.52-.71-1.14-.88-1.88-.17-.74-.25-1.55-.25-2.44v-11.62Z" style="fill: #a3ea2a; stroke-width: 0px;"/>
    <path d="m97.71,62.12c1.16,0,2.12.13,2.89.39.77.26,1.39.64,1.85,1.13.46.49.79,1.09.99,1.79.19.7.29,1.48.29,2.34v8.15c-.56.12-1.34.27-2.34.43-1,.17-2.21.25-3.63.25-.89,0-1.7-.08-2.43-.24s-1.35-.42-1.88-.78c-.53-.36-.93-.83-1.21-1.41-.28-.58-.42-1.29-.42-2.13s.16-1.49.49-2.05c.32-.56.76-1.01,1.3-1.34.54-.33,1.17-.57,1.87-.72.7-.15,1.43-.22,2.18-.22.51,0,.96.02,1.35.07.39.04.71.1.96.17v-.37c0-.67-.2-1.2-.6-1.6-.4-.4-1.1-.6-2.1-.6-.67,0-1.32.05-1.97.14-.65.1-1.21.23-1.68.41l-.5-3.15c.23-.07.51-.14.85-.22.34-.08.71-.15,1.12-.21.4-.06.83-.11,1.27-.16.45-.04.9-.07,1.35-.07Zm.32,11.46c.39,0,.75,0,1.1-.03.35-.02.63-.04.84-.08v-2.97c-.16-.03-.39-.07-.71-.1-.32-.03-.6-.05-.87-.05-.37,0-.71.02-1.04.07-.32.04-.61.13-.85.25-.25.12-.44.29-.58.5-.14.21-.21.47-.21.79,0,.61.21,1.04.62,1.27.41.24.98.35,1.7.35Z" style="fill: #a3ea2a; stroke-width: 0px;"/>
    <path d="m106.62,69.4c0-1,.16-1.94.49-2.83s.79-1.66,1.41-2.31c.61-.66,1.36-1.18,2.23-1.56.88-.39,1.87-.58,3-.58.74,0,1.41.07,2.02.2s1.21.32,1.79.57l-.81,3.13c-.37-.14-.77-.26-1.21-.37-.44-.11-.93-.16-1.47-.16-1.16,0-2.02.36-2.59,1.08-.57.72-.85,1.67-.85,2.84,0,1.24.27,2.21.8,2.89s1.47,1.02,2.8,1.02c.47,0,.98-.04,1.52-.13.54-.09,1.04-.23,1.5-.42l.55,3.21c-.46.19-1.02.36-1.71.5-.68.14-1.44.21-2.26.21-1.26,0-2.35-.19-3.26-.57-.91-.38-1.66-.89-2.25-1.54-.59-.65-1.02-1.41-1.29-2.3-.27-.88-.41-1.84-.41-2.88Z" style="fill: #a3ea2a; stroke-width: 0px;"/>
    <path d="m124.34,67.45c.39-.42.78-.85,1.19-1.31.41-.45.81-.9,1.19-1.35.39-.44.75-.87,1.09-1.27.34-.4.63-.75.88-1.05h4.66c-.93,1.07-1.84,2.09-2.72,3.06s-1.85,1.97-2.9,3c.53.47,1.07,1.04,1.63,1.7.56.66,1.1,1.34,1.63,2.04.53.7,1.01,1.4,1.45,2.11.44.7.81,1.34,1.1,1.92h-4.5c-.28-.46-.6-.96-.96-1.52-.36-.55-.74-1.11-1.14-1.66s-.83-1.08-1.27-1.59c-.45-.51-.89-.94-1.32-1.29v6.06h-3.92v-19.77l3.92-.63v11.54Z" style="fill: #a3ea2a; stroke-width: 0px;"/>
    <path d="m134.03,69.51c0-1.23.19-2.3.57-3.22.38-.92.87-1.69,1.48-2.3.61-.61,1.32-1.08,2.12-1.39.8-.32,1.62-.47,2.46-.47,1.96,0,3.51.6,4.65,1.8,1.14,1.2,1.71,2.97,1.71,5.3,0,.23,0,.48-.03.75-.02.27-.04.51-.05.72h-8.88c.09.81.46,1.45,1.13,1.92s1.56.71,2.68.71c.72,0,1.42-.07,2.12-.2.69-.13,1.26-.29,1.7-.49l.53,3.18c-.21.11-.49.21-.84.32-.35.11-.74.2-1.17.28-.43.08-.89.14-1.38.2-.49.05-.98.08-1.47.08-1.24,0-2.33-.18-3.25-.55-.92-.37-1.68-.87-2.29-1.51s-1.05-1.4-1.34-2.27c-.29-.88-.43-1.82-.43-2.84Zm9.2-1.5c-.02-.33-.07-.66-.17-.97s-.25-.6-.45-.84c-.2-.25-.46-.45-.76-.6-.31-.16-.69-.24-1.14-.24s-.81.07-1.13.22c-.32.15-.58.35-.79.59-.21.25-.37.53-.49.85-.11.32-.2.65-.25.99h5.18Z" style="fill: #a3ea2a; stroke-width: 0px;"/>
    <path d="m158.37,65.96c-.35-.09-.76-.18-1.24-.28-.47-.1-.98-.14-1.52-.14-.25,0-.54.02-.88.07-.34.04-.6.09-.78.14v10.57h-3.92v-13.09c.7-.25,1.53-.48,2.48-.7s2.02-.33,3.19-.33c.21,0,.46.01.76.04.3.03.6.06.89.1.3.04.6.1.89.16.3.06.55.14.76.22l-.66,3.23Z" style="fill: #a3ea2a; stroke-width: 0px;"/>
  </g>
  <g style="opacity: .4;">
    <path id="cloud" d="m36.5,62.47c-.48-2.5-2.71-4.4-5.37-4.4h-.96c-.72-3.58-3.85-6.19-7.55-6.19s-6.84,2.63-7.56,6.22c-2.74.29-4.88,2.6-4.88,5.38,0,2.99,2.45,5.42,5.47,5.42h8.1c.42-.02.76-.37.74-.8-.02-.4-.34-.73-.74-.74h-8.1c-2.16,0-3.92-1.74-3.92-3.87s1.76-3.87,3.92-3.87c.8,0,1.58.24,2.23.71.31.22.73.19,1-.08h0c.3-.3.3-.78,0-1.09h0s-.06-.06-.1-.09c-.65-.46-1.38-.77-2.16-.91.66-2.75,3.11-4.73,5.98-4.73,3.04,0,5.61,2.22,6.08,5.22-.24.13-.48.27-.7.42-.35.25-.43.73-.19,1.08.03.04.05.07.09.1h0c.27.27.69.3,1,.08.65-.46,1.43-.71,2.23-.71,1.91,0,3.5,1.35,3.85,3.14.07.36.39.63.76.63h0c.42,0,.77-.34.78-.77h0c.01-.05.01-.11,0-.16Z" style="fill: #fff; stroke-width: 0px;"/>
    <g id="numbers">
      <path d="m26.86,67.64h-.67v-2.12s.02-.33.02-.33c-.08.08-.15.15-.23.22l-.36.29-.32-.4,1.02-.81h.55v3.15Z" style="fill: #fff; stroke-width: 0px;"/>
      <path d="m29.92,66.07c0,.55-.09.96-.27,1.22s-.46.39-.83.39-.64-.14-.82-.41-.28-.68-.28-1.21.09-.96.27-1.23.45-.39.83-.39.64.14.82.41c.2.28.29.68.29,1.21Zm-1.54,0c0,.38.04.66.1.83s.18.25.34.25.27-.09.34-.25.1-.44.1-.83-.04-.67-.11-.83-.18-.25-.33-.25-.27.09-.34.25-.1.44-.1.83Z" style="fill: #fff; stroke-width: 0px;"/>
      <path d="m26.86,72.43h-.67v-2.12s.02-.33.02-.33c-.08.08-.15.15-.23.22l-.36.29-.32-.4,1.02-.81h.55v3.15Z" style="fill: #fff; stroke-width: 0px;"/>
      <path d="m29.38,72.43h-.67v-2.12s.02-.33.02-.33c-.08.08-.15.15-.23.22l-.36.29-.32-.4,1.02-.81h.55v3.15h.01Z" style="fill: #fff; stroke-width: 0px;"/>
      <path d="m31.91,72.43h-.67v-2.12s.02-.33.02-.33c-.08.08-.15.15-.23.22l-.36.29-.32-.4,1.02-.81h.55v3.15Z" style="fill: #fff; stroke-width: 0px;"/>
      <path d="m34.96,70.85c0,.55-.09.96-.27,1.22s-.46.4-.83.4-.64-.14-.82-.41-.28-.68-.28-1.21.09-.96.27-1.23.45-.39.83-.39.64.14.82.41c.2.27.29.68.29,1.21Zm-1.54,0c0,.38.04.66.1.83s.18.25.34.25.27-.09.34-.25.1-.44.1-.83-.04-.67-.11-.83-.18-.25-.33-.25-.27.09-.34.25-.1.44-.1.83Z" style="fill: #fff; stroke-width: 0px;"/>
      <path d="m36.4,74.63c0,.4-.07.7-.2.89s-.33.29-.61.29-.46-.1-.6-.3-.2-.49-.2-.88.07-.7.2-.89c.13-.19.33-.29.61-.29s.46.1.6.3.2.49.2.88Zm-1.12,0c0,.28.03.48.07.61.03.11.13.18.25.18s.19-.06.24-.19.08-.32.08-.6-.03-.48-.08-.61-.13-.19-.24-.19-.2.06-.24.19-.08.32-.08.61h0Z" style="fill: #fff; stroke-width: 0px;"/>
      <path d="m37.85,75.78h-.48v-1.55s.02-.24.02-.24c-.08.08-.14.13-.17.16l-.26.21-.23-.29.74-.59h.4v2.29h0Z" style="fill: #fff; stroke-width: 0px;"/>
      <path d="m26.72,74.66c0,.39-.07.68-.19.87s-.33.28-.6.28-.45-.1-.59-.29-.2-.48-.2-.86.07-.69.19-.87.32-.28.59-.28.45.1.59.29.2.48.2.86Zm-1.1,0c0,.27.03.47.07.59.03.11.13.18.24.18.11,0,.19-.06.24-.18s.08-.32.08-.59-.03-.47-.08-.59-.13-.18-.24-.18-.19.06-.24.18-.08.32-.08.6h0Z" style="fill: #fff; stroke-width: 0px;"/>
      <path d="m28.13,75.78h-.47v-1.51s.02-.23.02-.23c-.08.08-.13.13-.16.16l-.26.21-.23-.29.72-.58h.39v2.24Z" style="fill: #fff; stroke-width: 0px;"/>
      <path d="m30.31,74.66c0,.39-.07.68-.19.87s-.33.28-.6.28-.45-.1-.59-.29-.2-.48-.2-.86.07-.69.19-.87.32-.28.59-.28.45.1.59.29.2.48.2.86Zm-1.1,0c0,.27.03.47.07.59.03.11.13.18.24.18.12,0,.19-.06.24-.18s.08-.32.08-.59-.03-.47-.08-.59-.13-.18-.24-.18-.19.06-.24.18-.08.32-.08.6h0Z" style="fill: #fff; stroke-width: 0px;"/>
      <path d="m31.72,75.78h-.47v-1.51s.02-.23.02-.23c-.08.08-.14.13-.17.16l-.26.21-.23-.29.72-.58h.39v2.24Z" style="fill: #fff; stroke-width: 0px;"/>
      <path d="m26.25,77.52c0,.28-.05.49-.14.63s-.23.2-.43.2c-.17.01-.33-.07-.42-.21-.1-.14-.14-.35-.14-.62,0-.29.05-.49.14-.63s.23-.2.42-.2c.17-.01.33.07.42.21.09.15.14.35.14.63Zm-.79,0c0,.2.02.34.05.42.03.1.12.15.22.12h0c.06-.02.11-.06.12-.12.04-.09.05-.23.05-.42,0-.15-.01-.29-.06-.43-.03-.09-.12-.15-.21-.13h-.01c-.06.02-.11.06-.12.12-.04.15-.05.29-.05.43Z" style="fill: #fff; stroke-width: 0px;"/>
      <path d="m27.26,78.32h-.34v-1.09s.01-.17.01-.17c-.06.06-.1.1-.12.11l-.19.15-.17-.2.52-.41h.28v1.61Z" style="fill: #fff; stroke-width: 0px;"/>
      <path d="m30.73,79.53c0,.28-.05.49-.14.63s-.24.2-.43.2c-.17.01-.33-.07-.42-.21-.1-.14-.14-.35-.14-.62s.05-.49.14-.63.23-.2.42-.2c.17-.01.33.07.42.21.1.15.15.35.15.63Zm-.79,0c0,.2.02.34.05.42.03.09.12.15.21.13h.01c.06-.02.11-.06.12-.12.04-.09.05-.23.05-.42,0-.15-.01-.29-.06-.43-.02-.08-.09-.13-.17-.13s-.15.05-.17.13c-.03.08-.05.22-.05.42Z" style="fill: #fff; stroke-width: 0px;"/>
      <path d="m31.75,80.34h-.34v-1.09s.01-.17.01-.17c-.06.06-.1.1-.12.11l-.19.15-.17-.21.52-.41h.28v1.61Z" style="fill: #fff; stroke-width: 0px;"/>
      <path d="m34.44,77.2c0,.39-.07.68-.19.87s-.33.28-.6.28-.45-.1-.59-.29-.2-.48-.2-.86.07-.69.19-.87.32-.28.59-.28.45.1.59.29.2.48.2.86Zm-1.1,0c0,.28.03.47.07.59.03.11.13.18.24.18.11,0,.19-.06.24-.18s.08-.32.08-.59-.03-.47-.08-.6-.13-.18-.24-.18-.19.06-.24.18-.07.33-.07.6h0Z" style="fill: #fff; stroke-width: 0px;"/>
      <path d="m35.85,78.32h-.47v-1.51s.02-.23.02-.23c-.08.08-.13.13-.16.16l-.26.21-.23-.29.72-.58h.39v2.24h0Z" style="fill: #fff; stroke-width: 0px;"/>
      <path d="m38.03,77.2c0,.39-.07.68-.19.87s-.33.28-.6.28-.45-.1-.59-.29-.2-.48-.2-.86.07-.69.19-.87.32-.28.59-.28.45.1.59.29.2.48.2.86Zm-1.1,0c0,.28.03.47.07.59.03.11.13.18.24.18.11,0,.19-.06.24-.18s.08-.32.08-.59-.03-.47-.08-.6-.13-.18-.24-.18-.19.06-.24.18-.08.33-.08.6h0Z" style="fill: #fff; stroke-width: 0px;"/>
      <path d="m34.58,67.64h-.67v-2.12s.02-.33.02-.33c-.08.08-.15.15-.23.22l-.36.29-.32-.4,1.02-.81h.55v3.15h0Z" style="fill: #fff; stroke-width: 0px;"/>
      <path d="m37.64,66.07c0,.55-.09.96-.27,1.22s-.46.39-.83.39-.64-.14-.82-.41-.28-.68-.28-1.21.09-.96.27-1.23.45-.39.83-.39.64.14.82.41.28.68.29,1.21Zm-1.55,0c0,.38.04.66.1.83s.18.25.34.25.27-.09.34-.25.1-.44.1-.83-.04-.67-.11-.83-.18-.25-.33-.25-.27.09-.34.25-.1.44-.1.83h0Z" style="fill: #fff; stroke-width: 0px;"/>
    </g>
  </g>
  <rect x="366.35" y="364.07" width="194.47" height="56.08" rx="7.48" ry="7.48" style="fill: #223654; stroke-width: 0px;"/>
  <g>
    <path d="m403.59,402.31v-18.21h12.2v3.44h-8.1v3.81h7.2v3.44h-7.2v7.52h-4.1Z" style="fill: #a3ea2a; stroke-width: 0px;"/>
    <path d="m426.22,391.95c-.35-.09-.76-.18-1.24-.28-.47-.1-.98-.14-1.52-.14-.25,0-.54.02-.88.07-.34.04-.6.09-.78.14v10.57h-3.92v-13.09c.7-.25,1.53-.48,2.48-.7.96-.22,2.02-.33,3.19-.33.21,0,.46.01.76.04.3.03.6.06.89.11.3.04.6.1.89.16.3.06.55.14.76.22l-.66,3.23Z" style="fill: #a3ea2a; stroke-width: 0px;"/>
    <path d="m441.65,395.37c0,1.09-.16,2.08-.47,2.98-.32.9-.77,1.67-1.37,2.31-.6.64-1.31,1.13-2.14,1.49-.83.35-1.77.53-2.8.53s-1.94-.18-2.77-.53c-.83-.35-1.55-.85-2.14-1.49s-1.06-1.41-1.39-2.31c-.33-.9-.5-1.9-.5-2.98s.17-2.08.51-2.97.81-1.66,1.42-2.29c.6-.63,1.32-1.12,2.16-1.47.83-.35,1.74-.53,2.72-.53s1.91.18,2.75.53c.83.35,1.55.84,2.14,1.47.6.63,1.06,1.39,1.39,2.29.33.89.5,1.88.5,2.97Zm-4,0c0-1.21-.24-2.16-.72-2.85-.48-.69-1.17-1.04-2.06-1.04s-1.59.35-2.08,1.04c-.49.69-.74,1.64-.74,2.85s.25,2.17.74,2.88c.49.71,1.18,1.06,2.08,1.06s1.58-.35,2.06-1.06.72-1.67.72-2.88Z" style="fill: #a3ea2a; stroke-width: 0px;"/>
    <path d="m444.67,388.96c.67-.19,1.52-.37,2.58-.54,1.05-.17,2.16-.25,3.31-.25s2.15.15,2.93.46,1.4.74,1.85,1.3c.46.56.78,1.23.97,2,.19.77.29,1.63.29,2.58v7.81h-3.92v-7.33c0-1.26-.17-2.16-.5-2.68-.33-.53-.96-.79-1.87-.79-.28,0-.58.01-.89.04-.32.03-.6.06-.84.09v10.67h-3.92v-13.35Z" style="fill: #a3ea2a; stroke-width: 0px;"/>
    <path d="m460.02,385.04l3.92-.63v4.07h4.7v3.26h-4.7v4.86c0,.82.14,1.48.43,1.97.29.49.87.74,1.75.74.42,0,.85-.04,1.3-.12s.85-.19,1.22-.33l.55,3.05c-.47.19-1,.36-1.58.5s-1.29.21-2.13.21c-1.07,0-1.95-.14-2.65-.43-.7-.29-1.26-.69-1.68-1.21-.42-.52-.71-1.14-.88-1.88-.17-.74-.25-1.55-.25-2.45v-11.62Z" style="fill: #a3ea2a; stroke-width: 0px;"/>
    <path d="m470.38,392.69h7.62v3.55h-7.62v-3.55Z" style="fill: #a3ea2a; stroke-width: 0px;"/>
    <path d="m480.16,395.5c0-1.23.19-2.3.57-3.22.38-.92.87-1.69,1.48-2.3s1.32-1.08,2.12-1.39c.8-.32,1.62-.47,2.46-.47,1.96,0,3.51.6,4.65,1.8,1.14,1.2,1.71,2.97,1.71,5.3,0,.23,0,.48-.03.75-.02.27-.04.51-.05.72h-8.88c.09.81.46,1.45,1.13,1.92.67.47,1.56.71,2.68.71.72,0,1.42-.07,2.12-.2s1.26-.29,1.7-.49l.53,3.18c-.21.11-.49.21-.84.32s-.74.2-1.17.28c-.43.08-.89.14-1.38.2-.49.05-.98.08-1.47.08-1.24,0-2.33-.18-3.25-.55s-1.68-.87-2.29-1.51-1.05-1.4-1.34-2.27c-.29-.88-.43-1.82-.43-2.84Zm9.2-1.5c-.02-.33-.07-.66-.17-.97s-.25-.6-.45-.84c-.2-.25-.46-.45-.76-.6-.31-.16-.69-.24-1.14-.24s-.81.07-1.13.22c-.32.15-.58.35-.79.59-.21.25-.37.53-.49.85-.11.32-.2.65-.25.99h5.18Z" style="fill: #a3ea2a; stroke-width: 0px;"/>
    <path d="m496.16,388.96c.67-.19,1.52-.37,2.58-.54,1.05-.17,2.16-.25,3.31-.25s2.15.15,2.93.46,1.4.74,1.85,1.3c.46.56.78,1.23.97,2,.19.77.29,1.63.29,2.58v7.81h-3.92v-7.33c0-1.26-.17-2.16-.5-2.68-.33-.53-.96-.79-1.87-.79-.28,0-.58.01-.89.04-.32.03-.6.06-.84.09v10.67h-3.92v-13.35Z" style="fill: #a3ea2a; stroke-width: 0px;"/>
    <path d="m523.84,401.86c-.35.1-.75.21-1.21.3-.46.1-.93.18-1.43.25-.5.07-1.01.13-1.52.17-.52.04-1.01.07-1.48.07-1.14,0-2.16-.17-3.05-.5-.89-.33-1.65-.81-2.26-1.43s-1.08-1.38-1.41-2.26-.49-1.88-.49-2.98.14-2.13.42-3.04c.28-.9.68-1.67,1.21-2.3.53-.63,1.17-1.11,1.93-1.45.76-.33,1.63-.5,2.62-.5.54,0,1.03.05,1.46.16.43.11.86.25,1.3.45v-6.26l3.92-.63v19.95Zm-8.86-6.57c0,1.21.27,2.18.81,2.92.54.74,1.35,1.1,2.42,1.1.35,0,.67-.01.97-.04.3-.03.54-.06.74-.09v-7.12c-.25-.16-.57-.29-.96-.39-.39-.11-.79-.16-1.2-.16-1.86,0-2.79,1.26-2.79,3.79Z" style="fill: #a3ea2a; stroke-width: 0px;"/>
  </g>
  <rect x="151.67" y="149.07" width="214.68" height="38.55" rx="7.48" ry="7.48" style="fill: #223654; stroke-width: 0px;"/>
  <g>
    <path d="m173.02,164.38c.26,0,.48-.02.65-.07s.31-.1.41-.18.18-.17.22-.27c.04-.1.06-.22.06-.35,0-.27-.13-.5-.38-.68-.26-.18-.7-.37-1.32-.58-.27-.1-.54-.21-.82-.33s-.52-.28-.73-.47c-.22-.19-.39-.42-.53-.68-.14-.27-.2-.59-.2-.98s.07-.73.22-1.04.35-.57.61-.79.58-.38.96-.5.8-.17,1.27-.17c.56,0,1.04.06,1.45.18.41.12.74.25,1.01.4l-.54,1.48c-.23-.12-.49-.23-.77-.32-.28-.09-.63-.14-1.03-.14-.45,0-.77.06-.97.19-.2.12-.29.31-.29.57,0,.15.04.28.11.38.07.1.17.2.31.28.13.08.28.16.46.23.17.07.36.14.57.21.43.16.81.32,1.13.47.32.16.59.34.8.55s.37.45.47.73c.1.28.16.62.16,1.02,0,.78-.27,1.38-.82,1.81-.54.43-1.36.64-2.46.64-.37,0-.7-.02-1-.07s-.56-.1-.79-.16c-.23-.06-.42-.13-.59-.2-.16-.07-.3-.14-.41-.2l.53-1.49c.25.14.55.26.92.37.36.11.81.16,1.34.16Z" style="fill: #a3ea2a; stroke-width: 0px;"/>
    <path d="m177.32,162.7c0-.56.09-1.05.26-1.47s.4-.77.68-1.05c.28-.28.6-.49.97-.64.36-.14.74-.22,1.12-.22.9,0,1.6.27,2.12.82s.78,1.35.78,2.42c0,.1,0,.22-.01.34,0,.12-.02.23-.02.33h-4.06c.04.37.21.66.52.88.3.22.71.32,1.22.32.33,0,.65-.03.97-.09s.57-.13.77-.22l.24,1.45c-.1.05-.22.1-.38.14s-.34.09-.53.13c-.2.04-.41.07-.63.09-.22.02-.45.04-.67.04-.57,0-1.06-.08-1.48-.25s-.77-.4-1.04-.69c-.28-.29-.48-.64-.61-1.04-.13-.4-.2-.83-.2-1.3Zm4.2-.68c0-.15-.03-.3-.08-.44-.04-.14-.11-.27-.2-.38-.09-.11-.21-.2-.35-.28-.14-.07-.31-.11-.52-.11s-.37.03-.52.1c-.14.07-.26.16-.36.27-.1.11-.17.24-.22.39-.05.15-.09.3-.11.45h2.36Z" style="fill: #a3ea2a; stroke-width: 0px;"/>
    <path d="m184.62,159.71c.3-.09.7-.17,1.18-.25s.98-.11,1.51-.11.98.07,1.34.21c.36.14.64.34.85.59.21.26.36.56.44.91.09.35.13.74.13,1.18v3.56h-1.79v-3.35c0-.58-.08-.98-.23-1.22-.15-.24-.44-.36-.85-.36-.13,0-.26,0-.41.02-.14.01-.27.03-.38.04v4.87h-1.79v-6.1Z" style="fill: #a3ea2a; stroke-width: 0px;"/>
    <path d="m197.26,165.6c-.16.05-.34.09-.55.14-.21.04-.43.08-.65.11s-.46.06-.7.08c-.24.02-.46.03-.68.03-.52,0-.98-.08-1.39-.23-.41-.15-.75-.37-1.03-.65-.28-.28-.49-.63-.64-1.03-.15-.4-.22-.86-.22-1.36s.06-.97.19-1.39.31-.76.55-1.05c.24-.29.53-.51.88-.66s.75-.23,1.19-.23c.25,0,.47.02.67.07.2.05.39.12.59.2v-2.86l1.79-.29v9.11Zm-4.04-3c0,.55.12,1,.37,1.33s.62.5,1.1.5c.16,0,.31,0,.44-.02.14-.01.25-.03.34-.04v-3.25c-.11-.07-.26-.13-.44-.18-.18-.05-.36-.07-.55-.07-.85,0-1.27.58-1.27,1.73Z" style="fill: #a3ea2a; stroke-width: 0px;"/>
    <path d="m201.52,162.65c0-.46.07-.89.22-1.29.15-.4.36-.76.64-1.06.28-.3.62-.54,1.02-.71s.86-.26,1.37-.26c.34,0,.64.03.92.09.28.06.55.15.82.26l-.37,1.43c-.17-.06-.35-.12-.55-.17s-.42-.07-.67-.07c-.53,0-.92.16-1.18.49s-.39.76-.39,1.3c0,.57.12,1.01.37,1.32.24.31.67.47,1.28.47.22,0,.45-.02.7-.06.25-.04.48-.1.68-.19l.25,1.46c-.21.09-.47.16-.78.23-.31.06-.66.1-1.03.1-.58,0-1.07-.09-1.49-.26s-.76-.41-1.03-.7-.46-.65-.59-1.05-.19-.84-.19-1.31Z" style="fill: #a3ea2a; stroke-width: 0px;"/>
    <path d="m211.62,161.08c-.16-.04-.35-.08-.56-.13-.22-.04-.45-.07-.7-.07-.11,0-.25,0-.4.03-.16.02-.27.04-.35.07v4.82h-1.79v-5.98c.32-.11.7-.22,1.13-.32s.92-.15,1.46-.15c.1,0,.21,0,.35.02.14.01.27.03.41.05.14.02.27.04.41.07.14.03.25.06.35.1l-.3,1.48Z" style="fill: #a3ea2a; stroke-width: 0px;"/>
    <path d="m215.03,159.32c.53,0,.97.06,1.32.18.35.12.63.29.85.52.21.22.36.5.45.82.09.32.13.68.13,1.07v3.72c-.26.06-.61.12-1.07.2-.46.08-1.01.11-1.66.11-.41,0-.78-.04-1.11-.11-.33-.07-.62-.19-.86-.35-.24-.16-.42-.38-.55-.64-.13-.26-.19-.59-.19-.97s.07-.68.22-.94c.15-.26.35-.46.59-.61.25-.15.53-.26.85-.33.32-.07.65-.1,1-.1.23,0,.44,0,.62.03.18.02.33.05.44.08v-.17c0-.3-.09-.55-.28-.73-.18-.18-.5-.28-.96-.28-.3,0-.6.02-.9.07s-.55.11-.77.19l-.23-1.44c.1-.03.23-.07.39-.1.16-.04.33-.07.51-.1.18-.03.38-.05.58-.07.2-.02.41-.03.62-.03Zm.14,5.23c.18,0,.34,0,.5-.01s.29-.02.38-.04v-1.36c-.07-.02-.18-.03-.32-.05-.14-.02-.28-.02-.4-.02-.17,0-.33,0-.47.03-.15.02-.28.06-.39.11-.11.06-.2.13-.26.23-.06.1-.1.22-.1.36,0,.28.09.47.28.58.19.11.45.16.77.16Z" style="fill: #a3ea2a; stroke-width: 0px;"/>
    <path d="m222.13,156.49c.34,0,.64.03.92.1.28.07.5.13.65.2l-.35,1.43c-.16-.07-.33-.13-.52-.16s-.36-.05-.52-.05c-.22,0-.4.03-.55.09s-.26.14-.35.25c-.08.1-.14.23-.18.37-.04.14-.05.3-.05.47v.31h2.21v1.49h-2.21v4.82h-1.79v-6.65c0-.82.23-1.46.69-1.94.46-.48,1.14-.72,2.05-.72Z" style="fill: #a3ea2a; stroke-width: 0px;"/>
    <path d="m224.4,157.92l1.79-.29v1.86h2.15v1.49h-2.15v2.22c0,.38.07.68.2.9.13.22.4.34.8.34.19,0,.39-.02.59-.05.2-.04.39-.09.56-.15l.25,1.39c-.22.09-.46.16-.72.23-.26.06-.59.1-.97.1-.49,0-.89-.07-1.21-.2s-.58-.32-.77-.55c-.19-.24-.33-.52-.4-.86-.08-.34-.11-.71-.11-1.12v-5.3Z" style="fill: #a3ea2a; stroke-width: 0px;"/>
    <path d="m229.25,162.7c0-.56.09-1.05.26-1.47s.4-.77.68-1.05c.28-.28.6-.49.97-.64.36-.14.74-.22,1.12-.22.9,0,1.6.27,2.12.82s.78,1.35.78,2.42c0,.1,0,.22-.01.34,0,.12-.02.23-.02.33h-4.06c.04.37.21.66.52.88.3.22.71.32,1.22.32.33,0,.65-.03.97-.09s.57-.13.77-.22l.24,1.45c-.1.05-.22.1-.38.14s-.34.09-.53.13c-.2.04-.41.07-.63.09-.22.02-.45.04-.67.04-.57,0-1.06-.08-1.48-.25s-.77-.4-1.04-.69c-.28-.29-.48-.64-.61-1.04-.13-.4-.2-.83-.2-1.3Zm4.2-.68c0-.15-.03-.3-.08-.44-.04-.14-.11-.27-.2-.38-.09-.11-.21-.2-.35-.28-.14-.07-.31-.11-.52-.11s-.37.03-.52.1c-.14.07-.26.16-.36.27-.1.11-.17.24-.22.39-.05.15-.09.3-.11.45h2.36Z" style="fill: #a3ea2a; stroke-width: 0px;"/>
    <path d="m242.13,165.6c-.16.05-.34.09-.55.14-.21.04-.43.08-.65.11s-.46.06-.7.08c-.24.02-.46.03-.68.03-.52,0-.98-.08-1.39-.23-.41-.15-.75-.37-1.03-.65-.28-.28-.49-.63-.64-1.03-.15-.4-.22-.86-.22-1.36s.06-.97.19-1.39.31-.76.55-1.05c.24-.29.53-.51.88-.66s.75-.23,1.19-.23c.25,0,.47.02.67.07.2.05.39.12.59.2v-2.86l1.79-.29v9.11Zm-4.04-3c0,.55.12,1,.37,1.33s.62.5,1.1.5c.16,0,.31,0,.44-.02.14-.01.25-.03.34-.04v-3.25c-.11-.07-.26-.13-.44-.18-.18-.05-.36-.07-.55-.07-.85,0-1.27.58-1.27,1.73Z" style="fill: #a3ea2a; stroke-width: 0px;"/>
    <path d="m250.49,161.08c-.16-.04-.35-.08-.56-.13-.22-.04-.45-.07-.7-.07-.11,0-.25,0-.4.03-.16.02-.27.04-.35.07v4.82h-1.79v-5.98c.32-.11.7-.22,1.13-.32s.92-.15,1.46-.15c.1,0,.21,0,.35.02.14.01.27.03.41.05.14.02.27.04.41.07.14.03.25.06.35.1l-.3,1.48Z" style="fill: #a3ea2a; stroke-width: 0px;"/>
    <path d="m251.33,162.7c0-.56.09-1.05.26-1.47s.4-.77.68-1.05c.28-.28.6-.49.97-.64.36-.14.74-.22,1.12-.22.9,0,1.6.27,2.12.82s.78,1.35.78,2.42c0,.1,0,.22-.01.34,0,.12-.02.23-.02.33h-4.06c.04.37.21.66.52.88.3.22.71.32,1.22.32.33,0,.65-.03.97-.09s.57-.13.77-.22l.24,1.45c-.1.05-.22.1-.38.14s-.34.09-.53.13c-.2.04-.41.07-.63.09-.22.02-.45.04-.67.04-.57,0-1.06-.08-1.48-.25s-.77-.4-1.04-.69c-.28-.29-.48-.64-.61-1.04-.13-.4-.2-.83-.2-1.3Zm4.2-.68c0-.15-.03-.3-.08-.44-.04-.14-.11-.27-.2-.38-.09-.11-.21-.2-.35-.28-.14-.07-.31-.11-.52-.11s-.37.03-.52.1c-.14.07-.26.16-.36.27-.1.11-.17.24-.22.39-.05.15-.09.3-.11.45h2.36Z" style="fill: #a3ea2a; stroke-width: 0px;"/>
    <path d="m258.34,162.65c0-.49.07-.93.22-1.34.15-.4.36-.75.64-1.04.28-.29.62-.52,1.03-.68s.87-.24,1.39-.24c.22,0,.44,0,.68.03.24.02.47.05.7.08.23.03.45.07.65.11.21.04.39.09.55.14v8.32h-1.79v-2.38c-.2.09-.41.16-.62.2-.22.05-.45.07-.7.07-.9,0-1.58-.29-2.05-.88-.47-.59-.71-1.39-.71-2.39Zm1.82.05c0,1.14.42,1.72,1.27,1.72.18,0,.37-.02.55-.07.18-.05.33-.11.44-.18v-3.23c-.09-.02-.2-.03-.34-.04-.14-.01-.28-.02-.44-.02-.49,0-.86.17-1.1.5s-.37.77-.37,1.33Z" style="fill: #a3ea2a; stroke-width: 0px;"/>
    <path d="m271.27,165.59c-.3.09-.7.17-1.18.25-.48.08-.98.11-1.51.11s-.98-.07-1.34-.22c-.36-.14-.64-.35-.85-.61s-.36-.57-.44-.93c-.09-.36-.13-.76-.13-1.19v-3.52h1.79v3.3c0,.58.08.99.23,1.25s.44.38.85.38c.13,0,.26,0,.41-.02.14-.01.27-.03.38-.04v-4.87h1.79v6.1Z" style="fill: #a3ea2a; stroke-width: 0px;"/>
    <path d="m272.65,162.7c0-.56.09-1.05.26-1.47s.4-.77.68-1.05c.28-.28.6-.49.97-.64.36-.14.74-.22,1.12-.22.9,0,1.6.27,2.12.82s.78,1.35.78,2.42c0,.1,0,.22-.01.34,0,.12-.02.23-.02.33h-4.06c.04.37.21.66.52.88.3.22.71.32,1.22.32.33,0,.65-.03.97-.09s.57-.13.77-.22l.24,1.45c-.1.05-.22.1-.38.14s-.34.09-.53.13c-.2.04-.41.07-.63.09-.22.02-.45.04-.67.04-.57,0-1.06-.08-1.48-.25s-.77-.4-1.04-.69c-.28-.29-.48-.64-.61-1.04-.13-.4-.2-.83-.2-1.3Zm4.2-.68c0-.15-.03-.3-.08-.44-.04-.14-.11-.27-.2-.38-.09-.11-.21-.2-.35-.28-.14-.07-.31-.11-.52-.11s-.37.03-.52.1c-.14.07-.26.16-.36.27-.1.11-.17.24-.22.39-.05.15-.09.3-.11.45h2.36Z" style="fill: #a3ea2a; stroke-width: 0px;"/>
    <path d="m281.77,164.52c.33,0,.56-.03.7-.1.14-.06.2-.19.2-.37,0-.14-.09-.27-.26-.38-.18-.11-.44-.23-.8-.37-.28-.1-.53-.21-.76-.32-.23-.11-.42-.25-.58-.4-.16-.16-.28-.34-.37-.56-.09-.22-.13-.48-.13-.78,0-.59.22-1.06.66-1.4s1.04-.52,1.81-.52c.38,0,.75.03,1.1.1s.63.14.84.22l-.31,1.39c-.21-.07-.43-.14-.68-.19s-.52-.08-.82-.08c-.56,0-.84.16-.84.47,0,.07.01.14.04.19s.07.11.14.16c.07.05.17.11.29.17s.28.13.47.2c.39.15.72.29.97.43.26.14.46.29.61.46.15.16.25.34.31.54.06.2.09.43.09.69,0,.62-.23,1.09-.7,1.41-.47.32-1.13.48-1.99.48-.56,0-1.03-.05-1.4-.14-.37-.1-.63-.18-.77-.24l.3-1.45c.3.12.62.21.94.28.32.07.64.1.95.1Z" style="fill: #a3ea2a; stroke-width: 0px;"/>
    <path d="m285.72,157.92l1.79-.29v1.86h2.15v1.49h-2.15v2.22c0,.38.07.68.2.9.13.22.4.34.8.34.19,0,.39-.02.59-.05.2-.04.39-.09.56-.15l.25,1.39c-.22.09-.46.16-.72.23-.26.06-.59.1-.97.1-.49,0-.89-.07-1.21-.2s-.58-.32-.77-.55c-.19-.24-.33-.52-.4-.86-.08-.34-.11-.71-.11-1.12v-5.3Z" style="fill: #a3ea2a; stroke-width: 0px;"/>
    <path d="m297.84,162.18c-.16.61-.33,1.21-.51,1.81-.18.6-.37,1.2-.57,1.81h-1.39c-.14-.34-.3-.74-.47-1.2s-.34-.97-.52-1.52c-.18-.55-.37-1.13-.55-1.74s-.37-1.23-.55-1.85h1.88c.06.29.13.6.21.94.08.34.16.69.24,1.05.08.36.17.72.27,1.09.09.36.19.71.28,1.05.1-.35.21-.71.31-1.08s.2-.73.29-1.09c.09-.36.18-.7.26-1.03.08-.33.16-.64.22-.93h1.3c.06.29.14.6.22.93.08.33.16.68.25,1.03.09.36.18.72.28,1.09s.2.73.3,1.08c.1-.34.19-.69.29-1.05.1-.36.19-.73.27-1.09.08-.36.17-.71.24-1.05.08-.34.15-.65.21-.94h1.86c-.18.62-.36,1.24-.55,1.85-.19.61-.37,1.19-.55,1.74s-.36,1.05-.53,1.52c-.17.46-.33.86-.48,1.2h-1.39c-.2-.61-.4-1.21-.59-1.81-.19-.6-.37-1.2-.53-1.81Z" style="fill: #a3ea2a; stroke-width: 0px;"/>
    <path d="m305.35,157.67c0,.33-.11.59-.32.77-.21.19-.46.28-.75.28s-.54-.09-.75-.28c-.21-.19-.32-.45-.32-.77s.11-.59.32-.77c.21-.19.46-.28.75-.28s.54.09.75.28c.21.19.32.45.32.77Zm-.17,8.14h-1.79v-6.31h1.79v6.31Z" style="fill: #a3ea2a; stroke-width: 0px;"/>
    <path d="m306.8,157.92l1.79-.29v1.86h2.15v1.49h-2.15v2.22c0,.38.07.68.2.9.13.22.4.34.8.34.19,0,.39-.02.59-.05.2-.04.39-.09.56-.15l.25,1.39c-.22.09-.46.16-.72.23-.26.06-.59.1-.97.1-.49,0-.89-.07-1.21-.2s-.58-.32-.77-.55c-.19-.24-.33-.52-.4-.86-.08-.34-.11-.71-.11-1.12v-5.3Z" style="fill: #a3ea2a; stroke-width: 0px;"/>
    <path d="m312.19,165.8v-9.02l1.79-.29v3.02c.12-.04.27-.08.46-.11s.37-.05.55-.05c.51,0,.94.07,1.28.21.34.14.61.34.82.59.2.26.35.56.43.91.08.35.13.74.13,1.18v3.56h-1.79v-3.35c0-.58-.07-.98-.22-1.22-.15-.24-.42-.36-.82-.36-.16,0-.31.01-.45.04-.14.03-.27.06-.38.09v4.8h-1.79Z" style="fill: #a3ea2a; stroke-width: 0px;"/>
    <path d="m328.01,162.65c0,.5-.07.96-.22,1.37s-.36.76-.64,1.04c-.28.29-.62.51-1.03.67s-.87.23-1.39.23c-.22,0-.44-.01-.68-.03-.24-.02-.47-.05-.7-.08s-.45-.07-.65-.11c-.21-.04-.39-.09-.55-.14v-8.82l1.79-.29v3.14c.2-.09.41-.16.62-.2s.45-.07.7-.07c.45,0,.84.08,1.19.23.34.16.63.38.86.67s.41.63.53,1.04c.12.4.18.85.18,1.35Zm-1.82-.05c0-1.15-.42-1.73-1.27-1.73-.18,0-.37.02-.55.07-.18.05-.33.11-.44.18v3.25c.09.02.2.03.34.04.14.01.28.02.44.02.49,0,.86-.17,1.1-.5.25-.34.37-.78.37-1.33Z" style="fill: #a3ea2a; stroke-width: 0px;"/>
    <path d="m335.29,162.64c0,.5-.07.95-.22,1.36s-.35.76-.62,1.06-.6.52-.98.68-.81.24-1.28.24-.89-.08-1.27-.24-.71-.39-.98-.68-.48-.64-.64-1.06c-.15-.41-.23-.87-.23-1.36s.08-.95.23-1.36c.16-.41.37-.76.65-1.04.28-.29.6-.51.98-.67s.79-.24,1.24-.24.87.08,1.25.24.71.38.98.67.48.64.64,1.04c.15.41.23.86.23,1.36Zm-1.82,0c0-.55-.11-.99-.33-1.3-.22-.32-.53-.47-.94-.47s-.72.16-.95.47c-.22.32-.34.75-.34,1.3s.11.99.34,1.31c.22.32.54.49.95.49s.72-.16.94-.49c.22-.32.33-.76.33-1.31Z" style="fill: #a3ea2a; stroke-width: 0px;"/>
    <path d="m336.61,157.92l1.79-.29v1.86h2.15v1.49h-2.15v2.22c0,.38.07.68.2.9.13.22.4.34.8.34.19,0,.39-.02.59-.05.2-.04.39-.09.56-.15l.25,1.39c-.22.09-.46.16-.72.23-.26.06-.59.1-.97.1-.49,0-.89-.07-1.21-.2s-.58-.32-.77-.55c-.19-.24-.33-.52-.4-.86-.08-.34-.11-.71-.11-1.12v-5.3Z" style="fill: #a3ea2a; stroke-width: 0px;"/>
    <path d="m342,165.8v-9.02l1.79-.29v3.02c.12-.04.27-.08.46-.11s.37-.05.55-.05c.51,0,.94.07,1.28.21.34.14.61.34.82.59.2.26.35.56.43.91.08.35.13.74.13,1.18v3.56h-1.79v-3.35c0-.58-.07-.98-.22-1.22-.15-.24-.42-.36-.82-.36-.16,0-.31.01-.45.04-.14.03-.27.06-.38.09v4.8h-1.79Z" style="fill: #a3ea2a; stroke-width: 0px;"/>
    <path d="m195.75,180.2v-9.02l1.79-.29v3.02c.12-.04.27-.08.46-.11s.37-.05.55-.05c.51,0,.94.07,1.28.21.34.14.61.34.82.59.2.26.35.56.43.91.08.35.13.74.13,1.18v3.56h-1.79v-3.35c0-.58-.07-.98-.22-1.22-.15-.24-.42-.36-.82-.36-.16,0-.31.01-.45.04-.14.03-.27.06-.38.09v4.8h-1.79Z" style="fill: #a3ea2a; stroke-width: 0px;"/>
    <path d="m202.51,177.09c0-.56.09-1.05.26-1.47s.4-.77.68-1.05c.28-.28.6-.49.97-.64.36-.14.74-.22,1.12-.22.9,0,1.6.27,2.12.82s.78,1.35.78,2.42c0,.1,0,.22-.01.34,0,.12-.02.23-.02.33h-4.06c.04.37.21.66.52.88.3.22.71.32,1.22.32.33,0,.65-.03.97-.09s.57-.13.77-.22l.24,1.45c-.1.05-.22.1-.38.14s-.34.09-.53.13c-.2.04-.41.07-.63.09-.22.02-.45.04-.67.04-.57,0-1.06-.08-1.48-.25s-.77-.4-1.04-.69c-.28-.29-.48-.64-.61-1.04-.13-.4-.2-.83-.2-1.3Zm4.2-.68c0-.15-.03-.3-.08-.44-.04-.14-.11-.27-.2-.38-.09-.11-.21-.2-.35-.28-.14-.07-.31-.11-.52-.11s-.37.03-.52.1c-.14.07-.26.16-.36.27-.1.11-.17.24-.22.39-.05.15-.09.3-.11.45h2.36Z" style="fill: #a3ea2a; stroke-width: 0px;"/>
    <path d="m212.09,173.72c.53,0,.97.06,1.32.18.35.12.63.29.85.52.21.22.36.5.45.82.09.32.13.68.13,1.07v3.72c-.26.06-.61.12-1.07.2-.46.08-1.01.11-1.66.11-.41,0-.78-.04-1.11-.11-.33-.07-.62-.19-.86-.35-.24-.16-.42-.38-.55-.64-.13-.26-.19-.59-.19-.97s.07-.68.22-.94c.15-.26.35-.46.59-.61.25-.15.53-.26.85-.33.32-.07.65-.1,1-.1.23,0,.44,0,.62.03.18.02.33.05.44.08v-.17c0-.3-.09-.55-.28-.73-.18-.18-.5-.28-.96-.28-.3,0-.6.02-.9.07s-.55.11-.77.19l-.23-1.44c.1-.03.23-.07.39-.1.16-.04.33-.07.51-.1.18-.03.38-.05.58-.07.2-.02.41-.03.62-.03Zm.14,5.23c.18,0,.34,0,.5-.01s.29-.02.38-.04v-1.36c-.07-.02-.18-.03-.32-.05-.14-.02-.28-.02-.4-.02-.17,0-.33,0-.47.03-.15.02-.28.06-.39.11-.11.06-.2.13-.26.23-.06.1-.1.22-.1.36,0,.28.09.47.28.58.19.11.45.16.77.16Z" style="fill: #a3ea2a; stroke-width: 0px;"/>
    <path d="m222.03,180c-.16.05-.34.09-.55.14-.21.04-.43.08-.65.11s-.46.06-.7.08c-.24.02-.46.03-.68.03-.52,0-.98-.08-1.39-.23-.41-.15-.75-.37-1.03-.65-.28-.28-.49-.63-.64-1.03-.15-.4-.22-.86-.22-1.36s.06-.97.19-1.39.31-.76.55-1.05c.24-.29.53-.51.88-.66s.75-.23,1.19-.23c.25,0,.47.02.67.07.2.05.39.12.59.2v-2.86l1.79-.29v9.11Zm-4.04-3c0,.55.12,1,.37,1.33s.62.5,1.1.5c.16,0,.31,0,.44-.02.14-.01.25-.03.34-.04v-3.25c-.11-.07-.26-.13-.44-.18-.18-.05-.36-.07-.55-.07-.85,0-1.27.58-1.27,1.73Z" style="fill: #a3ea2a; stroke-width: 0px;"/>
    <path d="m223.41,177.09c0-.56.09-1.05.26-1.47s.4-.77.68-1.05c.28-.28.6-.49.97-.64.36-.14.74-.22,1.12-.22.9,0,1.6.27,2.12.82s.78,1.35.78,2.42c0,.1,0,.22-.01.34,0,.12-.02.23-.02.33h-4.06c.04.37.21.66.52.88.3.22.71.32,1.22.32.33,0,.65-.03.97-.09s.57-.13.77-.22l.24,1.45c-.1.05-.22.1-.38.14s-.34.09-.53.13c-.2.04-.41.07-.63.09-.22.02-.45.04-.67.04-.57,0-1.06-.08-1.48-.25s-.77-.4-1.04-.69c-.28-.29-.48-.64-.61-1.04-.13-.4-.2-.83-.2-1.3Zm4.2-.68c0-.15-.03-.3-.08-.44-.04-.14-.11-.27-.2-.38-.09-.11-.21-.2-.35-.28-.14-.07-.31-.11-.52-.11s-.37.03-.52.1c-.14.07-.26.16-.36.27-.1.11-.17.24-.22.39-.05.15-.09.3-.11.45h2.36Z" style="fill: #a3ea2a; stroke-width: 0px;"/>
    <path d="m234.52,175.48c-.16-.04-.35-.08-.56-.13-.22-.04-.45-.07-.7-.07-.11,0-.25,0-.4.03-.16.02-.27.04-.35.07v4.82h-1.79v-5.98c.32-.11.7-.22,1.13-.32s.92-.15,1.46-.15c.1,0,.21,0,.35.02.14.01.27.03.41.05.14.02.27.04.41.07.14.03.25.06.35.1l-.3,1.48Z" style="fill: #a3ea2a; stroke-width: 0px;"/>
    <path d="m237.59,178.92c.33,0,.56-.03.7-.1.14-.06.2-.19.2-.37,0-.14-.09-.27-.26-.38-.18-.11-.44-.23-.8-.37-.28-.1-.53-.21-.76-.32-.23-.11-.42-.25-.58-.4-.16-.16-.28-.34-.37-.56-.09-.22-.13-.48-.13-.78,0-.59.22-1.06.66-1.4s1.04-.52,1.81-.52c.38,0,.75.03,1.1.1s.63.14.84.22l-.31,1.39c-.21-.07-.43-.14-.68-.19s-.52-.08-.82-.08c-.56,0-.84.16-.84.47,0,.07.01.14.04.19s.07.11.14.16c.07.05.17.11.29.17s.28.13.47.2c.39.15.72.29.97.43.26.14.46.29.61.46.15.16.25.34.31.54.06.2.09.43.09.69,0,.62-.23,1.09-.7,1.41-.47.32-1.13.48-1.99.48-.56,0-1.03-.05-1.4-.14-.37-.1-.63-.18-.77-.24l.3-1.45c.3.12.62.21.94.28.32.07.64.1.95.1Z" style="fill: #a3ea2a; stroke-width: 0px;"/>
    <path d="m246.43,172.07c0,.33-.11.59-.32.77-.21.19-.46.28-.75.28s-.54-.09-.75-.28c-.21-.19-.32-.45-.32-.77s.11-.59.32-.77c.21-.19.46-.28.75-.28s.54.09.75.28c.21.19.32.45.32.77Zm-.17,8.14h-1.79v-6.31h1.79v6.31Z" style="fill: #a3ea2a; stroke-width: 0px;"/>
    <path d="m247.95,174.11c.3-.09.7-.17,1.18-.25s.98-.11,1.51-.11.98.07,1.34.21c.36.14.64.34.85.59.21.26.36.56.44.91.09.35.13.74.13,1.18v3.56h-1.79v-3.35c0-.58-.08-.98-.23-1.22-.15-.24-.44-.36-.85-.36-.13,0-.26,0-.41.02-.14.01-.27.03-.38.04v4.87h-1.79v-6.1Z" style="fill: #a3ea2a; stroke-width: 0px;"/>
    <path d="m261.81,180.37c-1.35,0-2.38-.38-3.09-1.13s-1.06-1.82-1.06-3.2c0-.69.11-1.3.32-1.84.22-.54.51-1,.89-1.37s.82-.65,1.34-.85c.52-.19,1.08-.29,1.69-.29.35,0,.67.03.96.08.29.05.54.11.76.18s.4.14.54.21.25.13.31.17l-.54,1.51c-.26-.14-.55-.25-.89-.35s-.73-.14-1.16-.14c-.29,0-.57.05-.85.14s-.52.25-.73.46-.38.49-.51.82-.19.74-.19,1.22c0,.38.04.74.13,1.07s.22.62.41.86c.19.24.43.43.74.57.3.14.67.21,1.1.21.27,0,.52-.02.73-.05.22-.03.41-.07.58-.11.17-.04.32-.09.44-.15s.24-.11.35-.16l.52,1.5c-.26.16-.64.3-1.12.43s-1.04.19-1.67.19Z" style="fill: #a3ea2a; stroke-width: 0px;"/>
    <path d="m271.35,178.59v1.61h-5.56v-8.32h1.87v6.71h3.68Z" style="fill: #a3ea2a; stroke-width: 0px;"/>
    <path d="m274.66,179.25c0,.36-.11.63-.34.82s-.49.28-.77.28-.55-.09-.77-.28-.34-.46-.34-.82.11-.63.34-.82c.23-.19.49-.28.77-.28s.55.09.77.28c.23.19.34.46.34.82Z" style="fill: #a3ea2a; stroke-width: 0px;"/>
    <path d="m281.17,171.89v1.6h-2.51v6.72h-1.87v-6.72h-2.51v-1.6h6.89Z" style="fill: #a3ea2a; stroke-width: 0px;"/>
    <path d="m282.37,180.2v-8.32h5.62v1.57h-3.74v1.63h3.32v1.54h-3.32v2h4.02v1.57h-5.89Z" style="fill: #a3ea2a; stroke-width: 0px;"/>
    <path d="m298.31,177.04c0,.5-.07.95-.22,1.36s-.35.76-.62,1.06-.6.52-.98.68-.81.24-1.28.24-.89-.08-1.27-.24-.71-.39-.98-.68-.48-.64-.64-1.06c-.15-.41-.23-.87-.23-1.36s.08-.95.23-1.36c.16-.41.37-.76.65-1.04.28-.29.6-.51.98-.67s.79-.24,1.24-.24.87.08,1.25.24.71.38.98.67.48.64.64,1.04c.15.41.23.86.23,1.36Zm-1.82,0c0-.55-.11-.99-.33-1.3-.22-.32-.53-.47-.94-.47s-.72.16-.95.47c-.22.32-.34.75-.34,1.3s.11.99.34,1.31c.22.32.54.49.95.49s.72-.16.94-.49c.22-.32.33-.76.33-1.31Z" style="fill: #a3ea2a; stroke-width: 0px;"/>
    <path d="m303.49,175.48c-.16-.04-.35-.08-.56-.13-.22-.04-.45-.07-.7-.07-.11,0-.25,0-.4.03-.16.02-.27.04-.35.07v4.82h-1.79v-5.98c.32-.11.7-.22,1.13-.32s.92-.15,1.46-.15c.1,0,.21,0,.35.02.14.01.27.03.41.05.14.02.27.04.41.07.14.03.25.06.35.1l-.3,1.48Z" style="fill: #a3ea2a; stroke-width: 0px;"/>
    <path d="m310.2,180c-.16.05-.34.09-.55.14-.21.04-.43.08-.65.11s-.46.06-.7.08c-.24.02-.46.03-.68.03-.52,0-.98-.08-1.39-.23-.41-.15-.75-.37-1.03-.65-.28-.28-.49-.63-.64-1.03-.15-.4-.22-.86-.22-1.36s.06-.97.19-1.39.31-.76.55-1.05c.24-.29.53-.51.88-.66s.75-.23,1.19-.23c.25,0,.47.02.67.07.2.05.39.12.59.2v-2.86l1.79-.29v9.11Zm-4.04-3c0,.55.12,1,.37,1.33s.62.5,1.1.5c.16,0,.31,0,.44-.02.14-.01.25-.03.34-.04v-3.25c-.11-.07-.26-.13-.44-.18-.18-.05-.36-.07-.55-.07-.85,0-1.27.58-1.27,1.73Z" style="fill: #a3ea2a; stroke-width: 0px;"/>
    <path d="m311.58,177.09c0-.56.09-1.05.26-1.47s.4-.77.68-1.05c.28-.28.6-.49.97-.64.36-.14.74-.22,1.12-.22.9,0,1.6.27,2.12.82s.78,1.35.78,2.42c0,.1,0,.22-.01.34,0,.12-.02.23-.02.33h-4.06c.04.37.21.66.52.88.3.22.71.32,1.22.32.33,0,.65-.03.97-.09s.57-.13.77-.22l.24,1.45c-.1.05-.22.1-.38.14s-.34.09-.53.13c-.2.04-.41.07-.63.09-.22.02-.45.04-.67.04-.57,0-1.06-.08-1.48-.25s-.77-.4-1.04-.69c-.28-.29-.48-.64-.61-1.04-.13-.4-.2-.83-.2-1.3Zm4.2-.68c0-.15-.03-.3-.08-.44-.04-.14-.11-.27-.2-.38-.09-.11-.21-.2-.35-.28-.14-.07-.31-.11-.52-.11s-.37.03-.52.1c-.14.07-.26.16-.36.27-.1.11-.17.24-.22.39-.05.15-.09.3-.11.45h2.36Z" style="fill: #a3ea2a; stroke-width: 0px;"/>
    <path d="m322.69,175.48c-.16-.04-.35-.08-.56-.13-.22-.04-.45-.07-.7-.07-.11,0-.25,0-.4.03-.16.02-.27.04-.35.07v4.82h-1.79v-5.98c.32-.11.7-.22,1.13-.32s.92-.15,1.46-.15c.1,0,.21,0,.35.02.14.01.27.03.41.05.14.02.27.04.41.07.14.03.25.06.35.1l-.3,1.48Z" style="fill: #a3ea2a; stroke-width: 0px;"/>
  </g>
  <rect x="198.55" y="279.15" width="214.68" height="27.65" rx="7.48" ry="7.48" style="fill: #223654; stroke-width: 0px;"/>
  <g>
    <path d="m242.16,296.21c.26,0,.48-.02.65-.07s.31-.1.41-.18.18-.17.22-.27c.04-.1.06-.22.06-.35,0-.27-.13-.5-.38-.68-.26-.18-.7-.37-1.32-.58-.27-.1-.54-.21-.82-.33s-.52-.28-.73-.47c-.22-.19-.39-.42-.53-.68-.14-.27-.2-.59-.2-.98s.07-.73.22-1.04.35-.57.61-.79.58-.38.96-.5.8-.17,1.27-.17c.56,0,1.04.06,1.45.18.41.12.74.25,1.01.4l-.54,1.48c-.23-.12-.49-.23-.77-.32-.28-.09-.63-.14-1.03-.14-.45,0-.77.06-.97.19-.2.12-.29.31-.29.57,0,.15.04.28.11.38.07.1.17.2.31.28.13.08.28.16.46.23.17.07.36.14.57.21.43.16.81.32,1.13.47.32.16.59.34.8.55s.37.45.47.73c.1.28.16.62.16,1.02,0,.78-.27,1.38-.82,1.81-.54.43-1.36.64-2.46.64-.37,0-.7-.02-1-.07s-.56-.1-.79-.16c-.23-.06-.42-.13-.59-.2-.16-.07-.3-.14-.41-.2l.53-1.49c.25.14.55.26.92.37.36.11.81.16,1.34.16Z" style="fill: #a3ea2a; stroke-width: 0px;"/>
    <path d="m246.46,294.53c0-.56.09-1.05.26-1.47s.4-.77.68-1.05c.28-.28.6-.49.97-.64.36-.14.74-.22,1.12-.22.9,0,1.6.27,2.12.82s.78,1.35.78,2.42c0,.1,0,.22-.01.34,0,.12-.02.23-.02.33h-4.06c.04.37.21.66.52.88.3.22.71.32,1.22.32.33,0,.65-.03.97-.09s.57-.13.77-.22l.24,1.45c-.1.05-.22.1-.38.14s-.34.09-.53.13c-.2.04-.41.07-.63.09-.22.02-.45.04-.67.04-.57,0-1.06-.08-1.48-.25s-.77-.4-1.04-.69c-.28-.29-.48-.64-.61-1.04-.13-.4-.2-.83-.2-1.3Zm4.2-.68c0-.15-.03-.3-.08-.44-.04-.14-.11-.27-.2-.38-.09-.11-.21-.2-.35-.28-.14-.07-.31-.11-.52-.11s-.37.03-.52.1c-.14.07-.26.16-.36.27-.1.11-.17.24-.22.39-.05.15-.09.3-.11.45h2.36Z" style="fill: #a3ea2a; stroke-width: 0px;"/>
    <path d="m253.76,291.54c.3-.09.7-.17,1.18-.25s.98-.11,1.51-.11.98.07,1.34.21c.36.14.64.34.85.59.21.26.36.56.44.91.09.35.13.74.13,1.18v3.56h-1.79v-3.35c0-.58-.08-.98-.23-1.22-.15-.24-.44-.36-.85-.36-.13,0-.26,0-.41.02-.14.01-.27.03-.38.04v4.87h-1.79v-6.1Z" style="fill: #a3ea2a; stroke-width: 0px;"/>
    <path d="m266.4,297.43c-.16.05-.34.09-.55.14-.21.04-.43.08-.65.11s-.46.06-.7.08c-.24.02-.46.03-.68.03-.52,0-.98-.08-1.39-.23-.41-.15-.75-.37-1.03-.65-.28-.28-.49-.63-.64-1.03-.15-.4-.22-.86-.22-1.36s.06-.97.19-1.39.31-.76.55-1.05c.24-.29.53-.51.88-.66s.75-.23,1.19-.23c.25,0,.47.02.67.07.2.05.39.12.59.2v-2.86l1.79-.29v9.11Zm-4.04-3c0,.55.12,1,.37,1.33s.62.5,1.1.5c.16,0,.31,0,.44-.02.14-.01.25-.03.34-.04v-3.25c-.11-.07-.26-.13-.44-.18-.18-.05-.36-.07-.55-.07-.85,0-1.27.58-1.27,1.73Z" style="fill: #a3ea2a; stroke-width: 0px;"/>
    <path d="m269.89,296.35c.33,0,.56-.03.7-.1.14-.06.2-.19.2-.37,0-.14-.09-.27-.26-.38-.18-.11-.44-.23-.8-.37-.28-.1-.53-.21-.76-.32-.23-.11-.42-.25-.58-.4-.16-.16-.28-.34-.37-.56-.09-.22-.13-.48-.13-.78,0-.59.22-1.06.66-1.4s1.04-.52,1.81-.52c.38,0,.75.03,1.1.1s.63.14.84.22l-.31,1.39c-.21-.07-.43-.14-.68-.19s-.52-.08-.82-.08c-.56,0-.84.16-.84.47,0,.07.01.14.04.19s.07.11.14.16c.07.05.17.11.29.17s.28.13.47.2c.39.15.72.29.97.43.26.14.46.29.61.46.15.16.25.34.31.54.06.2.09.43.09.69,0,.62-.23,1.09-.7,1.41-.47.32-1.13.48-1.99.48-.56,0-1.03-.05-1.4-.14-.37-.1-.63-.18-.77-.24l.3-1.45c.3.12.62.21.94.28.32.07.64.1.95.1Z" style="fill: #a3ea2a; stroke-width: 0px;"/>
    <path d="m280.58,292.91c-.16-.04-.35-.08-.56-.13-.22-.04-.45-.07-.7-.07-.11,0-.25,0-.4.03-.16.02-.27.04-.35.07v4.82h-1.79v-5.98c.32-.11.7-.22,1.13-.32s.92-.15,1.46-.15c.1,0,.21,0,.35.02.14.01.27.03.41.05.14.02.27.04.41.07.14.03.25.06.35.1l-.3,1.48Z" style="fill: #a3ea2a; stroke-width: 0px;"/>
    <path d="m281.42,294.53c0-.56.09-1.05.26-1.47s.4-.77.68-1.05c.28-.28.6-.49.97-.64.36-.14.74-.22,1.12-.22.9,0,1.6.27,2.12.82s.78,1.35.78,2.42c0,.1,0,.22-.01.34,0,.12-.02.23-.02.33h-4.06c.04.37.21.66.52.88.3.22.71.32,1.22.32.33,0,.65-.03.97-.09s.57-.13.77-.22l.24,1.45c-.1.05-.22.1-.38.14s-.34.09-.53.13c-.2.04-.41.07-.63.09-.22.02-.45.04-.67.04-.57,0-1.06-.08-1.48-.25s-.77-.4-1.04-.69c-.28-.29-.48-.64-.61-1.04-.13-.4-.2-.83-.2-1.3Zm4.2-.68c0-.15-.03-.3-.08-.44-.04-.14-.11-.27-.2-.38-.09-.11-.21-.2-.35-.28-.14-.07-.31-.11-.52-.11s-.37.03-.52.1c-.14.07-.26.16-.36.27-.1.11-.17.24-.22.39-.05.15-.09.3-.11.45h2.36Z" style="fill: #a3ea2a; stroke-width: 0px;"/>
    <path d="m294.18,296.84c0,1.03-.26,1.8-.79,2.3s-1.33.75-2.43.75c-.38,0-.77-.03-1.15-.1-.38-.07-.74-.16-1.07-.27l.31-1.5c.28.11.57.2.88.26.31.06.66.1,1.05.1.51,0,.87-.11,1.09-.34.21-.22.32-.51.32-.86v-.23c-.19.09-.39.15-.59.2-.2.04-.43.07-.67.07-.87,0-1.54-.26-2-.77-.46-.52-.7-1.24-.7-2.17,0-.46.07-.89.22-1.27s.35-.71.63-.98c.28-.27.61-.48,1.01-.63.4-.15.85-.22,1.36-.22.22,0,.44,0,.67.03.23.02.45.05.68.08.22.03.44.07.64.11.2.04.39.09.55.14v5.3Zm-3.92-2.57c0,1,.4,1.5,1.21,1.5.18,0,.36-.02.52-.07.16-.05.3-.1.41-.17v-2.86c-.09-.02-.19-.03-.31-.04s-.26-.02-.42-.02c-.47,0-.82.16-1.06.47-.23.31-.35.71-.35,1.19Z" style="fill: #a3ea2a; stroke-width: 0px;"/>
    <path d="m301.25,297.42c-.3.09-.7.17-1.18.25-.48.08-.98.11-1.51.11s-.98-.07-1.34-.22c-.36-.14-.64-.35-.85-.61s-.36-.57-.44-.93c-.09-.36-.13-.76-.13-1.19v-3.52h1.79v3.3c0,.58.08.99.23,1.25s.44.38.85.38c.13,0,.26,0,.41-.02.14-.01.27-.03.38-.04v-4.87h1.79v6.1Z" style="fill: #a3ea2a; stroke-width: 0px;"/>
    <path d="m305.45,297.75c-.52,0-.94-.06-1.27-.17-.32-.1-.58-.25-.77-.44-.19-.19-.32-.42-.38-.68s-.1-.57-.1-.91v-6.95l1.79-.29v6.88c0,.16.01.3.04.43s.07.24.14.32c.07.09.17.16.29.22.13.06.3.09.52.11l-.25,1.48Z" style="fill: #a3ea2a; stroke-width: 0px;"/>
    <path d="m309.17,291.15c.53,0,.97.06,1.32.18.35.12.63.29.85.52.21.22.36.5.45.82.09.32.13.68.13,1.07v3.72c-.26.06-.61.12-1.07.2-.46.08-1.01.11-1.66.11-.41,0-.78-.04-1.11-.11-.33-.07-.62-.19-.86-.35-.24-.16-.42-.38-.55-.64-.13-.26-.19-.59-.19-.97s.07-.68.22-.94c.15-.26.35-.46.59-.61.25-.15.53-.26.85-.33.32-.07.65-.1,1-.1.23,0,.44,0,.62.03.18.02.33.05.44.08v-.17c0-.3-.09-.55-.28-.73-.18-.18-.5-.28-.96-.28-.3,0-.6.02-.9.07s-.55.11-.77.19l-.23-1.44c.1-.03.23-.07.39-.1.16-.04.33-.07.51-.1.18-.03.38-.05.58-.07.2-.02.41-.03.62-.03Zm.14,5.23c.18,0,.34,0,.5-.01s.29-.02.38-.04v-1.36c-.07-.02-.18-.03-.32-.05-.14-.02-.28-.02-.4-.02-.17,0-.33,0-.47.03-.15.02-.28.06-.39.11-.11.06-.2.13-.26.23-.06.1-.1.22-.1.36,0,.28.09.47.28.58.19.11.45.16.77.16Z" style="fill: #a3ea2a; stroke-width: 0px;"/>
    <path d="m317.34,292.91c-.16-.04-.35-.08-.56-.13-.22-.04-.45-.07-.7-.07-.11,0-.25,0-.4.03-.16.02-.27.04-.35.07v4.82h-1.79v-5.98c.32-.11.7-.22,1.13-.32s.92-.15,1.46-.15c.1,0,.21,0,.35.02.14.01.27.03.41.05.14.02.27.04.41.07.14.03.25.06.35.1l-.3,1.48Z" style="fill: #a3ea2a; stroke-width: 0px;"/>
    <path d="m325.28,292.91c-.16-.04-.35-.08-.56-.13-.22-.04-.45-.07-.7-.07-.11,0-.25,0-.4.03-.16.02-.27.04-.35.07v4.82h-1.79v-5.98c.32-.11.7-.22,1.13-.32s.92-.15,1.46-.15c.1,0,.21,0,.35.02.14.01.27.03.41.05.14.02.27.04.41.07.14.03.25.06.35.1l-.3,1.48Z" style="fill: #a3ea2a; stroke-width: 0px;"/>
    <path d="m326.12,294.53c0-.56.09-1.05.26-1.47s.4-.77.68-1.05c.28-.28.6-.49.97-.64.36-.14.74-.22,1.12-.22.9,0,1.6.27,2.12.82s.78,1.35.78,2.42c0,.1,0,.22-.01.34,0,.12-.02.23-.02.33h-4.06c.04.37.21.66.52.88.3.22.71.32,1.22.32.33,0,.65-.03.97-.09s.57-.13.77-.22l.24,1.45c-.1.05-.22.1-.38.14s-.34.09-.53.13c-.2.04-.41.07-.63.09-.22.02-.45.04-.67.04-.57,0-1.06-.08-1.48-.25s-.77-.4-1.04-.69c-.28-.29-.48-.64-.61-1.04-.13-.4-.2-.83-.2-1.3Zm4.2-.68c0-.15-.03-.3-.08-.44-.04-.14-.11-.27-.2-.38-.09-.11-.21-.2-.35-.28-.14-.07-.31-.11-.52-.11s-.37.03-.52.1c-.14.07-.26.16-.36.27-.1.11-.17.24-.22.39-.05.15-.09.3-.11.45h2.36Z" style="fill: #a3ea2a; stroke-width: 0px;"/>
    <path d="m335.24,296.35c.33,0,.56-.03.7-.1.14-.06.2-.19.2-.37,0-.14-.09-.27-.26-.38-.18-.11-.44-.23-.8-.37-.28-.1-.53-.21-.76-.32-.23-.11-.42-.25-.58-.4-.16-.16-.28-.34-.37-.56-.09-.22-.13-.48-.13-.78,0-.59.22-1.06.66-1.4s1.04-.52,1.81-.52c.38,0,.75.03,1.1.1s.63.14.84.22l-.31,1.39c-.21-.07-.43-.14-.68-.19s-.52-.08-.82-.08c-.56,0-.84.16-.84.47,0,.07.01.14.04.19s.07.11.14.16c.07.05.17.11.29.17s.28.13.47.2c.39.15.72.29.97.43.26.14.46.29.61.46.15.16.25.34.31.54.06.2.09.43.09.69,0,.62-.23,1.09-.7,1.41-.47.32-1.13.48-1.99.48-.56,0-1.03-.05-1.4-.14-.37-.1-.63-.18-.77-.24l.3-1.45c.3.12.62.21.94.28.32.07.64.1.95.1Z" style="fill: #a3ea2a; stroke-width: 0px;"/>
    <path d="m345.12,294.48c0,.49-.06.93-.18,1.33-.12.4-.3.74-.53,1.03s-.52.51-.86.67c-.34.16-.74.24-1.19.24-.25,0-.48-.02-.7-.07s-.42-.12-.62-.2v2.38h-1.79v-8.32c.16-.05.34-.09.55-.14.21-.04.43-.08.65-.11.23-.03.46-.06.7-.08.24-.02.46-.03.68-.03.52,0,.98.08,1.39.23.41.16.75.38,1.03.66.28.28.49.63.64,1.04.15.41.22.86.22,1.37Zm-1.82.05c0-.55-.12-.99-.37-1.33-.25-.33-.62-.5-1.1-.5-.16,0-.31,0-.44.02s-.25.03-.34.04v3.23c.11.07.26.13.44.18.18.05.36.07.55.07.85,0,1.27-.57,1.27-1.72Z" style="fill: #a3ea2a; stroke-width: 0px;"/>
    <path d="m352.4,294.47c0,.5-.07.95-.22,1.36s-.35.76-.62,1.06-.6.52-.98.68-.81.24-1.28.24-.89-.08-1.27-.24-.71-.39-.98-.68-.48-.64-.64-1.06c-.15-.41-.23-.87-.23-1.36s.08-.95.23-1.36c.16-.41.37-.76.65-1.04.28-.29.6-.51.98-.67s.79-.24,1.24-.24.87.08,1.25.24.71.38.98.67.48.64.64,1.04c.15.41.23.86.23,1.36Zm-1.82,0c0-.55-.11-.99-.33-1.3-.22-.32-.53-.47-.94-.47s-.72.16-.95.47c-.22.32-.34.75-.34,1.3s.11.99.34,1.31c.22.32.54.49.95.49s.72-.16.94-.49c.22-.32.33-.76.33-1.31Z" style="fill: #a3ea2a; stroke-width: 0px;"/>
    <path d="m353.78,291.54c.3-.09.7-.17,1.18-.25s.98-.11,1.51-.11.98.07,1.34.21c.36.14.64.34.85.59.21.26.36.56.44.91.09.35.13.74.13,1.18v3.56h-1.79v-3.35c0-.58-.08-.98-.23-1.22-.15-.24-.44-.36-.85-.36-.13,0-.26,0-.41.02-.14.01-.27.03-.38.04v4.87h-1.79v-6.1Z" style="fill: #a3ea2a; stroke-width: 0px;"/>
    <path d="m362.66,296.35c.33,0,.56-.03.7-.1.14-.06.2-.19.2-.37,0-.14-.09-.27-.26-.38-.18-.11-.44-.23-.8-.37-.28-.1-.53-.21-.76-.32-.23-.11-.42-.25-.58-.4-.16-.16-.28-.34-.37-.56-.09-.22-.13-.48-.13-.78,0-.59.22-1.06.66-1.4s1.04-.52,1.81-.52c.38,0,.75.03,1.1.1s.63.14.84.22l-.31,1.39c-.21-.07-.43-.14-.68-.19s-.52-.08-.82-.08c-.56,0-.84.16-.84.47,0,.07.01.14.04.19s.07.11.14.16c.07.05.17.11.29.17s.28.13.47.2c.39.15.72.29.97.43.26.14.46.29.61.46.15.16.25.34.31.54.06.2.09.43.09.69,0,.62-.23,1.09-.7,1.41-.47.32-1.13.48-1.99.48-.56,0-1.03-.05-1.4-.14-.37-.1-.63-.18-.77-.24l.3-1.45c.3.12.62.21.94.28.32.07.64.1.95.1Z" style="fill: #a3ea2a; stroke-width: 0px;"/>
    <path d="m366.37,294.53c0-.56.09-1.05.26-1.47s.4-.77.68-1.05c.28-.28.6-.49.97-.64.36-.14.74-.22,1.12-.22.9,0,1.6.27,2.12.82s.78,1.35.78,2.42c0,.1,0,.22-.01.34,0,.12-.02.23-.02.33h-4.06c.04.37.21.66.52.88.3.22.71.32,1.22.32.33,0,.65-.03.97-.09s.57-.13.77-.22l.24,1.45c-.1.05-.22.1-.38.14s-.34.09-.53.13c-.2.04-.41.07-.63.09-.22.02-.45.04-.67.04-.57,0-1.06-.08-1.48-.25s-.77-.4-1.04-.69c-.28-.29-.48-.64-.61-1.04-.13-.4-.2-.83-.2-1.3Zm4.2-.68c0-.15-.03-.3-.08-.44-.04-.14-.11-.27-.2-.38-.09-.11-.21-.2-.35-.28-.14-.07-.31-.11-.52-.11s-.37.03-.52.1c-.14.07-.26.16-.36.27-.1.11-.17.24-.22.39-.05.15-.09.3-.11.45h2.36Z" style="fill: #a3ea2a; stroke-width: 0px;"/>
  </g>
  <rect x="563.19" y="317.37" width="235.9" height="27.65" rx="7.48" ry="7.48" style="fill: #223654; stroke-width: 0px;"/>
  <g>
    <path d="m609.59,327.44c1.24,0,2.19.22,2.86.65.66.44,1,1.15,1,2.14s-.34,1.72-1.01,2.17c-.67.44-1.63.67-2.88.67h-.59v2.78h-1.87v-8.2c.41-.08.84-.14,1.3-.17.46-.03.86-.05,1.2-.05Zm.12,1.6c-.14,0-.27,0-.4.01-.13,0-.25.02-.34.02v2.4h.59c.65,0,1.14-.09,1.46-.26.33-.18.49-.5.49-.98,0-.23-.04-.42-.13-.58-.08-.15-.2-.27-.36-.37-.16-.09-.35-.16-.57-.19s-.47-.05-.74-.05Z" style="fill: #a3ea2a; stroke-width: 0px;"/>
    <path d="m618.5,331.12c-.16-.04-.35-.08-.56-.13-.22-.04-.45-.07-.7-.07-.11,0-.25,0-.4.03-.16.02-.27.04-.35.07v4.82h-1.79v-5.98c.32-.11.7-.22,1.13-.32s.92-.15,1.46-.15c.1,0,.21,0,.35.02.14.01.27.03.41.05.14.02.27.04.41.07.14.03.25.06.35.1l-.3,1.48Z" style="fill: #a3ea2a; stroke-width: 0px;"/>
    <path d="m625.55,332.68c0,.5-.07.95-.22,1.36s-.35.76-.62,1.06-.6.52-.98.68-.81.24-1.28.24-.89-.08-1.27-.24-.71-.39-.98-.68-.48-.64-.64-1.06c-.15-.41-.23-.87-.23-1.36s.08-.95.23-1.36c.16-.41.37-.76.65-1.04.28-.29.6-.51.98-.67s.79-.24,1.24-.24.87.08,1.25.24.71.38.98.67.48.64.64,1.04c.15.41.23.86.23,1.36Zm-1.82,0c0-.55-.11-.99-.33-1.3-.22-.32-.53-.47-.94-.47s-.72.16-.95.47c-.22.32-.34.75-.34,1.3s.11.99.34,1.31c.22.32.54.49.95.49s.72-.16.94-.49c.22-.32.33-.76.33-1.31Z" style="fill: #a3ea2a; stroke-width: 0px;"/>
    <path d="m626.63,332.69c0-.46.07-.89.22-1.29.15-.4.36-.76.64-1.06.28-.3.62-.54,1.02-.71s.86-.26,1.37-.26c.34,0,.64.03.92.09.28.06.55.15.82.26l-.37,1.43c-.17-.06-.35-.12-.55-.17s-.42-.07-.67-.07c-.53,0-.92.16-1.18.49s-.39.76-.39,1.3c0,.57.12,1.01.37,1.32.24.31.67.47,1.28.47.22,0,.45-.02.7-.06.25-.04.48-.1.68-.19l.25,1.46c-.21.09-.47.16-.78.23-.31.06-.66.1-1.03.1-.58,0-1.07-.09-1.49-.26s-.76-.41-1.03-.7-.46-.65-.59-1.05-.19-.84-.19-1.31Z" style="fill: #a3ea2a; stroke-width: 0px;"/>
    <path d="m632.33,332.74c0-.56.09-1.05.26-1.47s.4-.77.68-1.05c.28-.28.6-.49.97-.64.36-.14.74-.22,1.12-.22.9,0,1.6.27,2.12.82s.78,1.35.78,2.42c0,.1,0,.22-.01.34,0,.12-.02.23-.02.33h-4.06c.04.37.21.66.52.88.3.22.71.32,1.22.32.33,0,.65-.03.97-.09s.57-.13.77-.22l.24,1.45c-.1.05-.22.1-.38.14s-.34.09-.53.13c-.2.04-.41.07-.63.09-.22.02-.45.04-.67.04-.57,0-1.06-.08-1.48-.25s-.77-.4-1.04-.69c-.28-.29-.48-.64-.61-1.04-.13-.4-.2-.83-.2-1.3Zm4.2-.68c0-.15-.03-.3-.08-.44-.04-.14-.11-.27-.2-.38-.09-.11-.21-.2-.35-.28-.14-.07-.31-.11-.52-.11s-.37.03-.52.1c-.14.07-.26.16-.36.27-.1.11-.17.24-.22.39-.05.15-.09.3-.11.45h2.36Z" style="fill: #a3ea2a; stroke-width: 0px;"/>
    <path d="m641.45,334.56c.33,0,.56-.03.7-.1.14-.06.2-.19.2-.37,0-.14-.09-.27-.26-.38-.18-.11-.44-.23-.8-.37-.28-.1-.53-.21-.76-.32-.23-.11-.42-.25-.58-.4-.16-.16-.28-.34-.37-.56-.09-.22-.13-.48-.13-.78,0-.59.22-1.06.66-1.4s1.04-.52,1.81-.52c.38,0,.75.03,1.1.1s.63.14.84.22l-.31,1.39c-.21-.07-.43-.14-.68-.19s-.52-.08-.82-.08c-.56,0-.84.16-.84.47,0,.07.01.14.04.19s.07.11.14.16c.07.05.17.11.29.17s.28.13.47.2c.39.15.72.29.97.43.26.14.46.29.61.46.15.16.25.34.31.54.06.2.09.43.09.69,0,.62-.23,1.09-.7,1.41-.47.32-1.13.48-1.99.48-.56,0-1.03-.05-1.4-.14-.37-.1-.63-.18-.77-.24l.3-1.45c.3.12.62.21.94.28.32.07.64.1.95.1Z" style="fill: #a3ea2a; stroke-width: 0px;"/>
    <path d="m647.27,334.56c.33,0,.56-.03.7-.1.14-.06.2-.19.2-.37,0-.14-.09-.27-.26-.38-.18-.11-.44-.23-.8-.37-.28-.1-.53-.21-.76-.32-.23-.11-.42-.25-.58-.4-.16-.16-.28-.34-.37-.56-.09-.22-.13-.48-.13-.78,0-.59.22-1.06.66-1.4s1.04-.52,1.81-.52c.38,0,.75.03,1.1.1s.63.14.84.22l-.31,1.39c-.21-.07-.43-.14-.68-.19s-.52-.08-.82-.08c-.56,0-.84.16-.84.47,0,.07.01.14.04.19s.07.11.14.16c.07.05.17.11.29.17s.28.13.47.2c.39.15.72.29.97.43.26.14.46.29.61.46.15.16.25.34.31.54.06.2.09.43.09.69,0,.62-.23,1.09-.7,1.41-.47.32-1.13.48-1.99.48-.56,0-1.03-.05-1.4-.14-.37-.1-.63-.18-.77-.24l.3-1.45c.3.12.62.21.94.28.32.07.64.1.95.1Z" style="fill: #a3ea2a; stroke-width: 0px;"/>
    <path d="m655.97,334.56c.33,0,.56-.03.7-.1.14-.06.2-.19.2-.37,0-.14-.09-.27-.26-.38-.18-.11-.44-.23-.8-.37-.28-.1-.53-.21-.76-.32-.23-.11-.42-.25-.58-.4-.16-.16-.28-.34-.37-.56-.09-.22-.13-.48-.13-.78,0-.59.22-1.06.66-1.4s1.04-.52,1.81-.52c.38,0,.75.03,1.1.1s.63.14.84.22l-.31,1.39c-.21-.07-.43-.14-.68-.19s-.52-.08-.82-.08c-.56,0-.84.16-.84.47,0,.07.01.14.04.19s.07.11.14.16c.07.05.17.11.29.17s.28.13.47.2c.39.15.72.29.97.43.26.14.46.29.61.46.15.16.25.34.31.54.06.2.09.43.09.69,0,.62-.23,1.09-.7,1.41-.47.32-1.13.48-1.99.48-.56,0-1.03-.05-1.4-.14-.37-.1-.63-.18-.77-.24l.3-1.45c.3.12.62.21.94.28.32.07.64.1.95.1Z" style="fill: #a3ea2a; stroke-width: 0px;"/>
    <path d="m663.44,332.5c0-.58-.07-.98-.22-1.22-.15-.24-.4-.36-.76-.36-.11,0-.23,0-.35.02s-.24.03-.35.04v4.87h-1.79v-6.1c.15-.04.33-.08.53-.13s.42-.08.65-.12.46-.06.7-.08c.24-.02.48-.03.71-.03.46,0,.83.06,1.11.17.28.12.52.25.7.41.26-.18.55-.33.88-.43.33-.1.64-.16.92-.16.5,0,.92.07,1.24.21.32.14.58.34.77.59.19.26.32.56.4.91.07.35.11.74.11,1.18v3.56h-1.79v-3.35c0-.58-.07-.98-.22-1.22-.15-.24-.4-.36-.76-.36-.1,0-.23.02-.4.07-.17.05-.31.11-.43.18.06.18.09.38.11.58s.02.42.02.65v3.44h-1.79v-3.35Z" style="fill: #a3ea2a; stroke-width: 0px;"/>
    <path d="m675.71,335.63c-.3.09-.7.17-1.18.25-.48.08-.98.11-1.51.11s-.98-.07-1.34-.22c-.36-.14-.64-.35-.85-.61s-.36-.57-.44-.93c-.09-.36-.13-.76-.13-1.19v-3.52h1.79v3.3c0,.58.08.99.23,1.25s.44.38.85.38c.13,0,.26,0,.41-.02.14-.01.27-.03.38-.04v-4.87h1.79v6.1Z" style="fill: #a3ea2a; stroke-width: 0px;"/>
    <path d="m682.83,335.06c0,1.03-.26,1.8-.79,2.3s-1.33.75-2.43.75c-.38,0-.77-.03-1.15-.1-.38-.07-.74-.16-1.07-.27l.31-1.5c.28.11.57.2.88.26.31.06.66.1,1.05.1.51,0,.87-.11,1.09-.34.21-.22.32-.51.32-.86v-.23c-.19.09-.39.15-.59.2-.2.04-.43.07-.67.07-.87,0-1.54-.26-2-.77-.46-.52-.7-1.24-.7-2.17,0-.46.07-.89.22-1.27s.35-.71.63-.98c.28-.27.61-.48,1.01-.63.4-.15.85-.22,1.36-.22.22,0,.44,0,.67.03.23.02.45.05.68.08.22.03.44.07.64.11.2.04.39.09.55.14v5.3Zm-3.92-2.57c0,1,.4,1.5,1.21,1.5.18,0,.36-.02.52-.07.16-.05.3-.1.41-.17v-2.86c-.09-.02-.19-.03-.31-.04s-.26-.02-.42-.02c-.47,0-.82.16-1.06.47-.23.31-.35.71-.35,1.19Z" style="fill: #a3ea2a; stroke-width: 0px;"/>
    <path d="m689.96,335.06c0,1.03-.26,1.8-.79,2.3s-1.33.75-2.43.75c-.38,0-.77-.03-1.15-.1-.38-.07-.74-.16-1.07-.27l.31-1.5c.28.11.57.2.88.26.31.06.66.1,1.05.1.51,0,.87-.11,1.09-.34.21-.22.32-.51.32-.86v-.23c-.19.09-.39.15-.59.2-.2.04-.43.07-.67.07-.87,0-1.54-.26-2-.77-.46-.52-.7-1.24-.7-2.17,0-.46.07-.89.22-1.27s.35-.71.63-.98c.28-.27.61-.48,1.01-.63.4-.15.85-.22,1.36-.22.22,0,.44,0,.67.03.23.02.45.05.68.08.22.03.44.07.64.11.2.04.39.09.55.14v5.3Zm-3.92-2.57c0,1,.4,1.5,1.21,1.5.18,0,.36-.02.52-.07.16-.05.3-.1.41-.17v-2.86c-.09-.02-.19-.03-.31-.04s-.26-.02-.42-.02c-.47,0-.82.16-1.06.47-.23.31-.35.71-.35,1.19Z" style="fill: #a3ea2a; stroke-width: 0px;"/>
    <path d="m694.16,335.97c-.52,0-.94-.06-1.27-.17-.32-.1-.58-.25-.77-.44-.19-.19-.32-.42-.38-.68s-.1-.57-.1-.91v-6.95l1.79-.29v6.88c0,.16.01.3.04.43s.07.24.14.32c.07.09.17.16.29.22.13.06.3.09.52.11l-.25,1.48Z" style="fill: #a3ea2a; stroke-width: 0px;"/>
    <path d="m695.13,332.74c0-.56.09-1.05.26-1.47s.4-.77.68-1.05c.28-.28.6-.49.97-.64.36-.14.74-.22,1.12-.22.9,0,1.6.27,2.12.82s.78,1.35.78,2.42c0,.1,0,.22-.01.34,0,.12-.02.23-.02.33h-4.06c.04.37.21.66.52.88.3.22.71.32,1.22.32.33,0,.65-.03.97-.09s.57-.13.77-.22l.24,1.45c-.1.05-.22.1-.38.14s-.34.09-.53.13c-.2.04-.41.07-.63.09-.22.02-.45.04-.67.04-.57,0-1.06-.08-1.48-.25s-.77-.4-1.04-.69c-.28-.29-.48-.64-.61-1.04-.13-.4-.2-.83-.2-1.3Zm4.2-.68c0-.15-.03-.3-.08-.44-.04-.14-.11-.27-.2-.38-.09-.11-.21-.2-.35-.28-.14-.07-.31-.11-.52-.11s-.37.03-.52.1c-.14.07-.26.16-.36.27-.1.11-.17.24-.22.39-.05.15-.09.3-.11.45h2.36Z" style="fill: #a3ea2a; stroke-width: 0px;"/>
    <path d="m708.01,335.64c-.16.05-.34.09-.55.14-.21.04-.43.08-.65.11s-.46.06-.7.08c-.24.02-.46.03-.68.03-.52,0-.98-.08-1.39-.23-.41-.15-.75-.37-1.03-.65-.28-.28-.49-.63-.64-1.03-.15-.4-.22-.86-.22-1.36s.06-.97.19-1.39.31-.76.55-1.05c.24-.29.53-.51.88-.66s.75-.23,1.19-.23c.25,0,.47.02.67.07.2.05.39.12.59.2v-2.86l1.79-.29v9.11Zm-4.04-3c0,.55.12,1,.37,1.33s.62.5,1.1.5c.16,0,.31,0,.44-.02.14-.01.25-.03.34-.04v-3.25c-.11-.07-.26-.13-.44-.18-.18-.05-.36-.07-.55-.07-.85,0-1.27.58-1.27,1.73Z" style="fill: #a3ea2a; stroke-width: 0px;"/>
    <path d="m716.37,331.12c-.16-.04-.35-.08-.56-.13-.22-.04-.45-.07-.7-.07-.11,0-.25,0-.4.03-.16.02-.27.04-.35.07v4.82h-1.79v-5.98c.32-.11.7-.22,1.13-.32s.92-.15,1.46-.15c.1,0,.21,0,.35.02.14.01.27.03.41.05.14.02.27.04.41.07.14.03.25.06.35.1l-.3,1.48Z" style="fill: #a3ea2a; stroke-width: 0px;"/>
    <path d="m717.21,332.74c0-.56.09-1.05.26-1.47s.4-.77.68-1.05c.28-.28.6-.49.97-.64.36-.14.74-.22,1.12-.22.9,0,1.6.27,2.12.82s.78,1.35.78,2.42c0,.1,0,.22-.01.34,0,.12-.02.23-.02.33h-4.06c.04.37.21.66.52.88.3.22.71.32,1.22.32.33,0,.65-.03.97-.09s.57-.13.77-.22l.24,1.45c-.1.05-.22.1-.38.14s-.34.09-.53.13c-.2.04-.41.07-.63.09-.22.02-.45.04-.67.04-.57,0-1.06-.08-1.48-.25s-.77-.4-1.04-.69c-.28-.29-.48-.64-.61-1.04-.13-.4-.2-.83-.2-1.3Zm4.2-.68c0-.15-.03-.3-.08-.44-.04-.14-.11-.27-.2-.38-.09-.11-.21-.2-.35-.28-.14-.07-.31-.11-.52-.11s-.37.03-.52.1c-.14.07-.26.16-.36.27-.1.11-.17.24-.22.39-.05.15-.09.3-.11.45h2.36Z" style="fill: #a3ea2a; stroke-width: 0px;"/>
    <path d="m724.22,332.69c0-.49.07-.93.22-1.34.15-.4.36-.75.64-1.04.28-.29.62-.52,1.03-.68s.87-.24,1.39-.24c.22,0,.44,0,.68.03.24.02.47.05.7.08.23.03.45.07.65.11.21.04.39.09.55.14v8.32h-1.79v-2.38c-.2.09-.41.16-.62.2-.22.05-.45.07-.7.07-.9,0-1.58-.29-2.05-.88-.47-.59-.71-1.39-.71-2.39Zm1.82.05c0,1.14.42,1.72,1.27,1.72.18,0,.37-.02.55-.07.18-.05.33-.11.44-.18v-3.23c-.09-.02-.2-.03-.34-.04-.14-.01-.28-.02-.44-.02-.49,0-.86.17-1.1.5s-.37.77-.37,1.33Z" style="fill: #a3ea2a; stroke-width: 0px;"/>
    <path d="m737.16,335.63c-.3.09-.7.17-1.18.25-.48.08-.98.11-1.51.11s-.98-.07-1.34-.22c-.36-.14-.64-.35-.85-.61s-.36-.57-.44-.93c-.09-.36-.13-.76-.13-1.19v-3.52h1.79v3.3c0,.58.08.99.23,1.25s.44.38.85.38c.13,0,.26,0,.41-.02.14-.01.27-.03.38-.04v-4.87h1.79v6.1Z" style="fill: #a3ea2a; stroke-width: 0px;"/>
    <path d="m738.54,332.74c0-.56.09-1.05.26-1.47s.4-.77.68-1.05c.28-.28.6-.49.97-.64.36-.14.74-.22,1.12-.22.9,0,1.6.27,2.12.82s.78,1.35.78,2.42c0,.1,0,.22-.01.34,0,.12-.02.23-.02.33h-4.06c.04.37.21.66.52.88.3.22.71.32,1.22.32.33,0,.65-.03.97-.09s.57-.13.77-.22l.24,1.45c-.1.05-.22.1-.38.14s-.34.09-.53.13c-.2.04-.41.07-.63.09-.22.02-.45.04-.67.04-.57,0-1.06-.08-1.48-.25s-.77-.4-1.04-.69c-.28-.29-.48-.64-.61-1.04-.13-.4-.2-.83-.2-1.3Zm4.2-.68c0-.15-.03-.3-.08-.44-.04-.14-.11-.27-.2-.38-.09-.11-.21-.2-.35-.28-.14-.07-.31-.11-.52-.11s-.37.03-.52.1c-.14.07-.26.16-.36.27-.1.11-.17.24-.22.39-.05.15-.09.3-.11.45h2.36Z" style="fill: #a3ea2a; stroke-width: 0px;"/>
    <path d="m747.66,334.56c.33,0,.56-.03.7-.1.14-.06.2-.19.2-.37,0-.14-.09-.27-.26-.38-.18-.11-.44-.23-.8-.37-.28-.1-.53-.21-.76-.32-.23-.11-.42-.25-.58-.4-.16-.16-.28-.34-.37-.56-.09-.22-.13-.48-.13-.78,0-.59.22-1.06.66-1.4s1.04-.52,1.81-.52c.38,0,.75.03,1.1.1s.63.14.84.22l-.31,1.39c-.21-.07-.43-.14-.68-.19s-.52-.08-.82-.08c-.56,0-.84.16-.84.47,0,.07.01.14.04.19s.07.11.14.16c.07.05.17.11.29.17s.28.13.47.2c.39.15.72.29.97.43.26.14.46.29.61.46.15.16.25.34.31.54.06.2.09.43.09.69,0,.62-.23,1.09-.7,1.41-.47.32-1.13.48-1.99.48-.56,0-1.03-.05-1.4-.14-.37-.1-.63-.18-.77-.24l.3-1.45c.3.12.62.21.94.28.32.07.64.1.95.1Z" style="fill: #a3ea2a; stroke-width: 0px;"/>
    <path d="m751.6,327.96l1.79-.29v1.86h2.15v1.49h-2.15v2.22c0,.38.07.68.2.9.13.22.4.34.8.34.19,0,.39-.02.59-.05.2-.04.39-.09.56-.15l.25,1.39c-.22.09-.46.16-.72.23-.26.06-.59.1-.97.1-.49,0-.89-.07-1.21-.2s-.58-.32-.77-.55c-.19-.24-.33-.52-.4-.86-.08-.34-.11-.71-.11-1.12v-5.3Z" style="fill: #a3ea2a; stroke-width: 0px;"/>
  </g><script xmlns="" id="bw-fido2-page-script"/>
  <rect x="725.72" y="364.07" width="194.47" height="56.08" rx="7.48" ry="7.48" style="fill: #223654; stroke-width: 0px;"/>
  <g>
    <path d="m773.45,402.55c-1,0-1.99-.03-2.98-.09-.99-.06-2.02-.21-3.09-.43v-17.66c.84-.16,1.76-.28,2.76-.36,1-.08,1.93-.12,2.79-.12,1.16,0,2.22.08,3.19.25.97.17,1.81.45,2.51.85.7.4,1.25.93,1.64,1.59.39.66.59,1.47.59,2.43,0,1.45-.7,2.6-2.1,3.44,1.16.44,1.95,1.03,2.37,1.79.42.75.63,1.6.63,2.55,0,1.91-.7,3.35-2.09,4.31s-3.47,1.45-6.22,1.45Zm-2.08-11.3h2c1.26,0,2.16-.16,2.71-.49s.81-.85.81-1.56-.28-1.25-.84-1.55c-.56-.3-1.38-.45-2.47-.45-.35,0-.73,0-1.13.01-.4,0-.76.03-1.08.07v3.97Zm0,3.13v4.7c.3.04.62.06.97.08s.74.03,1.16.03c1.23,0,2.22-.17,2.97-.53.75-.35,1.13-1,1.13-1.95,0-.84-.32-1.44-.95-1.8-.63-.36-1.53-.54-2.71-.54h-2.58Z" style="fill: #a3ea2a; stroke-width: 0px;"/>
    <path d="m789.74,388.12c1.16,0,2.12.13,2.89.39.77.26,1.39.64,1.85,1.13.46.49.79,1.09.99,1.79.19.7.29,1.48.29,2.34v8.15c-.56.12-1.34.27-2.34.43-1,.17-2.21.25-3.63.25-.89,0-1.7-.08-2.43-.24-.73-.16-1.35-.42-1.88-.78-.53-.36-.93-.83-1.21-1.41s-.42-1.29-.42-2.13.16-1.49.49-2.05c.32-.56.76-1.01,1.3-1.34.54-.33,1.17-.57,1.87-.72.7-.15,1.43-.22,2.18-.22.51,0,.96.02,1.35.07.39.04.71.1.96.17v-.37c0-.67-.2-1.2-.6-1.6-.4-.4-1.1-.6-2.1-.6-.67,0-1.32.05-1.97.14-.65.1-1.21.23-1.68.41l-.5-3.15c.23-.07.51-.14.85-.22s.71-.15,1.12-.21c.4-.06.83-.11,1.27-.16s.9-.07,1.35-.07Zm.32,11.46c.39,0,.75,0,1.1-.03.35-.02.63-.04.84-.08v-2.97c-.16-.04-.39-.07-.71-.11s-.6-.05-.87-.05c-.37,0-.71.02-1.04.07s-.61.13-.85.25c-.25.12-.44.29-.58.5-.14.21-.21.47-.21.79,0,.61.21,1.04.62,1.27.41.24.98.36,1.7.36Z" style="fill: #a3ea2a; stroke-width: 0px;"/>
    <path d="m798.65,395.4c0-1,.16-1.94.49-2.83s.79-1.66,1.41-2.31,1.36-1.18,2.23-1.56c.88-.39,1.87-.58,3-.58.74,0,1.41.07,2.02.2.61.13,1.21.32,1.79.56l-.81,3.13c-.37-.14-.77-.26-1.21-.37-.44-.1-.93-.16-1.47-.16-1.16,0-2.02.36-2.59,1.08-.57.72-.85,1.67-.85,2.84,0,1.25.27,2.21.8,2.89s1.47,1.03,2.8,1.03c.47,0,.98-.04,1.52-.13.54-.09,1.04-.23,1.5-.42l.55,3.21c-.46.19-1.02.36-1.71.5-.68.14-1.44.21-2.26.21-1.26,0-2.35-.19-3.26-.57s-1.66-.89-2.25-1.54-1.02-1.42-1.29-2.3c-.27-.88-.41-1.84-.41-2.88Z" style="fill: #a3ea2a; stroke-width: 0px;"/>
    <path d="m816.37,393.45c.39-.42.78-.85,1.19-1.31.41-.45.81-.9,1.19-1.35.39-.44.75-.87,1.09-1.27s.63-.75.88-1.04h4.66c-.93,1.07-1.84,2.08-2.72,3.05-.88.97-1.85,1.97-2.9,3,.53.47,1.07,1.04,1.63,1.7.56.66,1.1,1.34,1.63,2.04s1.01,1.4,1.45,2.11c.44.7.81,1.34,1.1,1.92h-4.5c-.28-.46-.6-.96-.96-1.51-.36-.55-.74-1.11-1.14-1.66-.4-.55-.83-1.08-1.27-1.59-.45-.51-.89-.94-1.32-1.29v6.06h-3.92v-19.77l3.92-.63v11.54Z" style="fill: #a3ea2a; stroke-width: 0px;"/>
    <path d="m825.33,392.69h7.62v3.55h-7.62v-3.55Z" style="fill: #a3ea2a; stroke-width: 0px;"/>
    <path d="m835.11,395.5c0-1.23.19-2.3.57-3.22.38-.92.87-1.69,1.48-2.3s1.32-1.08,2.12-1.39c.8-.32,1.62-.47,2.46-.47,1.96,0,3.51.6,4.65,1.8,1.14,1.2,1.71,2.97,1.71,5.3,0,.23,0,.48-.03.75-.02.27-.04.51-.05.72h-8.88c.09.81.46,1.45,1.13,1.92.67.47,1.56.71,2.68.71.72,0,1.42-.07,2.12-.2.69-.13,1.26-.29,1.7-.49l.53,3.18c-.21.1-.49.21-.84.32-.35.1-.74.2-1.17.28-.43.08-.89.14-1.38.2-.49.05-.98.08-1.47.08-1.24,0-2.33-.18-3.25-.55-.92-.37-1.68-.87-2.29-1.51s-1.05-1.4-1.34-2.27c-.29-.88-.43-1.82-.43-2.84Zm9.2-1.5c-.02-.33-.07-.66-.17-.97s-.25-.6-.45-.84c-.2-.25-.46-.45-.76-.6-.31-.16-.69-.24-1.14-.24s-.81.08-1.13.22c-.32.15-.58.35-.79.59-.21.25-.37.53-.49.85-.11.33-.2.65-.25.99h5.18Z" style="fill: #a3ea2a; stroke-width: 0px;"/>
    <path d="m851.12,388.96c.67-.19,1.52-.37,2.58-.54,1.05-.17,2.16-.25,3.31-.25s2.15.15,2.93.46c.78.31,1.4.74,1.85,1.3.46.56.78,1.23.97,2,.19.77.29,1.63.29,2.58v7.81h-3.92v-7.33c0-1.26-.17-2.16-.5-2.68-.33-.53-.96-.79-1.87-.79-.28,0-.58.01-.89.04-.32.03-.6.06-.84.09v10.67h-3.92v-13.35Z" style="fill: #a3ea2a; stroke-width: 0px;"/>
    <path d="m878.8,401.86c-.35.11-.75.21-1.21.3-.46.1-.93.18-1.43.25-.5.07-1.01.13-1.53.17-.52.04-1.01.07-1.48.07-1.14,0-2.16-.17-3.05-.5-.89-.33-1.65-.81-2.26-1.43s-1.08-1.38-1.41-2.26-.49-1.88-.49-2.98.14-2.13.42-3.04c.28-.9.68-1.67,1.21-2.3.53-.63,1.17-1.11,1.93-1.45s1.63-.5,2.62-.5c.54,0,1.03.05,1.46.16.43.11.86.25,1.3.45v-6.26l3.92-.63v19.95Zm-8.86-6.57c0,1.21.27,2.18.81,2.92.54.74,1.35,1.1,2.42,1.1.35,0,.67-.01.97-.04.3-.03.54-.06.74-.09v-7.12c-.25-.16-.57-.29-.96-.39-.39-.1-.79-.16-1.2-.16-1.86,0-2.79,1.26-2.79,3.79Z" style="fill: #a3ea2a; stroke-width: 0px;"/>
  </g>
  <rect x="6.98" y="364.07" width="194.47" height="56.08" rx="7.48" ry="7.48" style="fill: #223654; stroke-width: 0px;"/>
  <g>
    <path d="m63.46,402.31c-.2-.63-.42-1.28-.65-1.95-.23-.67-.47-1.33-.7-1.99h-7.11c-.23.67-.46,1.33-.69,2-.23.67-.45,1.32-.65,1.95h-4.26c.69-1.96,1.34-3.78,1.95-5.44.62-1.66,1.22-3.23,1.81-4.71.59-1.47,1.17-2.87,1.74-4.19.57-1.32,1.16-2.62,1.78-3.88h3.89c.6,1.26,1.19,2.55,1.77,3.88.58,1.32,1.17,2.72,1.76,4.19.59,1.47,1.19,3.04,1.81,4.71.62,1.67,1.27,3.48,1.95,5.44h-4.39Zm-4.93-14.09c-.09.26-.23.62-.4,1.08s-.38.98-.6,1.58-.48,1.25-.75,1.97c-.28.72-.56,1.47-.85,2.26h5.21c-.28-.79-.55-1.54-.81-2.26-.26-.72-.51-1.38-.74-1.97-.24-.6-.44-1.12-.62-1.58-.18-.46-.32-.81-.43-1.07Z" style="fill: #a3ea2a; stroke-width: 0px;"/>
    <path d="m69.8,385.04l3.92-.63v4.07h4.7v3.26h-4.7v4.86c0,.82.14,1.48.43,1.97s.87.74,1.75.74c.42,0,.85-.04,1.3-.12.45-.08.85-.19,1.22-.33l.55,3.05c-.47.19-1,.36-1.58.5-.58.14-1.29.21-2.13.21-1.07,0-1.95-.14-2.65-.43-.7-.29-1.26-.69-1.68-1.21-.42-.52-.71-1.14-.88-1.88s-.25-1.55-.25-2.44v-11.62Z" style="fill: #a3ea2a; stroke-width: 0px;"/>
    <path d="m81.47,385.04l3.92-.63v4.07h4.7v3.26h-4.7v4.86c0,.82.14,1.48.43,1.97s.87.74,1.75.74c.42,0,.85-.04,1.3-.12.45-.08.85-.19,1.22-.33l.55,3.05c-.47.19-1,.36-1.58.5-.58.14-1.29.21-2.13.21-1.07,0-1.95-.14-2.65-.43-.7-.29-1.26-.69-1.68-1.21-.42-.52-.71-1.14-.88-1.88s-.25-1.55-.25-2.44v-11.62Z" style="fill: #a3ea2a; stroke-width: 0px;"/>
    <path d="m97.71,388.12c1.16,0,2.12.13,2.89.39.77.26,1.39.64,1.85,1.13.46.49.79,1.09.99,1.79s.29,1.48.29,2.34v8.15c-.56.12-1.34.27-2.34.43-1,.17-2.21.25-3.63.25-.89,0-1.7-.08-2.43-.24-.73-.16-1.35-.42-1.88-.78-.53-.36-.93-.83-1.21-1.41-.28-.58-.42-1.29-.42-2.13s.16-1.49.49-2.05c.32-.56.76-1.01,1.3-1.34.54-.33,1.17-.57,1.87-.72.7-.15,1.43-.22,2.18-.22.51,0,.96.02,1.35.07.39.04.71.1.96.17v-.37c0-.67-.2-1.2-.6-1.6-.4-.4-1.1-.6-2.1-.6-.67,0-1.32.05-1.97.14-.65.1-1.21.23-1.68.41l-.5-3.15c.23-.07.51-.14.85-.22.34-.08.71-.15,1.12-.21.4-.06.83-.11,1.27-.16s.9-.07,1.35-.07Zm.32,11.46c.39,0,.75,0,1.1-.03.35-.02.63-.04.84-.08v-2.97c-.16-.03-.39-.07-.71-.1s-.6-.05-.87-.05c-.37,0-.71.02-1.04.07-.32.04-.61.13-.85.25-.25.12-.44.29-.58.5-.14.21-.21.47-.21.79,0,.61.21,1.04.62,1.27.41.24.98.36,1.7.36Z" style="fill: #a3ea2a; stroke-width: 0px;"/>
    <path d="m106.62,395.4c0-1,.16-1.94.49-2.83s.79-1.66,1.41-2.31,1.36-1.18,2.23-1.56c.88-.39,1.87-.58,3-.58.74,0,1.41.07,2.02.2.61.13,1.21.32,1.79.57l-.81,3.13c-.37-.14-.77-.26-1.21-.37s-.93-.16-1.47-.16c-1.16,0-2.02.36-2.59,1.08-.57.72-.85,1.67-.85,2.84,0,1.24.27,2.21.8,2.89s1.47,1.02,2.8,1.02c.47,0,.98-.04,1.52-.13.54-.09,1.04-.23,1.5-.42l.55,3.21c-.46.19-1.02.36-1.71.5-.68.14-1.44.21-2.26.21-1.26,0-2.35-.19-3.26-.57s-1.66-.89-2.25-1.54c-.59-.65-1.02-1.41-1.29-2.3-.27-.88-.41-1.84-.41-2.88Z" style="fill: #a3ea2a; stroke-width: 0px;"/>
    <path d="m124.34,393.45c.39-.42.78-.85,1.19-1.31.41-.45.81-.9,1.19-1.35.39-.44.75-.87,1.09-1.27s.63-.75.88-1.05h4.66c-.93,1.07-1.84,2.09-2.72,3.06-.88.97-1.85,1.97-2.9,3,.53.47,1.07,1.04,1.63,1.7.56.66,1.1,1.34,1.63,2.04s1.01,1.4,1.45,2.11c.44.7.81,1.34,1.1,1.92h-4.5c-.28-.46-.6-.96-.96-1.52-.36-.55-.74-1.11-1.14-1.66-.4-.55-.83-1.08-1.27-1.59-.45-.51-.89-.94-1.32-1.29v6.06h-3.92v-19.77l3.92-.63v11.54Z" style="fill: #a3ea2a; stroke-width: 0px;"/>
    <path d="m134.03,395.5c0-1.23.19-2.3.57-3.22.38-.92.87-1.69,1.48-2.3.61-.61,1.32-1.08,2.12-1.39.8-.32,1.62-.47,2.46-.47,1.96,0,3.51.6,4.65,1.8,1.14,1.2,1.71,2.97,1.71,5.3,0,.23,0,.48-.03.75-.02.27-.04.51-.05.72h-8.88c.09.81.46,1.45,1.13,1.92.67.47,1.56.71,2.68.71.72,0,1.42-.07,2.12-.2.69-.13,1.26-.29,1.7-.49l.53,3.18c-.21.11-.49.21-.84.32-.35.11-.74.2-1.17.28-.43.08-.89.14-1.38.2-.49.05-.98.08-1.47.08-1.24,0-2.33-.18-3.25-.55-.92-.37-1.68-.87-2.29-1.51s-1.05-1.4-1.34-2.27c-.29-.88-.43-1.82-.43-2.84Zm9.2-1.5c-.02-.33-.07-.66-.17-.97s-.25-.6-.45-.84c-.2-.25-.46-.45-.76-.6-.31-.16-.69-.24-1.14-.24s-.81.08-1.13.22-.58.35-.79.59c-.21.25-.37.53-.49.85-.11.32-.2.65-.25.99h5.18Z" style="fill: #a3ea2a; stroke-width: 0px;"/>
    <path d="m158.37,391.95c-.35-.09-.76-.18-1.24-.28-.47-.1-.98-.14-1.52-.14-.25,0-.54.02-.88.07s-.6.09-.78.14v10.57h-3.92v-13.09c.7-.25,1.53-.48,2.48-.7.96-.22,2.02-.33,3.19-.33.21,0,.46.01.76.04.3.03.6.06.89.1.3.04.6.1.89.16s.55.14.76.22l-.66,3.23Z" style="fill: #a3ea2a; stroke-width: 0px;"/>
  </g>
  <path d="m841.38,368.67V94.16h-16.59s-.01,0-.01.01v94.85s0,16.6,0,16.6v85.97h-284.27v-8.85c0-1.02-1.1-1.65-1.98-1.15l-29.85,17.17c-.88.5-.88,1.77,0,2.27l29.85,17.17c.88.5,1.98-.13,1.98-1.15v-8.85h284.27v60.48h16.6Z" style="fill: url(#linear-gradient-3); stroke-width: 0px;"/>
  <g>
    <rect x="387.92" y="158.03" width="40.61" height="45.43" style="fill: #02adef; stroke-width: 0px;"/>
    <rect x="392.55" y="180.74" width="31.35" height="16.25" style="fill: #eb0037; stroke-width: 0px;"/>
  </g>
  <g>
    <rect x="775.23" y="187.21" width="31.35" height="16.25" style="fill: #eb0037; stroke-width: 0px;"/>
    <rect x="775.23" y="164.5" width="31.35" height="16.25" style="fill: #02adef; stroke-width: 0px;"/>
  </g>
  <rect x="366.31" y="7.35" width="194.47" height="22.79" rx="4.03" ry="4.03" style="fill: #223654; stroke-width: 0px;"/>
  <rect x="725.72" y="5.88" width="194.47" height="22.79" rx="4.03" ry="4.03" style="fill: #223654; stroke-width: 0px;"/>
  <g>
    <path d="m430.11,22.73c-1.11,0-1.96-.31-2.55-.93s-.87-1.5-.87-2.64c0-.57.09-1.07.26-1.52.18-.45.42-.82.73-1.13s.68-.54,1.1-.7c.43-.16.89-.24,1.39-.24.29,0,.55.02.79.07.24.04.45.09.63.15s.33.12.45.17.21.11.26.14l-.45,1.24c-.21-.12-.45-.21-.73-.29s-.6-.12-.96-.12c-.24,0-.47.04-.7.12s-.43.21-.6.38-.31.4-.42.68-.16.61-.16,1.01c0,.31.03.61.11.88s.18.51.34.71.35.35.61.47c.25.12.55.17.91.17.22,0,.43-.02.6-.04.18-.02.34-.06.48-.09.14-.03.26-.07.36-.12s.2-.09.29-.13l.43,1.24c-.21.13-.53.25-.92.35s-.86.16-1.38.16v.02Z" style="fill: #a3ea2a; stroke-width: 0px;"/>
    <path d="m438.05,19.98c0,.41-.06.78-.18,1.12s-.29.63-.51.87-.49.43-.81.56-.67.2-1.06.2-.73-.07-1.05-.2-.59-.32-.81-.56-.4-.53-.53-.87c-.12-.34-.19-.72-.19-1.12s.07-.78.19-1.12c.13-.34.31-.63.54-.86.23-.24.49-.42.81-.55s.65-.2,1.02-.2.72.07,1.03.2.59.31.81.55.4.53.53.86c.12.34.19.71.19,1.12h.02Zm-1.5,0c0-.45-.09-.82-.27-1.07-.18-.26-.44-.39-.77-.39s-.59.13-.78.39c-.18.26-.28.62-.28,1.07s.09.82.28,1.08c.18.26.45.4.78.4s.59-.13.77-.4c.18-.26.27-.63.27-1.08Z" style="fill: #a3ea2a; stroke-width: 0px;"/>
    <path d="m439.19,17.57c.25-.07.58-.14.97-.21s.81-.09,1.24-.09.81.06,1.1.17c.3.12.53.28.7.49.17.21.3.46.36.75.07.29.11.61.11.97v2.93h-1.48v-2.76c0-.48-.07-.81-.19-1.01-.12-.2-.36-.3-.7-.3-.11,0-.21,0-.34.02-.12,0-.22.02-.31.03v4.01h-1.48v-5.03h0Z" style="fill: #a3ea2a; stroke-width: 0px;"/>
    <path d="m444.96,16.09l1.48-.24v1.53h1.77v1.23h-1.77v1.83c0,.31.06.56.16.74s.33.28.66.28c.16,0,.32-.02.49-.04.16-.03.32-.07.46-.12l.21,1.15c-.18.07-.38.13-.59.19-.21.05-.49.08-.8.08-.4,0-.73-.06-1-.16s-.48-.26-.63-.45c-.16-.2-.27-.43-.33-.71-.07-.28-.09-.59-.09-.92v-4.37h0Z" style="fill: #a3ea2a; stroke-width: 0px;"/>
    <path d="m448.96,20.03c0-.46.07-.87.21-1.21s.33-.63.56-.87c.23-.23.49-.4.8-.53.3-.12.61-.18.92-.18.74,0,1.32.22,1.75.68s.64,1.11.64,1.99c0,.08,0,.18,0,.28,0,.1-.02.19-.02.27h-3.35c.03.31.17.54.43.73.25.18.59.26,1.01.26.27,0,.54-.02.8-.07s.47-.11.63-.18l.2,1.2c-.08.04-.18.08-.31.12s-.28.07-.44.11c-.16.03-.34.06-.52.07-.18.02-.37.03-.55.03-.47,0-.87-.07-1.22-.21s-.63-.33-.86-.57c-.23-.24-.4-.53-.5-.86s-.16-.68-.16-1.07h-.02Zm3.46-.56c0-.12-.02-.25-.07-.36-.03-.12-.09-.22-.16-.31s-.17-.16-.29-.23c-.12-.06-.26-.09-.43-.09s-.31.02-.43.08c-.12.06-.21.13-.3.22s-.14.2-.18.32-.07.25-.09.37h1.95Z" style="fill: #a3ea2a; stroke-width: 0px;"/>
    <path d="m454.98,17.57c.25-.07.58-.14.97-.21s.81-.09,1.24-.09.81.06,1.1.17c.3.12.53.28.7.49.17.21.3.46.36.75.07.29.11.61.11.97v2.93h-1.48v-2.76c0-.48-.07-.81-.19-1.01-.12-.2-.36-.3-.7-.3-.11,0-.21,0-.34.02-.12,0-.22.02-.31.03v4.01h-1.48v-5.03h0Z" style="fill: #a3ea2a; stroke-width: 0px;"/>
    <path d="m460.76,16.09l1.48-.24v1.53h1.77v1.23h-1.77v1.83c0,.31.06.56.16.74s.33.28.66.28c.16,0,.32-.02.49-.04.16-.03.32-.07.46-.12l.21,1.15c-.18.07-.38.13-.59.19-.21.05-.49.08-.8.08-.4,0-.73-.06-1-.16s-.48-.26-.63-.45c-.16-.2-.27-.43-.33-.71-.07-.28-.09-.59-.09-.92v-4.37h0Z" style="fill: #a3ea2a; stroke-width: 0px;"/>
    <path d="m464.66,18.97h2.87v1.34h-2.87v-1.34Z" style="fill: #a3ea2a; stroke-width: 0px;"/>
    <path d="m473.14,21.26v1.33h-4.58v-6.86h1.54v5.53h3.04Z" style="fill: #a3ea2a; stroke-width: 0px;"/>
    <path d="m473.79,20.03c0-.46.07-.87.21-1.21s.33-.63.56-.87c.23-.23.49-.4.8-.53.3-.12.61-.18.92-.18.74,0,1.32.22,1.75.68s.64,1.11.64,1.99c0,.08,0,.18,0,.28,0,.1-.02.19-.02.27h-3.35c.03.31.17.54.43.73.25.18.59.26,1.01.26.27,0,.54-.02.8-.07s.47-.11.63-.18l.2,1.2c-.08.04-.18.08-.31.12s-.28.07-.44.11c-.16.03-.34.06-.52.07-.18.02-.37.03-.55.03-.47,0-.87-.07-1.22-.21s-.63-.33-.86-.57c-.23-.24-.4-.53-.5-.86s-.16-.68-.16-1.07h-.02Zm3.46-.56c0-.12-.02-.25-.07-.36-.03-.12-.09-.22-.16-.31s-.17-.16-.29-.23c-.12-.06-.26-.09-.43-.09s-.31.02-.43.08c-.12.06-.21.13-.3.22s-.14.2-.18.32-.07.25-.09.37h1.95Z" style="fill: #a3ea2a; stroke-width: 0px;"/>
    <path d="m479.81,17.57c.25-.07.58-.14.97-.21s.81-.09,1.24-.09.81.06,1.1.17c.3.12.53.28.7.49.17.21.3.46.36.75.07.29.11.61.11.97v2.93h-1.48v-2.76c0-.48-.07-.81-.19-1.01-.12-.2-.36-.3-.7-.3-.11,0-.21,0-.34.02-.12,0-.22.02-.31.03v4.01h-1.48v-5.03h0Z" style="fill: #a3ea2a; stroke-width: 0px;"/>
    <path d="m490.13,21.94c0,.85-.21,1.48-.65,1.9s-1.1.62-2,.62c-.31,0-.63-.02-.95-.08s-.61-.13-.88-.22l.26-1.24c.23.09.47.16.73.21s.54.08.87.08c.42,0,.72-.09.9-.28.17-.18.26-.42.26-.71v-.19c-.16.07-.32.12-.49.16-.16.03-.35.06-.55.06-.72,0-1.27-.21-1.65-.63-.38-.43-.58-1.02-.58-1.79,0-.38.06-.73.18-1.05s.29-.59.52-.81c.23-.22.5-.4.83-.52.33-.12.7-.18,1.12-.18.18,0,.36,0,.55.02.19.02.37.04.56.07.18.02.36.06.53.09s.32.07.45.12v4.37h0Zm-3.23-2.12c0,.82.33,1.24,1,1.24.15,0,.3-.02.43-.06.13-.04.25-.08.34-.14v-2.36c-.07-.02-.16-.02-.26-.03s-.21-.02-.35-.02c-.39,0-.68.13-.87.39-.19.26-.29.59-.29.98h0Z" style="fill: #a3ea2a; stroke-width: 0px;"/>
    <path d="m491.47,16.09l1.48-.24v1.53h1.77v1.23h-1.77v1.83c0,.31.06.56.16.74s.33.28.66.28c.16,0,.32-.02.49-.04.16-.03.32-.07.46-.12l.21,1.15c-.18.07-.38.13-.59.19-.21.05-.49.08-.8.08-.4,0-.73-.06-1-.16s-.48-.26-.63-.45c-.16-.2-.27-.43-.33-.71-.07-.28-.09-.59-.09-.92v-4.37h0Z" style="fill: #a3ea2a; stroke-width: 0px;"/>
    <path d="m495.9,22.59v-7.44l1.48-.24v2.49c.1-.03.22-.07.38-.09s.31-.04.45-.04c.42,0,.77.06,1.06.17s.5.28.68.49c.16.21.29.46.35.75s.11.61.11.97v2.93h-1.48v-2.76c0-.48-.06-.81-.18-1.01-.12-.2-.35-.3-.68-.3-.13,0-.26,0-.37.03s-.22.05-.31.07v3.96h-1.48Z" style="fill: #a3ea2a; stroke-width: 0px;"/>
  </g>
  <g>
    <path d="m785.46,14.22v1.33h-2.09v5.6h-1.56v-5.6h-2.09v-1.33h5.74Z" style="fill: #a3ea2a; stroke-width: 0px;"/>
    <path d="m788.84,17.21c-.13-.03-.29-.07-.47-.1-.18-.04-.37-.06-.58-.06-.09,0-.21,0-.33.02-.13.02-.23.04-.29.06v4.02h-1.49v-4.98c.27-.09.58-.18.94-.27.36-.08.77-.12,1.22-.12.08,0,.18,0,.29.02.11,0,.23.02.34.04s.23.04.34.06.21.05.29.08l-.25,1.23Z" style="fill: #a3ea2a; stroke-width: 0px;"/>
    <path d="m791.68,15.75c.44,0,.81.05,1.1.15.29.1.53.24.7.43.18.19.3.41.38.68.07.27.11.56.11.89v3.1c-.21.05-.51.1-.89.17-.38.06-.84.09-1.38.09-.34,0-.65-.03-.93-.09-.28-.06-.51-.16-.71-.29s-.35-.31-.46-.54c-.11-.22-.16-.49-.16-.81s.06-.57.19-.78c.12-.21.29-.38.5-.51.21-.13.44-.22.71-.27s.54-.08.83-.08c.19,0,.36,0,.51.02s.27.04.37.06v-.14c0-.25-.08-.46-.23-.61-.15-.15-.42-.23-.8-.23-.25,0-.5.02-.75.06s-.46.09-.64.15l-.19-1.2c.09-.03.2-.06.33-.08.13-.03.27-.06.42-.08s.32-.04.49-.06.34-.02.51-.02Zm.12,4.36c.15,0,.29,0,.42,0,.13,0,.24-.02.32-.03v-1.13c-.06-.01-.15-.03-.27-.04-.12-.01-.23-.02-.33-.02-.14,0-.27,0-.39.02s-.23.05-.33.1c-.09.05-.17.11-.22.19-.05.08-.08.18-.08.3,0,.23.08.4.24.49.16.09.37.13.64.13Z" style="fill: #a3ea2a; stroke-width: 0px;"/>
    <path d="m795.32,16.07c.25-.07.58-.14.98-.21.4-.06.82-.09,1.26-.09s.82.06,1.11.17.53.28.71.5c.17.21.3.47.37.76.07.29.11.62.11.98v2.97h-1.49v-2.79c0-.48-.06-.82-.19-1.02-.13-.2-.36-.3-.71-.3-.11,0-.22,0-.34.01-.12.01-.23.02-.32.04v4.06h-1.49v-5.08Z" style="fill: #a3ea2a; stroke-width: 0px;"/>
    <path d="m802.72,20.08c.27,0,.47-.03.58-.08s.17-.16.17-.31c0-.12-.07-.23-.22-.31-.15-.09-.37-.19-.67-.31-.23-.09-.45-.18-.64-.27-.19-.09-.35-.21-.48-.33-.13-.13-.24-.29-.31-.46-.07-.18-.11-.4-.11-.65,0-.49.18-.88.55-1.17.37-.29.87-.43,1.51-.43.32,0,.63.03.92.08.29.06.53.12.7.19l-.26,1.16c-.17-.06-.36-.11-.57-.16-.2-.05-.43-.07-.68-.07-.47,0-.7.13-.7.39,0,.06,0,.11.03.16.02.05.06.09.12.13.06.04.14.09.24.14.1.05.24.11.4.17.33.12.6.24.81.36.21.12.38.24.51.38.12.14.21.29.26.45.05.17.08.36.08.58,0,.52-.2.91-.58,1.18-.39.27-.94.4-1.66.4-.47,0-.86-.04-1.17-.12-.31-.08-.53-.15-.65-.2l.25-1.21c.25.1.51.18.78.24s.53.08.79.08Z" style="fill: #a3ea2a; stroke-width: 0px;"/>
    <path d="m808.34,13.39c.28,0,.54.03.77.08s.41.11.54.17l-.29,1.19c-.13-.06-.28-.1-.43-.14-.16-.03-.3-.04-.44-.04-.18,0-.33.02-.46.08-.12.05-.22.12-.29.2-.07.09-.12.19-.15.31-.03.12-.04.25-.04.39v.26h1.84v1.24h-1.84v4.02h-1.49v-5.54c0-.68.19-1.22.58-1.62.38-.4.95-.6,1.71-.6Z" style="fill: #a3ea2a; stroke-width: 0px;"/>
    <path d="m809.95,18.56c0-.47.07-.88.21-1.23s.33-.64.57-.88c.23-.23.5-.41.8-.53.3-.12.62-.18.93-.18.75,0,1.34.23,1.77.69.43.46.65,1.13.65,2.01,0,.09,0,.18,0,.29,0,.1-.01.19-.02.27h-3.38c.03.31.18.55.43.73.25.18.59.27,1.02.27.27,0,.54-.02.81-.07.26-.05.48-.11.64-.19l.2,1.21c-.08.04-.19.08-.32.12-.13.04-.28.07-.44.1-.16.03-.34.05-.53.07s-.37.03-.56.03c-.47,0-.89-.07-1.24-.21-.35-.14-.64-.33-.87-.58-.23-.24-.4-.53-.51-.86-.11-.33-.17-.69-.17-1.08Zm3.5-.57c0-.13-.03-.25-.07-.37-.04-.12-.09-.23-.17-.32-.08-.09-.17-.17-.29-.23-.12-.06-.26-.09-.43-.09s-.31.03-.43.08c-.12.06-.22.13-.3.23s-.14.2-.18.32c-.04.12-.08.25-.09.38h1.97Z" style="fill: #a3ea2a; stroke-width: 0px;"/>
    <path d="m819.21,17.21c-.13-.03-.29-.07-.47-.1-.18-.04-.37-.06-.58-.06-.09,0-.21,0-.33.02-.13.02-.23.04-.29.06v4.02h-1.49v-4.98c.27-.09.58-.18.94-.27.36-.08.77-.12,1.22-.12.08,0,.18,0,.29.02.11,0,.23.02.34.04s.23.04.34.06.21.05.29.08l-.25,1.23Z" style="fill: #a3ea2a; stroke-width: 0px;"/>
    <path d="m819.81,17.49h2.9v1.35h-2.9v-1.35Z" style="fill: #a3ea2a; stroke-width: 0px;"/>
    <path d="m823.53,18.56c0-.47.07-.88.21-1.23s.33-.64.57-.88c.23-.23.5-.41.8-.53.3-.12.62-.18.93-.18.75,0,1.34.23,1.77.69.43.46.65,1.13.65,2.01,0,.09,0,.18,0,.29,0,.1-.01.19-.02.27h-3.38c.03.31.18.55.43.73.25.18.59.27,1.02.27.27,0,.54-.02.81-.07.26-.05.48-.11.64-.19l.2,1.21c-.08.04-.19.08-.32.12-.13.04-.28.07-.44.1-.16.03-.34.05-.53.07s-.37.03-.56.03c-.47,0-.89-.07-1.24-.21-.35-.14-.64-.33-.87-.58-.23-.24-.4-.53-.51-.86-.11-.33-.17-.69-.17-1.08Zm3.5-.57c0-.13-.03-.25-.07-.37-.04-.12-.09-.23-.17-.32-.08-.09-.17-.17-.29-.23-.12-.06-.26-.09-.43-.09s-.31.03-.43.08c-.12.06-.22.13-.3.23s-.14.2-.18.32c-.04.12-.08.25-.09.38h1.97Z" style="fill: #a3ea2a; stroke-width: 0px;"/>
    <path d="m829.62,16.07c.25-.07.58-.14.98-.21.4-.06.82-.09,1.26-.09s.82.06,1.11.17.53.28.71.5c.17.21.3.47.37.76.07.29.11.62.11.98v2.97h-1.49v-2.79c0-.48-.06-.82-.19-1.02-.13-.2-.36-.3-.71-.3-.11,0-.22,0-.34.01-.12.01-.23.02-.32.04v4.06h-1.49v-5.08Z" style="fill: #a3ea2a; stroke-width: 0px;"/>
    <path d="m835.26,18.52c0-.38.06-.74.18-1.08.12-.34.3-.63.54-.88s.52-.45.85-.6c.33-.15.71-.22,1.14-.22.28,0,.54.02.77.07.23.05.46.12.68.22l-.31,1.19c-.14-.05-.29-.1-.46-.14s-.35-.06-.56-.06c-.44,0-.77.14-.99.41s-.33.63-.33,1.08c0,.47.1.84.31,1.1.2.26.56.39,1.06.39.18,0,.37-.02.58-.05s.4-.09.57-.16l.21,1.22c-.17.07-.39.14-.65.19-.26.05-.55.08-.86.08-.48,0-.89-.07-1.24-.22-.35-.14-.63-.34-.86-.58-.22-.25-.39-.54-.49-.88-.1-.34-.16-.7-.16-1.09Z" style="fill: #a3ea2a; stroke-width: 0px;"/>
    <path d="m845.18,18.51c0,.41-.06.79-.18,1.14-.12.34-.29.64-.52.88-.23.24-.5.43-.81.56-.32.13-.67.2-1.07.2s-.74-.07-1.05-.2c-.32-.13-.59-.32-.82-.56-.23-.24-.4-.54-.53-.88-.13-.34-.19-.72-.19-1.14s.06-.79.19-1.13c.13-.34.31-.63.54-.87.23-.24.5-.43.82-.56.32-.13.66-.2,1.04-.2s.73.07,1.04.2c.32.13.59.32.82.56.23.24.4.53.53.87.13.34.19.72.19,1.13Zm-1.52,0c0-.46-.09-.82-.27-1.08-.18-.26-.45-.4-.79-.4s-.6.13-.79.4c-.19.26-.28.62-.28,1.08s.09.83.28,1.1.45.4.79.4.6-.13.79-.4c.18-.27.27-.64.27-1.1Z" style="fill: #a3ea2a; stroke-width: 0px;"/>
    <path d="m850.97,20.98c-.13.04-.29.08-.46.11-.17.04-.35.07-.54.1-.19.03-.38.05-.58.06s-.38.02-.56.02c-.43,0-.82-.06-1.16-.19-.34-.13-.63-.31-.86-.54s-.41-.52-.54-.86c-.12-.34-.18-.72-.18-1.14s.05-.81.16-1.15c.11-.34.26-.64.46-.88.2-.24.44-.42.73-.55.29-.13.62-.19,1-.19.21,0,.39.02.56.06.16.04.33.1.49.17v-2.38l1.49-.24v7.59Zm-3.37-2.5c0,.46.1.83.31,1.11.21.28.51.42.92.42.13,0,.26,0,.37-.01.11-.01.21-.02.28-.04v-2.71c-.09-.06-.21-.11-.36-.15-.15-.04-.3-.06-.46-.06-.71,0-1.06.48-1.06,1.44Z" style="fill: #a3ea2a; stroke-width: 0px;"/>
    <path d="m854,14.37c0,.27-.09.49-.26.65-.18.16-.39.23-.62.23s-.45-.08-.62-.23c-.18-.16-.27-.37-.27-.65s.09-.49.27-.65c.18-.16.38-.24.62-.24s.45.08.62.24c.18.16.26.37.26.65Zm-.14,6.78h-1.49v-5.26h1.49v5.26Z" style="fill: #a3ea2a; stroke-width: 0px;"/>
    <path d="m855.26,16.07c.25-.07.58-.14.98-.21.4-.06.82-.09,1.26-.09s.82.06,1.11.17.53.28.71.5c.17.21.3.47.37.76.07.29.11.62.11.98v2.97h-1.49v-2.79c0-.48-.06-.82-.19-1.02-.13-.2-.36-.3-.71-.3-.11,0-.22,0-.34.01-.12.01-.23.02-.32.04v4.06h-1.49v-5.08Z" style="fill: #a3ea2a; stroke-width: 0px;"/>
    <path d="m865.69,20.49c0,.86-.22,1.5-.66,1.92s-1.11.62-2.03.62c-.32,0-.64-.03-.96-.08-.32-.06-.62-.13-.89-.23l.26-1.25c.23.09.48.17.74.22.26.05.55.08.88.08.43,0,.73-.09.91-.28.18-.19.26-.43.26-.72v-.19c-.16.07-.33.13-.5.17s-.35.05-.55.05c-.73,0-1.28-.21-1.67-.65-.39-.43-.58-1.03-.58-1.8,0-.39.06-.74.18-1.06.12-.32.29-.59.53-.81.23-.23.51-.4.84-.52.33-.12.71-.19,1.13-.19.18,0,.37,0,.55.02.19.02.38.04.57.06.19.03.37.06.54.1s.32.07.46.11v4.42Zm-3.27-2.14c0,.83.34,1.25,1.01,1.25.15,0,.3-.02.43-.06.13-.04.25-.09.34-.14v-2.38c-.07-.01-.16-.02-.26-.04-.1,0-.22-.02-.35-.02-.39,0-.69.13-.88.39-.19.26-.29.59-.29.99Z" style="fill: #a3ea2a; stroke-width: 0px;"/>
  </g>
</svg>