<?xml version="1.0" encoding="UTF-8"?>
<svg id="Layer_1" data-name="Layer 1" xmlns="http://www.w3.org/2000/svg" width="1140" height="800" xmlns:xlink="http://www.w3.org/1999/xlink" viewBox="0 0 1140 800">
  <defs>
    <linearGradient id="linear-gradient" x1="1011.82" y1="512.76" x2="1177.36" y2="512.76" gradientTransform="translate(1925.71 166.26) rotate(135)" gradientUnits="userSpaceOnUse">
      <stop offset=".44" stop-color="#223654"/>
      <stop offset=".48" stop-color="#38554c"/>
      <stop offset=".57" stop-color="#5e8940"/>
      <stop offset=".64" stop-color="#7bb336"/>
      <stop offset=".71" stop-color="#91d12f"/>
      <stop offset=".77" stop-color="#9ee32b"/>
      <stop offset=".81" stop-color="#a3ea2a"/>
    </linearGradient>
    <linearGradient id="linear-gradient-2" x1="1166.01" y1="453.03" x2="1331.56" y2="453.03" gradientTransform="translate(956.22 1847.46) rotate(-135)" xlink:href="#linear-gradient"/>
    <linearGradient id="linear-gradient-3" x1="1195.61" y1="639.86" x2="1361.15" y2="639.86" gradientTransform="translate(-1006.9 900.46) rotate(-45)" xlink:href="#linear-gradient"/>
    <linearGradient id="linear-gradient-4" x1="809.24" y1="607.54" x2="955.27" y2="607.54" gradientTransform="translate(1172.05 -716.01) rotate(90)" gradientUnits="userSpaceOnUse">
      <stop offset=".42" stop-color="#223654"/>
      <stop offset=".46" stop-color="#38554c"/>
      <stop offset=".55" stop-color="#5e8940"/>
      <stop offset=".63" stop-color="#7bb336"/>
      <stop offset=".7" stop-color="#91d12f"/>
      <stop offset=".76" stop-color="#9ee32b"/>
      <stop offset=".81" stop-color="#a3ea2a"/>
    </linearGradient>
    <linearGradient id="linear-gradient-5" x1="998.49" y1="437.86" x2="1164.04" y2="437.86" gradientTransform="translate(279.76 -693.04) rotate(45)" xlink:href="#linear-gradient"/>
  </defs>
  <g>
    <g id="arrow_styles_for_diagrams_etc" data-name="arrow styles for diagrams etc">
      <g id="arrow_styles_for_diagrams_etc-2" data-name="arrow styles for diagrams etc">
        <g id="arrow_styles_for_diagrams_etc-3" data-name="arrow styles for diagrams etc">
          <path d="m726.55,638.32l10.87-40.29c.32-1.19,1.81-1.59,2.68-.72l7.59,7.59,44.13-44.13c2.27-2.27,5.94-2.27,8.21,0l6.02,6.02c2.26,2.26,2.26,5.93,0,8.19l-44.14,44.14,7.59,7.59c.87.87.47,2.36-.72,2.68l-40.29,10.87c-1.19.32-2.27-.76-1.95-1.95Z" style="fill: url(#linear-gradient);"/>
        </g>
      </g>
    </g>
    <g id="arrow_styles_for_diagrams_etc-4" data-name="arrow styles for diagrams etc">
      <g id="arrow_styles_for_diagrams_etc-5" data-name="arrow styles for diagrams etc">
        <g id="arrow_styles_for_diagrams_etc-6" data-name="arrow styles for diagrams etc">
          <path d="m332.89,581.5l40.29,10.87c1.19.32,1.59,1.81.72,2.68l-7.59,7.59,44.13,44.13c2.27,2.27,2.27,5.94,0,8.21l-6.02,6.02c-2.26,2.26-5.93,2.26-8.19,0l-44.14-44.14-7.59,7.59c-.87.87-2.36.47-2.68-.72l-10.87-40.29c-.32-1.19.76-2.27,1.95-1.95Z" style="fill: url(#linear-gradient-2);"/>
        </g>
      </g>
    </g>
    <g id="arrow_styles_for_diagrams_etc-7" data-name="arrow styles for diagrams etc">
      <g id="arrow_styles_for_diagrams_etc-8" data-name="arrow styles for diagrams etc">
        <g id="arrow_styles_for_diagrams_etc-9" data-name="arrow styles for diagrams etc">
          <path d="m412.09,388.31l-10.87,40.29c-.32,1.19-1.81,1.59-2.68.72l-7.59-7.59-44.13,44.13c-2.27,2.27-5.94,2.27-8.21,0l-6.02-6.02c-2.26-2.26-2.26-5.93,0-8.19l44.14-44.14-7.59-7.59c-.87-.87-.47-2.36.72-2.68l40.29-10.87c1.19-.32,2.27.76,1.95,1.95Z" style="fill: url(#linear-gradient-3);"/>
        </g>
      </g>
    </g>
    <g id="arrow_styles_for_diagrams_etc-10" data-name="arrow styles for diagrams etc">
      <g id="arrow_styles_for_diagrams_etc-11" data-name="arrow styles for diagrams etc">
        <g id="arrow_styles_for_diagrams_etc-12" data-name="arrow styles for diagrams etc">
          <path d="m563.13,243.02l-20.8-36.18c-.61-1.07.16-2.4,1.39-2.4h10.73v-49.73c0-3.21,2.6-5.81,5.81-5.81h8.52c3.2,0,5.79,2.59,5.79,5.79v49.75h10.73c1.24,0,2,1.34,1.39,2.4l-20.8,36.18c-.61,1.07-2.14,1.07-2.75,0Z" style="fill: url(#linear-gradient-4);"/>
        </g>
      </g>
    </g>
    <g id="arrow_styles_for_diagrams_etc-13" data-name="arrow styles for diagrams etc">
      <g id="arrow_styles_for_diagrams_etc-14" data-name="arrow styles for diagrams etc">
        <g id="arrow_styles_for_diagrams_etc-15" data-name="arrow styles for diagrams etc">
          <path d="m795.36,443.74l-40.29-10.87c-1.19-.32-1.59-1.81-.72-2.68l7.59-7.59-44.13-44.13c-2.27-2.27-2.27-5.94,0-8.21l6.02-6.02c2.26-2.26,5.93-2.26,8.19,0l44.14,44.14,7.59-7.59c.87-.87,2.36-.47,2.68.72l10.87,40.29c.32,1.19-.76,2.27-1.95,1.95Z" style="fill: url(#linear-gradient-5);"/>
        </g>
      </g>
    </g>
    <rect x="396.33" y="29.52" width="336.36" height="124.61" rx="17.88" ry="17.88" style="fill: #223654;"/>
    <g>
      <path d="m518.38,82.78v-24.6h16.61v4.65h-11.08v4.83h9.83v4.54h-9.83v5.93h11.89v4.65h-17.43Z" style="fill: #a3ea2a;"/>
      <path d="m544.64,82.78c-1.21-2.37-2.44-5.14-3.69-8.31-1.25-3.17-2.43-6.63-3.55-10.37h5.61c.24.92.52,1.92.84,3,.32,1.08.65,2.17,1,3.27.34,1.1.69,2.17,1.03,3.21.35,1.04.68,1.99,1.02,2.84.31-.85.64-1.8,1-2.84.36-1.04.71-2.11,1.05-3.21.34-1.1.68-2.19,1-3.27.32-1.08.6-2.08.84-3h5.47c-1.12,3.74-2.3,7.2-3.54,10.37-1.25,3.17-2.47,5.94-3.69,8.31h-4.39Z" style="fill: #a3ea2a;"/>
      <path d="m557.68,73.58c0-1.66.25-3.11.76-4.35.51-1.24,1.18-2.28,2.01-3.11.83-.83,1.78-1.46,2.86-1.88,1.08-.43,2.18-.64,3.32-.64,2.65,0,4.74.81,6.28,2.43,1.54,1.62,2.31,4.01,2.31,7.15,0,.31-.01.65-.04,1.01-.02.37-.05.69-.07.98h-12c.12,1.09.63,1.95,1.53,2.59.9.64,2.11.96,3.62.96.97,0,1.92-.09,2.86-.27.93-.18,1.7-.4,2.29-.66l.71,4.3c-.28.14-.66.28-1.14.43-.47.14-1,.27-1.58.37-.58.11-1.2.2-1.86.27-.66.07-1.33.11-1.99.11-1.68,0-3.14-.25-4.38-.75-1.24-.5-2.27-1.18-3.09-2.04-.82-.86-1.42-1.89-1.81-3.07-.39-1.18-.59-2.46-.59-3.83Zm12.43-2.02c-.02-.45-.1-.89-.23-1.31-.13-.43-.33-.8-.6-1.14-.27-.33-.62-.6-1.03-.82-.41-.21-.93-.32-1.54-.32s-1.1.1-1.53.3c-.43.2-.78.47-1.06.8-.28.33-.5.72-.66,1.15-.15.44-.27.88-.34,1.33h6.99Z" style="fill: #a3ea2a;"/>
      <path d="m579.3,64.75c.9-.26,2.06-.5,3.48-.73,1.42-.22,2.91-.34,4.47-.34s2.91.21,3.96.62c1.05.41,1.89,1,2.5,1.76.62.76,1.05,1.66,1.31,2.7.26,1.04.39,2.2.39,3.48v10.54h-5.29v-9.91c0-1.7-.23-2.91-.67-3.62s-1.29-1.06-2.52-1.06c-.38,0-.78.02-1.21.05-.43.04-.8.08-1.14.12v14.41h-5.29v-18.04Z" style="fill: #a3ea2a;"/>
      <path d="m600.03,59.46l5.29-.85v5.5h6.35v4.4h-6.35v6.57c0,1.11.2,2,.59,2.66.39.66,1.18.99,2.36.99.57,0,1.15-.05,1.76-.16s1.15-.25,1.65-.44l.75,4.12c-.64.26-1.35.49-2.13.67-.78.19-1.74.28-2.88.28-1.44,0-2.64-.2-3.59-.59-.95-.39-1.7-.93-2.27-1.63-.57-.7-.96-1.54-1.19-2.54-.22-.99-.34-2.09-.34-3.3v-15.69Z" style="fill: #a3ea2a;"/>
      <path d="m481.6,128.43c-1.59-2.82-3.3-5.6-5.15-8.34-1.85-2.75-3.81-5.34-5.89-7.77v16.12h-5.47v-24.6h4.51c.78.78,1.64,1.74,2.59,2.88s1.91,2.35,2.89,3.64c.98,1.29,1.96,2.63,2.93,4.01.97,1.38,1.88,2.72,2.73,3.99v-14.52h5.5v24.6h-4.65Z" style="fill: #a3ea2a;"/>
      <path d="m509.04,119.05c0,1.47-.21,2.81-.64,4.03-.43,1.22-1.04,2.26-1.85,3.12-.81.86-1.77,1.53-2.89,2.01-1.12.47-2.38.71-3.78.71s-2.62-.24-3.75-.71c-1.12-.47-2.09-1.14-2.89-2.01-.81-.86-1.43-1.91-1.88-3.12-.45-1.22-.67-2.56-.67-4.03s.23-2.8.69-4.01,1.1-2.24,1.92-3.09,1.79-1.51,2.91-1.99c1.12-.47,2.35-.71,3.67-.71s2.59.24,3.71.71c1.12.47,2.09,1.14,2.89,1.99s1.43,1.88,1.88,3.09c.45,1.21.67,2.54.67,4.01Zm-5.4,0c0-1.63-.33-2.92-.98-3.85-.65-.93-1.58-1.4-2.79-1.4s-2.14.47-2.8,1.4c-.66.94-.99,2.22-.99,3.85s.33,2.93.99,3.89c.66.96,1.6,1.44,2.8,1.44s2.14-.48,2.79-1.44c.65-.96.98-2.25.98-3.89Z" style="fill: #a3ea2a;"/>
      <path d="m512.94,105.1l5.29-.85v5.5h6.35v4.4h-6.35v6.57c0,1.11.2,2,.59,2.66.39.66,1.18.99,2.36.99.57,0,1.15-.05,1.76-.16s1.15-.25,1.65-.44l.75,4.12c-.64.26-1.35.49-2.13.67-.78.19-1.74.28-2.88.28-1.44,0-2.64-.2-3.59-.59-.95-.39-1.7-.93-2.27-1.63-.57-.7-.96-1.54-1.19-2.54-.23-.99-.34-2.09-.34-3.3v-15.69Z" style="fill: #a3ea2a;"/>
      <path d="m534.67,104.36c0,.97-.31,1.73-.94,2.29-.63.56-1.37.83-2.22.83s-1.59-.28-2.22-.83c-.63-.56-.94-1.32-.94-2.29s.31-1.73.94-2.29c.63-.56,1.37-.83,2.22-.83s1.59.28,2.22.83c.63.56.94,1.32.94,2.29Zm-.5,24.07h-5.29v-18.67h5.29v18.67Z" style="fill: #a3ea2a;"/>
      <path d="m547.24,100.88c.99,0,1.82.08,2.47.25.65.17,1.2.34,1.65.53l-.92,4.15c-.38-.17-.8-.28-1.26-.35-.46-.07-.93-.11-1.4-.11-.64,0-1.18.09-1.62.27-.44.18-.78.42-1.03.73-.25.31-.43.67-.53,1.1-.11.43-.16.89-.16,1.38v.92h6.53v4.4h-6.53v14.27h-5.29v-19.67c0-2.41.68-4.33,2.04-5.75,1.36-1.42,3.38-2.13,6.05-2.13Zm12.57,3.48c0,.97-.31,1.73-.94,2.29-.63.56-1.37.83-2.22.83s-1.59-.28-2.22-.83c-.63-.56-.94-1.32-.94-2.29s.31-1.73.94-2.29c.63-.56,1.37-.83,2.22-.83s1.59.28,2.22.83c.63.56.94,1.32.94,2.29Zm-.5,24.07h-5.29v-18.67h5.29v18.67Z" style="fill: #a3ea2a;"/>
      <path d="m563.39,119.09c0-1.35.22-2.62.66-3.82.44-1.19,1.07-2.24,1.9-3.12.83-.89,1.83-1.59,3.02-2.11,1.18-.52,2.53-.78,4.05-.78.99,0,1.91.09,2.73.27.83.18,1.63.43,2.41.76l-1.1,4.22c-.5-.19-1.04-.35-1.63-.5s-1.25-.21-1.99-.21c-1.56,0-2.73.49-3.5,1.46-.77.97-1.15,2.25-1.15,3.83,0,1.68.36,2.98,1.08,3.91.72.92,1.98,1.38,3.78,1.38.64,0,1.33-.06,2.06-.18.73-.12,1.41-.31,2.02-.57l.75,4.33c-.62.26-1.38.48-2.31.67-.92.19-1.94.28-3.05.28-1.7,0-3.17-.25-4.4-.76-1.23-.51-2.24-1.2-3.04-2.08-.79-.88-1.37-1.91-1.74-3.11-.37-1.19-.55-2.49-.55-3.89Z" style="fill: #a3ea2a;"/>
      <path d="m587.85,109.25c1.56,0,2.86.18,3.91.53,1.04.35,1.88.86,2.5,1.53.63.66,1.07,1.47,1.33,2.41.26.95.39,2,.39,3.16v11.01c-.76.17-1.81.36-3.16.59-1.35.22-2.98.34-4.9.34-1.21,0-2.3-.11-3.28-.32-.98-.21-1.83-.56-2.54-1.05-.71-.48-1.25-1.12-1.63-1.9-.38-.78-.57-1.74-.57-2.88s.22-2.01.66-2.77c.44-.76,1.02-1.36,1.76-1.81.73-.45,1.57-.77,2.52-.98.95-.2,1.93-.3,2.95-.3.69,0,1.3.03,1.83.09.53.06.96.14,1.3.23v-.5c0-.9-.27-1.62-.82-2.17-.54-.54-1.49-.82-2.84-.82-.9,0-1.79.07-2.66.2-.88.13-1.63.31-2.27.55l-.67-4.26c.31-.09.69-.2,1.15-.3.46-.11.96-.2,1.51-.28.54-.08,1.12-.15,1.72-.21.6-.06,1.21-.09,1.83-.09Zm.43,15.48c.52,0,1.02-.01,1.49-.04.47-.02.85-.06,1.14-.11v-4.01c-.21-.05-.53-.09-.96-.14-.43-.05-.82-.07-1.17-.07-.5,0-.96.03-1.4.09-.44.06-.82.17-1.15.34-.33.17-.59.39-.78.67-.19.28-.28.64-.28,1.06,0,.83.28,1.4.83,1.72.56.32,1.32.48,2.29.48Z" style="fill: #a3ea2a;"/>
      <path d="m600.6,105.1l5.29-.85v5.5h6.35v4.4h-6.35v6.57c0,1.11.2,2,.59,2.66.39.66,1.18.99,2.36.99.57,0,1.15-.05,1.76-.16s1.15-.25,1.65-.44l.75,4.12c-.64.26-1.35.49-2.13.67-.78.19-1.74.28-2.88.28-1.44,0-2.64-.2-3.59-.59-.95-.39-1.7-.93-2.27-1.63-.57-.7-.96-1.54-1.19-2.54-.22-.99-.34-2.09-.34-3.3v-15.69Z" style="fill: #a3ea2a;"/>
      <path d="m622.33,104.36c0,.97-.31,1.73-.94,2.29-.63.56-1.37.83-2.22.83s-1.59-.28-2.22-.83c-.63-.56-.94-1.32-.94-2.29s.31-1.73.94-2.29c.63-.56,1.37-.83,2.22-.83s1.59.28,2.22.83.94,1.32.94,2.29Zm-.5,24.07h-5.29v-18.67h5.29v18.67Z" style="fill: #a3ea2a;"/>
      <path d="m644.27,119.05c0,1.47-.21,2.81-.64,4.03-.43,1.22-1.04,2.26-1.85,3.12-.8.86-1.77,1.53-2.89,2.01s-2.38.71-3.78.71-2.62-.24-3.75-.71-2.09-1.14-2.89-2.01c-.8-.86-1.43-1.91-1.88-3.12-.45-1.22-.67-2.56-.67-4.03s.23-2.8.69-4.01c.46-1.21,1.1-2.24,1.92-3.09s1.79-1.51,2.91-1.99c1.12-.47,2.35-.71,3.67-.71s2.58.24,3.71.71c1.12.47,2.09,1.14,2.89,1.99.8.85,1.43,1.88,1.88,3.09.45,1.21.67,2.54.67,4.01Zm-5.4,0c0-1.63-.33-2.92-.98-3.85-.65-.93-1.58-1.4-2.79-1.4s-2.14.47-2.8,1.4c-.66.94-.99,2.22-.99,3.85s.33,2.93.99,3.89c.66.96,1.6,1.44,2.8,1.44s2.14-.48,2.79-1.44c.65-.96.98-2.25.98-3.89Z" style="fill: #a3ea2a;"/>
      <path d="m648.35,110.39c.9-.26,2.06-.5,3.48-.73,1.42-.22,2.91-.34,4.47-.34s2.91.21,3.96.62c1.05.41,1.89,1,2.5,1.76.62.76,1.05,1.66,1.31,2.7.26,1.04.39,2.2.39,3.48v10.54h-5.29v-9.91c0-1.7-.23-2.91-.67-3.62s-1.29-1.06-2.52-1.06c-.38,0-.78.02-1.21.05-.43.04-.8.08-1.14.12v14.41h-5.29v-18.04Z" style="fill: #a3ea2a;"/>
    </g>
    <rect x="396.33" y="255.39" width="336.36" height="124.61" rx="17.88" ry="17.88" style="fill: #223654;"/>
    <g>
      <path d="m458,319.15c0,2.13-.33,3.99-.99,5.57-.66,1.59-1.6,2.9-2.82,3.94-1.22,1.04-2.7,1.82-4.46,2.34-1.75.52-3.72.78-5.89.78-.99,0-2.15-.04-3.48-.12-1.33-.08-2.63-.25-3.91-.51v-23.96c1.28-.24,2.61-.4,3.99-.48,1.38-.08,2.57-.12,3.57-.12,2.11,0,4.02.24,5.73.71,1.72.47,3.19,1.22,4.42,2.24,1.23,1.02,2.18,2.32,2.84,3.91.66,1.59.99,3.49.99,5.72Zm-16.01,7.81c.26.02.56.04.91.05.34.01.75.02,1.23.02,2.77,0,4.82-.7,6.16-2.09,1.34-1.4,2.01-3.33,2.01-5.79s-.64-4.53-1.92-5.86c-1.28-1.33-3.3-1.99-6.07-1.99-.38,0-.77,0-1.17.02-.4.01-.78.04-1.14.09v15.55Z" style="fill: #a3ea2a;"/>
      <path d="m479.73,322.1c0,1.47-.21,2.81-.64,4.03-.43,1.22-1.04,2.26-1.85,3.12-.81.86-1.77,1.53-2.89,2.01-1.12.47-2.38.71-3.78.71s-2.62-.24-3.75-.71c-1.12-.47-2.09-1.14-2.89-2.01-.81-.86-1.43-1.91-1.88-3.12-.45-1.22-.67-2.56-.67-4.03s.23-2.8.69-4.01,1.1-2.24,1.92-3.09,1.79-1.51,2.91-1.99c1.12-.47,2.35-.71,3.67-.71s2.59.24,3.71.71c1.12.47,2.09,1.14,2.89,1.99s1.43,1.88,1.88,3.09c.45,1.21.67,2.54.67,4.01Zm-5.4,0c0-1.63-.33-2.92-.98-3.85-.65-.93-1.58-1.4-2.79-1.4s-2.14.47-2.8,1.4c-.66.94-.99,2.22-.99,3.85s.33,2.93.99,3.89c.66.96,1.6,1.44,2.8,1.44s2.14-.48,2.79-1.44c.65-.96.98-2.25.98-3.89Z" style="fill: #a3ea2a;"/>
      <path d="m482.93,322.13c0-1.35.22-2.62.66-3.82.44-1.19,1.07-2.24,1.9-3.12.83-.89,1.83-1.59,3.02-2.11,1.18-.52,2.53-.78,4.05-.78.99,0,1.9.09,2.73.27.83.18,1.63.43,2.41.76l-1.1,4.22c-.5-.19-1.04-.35-1.63-.5-.59-.14-1.25-.21-1.99-.21-1.56,0-2.73.49-3.5,1.46-.77.97-1.15,2.25-1.15,3.83,0,1.68.36,2.98,1.08,3.91.72.92,1.98,1.38,3.78,1.38.64,0,1.33-.06,2.06-.18.73-.12,1.41-.31,2.02-.57l.75,4.33c-.62.26-1.38.48-2.31.67-.92.19-1.94.28-3.05.28-1.7,0-3.17-.25-4.4-.76-1.23-.51-2.24-1.2-3.04-2.08-.79-.88-1.37-1.91-1.74-3.11-.37-1.19-.55-2.49-.55-3.89Z" style="fill: #a3ea2a;"/>
      <path d="m517.51,330.83c-.9.26-2.06.5-3.48.73-1.42.22-2.91.34-4.47.34s-2.91-.21-3.96-.64c-1.05-.43-1.89-1.02-2.5-1.79-.62-.77-1.05-1.69-1.31-2.75-.26-1.06-.39-2.24-.39-3.51v-10.4h5.29v9.76c0,1.7.22,2.94.67,3.69.45.76,1.29,1.14,2.52,1.14.38,0,.78-.02,1.21-.05.43-.04.8-.08,1.14-.12v-14.41h5.29v18.04Z" style="fill: #a3ea2a;"/>
      <path d="m532.74,321.56c0-1.7-.22-2.91-.66-3.62s-1.19-1.06-2.25-1.06c-.33,0-.67.02-1.03.05-.35.04-.7.08-1.03.12v14.41h-5.29v-18.04c.45-.12.98-.24,1.58-.37.6-.13,1.24-.25,1.92-.35.67-.11,1.37-.19,2.08-.25.71-.06,1.41-.09,2.09-.09,1.35,0,2.44.17,3.28.51.84.34,1.53.75,2.08,1.22.76-.54,1.63-.97,2.61-1.28.98-.31,1.89-.46,2.72-.46,1.49,0,2.72.21,3.67.62.96.41,1.72,1,2.29,1.76.57.76.96,1.66,1.17,2.7.21,1.04.32,2.2.32,3.48v10.54h-5.29v-9.91c0-1.7-.22-2.91-.66-3.62s-1.19-1.06-2.25-1.06c-.28,0-.68.07-1.19.21s-.93.32-1.26.53c.17.54.27,1.12.32,1.72.05.6.07,1.25.07,1.94v10.19h-5.29v-9.91Z" style="fill: #a3ea2a;"/>
      <path d="m552.19,322.27c0-1.66.25-3.11.76-4.35.51-1.24,1.18-2.28,2.01-3.11.83-.83,1.78-1.46,2.86-1.88,1.08-.43,2.18-.64,3.32-.64,2.65,0,4.75.81,6.28,2.43,1.54,1.62,2.31,4.01,2.31,7.15,0,.31-.01.65-.04,1.01-.02.37-.05.69-.07.98h-12c.12,1.09.63,1.95,1.53,2.59.9.64,2.11.96,3.62.96.97,0,1.92-.09,2.86-.27.93-.18,1.7-.4,2.29-.66l.71,4.3c-.28.14-.66.28-1.14.43-.47.14-1,.27-1.58.37-.58.11-1.2.2-1.86.27-.66.07-1.33.11-1.99.11-1.68,0-3.14-.25-4.38-.75-1.24-.5-2.27-1.18-3.09-2.04-.82-.86-1.42-1.89-1.81-3.07-.39-1.18-.59-2.46-.59-3.83Zm12.43-2.02c-.02-.45-.1-.89-.23-1.31-.13-.43-.33-.8-.6-1.14-.27-.33-.62-.6-1.03-.82-.41-.21-.93-.32-1.54-.32s-1.1.1-1.53.3c-.43.2-.78.47-1.06.8-.28.33-.5.72-.66,1.15-.15.44-.27.88-.34,1.33h6.99Z" style="fill: #a3ea2a;"/>
      <path d="m573.81,313.43c.9-.26,2.06-.5,3.48-.73,1.42-.22,2.91-.34,4.47-.34s2.91.21,3.96.62c1.05.41,1.89,1,2.5,1.76.62.76,1.05,1.66,1.31,2.7.26,1.04.39,2.2.39,3.48v10.54h-5.29v-9.91c0-1.7-.23-2.91-.67-3.62s-1.29-1.06-2.52-1.06c-.38,0-.78.02-1.21.05-.43.04-.8.08-1.14.12v14.41h-5.29v-18.04Z" style="fill: #a3ea2a;"/>
      <path d="m594.54,308.14l5.29-.85v5.5h6.35v4.4h-6.35v6.57c0,1.11.2,2,.59,2.66.39.66,1.18.99,2.36.99.57,0,1.15-.05,1.76-.16s1.15-.25,1.65-.44l.75,4.12c-.64.26-1.35.49-2.13.67-.78.19-1.74.28-2.88.28-1.44,0-2.64-.2-3.59-.59-.95-.39-1.7-.93-2.27-1.63-.57-.7-.96-1.54-1.19-2.54-.22-.99-.34-2.09-.34-3.3v-15.69Z" style="fill: #a3ea2a;"/>
      <path d="m616.49,312.3c1.56,0,2.86.18,3.91.53,1.04.35,1.88.86,2.5,1.53.63.66,1.07,1.47,1.33,2.41.26.95.39,2,.39,3.16v11.01c-.76.17-1.81.36-3.16.59-1.35.22-2.98.34-4.9.34-1.21,0-2.3-.11-3.28-.32-.98-.21-1.83-.56-2.54-1.05-.71-.48-1.25-1.12-1.63-1.9-.38-.78-.57-1.74-.57-2.88s.22-2.01.66-2.77c.44-.76,1.02-1.36,1.76-1.81.73-.45,1.57-.77,2.52-.98.95-.2,1.93-.3,2.95-.3.69,0,1.3.03,1.83.09.53.06.96.14,1.3.23v-.5c0-.9-.27-1.62-.82-2.17-.54-.54-1.49-.82-2.84-.82-.9,0-1.79.07-2.66.2-.88.13-1.63.31-2.27.55l-.67-4.26c.31-.09.69-.2,1.15-.3.46-.11.96-.2,1.51-.28.54-.08,1.12-.15,1.72-.21.6-.06,1.21-.09,1.83-.09Zm.43,15.48c.52,0,1.02-.01,1.49-.04.47-.02.85-.06,1.14-.11v-4.01c-.21-.05-.53-.09-.96-.14-.43-.05-.82-.07-1.17-.07-.5,0-.96.03-1.4.09-.44.06-.82.17-1.15.34-.33.17-.59.39-.78.67-.19.28-.28.64-.28,1.06,0,.83.28,1.4.83,1.72.56.32,1.32.48,2.29.48Z" style="fill: #a3ea2a;"/>
      <path d="m629.23,308.14l5.29-.85v5.5h6.35v4.4h-6.35v6.57c0,1.11.2,2,.59,2.66.39.66,1.18.99,2.36.99.57,0,1.15-.05,1.76-.16s1.15-.25,1.65-.44l.75,4.12c-.64.26-1.35.49-2.13.67-.78.19-1.74.28-2.88.28-1.44,0-2.64-.2-3.59-.59-.95-.39-1.7-.93-2.27-1.63-.57-.7-.96-1.54-1.19-2.54-.22-.99-.34-2.09-.34-3.3v-15.69Z" style="fill: #a3ea2a;"/>
      <path d="m650.96,307.4c0,.97-.31,1.73-.94,2.29-.63.56-1.37.83-2.22.83s-1.59-.28-2.22-.83c-.63-.56-.94-1.32-.94-2.29s.31-1.73.94-2.29c.63-.56,1.37-.83,2.22-.83s1.59.28,2.22.83.94,1.32.94,2.29Zm-.5,24.07h-5.29v-18.67h5.29v18.67Z" style="fill: #a3ea2a;"/>
      <path d="m672.9,322.1c0,1.47-.21,2.81-.64,4.03-.43,1.22-1.04,2.26-1.85,3.12-.8.86-1.77,1.53-2.89,2.01s-2.38.71-3.78.71-2.62-.24-3.75-.71-2.09-1.14-2.89-2.01c-.8-.86-1.43-1.91-1.88-3.12-.45-1.22-.67-2.56-.67-4.03s.23-2.8.69-4.01c.46-1.21,1.1-2.24,1.92-3.09s1.79-1.51,2.91-1.99c1.12-.47,2.35-.71,3.67-.71s2.58.24,3.71.71c1.12.47,2.09,1.14,2.89,1.99.8.85,1.43,1.88,1.88,3.09.45,1.21.67,2.54.67,4.01Zm-5.4,0c0-1.63-.33-2.92-.98-3.85-.65-.93-1.58-1.4-2.79-1.4s-2.14.47-2.8,1.4c-.66.94-.99,2.22-.99,3.85s.33,2.93.99,3.89c.66.96,1.6,1.44,2.8,1.44s2.14-.48,2.79-1.44c.65-.96.98-2.25.98-3.89Z" style="fill: #a3ea2a;"/>
      <path d="m676.98,313.43c.9-.26,2.06-.5,3.48-.73,1.42-.22,2.91-.34,4.47-.34s2.91.21,3.96.62c1.05.41,1.89,1,2.5,1.76.62.76,1.05,1.66,1.31,2.7.26,1.04.39,2.2.39,3.48v10.54h-5.29v-9.91c0-1.7-.23-2.91-.67-3.62s-1.29-1.06-2.52-1.06c-.38,0-.78.02-1.21.05-.43.04-.8.08-1.14.12v14.41h-5.29v-18.04Z" style="fill: #a3ea2a;"/>
    </g>
    <rect x="396.33" y="645.86" width="336.36" height="124.61" rx="17.88" ry="17.88" style="fill: #223654;"/>
    <g>
      <path d="m511.75,699.12c-.27-.85-.57-1.73-.88-2.63-.31-.9-.63-1.8-.94-2.69h-9.61c-.31.9-.62,1.8-.93,2.7-.31.9-.6,1.78-.87,2.63h-5.75c.93-2.65,1.8-5.1,2.63-7.35.83-2.25,1.64-4.37,2.44-6.36s1.58-3.88,2.35-5.66c.77-1.79,1.57-3.53,2.4-5.24h5.25c.81,1.7,1.6,3.45,2.39,5.24s1.58,3.67,2.37,5.66,1.61,4.11,2.44,6.36c.83,2.25,1.71,4.7,2.64,7.35h-5.93Zm-6.65-19.03c-.12.36-.3.84-.54,1.46-.24.62-.51,1.33-.81,2.13-.3.81-.64,1.69-1.02,2.66s-.76,1.99-1.15,3.05h7.04c-.38-1.07-.74-2.09-1.09-3.06-.35-.97-.69-1.86-1.01-2.67-.32-.81-.6-1.52-.84-2.13s-.43-1.1-.58-1.45Z" style="fill: #a3ea2a;"/>
      <path d="m531.74,685.13c-.47-.12-1.03-.24-1.67-.37s-1.33-.2-2.06-.2c-.33,0-.73.03-1.19.09-.46.06-.81.12-1.05.2v14.27h-5.29v-17.68c.95-.33,2.06-.64,3.35-.94,1.29-.3,2.73-.44,4.31-.44.28,0,.63.02,1.03.05.4.04.8.08,1.21.14.4.06.8.13,1.21.21.4.08.75.18,1.03.3l-.89,4.37Z" style="fill: #a3ea2a;"/>
      <path d="m535.29,675.8l5.29-.85v5.5h6.35v4.4h-6.35v6.57c0,1.11.2,2,.59,2.66.39.66,1.18.99,2.36.99.57,0,1.15-.05,1.76-.16s1.15-.25,1.65-.44l.75,4.12c-.64.26-1.35.49-2.13.67-.78.19-1.74.28-2.88.28-1.44,0-2.64-.2-3.59-.59-.95-.39-1.7-.93-2.27-1.63-.57-.7-.96-1.54-1.19-2.54-.23-.99-.34-2.09-.34-3.3v-15.69Z" style="fill: #a3ea2a;"/>
      <path d="m549.64,689.93c0-1.66.25-3.11.76-4.35.51-1.24,1.18-2.28,2.01-3.11.83-.83,1.78-1.46,2.86-1.88,1.08-.43,2.18-.64,3.32-.64,2.65,0,4.75.81,6.28,2.43,1.54,1.62,2.31,4.01,2.31,7.15,0,.31-.01.65-.04,1.01-.02.37-.05.69-.07.98h-12c.12,1.09.63,1.95,1.53,2.59.9.64,2.11.96,3.62.96.97,0,1.92-.09,2.86-.27.93-.18,1.7-.4,2.29-.66l.71,4.3c-.28.14-.66.28-1.14.43-.47.14-1,.27-1.58.37-.58.11-1.2.2-1.86.27-.66.07-1.33.11-1.99.11-1.68,0-3.14-.25-4.38-.75-1.24-.5-2.27-1.18-3.09-2.04-.82-.86-1.42-1.89-1.81-3.07-.39-1.18-.59-2.46-.59-3.83Zm12.43-2.02c-.02-.45-.1-.89-.23-1.31-.13-.43-.33-.8-.6-1.14-.27-.33-.62-.6-1.03-.82-.41-.21-.93-.32-1.54-.32s-1.1.1-1.53.3c-.43.2-.78.47-1.06.8-.28.33-.5.72-.66,1.15-.15.44-.27.88-.34,1.33h6.99Z" style="fill: #a3ea2a;"/>
      <path d="m579.35,671.57c.99,0,1.9.1,2.73.3.83.2,1.47.4,1.92.59l-1.03,4.22c-.47-.21-.99-.37-1.54-.48-.56-.11-1.07-.16-1.54-.16-.64,0-1.18.09-1.62.27-.44.18-.78.42-1.03.73-.25.31-.43.67-.53,1.1-.11.43-.16.89-.16,1.38v.92h6.53v4.4h-6.53v14.27h-5.29v-19.67c0-2.41.68-4.33,2.04-5.75s3.38-2.13,6.05-2.13Z" style="fill: #a3ea2a;"/>
      <path d="m592.67,679.95c1.56,0,2.86.18,3.91.53,1.04.35,1.88.86,2.5,1.53.63.66,1.07,1.47,1.33,2.41.26.95.39,2,.39,3.16v11.01c-.76.17-1.81.36-3.16.59-1.35.22-2.98.34-4.9.34-1.21,0-2.3-.11-3.28-.32-.98-.21-1.83-.56-2.54-1.05-.71-.48-1.25-1.12-1.63-1.9-.38-.78-.57-1.74-.57-2.88s.22-2.01.66-2.77c.44-.76,1.02-1.36,1.76-1.81.73-.45,1.57-.78,2.52-.98.95-.2,1.93-.3,2.95-.3.69,0,1.3.03,1.83.09.53.06.96.14,1.3.23v-.5c0-.9-.27-1.62-.82-2.17-.54-.54-1.49-.82-2.84-.82-.9,0-1.79.07-2.66.2s-1.63.31-2.27.55l-.67-4.26c.31-.09.69-.19,1.15-.3.46-.11.96-.2,1.51-.28.54-.08,1.12-.15,1.72-.21.6-.06,1.21-.09,1.83-.09Zm.43,15.48c.52,0,1.02-.01,1.49-.04.47-.02.85-.06,1.14-.11v-4.01c-.21-.05-.53-.09-.96-.14-.43-.05-.82-.07-1.17-.07-.5,0-.96.03-1.4.09-.44.06-.82.17-1.15.34-.33.17-.59.39-.78.67-.19.28-.28.64-.28,1.06,0,.83.28,1.4.83,1.72.56.32,1.32.48,2.29.48Z" style="fill: #a3ea2a;"/>
      <path d="m604.7,689.79c0-1.35.22-2.62.66-3.82.44-1.2,1.07-2.24,1.9-3.12.83-.89,1.83-1.59,3.02-2.11,1.18-.52,2.53-.78,4.05-.78.99,0,1.91.09,2.73.27s1.63.43,2.41.76l-1.1,4.22c-.5-.19-1.04-.35-1.63-.5-.59-.14-1.25-.21-1.99-.21-1.56,0-2.73.49-3.5,1.46s-1.15,2.25-1.15,3.83c0,1.68.36,2.98,1.08,3.91.72.92,1.98,1.38,3.78,1.38.64,0,1.33-.06,2.06-.18.73-.12,1.41-.31,2.02-.57l.75,4.33c-.62.26-1.38.49-2.31.67-.92.19-1.94.28-3.05.28-1.7,0-3.17-.25-4.4-.76s-2.24-1.2-3.04-2.08-1.37-1.91-1.74-3.11-.55-2.49-.55-3.89Z" style="fill: #a3ea2a;"/>
      <path d="m623.16,675.8l5.29-.85v5.5h6.35v4.4h-6.35v6.57c0,1.11.2,2,.59,2.66.39.66,1.18.99,2.36.99.57,0,1.15-.05,1.76-.16s1.15-.25,1.65-.44l.75,4.12c-.64.26-1.35.49-2.13.67-.78.19-1.74.28-2.88.28-1.44,0-2.64-.2-3.59-.59-.95-.39-1.7-.93-2.27-1.63-.57-.7-.96-1.54-1.19-2.54s-.34-2.09-.34-3.3v-15.69Z" style="fill: #a3ea2a;"/>
      <path d="m452.13,720.16h5.54v24.6h-5.54v-24.6Z" style="fill: #a3ea2a;"/>
      <path d="m479.47,744.16c-.47.14-1.02.28-1.63.41-.62.13-1.26.24-1.94.34-.67.09-1.36.17-2.06.23-.7.06-1.37.09-2.01.09-1.54,0-2.91-.23-4.12-.67s-2.23-1.09-3.05-1.93c-.83-.84-1.46-1.86-1.9-3.05-.44-1.19-.66-2.54-.66-4.03s.19-2.88.57-4.1c.38-1.22.92-2.25,1.63-3.11.71-.85,1.58-1.5,2.61-1.95,1.03-.45,2.21-.67,3.53-.67.73,0,1.39.07,1.97.21.58.14,1.17.34,1.76.6v-8.45l5.29-.85v26.95Zm-11.96-8.88c0,1.63.37,2.95,1.1,3.94.73.99,1.82,1.49,3.27,1.49.47,0,.91-.02,1.31-.05.4-.04.73-.08.99-.12v-9.62c-.33-.21-.76-.39-1.3-.53-.53-.14-1.07-.21-1.62-.21-2.51,0-3.76,1.7-3.76,5.11Z" style="fill: #a3ea2a;"/>
      <path d="m483.55,735.57c0-1.66.25-3.11.76-4.35.51-1.24,1.18-2.28,2.01-3.11.83-.83,1.78-1.46,2.86-1.88,1.08-.43,2.18-.64,3.32-.64,2.65,0,4.75.81,6.28,2.43,1.54,1.62,2.31,4.01,2.31,7.15,0,.31-.01.65-.04,1.01-.02.37-.05.69-.07.98h-12c.12,1.09.63,1.95,1.53,2.59.9.64,2.11.96,3.62.96.97,0,1.92-.09,2.86-.27.93-.18,1.7-.4,2.29-.66l.71,4.3c-.28.14-.66.28-1.14.43-.47.14-1,.27-1.58.37-.58.11-1.2.2-1.86.27-.66.07-1.33.11-1.99.11-1.68,0-3.14-.25-4.38-.75-1.24-.5-2.27-1.18-3.09-2.04-.82-.86-1.42-1.89-1.81-3.07-.39-1.18-.59-2.46-.59-3.83Zm12.43-2.02c-.02-.45-.1-.89-.23-1.31-.13-.43-.33-.8-.6-1.14-.27-.33-.62-.6-1.03-.82-.41-.21-.93-.32-1.54-.32s-1.1.1-1.53.3c-.43.2-.78.47-1.06.8-.28.33-.5.72-.66,1.15-.15.44-.27.88-.34,1.33h6.99Z" style="fill: #a3ea2a;"/>
      <path d="m505.17,726.73c.9-.26,2.06-.5,3.48-.73s2.91-.34,4.47-.34,2.91.21,3.96.62,1.89,1,2.5,1.76c.62.76,1.05,1.66,1.31,2.7.26,1.04.39,2.2.39,3.48v10.54h-5.29v-9.91c0-1.7-.23-2.91-.67-3.62s-1.29-1.07-2.52-1.07c-.38,0-.78.02-1.21.05-.43.04-.81.08-1.14.12v14.41h-5.29v-18.04Z" style="fill: #a3ea2a;"/>
      <path d="m525.9,721.44l5.29-.85v5.5h6.35v4.4h-6.35v6.57c0,1.11.2,2,.59,2.66.39.66,1.18.99,2.36.99.57,0,1.15-.05,1.76-.16s1.15-.25,1.65-.44l.75,4.12c-.64.26-1.35.49-2.13.67-.78.19-1.74.28-2.88.28-1.44,0-2.64-.2-3.59-.59-.95-.39-1.7-.93-2.27-1.63-.57-.7-.96-1.54-1.19-2.54-.23-.99-.34-2.09-.34-3.3v-15.69Z" style="fill: #a3ea2a;"/>
      <path d="m547.63,720.7c0,.97-.31,1.73-.94,2.29-.63.56-1.37.83-2.22.83s-1.59-.28-2.22-.83c-.63-.56-.94-1.32-.94-2.29s.31-1.73.94-2.29c.63-.56,1.37-.83,2.22-.83s1.59.28,2.22.83c.63.56.94,1.32.94,2.29Zm-.5,24.07h-5.29v-18.67h5.29v18.67Z" style="fill: #a3ea2a;"/>
      <path d="m560.2,717.22c.99,0,1.82.08,2.47.25.65.17,1.2.34,1.65.53l-.92,4.15c-.38-.17-.8-.28-1.26-.35-.46-.07-.93-.11-1.4-.11-.64,0-1.18.09-1.62.27-.44.18-.78.42-1.03.73s-.43.67-.53,1.1c-.11.43-.16.89-.16,1.38v.92h6.53v4.4h-6.53v14.27h-5.29v-19.67c0-2.41.68-4.33,2.04-5.75,1.36-1.42,3.38-2.13,6.05-2.13Zm12.57,3.48c0,.97-.31,1.73-.94,2.29-.63.56-1.37.83-2.22.83s-1.59-.28-2.22-.83c-.63-.56-.94-1.32-.94-2.29s.31-1.73.94-2.29c.63-.56,1.37-.83,2.22-.83s1.59.28,2.22.83c.63.56.94,1.32.94,2.29Zm-.5,24.07h-5.29v-18.67h5.29v18.67Z" style="fill: #a3ea2a;"/>
      <path d="m576.35,735.43c0-1.35.22-2.62.66-3.82.44-1.2,1.07-2.24,1.9-3.12.83-.89,1.83-1.59,3.02-2.11,1.18-.52,2.53-.78,4.05-.78.99,0,1.91.09,2.73.27s1.63.43,2.41.76l-1.1,4.22c-.5-.19-1.04-.35-1.63-.5-.59-.14-1.25-.21-1.99-.21-1.56,0-2.73.49-3.5,1.46s-1.15,2.25-1.15,3.83c0,1.68.36,2.98,1.08,3.91.72.92,1.98,1.38,3.78,1.38.64,0,1.33-.06,2.06-.18.73-.12,1.41-.31,2.02-.57l.75,4.33c-.62.26-1.38.49-2.31.67-.92.19-1.94.28-3.05.28-1.7,0-3.17-.25-4.4-.76s-2.24-1.2-3.04-2.08-1.37-1.91-1.74-3.11-.55-2.49-.55-3.89Z" style="fill: #a3ea2a;"/>
      <path d="m600.81,725.6c1.56,0,2.86.18,3.91.53,1.04.35,1.88.86,2.5,1.53.63.66,1.07,1.47,1.33,2.41.26.95.39,2,.39,3.16v11.01c-.76.17-1.81.36-3.16.59-1.35.22-2.98.34-4.9.34-1.21,0-2.3-.11-3.28-.32-.98-.21-1.83-.56-2.54-1.05-.71-.48-1.25-1.12-1.63-1.9-.38-.78-.57-1.74-.57-2.88s.22-2.01.66-2.77c.44-.76,1.02-1.36,1.76-1.81.73-.45,1.57-.78,2.52-.98.95-.2,1.93-.3,2.95-.3.69,0,1.3.03,1.83.09.53.06.96.14,1.3.23v-.5c0-.9-.27-1.62-.82-2.17-.54-.54-1.49-.82-2.84-.82-.9,0-1.79.07-2.66.2s-1.63.31-2.27.55l-.67-4.26c.31-.09.69-.19,1.15-.3.46-.11.96-.2,1.51-.28.54-.08,1.12-.15,1.72-.21.6-.06,1.21-.09,1.83-.09Zm.43,15.48c.52,0,1.02-.01,1.49-.04.47-.02.85-.06,1.14-.11v-4.01c-.21-.05-.53-.09-.96-.14-.43-.05-.82-.07-1.17-.07-.5,0-.96.03-1.4.09-.44.06-.82.17-1.15.34-.33.17-.59.39-.78.67-.19.28-.28.64-.28,1.06,0,.83.28,1.4.83,1.72.56.32,1.32.48,2.29.48Z" style="fill: #a3ea2a;"/>
      <path d="m613.56,721.44l5.29-.85v5.5h6.35v4.4h-6.35v6.57c0,1.11.2,2,.59,2.66.39.66,1.18.99,2.36.99.57,0,1.15-.05,1.76-.16s1.15-.25,1.65-.44l.75,4.12c-.64.26-1.35.49-2.13.67-.78.19-1.74.28-2.88.28-1.44,0-2.64-.2-3.59-.59-.95-.39-1.7-.93-2.27-1.63-.57-.7-.96-1.54-1.19-2.54s-.34-2.09-.34-3.3v-15.69Z" style="fill: #a3ea2a;"/>
      <path d="m635.28,720.7c0,.97-.31,1.73-.94,2.29-.63.56-1.37.83-2.22.83s-1.59-.28-2.22-.83c-.63-.56-.94-1.32-.94-2.29s.31-1.73.94-2.29c.63-.56,1.37-.83,2.22-.83s1.59.28,2.22.83c.63.56.94,1.32.94,2.29Zm-.5,24.07h-5.29v-18.67h5.29v18.67Z" style="fill: #a3ea2a;"/>
      <path d="m657.22,735.39c0,1.47-.21,2.81-.64,4.03s-1.04,2.26-1.85,3.12-1.77,1.53-2.89,2.01c-1.12.47-2.38.71-3.78.71s-2.62-.24-3.75-.71c-1.12-.47-2.09-1.14-2.89-2.01s-1.43-1.91-1.88-3.12c-.45-1.22-.67-2.56-.67-4.03s.23-2.8.69-4.01c.46-1.21,1.1-2.24,1.92-3.09.82-.85,1.79-1.51,2.91-1.99s2.35-.71,3.67-.71,2.58.24,3.71.71c1.12.47,2.09,1.14,2.89,1.99.8.85,1.43,1.88,1.88,3.09.45,1.21.67,2.54.67,4.01Zm-5.4,0c0-1.63-.33-2.92-.98-3.85-.65-.93-1.58-1.4-2.79-1.4s-2.14.47-2.8,1.4c-.66.94-.99,2.22-.99,3.85s.33,2.93.99,3.89c.66.96,1.6,1.44,2.8,1.44s2.14-.48,2.79-1.44c.65-.96.98-2.25.98-3.89Z" style="fill: #a3ea2a;"/>
      <path d="m661.31,726.73c.9-.26,2.06-.5,3.48-.73,1.42-.22,2.91-.34,4.47-.34s2.91.21,3.96.62c1.05.41,1.89,1,2.5,1.76.62.76,1.05,1.66,1.31,2.7.26,1.04.39,2.2.39,3.48v10.54h-5.29v-9.91c0-1.7-.23-2.91-.67-3.62s-1.29-1.07-2.52-1.07c-.38,0-.78.02-1.21.05s-.8.08-1.14.12v14.41h-5.29v-18.04Z" style="fill: #a3ea2a;"/>
    </g>
    <g>
      <rect x="791.58" y="450.63" width="336.36" height="124.61" rx="17.88" ry="17.88" style="fill: #223654;"/>
      <g>
        <path d="m886.61,503.89v-24.6h16.62v4.65h-11.08v4.83h9.83v4.54h-9.83v5.93h11.89v4.65h-17.43Z" style="fill: #a3ea2a;"/>
        <path d="m912.87,503.89c-1.21-2.37-2.44-5.14-3.69-8.31-1.25-3.17-2.43-6.63-3.54-10.37h5.61c.24.92.52,1.92.84,3,.32,1.08.65,2.17,1,3.27s.69,2.17,1.03,3.21c.34,1.04.68,1.99,1.02,2.84.31-.85.64-1.8,1-2.84.36-1.04.71-2.11,1.05-3.21s.68-2.19,1-3.27.6-2.08.84-3h5.47c-1.12,3.74-2.3,7.2-3.54,10.37-1.25,3.17-2.47,5.94-3.69,8.31h-4.39Z" style="fill: #a3ea2a;"/>
        <path d="m933.08,479.82c0,.97-.31,1.73-.94,2.29-.63.56-1.37.83-2.22.83s-1.59-.28-2.22-.83c-.63-.56-.94-1.32-.94-2.29s.31-1.73.94-2.29c.63-.56,1.37-.83,2.22-.83s1.59.28,2.22.83c.63.56.94,1.32.94,2.29Zm-.5,24.07h-5.29v-18.67h5.29v18.67Z" style="fill: #a3ea2a;"/>
        <path d="m954.02,503.28c-.47.14-1.02.28-1.63.41-.62.13-1.26.24-1.93.34-.67.09-1.36.17-2.06.23-.7.06-1.37.09-2.01.09-1.54,0-2.91-.23-4.12-.67s-2.22-1.09-3.05-1.93c-.83-.84-1.46-1.86-1.9-3.05-.44-1.19-.66-2.54-.66-4.03s.19-2.88.57-4.1c.38-1.22.92-2.25,1.63-3.11.71-.85,1.58-1.5,2.61-1.95,1.03-.45,2.21-.67,3.53-.67.73,0,1.39.07,1.97.21.58.14,1.17.34,1.76.6v-8.45l5.29-.85v26.95Zm-11.96-8.88c0,1.63.37,2.95,1.1,3.94.73.99,1.82,1.49,3.27,1.49.47,0,.91-.02,1.31-.05.4-.04.73-.08.99-.12v-9.62c-.33-.21-.76-.39-1.29-.53-.53-.14-1.07-.21-1.62-.21-2.51,0-3.76,1.7-3.76,5.11Z" style="fill: #a3ea2a;"/>
        <path d="m958.11,494.69c0-1.66.25-3.11.76-4.35.51-1.24,1.18-2.28,2.01-3.11.83-.83,1.78-1.46,2.86-1.88s2.18-.64,3.32-.64c2.65,0,4.75.81,6.28,2.43,1.54,1.62,2.31,4.01,2.31,7.15,0,.31-.01.65-.04,1.01-.02.37-.05.69-.07.98h-12c.12,1.09.63,1.95,1.53,2.59s2.11.96,3.62.96c.97,0,1.92-.09,2.86-.27.93-.18,1.7-.4,2.29-.66l.71,4.3c-.28.14-.66.28-1.14.43-.47.14-1,.27-1.58.37s-1.2.2-1.86.27c-.66.07-1.33.11-1.99.11-1.68,0-3.14-.25-4.38-.75-1.24-.5-2.27-1.18-3.09-2.04-.82-.86-1.42-1.89-1.81-3.07-.39-1.18-.59-2.46-.59-3.83Zm12.43-2.02c-.02-.45-.1-.89-.23-1.31-.13-.43-.33-.8-.6-1.14-.27-.33-.62-.6-1.03-.82-.41-.21-.93-.32-1.54-.32s-1.1.1-1.53.3c-.43.2-.78.47-1.07.8-.28.33-.5.72-.66,1.15-.15.44-.27.88-.34,1.33h6.99Z" style="fill: #a3ea2a;"/>
        <path d="m979.73,485.85c.9-.26,2.06-.5,3.48-.73,1.42-.22,2.91-.34,4.47-.34s2.91.21,3.96.62c1.05.41,1.89,1,2.5,1.76.62.76,1.05,1.66,1.31,2.7.26,1.04.39,2.2.39,3.48v10.54h-5.29v-9.91c0-1.7-.23-2.91-.67-3.62s-1.29-1.07-2.52-1.07c-.38,0-.78.02-1.21.05s-.8.08-1.14.12v14.41h-5.29v-18.04Z" style="fill: #a3ea2a;"/>
        <path d="m999.75,494.55c0-1.35.22-2.62.66-3.82.44-1.2,1.07-2.24,1.9-3.12.83-.89,1.83-1.59,3.02-2.11,1.18-.52,2.53-.78,4.05-.78.99,0,1.91.09,2.73.27s1.63.43,2.41.76l-1.1,4.22c-.5-.19-1.04-.35-1.63-.5-.59-.14-1.25-.21-1.99-.21-1.56,0-2.73.49-3.5,1.46s-1.15,2.25-1.15,3.83c0,1.68.36,2.98,1.08,3.91.72.92,1.98,1.38,3.78,1.38.64,0,1.33-.06,2.06-.18.73-.12,1.41-.31,2.02-.57l.75,4.33c-.62.26-1.38.49-2.31.67-.92.19-1.94.28-3.05.28-1.7,0-3.17-.25-4.4-.76s-2.24-1.2-3.04-2.08-1.37-1.91-1.74-3.11-.55-2.49-.55-3.89Z" style="fill: #a3ea2a;"/>
        <path d="m1016.61,494.69c0-1.66.25-3.11.76-4.35.51-1.24,1.18-2.28,2.01-3.11.83-.83,1.78-1.46,2.86-1.88s2.18-.64,3.32-.64c2.65,0,4.75.81,6.28,2.43,1.54,1.62,2.31,4.01,2.31,7.15,0,.31-.01.65-.04,1.01-.02.37-.05.69-.07.98h-12c.12,1.09.63,1.95,1.53,2.59s2.11.96,3.62.96c.97,0,1.92-.09,2.86-.27.93-.18,1.7-.4,2.29-.66l.71,4.3c-.28.14-.66.28-1.14.43-.47.14-1,.27-1.58.37s-1.2.2-1.86.27c-.66.07-1.33.11-1.99.11-1.68,0-3.14-.25-4.38-.75-1.24-.5-2.27-1.18-3.09-2.04-.82-.86-1.42-1.89-1.81-3.07-.39-1.18-.59-2.46-.59-3.83Zm12.43-2.02c-.02-.45-.1-.89-.23-1.31-.13-.43-.33-.8-.6-1.14-.27-.33-.62-.6-1.03-.82-.41-.21-.93-.32-1.54-.32s-1.1.1-1.53.3c-.43.2-.78.47-1.07.8-.28.33-.5.72-.66,1.15-.15.44-.27.88-.34,1.33h6.99Z" style="fill: #a3ea2a;"/>
        <path d="m887.05,550.03c-4,0-7.05-1.11-9.14-3.34s-3.14-5.38-3.14-9.48c0-2.04.32-3.85.96-5.45.64-1.6,1.51-2.95,2.63-4.05,1.11-1.1,2.44-1.93,3.98-2.5,1.54-.57,3.21-.85,5.01-.85,1.04,0,1.99.08,2.84.23.85.15,1.6.33,2.24.53.64.2,1.17.41,1.6.62.43.21.73.38.92.5l-1.6,4.47c-.76-.4-1.64-.75-2.64-1.03-1.01-.28-2.15-.43-3.43-.43-.85,0-1.69.14-2.5.43-.82.28-1.54.74-2.17,1.37-.63.63-1.13,1.44-1.51,2.43-.38.99-.57,2.2-.57,3.62,0,1.14.12,2.2.37,3.18.25.98.65,1.83,1.21,2.54.56.71,1.28,1.27,2.18,1.69.9.41,1.99.62,3.27.62.8,0,1.53-.05,2.17-.14s1.21-.21,1.7-.34c.5-.13.93-.28,1.31-.44.38-.17.72-.32,1.03-.46l1.53,4.44c-.78.47-1.88.9-3.3,1.28-1.42.38-3.07.57-4.94.57Z" style="fill: #a3ea2a;"/>
        <path d="m915.52,540.16c0,1.47-.21,2.81-.64,4.03s-1.04,2.26-1.85,3.12-1.77,1.53-2.89,2.01c-1.12.47-2.38.71-3.78.71s-2.62-.24-3.75-.71c-1.12-.47-2.09-1.14-2.89-2.01s-1.43-1.91-1.88-3.12c-.45-1.22-.67-2.56-.67-4.03s.23-2.8.69-4.01c.46-1.21,1.1-2.24,1.92-3.09.82-.85,1.79-1.51,2.91-1.99s2.35-.71,3.67-.71,2.58.24,3.71.71c1.12.47,2.09,1.14,2.89,1.99.8.85,1.43,1.88,1.88,3.09.45,1.21.67,2.54.67,4.01Zm-5.4,0c0-1.63-.33-2.92-.98-3.85-.65-.93-1.58-1.4-2.79-1.4s-2.14.47-2.8,1.4c-.66.94-.99,2.22-.99,3.85s.33,2.93.99,3.89c.66.96,1.6,1.44,2.8,1.44s2.14-.48,2.79-1.44c.65-.96.98-2.25.98-3.89Z" style="fill: #a3ea2a;"/>
        <path d="m927.06,549.89c-1.54-.02-2.79-.19-3.75-.5-.96-.31-1.72-.74-2.27-1.3s-.94-1.23-1.14-2.02c-.2-.79-.3-1.69-.3-2.68v-20.56l5.29-.85v20.34c0,.47.04.9.11,1.28.07.38.21.7.41.96.2.26.49.47.87.64s.89.27,1.53.32l-.75,4.37Z" style="fill: #a3ea2a;"/>
        <path d="m938.28,549.89c-1.54-.02-2.79-.19-3.75-.5-.96-.31-1.72-.74-2.27-1.3s-.94-1.23-1.14-2.02c-.2-.79-.3-1.69-.3-2.68v-20.56l5.29-.85v20.34c0,.47.04.9.11,1.28.07.38.21.7.41.96.2.26.49.47.87.64s.89.27,1.53.32l-.75,4.37Z" style="fill: #a3ea2a;"/>
        <path d="m941.16,540.34c0-1.66.25-3.11.76-4.35.51-1.24,1.18-2.28,2.01-3.11.83-.83,1.78-1.46,2.86-1.88s2.18-.64,3.32-.64c2.65,0,4.75.81,6.28,2.43,1.54,1.62,2.31,4.01,2.31,7.15,0,.31-.01.65-.04,1.01-.02.37-.05.69-.07.98h-12c.12,1.09.63,1.95,1.53,2.59s2.11.96,3.62.96c.97,0,1.92-.09,2.86-.27.93-.18,1.7-.4,2.29-.66l.71,4.3c-.28.14-.66.28-1.14.43-.47.14-1,.27-1.58.37s-1.2.2-1.86.27c-.66.07-1.33.11-1.99.11-1.68,0-3.14-.25-4.38-.75-1.24-.5-2.27-1.18-3.09-2.04-.82-.86-1.42-1.89-1.81-3.07-.39-1.18-.59-2.46-.59-3.83Zm12.43-2.02c-.02-.45-.1-.89-.23-1.31-.13-.43-.33-.8-.6-1.14-.27-.33-.62-.6-1.03-.82-.41-.21-.93-.32-1.54-.32s-1.1.1-1.53.3c-.43.2-.78.47-1.07.8-.28.33-.5.72-.66,1.15-.15.44-.27.88-.34,1.33h6.99Z" style="fill: #a3ea2a;"/>
        <path d="m961.89,540.19c0-1.35.22-2.62.66-3.82.44-1.2,1.07-2.24,1.9-3.12.83-.89,1.83-1.59,3.02-2.11,1.18-.52,2.53-.78,4.05-.78.99,0,1.91.09,2.73.27s1.63.43,2.41.76l-1.1,4.22c-.5-.19-1.04-.35-1.63-.5-.59-.14-1.25-.21-1.99-.21-1.56,0-2.73.49-3.5,1.46s-1.15,2.25-1.15,3.83c0,1.68.36,2.98,1.08,3.91.72.92,1.98,1.38,3.78,1.38.64,0,1.33-.06,2.06-.18.73-.12,1.41-.31,2.02-.57l.75,4.33c-.62.26-1.38.49-2.31.67-.92.19-1.94.28-3.05.28-1.7,0-3.17-.25-4.4-.76s-2.24-1.2-3.04-2.08-1.37-1.91-1.74-3.11-.55-2.49-.55-3.89Z" style="fill: #a3ea2a;"/>
        <path d="m980.35,526.21l5.29-.85v5.5h6.35v4.4h-6.35v6.57c0,1.11.2,2,.59,2.66.39.66,1.18.99,2.36.99.57,0,1.15-.05,1.76-.16s1.15-.25,1.65-.44l.75,4.12c-.64.26-1.35.49-2.13.67-.78.19-1.74.28-2.88.28-1.44,0-2.64-.2-3.59-.59-.95-.39-1.7-.93-2.27-1.63-.57-.7-.96-1.54-1.19-2.54s-.34-2.09-.34-3.3v-15.69Z" style="fill: #a3ea2a;"/>
        <path d="m1002.08,525.46c0,.97-.31,1.73-.94,2.29-.63.56-1.37.83-2.22.83s-1.59-.28-2.22-.83c-.63-.56-.94-1.32-.94-2.29s.31-1.73.94-2.29c.63-.56,1.37-.83,2.22-.83s1.59.28,2.22.83c.63.56.94,1.32.94,2.29Zm-.5,24.07h-5.29v-18.67h5.29v18.67Z" style="fill: #a3ea2a;"/>
        <path d="m1024.02,540.16c0,1.47-.21,2.81-.64,4.03s-1.04,2.26-1.85,3.12-1.77,1.53-2.89,2.01c-1.12.47-2.38.71-3.78.71s-2.62-.24-3.75-.71c-1.12-.47-2.09-1.14-2.89-2.01s-1.43-1.91-1.88-3.12c-.45-1.22-.67-2.56-.67-4.03s.23-2.8.69-4.01c.46-1.21,1.1-2.24,1.92-3.09.82-.85,1.79-1.51,2.91-1.99s2.35-.71,3.67-.71,2.58.24,3.71.71c1.12.47,2.09,1.14,2.89,1.99.8.85,1.43,1.88,1.88,3.09.45,1.21.67,2.54.67,4.01Zm-5.4,0c0-1.63-.33-2.92-.98-3.85-.65-.93-1.58-1.4-2.79-1.4s-2.14.47-2.8,1.4c-.66.94-.99,2.22-.99,3.85s.33,2.93.99,3.89c.66.96,1.6,1.44,2.8,1.44s2.14-.48,2.79-1.44c.65-.96.98-2.25.98-3.89Z" style="fill: #a3ea2a;"/>
        <path d="m1028.1,531.5c.9-.26,2.06-.5,3.48-.73,1.42-.22,2.91-.34,4.47-.34s2.91.21,3.96.62c1.05.41,1.89,1,2.5,1.76.62.76,1.05,1.66,1.31,2.7.26,1.04.39,2.2.39,3.48v10.54h-5.29v-9.91c0-1.7-.23-2.91-.67-3.62s-1.29-1.07-2.52-1.07c-.38,0-.78.02-1.21.05s-.8.08-1.14.12v14.41h-5.29v-18.04Z" style="fill: #a3ea2a;"/>
      </g>
    </g>
    <g>
      <rect x="12.06" y="450.63" width="336.36" height="124.61" rx="17.88" ry="17.88" style="fill: #223654;"/>
      <g>
        <path d="m96.35,479c3.67,0,6.48.64,8.45,1.93,1.96,1.29,2.95,3.4,2.95,6.34s-.99,5.09-2.98,6.41-4.83,1.97-8.52,1.97h-1.74v8.24h-5.54v-24.25c1.21-.24,2.48-.4,3.83-.5s2.53-.14,3.55-.14Zm.35,4.72c-.4,0-.8.01-1.19.04-.39.02-.73.05-1.01.07v7.1h1.74c1.92,0,3.36-.26,4.33-.78.97-.52,1.46-1.49,1.46-2.91,0-.69-.12-1.25-.37-1.7s-.6-.81-1.06-1.08c-.46-.27-1.02-.46-1.69-.57s-1.4-.16-2.2-.16Z" style="fill: #a3ea2a;"/>
        <path d="m117.26,479.82c0,.97-.31,1.73-.94,2.29-.63.56-1.37.83-2.22.83s-1.59-.28-2.22-.83c-.63-.56-.94-1.32-.94-2.29s.31-1.73.94-2.29c.63-.56,1.37-.83,2.22-.83s1.59.28,2.22.83c.63.56.94,1.32.94,2.29Zm-.5,24.07h-5.29v-18.67h5.29v18.67Z" style="fill: #a3ea2a;"/>
        <path d="m126.27,503.89c-1.21-2.37-2.44-5.14-3.69-8.31-1.25-3.17-2.43-6.63-3.55-10.37h5.61c.24.92.52,1.92.84,3,.32,1.08.65,2.17,1,3.27.34,1.1.69,2.17,1.03,3.21.35,1.04.68,1.99,1.02,2.84.31-.85.64-1.8,1-2.84.36-1.04.71-2.11,1.05-3.21.34-1.1.68-2.19,1-3.27s.6-2.08.84-3h5.47c-1.12,3.74-2.3,7.2-3.54,10.37-1.25,3.17-2.47,5.94-3.69,8.31h-4.39Z" style="fill: #a3ea2a;"/>
        <path d="m157.66,494.51c0,1.47-.21,2.81-.64,4.03-.43,1.22-1.04,2.26-1.85,3.12-.81.86-1.77,1.53-2.89,2.01-1.12.47-2.38.71-3.78.71s-2.62-.24-3.75-.71c-1.12-.47-2.09-1.14-2.89-2.01-.81-.86-1.43-1.91-1.88-3.12s-.67-2.56-.67-4.03.23-2.8.69-4.01,1.1-2.24,1.92-3.09c.82-.85,1.79-1.51,2.91-1.99,1.12-.47,2.35-.71,3.67-.71s2.59.24,3.71.71c1.12.47,2.09,1.14,2.89,1.99.8.85,1.43,1.88,1.88,3.09.45,1.21.67,2.54.67,4.01Zm-5.4,0c0-1.63-.33-2.92-.98-3.85-.65-.93-1.58-1.4-2.79-1.4s-2.14.47-2.8,1.4c-.66.94-.99,2.22-.99,3.85s.33,2.93.99,3.89c.66.96,1.6,1.44,2.8,1.44s2.14-.48,2.79-1.44c.65-.96.98-2.25.98-3.89Z" style="fill: #a3ea2a;"/>
        <path d="m161.57,480.56l5.29-.85v5.5h6.35v4.4h-6.35v6.57c0,1.11.2,2,.59,2.66.39.66,1.18.99,2.36.99.57,0,1.15-.05,1.76-.16s1.15-.25,1.65-.44l.75,4.12c-.64.26-1.35.49-2.13.67-.78.19-1.74.28-2.88.28-1.44,0-2.64-.2-3.59-.59-.95-.39-1.7-.93-2.27-1.63-.57-.7-.96-1.54-1.19-2.54-.23-.99-.34-2.09-.34-3.3v-15.69Z" style="fill: #a3ea2a;"/>
        <path d="m193.77,479c3.67,0,6.48.64,8.45,1.93,1.96,1.29,2.95,3.4,2.95,6.34s-.99,5.09-2.98,6.41-4.83,1.97-8.52,1.97h-1.74v8.24h-5.54v-24.25c1.21-.24,2.48-.4,3.83-.5s2.53-.14,3.55-.14Zm.35,4.72c-.4,0-.8.01-1.19.04-.39.02-.73.05-1.01.07v7.1h1.74c1.92,0,3.36-.26,4.33-.78.97-.52,1.46-1.49,1.46-2.91,0-.69-.12-1.25-.37-1.7s-.6-.81-1.06-1.08c-.46-.27-1.02-.46-1.69-.57s-1.4-.16-2.2-.16Z" style="fill: #a3ea2a;"/>
        <path d="m225.83,494.51c0,1.47-.21,2.81-.64,4.03-.43,1.22-1.04,2.26-1.85,3.12-.81.86-1.77,1.53-2.89,2.01-1.12.47-2.38.71-3.78.71s-2.62-.24-3.75-.71c-1.12-.47-2.09-1.14-2.89-2.01-.81-.86-1.43-1.91-1.88-3.12s-.67-2.56-.67-4.03.23-2.8.69-4.01,1.1-2.24,1.92-3.09c.82-.85,1.79-1.51,2.91-1.99,1.12-.47,2.35-.71,3.67-.71s2.59.24,3.71.71c1.12.47,2.09,1.14,2.89,1.99.8.85,1.43,1.88,1.88,3.09.45,1.21.67,2.54.67,4.01Zm-5.4,0c0-1.63-.33-2.92-.98-3.85-.65-.93-1.58-1.4-2.79-1.4s-2.14.47-2.8,1.4c-.66.94-.99,2.22-.99,3.85s.33,2.93.99,3.89c.66.96,1.6,1.44,2.8,1.44s2.14-.48,2.79-1.44c.65-.96.98-2.25.98-3.89Z" style="fill: #a3ea2a;"/>
        <path d="m235.7,479.82c0,.97-.31,1.73-.94,2.29-.63.56-1.37.83-2.22.83s-1.59-.28-2.22-.83c-.63-.56-.94-1.32-.94-2.29s.31-1.73.94-2.29c.63-.56,1.37-.83,2.22-.83s1.59.28,2.22.83c.63.56.94,1.32.94,2.29Zm-.5,24.07h-5.29v-18.67h5.29v18.67Z" style="fill: #a3ea2a;"/>
        <path d="m240.17,485.85c.9-.26,2.06-.5,3.48-.73s2.91-.34,4.47-.34,2.91.21,3.96.62,1.89,1,2.5,1.76c.62.76,1.05,1.66,1.31,2.7.26,1.04.39,2.2.39,3.48v10.54h-5.29v-9.91c0-1.7-.23-2.91-.67-3.62s-1.29-1.07-2.52-1.07c-.38,0-.78.02-1.21.05-.43.04-.81.08-1.14.12v14.41h-5.29v-18.04Z" style="fill: #a3ea2a;"/>
        <path d="m260.9,480.56l5.29-.85v5.5h6.35v4.4h-6.35v6.57c0,1.11.2,2,.59,2.66.39.66,1.18.99,2.36.99.57,0,1.15-.05,1.76-.16s1.15-.25,1.65-.44l.75,4.12c-.64.26-1.35.49-2.13.67-.78.19-1.74.28-2.88.28-1.44,0-2.64-.2-3.59-.59-.95-.39-1.7-.93-2.27-1.63-.57-.7-.96-1.54-1.19-2.54-.23-.99-.34-2.09-.34-3.3v-15.69Z" style="fill: #a3ea2a;"/>
        <path d="m121.22,537.21c0,2.13-.33,3.99-.99,5.57s-1.6,2.9-2.82,3.94c-1.22,1.04-2.7,1.82-4.46,2.34-1.75.52-3.72.78-5.89.78-.99,0-2.15-.04-3.48-.12-1.33-.08-2.63-.25-3.91-.51v-23.96c1.28-.24,2.61-.4,3.99-.48,1.38-.08,2.57-.12,3.57-.12,2.11,0,4.02.24,5.73.71,1.72.47,3.19,1.22,4.42,2.24,1.23,1.02,2.18,2.32,2.84,3.91s.99,3.49.99,5.72Zm-16.01,7.81c.26.02.56.04.91.05.34.01.75.02,1.23.02,2.77,0,4.82-.7,6.16-2.09,1.34-1.4,2.01-3.33,2.01-5.79s-.64-4.53-1.92-5.86c-1.28-1.33-3.3-1.99-6.07-1.99-.38,0-.77,0-1.17.02-.4.01-.78.04-1.14.09v15.55Z" style="fill: #a3ea2a;"/>
        <path d="m131.27,525.46c0,.97-.31,1.73-.94,2.29-.63.56-1.37.83-2.22.83s-1.59-.28-2.22-.83c-.63-.56-.94-1.32-.94-2.29s.31-1.73.94-2.29c.63-.56,1.37-.83,2.22-.83s1.59.28,2.22.83c.63.56.94,1.32.94,2.29Zm-.5,24.07h-5.29v-18.67h5.29v18.67Z" style="fill: #a3ea2a;"/>
        <path d="m141.1,545.73c.97,0,1.66-.09,2.06-.28.4-.19.6-.56.6-1.1,0-.43-.26-.8-.78-1.12-.52-.32-1.31-.68-2.38-1.08-.83-.31-1.58-.63-2.25-.96-.67-.33-1.25-.73-1.72-1.19-.47-.46-.84-1.01-1.1-1.65-.26-.64-.39-1.41-.39-2.31,0-1.75.65-3.14,1.95-4.15,1.3-1.02,3.09-1.53,5.36-1.53,1.14,0,2.22.1,3.27.3,1.04.2,1.87.42,2.48.66l-.92,4.12c-.62-.21-1.28-.4-2.01-.57-.72-.17-1.53-.25-2.43-.25-1.66,0-2.48.46-2.48,1.38,0,.21.04.4.11.57.07.17.21.33.43.48.21.15.5.32.87.5.37.18.83.38,1.4.59,1.16.43,2.12.85,2.88,1.27.76.42,1.35.87,1.79,1.35.44.48.75,1.02.92,1.61.18.59.27,1.28.27,2.05,0,1.84-.69,3.24-2.08,4.18-1.38.94-3.34,1.42-5.88,1.42-1.66,0-3.04-.14-4.14-.43s-1.86-.52-2.29-.71l.89-4.3c.9.35,1.82.63,2.77.83.95.2,1.88.3,2.8.3Z" style="fill: #a3ea2a;"/>
        <path d="m152.07,540.19c0-1.35.22-2.62.66-3.82.44-1.2,1.07-2.24,1.9-3.12.83-.89,1.83-1.59,3.02-2.11,1.18-.52,2.53-.78,4.05-.78.99,0,1.9.09,2.73.27.83.18,1.63.43,2.41.76l-1.1,4.22c-.5-.19-1.04-.35-1.63-.5-.59-.14-1.25-.21-1.99-.21-1.56,0-2.73.49-3.5,1.46-.77.97-1.15,2.25-1.15,3.83,0,1.68.36,2.98,1.08,3.91.72.92,1.98,1.38,3.78,1.38.64,0,1.33-.06,2.06-.18.73-.12,1.41-.31,2.02-.57l.75,4.33c-.62.26-1.38.49-2.31.67-.92.19-1.94.28-3.05.28-1.7,0-3.17-.25-4.4-.76-1.23-.51-2.24-1.2-3.04-2.08-.79-.88-1.37-1.91-1.74-3.11-.37-1.2-.55-2.49-.55-3.89Z" style="fill: #a3ea2a;"/>
        <path d="m187.29,540.16c0,1.47-.21,2.81-.64,4.03-.43,1.22-1.04,2.26-1.85,3.12-.81.86-1.77,1.53-2.89,2.01-1.12.47-2.38.71-3.78.71s-2.62-.24-3.75-.71c-1.12-.47-2.09-1.14-2.89-2.01-.81-.86-1.43-1.91-1.88-3.12s-.67-2.56-.67-4.03.23-2.8.69-4.01,1.1-2.24,1.92-3.09c.82-.85,1.79-1.51,2.91-1.99,1.12-.47,2.35-.71,3.67-.71s2.59.24,3.71.71c1.12.47,2.09,1.14,2.89,1.99.8.85,1.43,1.88,1.88,3.09.45,1.21.67,2.54.67,4.01Zm-5.4,0c0-1.63-.33-2.92-.98-3.85-.65-.93-1.58-1.4-2.79-1.4s-2.14.47-2.8,1.4c-.66.94-.99,2.22-.99,3.85s.33,2.93.99,3.89c.66.96,1.6,1.44,2.8,1.44s2.14-.48,2.79-1.44c.65-.96.98-2.25.98-3.89Z" style="fill: #a3ea2a;"/>
        <path d="m195.98,549.53c-1.21-2.37-2.44-5.14-3.69-8.31-1.25-3.17-2.43-6.63-3.55-10.37h5.61c.24.92.52,1.92.84,3,.32,1.08.65,2.17,1,3.27.34,1.1.69,2.17,1.03,3.21.35,1.04.68,1.99,1.02,2.84.31-.85.64-1.8,1-2.84.36-1.04.71-2.11,1.05-3.21.34-1.1.68-2.19,1-3.27s.6-2.08.84-3h5.47c-1.12,3.74-2.3,7.2-3.54,10.37-1.25,3.17-2.47,5.94-3.69,8.31h-4.39Z" style="fill: #a3ea2a;"/>
        <path d="m209.02,540.34c0-1.66.25-3.11.76-4.35.51-1.24,1.18-2.28,2.01-3.11.83-.83,1.78-1.46,2.86-1.88,1.08-.43,2.18-.64,3.32-.64,2.65,0,4.75.81,6.28,2.43,1.54,1.62,2.31,4.01,2.31,7.15,0,.31-.01.65-.04,1.01-.02.37-.05.69-.07.98h-12c.12,1.09.63,1.95,1.53,2.59.9.64,2.11.96,3.62.96.97,0,1.92-.09,2.86-.27.93-.18,1.7-.4,2.29-.66l.71,4.3c-.28.14-.66.28-1.14.43-.47.14-1,.27-1.58.37-.58.11-1.2.2-1.86.27-.66.07-1.33.11-1.99.11-1.68,0-3.14-.25-4.38-.75-1.24-.5-2.27-1.18-3.09-2.04-.82-.86-1.42-1.89-1.81-3.07-.39-1.18-.59-2.46-.59-3.83Zm12.43-2.02c-.02-.45-.1-.89-.23-1.31-.13-.43-.33-.8-.6-1.14-.27-.33-.62-.6-1.03-.82-.41-.21-.93-.32-1.54-.32s-1.1.1-1.53.3c-.43.2-.78.47-1.06.8-.28.33-.5.72-.66,1.15-.15.44-.27.88-.34,1.33h6.99Z" style="fill: #a3ea2a;"/>
        <path d="m241.89,535.54c-.47-.12-1.03-.24-1.67-.37s-1.33-.2-2.06-.2c-.33,0-.73.03-1.19.09-.46.06-.81.12-1.05.2v14.27h-5.29v-17.68c.95-.33,2.06-.64,3.35-.94,1.29-.3,2.73-.44,4.31-.44.28,0,.63.02,1.03.05.4.04.8.08,1.21.14.4.06.8.13,1.21.21.4.08.75.18,1.03.3l-.89,4.37Z" style="fill: #a3ea2a;"/>
        <path d="m263.33,530.86c-1.07,3.6-2.18,6.97-3.35,10.12-1.16,3.15-2.43,6.2-3.81,9.16-.5,1.07-1,1.97-1.49,2.72-.5.75-1.04,1.36-1.64,1.85-.59.48-1.26.84-2.01,1.06s-1.62.34-2.61.34c-.83,0-1.59-.08-2.29-.23-.7-.15-1.27-.33-1.72-.51l.92-4.22c.54.19,1.03.32,1.46.39.43.07.88.11,1.35.11.95,0,1.67-.25,2.18-.76s.94-1.21,1.3-2.11c-1.21-2.37-2.42-5.02-3.62-7.97-1.21-2.95-2.34-6.25-3.41-9.92h5.61c.24.92.52,1.92.84,3,.32,1.08.66,2.17,1.02,3.27.36,1.1.72,2.17,1.09,3.21.37,1.04.72,1.99,1.05,2.84.31-.85.63-1.8.96-2.84.33-1.04.66-2.11.98-3.21.32-1.1.63-2.19.93-3.27.3-1.08.56-2.08.8-3h5.47Z" style="fill: #a3ea2a;"/>
      </g>
    </g>
  </g>
  <g id="Artwork_35" data-name="Artwork 35" style="opacity: .5;">
    <g>
      <path id="cloud" d="m721.52,670.63c-.69-3.59-3.88-6.31-7.71-6.31h-1.38c-1.04-5.13-5.53-8.88-10.83-8.88s-9.82,3.78-10.84,8.93c-3.93.42-7,3.72-7,7.72,0,4.29,3.52,7.77,7.85,7.77h11.61c.61-.02,1.09-.54,1.07-1.15-.02-.58-.49-1.05-1.07-1.07h-11.61c-3.1,0-5.62-2.49-5.62-5.55s2.52-5.55,5.62-5.55c1.14,0,2.27.35,3.2,1.01.44.32,1.05.28,1.43-.11h0c.43-.43.43-1.12,0-1.56h0c-.04-.05-.09-.09-.14-.12-.93-.66-1.99-1.11-3.1-1.31.95-3.94,4.46-6.79,8.58-6.79,4.36,0,8.04,3.19,8.72,7.48-.35.18-.69.38-1.01.61-.5.36-.62,1.05-.27,1.55.04.05.07.1.12.14h0c.38.38.99.43,1.43.11.93-.67,2.06-1.02,3.2-1.01,2.74,0,5.02,1.94,5.52,4.5.1.52.56.91,1.09.91h0c.61,0,1.11-.49,1.12-1.1h0c.01-.07.01-.15,0-.22Z" style="fill: #fff;"/>
      <g id="numbers">
        <path d="m707.69,678.06h-.96v-3.04s.02-.47.02-.47c-.11.11-.22.21-.33.31l-.52.42-.46-.57,1.46-1.16h.78v4.51Z" style="fill: #fff;"/>
        <path d="m712.08,675.8c0,.79-.13,1.38-.39,1.75s-.66.57-1.2.57-.91-.2-1.18-.59-.4-.97-.4-1.73.13-1.38.38-1.77.65-.57,1.19-.57.91.2,1.18.59c.28.4.41.98.41,1.74Zm-2.21,0c0,.55.05.95.14,1.2s.26.36.49.36.38-.12.49-.36.14-.64.14-1.2-.05-.96-.15-1.2-.26-.36-.48-.36-.38.12-.49.36-.14.64-.14,1.2Z" style="fill: #fff;"/>
        <path d="m707.69,684.92h-.96v-3.04s.02-.47.02-.47c-.11.11-.22.21-.33.31l-.52.42-.46-.57,1.46-1.16h.78v4.51Z" style="fill: #fff;"/>
        <path d="m711.31,684.92h-.96v-3.04s.02-.47.02-.47c-.11.11-.22.21-.33.31l-.52.42-.46-.57,1.46-1.16h.78v4.51h.01Z" style="fill: #fff;"/>
        <path d="m714.93,684.92h-.96v-3.04s.02-.47.02-.47c-.11.11-.22.21-.33.31l-.52.42-.46-.57,1.46-1.16h.78v4.51Z" style="fill: #fff;"/>
        <path d="m719.31,682.66c0,.79-.13,1.38-.39,1.75s-.66.57-1.2.57-.91-.2-1.18-.59-.4-.97-.4-1.74.13-1.38.38-1.77.65-.57,1.19-.57.91.2,1.18.59c.28.39.42.97.41,1.74Zm-2.21,0c0,.55.05.95.14,1.2s.25.36.49.36.38-.12.49-.36.14-.64.14-1.19-.05-.96-.15-1.2-.26-.36-.48-.36-.38.12-.49.36-.14.63-.14,1.19Z" style="fill: #fff;"/>
        <path d="m721.38,688.09c0,.57-.09,1-.28,1.28s-.48.41-.87.41-.67-.14-.85-.43-.29-.7-.29-1.26.09-1.01.28-1.28c.19-.28.48-.41.87-.41s.67.14.86.43.29.71.28,1.26Zm-1.61,0c0,.41.04.7.1.87.04.16.19.26.36.26s.28-.09.35-.27.11-.46.11-.86-.04-.7-.11-.87-.19-.27-.35-.27-.28.09-.35.27-.11.46-.11.87h0Z" style="fill: #fff;"/>
        <path d="m723.45,689.73h-.7v-2.22s.02-.34.02-.34c-.12.12-.2.19-.24.22l-.38.3-.33-.42,1.06-.84h.57v3.29h0Z" style="fill: #fff;"/>
        <path d="m707.49,688.12c0,.57-.09.98-.28,1.25s-.47.41-.85.41-.65-.14-.84-.42-.28-.69-.28-1.23.09-.99.28-1.25.46-.41.85-.41.65.14.84.42.29.7.29,1.24Zm-1.57,0c0,.39.04.68.1.85.04.15.19.26.35.25.16,0,.28-.09.34-.26s.11-.46.11-.85-.04-.68-.11-.85-.18-.26-.34-.26-.28.09-.34.26-.12.46-.11.85h0Z" style="fill: #fff;"/>
        <path d="m709.52,689.73h-.68v-2.17s.02-.33.02-.33c-.12.12-.19.19-.23.22l-.37.3-.33-.41,1.04-.83h.56v3.22Z" style="fill: #fff;"/>
        <path d="m712.64,688.12c0,.57-.09.98-.28,1.25s-.47.41-.85.41-.65-.14-.84-.42-.28-.69-.28-1.23.09-.99.28-1.25.46-.41.85-.41.65.14.84.42.29.7.29,1.24Zm-1.57,0c0,.39.04.68.1.85.04.15.19.26.35.25.17,0,.28-.09.34-.26s.11-.46.11-.85-.04-.68-.11-.85-.19-.26-.34-.26-.28.09-.34.26-.12.46-.11.85h0Z" style="fill: #fff;"/>
        <path d="m714.66,689.73h-.68v-2.17s.02-.33.02-.33c-.12.12-.2.19-.24.22l-.37.3-.33-.41,1.04-.83h.56v3.22Z" style="fill: #fff;"/>
        <path d="m706.81,692.22c0,.41-.07.7-.2.9s-.33.29-.62.29c-.24.01-.47-.1-.6-.3-.14-.2-.2-.5-.2-.89,0-.41.07-.71.2-.91s.33-.29.61-.29c.24-.01.47.1.61.3.13.21.2.51.2.9Zm-1.14,0c0,.28.02.49.07.61.04.14.17.21.31.17h0c.09-.02.15-.09.17-.17.05-.12.07-.33.07-.61,0-.21-.01-.42-.08-.62-.04-.13-.17-.21-.3-.18h-.01c-.09.02-.15.09-.17.17-.05.21-.07.41-.07.62Z" style="fill: #fff;"/>
        <path d="m708.27,693.38h-.49v-1.56s.01-.24.01-.24c-.08.08-.14.14-.17.16l-.27.21-.24-.29.75-.59h.4v2.31Z" style="fill: #fff;"/>
        <path d="m713.25,695.11c0,.41-.07.7-.2.9s-.34.29-.62.29c-.24.01-.47-.1-.6-.3-.14-.2-.2-.5-.2-.89s.07-.71.2-.91.33-.29.61-.29c.24-.01.47.1.61.3.14.21.21.51.21.9Zm-1.13,0c0,.28.02.49.07.61.04.13.17.21.3.18h.01c.09-.02.15-.09.17-.17.05-.12.07-.33.07-.61,0-.21-.01-.42-.08-.62-.03-.11-.13-.19-.25-.19s-.22.07-.25.19c-.04.12-.07.32-.07.61Z" style="fill: #fff;"/>
        <path d="m714.71,696.27h-.49v-1.56s.01-.24.01-.24c-.08.08-.14.14-.17.16l-.27.22-.24-.3.75-.59h.41v2.31Z" style="fill: #fff;"/>
        <path d="m718.56,691.77c0,.57-.09.98-.28,1.25s-.47.41-.85.41-.65-.14-.84-.42-.28-.69-.28-1.23.09-.99.28-1.25.46-.41.85-.41.65.14.84.42.29.7.29,1.24Zm-1.57,0c0,.4.04.68.1.85.04.15.19.26.35.25.16,0,.28-.09.34-.26s.11-.46.11-.85-.04-.68-.11-.85-.19-.26-.35-.26-.28.09-.34.26-.1.47-.1.86h0Z" style="fill: #fff;"/>
        <path d="m720.59,693.38h-.68v-2.17s.02-.33.02-.33c-.12.12-.19.19-.23.22l-.37.3-.33-.41,1.04-.83h.56v3.22h0Z" style="fill: #fff;"/>
        <path d="m723.71,691.77c0,.57-.09.98-.28,1.25s-.47.41-.85.41-.65-.14-.84-.42-.28-.69-.28-1.23.09-.99.28-1.25.46-.41.85-.41.65.14.84.42.29.7.29,1.24Zm-1.57,0c0,.4.04.68.1.85.04.15.19.26.35.25.16,0,.28-.09.34-.26s.11-.46.11-.85-.04-.68-.11-.85-.19-.26-.34-.26-.28.09-.34.26-.11.47-.11.86h0Z" style="fill: #fff;"/>
        <path d="m718.77,678.06h-.96v-3.04s.02-.47.02-.47c-.11.11-.22.21-.33.31l-.52.42-.46-.57,1.46-1.16h.79v4.51h0Z" style="fill: #fff;"/>
        <path d="m723.16,675.8c0,.79-.13,1.38-.39,1.75s-.66.57-1.2.57-.91-.2-1.18-.59-.4-.97-.4-1.73.13-1.38.38-1.77.65-.57,1.19-.57.91.2,1.18.59.41.98.41,1.74Zm-2.22,0c0,.55.05.95.14,1.2s.26.36.49.36.38-.12.49-.36.14-.64.14-1.2-.05-.96-.15-1.2-.26-.36-.48-.36-.38.12-.49.36-.14.64-.14,1.2h0Z" style="fill: #fff;"/>
      </g>
    </g>
  </g>
</svg>