<?xml version="1.0" encoding="UTF-8"?>
<svg id="Layer_1" data-name="Layer 1" xmlns="http://www.w3.org/2000/svg" width="1140" height="130" xmlns:xlink="http://www.w3.org/1999/xlink" viewBox="0 0 1140 130">
  <defs>
    <radialGradient id="radial-gradient" cx="1125.51" cy="21.77" fx="1125.51" fy="21.77" r="3.72" gradientUnits="userSpaceOnUse">
      <stop offset="0" stop-color="#727c92"/>
      <stop offset=".73" stop-color="#384965"/>
      <stop offset="1" stop-color="#223654"/>
    </radialGradient>
    <radialGradient id="radial-gradient-2" cy="108.23" fy="108.23" r="3.72" xlink:href="#radial-gradient"/>
    <radialGradient id="radial-gradient-3" cx="13.88" fx="13.88" r="3.72" xlink:href="#radial-gradient"/>
    <radialGradient id="radial-gradient-4" cx="13.88" cy="108.23" fx="13.88" fy="108.23" xlink:href="#radial-gradient"/>
    <filter id="outer-glow-1" filterUnits="userSpaceOnUse">
      <feOffset dx="0" dy="0"/>
      <feGaussianBlur result="blur" stdDeviation="5"/>
      <feFlood flood-color="#a3ea2a" flood-opacity="1"/>
      <feComposite in2="blur" operator="in"/>
      <feComposite in="SourceGraphic"/>
    </filter>
    <filter id="outer-glow-2" filterUnits="userSpaceOnUse">
      <feOffset dx="0" dy="0"/>
      <feGaussianBlur result="blur-2" stdDeviation="5"/>
      <feFlood flood-color="#a3ea2a" flood-opacity="1"/>
      <feComposite in2="blur-2" operator="in"/>
      <feComposite in="SourceGraphic"/>
    </filter>
    <filter id="outer-glow-3" filterUnits="userSpaceOnUse">
      <feOffset dx="0" dy="0"/>
      <feGaussianBlur result="blur-3" stdDeviation="5"/>
      <feFlood flood-color="#a3ea2a" flood-opacity="1"/>
      <feComposite in2="blur-3" operator="in"/>
      <feComposite in="SourceGraphic"/>
    </filter>
    <filter id="outer-glow-4" filterUnits="userSpaceOnUse">
      <feOffset dx="0" dy="0"/>
      <feGaussianBlur result="blur-4" stdDeviation="5"/>
      <feFlood flood-color="#a3ea2a" flood-opacity="1"/>
      <feComposite in2="blur-4" operator="in"/>
      <feComposite in="SourceGraphic"/>
    </filter>
    <filter id="outer-glow-5" filterUnits="userSpaceOnUse">
      <feOffset dx="0" dy="0"/>
      <feGaussianBlur result="blur-5" stdDeviation="5"/>
      <feFlood flood-color="#a3ea2a" flood-opacity="1"/>
      <feComposite in2="blur-5" operator="in"/>
      <feComposite in="SourceGraphic"/>
    </filter>
    <filter id="outer-glow-6" filterUnits="userSpaceOnUse">
      <feOffset dx="0" dy="0"/>
      <feGaussianBlur result="blur-6" stdDeviation="5"/>
      <feFlood flood-color="#a3ea2a" flood-opacity="1"/>
      <feComposite in2="blur-6" operator="in"/>
      <feComposite in="SourceGraphic"/>
    </filter>
    <filter id="outer-glow-7" filterUnits="userSpaceOnUse">
      <feOffset dx="0" dy="0"/>
      <feGaussianBlur result="blur-7" stdDeviation="5"/>
      <feFlood flood-color="#a3ea2a" flood-opacity="1"/>
      <feComposite in2="blur-7" operator="in"/>
      <feComposite in="SourceGraphic"/>
    </filter>
    <filter id="outer-glow-8" filterUnits="userSpaceOnUse">
      <feOffset dx="0" dy="0"/>
      <feGaussianBlur result="blur-8" stdDeviation="5"/>
      <feFlood flood-color="#a3ea2a" flood-opacity="1"/>
      <feComposite in2="blur-8" operator="in"/>
      <feComposite in="SourceGraphic"/>
    </filter>
    <linearGradient id="linear-gradient" x1="131.94" y1="65" x2="187.36" y2="65" gradientUnits="userSpaceOnUse">
      <stop offset=".42" stop-color="#223654"/>
      <stop offset=".46" stop-color="#38554c"/>
      <stop offset=".55" stop-color="#5e8940"/>
      <stop offset=".63" stop-color="#7bb336"/>
      <stop offset=".7" stop-color="#91d12f"/>
      <stop offset=".76" stop-color="#9ee32b"/>
      <stop offset=".81" stop-color="#a3ea2a"/>
    </linearGradient>
    <linearGradient id="linear-gradient-2" x1="287.72" x2="343.15" xlink:href="#linear-gradient"/>
    <linearGradient id="linear-gradient-3" x1="404.78" x2="460.21" xlink:href="#linear-gradient"/>
    <linearGradient id="linear-gradient-4" x1="514.56" x2="569.99" xlink:href="#linear-gradient"/>
    <linearGradient id="linear-gradient-5" x1="670.07" x2="725.49" xlink:href="#linear-gradient"/>
    <linearGradient id="linear-gradient-6" x1="790.77" x2="846.2" xlink:href="#linear-gradient"/>
    <linearGradient id="linear-gradient-7" x1="932.83" x2="988.25" xlink:href="#linear-gradient"/>
    <filter id="AI_GaussianBlur_4">
      <feGaussianBlur stdDeviation="4"/>
    </filter>
    <filter id="AI_GaussianBlur_4-2" data-name="AI_GaussianBlur_4">
      <feGaussianBlur stdDeviation="4"/>
    </filter>
    <filter id="AI_GaussianBlur_4-3" data-name="AI_GaussianBlur_4">
      <feGaussianBlur stdDeviation="4"/>
    </filter>
    <filter id="AI_GaussianBlur_4-4" data-name="AI_GaussianBlur_4">
      <feGaussianBlur stdDeviation="4"/>
    </filter>
    <filter id="AI_GaussianBlur_7">
      <feGaussianBlur stdDeviation="7"/>
    </filter>
    <filter id="AI_GaussianBlur_4-5" data-name="AI_GaussianBlur_4">
      <feGaussianBlur stdDeviation="4"/>
    </filter>
    <filter id="AI_GaussianBlur_7-2" data-name="AI_GaussianBlur_7">
      <feGaussianBlur stdDeviation="7"/>
    </filter>
    <filter id="AI_GaussianBlur_4-6" data-name="AI_GaussianBlur_4">
      <feGaussianBlur stdDeviation="4"/>
    </filter>
    <filter id="AI_GaussianBlur_4-7" data-name="AI_GaussianBlur_4">
      <feGaussianBlur stdDeviation="4"/>
    </filter>
    <filter id="AI_GaussianBlur_4-8" data-name="AI_GaussianBlur_4">
      <feGaussianBlur stdDeviation="4"/>
    </filter>
    <filter id="AI_GaussianBlur_4-9" data-name="AI_GaussianBlur_4">
      <feGaussianBlur stdDeviation="4"/>
    </filter>
    <filter id="AI_GaussianBlur_4-10" data-name="AI_GaussianBlur_4">
      <feGaussianBlur stdDeviation="4"/>
    </filter>
    <filter id="AI_GaussianBlur_4-11" data-name="AI_GaussianBlur_4">
      <feGaussianBlur stdDeviation="4"/>
    </filter>
    <filter id="AI_GaussianBlur_4-12" data-name="AI_GaussianBlur_4">
      <feGaussianBlur stdDeviation="4"/>
    </filter>
    <filter id="AI_GaussianBlur_4-13" data-name="AI_GaussianBlur_4">
      <feGaussianBlur stdDeviation="4"/>
    </filter>
    <filter id="AI_GaussianBlur_4-14" data-name="AI_GaussianBlur_4">
      <feGaussianBlur stdDeviation="4"/>
    </filter>
    <filter id="AI_GaussianBlur_7-3" data-name="AI_GaussianBlur_7">
      <feGaussianBlur stdDeviation="7"/>
    </filter>
    <filter id="AI_GaussianBlur_4-15" data-name="AI_GaussianBlur_4">
      <feGaussianBlur stdDeviation="4"/>
    </filter>
    <filter id="AI_GaussianBlur_4-16" data-name="AI_GaussianBlur_4">
      <feGaussianBlur stdDeviation="4"/>
    </filter>
    <filter id="AI_GaussianBlur_7-4" data-name="AI_GaussianBlur_7">
      <feGaussianBlur stdDeviation="7"/>
    </filter>
    <filter id="AI_GaussianBlur_4-17" data-name="AI_GaussianBlur_4">
      <feGaussianBlur stdDeviation="4"/>
    </filter>
    <filter id="AI_GaussianBlur_4-18" data-name="AI_GaussianBlur_4">
      <feGaussianBlur stdDeviation="4"/>
    </filter>
    <linearGradient id="linear-gradient-8" x1="425.66" y1="124.37" x2="425.66" y2="85.63" gradientUnits="userSpaceOnUse">
      <stop offset=".02" stop-color="#223654"/>
      <stop offset=".11" stop-color="#38554c"/>
      <stop offset=".28" stop-color="#5e8940"/>
      <stop offset=".45" stop-color="#7bb336"/>
      <stop offset=".59" stop-color="#91d12f"/>
      <stop offset=".72" stop-color="#9ee32b"/>
      <stop offset=".81" stop-color="#a3ea2a"/>
    </linearGradient>
  </defs>
  <rect y="9.17" width="1140" height="111.66" style="fill: #1c2538; stroke-width: 0px;"/>
  <g>
    <circle cx="1125.51" cy="21.77" r="3.72" style="fill: url(#radial-gradient); stroke-width: 0px;"/>
    <circle cx="1125.51" cy="108.23" r="3.72" style="fill: url(#radial-gradient-2); stroke-width: 0px;"/>
  </g>
  <g>
    <circle cx="13.88" cy="21.77" r="3.72" style="fill: url(#radial-gradient-3); stroke-width: 0px;"/>
    <circle cx="13.88" cy="108.23" r="3.72" style="fill: url(#radial-gradient-4); stroke-width: 0px;"/>
  </g>
  <g>
    <g>
      <line x1="1133.37" y1="15.15" x2="1133.37" y2="114.85" style="fill: none; stroke: #223654; stroke-miterlimit: 10; stroke-width: 2px;"/>
      <line x1="1097.02" y1="15.15" x2="1097.02" y2="114.85" style="fill: none; stroke: #223654; stroke-miterlimit: 10; stroke-width: 2px;"/>
      <line x1="1060.68" y1="15.15" x2="1060.68" y2="114.85" style="fill: none; stroke: #223654; stroke-miterlimit: 10; stroke-width: 2px;"/>
      <line x1="1024.33" y1="15.15" x2="1024.33" y2="114.85" style="fill: none; stroke: #223654; stroke-miterlimit: 10; stroke-width: 2px;"/>
      <line x1="987.98" y1="15.15" x2="987.98" y2="114.85" style="fill: none; stroke: #223654; stroke-miterlimit: 10; stroke-width: 2px;"/>
      <line x1="951.64" y1="15.15" x2="951.64" y2="114.85" style="fill: none; stroke: #223654; stroke-miterlimit: 10; stroke-width: 2px;"/>
      <line x1="915.29" y1="15.15" x2="915.29" y2="114.85" style="fill: none; stroke: #223654; stroke-miterlimit: 10; stroke-width: 2px;"/>
      <line x1="878.95" y1="15.15" x2="878.95" y2="114.85" style="fill: none; stroke: #223654; stroke-miterlimit: 10; stroke-width: 2px;"/>
      <line x1="842.6" y1="15.15" x2="842.6" y2="114.85" style="fill: none; stroke: #223654; stroke-miterlimit: 10; stroke-width: 2px;"/>
      <line x1="806.25" y1="15.15" x2="806.25" y2="114.85" style="fill: none; stroke: #223654; stroke-miterlimit: 10; stroke-width: 2px;"/>
      <line x1="769.91" y1="15.15" x2="769.91" y2="114.85" style="fill: none; stroke: #223654; stroke-miterlimit: 10; stroke-width: 2px;"/>
      <line x1="733.56" y1="15.15" x2="733.56" y2="114.85" style="fill: none; stroke: #223654; stroke-miterlimit: 10; stroke-width: 2px;"/>
      <line x1="697.21" y1="15.15" x2="697.21" y2="114.85" style="fill: none; stroke: #223654; stroke-miterlimit: 10; stroke-width: 2px;"/>
      <line x1="660.87" y1="15.15" x2="660.87" y2="114.85" style="fill: none; stroke: #223654; stroke-miterlimit: 10; stroke-width: 2px;"/>
      <line x1="624.52" y1="15.15" x2="624.52" y2="114.85" style="fill: none; stroke: #223654; stroke-miterlimit: 10; stroke-width: 2px;"/>
      <line x1="588.17" y1="15.15" x2="588.17" y2="114.85" style="fill: none; stroke: #223654; stroke-miterlimit: 10; stroke-width: 2px;"/>
      <line x1="551.83" y1="15.15" x2="551.83" y2="114.85" style="fill: none; stroke: #223654; stroke-miterlimit: 10; stroke-width: 2px;"/>
      <line x1="515.48" y1="15.15" x2="515.48" y2="114.85" style="fill: none; stroke: #223654; stroke-miterlimit: 10; stroke-width: 2px;"/>
      <line x1="479.13" y1="15.15" x2="479.13" y2="114.85" style="fill: none; stroke: #223654; stroke-miterlimit: 10; stroke-width: 2px;"/>
      <line x1="442.79" y1="15.15" x2="442.79" y2="114.85" style="fill: none; stroke: #223654; stroke-miterlimit: 10; stroke-width: 2px;"/>
      <line x1="406.44" y1="15.15" x2="406.44" y2="114.85" style="fill: none; stroke: #223654; stroke-miterlimit: 10; stroke-width: 2px;"/>
      <line x1="370.09" y1="15.15" x2="370.09" y2="114.85" style="fill: none; stroke: #223654; stroke-miterlimit: 10; stroke-width: 2px;"/>
      <line x1="333.75" y1="15.15" x2="333.75" y2="114.85" style="fill: none; stroke: #223654; stroke-miterlimit: 10; stroke-width: 2px;"/>
      <line x1="297.4" y1="15.15" x2="297.4" y2="114.85" style="fill: none; stroke: #223654; stroke-miterlimit: 10; stroke-width: 2px;"/>
      <line x1="261.05" y1="15.15" x2="261.05" y2="114.85" style="fill: none; stroke: #223654; stroke-miterlimit: 10; stroke-width: 2px;"/>
      <line x1="224.71" y1="15.15" x2="224.71" y2="114.85" style="fill: none; stroke: #223654; stroke-miterlimit: 10; stroke-width: 2px;"/>
      <line x1="188.36" y1="15.15" x2="188.36" y2="114.85" style="fill: none; stroke: #223654; stroke-miterlimit: 10; stroke-width: 2px;"/>
      <line x1="152.02" y1="15.15" x2="152.02" y2="114.85" style="fill: none; stroke: #223654; stroke-miterlimit: 10; stroke-width: 2px;"/>
      <line x1="115.67" y1="15.15" x2="115.67" y2="114.85" style="fill: none; stroke: #223654; stroke-miterlimit: 10; stroke-width: 2px;"/>
      <line x1="79.32" y1="15.15" x2="79.32" y2="114.85" style="fill: none; stroke: #223654; stroke-miterlimit: 10; stroke-width: 2px;"/>
      <line x1="42.98" y1="15.15" x2="42.98" y2="114.85" style="fill: none; stroke: #223654; stroke-miterlimit: 10; stroke-width: 2px;"/>
      <line x1="6.63" y1="114.85" x2="6.63" y2="15.15" style="fill: none; stroke: #223654; stroke-miterlimit: 10; stroke-width: 2px;"/>
    </g>
    <g>
      <line x1="6.63" y1="15.15" x2="1133.37" y2="15.15" style="fill: none; stroke: #223654; stroke-miterlimit: 10; stroke-width: 2px;"/>
      <line x1="1133.37" y1="48.38" x2="6.63" y2="48.38" style="fill: none; stroke: #223654; stroke-miterlimit: 10; stroke-width: 2px;"/>
      <line x1="1133.37" y1="81.62" x2="6.63" y2="81.62" style="fill: none; stroke: #223654; stroke-miterlimit: 10; stroke-width: 2px;"/>
      <line x1="1133.37" y1="114.85" x2="6.63" y2="114.85" style="fill: none; stroke: #223654; stroke-miterlimit: 10; stroke-width: 2px;"/>
    </g>
  </g>
  <g>
    <rect x="566.67" y="45.51" width="127.11" height="38.99" rx="6.23" ry="6.23" style="fill: #223654; filter: url(#outer-glow-1); stroke-width: 0px;"/>
    <g>
      <path d="m594.47,60.75c-.22-.35-.47-.72-.77-1.13-.29-.4-.61-.81-.95-1.22-.34-.41-.7-.8-1.07-1.18-.37-.38-.74-.71-1.11-1v4.53h-2.41v-10.69h2.41v4.02c.62-.65,1.25-1.33,1.88-2.04.64-.71,1.23-1.37,1.77-1.98h2.86c-.73.87-1.46,1.7-2.2,2.5-.74.8-1.51,1.6-2.32,2.41.86.71,1.68,1.56,2.47,2.54.79.98,1.56,2.06,2.29,3.24h-2.86Z" style="fill: #a3ea2a; stroke-width: 0px;"/>
      <path d="m597.56,56.76c0-.72.11-1.35.33-1.89.22-.54.51-.99.87-1.35.36-.36.77-.63,1.24-.82.47-.19.95-.28,1.44-.28,1.15,0,2.06.35,2.73,1.06.67.7,1,1.74,1,3.11,0,.13,0,.28-.02.44,0,.16-.02.3-.03.42h-5.21c.05.47.27.85.66,1.13.39.28.92.42,1.57.42.42,0,.83-.04,1.24-.12s.74-.17,1-.29l.31,1.87c-.12.06-.29.12-.49.18-.21.06-.43.12-.69.16-.25.05-.52.08-.81.12-.29.03-.58.05-.86.05-.73,0-1.37-.11-1.91-.32-.54-.22-.99-.51-1.34-.89-.35-.38-.62-.82-.79-1.33-.17-.51-.25-1.07-.25-1.67Zm5.4-.88c-.01-.2-.04-.39-.1-.57s-.14-.35-.26-.49c-.12-.14-.27-.26-.45-.35-.18-.09-.4-.14-.67-.14s-.48.04-.66.13c-.18.09-.34.2-.46.35-.12.14-.22.31-.29.5-.07.19-.12.38-.15.58h3.04Z" style="fill: #a3ea2a; stroke-width: 0px;"/>
      <path d="m614.17,52.64c-.46,1.56-.95,3.03-1.45,4.4s-1.06,2.69-1.65,3.98c-.22.46-.43.86-.65,1.18-.22.32-.45.59-.71.8-.26.21-.55.37-.87.46s-.7.15-1.14.15c-.36,0-.69-.03-1-.1-.3-.07-.55-.14-.75-.22l.4-1.83c.24.08.45.14.63.17.19.03.38.05.59.05.41,0,.73-.11.95-.33s.41-.53.56-.92c-.53-1.03-1.05-2.18-1.57-3.46-.53-1.28-1.02-2.72-1.48-4.31h2.44c.1.4.22.84.36,1.3.14.47.29.94.44,1.42.15.48.31.94.47,1.4.16.45.31.86.46,1.23.13-.37.27-.78.42-1.23.14-.45.29-.92.43-1.4.14-.48.27-.95.4-1.42.13-.47.25-.9.35-1.3h2.38Z" style="fill: #a3ea2a; stroke-width: 0px;"/>
      <path d="m622.81,60.89c-.59,0-1.17-.02-1.75-.05s-1.18-.12-1.81-.25v-10.36c.49-.09,1.03-.16,1.62-.21s1.13-.07,1.63-.07c.68,0,1.3.05,1.87.15.57.1,1.06.27,1.47.5.41.24.73.55.96.93s.35.86.35,1.43c0,.85-.41,1.53-1.23,2.02.68.26,1.14.61,1.39,1.05.25.44.37.94.37,1.5,0,1.12-.41,1.96-1.23,2.53-.82.57-2.03.85-3.65.85Zm-1.22-6.63h1.17c.74,0,1.27-.09,1.59-.29.32-.19.48-.5.48-.92s-.16-.73-.49-.91c-.33-.17-.81-.26-1.45-.26-.21,0-.43,0-.66,0-.24,0-.45.02-.63.04v2.33Zm0,1.84v2.76c.17.02.37.04.57.05.21,0,.43.01.68.01.72,0,1.3-.1,1.74-.31.44-.21.66-.59.66-1.14,0-.49-.19-.85-.56-1.06s-.9-.32-1.59-.32h-1.51Z" style="fill: #a3ea2a; stroke-width: 0px;"/>
      <path d="m632.37,52.43c.68,0,1.24.08,1.7.23s.82.38,1.09.66c.27.29.46.64.58,1.05.11.41.17.87.17,1.37v4.78c-.33.07-.79.16-1.37.25s-1.3.15-2.13.15c-.52,0-1-.05-1.43-.14-.43-.09-.79-.24-1.1-.46s-.54-.49-.71-.83c-.17-.34-.25-.76-.25-1.25s.09-.87.29-1.2.44-.59.76-.79c.32-.2.68-.34,1.09-.42s.84-.13,1.28-.13c.3,0,.56.01.79.04.23.03.42.06.56.1v-.22c0-.39-.12-.7-.35-.94-.24-.24-.65-.35-1.23-.35-.39,0-.78.03-1.16.08-.38.06-.71.14-.99.24l-.29-1.85c.13-.04.3-.08.5-.13s.42-.09.66-.12c.24-.04.49-.07.75-.09.26-.03.53-.04.79-.04Zm.18,6.72c.23,0,.44,0,.65-.01.21-.01.37-.03.49-.05v-1.74c-.09-.02-.23-.04-.42-.06-.19-.02-.36-.03-.51-.03-.22,0-.42.01-.61.04-.19.03-.36.07-.5.15-.14.07-.26.17-.34.29-.08.12-.12.28-.12.46,0,.36.12.61.36.75.24.14.57.21.99.21Z" style="fill: #a3ea2a; stroke-width: 0px;"/>
      <path d="m637.6,56.7c0-.59.09-1.14.29-1.66.19-.52.46-.97.83-1.36.36-.39.8-.69,1.31-.92.51-.23,1.1-.34,1.76-.34.43,0,.83.04,1.19.12.36.08.71.19,1.05.33l-.48,1.84c-.22-.08-.45-.15-.71-.22-.26-.06-.54-.09-.86-.09-.68,0-1.19.21-1.52.63-.33.42-.5.98-.5,1.67,0,.73.16,1.3.47,1.7s.86.6,1.64.6c.28,0,.58-.03.89-.08.32-.05.61-.13.88-.25l.32,1.88c-.27.11-.6.21-1,.29-.4.08-.84.12-1.33.12-.74,0-1.38-.11-1.91-.33-.54-.22-.97-.52-1.32-.9-.34-.38-.6-.83-.76-1.35-.16-.52-.24-1.08-.24-1.69Z" style="fill: #a3ea2a; stroke-width: 0px;"/>
      <path d="m648,55.55c.23-.25.46-.5.7-.77s.47-.53.7-.79c.23-.26.44-.51.64-.74.2-.23.37-.44.52-.61h2.73c-.55.63-1.08,1.22-1.6,1.79-.52.57-1.09,1.16-1.7,1.76.31.28.63.61.96,1,.33.39.65.79.96,1.2.31.41.59.82.85,1.24.26.41.47.79.65,1.13h-2.64c-.16-.27-.35-.56-.56-.89-.21-.33-.43-.65-.67-.97-.24-.32-.49-.64-.75-.94s-.52-.55-.78-.76v3.56h-2.3v-11.6l2.3-.37v6.77Z" style="fill: #a3ea2a; stroke-width: 0px;"/>
      <path d="m661.4,60.48c-.39.11-.89.22-1.51.32-.62.1-1.27.15-1.94.15s-1.26-.09-1.72-.28c-.46-.18-.82-.44-1.09-.78-.27-.33-.46-.73-.57-1.2-.11-.46-.17-.97-.17-1.53v-4.52h2.3v4.24c0,.74.1,1.28.29,1.6.2.33.56.49,1.1.49.16,0,.34,0,.52-.02.18-.02.35-.03.49-.05v-6.26h2.3v7.84Z" style="fill: #a3ea2a; stroke-width: 0px;"/>
      <path d="m671.1,56.7c0,.63-.08,1.2-.23,1.71-.15.51-.38.96-.68,1.33-.3.37-.67.66-1.11.86-.44.21-.95.31-1.53.31-.32,0-.62-.03-.89-.09-.28-.06-.54-.15-.8-.26v3.05h-2.3v-10.69c.21-.06.44-.12.71-.18.27-.06.55-.1.84-.15.29-.04.59-.07.89-.1.3-.03.59-.04.87-.04.67,0,1.27.1,1.79.3s.97.48,1.33.85c.36.37.63.81.83,1.33s.29,1.11.29,1.76Zm-2.34.06c0-.71-.16-1.28-.48-1.7-.32-.43-.79-.64-1.42-.64-.21,0-.4,0-.57.02-.17.02-.32.03-.43.05v4.15c.14.09.33.17.56.23.23.06.46.09.7.09,1.09,0,1.63-.74,1.63-2.21Z" style="fill: #a3ea2a; stroke-width: 0px;"/>
      <path d="m588.58,76.43c0-.39.06-.75.17-1.07.11-.32.26-.62.45-.88.19-.26.41-.49.66-.69s.52-.38.79-.53c-.24-.3-.46-.62-.66-.97s-.29-.72-.29-1.13c0-.9.27-1.6.82-2.09s1.3-.73,2.25-.73c.48,0,.9.06,1.26.19.36.13.66.3.9.52.24.22.42.48.55.77.12.29.18.61.18.95,0,.63-.18,1.19-.53,1.67-.36.49-.81.9-1.35,1.23l1.74,1.72c.09-.2.18-.46.27-.78s.14-.59.16-.82l1.91.25c-.02.2-.06.41-.11.64-.05.23-.12.46-.19.7-.08.24-.16.47-.26.71-.1.24-.2.45-.32.65.33.37.65.77.96,1.21.31.44.58.88.81,1.32h-2.35c-.09-.14-.2-.3-.34-.5-.14-.2-.29-.37-.43-.52-.41.33-.89.61-1.44.83s-1.16.33-1.84.33c-.72,0-1.32-.09-1.81-.27-.48-.18-.87-.41-1.16-.69-.29-.28-.5-.6-.63-.96-.12-.35-.18-.71-.18-1.05Zm2.14-.23c0,.15.03.31.09.48s.16.32.3.45c.14.14.32.25.53.34.22.09.48.13.79.13.43,0,.81-.06,1.14-.17.32-.11.59-.27.81-.45l-2.48-2.47c-.14.07-.28.16-.42.26s-.26.22-.38.36c-.11.14-.21.29-.28.47-.07.17-.11.37-.11.6Zm2.99-5.32c0-.24-.08-.45-.23-.63-.15-.19-.41-.28-.77-.28-.33,0-.58.1-.76.3s-.27.46-.27.78c0,.27.08.53.23.78s.35.49.6.72c.33-.19.61-.41.85-.67.24-.26.36-.59.36-1Z" style="fill: #a3ea2a; stroke-width: 0px;"/>
      <path d="m606.98,68.45c1.6,0,2.83.29,3.69.86.85.57,1.28,1.46,1.28,2.66,0,.75-.17,1.36-.52,1.83-.34.47-.84.83-1.49,1.1.22.27.44.57.68.92s.47.7.7,1.08c.23.38.46.77.67,1.17s.42.8.6,1.2h-2.69c-.2-.35-.4-.7-.6-1.06-.2-.36-.41-.71-.62-1.05-.21-.34-.42-.66-.63-.96-.21-.3-.41-.58-.62-.83h-1.19v3.9h-2.41v-10.54c.52-.1,1.07-.17,1.63-.22s1.06-.06,1.5-.06Zm.14,2.05c-.17,0-.33,0-.47.01-.14.01-.27.02-.39.03v2.9h.68c.91,0,1.55-.11,1.94-.34.39-.23.59-.61.59-1.16s-.2-.9-.59-1.12c-.4-.22-.98-.33-1.75-.33Z" style="fill: #a3ea2a; stroke-width: 0px;"/>
      <path d="m613.21,75.27c0-.72.11-1.35.33-1.89.22-.54.51-.99.87-1.35s.77-.63,1.24-.82c.47-.18.95-.28,1.44-.28,1.15,0,2.06.35,2.73,1.06.67.7,1,1.74,1,3.11,0,.13,0,.28-.02.44,0,.16-.02.3-.03.42h-5.21c.05.47.27.85.66,1.13.39.28.92.42,1.57.42.42,0,.83-.04,1.24-.12s.74-.17,1-.29l.31,1.87c-.12.06-.29.12-.49.18-.21.06-.43.12-.69.16-.25.05-.52.08-.81.12-.29.03-.58.05-.86.05-.73,0-1.37-.11-1.91-.32-.54-.22-.99-.51-1.34-.89-.35-.38-.62-.82-.79-1.33-.17-.51-.25-1.07-.25-1.67Zm5.4-.88c-.01-.2-.04-.39-.1-.57-.06-.19-.14-.35-.26-.49-.12-.14-.27-.26-.45-.35-.18-.09-.4-.14-.67-.14s-.48.04-.66.13c-.18.09-.34.2-.46.35-.12.14-.22.31-.29.5-.07.19-.12.38-.15.58h3.04Z" style="fill: #a3ea2a; stroke-width: 0px;"/>
      <path d="m622.22,75.21c0-.59.09-1.14.29-1.66.19-.52.46-.97.83-1.36.36-.39.8-.69,1.31-.92.51-.23,1.1-.34,1.76-.34.43,0,.83.04,1.19.12.36.08.71.19,1.05.33l-.48,1.84c-.22-.08-.45-.15-.71-.22-.26-.06-.54-.09-.86-.09-.68,0-1.19.21-1.52.63-.33.42-.5.98-.5,1.67,0,.73.16,1.3.47,1.7.31.4.86.6,1.64.6.28,0,.58-.03.89-.08.32-.05.61-.13.88-.25l.32,1.88c-.27.11-.6.21-1,.29-.4.08-.84.12-1.33.12-.74,0-1.38-.11-1.91-.33-.54-.22-.97-.52-1.32-.9-.34-.38-.6-.83-.76-1.35-.16-.52-.24-1.08-.24-1.69Z" style="fill: #a3ea2a; stroke-width: 0px;"/>
      <path d="m637.52,75.19c0,.64-.09,1.22-.28,1.75-.18.53-.45.98-.8,1.36s-.77.67-1.26.87c-.49.21-1.04.31-1.64.31s-1.14-.1-1.63-.31c-.49-.21-.91-.5-1.26-.87s-.62-.83-.82-1.36-.29-1.11-.29-1.75.1-1.22.3-1.74c.2-.52.48-.97.83-1.34.35-.37.78-.66,1.26-.86s1.02-.31,1.6-.31,1.12.1,1.61.31.91.49,1.26.86.62.82.82,1.34.29,1.11.29,1.74Zm-2.34,0c0-.71-.14-1.27-.42-1.67-.28-.41-.69-.61-1.21-.61s-.93.2-1.22.61c-.29.41-.43.96-.43,1.67s.14,1.27.43,1.69c.29.42.69.62,1.22.62s.93-.21,1.21-.62c.28-.42.42-.98.42-1.69Z" style="fill: #a3ea2a; stroke-width: 0px;"/>
      <path d="m641.29,79.26c-.53-1.03-1.06-2.23-1.6-3.61s-1.06-2.88-1.54-4.5h2.44c.1.4.22.84.36,1.3s.28.94.43,1.42c.15.48.3.94.45,1.4.15.45.3.86.44,1.23.13-.37.28-.78.43-1.23.15-.45.31-.92.46-1.4.15-.48.29-.95.43-1.42.14-.47.26-.9.36-1.3h2.38c-.49,1.62-1,3.13-1.54,4.5-.54,1.38-1.08,2.58-1.6,3.61h-1.91Z" style="fill: #a3ea2a; stroke-width: 0px;"/>
      <path d="m646.96,75.27c0-.72.11-1.35.33-1.89.22-.54.51-.99.87-1.35s.77-.63,1.24-.82c.47-.18.95-.28,1.44-.28,1.15,0,2.06.35,2.73,1.06.67.7,1,1.74,1,3.11,0,.13,0,.28-.02.44,0,.16-.02.3-.03.42h-5.21c.05.47.27.85.66,1.13.39.28.92.42,1.57.42.42,0,.83-.04,1.24-.12s.74-.17,1-.29l.31,1.87c-.12.06-.29.12-.49.18-.21.06-.43.12-.69.16-.25.05-.52.08-.81.12-.29.03-.58.05-.86.05-.73,0-1.37-.11-1.91-.32-.54-.22-.99-.51-1.34-.89-.35-.38-.62-.82-.79-1.33-.17-.51-.25-1.07-.25-1.67Zm5.4-.88c-.01-.2-.04-.39-.1-.57-.06-.19-.14-.35-.26-.49-.12-.14-.27-.26-.45-.35-.18-.09-.4-.14-.67-.14s-.48.04-.66.13c-.18.09-.34.2-.46.35-.12.14-.22.31-.29.5-.07.19-.12.38-.15.58h3.04Z" style="fill: #a3ea2a; stroke-width: 0px;"/>
      <path d="m661.24,73.19c-.21-.05-.45-.11-.72-.16s-.58-.08-.89-.08c-.14,0-.32.01-.52.04s-.35.05-.46.08v6.2h-2.3v-7.68c.41-.14.9-.28,1.46-.41s1.19-.19,1.87-.19c.12,0,.27,0,.45.02s.35.04.52.06c.17.03.35.06.52.09s.32.08.45.13l-.39,1.9Z" style="fill: #a3ea2a; stroke-width: 0px;"/>
      <path d="m670.55,71.15c-.46,1.56-.95,3.03-1.45,4.4-.5,1.37-1.06,2.69-1.65,3.98-.22.46-.43.86-.65,1.18-.22.32-.45.59-.71.8-.26.21-.55.37-.87.46s-.7.15-1.14.15c-.36,0-.69-.03-1-.1-.3-.07-.55-.14-.75-.22l.4-1.83c.24.08.45.14.63.17.19.03.38.05.59.05.41,0,.73-.11.95-.33s.41-.53.56-.92c-.53-1.03-1.05-2.18-1.57-3.46-.53-1.28-1.02-2.72-1.48-4.31h2.44c.1.4.22.84.36,1.3s.29.94.44,1.42c.15.48.31.94.47,1.4.16.45.31.86.46,1.23.13-.37.27-.78.42-1.23.14-.45.29-.92.43-1.4.14-.48.27-.95.4-1.42s.25-.9.35-1.3h2.38Z" style="fill: #a3ea2a; stroke-width: 0px;"/>
    </g>
    <rect x="183.8" y="45.51" width="127.11" height="38.99" rx="6.23" ry="6.23" style="fill: #223654; filter: url(#outer-glow-2); stroke-width: 0px;"/>
    <g>
      <path d="m240.34,60.75c-.22-.35-.47-.72-.77-1.13-.29-.4-.61-.81-.95-1.22-.34-.41-.69-.8-1.07-1.18-.37-.38-.74-.71-1.11-1v4.53h-2.41v-10.69h2.41v4.02c.62-.65,1.25-1.33,1.89-2.04s1.23-1.37,1.77-1.98h2.86c-.73.87-1.46,1.7-2.2,2.5-.74.8-1.51,1.6-2.32,2.41.85.71,1.68,1.56,2.47,2.54.79.98,1.56,2.06,2.29,3.24h-2.86Z" style="fill: #a3ea2a; stroke-width: 0px;"/>
      <path d="m243.43,56.76c0-.72.11-1.35.33-1.89.22-.54.51-.99.87-1.35s.77-.63,1.24-.82c.47-.19.95-.28,1.44-.28,1.15,0,2.06.35,2.73,1.06s1,1.74,1,3.11c0,.13,0,.28-.02.44-.01.16-.02.3-.03.42h-5.21c.05.47.27.85.66,1.13.39.28.92.42,1.57.42.42,0,.84-.04,1.24-.12s.74-.17.99-.29l.31,1.87c-.12.06-.29.12-.49.18-.21.06-.43.12-.69.16-.25.05-.52.08-.81.12-.29.03-.58.05-.86.05-.73,0-1.36-.11-1.9-.32-.54-.22-.99-.51-1.34-.89-.35-.38-.62-.82-.79-1.33-.17-.51-.25-1.07-.25-1.67Zm5.4-.88c-.01-.2-.04-.39-.1-.57s-.14-.35-.26-.49c-.12-.14-.27-.26-.45-.35-.18-.09-.4-.14-.67-.14s-.48.04-.66.13-.34.2-.46.35-.22.31-.29.5c-.07.19-.12.38-.15.58h3.04Z" style="fill: #a3ea2a; stroke-width: 0px;"/>
      <path d="m260.04,52.64c-.46,1.56-.95,3.03-1.45,4.4-.5,1.37-1.06,2.69-1.65,3.98-.22.46-.43.86-.65,1.18-.22.32-.45.59-.71.8s-.55.37-.87.46c-.32.1-.7.15-1.14.15-.36,0-.69-.03-1-.1-.3-.07-.55-.14-.75-.22l.4-1.83c.24.08.45.14.63.17.19.03.38.05.59.05.41,0,.73-.11.95-.33.22-.22.41-.53.56-.92-.52-1.03-1.05-2.18-1.57-3.46-.52-1.28-1.02-2.72-1.48-4.31h2.44c.1.4.22.84.36,1.3.14.47.29.94.44,1.42.15.48.31.94.47,1.4.16.45.31.86.46,1.23.13-.37.27-.78.42-1.23.14-.45.29-.92.43-1.4.14-.48.27-.95.4-1.42.13-.47.25-.9.35-1.3h2.38Z" style="fill: #a3ea2a; stroke-width: 0px;"/>
      <path d="m212.45,73.91c0,.93-.14,1.73-.43,2.42-.29.69-.7,1.26-1.23,1.71-.53.45-1.17.79-1.94,1.02-.76.23-1.61.34-2.56.34-.43,0-.94-.02-1.51-.05-.58-.04-1.14-.11-1.7-.22v-10.41c.56-.1,1.13-.17,1.74-.21.6-.04,1.12-.05,1.55-.05.92,0,1.75.1,2.49.31s1.39.53,1.92.97.95,1.01,1.23,1.7c.29.69.43,1.52.43,2.48Zm-6.96,3.39c.11.01.24.02.39.02.15,0,.33,0,.53,0,1.2,0,2.1-.3,2.68-.91s.87-1.44.87-2.51-.28-1.97-.83-2.54c-.56-.58-1.43-.86-2.64-.86-.16,0-.33,0-.51,0-.17,0-.34.02-.49.04v6.76Z" style="fill: #a3ea2a; stroke-width: 0px;"/>
      <path d="m216.82,68.81c0,.42-.14.75-.41,1-.27.24-.59.36-.96.36s-.69-.12-.96-.36c-.27-.24-.41-.57-.41-1s.14-.75.41-.99c.27-.24.59-.36.96-.36s.69.12.96.36c.27.24.41.57.41.99Zm-.22,10.46h-2.3v-8.11h2.3v8.11Z" style="fill: #a3ea2a; stroke-width: 0px;"/>
      <path d="m221.09,77.61c.42,0,.72-.04.89-.12.17-.08.26-.24.26-.48,0-.19-.11-.35-.34-.49-.23-.14-.57-.29-1.03-.47-.36-.13-.69-.27-.98-.42-.29-.14-.54-.32-.75-.52-.21-.2-.37-.44-.48-.72-.11-.28-.17-.61-.17-1,0-.76.28-1.36.85-1.8.57-.44,1.34-.66,2.33-.66.49,0,.97.04,1.42.13.45.09.81.18,1.08.29l-.4,1.79c-.27-.09-.56-.17-.87-.25-.31-.07-.67-.11-1.06-.11-.72,0-1.08.2-1.08.6,0,.09.02.17.05.25.03.07.09.14.19.21.09.07.22.14.38.22.16.08.36.16.61.26.5.19.92.37,1.25.55.33.18.59.38.78.59s.32.44.4.7c.08.26.12.55.12.89,0,.8-.3,1.41-.9,1.82s-1.45.62-2.55.62c-.72,0-1.32-.06-1.8-.18-.48-.12-.81-.23-.99-.31l.39-1.87c.39.15.79.27,1.2.36.41.09.82.13,1.22.13Z" style="fill: #a3ea2a; stroke-width: 0px;"/>
      <path d="m226.16,69.13l2.3-.37v2.39h2.76v1.91h-2.76v2.85c0,.48.08.87.25,1.16.17.29.51.43,1.03.43.25,0,.5-.02.76-.07.26-.05.5-.11.72-.19l.32,1.79c-.28.11-.59.21-.93.29s-.76.12-1.25.12c-.63,0-1.15-.08-1.56-.25s-.74-.41-.99-.71c-.25-.3-.42-.67-.52-1.1s-.15-.91-.15-1.43v-6.82Z" style="fill: #a3ea2a; stroke-width: 0px;"/>
      <path d="m237.98,73.19c-.21-.05-.45-.11-.73-.16-.28-.06-.58-.08-.89-.08-.14,0-.32.01-.52.04s-.35.05-.46.08v6.2h-2.3v-7.68c.41-.14.9-.28,1.46-.41s1.19-.19,1.87-.19c.12,0,.27,0,.45.02.17.02.35.04.52.06.17.03.35.06.52.09.17.04.32.08.45.13l-.39,1.9Z" style="fill: #a3ea2a; stroke-width: 0px;"/>
      <path d="m242.11,68.81c0,.42-.14.75-.41,1-.27.24-.59.36-.96.36s-.69-.12-.96-.36c-.27-.24-.41-.57-.41-1s.14-.75.41-.99c.27-.24.59-.36.96-.36s.69.12.96.36c.27.24.41.57.41.99Zm-.22,10.46h-2.3v-8.11h2.3v8.11Z" style="fill: #a3ea2a; stroke-width: 0px;"/>
      <path d="m251.6,75.21c0,.65-.1,1.23-.29,1.76-.19.52-.47.97-.83,1.34-.36.37-.8.66-1.33.86-.52.2-1.12.3-1.79.3-.28,0-.57-.01-.87-.04-.3-.03-.6-.06-.89-.1s-.57-.09-.84-.15-.5-.12-.71-.18v-11.34l2.3-.37v4.04c.26-.11.52-.2.8-.26.28-.06.58-.09.89-.09.58,0,1.08.1,1.53.3.44.2.81.49,1.11.86.3.37.52.82.68,1.33.15.52.23,1.1.23,1.74Zm-2.34-.06c0-1.48-.55-2.22-1.64-2.22-.24,0-.47.03-.7.09s-.42.14-.56.23v4.18c.11.02.26.04.43.05.17.02.36.02.57.02.63,0,1.1-.22,1.42-.65.32-.43.48-1,.48-1.71Z" style="fill: #a3ea2a; stroke-width: 0px;"/>
      <path d="m260.3,78.99c-.39.11-.89.22-1.51.32-.62.1-1.26.15-1.94.15s-1.26-.09-1.72-.28c-.46-.18-.82-.44-1.09-.78-.27-.33-.46-.73-.57-1.2-.11-.46-.17-.97-.17-1.53v-4.52h2.3v4.24c0,.74.1,1.27.29,1.6s.56.49,1.1.49c.16,0,.34,0,.52-.02s.35-.03.49-.05v-6.26h2.3v7.84Z" style="fill: #a3ea2a; stroke-width: 0px;"/>
      <path d="m262.38,69.13l2.3-.37v2.39h2.76v1.91h-2.76v2.85c0,.48.08.87.25,1.16.17.29.51.43,1.03.43.25,0,.5-.02.76-.07.26-.05.5-.11.72-.19l.32,1.79c-.28.11-.59.21-.93.29s-.76.12-1.25.12c-.63,0-1.15-.08-1.56-.25s-.74-.41-.99-.71c-.25-.3-.42-.67-.52-1.1s-.15-.91-.15-1.43v-6.82Z" style="fill: #a3ea2a; stroke-width: 0px;"/>
      <path d="m271.82,68.81c0,.42-.14.75-.41,1-.27.24-.59.36-.96.36s-.69-.12-.96-.36c-.27-.24-.41-.57-.41-1s.14-.75.41-.99c.27-.24.59-.36.96-.36s.69.12.96.36c.27.24.41.57.41.99Zm-.22,10.46h-2.3v-8.11h2.3v8.11Z" style="fill: #a3ea2a; stroke-width: 0px;"/>
      <path d="m281.35,75.19c0,.64-.09,1.22-.28,1.75-.19.53-.45.98-.8,1.36s-.77.67-1.26.87c-.49.21-1.04.31-1.64.31s-1.14-.1-1.63-.31c-.49-.21-.91-.5-1.26-.87s-.62-.83-.82-1.36c-.2-.53-.29-1.11-.29-1.75s.1-1.22.3-1.74c.2-.52.48-.97.83-1.34.35-.37.78-.66,1.27-.86.49-.21,1.02-.31,1.6-.31s1.12.1,1.61.31.91.49,1.26.86c.35.37.62.82.82,1.34s.29,1.11.29,1.74Zm-2.34,0c0-.71-.14-1.27-.42-1.67-.28-.41-.69-.61-1.21-.61s-.93.2-1.22.61c-.29.41-.43.96-.43,1.67s.14,1.27.43,1.69c.29.42.69.62,1.22.62s.93-.21,1.21-.62c.28-.42.42-.98.42-1.69Z" style="fill: #a3ea2a; stroke-width: 0px;"/>
      <path d="m283.12,71.43c.39-.11.89-.22,1.51-.32s1.26-.15,1.94-.15,1.26.09,1.72.27.82.43,1.09.76c.27.33.46.72.57,1.17.11.45.17.96.17,1.51v4.58h-2.3v-4.3c0-.74-.1-1.26-.29-1.57-.2-.31-.56-.46-1.1-.46-.16,0-.34,0-.52.02s-.35.03-.49.05v6.26h-2.3v-7.84Z" style="fill: #a3ea2a; stroke-width: 0px;"/>
    </g>
    <rect x="984.77" y="45.51" width="127.11" height="38.99" rx="6.23" ry="6.23" style="fill: #223654; filter: url(#outer-glow-3); stroke-width: 0px;"/>
    <g>
      <path d="m1041.31,60.75c-.22-.35-.47-.72-.77-1.13-.29-.4-.61-.81-.95-1.22-.34-.41-.7-.8-1.07-1.18-.37-.38-.74-.71-1.11-1v4.53h-2.41v-10.69h2.41v4.02c.62-.65,1.25-1.33,1.88-2.04.64-.71,1.23-1.37,1.77-1.98h2.86c-.73.87-1.46,1.7-2.2,2.5-.74.8-1.51,1.6-2.32,2.41.86.71,1.68,1.56,2.47,2.54.79.98,1.56,2.06,2.29,3.24h-2.86Z" style="fill: #a3ea2a; stroke-width: 0px;"/>
      <path d="m1044.4,56.76c0-.72.11-1.35.33-1.89.22-.54.51-.99.87-1.35.36-.36.77-.63,1.24-.82.47-.19.95-.28,1.44-.28,1.15,0,2.06.35,2.73,1.06.67.7,1,1.74,1,3.11,0,.13,0,.28-.02.44,0,.16-.02.3-.03.42h-5.21c.05.47.27.85.66,1.13.39.28.92.42,1.57.42.42,0,.83-.04,1.24-.12s.74-.17,1-.29l.31,1.87c-.12.06-.29.12-.49.18-.21.06-.43.12-.69.16-.25.05-.52.08-.81.12-.29.03-.58.05-.86.05-.73,0-1.37-.11-1.91-.32-.54-.22-.99-.51-1.34-.89-.35-.38-.62-.82-.79-1.33-.17-.51-.25-1.07-.25-1.67Zm5.4-.88c-.01-.2-.04-.39-.1-.57s-.14-.35-.26-.49c-.12-.14-.27-.26-.45-.35-.18-.09-.4-.14-.67-.14s-.48.04-.66.13c-.18.09-.34.2-.46.35-.12.14-.22.31-.29.5-.07.19-.12.38-.15.58h3.04Z" style="fill: #a3ea2a; stroke-width: 0px;"/>
      <path d="m1061.01,52.64c-.46,1.56-.95,3.03-1.45,4.4s-1.06,2.69-1.65,3.98c-.22.46-.43.86-.65,1.18-.22.32-.45.59-.71.8-.26.21-.55.37-.87.46s-.7.15-1.14.15c-.36,0-.69-.03-1-.1-.3-.07-.55-.14-.75-.22l.4-1.83c.24.08.45.14.63.17.19.03.38.05.59.05.41,0,.73-.11.95-.33s.41-.53.56-.92c-.53-1.03-1.05-2.18-1.57-3.46-.53-1.28-1.02-2.72-1.48-4.31h2.44c.1.4.22.84.36,1.3.14.47.29.94.44,1.42.15.48.31.94.47,1.4.16.45.31.86.46,1.23.13-.37.27-.78.42-1.23.14-.45.29-.92.43-1.4.14-.48.27-.95.4-1.42.13-.47.25-.9.35-1.3h2.38Z" style="fill: #a3ea2a; stroke-width: 0px;"/>
      <path d="m1014.18,73.91c0,.93-.14,1.73-.43,2.42-.29.69-.7,1.26-1.23,1.71-.53.45-1.17.79-1.94,1.02-.76.23-1.62.34-2.56.34-.43,0-.94-.02-1.51-.05s-1.14-.11-1.7-.22v-10.41c.55-.1,1.13-.17,1.73-.21.6-.04,1.12-.05,1.55-.05.92,0,1.75.1,2.49.31.75.21,1.38.53,1.92.97.53.44.95,1.01,1.23,1.7.29.69.43,1.52.43,2.48Zm-6.96,3.39c.11.01.24.02.39.02.15,0,.33,0,.53,0,1.2,0,2.1-.3,2.68-.91.58-.61.87-1.44.87-2.51s-.28-1.97-.83-2.54c-.56-.58-1.43-.86-2.64-.86-.16,0-.33,0-.51,0-.17,0-.34.02-.49.04v6.76Z" style="fill: #a3ea2a; stroke-width: 0px;"/>
      <path d="m1015.64,75.27c0-.72.11-1.35.33-1.89.22-.54.51-.99.87-1.35s.77-.63,1.24-.82c.47-.18.95-.28,1.44-.28,1.15,0,2.06.35,2.73,1.06.67.7,1,1.74,1,3.11,0,.13,0,.28-.02.44,0,.16-.02.3-.03.42h-5.21c.05.47.27.85.66,1.13.39.28.92.42,1.57.42.42,0,.83-.04,1.24-.12s.74-.17,1-.29l.31,1.87c-.12.06-.29.12-.49.18-.21.06-.43.12-.69.16-.25.05-.52.08-.81.12-.29.03-.58.05-.86.05-.73,0-1.37-.11-1.91-.32-.54-.22-.99-.51-1.34-.89-.35-.38-.62-.82-.79-1.33-.17-.51-.25-1.07-.25-1.67Zm5.4-.88c-.01-.2-.04-.39-.1-.57-.06-.19-.14-.35-.26-.49-.12-.14-.27-.26-.45-.35-.18-.09-.4-.14-.67-.14s-.48.04-.66.13c-.18.09-.34.2-.46.35-.12.14-.22.31-.29.5-.07.19-.12.38-.15.58h3.04Z" style="fill: #a3ea2a; stroke-width: 0px;"/>
      <path d="m1027.36,77.61c.42,0,.72-.04.89-.12.17-.08.26-.24.26-.48,0-.19-.11-.35-.34-.49-.23-.14-.57-.29-1.03-.47-.36-.13-.69-.27-.98-.42-.29-.14-.54-.32-.75-.52-.21-.2-.36-.44-.48-.72-.11-.28-.17-.61-.17-1,0-.76.28-1.36.85-1.8s1.34-.66,2.33-.66c.49,0,.97.04,1.42.13.45.09.81.18,1.08.29l-.4,1.79c-.27-.09-.56-.17-.87-.25-.31-.07-.67-.11-1.06-.11-.72,0-1.08.2-1.08.6,0,.09.02.17.05.25.03.07.09.14.19.21.09.07.22.14.38.22.16.08.36.16.61.26.5.19.92.37,1.25.55.33.18.59.38.78.59.19.21.32.44.4.7.08.26.12.55.12.89,0,.8-.3,1.41-.9,1.82s-1.45.62-2.55.62c-.72,0-1.32-.06-1.8-.18-.48-.12-.81-.23-1-.31l.39-1.87c.39.15.79.27,1.2.36.41.09.82.13,1.22.13Z" style="fill: #a3ea2a; stroke-width: 0px;"/>
      <path d="m1032.44,69.13l2.3-.37v2.39h2.76v1.91h-2.76v2.85c0,.48.08.87.25,1.16.17.29.51.43,1.03.43.25,0,.5-.02.76-.07.26-.05.5-.11.72-.19l.32,1.79c-.28.11-.59.21-.93.29-.34.08-.76.12-1.25.12-.63,0-1.15-.08-1.56-.25-.41-.17-.74-.41-.99-.71-.25-.3-.42-.67-.52-1.1-.1-.43-.15-.91-.15-1.43v-6.82Z" style="fill: #a3ea2a; stroke-width: 0px;"/>
      <path d="m1044.25,73.19c-.21-.05-.45-.11-.72-.16s-.58-.08-.89-.08c-.14,0-.32.01-.52.04s-.35.05-.46.08v6.2h-2.3v-7.68c.41-.14.9-.28,1.46-.41s1.19-.19,1.87-.19c.12,0,.27,0,.45.02s.35.04.52.06c.17.03.35.06.52.09s.32.08.45.13l-.39,1.9Z" style="fill: #a3ea2a; stroke-width: 0px;"/>
      <path d="m1052.8,78.99c-.39.11-.89.22-1.51.32-.62.1-1.27.15-1.94.15s-1.26-.09-1.72-.28c-.46-.18-.82-.44-1.09-.78-.27-.33-.46-.73-.57-1.2-.11-.46-.17-.97-.17-1.53v-4.52h2.3v4.24c0,.74.1,1.27.29,1.6s.56.49,1.1.49c.16,0,.34,0,.52-.02.18-.02.35-.03.49-.05v-6.26h2.3v7.84Z" style="fill: #a3ea2a; stroke-width: 0px;"/>
      <path d="m1054.57,75.21c0-.59.09-1.14.29-1.66.19-.52.46-.97.83-1.36.36-.39.8-.69,1.31-.92.51-.23,1.1-.34,1.76-.34.43,0,.83.04,1.19.12.36.08.71.19,1.05.33l-.48,1.84c-.22-.08-.45-.15-.71-.22-.26-.06-.54-.09-.86-.09-.68,0-1.19.21-1.52.63-.33.42-.5.98-.5,1.67,0,.73.16,1.3.47,1.7.31.4.86.6,1.64.6.28,0,.58-.03.89-.08.32-.05.61-.13.88-.25l.32,1.88c-.27.11-.6.21-1,.29-.4.08-.84.12-1.33.12-.74,0-1.38-.11-1.91-.33-.54-.22-.97-.52-1.32-.9-.34-.38-.6-.83-.76-1.35-.16-.52-.24-1.08-.24-1.69Z" style="fill: #a3ea2a; stroke-width: 0px;"/>
      <path d="m1062.59,69.13l2.3-.37v2.39h2.76v1.91h-2.76v2.85c0,.48.08.87.25,1.16.17.29.51.43,1.03.43.25,0,.5-.02.76-.07.26-.05.5-.11.72-.19l.32,1.79c-.28.11-.59.21-.93.29-.34.08-.76.12-1.25.12-.63,0-1.15-.08-1.56-.25-.41-.17-.74-.41-.99-.71-.25-.3-.42-.67-.52-1.1-.1-.43-.15-.91-.15-1.43v-6.82Z" style="fill: #a3ea2a; stroke-width: 0px;"/>
      <path d="m1072.03,68.81c0,.42-.14.75-.41,1-.27.24-.59.36-.96.36s-.69-.12-.96-.36c-.27-.24-.41-.57-.41-1s.14-.75.41-.99c.27-.24.59-.36.96-.36s.69.12.96.36c.27.24.41.57.41.99Zm-.22,10.46h-2.3v-8.11h2.3v8.11Z" style="fill: #a3ea2a; stroke-width: 0px;"/>
      <path d="m1081.56,75.19c0,.64-.09,1.22-.28,1.75-.18.53-.45.98-.8,1.36s-.77.67-1.26.87c-.49.21-1.04.31-1.64.31s-1.14-.1-1.63-.31c-.49-.21-.91-.5-1.26-.87s-.62-.83-.82-1.36-.29-1.11-.29-1.75.1-1.22.3-1.74c.2-.52.48-.97.83-1.34.35-.37.78-.66,1.26-.86s1.02-.31,1.6-.31,1.12.1,1.61.31.91.49,1.26.86.62.82.82,1.34.29,1.11.29,1.74Zm-2.34,0c0-.71-.14-1.27-.42-1.67-.28-.41-.69-.61-1.21-.61s-.93.2-1.22.61c-.29.41-.43.96-.43,1.67s.14,1.27.43,1.69c.29.42.69.62,1.22.62s.93-.21,1.21-.62c.28-.42.42-.98.42-1.69Z" style="fill: #a3ea2a; stroke-width: 0px;"/>
      <path d="m1083.34,71.43c.39-.11.89-.22,1.51-.32.62-.1,1.27-.15,1.94-.15s1.26.09,1.72.27c.46.18.82.43,1.09.76s.46.72.57,1.17c.11.45.17.96.17,1.51v4.58h-2.3v-4.3c0-.74-.1-1.26-.29-1.57s-.56-.46-1.1-.46c-.16,0-.34,0-.52.02-.18.02-.35.03-.49.05v6.26h-2.3v-7.84Z" style="fill: #a3ea2a; stroke-width: 0px;"/>
    </g>
    <rect x="842.64" y="45.51" width="113.56" height="38.99" rx="6.23" ry="6.23" style="fill: #223654; filter: url(#outer-glow-4); stroke-width: 0px;"/>
    <g>
      <path d="m892.4,60.75c-.22-.35-.47-.72-.77-1.13-.29-.4-.61-.81-.95-1.22-.34-.41-.7-.8-1.07-1.18-.37-.38-.74-.71-1.11-1v4.53h-2.41v-10.69h2.41v4.02c.62-.65,1.25-1.33,1.88-2.04.64-.71,1.23-1.37,1.77-1.98h2.86c-.73.87-1.46,1.7-2.2,2.5-.74.8-1.51,1.6-2.32,2.41.86.71,1.68,1.56,2.47,2.54.79.98,1.56,2.06,2.29,3.24h-2.86Z" style="fill: #a3ea2a; stroke-width: 0px;"/>
      <path d="m895.49,56.76c0-.72.11-1.35.33-1.89.22-.54.51-.99.87-1.35.36-.36.77-.63,1.24-.82.47-.19.95-.28,1.44-.28,1.15,0,2.06.35,2.73,1.06.67.7,1,1.74,1,3.11,0,.13,0,.28-.02.44,0,.16-.02.3-.03.42h-5.21c.05.47.27.85.66,1.13.39.28.92.42,1.57.42.42,0,.83-.04,1.24-.12s.74-.17,1-.29l.31,1.87c-.12.06-.29.12-.49.18-.21.06-.43.12-.69.16-.25.05-.52.08-.81.12-.29.03-.58.05-.86.05-.73,0-1.37-.11-1.91-.32-.54-.22-.99-.51-1.34-.89-.35-.38-.62-.82-.79-1.33-.17-.51-.25-1.07-.25-1.67Zm5.4-.88c-.01-.2-.04-.39-.1-.57s-.14-.35-.26-.49c-.12-.14-.27-.26-.45-.35-.18-.09-.4-.14-.67-.14s-.48.04-.66.13c-.18.09-.34.2-.46.35-.12.14-.22.31-.29.5-.07.19-.12.38-.15.58h3.04Z" style="fill: #a3ea2a; stroke-width: 0px;"/>
      <path d="m912.1,52.64c-.46,1.56-.95,3.03-1.45,4.4s-1.06,2.69-1.65,3.98c-.22.46-.43.86-.65,1.18-.22.32-.45.59-.71.8-.26.21-.55.37-.87.46s-.7.15-1.14.15c-.36,0-.69-.03-1-.1-.3-.07-.55-.14-.75-.22l.4-1.83c.24.08.45.14.63.17.19.03.38.05.59.05.41,0,.73-.11.95-.33s.41-.53.56-.92c-.53-1.03-1.05-2.18-1.57-3.46-.53-1.28-1.02-2.72-1.48-4.31h2.44c.1.4.22.84.36,1.3.14.47.29.94.44,1.42.15.48.31.94.47,1.4.16.45.31.86.46,1.23.13-.37.27-.78.42-1.23.14-.45.29-.92.43-1.4.14-.48.27-.95.4-1.42.13-.47.25-.9.35-1.3h2.38Z" style="fill: #a3ea2a; stroke-width: 0px;"/>
      <path d="m861.84,68.45c1.6,0,2.83.29,3.69.86.85.57,1.28,1.46,1.28,2.66,0,.75-.17,1.36-.52,1.83-.34.47-.84.83-1.49,1.1.22.27.44.57.68.92s.47.7.7,1.08c.23.38.46.77.67,1.17s.42.8.6,1.2h-2.69c-.2-.35-.4-.7-.6-1.06-.2-.36-.41-.71-.62-1.05-.21-.34-.42-.66-.63-.96-.21-.3-.41-.58-.62-.83h-1.19v3.9h-2.41v-10.54c.52-.1,1.07-.17,1.63-.22s1.06-.06,1.5-.06Zm.14,2.05c-.17,0-.33,0-.47.01-.14.01-.27.02-.39.03v2.9h.68c.91,0,1.55-.11,1.94-.34.39-.23.59-.61.59-1.16s-.2-.9-.59-1.12c-.4-.22-.98-.33-1.75-.33Z" style="fill: #a3ea2a; stroke-width: 0px;"/>
      <path d="m868.08,75.27c0-.72.11-1.35.33-1.89.22-.54.51-.99.87-1.35s.77-.63,1.24-.82c.47-.18.95-.28,1.44-.28,1.15,0,2.06.35,2.73,1.06.67.7,1,1.74,1,3.11,0,.13,0,.28-.02.44,0,.16-.02.3-.03.42h-5.21c.05.47.27.85.66,1.13.39.28.92.42,1.57.42.42,0,.83-.04,1.24-.12s.74-.17,1-.29l.31,1.87c-.12.06-.29.12-.49.18-.21.06-.43.12-.69.16-.25.05-.52.08-.81.12-.29.03-.58.05-.86.05-.73,0-1.37-.11-1.91-.32-.54-.22-.99-.51-1.34-.89-.35-.38-.62-.82-.79-1.33-.17-.51-.25-1.07-.25-1.67Zm5.4-.88c-.01-.2-.04-.39-.1-.57-.06-.19-.14-.35-.26-.49-.12-.14-.27-.26-.45-.35-.18-.09-.4-.14-.67-.14s-.48.04-.66.13c-.18.09-.34.2-.46.35-.12.14-.22.31-.29.5-.07.19-.12.38-.15.58h3.04Z" style="fill: #a3ea2a; stroke-width: 0px;"/>
      <path d="m879.69,79.26c-.53-1.03-1.06-2.23-1.6-3.61s-1.06-2.88-1.54-4.5h2.44c.1.4.22.84.36,1.3s.28.94.43,1.42c.15.48.3.94.45,1.4.15.45.3.86.44,1.23.13-.37.28-.78.43-1.23.15-.45.31-.92.46-1.4.15-.48.29-.95.43-1.42.14-.47.26-.9.36-1.3h2.38c-.49,1.62-1,3.13-1.54,4.5-.54,1.38-1.08,2.58-1.6,3.61h-1.91Z" style="fill: #a3ea2a; stroke-width: 0px;"/>
      <path d="m893.33,75.19c0,.64-.09,1.22-.28,1.75-.18.53-.45.98-.8,1.36s-.77.67-1.26.87c-.49.21-1.04.31-1.64.31s-1.14-.1-1.63-.31c-.49-.21-.91-.5-1.26-.87s-.62-.83-.82-1.36-.29-1.11-.29-1.75.1-1.22.3-1.74c.2-.52.48-.97.83-1.34.35-.37.78-.66,1.26-.86s1.02-.31,1.6-.31,1.12.1,1.61.31.91.49,1.26.86.62.82.82,1.34.29,1.11.29,1.74Zm-2.34,0c0-.71-.14-1.27-.42-1.67-.28-.41-.69-.61-1.21-.61s-.93.2-1.22.61c-.29.41-.43.96-.43,1.67s.14,1.27.43,1.69c.29.42.69.62,1.22.62s.93-.21,1.21-.62c.28-.42.42-.98.42-1.69Z" style="fill: #a3ea2a; stroke-width: 0px;"/>
      <path d="m894.71,75.21c0-.59.09-1.14.29-1.66.19-.52.46-.97.83-1.36.36-.39.8-.69,1.31-.92.51-.23,1.1-.34,1.76-.34.43,0,.83.04,1.19.12.36.08.71.19,1.05.33l-.48,1.84c-.22-.08-.45-.15-.71-.22-.26-.06-.54-.09-.86-.09-.68,0-1.19.21-1.52.63-.33.42-.5.98-.5,1.67,0,.73.16,1.3.47,1.7.31.4.86.6,1.64.6.28,0,.58-.03.89-.08.32-.05.61-.13.88-.25l.32,1.88c-.27.11-.6.21-1,.29-.4.08-.84.12-1.33.12-.74,0-1.38-.11-1.91-.33-.54-.22-.97-.52-1.32-.9-.34-.38-.6-.83-.76-1.35-.16-.52-.24-1.08-.24-1.69Z" style="fill: #a3ea2a; stroke-width: 0px;"/>
      <path d="m905.34,70.93c.68,0,1.24.08,1.7.23s.82.38,1.09.66.46.64.58,1.05.17.87.17,1.37v4.78c-.33.07-.79.16-1.37.25s-1.3.15-2.13.15c-.52,0-1-.05-1.43-.14-.43-.09-.79-.24-1.1-.46s-.54-.49-.71-.83c-.17-.34-.25-.76-.25-1.25s.09-.87.29-1.2.44-.59.76-.79c.32-.2.68-.34,1.09-.42.41-.09.84-.13,1.28-.13.3,0,.56.01.79.04s.42.06.56.1v-.22c0-.39-.12-.7-.35-.94-.24-.24-.65-.36-1.23-.36-.39,0-.78.03-1.16.08-.38.06-.71.14-.99.24l-.29-1.85c.13-.04.3-.08.5-.13.2-.05.42-.09.66-.12s.49-.07.75-.09c.26-.03.53-.04.79-.04Zm.18,6.72c.23,0,.44,0,.65-.01.21-.01.37-.03.49-.05v-1.74c-.09-.02-.23-.04-.42-.06-.19-.02-.36-.03-.51-.03-.22,0-.42.01-.61.04-.19.03-.36.08-.5.15-.14.07-.26.17-.34.29-.08.12-.12.28-.12.46,0,.36.12.61.36.75.24.14.57.21.99.21Z" style="fill: #a3ea2a; stroke-width: 0px;"/>
      <path d="m910.88,69.13l2.3-.37v2.39h2.76v1.91h-2.76v2.85c0,.48.08.87.25,1.16.17.29.51.43,1.03.43.25,0,.5-.02.76-.07.26-.05.5-.11.72-.19l.32,1.79c-.28.11-.59.21-.93.29-.34.08-.76.12-1.25.12-.63,0-1.15-.08-1.56-.25-.41-.17-.74-.41-.99-.71-.25-.3-.42-.67-.52-1.1-.1-.43-.15-.91-.15-1.43v-6.82Z" style="fill: #a3ea2a; stroke-width: 0px;"/>
      <path d="m920.32,68.81c0,.42-.14.75-.41,1-.27.24-.59.36-.96.36s-.69-.12-.96-.36c-.27-.24-.41-.57-.41-1s.14-.75.41-.99c.27-.24.59-.36.96-.36s.69.12.96.36c.27.24.41.57.41.99Zm-.22,10.46h-2.3v-8.11h2.3v8.11Z" style="fill: #a3ea2a; stroke-width: 0px;"/>
      <path d="m929.85,75.19c0,.64-.09,1.22-.28,1.75-.18.53-.45.98-.8,1.36s-.77.67-1.26.87c-.49.21-1.04.31-1.64.31s-1.14-.1-1.63-.31c-.49-.21-.91-.5-1.26-.87s-.62-.83-.82-1.36-.29-1.11-.29-1.75.1-1.22.3-1.74c.2-.52.48-.97.83-1.34.35-.37.78-.66,1.26-.86s1.02-.31,1.6-.31,1.12.1,1.61.31.91.49,1.26.86.62.82.82,1.34.29,1.11.29,1.74Zm-2.34,0c0-.71-.14-1.27-.42-1.67-.28-.41-.69-.61-1.21-.61s-.93.2-1.22.61c-.29.41-.43.96-.43,1.67s.14,1.27.43,1.69c.29.42.69.62,1.22.62s.93-.21,1.21-.62c.28-.42.42-.98.42-1.69Z" style="fill: #a3ea2a; stroke-width: 0px;"/>
      <path d="m931.62,71.43c.39-.11.89-.22,1.51-.32.62-.1,1.27-.15,1.94-.15s1.26.09,1.72.27c.46.18.82.43,1.09.76s.46.72.57,1.17c.11.45.17.96.17,1.51v4.58h-2.3v-4.3c0-.74-.1-1.26-.29-1.57s-.56-.46-1.1-.46c-.16,0-.34,0-.52.02-.18.02-.35.03-.49.05v6.26h-2.3v-7.84Z" style="fill: #a3ea2a; stroke-width: 0px;"/>
    </g>
    <rect x="722.36" y="45.51" width="91.71" height="38.99" rx="6.23" ry="6.23" style="fill: #223654; filter: url(#outer-glow-5); stroke-width: 0px;"/>
    <g>
      <path d="m761.19,60.75c-.22-.35-.47-.72-.77-1.13-.29-.4-.61-.81-.95-1.22-.34-.41-.7-.8-1.07-1.18-.37-.38-.74-.71-1.11-1v4.53h-2.41v-10.69h2.41v4.02c.62-.65,1.25-1.33,1.88-2.04.64-.71,1.23-1.37,1.77-1.98h2.86c-.73.87-1.46,1.7-2.2,2.5-.74.8-1.51,1.6-2.32,2.41.86.71,1.68,1.56,2.47,2.54.79.98,1.56,2.06,2.29,3.24h-2.86Z" style="fill: #a3ea2a; stroke-width: 0px;"/>
      <path d="m764.28,56.76c0-.72.11-1.35.33-1.89.22-.54.51-.99.87-1.35.36-.36.77-.63,1.24-.82.47-.19.95-.28,1.44-.28,1.15,0,2.06.35,2.73,1.06.67.7,1,1.74,1,3.11,0,.13,0,.28-.02.44,0,.16-.02.3-.03.42h-5.21c.05.47.27.85.66,1.13.39.28.92.42,1.57.42.42,0,.83-.04,1.24-.12s.74-.17,1-.29l.31,1.87c-.12.06-.29.12-.49.18-.21.06-.43.12-.69.16-.25.05-.52.08-.81.12-.29.03-.58.05-.86.05-.73,0-1.37-.11-1.91-.32-.54-.22-.99-.51-1.34-.89-.35-.38-.62-.82-.79-1.33-.17-.51-.25-1.07-.25-1.67Zm5.4-.88c-.01-.2-.04-.39-.1-.57s-.14-.35-.26-.49c-.12-.14-.27-.26-.45-.35-.18-.09-.4-.14-.67-.14s-.48.04-.66.13c-.18.09-.34.2-.46.35-.12.14-.22.31-.29.5-.07.19-.12.38-.15.58h3.04Z" style="fill: #a3ea2a; stroke-width: 0px;"/>
      <path d="m780.9,52.64c-.46,1.56-.95,3.03-1.45,4.4s-1.06,2.69-1.65,3.98c-.22.46-.43.86-.65,1.18-.22.32-.45.59-.71.8-.26.21-.55.37-.87.46s-.7.15-1.14.15c-.36,0-.69-.03-1-.1-.3-.07-.55-.14-.75-.22l.4-1.83c.24.08.45.14.63.17.19.03.38.05.59.05.41,0,.73-.11.95-.33s.41-.53.56-.92c-.53-1.03-1.05-2.18-1.57-3.46-.53-1.28-1.02-2.72-1.48-4.31h2.44c.1.4.22.84.36,1.3.14.47.29.94.44,1.42.15.48.31.94.47,1.4.16.45.31.86.46,1.23.13-.37.27-.78.42-1.23.14-.45.29-.92.43-1.4.14-.48.27-.95.4-1.42.13-.47.25-.9.35-1.3h2.38Z" style="fill: #a3ea2a; stroke-width: 0px;"/>
      <path d="m739.67,68.45c1.6,0,2.83.29,3.69.86.85.57,1.28,1.46,1.28,2.66,0,.75-.17,1.36-.52,1.83-.34.47-.84.83-1.49,1.1.22.27.44.57.68.92s.47.7.7,1.08c.23.38.46.77.67,1.17s.42.8.6,1.2h-2.69c-.2-.35-.4-.7-.6-1.06-.2-.36-.41-.71-.62-1.05-.21-.34-.42-.66-.63-.96-.21-.3-.41-.58-.62-.83h-1.19v3.9h-2.41v-10.54c.52-.1,1.07-.17,1.63-.22s1.06-.06,1.5-.06Zm.14,2.05c-.17,0-.33,0-.47.01-.14.01-.27.02-.39.03v2.9h.68c.91,0,1.55-.11,1.94-.34.39-.23.59-.61.59-1.16s-.2-.9-.59-1.12c-.4-.22-.98-.33-1.75-.33Z" style="fill: #a3ea2a; stroke-width: 0px;"/>
      <path d="m753.87,75.19c0,.64-.09,1.22-.28,1.75-.18.53-.45.98-.8,1.36s-.77.67-1.26.87c-.49.21-1.04.31-1.64.31s-1.14-.1-1.63-.31c-.49-.21-.91-.5-1.26-.87s-.62-.83-.82-1.36-.29-1.11-.29-1.75.1-1.22.3-1.74c.2-.52.48-.97.83-1.34.35-.37.78-.66,1.26-.86s1.02-.31,1.6-.31,1.12.1,1.61.31.91.49,1.26.86.62.82.82,1.34.29,1.11.29,1.74Zm-2.34,0c0-.71-.14-1.27-.42-1.67-.28-.41-.69-.61-1.21-.61s-.93.2-1.22.61c-.29.41-.43.96-.43,1.67s.14,1.27.43,1.69c.29.42.69.62,1.22.62s.93-.21,1.21-.62c.28-.42.42-.98.42-1.69Z" style="fill: #a3ea2a; stroke-width: 0px;"/>
      <path d="m755.57,69.13l2.3-.37v2.39h2.76v1.91h-2.76v2.85c0,.48.08.87.25,1.16.17.29.51.43,1.03.43.25,0,.5-.02.76-.07.26-.05.5-.11.72-.19l.32,1.79c-.28.11-.59.21-.93.29-.34.08-.76.12-1.25.12-.63,0-1.15-.08-1.56-.25-.41-.17-.74-.41-.99-.71-.25-.3-.42-.67-.52-1.1-.1-.43-.15-.91-.15-1.43v-6.82Z" style="fill: #a3ea2a; stroke-width: 0px;"/>
      <path d="m765.1,70.93c.68,0,1.24.08,1.7.23s.82.38,1.09.66.46.64.58,1.05.17.87.17,1.37v4.78c-.33.07-.79.16-1.37.25s-1.3.15-2.13.15c-.52,0-1-.05-1.43-.14-.43-.09-.79-.24-1.1-.46s-.54-.49-.71-.83c-.17-.34-.25-.76-.25-1.25s.09-.87.29-1.2.44-.59.76-.79c.32-.2.68-.34,1.09-.42.41-.09.84-.13,1.28-.13.3,0,.56.01.79.04s.42.06.56.1v-.22c0-.39-.12-.7-.35-.94-.24-.24-.65-.36-1.23-.36-.39,0-.78.03-1.16.08-.38.06-.71.14-.99.24l-.29-1.85c.13-.04.3-.08.5-.13.2-.05.42-.09.66-.12s.49-.07.75-.09c.26-.03.53-.04.79-.04Zm.18,6.72c.23,0,.44,0,.65-.01.21-.01.37-.03.49-.05v-1.74c-.09-.02-.23-.04-.42-.06-.19-.02-.36-.03-.51-.03-.22,0-.42.01-.61.04-.19.03-.36.08-.5.15-.14.07-.26.17-.34.29-.08.12-.12.28-.12.46,0,.36.12.61.36.75.24.14.57.21.99.21Z" style="fill: #a3ea2a; stroke-width: 0px;"/>
      <path d="m770.64,69.13l2.3-.37v2.39h2.76v1.91h-2.76v2.85c0,.48.08.87.25,1.16.17.29.51.43,1.03.43.25,0,.5-.02.76-.07.26-.05.5-.11.72-.19l.32,1.79c-.28.11-.59.21-.93.29-.34.08-.76.12-1.25.12-.63,0-1.15-.08-1.56-.25-.41-.17-.74-.41-.99-.71-.25-.3-.42-.67-.52-1.1-.1-.43-.15-.91-.15-1.43v-6.82Z" style="fill: #a3ea2a; stroke-width: 0px;"/>
      <path d="m780.08,68.81c0,.42-.14.75-.41,1-.27.24-.59.36-.96.36s-.69-.12-.96-.36c-.27-.24-.41-.57-.41-1s.14-.75.41-.99c.27-.24.59-.36.96-.36s.69.12.96.36c.27.24.41.57.41.99Zm-.22,10.46h-2.3v-8.11h2.3v8.11Z" style="fill: #a3ea2a; stroke-width: 0px;"/>
      <path d="m789.61,75.19c0,.64-.09,1.22-.28,1.75-.18.53-.45.98-.8,1.36s-.77.67-1.26.87c-.49.21-1.04.31-1.64.31s-1.14-.1-1.63-.31c-.49-.21-.91-.5-1.26-.87s-.62-.83-.82-1.36-.29-1.11-.29-1.75.1-1.22.3-1.74c.2-.52.48-.97.83-1.34.35-.37.78-.66,1.26-.86s1.02-.31,1.6-.31,1.12.1,1.61.31.91.49,1.26.86.62.82.82,1.34.29,1.11.29,1.74Zm-2.34,0c0-.71-.14-1.27-.42-1.67-.28-.41-.69-.61-1.21-.61s-.93.2-1.22.61c-.29.41-.43.96-.43,1.67s.14,1.27.43,1.69c.29.42.69.62,1.22.62s.93-.21,1.21-.62c.28-.42.42-.98.42-1.69Z" style="fill: #a3ea2a; stroke-width: 0px;"/>
      <path d="m791.39,71.43c.39-.11.89-.22,1.51-.32.62-.1,1.27-.15,1.94-.15s1.26.09,1.72.27c.46.18.82.43,1.09.76s.46.72.57,1.17c.11.45.17.96.17,1.51v4.58h-2.3v-4.3c0-.74-.1-1.26-.29-1.57s-.56-.46-1.1-.46c-.16,0-.34,0-.52.02-.18.02-.35.03-.49.05v6.26h-2.3v-7.84Z" style="fill: #a3ea2a; stroke-width: 0px;"/>
    </g>
    <rect x="28.12" y="45.51" width="127.11" height="38.99" rx="6.23" ry="6.23" style="fill: #223654; filter: url(#outer-glow-6); stroke-width: 0px;"/>
    <g>
      <path d="m84.65,60.75c-.22-.35-.47-.72-.77-1.13-.29-.4-.61-.81-.95-1.22-.34-.41-.69-.8-1.07-1.18-.37-.38-.74-.71-1.11-1v4.53h-2.41v-10.69h2.41v4.02c.62-.65,1.25-1.33,1.89-2.04s1.23-1.37,1.77-1.98h2.86c-.73.87-1.46,1.7-2.2,2.5-.74.8-1.51,1.6-2.32,2.41.85.71,1.68,1.56,2.47,2.54.79.98,1.56,2.06,2.29,3.24h-2.86Z" style="fill: #a3ea2a; stroke-width: 0px;"/>
      <path d="m87.75,56.76c0-.72.11-1.35.33-1.89.22-.54.51-.99.87-1.35s.77-.63,1.24-.82c.47-.19.95-.28,1.44-.28,1.15,0,2.06.35,2.73,1.06s1,1.74,1,3.11c0,.13,0,.28-.02.44-.01.16-.02.3-.03.42h-5.21c.05.47.27.85.66,1.13.39.28.92.42,1.57.42.42,0,.84-.04,1.24-.12s.74-.17.99-.29l.31,1.87c-.12.06-.29.12-.49.18-.21.06-.43.12-.69.16-.25.05-.52.08-.81.12-.29.03-.58.05-.86.05-.73,0-1.36-.11-1.9-.32-.54-.22-.99-.51-1.34-.89-.35-.38-.62-.82-.79-1.33-.17-.51-.25-1.07-.25-1.67Zm5.4-.88c-.01-.2-.04-.39-.1-.57s-.14-.35-.26-.49c-.12-.14-.27-.26-.45-.35-.18-.09-.4-.14-.67-.14s-.48.04-.66.13-.34.2-.46.35-.22.31-.29.5c-.07.19-.12.38-.15.58h3.04Z" style="fill: #a3ea2a; stroke-width: 0px;"/>
      <path d="m104.36,52.64c-.46,1.56-.95,3.03-1.45,4.4-.5,1.37-1.06,2.69-1.65,3.98-.22.46-.43.86-.65,1.18-.22.32-.45.59-.71.8s-.55.37-.87.46c-.32.1-.7.15-1.14.15-.36,0-.69-.03-1-.1-.3-.07-.55-.14-.75-.22l.4-1.83c.24.08.45.14.63.17.19.03.38.05.59.05.41,0,.73-.11.95-.33.22-.22.41-.53.56-.92-.52-1.03-1.05-2.18-1.57-3.46-.52-1.28-1.02-2.72-1.48-4.31h2.44c.1.4.22.84.36,1.3.14.47.29.94.44,1.42.15.48.31.94.47,1.4.16.45.31.86.46,1.23.13-.37.27-.78.42-1.23.14-.45.29-.92.43-1.4.14-.48.27-.95.4-1.42.13-.47.25-.9.35-1.3h2.38Z" style="fill: #a3ea2a; stroke-width: 0px;"/>
      <path d="m55.97,70.43c-1.12,0-1.93.31-2.43.93-.5.62-.75,1.47-.75,2.55,0,.52.06,1,.19,1.43s.31.79.56,1.1c.25.31.56.55.93.72.37.17.8.25,1.3.25.27,0,.5,0,.69-.02.19-.01.36-.03.5-.06v-3.72h2.41v5.29c-.29.11-.75.23-1.39.36-.64.13-1.42.19-2.36.19-.8,0-1.53-.12-2.18-.37-.65-.25-1.21-.61-1.67-1.08-.46-.47-.82-1.05-1.07-1.74s-.38-1.48-.38-2.36.14-1.69.42-2.38c.28-.69.66-1.27,1.14-1.75.48-.48,1.05-.84,1.7-1.09.65-.25,1.35-.37,2.09-.37.5,0,.96.03,1.37.1.41.07.76.14,1.05.23.29.09.53.18.72.27.19.09.33.16.41.22l-.69,1.93c-.33-.17-.71-.33-1.13-.46-.43-.13-.89-.19-1.4-.19Z" style="fill: #a3ea2a; stroke-width: 0px;"/>
      <path d="m61.05,75.27c0-.72.11-1.35.33-1.89.22-.54.51-.99.87-1.35.36-.36.77-.63,1.24-.82.47-.18.95-.28,1.44-.28,1.15,0,2.06.35,2.73,1.06s1,1.74,1,3.11c0,.13,0,.28-.02.44-.01.16-.02.3-.03.42h-5.21c.05.47.27.85.66,1.13.39.28.92.42,1.57.42.42,0,.84-.04,1.24-.12s.74-.17.99-.29l.31,1.87c-.12.06-.29.12-.49.18-.21.06-.43.12-.69.16-.25.05-.52.08-.81.12-.29.03-.58.05-.86.05-.73,0-1.36-.11-1.9-.32-.54-.22-.99-.51-1.34-.89-.35-.38-.62-.82-.79-1.33-.17-.51-.25-1.07-.25-1.67Zm5.4-.88c-.01-.2-.04-.39-.1-.57-.06-.19-.14-.35-.26-.49-.12-.14-.27-.26-.45-.35s-.4-.14-.67-.14-.48.04-.66.13c-.19.09-.34.2-.46.35-.12.14-.22.31-.29.5-.07.19-.12.38-.15.58h3.04Z" style="fill: #a3ea2a; stroke-width: 0px;"/>
      <path d="m70.44,71.43c.39-.11.89-.22,1.51-.32s1.26-.15,1.94-.15,1.26.09,1.72.27.82.43,1.09.76c.27.33.46.72.57,1.17.11.45.17.96.17,1.51v4.58h-2.3v-4.3c0-.74-.1-1.26-.29-1.57-.2-.31-.56-.46-1.1-.46-.16,0-.34,0-.52.02s-.35.03-.49.05v6.26h-2.3v-7.84Z" style="fill: #a3ea2a; stroke-width: 0px;"/>
      <path d="m79.14,75.27c0-.72.11-1.35.33-1.89.22-.54.51-.99.87-1.35.36-.36.77-.63,1.24-.82.47-.18.95-.28,1.44-.28,1.15,0,2.06.35,2.73,1.06s1,1.74,1,3.11c0,.13,0,.28-.02.44-.01.16-.02.3-.03.42h-5.21c.05.47.27.85.66,1.13.39.28.92.42,1.57.42.42,0,.84-.04,1.24-.12s.74-.17.99-.29l.31,1.87c-.12.06-.29.12-.49.18-.21.06-.43.12-.69.16-.25.05-.52.08-.81.12-.29.03-.58.05-.86.05-.73,0-1.36-.11-1.9-.32-.54-.22-.99-.51-1.34-.89-.35-.38-.62-.82-.79-1.33-.17-.51-.25-1.07-.25-1.67Zm5.4-.88c-.01-.2-.04-.39-.1-.57-.06-.19-.14-.35-.26-.49-.12-.14-.27-.26-.45-.35s-.4-.14-.67-.14-.48.04-.66.13c-.19.09-.34.2-.46.35-.12.14-.22.31-.29.5-.07.19-.12.38-.15.58h3.04Z" style="fill: #a3ea2a; stroke-width: 0px;"/>
      <path d="m93.42,73.19c-.21-.05-.45-.11-.73-.16-.28-.06-.58-.08-.89-.08-.14,0-.32.01-.52.04s-.35.05-.46.08v6.2h-2.3v-7.68c.41-.14.9-.28,1.46-.41s1.19-.19,1.87-.19c.12,0,.27,0,.45.02.17.02.35.04.52.06.17.03.35.06.52.09.17.04.32.08.45.13l-.39,1.9Z" style="fill: #a3ea2a; stroke-width: 0px;"/>
      <path d="m97.8,70.93c.68,0,1.24.08,1.7.23s.81.38,1.09.66.47.64.58,1.05c.11.41.17.87.17,1.37v4.78c-.33.07-.79.16-1.37.25s-1.3.15-2.13.15c-.52,0-1-.05-1.43-.14-.43-.09-.79-.24-1.1-.46s-.54-.49-.71-.83c-.16-.34-.25-.76-.25-1.25s.09-.87.29-1.2c.19-.33.44-.59.76-.79.32-.2.68-.34,1.1-.42.41-.09.84-.13,1.28-.13.3,0,.56.01.79.04s.42.06.56.1v-.22c0-.39-.12-.7-.35-.94-.24-.24-.65-.36-1.23-.36-.39,0-.78.03-1.16.08-.38.06-.71.14-.99.24l-.29-1.85c.13-.04.3-.08.5-.13.2-.05.42-.09.66-.12.24-.04.49-.07.75-.09.26-.03.53-.04.79-.04Zm.19,6.72c.23,0,.44,0,.65-.01.21-.01.37-.03.49-.05v-1.74c-.09-.02-.23-.04-.42-.06s-.35-.03-.51-.03c-.22,0-.42.01-.61.04-.19.03-.36.08-.5.15-.14.07-.26.17-.34.29-.08.12-.12.28-.12.46,0,.36.12.61.36.75s.57.21,1,.21Z" style="fill: #a3ea2a; stroke-width: 0px;"/>
      <path d="m103.34,69.13l2.3-.37v2.39h2.76v1.91h-2.76v2.85c0,.48.08.87.25,1.16.17.29.51.43,1.03.43.25,0,.5-.02.76-.07.26-.05.5-.11.72-.19l.32,1.79c-.28.11-.59.21-.93.29s-.76.12-1.25.12c-.63,0-1.15-.08-1.56-.25s-.74-.41-.99-.71c-.25-.3-.42-.67-.52-1.1s-.15-.91-.15-1.43v-6.82Z" style="fill: #a3ea2a; stroke-width: 0px;"/>
      <path d="m112.78,68.81c0,.42-.14.75-.41,1-.27.24-.59.36-.96.36s-.69-.12-.96-.36c-.27-.24-.41-.57-.41-1s.14-.75.41-.99c.27-.24.59-.36.96-.36s.69.12.96.36c.27.24.41.57.41.99Zm-.22,10.46h-2.3v-8.11h2.3v8.11Z" style="fill: #a3ea2a; stroke-width: 0px;"/>
      <path d="m122.31,75.19c0,.64-.09,1.22-.28,1.75-.19.53-.45.98-.8,1.36s-.77.67-1.26.87c-.49.21-1.04.31-1.64.31s-1.14-.1-1.63-.31c-.49-.21-.91-.5-1.26-.87s-.62-.83-.82-1.36c-.2-.53-.29-1.11-.29-1.75s.1-1.22.3-1.74c.2-.52.48-.97.83-1.34.35-.37.78-.66,1.27-.86.49-.21,1.02-.31,1.6-.31s1.12.1,1.61.31.91.49,1.26.86c.35.37.62.82.82,1.34s.29,1.11.29,1.74Zm-2.34,0c0-.71-.14-1.27-.42-1.67-.28-.41-.69-.61-1.21-.61s-.93.2-1.22.61c-.29.41-.43.96-.43,1.67s.14,1.27.43,1.69c.29.42.69.62,1.22.62s.93-.21,1.21-.62c.28-.42.42-.98.42-1.69Z" style="fill: #a3ea2a; stroke-width: 0px;"/>
      <path d="m124.08,71.43c.39-.11.89-.22,1.51-.32s1.26-.15,1.94-.15,1.26.09,1.72.27.82.43,1.09.76c.27.33.46.72.57,1.17.11.45.17.96.17,1.51v4.58h-2.3v-4.3c0-.74-.1-1.26-.29-1.57-.2-.31-.56-.46-1.1-.46-.16,0-.34,0-.52.02s-.35.03-.49.05v6.26h-2.3v-7.84Z" style="fill: #a3ea2a; stroke-width: 0px;"/>
    </g>
    <rect x="339.49" y="45.51" width="88.6" height="38.99" rx="6.23" ry="6.23" style="fill: #223654; filter: url(#outer-glow-7); stroke-width: 0px;"/>
    <g>
      <path d="m376.77,60.75c-.22-.35-.47-.72-.77-1.13-.29-.4-.61-.81-.95-1.22-.34-.41-.69-.8-1.07-1.18-.37-.38-.74-.71-1.11-1v4.53h-2.41v-10.69h2.41v4.02c.62-.65,1.25-1.33,1.89-2.04s1.23-1.37,1.77-1.98h2.86c-.73.87-1.46,1.7-2.2,2.5-.74.8-1.51,1.6-2.32,2.41.85.71,1.68,1.56,2.47,2.54.79.98,1.56,2.06,2.29,3.24h-2.86Z" style="fill: #a3ea2a; stroke-width: 0px;"/>
      <path d="m379.86,56.76c0-.72.11-1.35.33-1.89.22-.54.51-.99.87-1.35s.77-.63,1.24-.82c.47-.19.95-.28,1.44-.28,1.15,0,2.06.35,2.73,1.06s1,1.74,1,3.11c0,.13,0,.28-.02.44-.01.16-.02.3-.03.42h-5.21c.05.47.27.85.66,1.13.39.28.92.42,1.57.42.42,0,.84-.04,1.24-.12s.74-.17.99-.29l.31,1.87c-.12.06-.29.12-.49.18-.21.06-.43.12-.69.16-.25.05-.52.08-.81.12-.29.03-.58.05-.86.05-.73,0-1.36-.11-1.9-.32-.54-.22-.99-.51-1.34-.89-.35-.38-.62-.82-.79-1.33-.17-.51-.25-1.07-.25-1.67Zm5.4-.88c-.01-.2-.04-.39-.1-.57s-.14-.35-.26-.49c-.12-.14-.27-.26-.45-.35-.18-.09-.4-.14-.67-.14s-.48.04-.66.13-.34.2-.46.35-.22.31-.29.5c-.07.19-.12.38-.15.58h3.04Z" style="fill: #a3ea2a; stroke-width: 0px;"/>
      <path d="m396.47,52.64c-.46,1.56-.95,3.03-1.45,4.4-.5,1.37-1.06,2.69-1.65,3.98-.22.46-.43.86-.65,1.18-.22.32-.45.59-.71.8s-.55.37-.87.46c-.32.1-.7.15-1.14.15-.36,0-.69-.03-1-.1-.3-.07-.55-.14-.75-.22l.4-1.83c.24.08.45.14.63.17.19.03.38.05.59.05.41,0,.73-.11.95-.33.22-.22.41-.53.56-.92-.52-1.03-1.05-2.18-1.57-3.46-.52-1.28-1.02-2.72-1.48-4.31h2.44c.1.4.22.84.36,1.3.14.47.29.94.44,1.42.15.48.31.94.47,1.4.16.45.31.86.46,1.23.13-.37.27-.78.42-1.23.14-.45.29-.92.43-1.4.14-.48.27-.95.4-1.42.13-.47.25-.9.35-1.3h2.38Z" style="fill: #a3ea2a; stroke-width: 0px;"/>
      <path d="m358.1,77.43c.34,0,.62-.03.84-.08s.4-.13.53-.23c.13-.1.23-.21.28-.35.05-.13.08-.28.08-.45,0-.35-.16-.64-.49-.87-.33-.23-.9-.48-1.7-.75-.35-.12-.7-.26-1.05-.42-.35-.16-.66-.36-.94-.6-.28-.24-.5-.53-.68-.88-.17-.34-.26-.76-.26-1.26s.09-.94.28-1.33c.19-.4.45-.73.79-1.01.34-.28.75-.49,1.23-.64.48-.15,1.03-.22,1.63-.22.72,0,1.34.08,1.87.23s.96.32,1.3.51l-.69,1.9c-.3-.15-.63-.29-.99-.41-.37-.12-.8-.18-1.32-.18-.58,0-.99.08-1.24.24-.25.16-.38.4-.38.73,0,.2.05.36.14.49.09.13.22.25.39.36.17.11.36.21.59.29.22.09.47.18.73.27.56.21,1.04.41,1.45.61.41.2.75.43,1.03.7s.48.58.61.94c.13.36.2.8.2,1.31,0,1-.35,1.77-1.05,2.32-.7.55-1.75.83-3.16.83-.47,0-.9-.03-1.28-.08-.38-.06-.72-.13-1.01-.21-.29-.08-.54-.17-.76-.26-.21-.09-.39-.18-.53-.26l.68-1.91c.32.18.71.33,1.18.47s1.04.21,1.72.21Z" style="fill: #a3ea2a; stroke-width: 0px;"/>
      <path d="m363.93,69.13l2.3-.37v2.39h2.76v1.91h-2.76v2.85c0,.48.08.87.25,1.16.17.29.51.43,1.03.43.25,0,.5-.02.76-.07.26-.05.5-.11.72-.19l.32,1.79c-.28.11-.59.21-.93.29s-.76.12-1.25.12c-.63,0-1.15-.08-1.56-.25s-.74-.41-.99-.71c-.25-.3-.42-.67-.52-1.1s-.15-.91-.15-1.43v-6.82Z" style="fill: #a3ea2a; stroke-width: 0px;"/>
      <path d="m378.14,75.19c0,.64-.09,1.22-.28,1.75-.19.53-.45.98-.8,1.36s-.77.67-1.26.87c-.49.21-1.04.31-1.64.31s-1.14-.1-1.63-.31c-.49-.21-.91-.5-1.26-.87s-.62-.83-.82-1.36c-.2-.53-.29-1.11-.29-1.75s.1-1.22.3-1.74c.2-.52.48-.97.83-1.34.35-.37.78-.66,1.27-.86.49-.21,1.02-.31,1.6-.31s1.12.1,1.61.31.91.49,1.26.86c.35.37.62.82.82,1.34s.29,1.11.29,1.74Zm-2.34,0c0-.71-.14-1.27-.42-1.67-.28-.41-.69-.61-1.21-.61s-.93.2-1.22.61c-.29.41-.43.96-.43,1.67s.14,1.27.43,1.69c.29.42.69.62,1.22.62s.93-.21,1.21-.62c.28-.42.42-.98.42-1.69Z" style="fill: #a3ea2a; stroke-width: 0px;"/>
      <path d="m384.8,73.19c-.21-.05-.45-.11-.73-.16-.28-.06-.58-.08-.89-.08-.14,0-.32.01-.52.04s-.35.05-.46.08v6.2h-2.3v-7.68c.41-.14.9-.28,1.46-.41s1.19-.19,1.87-.19c.12,0,.27,0,.45.02.17.02.35.04.52.06.17.03.35.06.52.09.17.04.32.08.45.13l-.39,1.9Z" style="fill: #a3ea2a; stroke-width: 0px;"/>
      <path d="m389.18,70.93c.68,0,1.24.08,1.7.23s.81.38,1.09.66.47.64.58,1.05c.11.41.17.87.17,1.37v4.78c-.33.07-.79.16-1.37.25s-1.3.15-2.13.15c-.52,0-1-.05-1.43-.14-.43-.09-.79-.24-1.1-.46s-.54-.49-.71-.83c-.16-.34-.25-.76-.25-1.25s.09-.87.29-1.2c.19-.33.44-.59.76-.79.32-.2.68-.34,1.1-.42.41-.09.84-.13,1.28-.13.3,0,.56.01.79.04s.42.06.56.1v-.22c0-.39-.12-.7-.35-.94-.24-.24-.65-.36-1.23-.36-.39,0-.78.03-1.16.08-.38.06-.71.14-.99.24l-.29-1.85c.13-.04.3-.08.5-.13.2-.05.42-.09.66-.12.24-.04.49-.07.75-.09.26-.03.53-.04.79-.04Zm.19,6.72c.23,0,.44,0,.65-.01.21-.01.37-.03.49-.05v-1.74c-.09-.02-.23-.04-.42-.06s-.35-.03-.51-.03c-.22,0-.42.01-.61.04-.19.03-.36.08-.5.15-.14.07-.26.17-.34.29-.08.12-.12.28-.12.46,0,.36.12.61.36.75s.57.21,1,.21Z" style="fill: #a3ea2a; stroke-width: 0px;"/>
      <path d="m401.8,78.25c0,1.33-.34,2.31-1.01,2.95-.67.64-1.71.96-3.12.96-.49,0-.99-.04-1.48-.13s-.95-.2-1.37-.35l.4-1.93c.36.14.74.26,1.13.34.4.08.85.12,1.35.12.66,0,1.12-.14,1.4-.43s.41-.66.41-1.11v-.29c-.25.11-.5.2-.76.25-.26.06-.55.08-.86.08-1.12,0-1.98-.33-2.58-1-.6-.66-.89-1.59-.89-2.78,0-.6.09-1.14.28-1.63s.46-.91.81-1.26c.35-.35.79-.62,1.3-.81s1.1-.29,1.74-.29c.28,0,.56.01.86.04.29.03.58.06.87.1.29.04.56.09.83.15s.5.12.7.18v6.82Zm-5.04-3.3c0,1.29.52,1.93,1.56,1.93.24,0,.46-.03.66-.09.21-.06.38-.13.52-.22v-3.67c-.11-.02-.25-.04-.4-.05-.15-.02-.33-.02-.54-.02-.61,0-1.06.2-1.36.6s-.45.91-.45,1.53Z" style="fill: #a3ea2a; stroke-width: 0px;"/>
      <path d="m403.58,75.27c0-.72.11-1.35.33-1.89.22-.54.51-.99.87-1.35.36-.36.77-.63,1.24-.82.47-.18.95-.28,1.44-.28,1.15,0,2.06.35,2.73,1.06s1,1.74,1,3.11c0,.13,0,.28-.02.44-.01.16-.02.3-.03.42h-5.21c.05.47.27.85.66,1.13.39.28.92.42,1.57.42.42,0,.84-.04,1.24-.12s.74-.17.99-.29l.31,1.87c-.12.06-.29.12-.49.18-.21.06-.43.12-.69.16-.25.05-.52.08-.81.12-.29.03-.58.05-.86.05-.73,0-1.36-.11-1.9-.32-.54-.22-.99-.51-1.34-.89-.35-.38-.62-.82-.79-1.33-.17-.51-.25-1.07-.25-1.67Zm5.4-.88c-.01-.2-.04-.39-.1-.57-.06-.19-.14-.35-.26-.49-.12-.14-.27-.26-.45-.35s-.4-.14-.67-.14-.48.04-.66.13c-.19.09-.34.2-.46.35-.12.14-.22.31-.29.5-.07.19-.12.38-.15.58h3.04Z" style="fill: #a3ea2a; stroke-width: 0px;"/>
    </g>
    <rect x="456.66" y="45.51" width="81.44" height="38.99" rx="6.23" ry="6.23" style="fill: #223654; filter: url(#outer-glow-8); stroke-width: 0px;"/>
    <g>
      <path d="m490.36,60.75c-.22-.35-.47-.72-.77-1.13-.29-.4-.61-.81-.95-1.22-.34-.41-.69-.8-1.07-1.18-.37-.38-.74-.71-1.11-1v4.53h-2.41v-10.69h2.41v4.02c.62-.65,1.25-1.33,1.89-2.04s1.23-1.37,1.77-1.98h2.86c-.73.87-1.46,1.7-2.2,2.5-.74.8-1.51,1.6-2.32,2.41.85.71,1.68,1.56,2.47,2.54.79.98,1.56,2.06,2.29,3.24h-2.86Z" style="fill: #a3ea2a; stroke-width: 0px;"/>
      <path d="m493.45,56.76c0-.72.11-1.35.33-1.89.22-.54.51-.99.87-1.35s.77-.63,1.24-.82c.47-.19.95-.28,1.44-.28,1.15,0,2.06.35,2.73,1.06s1,1.74,1,3.11c0,.13,0,.28-.02.44-.01.16-.02.3-.03.42h-5.21c.05.47.27.85.66,1.13.39.28.92.42,1.57.42.42,0,.84-.04,1.24-.12s.74-.17.99-.29l.31,1.87c-.12.06-.29.12-.49.18-.21.06-.43.12-.69.16-.25.05-.52.08-.81.12-.29.03-.58.05-.86.05-.73,0-1.36-.11-1.9-.32-.54-.22-.99-.51-1.34-.89-.35-.38-.62-.82-.79-1.33-.17-.51-.25-1.07-.25-1.67Zm5.4-.88c-.01-.2-.04-.39-.1-.57s-.14-.35-.26-.49c-.12-.14-.27-.26-.45-.35-.18-.09-.4-.14-.67-.14s-.48.04-.66.13-.34.2-.46.35-.22.31-.29.5c-.07.19-.12.38-.15.58h3.04Z" style="fill: #a3ea2a; stroke-width: 0px;"/>
      <path d="m510.07,52.64c-.46,1.56-.95,3.03-1.45,4.4-.5,1.37-1.06,2.69-1.65,3.98-.22.46-.43.86-.65,1.18-.22.32-.45.59-.71.8s-.55.37-.87.46c-.32.1-.7.15-1.14.15-.36,0-.69-.03-1-.1-.3-.07-.55-.14-.75-.22l.4-1.83c.24.08.45.14.63.17.19.03.38.05.59.05.41,0,.73-.11.95-.33.22-.22.41-.53.56-.92-.52-1.03-1.05-2.18-1.57-3.46-.52-1.28-1.02-2.72-1.48-4.31h2.44c.1.4.22.84.36,1.3.14.47.29.94.44,1.42.15.48.31.94.47,1.4.16.45.31.86.46,1.23.13-.37.27-.78.42-1.23.14-.45.29-.92.43-1.4.14-.48.27-.95.4-1.42.13-.47.25-.9.35-1.3h2.38Z" style="fill: #a3ea2a; stroke-width: 0px;"/>
      <path d="m479.39,79.48c-.75,0-1.4-.11-1.94-.32-.55-.21-1-.5-1.35-.88-.35-.38-.62-.82-.79-1.34-.17-.52-.25-1.09-.25-1.72v-6.65h2.41v6.45c0,.43.05.8.15,1.1s.23.55.4.74c.17.19.38.33.62.41.24.08.51.12.79.12.59,0,1.06-.18,1.43-.54.36-.36.55-.97.55-1.84v-6.45h2.41v6.65c0,.63-.09,1.2-.26,1.73s-.44.97-.8,1.35c-.36.38-.82.67-1.37.87-.56.21-1.21.31-1.97.31Z" style="fill: #a3ea2a; stroke-width: 0px;"/>
      <path d="m488.29,77.61c.42,0,.72-.04.89-.12.17-.08.26-.24.26-.48,0-.19-.11-.35-.34-.49-.23-.14-.57-.29-1.03-.47-.36-.13-.69-.27-.98-.42-.29-.14-.54-.32-.75-.52-.21-.2-.37-.44-.48-.72-.11-.28-.17-.61-.17-1,0-.76.28-1.36.85-1.8.57-.44,1.34-.66,2.33-.66.49,0,.97.04,1.42.13.45.09.81.18,1.08.29l-.4,1.79c-.27-.09-.56-.17-.87-.25-.31-.07-.67-.11-1.06-.11-.72,0-1.08.2-1.08.6,0,.09.02.17.05.25.03.07.09.14.19.21.09.07.22.14.38.22.16.08.36.16.61.26.5.19.92.37,1.25.55.33.18.59.38.78.59s.32.44.4.7c.08.26.12.55.12.89,0,.8-.3,1.41-.9,1.82s-1.45.62-2.55.62c-.72,0-1.32-.06-1.8-.18-.48-.12-.81-.23-.99-.31l.39-1.87c.39.15.79.27,1.2.36.41.09.82.13,1.22.13Z" style="fill: #a3ea2a; stroke-width: 0px;"/>
      <path d="m496.35,70.93c.68,0,1.24.08,1.7.23s.81.38,1.09.66.47.64.58,1.05c.11.41.17.87.17,1.37v4.78c-.33.07-.79.16-1.37.25s-1.3.15-2.13.15c-.52,0-1-.05-1.43-.14-.43-.09-.79-.24-1.1-.46s-.54-.49-.71-.83c-.16-.34-.25-.76-.25-1.25s.09-.87.29-1.2c.19-.33.44-.59.76-.79.32-.2.68-.34,1.1-.42.41-.09.84-.13,1.28-.13.3,0,.56.01.79.04s.42.06.56.1v-.22c0-.39-.12-.7-.35-.94-.24-.24-.65-.36-1.23-.36-.39,0-.78.03-1.16.08-.38.06-.71.14-.99.24l-.29-1.85c.13-.04.3-.08.5-.13.2-.05.42-.09.66-.12.24-.04.49-.07.75-.09.26-.03.53-.04.79-.04Zm.19,6.72c.23,0,.44,0,.65-.01.21-.01.37-.03.49-.05v-1.74c-.09-.02-.23-.04-.42-.06s-.35-.03-.51-.03c-.22,0-.42.01-.61.04-.19.03-.36.08-.5.15-.14.07-.26.17-.34.29-.08.12-.12.28-.12.46,0,.36.12.61.36.75s.57.21,1,.21Z" style="fill: #a3ea2a; stroke-width: 0px;"/>
      <path d="m508.97,78.25c0,1.33-.34,2.31-1.01,2.95-.67.64-1.71.96-3.12.96-.49,0-.99-.04-1.48-.13s-.95-.2-1.37-.35l.4-1.93c.36.14.74.26,1.13.34.4.08.85.12,1.35.12.66,0,1.12-.14,1.4-.43s.41-.66.41-1.11v-.29c-.25.11-.5.2-.76.25-.26.06-.55.08-.86.08-1.12,0-1.98-.33-2.58-1-.6-.66-.89-1.59-.89-2.78,0-.6.09-1.14.28-1.63s.46-.91.81-1.26c.35-.35.79-.62,1.3-.81s1.1-.29,1.74-.29c.28,0,.56.01.86.04.29.03.58.06.87.1.29.04.56.09.83.15s.5.12.7.18v6.82Zm-5.04-3.3c0,1.29.52,1.93,1.56,1.93.24,0,.46-.03.66-.09.21-.06.38-.13.52-.22v-3.67c-.11-.02-.25-.04-.4-.05-.15-.02-.33-.02-.54-.02-.61,0-1.06.2-1.36.6s-.45.91-.45,1.53Z" style="fill: #a3ea2a; stroke-width: 0px;"/>
      <path d="m510.75,75.27c0-.72.11-1.35.33-1.89.22-.54.51-.99.87-1.35.36-.36.77-.63,1.24-.82.47-.18.95-.28,1.44-.28,1.15,0,2.06.35,2.73,1.06s1,1.74,1,3.11c0,.13,0,.28-.02.44-.01.16-.02.3-.03.42h-5.21c.05.47.27.85.66,1.13.39.28.92.42,1.57.42.42,0,.84-.04,1.24-.12s.74-.17.99-.29l.31,1.87c-.12.06-.29.12-.49.18-.21.06-.43.12-.69.16-.25.05-.52.08-.81.12-.29.03-.58.05-.86.05-.73,0-1.36-.11-1.9-.32-.54-.22-.99-.51-1.34-.89-.35-.38-.62-.82-.79-1.33-.17-.51-.25-1.07-.25-1.67Zm5.4-.88c-.01-.2-.04-.39-.1-.57-.06-.19-.14-.35-.26-.49-.12-.14-.27-.26-.45-.35s-.4-.14-.67-.14-.48.04-.66.13c-.19.09-.34.2-.46.35-.12.14-.22.31-.29.5-.07.19-.12.38-.15.58h3.04Z" style="fill: #a3ea2a; stroke-width: 0px;"/>
    </g>
    <g id="arrow_styles_for_diagrams_etc" data-name="arrow styles for diagrams etc">
      <g id="arrow_styles_for_diagrams_etc-2" data-name="arrow styles for diagrams etc">
        <path d="m188.76,65.57l-15.08,8.67c-.45.25-1-.07-1-.58v-4.47h-17.19c-1.34,0-2.42-1.08-2.42-2.42v-3.55c0-1.33,1.08-2.41,2.41-2.41h17.19v-4.47c0-.52.56-.83,1-.58l15.08,8.67c.45.25.45.89,0,1.15Z" style="fill: url(#linear-gradient); stroke-width: 0px;"/>
      </g>
    </g>
    <g id="arrow_styles_for_diagrams_etc-3" data-name="arrow styles for diagrams etc">
      <g id="arrow_styles_for_diagrams_etc-4" data-name="arrow styles for diagrams etc">
        <path d="m344.55,65.57l-15.08,8.67c-.45.25-1-.07-1-.58v-4.47h-17.19c-1.34,0-2.42-1.08-2.42-2.42v-3.55c0-1.33,1.08-2.41,2.41-2.41h17.19v-4.47c0-.52.56-.83,1-.58l15.08,8.67c.45.25.45.89,0,1.15Z" style="fill: url(#linear-gradient-2); stroke-width: 0px;"/>
      </g>
    </g>
    <g id="arrow_styles_for_diagrams_etc-5" data-name="arrow styles for diagrams etc">
      <g id="arrow_styles_for_diagrams_etc-6" data-name="arrow styles for diagrams etc">
        <path d="m461.61,65.57l-15.08,8.67c-.45.25-1-.07-1-.58v-4.47h-17.19c-1.34,0-2.42-1.08-2.42-2.42v-3.55c0-1.33,1.08-2.41,2.41-2.41h17.19v-4.47c0-.52.56-.83,1-.58l15.08,8.67c.45.25.45.89,0,1.15Z" style="fill: url(#linear-gradient-3); stroke-width: 0px;"/>
      </g>
    </g>
    <g id="arrow_styles_for_diagrams_etc-7" data-name="arrow styles for diagrams etc">
      <g id="arrow_styles_for_diagrams_etc-8" data-name="arrow styles for diagrams etc">
        <path d="m571.39,65.57l-15.08,8.67c-.45.25-1-.07-1-.58v-4.47h-17.19c-1.34,0-2.42-1.08-2.42-2.42v-3.55c0-1.33,1.08-2.41,2.41-2.41h17.19v-4.47c0-.52.56-.83,1-.58l15.08,8.67c.45.25.45.89,0,1.15Z" style="fill: url(#linear-gradient-4); stroke-width: 0px;"/>
      </g>
    </g>
    <g id="arrow_styles_for_diagrams_etc-9" data-name="arrow styles for diagrams etc">
      <g id="arrow_styles_for_diagrams_etc-10" data-name="arrow styles for diagrams etc">
        <path d="m726.89,65.57l-15.08,8.67c-.45.25-1-.07-1-.58v-4.47h-17.19c-1.34,0-2.42-1.08-2.42-2.42v-3.55c0-1.33,1.08-2.41,2.41-2.41h17.19v-4.47c0-.52.56-.83,1-.58l15.08,8.67c.45.25.45.89,0,1.15Z" style="fill: url(#linear-gradient-5); stroke-width: 0px;"/>
      </g>
    </g>
    <g id="arrow_styles_for_diagrams_etc-11" data-name="arrow styles for diagrams etc">
      <g id="arrow_styles_for_diagrams_etc-12" data-name="arrow styles for diagrams etc">
        <path d="m847.6,65.57l-15.08,8.67c-.45.25-1-.07-1-.58v-4.47h-17.19c-1.34,0-2.42-1.08-2.42-2.42v-3.55c0-1.33,1.08-2.41,2.41-2.41h17.19v-4.47c0-.52.56-.83,1-.58l15.08,8.67c.45.25.45.89,0,1.15Z" style="fill: url(#linear-gradient-6); stroke-width: 0px;"/>
      </g>
    </g>
    <g id="arrow_styles_for_diagrams_etc-13" data-name="arrow styles for diagrams etc">
      <g id="arrow_styles_for_diagrams_etc-14" data-name="arrow styles for diagrams etc">
        <path d="m989.65,65.57l-15.08,8.67c-.45.25-1-.07-1-.58v-4.47h-17.19c-1.34,0-2.42-1.08-2.42-2.42v-3.55c0-1.33,1.08-2.41,2.41-2.41h17.19v-4.47c0-.52.56-.83,1-.58l15.08,8.67c.45.25.45.89,0,1.15Z" style="fill: url(#linear-gradient-7); stroke-width: 0px;"/>
      </g>
    </g>
    <g style="filter: url(#AI_GaussianBlur_4);">
      <path d="m727,69.85l1.68-.47-.47-.73.8-1.49-.92-1.02c0-.74-.35-2.68-.35-2.68l-2.26.13-.4-.27h-1.51s.75,1.66.75,1.66h.92s-.25.87-.25.87l.77.72,1.64-.17.87.8-.97,1.52.35.4-.73.25.08.47Zm-1.15-3.62l-.34-.56.34-.97-1.43-.22-.15-.58,1.18.27h1.64s.32,1.88.32,1.88l-1.57.17Z" style="fill: #fff; stroke-width: 0px;"/>
    </g>
    <g style="filter: url(#AI_GaussianBlur_4-2);">
      <polygon points="727.02 66.41 725.16 67.75 725.16 69.02 724.27 70.27 725.29 69.01 725.29 67.67 726.79 66.41 727.02 66.41" style="fill: #eb0037; stroke-width: 0px;"/>
    </g>
    <path d="m727,69.85l1.68-.47-.47-.73.8-1.49-.92-1.02c0-.74-.35-2.68-.35-2.68l-2.26.13-.4-.27h-1.51s.75,1.66.75,1.66h.92s-.25.87-.25.87l.77.72,1.64-.17.87.8-.97,1.52.35.4-.73.25.08.47Zm-1.15-3.62l-.34-.56.34-.97-1.43-.22-.15-.58,1.18.27h1.64s.32,1.88.32,1.88l-1.57.17Z" style="fill: #fff; stroke-width: 0px;"/>
    <polygon points="727.02 66.41 725.16 67.75 725.16 69.02 724.27 70.27 725.29 69.01 725.29 67.67 726.79 66.41 727.02 66.41" style="fill: #fff; stroke-width: 0px;"/>
    <polygon points="728.04 67.8 729.15 66.8 730.12 67.09 731.31 66.86 732.12 66.52 731.3 66.83 730.11 67.05 729.14 66.75 728 67.79 728.04 67.8" style="fill: #fff; stroke-width: 0px;"/>
    <polygon points="731.07 66.87 731.04 66.5 731.29 66.27 731.4 65.46 731.21 66.25 730.95 66.47 731 66.89 731.07 66.87" style="fill: #fff; stroke-width: 0px;"/>
    <path d="m723.57,63.34s-.41-1.41-1.91-1.41c0,0,.89-.39,1.68-.2s1.74,1.61,1.74,1.61h-1.51Z" style="fill: #fff; stroke-width: 0px;"/>
    <g style="filter: url(#AI_GaussianBlur_4-3);">
      <path d="m332.65,65.16l.06-2.38-1.13.32-1.61-1.63-1.69.79c-.96-.29-3.62-.61-3.62-.61l-.73,2.99-.51.41-.6,1.97,2.46-.31.37-1.19,1.03.67,1.25-.71.43-2.2,1.38-.81,1.58,1.86.66-.29.03,1.05.64.08Zm-5.17.05l-.86.22-1.12-.83-.85,1.77-.82-.04.83-1.43.66-2.14,2.57.34-.41,2.11Z" style="fill: #fff; stroke-width: 0px;"/>
    </g>
    <g style="filter: url(#AI_GaussianBlur_4-4);">
      <polygon points="328.2 63.77 329.2 66.71 330.86 67.22 332.12 68.88 330.89 67.05 329.15 66.52 328.1 64.07 328.2 63.77" style="fill: #eb0037; stroke-width: 0px;"/>
    </g>
    <path d="m332.65,65.16l.06-2.38-1.13.32-1.61-1.63-1.69.79c-.96-.29-3.62-.61-3.62-.61l-.73,2.99-.51.41-.6,1.97,2.46-.31.37-1.19,1.03.67,1.25-.71.43-2.2,1.38-.81,1.58,1.86.66-.29.03,1.05.64.08Zm-5.17.05l-.86.22-1.12-.83-.85,1.77-.82-.04.83-1.43.66-2.14,2.57.34-.41,2.11Z" style="fill: #fff; stroke-width: 0px;"/>
    <polygon points="328.2 63.77 329.2 66.71 330.86 67.22 332.12 68.88 330.89 67.05 329.15 66.52 328.1 64.07 328.2 63.77" style="fill: #fff; stroke-width: 0px;"/>
    <polygon points="330.41 62.99 329.56 61.15 330.32 60 330.49 58.36 330.38 57.18 330.45 58.37 330.27 60 329.49 61.15 330.38 63.05 330.41 62.99" style="fill: #fff; stroke-width: 0px;"/>
    <polygon points="330.42 58.68 329.92 58.57 329.73 58.16 328.71 57.69 329.66 58.26 329.84 58.69 330.41 58.78 330.42 58.68" style="fill: #fff; stroke-width: 0px;"/>
    <path d="m322.83,67.02s-2-.03-2.59,1.91c0,0-.16-1.32.42-2.27s2.78-1.62,2.78-1.62l-.6,1.97Z" style="fill: #fff; stroke-width: 0px;"/>
    <g style="filter: url(#AI_GaussianBlur_7); opacity: .4;">
      <path d="m956.2,68.81v1.54s1.18.84,1.18.84l1.18-1.02v1.36h1.12l.28.28.93-.22s-.66.62-.77.78-.8.83-.8.83h-1.33l-1.57,1.33,1.62-1.23,1.54.15s1.32-1.46,1.73-1.58l.32-.73-1.23.19-.5-.46-.81.15-.36-1.81-.91.94.44-.88.73-.44s.59.33.67.33,1.14-.13,1.14-.13l1.55.67,1.42-.96,1.23.11,1.4.63,1.74-.74.63,1.14.4.09.08-.24-.85-1.88-1.87.93-1.06-.74-1.91.02-1.22.74-1.8-.4-1.02.07-.8-.25-.87.46-.48,1.11-1.16-.94Z" style="fill: #fff; stroke-width: 0px;"/>
      <path d="m956.2,68.81v1.54s1.18.84,1.18.84l1.18-1.02v1.36h1.12l.28.28.93-.22s-.66.62-.77.78-.8.83-.8.83h-1.33l-1.57,1.33,1.62-1.23,1.54.15s1.32-1.46,1.73-1.58l.32-.73-1.23.19-.5-.46-.81.15-.36-1.81-.91.94.44-.88.73-.44s.59.33.67.33,1.14-.13,1.14-.13l1.55.67,1.42-.96,1.23.11,1.4.63,1.74-.74.63,1.14.4.09.08-.24-.85-1.88-1.87.93-1.06-.74-1.91.02-1.22.74-1.8-.4-1.02.07-.8-.25-.87.46-.48,1.11-1.16-.94Z" style="fill: none; stroke: #eb0037; stroke-miterlimit: 10; stroke-width: .1px;"/>
    </g>
    <polygon points="962.55 68.54 963.8 66.46 965.25 66.46 966.84 65.74 967.84 64.89 966.81 65.7 965.22 66.59 963.7 66.59 962.53 68.54 962.55 68.54" style="fill: #fff; stroke-width: 0px;"/>
    <polygon points="966.51 65.86 966.31 65.33 966.57 64.89 966.38 63.65 966.44 64.89 966.16 65.33 966.41 65.91 966.51 65.86" style="fill: #fff; stroke-width: 0px;"/>
    <g style="filter: url(#AI_GaussianBlur_4-5); opacity: .4;">
      <path d="m968.08,68.56l3.62-2.23,1.34-3.09,2-.2,2.35-2.13v-5s.51,5.56.37,5.98l1.96-.84s-1.68,1.68-2.24,1.68-1.12-.14-1.12-.14c0,0-.98.98-1.12.98s-1.34.24-1.34.24l-1.6,3.86-1.01-.53-2.4,1.77-.82-.34Z" style="fill: #fff; stroke-width: 0px;"/>
    </g>
    <path d="m980.11,60.62s-1.68,1.68-2.24,1.68-1.12-.14-1.12-.14c0,0-.98.98-1.12.98s-1.34.24-1.34.24l-1.6,3.86-1.01-.53-2.4,1.77h-.02s.29.64.29.64l-.08.24-.4-.09-.63-1.14-1.74.74-1.4-.63-1.23-.11-1.42.96-1.55-.67s-1.06.13-1.14.13-.67-.33-.67-.33l-.73.44-.44.88.91-.94.36,1.81.81-.15.5.46,1.23-.19-.32.73c-.4.12-1.72,1.58-1.72,1.58l-1.54-.15-1.62,1.23,1.57-1.33h1.33s.7-.66.8-.83c.11-.16.77-.78.77-.78l-.93.22-.28-.28h-1.12v-1.36l-1.18,1.02-1.3-.91v-1.5l1.27.97.48-1.11.87-.46.8.25,1.02-.07,1.8.4,1.22-.74,1.91-.02,1.06.74,1.87-.93.27.59,3.12-1.92,1.34-3.09,2-.2,2.35-2.13v-5s.51,5.56.37,5.98l1.96-.84Z" style="fill: #fff; stroke: #fff; stroke-miterlimit: 10; stroke-width: .1px;"/>
    <g style="filter: url(#AI_GaussianBlur_7-2); opacity: .4;">
      <path d="m553.71,67.71v1.54s1.18.84,1.18.84l1.18-1.02v1.36h1.12l.28.28.93-.22s-.66.62-.77.78-.8.83-.8.83h-1.33l-1.57,1.33,1.62-1.23,1.54.15s1.32-1.46,1.73-1.58l.32-.73-1.23.19-.5-.46-.81.15-.36-1.81-.91.94.44-.88.73-.44s.59.33.67.33,1.14-.13,1.14-.13l1.55.67,1.42-.96,1.23.11,1.4.63,1.74-.74.63,1.14.4.09.08-.24-.85-1.88-1.87.93-1.06-.74-1.91.02-1.22.74-1.8-.4-1.02.07-.8-.25-.87.46-.48,1.11-1.16-.94Z" style="fill: #fff; stroke-width: 0px;"/>
      <path d="m553.71,67.71v1.54s1.18.84,1.18.84l1.18-1.02v1.36h1.12l.28.28.93-.22s-.66.62-.77.78-.8.83-.8.83h-1.33l-1.57,1.33,1.62-1.23,1.54.15s1.32-1.46,1.73-1.58l.32-.73-1.23.19-.5-.46-.81.15-.36-1.81-.91.94.44-.88.73-.44s.59.33.67.33,1.14-.13,1.14-.13l1.55.67,1.42-.96,1.23.11,1.4.63,1.74-.74.63,1.14.4.09.08-.24-.85-1.88-1.87.93-1.06-.74-1.91.02-1.22.74-1.8-.4-1.02.07-.8-.25-.87.46-.48,1.11-1.16-.94Z" style="fill: none; stroke: #eb0037; stroke-miterlimit: 10; stroke-width: .1px;"/>
    </g>
    <polygon points="560.06 67.44 561.31 65.36 562.76 65.36 564.35 64.64 565.36 63.79 564.32 64.6 562.73 65.49 561.21 65.49 560.05 67.44 560.06 67.44" style="fill: #fff; stroke-width: 0px;"/>
    <polygon points="564.02 64.76 563.82 64.23 564.08 63.79 563.89 62.54 563.95 63.79 563.67 64.23 563.92 64.81 564.02 64.76" style="fill: #fff; stroke-width: 0px;"/>
    <g style="filter: url(#AI_GaussianBlur_4-6); opacity: .4;">
      <path d="m565.59,67.46l3.62-2.23,1.34-3.09,2-.2,2.35-2.13v-5s.51,5.56.37,5.98l1.96-.84s-1.68,1.68-2.24,1.68-1.12-.14-1.12-.14c0,0-.98.98-1.12.98s-1.34.24-1.34.24l-1.6,3.86-1.01-.53-2.4,1.77-.82-.34Z" style="fill: #fff; stroke-width: 0px;"/>
    </g>
    <path d="m577.62,59.51s-1.68,1.68-2.24,1.68-1.12-.14-1.12-.14c0,0-.98.98-1.12.98s-1.34.24-1.34.24l-1.6,3.86-1.01-.53-2.4,1.77h-.02s.29.64.29.64l-.08.24-.4-.09-.63-1.14-1.74.74-1.4-.63-1.23-.11-1.42.96-1.55-.67s-1.06.13-1.14.13-.67-.33-.67-.33l-.73.44-.44.88.91-.94.36,1.81.81-.15.5.46,1.23-.19-.32.73c-.4.12-1.72,1.58-1.72,1.58l-1.54-.15-1.62,1.23,1.57-1.33h1.33s.7-.66.8-.83c.11-.16.77-.78.77-.78l-.93.22-.28-.28h-1.12v-1.36l-1.18,1.02-1.3-.91v-1.5l1.27.97.48-1.11.87-.46.8.25,1.02-.07,1.8.4,1.22-.74,1.91-.02,1.06.74,1.87-.93.27.59,3.12-1.92,1.34-3.09,2-.2,2.35-2.13v-5s.51,5.56.37,5.98l1.96-.84Z" style="fill: #fff; stroke: #fff; stroke-miterlimit: 10; stroke-width: .1px;"/>
    <g style="filter: url(#AI_GaussianBlur_4-7);">
      <polyline points="711.92 65.56 709.93 66.64 709.54 67.1 709.5 67.82 708.02 67.48 706.71 66.66 706.71 67.44 707.36 68.04 710.11 68.57 710.47 67.04 712.42 65.73" style="fill: #fff; stroke-width: 0px;"/>
    </g>
    <g style="filter: url(#AI_GaussianBlur_4-8);">
      <polyline points="712.71 64.74 711.76 61.97 708.87 61.47 708.73 59.93 708.7 61.76 711.34 62.12 712.07 65.55" style="fill: #fff; stroke-width: 0px;"/>
    </g>
    <g style="filter: url(#AI_GaussianBlur_4-9); opacity: .72;">
      <polyline points="710.18 64.64 709.11 62.55 706.71 63.24 706.71 64.05 708.79 63.77 710.06 65.43" style="fill: #fff; stroke-width: 0px;"/>
    </g>
    <polyline points="712.71 64.54 711.51 62.24 709.02 61.81 708.9 60.48 708.87 62.07 711.09 62.37 711.09 63.59 712.12 64.73 711.64 65.4 709.89 66.35 709.54 66.76 709.5 67.39 708.2 67.1 707.04 66.37 707.04 67.05 707.61 67.58 710.04 68.04 710.35 66.7 712.07 65.55" style="fill: #fff; stroke-width: 0px;"/>
    <polygon points="711.2 62.29 713.08 62.84 713.43 64.13 714.52 65.31 715.45 65.97 714.54 65.27 713.47 64.1 713.13 62.8 711.18 62.23 711.2 62.29" style="fill: #fff; stroke-width: 0px;"/>
    <polygon points="714.33 65.05 714.73 64.75 715.16 64.88 716.15 64.43 715.13 64.77 714.69 64.63 714.27 64.98 714.33 65.05" style="fill: #fff; stroke-width: 0px;"/>
    <g style="filter: url(#AI_GaussianBlur_4-10); opacity: .72;">
      <path d="m707.18,63.43s-3.6-.07-3.88,1.3,1.3,1.41,1.3,1.41v-.52s-2.06-1.52,2.58-1.48" style="fill: #fff; stroke-width: 0px;"/>
    </g>
    <path d="m710.1,64.59l-.11.69-1.11-1.46-1.83.25c-4.64-.04-2.53,1.48-2.53,1.48v.52s-1.62-.03-1.35-1.41c.27-1.37,3.88-1.3,3.88-1.3l2.11-.61.95,1.84Z" style="fill: #fff; stroke-width: 0px;"/>
    <g style="filter: url(#AI_GaussianBlur_4-11);">
      <polyline points="169.25 63.8 166.08 65.53 165.45 66.27 165.38 67.42 163.02 66.88 160.93 65.57 160.93 66.81 161.97 67.76 166.37 68.61 166.93 66.17 170.06 64.08" style="fill: #fff; stroke-width: 0px;"/>
    </g>
    <g style="filter: url(#AI_GaussianBlur_4-12);">
      <polyline points="170.52 62.5 169 58.07 164.39 57.28 164.16 54.82 164.12 57.75 168.33 58.32 169.49 63.79" style="fill: #fff; stroke-width: 0px;"/>
    </g>
    <g style="filter: url(#AI_GaussianBlur_4-13); opacity: .72;">
      <polyline points="166.48 62.34 164.76 59 160.93 60.11 160.93 61.41 164.26 60.95 166.28 63.6" style="fill: #fff; stroke-width: 0px;"/>
    </g>
    <polyline points="170.52 62.17 168.6 58.51 164.63 57.82 164.43 55.7 164.39 58.24 167.93 58.72 167.93 60.67 169.57 62.48 168.8 63.55 166.01 65.07 165.45 65.73 165.39 66.73 163.31 66.26 161.47 65.1 161.47 66.19 162.38 67.03 166.25 67.78 166.74 65.63 169.49 63.79" style="fill: #fff; stroke-width: 0px;"/>
    <polygon points="168.1 58.59 171.11 59.47 171.67 61.53 173.4 63.4 174.9 64.47 173.43 63.34 171.72 61.47 171.19 59.4 168.08 58.49 168.1 58.59" style="fill: #fff; stroke-width: 0px;"/>
    <polygon points="173.11 62.99 173.74 62.52 174.42 62.72 176 62.01 174.37 62.54 173.69 62.32 173.01 62.88 173.11 62.99" style="fill: #fff; stroke-width: 0px;"/>
    <g style="filter: url(#AI_GaussianBlur_4-14); opacity: .72;">
      <path d="m161.69,60.4s-5.75-.11-6.19,2.08,2.07,2.25,2.07,2.25v-.83s-3.29-2.42,4.12-2.36" style="fill: #fff; stroke-width: 0px;"/>
    </g>
    <path d="m166.35,62.27l-.18,1.11-1.77-2.33-2.93.4c-7.4-.06-4.04,2.36-4.04,2.36v.83s-2.59-.06-2.15-2.25c.44-2.19,6.19-2.08,6.19-2.08l3.36-.97,1.51,2.94Z" style="fill: #fff; stroke-width: 0px;"/>
    <g style="filter: url(#AI_GaussianBlur_7-3); opacity: .4;">
      <path d="m839.99,63.76v1.54s-1.18.84-1.18.84l-1.18-1.02v1.36s-1.12,0-1.12,0l-.28.28-.93-.22s.66.62.77.78.8.83.8.83h1.33s1.57,1.33,1.57,1.33l-1.62-1.23-1.54.15s-1.32-1.46-1.73-1.58l-.32-.73,1.23.19.5-.46.81.15.36-1.81.91.94-.44-.88-.73-.44s-.59.33-.67.33-1.14-.13-1.14-.13l-1.55.67-1.42-.96-1.23.11-1.4.63-1.74-.74-.63,1.14-.4.09-.08-.24.85-1.88,1.87.93,1.06-.74,1.91.02,1.22.74,1.8-.4,1.02.07.8-.25.87.46.48,1.11,1.16-.94Z" style="fill: #fff; stroke-width: 0px;"/>
    </g>
    <polygon points="833.63 63.54 832.38 61.41 830.92 61.41 829.33 60.74 828.33 59.89 829.37 60.7 830.96 61.54 832.47 61.54 833.64 63.54 833.63 63.54" style="fill: #fff; stroke-width: 0px;"/>
    <polygon points="829.67 60.86 829.87 60.33 829.61 59.89 829.8 58.65 829.74 59.89 830.02 60.33 829.76 60.91 829.67 60.86" style="fill: #fff; stroke-width: 0px;"/>
    <g style="filter: url(#AI_GaussianBlur_4-15); opacity: .4;">
      <polygon points="833.63 63.54 832.38 61.41 830.92 61.41 829.33 60.74 828.33 59.89 829.37 60.7 830.96 61.54 832.47 61.54 833.64 63.54 833.63 63.54" style="fill: #fff; stroke-width: 0px;"/>
    </g>
    <g style="filter: url(#AI_GaussianBlur_4-16); opacity: .4;">
      <path d="m839.69,63.89s1.82-2.24-.27-3.43v-.71s4.29,2.22.28,5.67v-1.54Z" style="fill: #fff; stroke-width: 0px;"/>
    </g>
    <path d="m839.68,64.78l-1.19.84-1.18-1.02v1.36h-1.12l-.28.28-.93-.22s.66.62.77.78c.11.17.8.82.8.82h1.33l1.57,1.33-1.62-1.23-1.54.15s-1.32-1.46-1.73-1.58l-.32-.73,1.23.19.5-.46.81.15.36-1.81.91.94-.44-.88-.73-.44s-.59.33-.67.33-1.14-.13-1.14-.13l-1.55.67-1.42-.96-1.23.11-1.4.63-1.74-.74-.63,1.14-.4.09-.08-.24.85-1.88,1.87.93,1.06-.74,1.91.02,1.22.74,1.8-.4,1.02.07.8-.25.87.46.48,1.11,1.16-.94s1.83-1.8-.26-3v-.71s4.28,1.79.26,5.24Z" style="fill: #fff; stroke-width: 0px;"/>
    <g style="filter: url(#AI_GaussianBlur_7-4); opacity: .4;">
      <path d="m436.83,64.48v1.54s-1.18.84-1.18.84l-1.18-1.02v1.36s-1.12,0-1.12,0l-.28.28-.93-.22s.66.62.77.78.8.83.8.83h1.33s1.57,1.33,1.57,1.33l-1.62-1.23-1.54.15s-1.32-1.46-1.73-1.58l-.32-.73,1.23.19.5-.46.81.15.36-1.81.91.94-.44-.88-.73-.44s-.59.33-.67.33-1.14-.13-1.14-.13l-1.55.67-1.42-.96-1.23.11-1.4.63-1.74-.74-.63,1.14-.4.09-.08-.24.85-1.88,1.87.93,1.06-.74,1.91.02,1.22.74,1.8-.4,1.02.07.8-.25.87.46.48,1.11,1.16-.94Z" style="fill: #fff; stroke-width: 0px;"/>
    </g>
    <polygon points="430.46 64.26 429.21 62.14 427.75 62.14 426.16 61.46 425.16 60.62 426.2 61.43 427.79 62.27 429.3 62.27 430.47 64.27 430.46 64.26" style="fill: #fff; stroke-width: 0px;"/>
    <polygon points="426.5 61.59 426.7 61.06 426.44 60.62 426.63 59.37 426.57 60.62 426.85 61.06 426.59 61.64 426.5 61.59" style="fill: #fff; stroke-width: 0px;"/>
    <g style="filter: url(#AI_GaussianBlur_4-17); opacity: .4;">
      <polygon points="430.46 64.26 429.21 62.14 427.75 62.14 426.16 61.46 425.16 60.62 426.2 61.43 427.79 62.27 429.3 62.27 430.47 64.27 430.46 64.26" style="fill: #fff; stroke-width: 0px;"/>
    </g>
    <g style="filter: url(#AI_GaussianBlur_4-18); opacity: .4;">
      <path d="m436.52,64.61s1.82-2.24-.27-3.43v-.71s4.29,2.22.28,5.67v-1.54Z" style="fill: #fff; stroke-width: 0px;"/>
    </g>
    <path d="m436.51,65.51l-1.19.84-1.18-1.02v1.36h-1.12l-.28.28-.93-.22s.66.62.77.78c.11.17.8.82.8.82h1.33l1.57,1.33-1.62-1.23-1.54.15s-1.32-1.46-1.73-1.58l-.32-.73,1.23.19.5-.46.81.15.36-1.81.91.94-.44-.88-.73-.44s-.59.33-.67.33-1.14-.13-1.14-.13l-1.55.67-1.42-.96-1.23.11-1.4.63-1.74-.74-.63,1.14-.4.09-.08-.24.85-1.88,1.87.93,1.06-.74,1.91.02,1.22.74,1.8-.4,1.02.07.8-.25.87.46.48,1.11,1.16-.94s1.83-1.8-.26-3v-.71s4.28,1.79.26,5.24Z" style="fill: #fff; stroke-width: 0px;"/>
  </g>
  <rect x="6.63" y="15.15" width="1126.74" height="99.71" style="fill: none; stroke: #223654; stroke-miterlimit: 10; stroke-width: 2px;"/>
  <path d="m772.41,108.89v-23.2c0-1.33-1.08-2.41-2.41-2.41h-3.55c-1.34,0-2.42,1.08-2.42,2.42v20.78H92.43v-7.38h4.47c.52,0,.83-.56.58-1l-8.67-15.08c-.25-.45-.89-.45-1.15,0l-8.67,15.08c-.25.45.07,1,.58,1h4.47v13.35c0,1.33,1.08,2.41,2.41,2.41h683.53c1.33,0,2.41-1.08,2.41-2.41v-3.55h0Z" style="fill: url(#linear-gradient-8); stroke-width: 0px;"/>
</svg>