<?xml version="1.0" encoding="UTF-8"?>
<svg id="Layer_2" xmlns="http://www.w3.org/2000/svg" xmlns:xlink="http://www.w3.org/1999/xlink" viewBox="0 0 1445 432.07"><defs><filter id="outer-glow-1" x="86.32" y="199.16" width="109" height="134" filterUnits="userSpaceOnUse"><feOffset dx="0" dy="0"/><feGaussianBlur result="blur" stdDeviation="3.06"/><feFlood flood-color="#02adef" flood-opacity=".75"/><feComposite in2="blur" operator="in"/><feComposite in="SourceGraphic"/></filter><linearGradient id="linear-gradient" x1="102.2" y1="275.01" x2="228.2" y2="214.3" gradientUnits="userSpaceOnUse"><stop offset=".03" stop-color="#525a6a"/><stop offset=".12" stop-color="#596170"/><stop offset=".25" stop-color="#6e7583"/><stop offset=".41" stop-color="#9197a2"/><stop offset=".6" stop-color="#c0c5cd"/><stop offset=".66" stop-color="#d4d8df"/></linearGradient><filter id="drop-shadow-2" x="95.84" y="208.39" width="89.41" height="114.82" filterUnits="userSpaceOnUse"><feOffset dx=".72" dy="-.68"/><feGaussianBlur result="blur-2" stdDeviation="3.42"/><feFlood flood-color="#000" flood-opacity=".75"/><feComposite in2="blur-2" operator="in"/><feComposite in="SourceGraphic"/></filter><linearGradient id="linear-gradient-2" x1="104.96" y1="323.55" x2="174.96" y2="186.43" gradientUnits="userSpaceOnUse"><stop offset=".12" stop-color="#223654"/><stop offset=".19" stop-color="#22385b"/><stop offset=".3" stop-color="#243f70"/><stop offset=".43" stop-color="#264a93"/><stop offset=".57" stop-color="#2a59be"/></linearGradient><filter id="outer-glow-3" x="841.32" y="199.16" width="109" height="134" filterUnits="userSpaceOnUse"><feOffset dx="0" dy="0"/><feGaussianBlur result="blur-3" stdDeviation="3.06"/><feFlood flood-color="#02adef" flood-opacity=".75"/><feComposite in2="blur-3" operator="in"/><feComposite in="SourceGraphic"/></filter><linearGradient id="linear-gradient-3" x1="857.13" y1="275.01" x2="983.13" y2="214.3" xlink:href="#linear-gradient"/><filter id="drop-shadow-4" x="850.76" y="208.39" width="89.41" height="114.82" filterUnits="userSpaceOnUse"><feOffset dx=".72" dy="-.68"/><feGaussianBlur result="blur-4" stdDeviation="3.42"/><feFlood flood-color="#000" flood-opacity=".75"/><feComposite in2="blur-4" operator="in"/><feComposite in="SourceGraphic"/></filter><linearGradient id="linear-gradient-4" x1="859.89" y1="323.55" x2="929.89" y2="186.43" xlink:href="#linear-gradient-2"/></defs><path d="M1302.49,344.99l-33.54-19.29c-.99-.57-2.23.15-2.23,1.29v9.95h-330.29c-1.63,0-2.95-1.32-2.95-2.95v-43.23h-18.65v61.83c0,1.63,1.32,2.95,2.95,2.95h1.96c.15.01.3.05.46.05h346.52v9.95c0,1.15,1.24,1.86,2.23,1.29l33.54-19.29c.99-.57.99-1.99,0-2.55Z" fill="#a3ea2a"/><path d="M1302.49,88.03l-33.54,19.29c-.99.57-2.23-.15-2.23-1.29v-9.95h-330.47c-1.53,0-2.77,1.24-2.77,2.77v43.41h-18.65v-62.02c0-1.53,1.24-2.77,2.77-2.77h2.15c.15-.01.3-.05.46-.05h346.52v-9.95c0-1.15,1.24-1.86,2.23-1.29l33.54,19.29c.99.57.99,1.99,0,2.55Z" fill="#a3ea2a"/><path d="M1422.07,56.7v-13.03h-7.37c-.47-1.63-1.11-3.19-1.91-4.65l5.24-5.24-9.21-9.21-5.23,5.23c-1.45-.8-3-1.44-4.61-1.91v-7.45h-13.03v7.45c-1.61.47-3.14,1.1-4.58,1.89l-5.3-5.3-9.21,9.21,5.3,5.3c-.78,1.43-1.42,2.95-1.89,4.55h-7.54v13.03h7.5c.46,1.6,1.09,3.12,1.86,4.56l-5.32,5.32,9.21,9.21,5.28-5.28c1.43.8,2.96,1.44,4.56,1.92v7.49h13.03v-7.42c1.62-.46,3.17-1.09,4.62-1.88l5.26,5.26,9.21-9.21-5.21-5.21c.81-1.45,1.46-3,1.94-4.63h7.41ZM1393.65,64.62c-8.97.71-16.4-6.72-15.69-15.69.56-7.05,6.27-12.77,13.33-13.33,8.97-.71,16.4,6.72,15.69,15.69-.56,7.05-6.27,12.77-13.33,13.33Z" fill="#3bc81e"/><rect x="313.71" y="217.71" width="330.99" height="35.64" rx="5.55" ry="5.55" fill="#223654"/><path d="M625.4,156.52h-302.46c-2.9,0-5.24-2.15-5.24-4.81v-21.3c0-2.66,2.35-4.81,5.24-4.81h302.46c2.9,0,5.24,2.15,5.24,4.81v21.3c0,2.66-2.35,4.81-5.24,4.81Z" fill="#223654"/><g id="arrow_styles_for_diagrams_etc"><g id="arrow_styles_for_diagrams_etc-2"><g id="arrow_styles_for_diagrams_etc-3"><g id="arrow_styles_for_diagrams_etc-4"><path d="M732.28,176.48l-33.54,19.29c-.99.57-2.23-.15-2.23-1.29v-9.95H220.69c-2.97,0-5.38-2.41-5.38-5.38v-7.9c0-2.96,2.4-5.37,5.37-5.37h475.83v-9.95c0-1.15,1.24-1.86,2.23-1.29l33.54,19.29c.99.57.99,1.99,0,2.55Z" fill="#a3ea2a"/></g></g></g></g><g id="arrow_styles_for_diagrams_etc-5"><g id="arrow_styles_for_diagrams_etc-6"><g id="arrow_styles_for_diagrams_etc-7"><g id="arrow_styles_for_diagrams_etc-8"><path d="M216.05,269.52l33.54-19.29c.99-.57,2.23.15,2.23,1.29v9.95h475.81c2.97,0,5.38,2.41,5.38,5.38v7.9c0,2.96-2.4,5.37-5.37,5.37H251.83v9.95c0,1.15-1.24,1.86-2.23,1.29l-33.54-19.29c-.99-.57-.99-1.99,0-2.55Z" fill="#a3ea2a"/></g></g></g></g><circle cx="94.61" cy="150.05" r="45.93" fill="#a3ea2a"/><path d="M128.42,194.57c-9.4,7.15-21.11,11.41-33.8,11.41s-24.41-4.26-33.8-11.41c-25.22,12.47-42.56,38.44-42.56,68.48v12.29c0,13.94,11.3,25.24,25.24,25.24h102.26c13.94,0,25.24-11.3,25.24-25.24v-12.29c0-30.04-17.35-56.01-42.56-68.48Z" fill="#a3ea2a"/><g filter="url(#outer-glow-1)"><path d="M185.24,211.42s0,65.56-.42,73.14c-.42,7.58-5.85,12.13-12.95,19.33-7.1,7.2-31.34,19.32-31.34,19.32,0,0-24.23-12.13-31.33-19.32-7.1-7.2-12.53-11.75-12.95-19.33-.42-7.58-.42-73.14-.42-73.14,0,0,23.81,8.72,44.7-3.03,20.89,11.75,44.71,3.03,44.71,3.03Z" fill="url(#linear-gradient)" filter="url(#drop-shadow-2)"/><path d="M176.51,221.65s0,55.43-.34,62.16c-.34,6.72-4.71,10.76-10.42,17.15-5.72,6.39-25.22,17.15-25.22,17.15,0,0-19.5-10.76-25.22-17.15-5.72-6.39-10.09-10.42-10.42-17.15-.34-6.72-.34-62.16-.34-62.16,0,0,19.17,5,35.98-5.42,16.81,10.42,35.98,5.42,35.98,5.42Z" fill="url(#linear-gradient-2)"/><path d="M177.03,221.56s0,55.43-.34,62.16c-.34,6.72-6.5,12.71-10.43,17.15-4.55,5.13-20.11,13.94-25.28,16.9-1.33-28.61.1-76.72-.11-101.53.05-.03.12-.07.17-.1,16.81,10.43,35.98,5.43,35.98,5.43Z" fill="#223654" opacity=".35"/></g><circle cx="849.54" cy="150.05" r="45.93" fill="#a3ea2a"/><path d="M883.34,194.57c-9.4,7.15-21.11,11.41-33.8,11.41s-24.41-4.26-33.8-11.41c-25.22,12.47-42.56,38.44-42.56,68.48v12.29c0,13.94,11.3,25.24,25.24,25.24h102.26c13.94,0,25.24-11.3,25.24-25.24v-12.29c0-30.04-17.35-56.01-42.56-68.48Z" fill="#a3ea2a"/><g filter="url(#outer-glow-3)"><path d="M940.17,211.42s0,65.56-.42,73.14c-.42,7.58-5.85,12.13-12.95,19.33-7.1,7.2-31.34,19.32-31.34,19.32,0,0-24.23-12.13-31.33-19.32-7.1-7.2-12.53-11.75-12.95-19.33-.42-7.58-.42-73.14-.42-73.14,0,0,23.81,8.72,44.7-3.03,20.89,11.75,44.71,3.03,44.71,3.03Z" fill="url(#linear-gradient-3)" filter="url(#drop-shadow-4)"/><path d="M931.44,221.65s0,55.43-.34,62.16-4.71,10.76-10.42,17.15c-5.72,6.39-25.22,17.15-25.22,17.15,0,0-19.5-10.76-25.22-17.15-5.72-6.39-10.09-10.42-10.42-17.15-.34-6.72-.34-62.16-.34-62.16,0,0,19.17,5,35.98-5.42,16.81,10.42,35.98,5.42,35.98,5.42Z" fill="url(#linear-gradient-4)"/><path d="M931.95,221.56s0,55.43-.34,62.16c-.34,6.72-6.5,12.71-10.43,17.15-4.55,5.13-20.11,13.94-25.28,16.9-1.33-28.61.1-76.72-.11-101.53.05-.03.12-.07.17-.1,16.81,10.43,35.98,5.43,35.98,5.43Z" fill="#223654" opacity=".35"/></g><circle cx="1357.04" cy="32.93" r="21.27" fill="#a3ea2a"/><path d="M1372.69,53.54c-4.35,3.31-9.78,5.28-15.66,5.28s-11.3-1.97-15.66-5.28c-11.68,5.78-19.71,17.8-19.71,31.71v5.69c0,6.45,5.23,11.69,11.69,11.69h47.36c6.45,0,11.69-5.23,11.69-11.69v-5.69c0-13.91-8.03-25.94-19.71-31.71Z" fill="#a3ea2a"/><circle cx="207.48" cy="175.47" r="22.23" fill="#223654"/><path d="M201.98,181.19h3.93v-10.39h-3.37v-2.58c1.93-.37,3.2-.86,4.46-1.63h3.07v14.61h3.36v3.36h-11.45v-3.36Z" fill="#fff"/><circle cx="733.02" cy="270.8" r="22.23" fill="#223654"/><path d="M726.6,277.49c4.57-4.32,7.79-7.39,7.79-9.96,0-1.74-.96-2.7-2.54-2.7-1.28,0-2.29.88-3.19,1.83l-2.25-2.24c1.77-1.89,3.45-2.85,6.02-2.85,3.54,0,5.96,2.26,5.96,5.72,0,3.03-2.83,6.25-5.77,9.29.92-.1,2.18-.21,3.01-.21h3.62v3.5h-12.63v-2.38Z" fill="#fff"/><circle cx="924.58" cy="139.24" r="22.23" fill="#223654"/><path d="M925.42,137.93c0-1.14.1-2.88.16-4.02h-.11c-.45,1.01-.96,2.01-1.47,3.04l-2.36,3.92h9.73v3.17h-13.72v-2.88l6.56-10.8h5.09v17.97h-3.88v-10.39Z" fill="#fff"/><circle cx="924.58" cy="359.66" r="22.23" fill="#223654"/><path d="M917.72,366.53l1.92-2.63c1.1,1.05,2.43,1.82,3.94,1.82,1.75,0,2.92-.76,2.92-2.15,0-1.58-.92-2.55-4.83-2.55v-2.95c3.23,0,4.24-.98,4.24-2.41,0-1.26-.81-1.98-2.22-1.98-1.28,0-2.25.58-3.36,1.57l-2.1-2.53c1.65-1.42,3.46-2.3,5.65-2.3,3.73,0,6.2,1.77,6.2,4.93,0,1.85-1.06,3.18-3,3.99v.11c2.08.59,3.58,2.06,3.58,4.38,0,3.34-3.07,5.23-6.68,5.23-2.91,0-4.95-1.03-6.26-2.55Z" fill="#fff"/><path d="M322.71,230.49h2.5v4.27h3.82v-4.27h2.5v11.08h-2.5v-4.62h-3.82v4.62h-2.5v-11.08Z" fill="#fff"/><path d="M333.47,237.35c0-2.74,1.95-4.42,3.98-4.42,2.4,0,3.59,1.75,3.59,4.05,0,.45-.06.9-.1,1.1h-5.05c.22,1.22,1.06,1.79,2.19,1.79.64,0,1.21-.19,1.82-.55l.83,1.51c-.86.6-1.99.95-2.99.95-2.4,0-4.27-1.63-4.27-4.42ZM338.91,236.43c0-.93-.4-1.59-1.4-1.59-.79,0-1.47.53-1.64,1.59h3.04Z" fill="#fff"/><path d="M342.41,244.69l.44-1.91c.16.04.39.11.57.11.82,0,1.26-.45,1.48-1.11l.13-.44-3.25-8.22h2.51l1.21,3.63c.24.76.44,1.56.67,2.39h.07c.19-.8.38-1.6.59-2.39l1.02-3.63h2.39l-2.93,8.53c-.8,2.11-1.7,3.21-3.68,3.21-.52,0-.86-.07-1.2-.17Z" fill="#fff"/><path d="M350.19,243.54c1.26-.44,1.92-1.23,1.91-2.11l-.04-1.67.82,1.4c-.25.21-.56.31-.91.31-.79,0-1.51-.51-1.51-1.42,0-.86.7-1.42,1.56-1.42,1.11,0,1.73.88,1.73,2.37,0,1.86-1.07,3.28-3.05,3.88l-.51-1.33Z" fill="#fff"/><path d="M359.34,238.5v-3.41h-1.15v-1.86l1.29-.1.29-2.24h2.07v2.24h2.02v1.96h-2.02v3.38c0,.96.43,1.34,1.09,1.34.28,0,.58-.08.8-.16l.39,1.82c-.45.14-1.06.31-1.87.31-2.08,0-2.91-1.32-2.91-3.27Z" fill="#fff"/><path d="M365.51,229.66h2.5v2.91l-.11,1.53c.63-.58,1.45-1.17,2.6-1.17,1.83,0,2.62,1.29,2.62,3.4v5.24h-2.5v-4.92c0-1.21-.33-1.59-1.05-1.59-.63,0-1.01.29-1.56.82v5.69h-2.5v-11.91Z" fill="#fff"/><path d="M374.83,239.23c0-1.78,1.41-2.74,4.75-3.09-.05-.74-.42-1.22-1.33-1.22-.71,0-1.41.3-2.23.76l-.89-1.64c1.07-.65,2.28-1.11,3.6-1.11,2.16,0,3.35,1.23,3.35,3.82v4.82h-2.04l-.18-.86h-.06c-.71.62-1.51,1.07-2.45,1.07-1.54,0-2.51-1.12-2.51-2.54ZM379.58,239.12v-1.47c-1.78.24-2.36.75-2.36,1.38,0,.54.37.81.97.81s.95-.28,1.39-.72Z" fill="#fff"/><path d="M384.18,233.13h2.04l.18,1.07h.06c.71-.68,1.56-1.27,2.71-1.27,1.83,0,2.62,1.29,2.62,3.4v5.24h-2.5v-4.92c0-1.21-.33-1.59-1.05-1.59-.63,0-1.01.29-1.56.82v5.69h-2.5v-8.43Z" fill="#fff"/><path d="M393.9,229.66h2.44v6.82h.06l2.67-3.35h2.71l-2.95,3.48,3.18,4.96h-2.71l-1.9-3.29-1.07,1.21v2.08h-2.44v-11.91Z" fill="#fff"/><path d="M406.36,244.69l.44-1.91c.16.04.39.11.57.11.82,0,1.26-.45,1.48-1.11l.13-.44-3.25-8.22h2.51l1.21,3.63c.24.76.44,1.56.67,2.39h.07c.19-.8.38-1.6.59-2.39l1.02-3.63h2.39l-2.93,8.53c-.8,2.11-1.7,3.21-3.68,3.21-.52,0-.86-.07-1.2-.17Z" fill="#fff"/><path d="M414.85,237.35c0-2.8,1.97-4.42,4.11-4.42s4.11,1.62,4.11,4.42-1.97,4.42-4.11,4.42-4.11-1.62-4.11-4.42ZM420.5,237.35c0-1.46-.51-2.41-1.55-2.41s-1.55.95-1.55,2.41.51,2.4,1.55,2.4,1.55-.94,1.55-2.4Z" fill="#fff"/><path d="M424.69,238.37v-5.24h2.5v4.92c0,1.21.33,1.59,1.05,1.59.63,0,1.01-.26,1.5-.93v-5.58h2.5v8.43h-2.04l-.18-1.17h-.06c-.7.84-1.5,1.37-2.65,1.37-1.83,0-2.62-1.29-2.62-3.4Z" fill="#fff"/><path d="M434.12,243.54c1.26-.44,1.92-1.23,1.91-2.11l-.04-1.67.82,1.4c-.25.21-.56.31-.91.31-.79,0-1.51-.51-1.51-1.42,0-.86.7-1.42,1.56-1.42,1.11,0,1.73.88,1.73,2.37,0,1.86-1.07,3.28-3.05,3.88l-.51-1.33Z" fill="#fff"/><path d="M442.24,233.13h2.48l.81,3.91c.15.83.24,1.65.38,2.51h.07c.15-.85.3-1.7.5-2.51l.92-3.91h2.17l.95,3.91c.2.83.35,1.65.53,2.51h.07c.15-.85.24-1.67.39-2.51l.8-3.91h2.31l-2.02,8.43h-2.93l-.77-3.37c-.15-.78-.3-1.56-.45-2.47h-.07c-.15.91-.27,1.69-.43,2.47l-.74,3.36h-2.86l-2.11-8.43Z" fill="#fff"/><path d="M455.93,230.59c0-.77.61-1.31,1.45-1.31s1.45.54,1.45,1.31-.61,1.31-1.45,1.31-1.45-.55-1.45-1.31ZM456.12,233.13h2.5v8.43h-2.5v-8.43Z" fill="#fff"/><path d="M460.81,238.95v-9.29h2.5v9.39c0,.54.25.71.45.71.1,0,.16,0,.31-.03l.3,1.84c-.28.12-.69.21-1.25.21-1.71,0-2.3-1.12-2.3-2.82Z" fill="#fff"/><path d="M465.67,238.95v-9.29h2.5v9.39c0,.54.25.71.45.71.1,0,.16,0,.31-.03l.3,1.84c-.28.12-.69.21-1.25.21-1.71,0-2.3-1.12-2.3-2.82Z" fill="#fff"/><path d="M473.94,233.13h2.04l.18,1.47h.06c.61-1.12,1.54-1.68,2.4-1.68.48,0,.76.06,1.01.17l-.42,2.16c-.3-.07-.55-.14-.91-.14-.64,0-1.41.41-1.86,1.56v4.89h-2.5v-8.43Z" fill="#fff"/><path d="M480.04,237.35c0-2.74,1.95-4.42,3.98-4.42,2.4,0,3.59,1.75,3.59,4.05,0,.45-.06.9-.1,1.1h-5.04c.22,1.22,1.06,1.79,2.19,1.79.64,0,1.21-.19,1.82-.55l.83,1.51c-.86.6-1.99.95-2.99.95-2.4,0-4.27-1.63-4.27-4.42ZM485.48,236.43c0-.93-.4-1.59-1.4-1.59-.79,0-1.47.53-1.64,1.59h3.04Z" fill="#fff"/><path d="M488.34,233.13h2.51l1.1,3.98c.22.84.44,1.71.65,2.59h.07c.22-.88.44-1.75.65-2.59l1.1-3.98h2.39l-2.75,8.43h-2.88l-2.84-8.43Z" fill="#fff"/><path d="M497.93,230.59c0-.77.61-1.31,1.45-1.31s1.45.54,1.45,1.31-.61,1.31-1.45,1.31-1.45-.55-1.45-1.31ZM498.13,233.13h2.5v8.43h-2.5v-8.43Z" fill="#fff"/><path d="M502.33,237.35c0-2.74,1.95-4.42,3.98-4.42,2.4,0,3.59,1.75,3.59,4.05,0,.45-.06.9-.1,1.1h-5.05c.22,1.22,1.06,1.79,2.19,1.79.64,0,1.21-.19,1.82-.55l.83,1.51c-.86.6-1.99.95-2.99.95-2.4,0-4.27-1.63-4.27-4.42ZM507.76,236.43c0-.93-.4-1.59-1.4-1.59-.79,0-1.47.53-1.64,1.59h3.04Z" fill="#fff"/><path d="M510.83,233.13h2.48l.81,3.91c.15.83.24,1.65.38,2.51h.07c.15-.85.3-1.7.5-2.51l.92-3.91h2.17l.95,3.91c.2.83.35,1.65.53,2.51h.07c.15-.85.24-1.67.39-2.51l.8-3.91h2.31l-2.02,8.43h-2.93l-.77-3.37c-.15-.78-.3-1.56-.45-2.47h-.07c-.15.91-.27,1.69-.43,2.47l-.74,3.36h-2.86l-2.11-8.43Z" fill="#fff"/><path d="M528.45,238.5v-3.41h-1.15v-1.86l1.29-.1.29-2.24h2.07v2.24h2.02v1.96h-2.02v3.38c0,.96.43,1.34,1.09,1.34.28,0,.58-.08.8-.16l.39,1.82c-.45.14-1.06.31-1.87.31-2.08,0-2.91-1.32-2.91-3.27Z" fill="#fff"/><path d="M534.62,229.66h2.5v2.91l-.11,1.53c.63-.58,1.45-1.17,2.6-1.17,1.83,0,2.62,1.29,2.62,3.4v5.24h-2.5v-4.92c0-1.21-.33-1.59-1.05-1.59-.63,0-1.01.29-1.56.82v5.69h-2.5v-11.91Z" fill="#fff"/><path d="M543.84,237.35c0-2.74,1.95-4.42,3.98-4.42,2.4,0,3.59,1.75,3.59,4.05,0,.45-.06.9-.1,1.1h-5.04c.22,1.22,1.06,1.79,2.19,1.79.64,0,1.21-.19,1.82-.55l.83,1.51c-.86.6-1.99.95-2.99.95-2.4,0-4.27-1.63-4.27-4.42ZM549.28,236.43c0-.93-.4-1.59-1.4-1.59-.79,0-1.47.53-1.64,1.59h3.04Z" fill="#fff"/><path d="M556.15,239.23c0-1.78,1.41-2.74,4.75-3.09-.05-.74-.42-1.22-1.33-1.22-.71,0-1.41.3-2.23.76l-.89-1.64c1.07-.65,2.28-1.11,3.6-1.11,2.16,0,3.35,1.23,3.35,3.82v4.82h-2.04l-.18-.86h-.06c-.71.62-1.51,1.07-2.45,1.07-1.54,0-2.51-1.12-2.51-2.54ZM560.9,239.12v-1.47c-1.78.24-2.36.75-2.36,1.38,0,.54.37.81.97.81s.95-.28,1.39-.72Z" fill="#fff"/><path d="M565.5,238.95v-9.29h2.5v9.39c0,.54.25.71.45.71.1,0,.16,0,.31-.03l.3,1.84c-.28.12-.69.21-1.25.21-1.71,0-2.3-1.12-2.3-2.82Z" fill="#fff"/><path d="M569.87,237.35c0-2.74,1.95-4.42,3.98-4.42,2.4,0,3.59,1.75,3.59,4.05,0,.45-.06.9-.1,1.1h-5.05c.22,1.22,1.06,1.79,2.19,1.79.64,0,1.21-.19,1.82-.55l.83,1.51c-.86.6-1.99.95-2.99.95-2.4,0-4.27-1.63-4.27-4.42ZM575.3,236.43c0-.93-.4-1.59-1.4-1.59-.79,0-1.47.53-1.64,1.59h3.04Z" fill="#fff"/><path d="M579.16,233.13h2.04l.18,1.47h.06c.61-1.12,1.54-1.68,2.4-1.68.48,0,.76.06,1.01.17l-.42,2.16c-.3-.07-.55-.14-.91-.14-.64,0-1.41.41-1.86,1.56v4.89h-2.5v-8.43Z" fill="#fff"/><path d="M586.27,238.5v-3.41h-1.15v-1.86l1.29-.1.29-2.24h2.07v2.24h2.02v1.96h-2.02v3.38c0,.96.43,1.34,1.09,1.34.28,0,.58-.08.8-.16l.39,1.82c-.45.14-1.06.31-1.87.31-2.08,0-2.91-1.32-2.91-3.27Z" fill="#fff"/><path d="M598.11,230.49h3l3.48,11.08h-2.65l-1.45-5.61c-.31-1.11-.6-2.42-.9-3.57h-.07c-.27,1.17-.56,2.47-.87,3.57l-1.46,5.61h-2.56l3.48-11.08ZM596.93,236.98h5.33v1.95h-5.33v-1.95Z" fill="#fff"/><path d="M605.07,240.17l1.44-1.72c.79.69,1.81,1.16,2.72,1.16,1.05,0,1.56-.41,1.56-1.07,0-.7-.63-.92-1.6-1.32l-1.44-.61c-1.15-.47-2.24-1.41-2.24-3.02,0-1.84,1.64-3.3,3.95-3.3,1.28,0,2.61.5,3.56,1.45l-1.26,1.58c-.73-.56-1.42-.87-2.3-.87s-1.41.36-1.41.99c0,.68.72.93,1.69,1.31l1.41.57c1.35.55,2.2,1.45,2.2,3.01,0,1.84-1.53,3.43-4.17,3.43-1.44,0-2.97-.55-4.1-1.6Z" fill="#fff"/><path d="M617.3,230.49h3l3.48,11.08h-2.65l-1.45-5.61c-.31-1.11-.6-2.42-.9-3.57h-.07c-.27,1.17-.56,2.47-.87,3.57l-1.46,5.61h-2.56l3.48-11.08ZM616.12,236.98h5.33v1.95h-5.33v-1.95Z" fill="#fff"/><path d="M624.85,230.49h3.81c2.44,0,4.4.87,4.4,3.56s-1.99,3.76-4.34,3.76h-1.37v3.76h-2.5v-11.08ZM628.57,235.82c1.38,0,2.03-.61,2.03-1.77s-.74-1.58-2.1-1.58h-1.15v3.34h1.22Z" fill="#fff"/><path d="M635.06,240.2c0-.89.64-1.58,1.51-1.58s1.51.69,1.51,1.58-.64,1.57-1.51,1.57-1.51-.69-1.51-1.57ZM635.4,232.44l-.08-2.26h2.5l-.08,2.26-.35,5.2h-1.64l-.35-5.2Z" fill="#fff"/><path d="M329.44,135.32h3l3.48,11.08h-2.65l-1.45-5.61c-.31-1.11-.6-2.42-.9-3.57h-.07c-.27,1.17-.56,2.47-.87,3.57l-1.46,5.61h-2.56l3.48-11.08ZM328.25,141.81h5.33v1.95h-5.33v-1.95Z" fill="#fff"/><path d="M336.77,143.78v-9.29h2.5v9.39c0,.54.25.71.45.71.1,0,.16,0,.31-.03l.3,1.84c-.28.12-.69.21-1.25.21-1.71,0-2.3-1.12-2.3-2.82Z" fill="#fff"/><path d="M341.14,142.19c0-2.74,1.95-4.42,3.98-4.42,2.4,0,3.59,1.75,3.59,4.05,0,.45-.06.9-.1,1.1h-5.04c.22,1.22,1.06,1.79,2.19,1.79.64,0,1.21-.19,1.82-.55l.83,1.51c-.86.6-1.99.95-2.99.95-2.4,0-4.27-1.63-4.27-4.42ZM346.58,141.26c0-.93-.4-1.59-1.4-1.59-.79,0-1.47.53-1.64,1.59h3.04Z" fill="#fff"/><path d="M350.44,137.97h2.04l.18,1.47h.06c.61-1.12,1.54-1.68,2.4-1.68.48,0,.76.06,1.01.17l-.42,2.16c-.3-.07-.55-.14-.91-.14-.64,0-1.41.41-1.86,1.56v4.89h-2.5v-8.43Z" fill="#fff"/><path d="M357.54,143.33v-3.41h-1.15v-1.86l1.29-.1.29-2.24h2.07v2.24h2.02v1.96h-2.02v3.38c0,.96.43,1.34,1.09,1.34.28,0,.58-.08.8-.16l.39,1.82c-.45.14-1.06.31-1.87.31-2.08,0-2.91-1.32-2.91-3.27Z" fill="#fff"/><path d="M367.32,135.32h3.13c3.38,0,5.56,1.68,5.56,5.49s-2.18,5.59-5.42,5.59h-3.27v-11.08ZM370.3,144.38c1.88,0,3.15-.92,3.15-3.57s-1.27-3.47-3.15-3.47h-.48v7.05h.48Z" fill="#fff"/><path d="M377.42,142.19c0-2.74,1.95-4.42,3.98-4.42,2.4,0,3.59,1.75,3.59,4.05,0,.45-.06.9-.1,1.1h-5.05c.22,1.22,1.06,1.79,2.19,1.79.64,0,1.21-.19,1.82-.55l.83,1.51c-.86.6-1.99.95-2.99.95-2.4,0-4.27-1.63-4.27-4.42ZM382.86,141.26c0-.93-.4-1.59-1.4-1.59-.79,0-1.47.53-1.64,1.59h3.04Z" fill="#fff"/><path d="M386.88,143.33v-3.41h-1.15v-1.86l1.29-.1.29-2.24h2.07v2.24h2.02v1.96h-2.02v3.38c0,.96.43,1.34,1.09,1.34.28,0,.58-.08.8-.16l.39,1.82c-.45.14-1.06.31-1.87.31-2.08,0-2.91-1.32-2.91-3.27Z" fill="#fff"/><path d="M392.33,144.06c0-1.78,1.41-2.74,4.75-3.09-.05-.74-.42-1.22-1.33-1.22-.71,0-1.41.3-2.23.76l-.89-1.64c1.07-.65,2.28-1.11,3.6-1.11,2.16,0,3.35,1.23,3.35,3.82v4.82h-2.04l-.18-.86h-.06c-.71.62-1.51,1.07-2.45,1.07-1.54,0-2.51-1.12-2.51-2.54ZM397.08,143.95v-1.47c-1.78.24-2.36.75-2.36,1.38,0,.54.37.81.97.81s.95-.28,1.39-.72Z" fill="#fff"/><path d="M401.48,135.43c0-.77.61-1.31,1.45-1.31s1.45.54,1.45,1.31-.61,1.31-1.45,1.31-1.45-.55-1.45-1.31ZM401.68,137.97h2.5v8.43h-2.5v-8.43Z" fill="#fff"/><path d="M406.37,143.78v-9.29h2.5v9.39c0,.54.25.71.45.71.1,0,.16,0,.31-.03l.3,1.84c-.28.12-.69.21-1.25.21-1.71,0-2.3-1.12-2.3-2.82Z" fill="#fff"/><path d="M410.48,145.43l1.12-1.56c.76.58,1.47.89,2.18.89.74,0,1.07-.28,1.07-.73,0-.56-.84-.81-1.7-1.15-1.03-.4-2.23-1.09-2.23-2.48,0-1.57,1.28-2.64,3.22-2.64,1.29,0,2.25.52,2.97,1.07l-1.12,1.5c-.6-.44-1.19-.72-1.78-.72-.65,0-.96.25-.96.67,0,.54.79.74,1.66,1.06,1.07.39,2.27,1,2.27,2.54s-1.2,2.72-3.46,2.72c-1.11,0-2.38-.48-3.24-1.18Z" fill="#fff"/><path d="M418.71,139.53c0-.89.64-1.58,1.51-1.58s1.51.69,1.51,1.58-.64,1.57-1.51,1.57-1.51-.69-1.51-1.57ZM418.71,145.03c0-.89.64-1.58,1.51-1.58s1.51.69,1.51,1.58-.64,1.57-1.51,1.57-1.51-.69-1.51-1.57Z" fill="#fff"/><path d="M427.26,134.49h2.5v2.91l-.11,1.53c.63-.58,1.45-1.17,2.6-1.17,1.83,0,2.62,1.29,2.62,3.4v5.24h-2.5v-4.92c0-1.21-.33-1.59-1.05-1.59-.63,0-1.01.29-1.56.82v5.69h-2.5v-11.91Z" fill="#fff"/><path d="M437.31,143.33v-3.41h-1.15v-1.86l1.29-.1.29-2.24h2.07v2.24h2.02v1.96h-2.02v3.38c0,.96.43,1.34,1.09,1.34.28,0,.58-.08.8-.16l.39,1.82c-.45.14-1.06.31-1.87.31-2.08,0-2.91-1.32-2.91-3.27Z" fill="#fff"/><path d="M443.48,143.33v-3.41h-1.15v-1.86l1.29-.1.29-2.24h2.07v2.24h2.02v1.96h-2.02v3.38c0,.96.43,1.34,1.09,1.34.28,0,.58-.08.8-.16l.39,1.82c-.45.14-1.06.31-1.87.31-2.08,0-2.91-1.32-2.91-3.27Z" fill="#fff"/><path d="M449.65,137.97h2.04l.18.83h.06c.66-.59,1.52-1.03,2.4-1.03,2.04,0,3.29,1.69,3.29,4.29,0,2.89-1.72,4.55-3.55,4.55-.73,0-1.41-.32-2.01-.88l.08,1.33v2.47h-2.5v-11.56ZM455.06,142.08c0-1.51-.47-2.27-1.46-2.27-.51,0-.96.23-1.45.76v3.46c.45.4.92.53,1.35.53.87,0,1.57-.74,1.57-2.48Z" fill="#fff"/><path d="M458.56,145.43l1.12-1.56c.76.58,1.47.89,2.18.89.74,0,1.07-.28,1.07-.73,0-.56-.84-.81-1.7-1.15-1.03-.4-2.23-1.09-2.23-2.48,0-1.57,1.28-2.64,3.22-2.64,1.29,0,2.25.52,2.97,1.07l-1.12,1.5c-.6-.44-1.19-.72-1.78-.72-.65,0-.96.25-.96.67,0,.54.79.74,1.66,1.06,1.07.39,2.27,1,2.27,2.54s-1.2,2.72-3.46,2.72c-1.11,0-2.38-.48-3.24-1.18Z" fill="#fff"/><path d="M466.78,139.53c0-.89.64-1.58,1.51-1.58s1.51.69,1.51,1.58-.64,1.57-1.51,1.57-1.51-.69-1.51-1.57ZM466.78,145.03c0-.89.64-1.58,1.51-1.58s1.51.69,1.51,1.58-.64,1.57-1.51,1.57-1.51-.69-1.51-1.57Z" fill="#fff"/><path d="M474.48,134.33h1.63l-3.42,14.79h-1.63l3.42-14.79Z" fill="#fff"/><path d="M480.24,134.33h1.63l-3.42,14.79h-1.63l3.42-14.79Z" fill="#fff"/><path d="M482.72,145.43l1.12-1.56c.76.58,1.47.89,2.18.89.74,0,1.07-.28,1.07-.73,0-.56-.84-.81-1.7-1.15-1.03-.4-2.23-1.09-2.23-2.48,0-1.57,1.28-2.64,3.22-2.64,1.29,0,2.25.52,2.97,1.07l-1.12,1.5c-.6-.44-1.19-.72-1.78-.72-.65,0-.96.25-.96.67,0,.54.79.74,1.66,1.06,1.07.39,2.27,1,2.27,2.54s-1.2,2.72-3.46,2.72c-1.11,0-2.38-.48-3.24-1.18Z" fill="#fff"/><path d="M490.8,135.43c0-.77.61-1.31,1.45-1.31s1.45.54,1.45,1.31-.61,1.31-1.45,1.31-1.45-.55-1.45-1.31ZM490.99,137.97h2.5v8.43h-2.5v-8.43Z" fill="#fff"/><path d="M495.2,142.19c0-2.74,1.95-4.42,3.98-4.42,2.4,0,3.59,1.75,3.59,4.05,0,.45-.06.9-.1,1.1h-5.05c.22,1.22,1.06,1.79,2.19,1.79.64,0,1.21-.19,1.82-.55l.83,1.51c-.86.6-1.99.95-2.99.95-2.4,0-4.27-1.63-4.27-4.42ZM500.63,141.26c0-.93-.4-1.59-1.4-1.59-.79,0-1.47.53-1.64,1.59h3.04Z" fill="#fff"/><path d="M504.49,137.97h2.04l.18,1.08h.06c.69-.7,1.45-1.29,2.56-1.29,1.19,0,1.9.51,2.33,1.42.74-.77,1.53-1.42,2.65-1.42,1.82,0,2.64,1.29,2.64,3.4v5.24h-2.5v-4.92c0-1.21-.33-1.59-1.04-1.59-.42,0-.9.26-1.44.82v5.69h-2.5v-4.92c0-1.21-.33-1.59-1.04-1.59-.42,0-.9.26-1.44.82v5.69h-2.5v-8.43Z" fill="#fff"/><path d="M519,145.03c0-.89.64-1.58,1.51-1.58s1.51.69,1.51,1.58-.64,1.57-1.51,1.57-1.51-.69-1.51-1.57Z" fill="#fff"/><path d="M523.43,143.33v-3.41h-1.15v-1.86l1.29-.1.29-2.24h2.07v2.24h2.02v1.96h-2.02v3.38c0,.96.43,1.34,1.09,1.34.28,0,.58-.08.8-.16l.39,1.82c-.45.14-1.06.31-1.87.31-2.08,0-2.91-1.32-2.91-3.27Z" fill="#fff"/><path d="M529.6,134.49h2.5v2.91l-.11,1.53c.63-.58,1.45-1.17,2.6-1.17,1.83,0,2.62,1.29,2.62,3.4v5.24h-2.5v-4.92c0-1.21-.33-1.59-1.05-1.59-.63,0-1.01.29-1.56.82v5.69h-2.5v-11.91Z" fill="#fff"/><path d="M539.31,137.97h2.04l.18,1.08h.06c.69-.7,1.45-1.29,2.56-1.29,1.19,0,1.9.51,2.33,1.42.74-.77,1.53-1.42,2.65-1.42,1.82,0,2.64,1.29,2.64,3.4v5.24h-2.5v-4.92c0-1.21-.33-1.59-1.04-1.59-.42,0-.9.26-1.44.82v5.69h-2.5v-4.92c0-1.21-.33-1.59-1.04-1.59-.42,0-.9.26-1.44.82v5.69h-2.5v-8.43Z" fill="#fff"/><path d="M556.42,134.33h1.63l-3.42,14.79h-1.63l3.42-14.79Z" fill="#fff"/><path d="M562.01,137.42h-3.05v-2.1h8.6v2.1h-3.05v8.98h-2.5v-8.98Z" fill="#fff"/><path d="M569.3,135.32h2.5v4.27h3.82v-4.27h2.5v11.08h-2.5v-4.62h-3.82v4.62h-2.5v-11.08Z" fill="#fff"/><path d="M580.76,135.32h2.73l1.8,4.92c.22.65.42,1.36.64,2.05h.07c.22-.68.41-1.39.63-2.05l1.74-4.92h2.73v11.08h-2.28v-4.07c0-1.08.2-2.69.32-3.76h-.07l-.91,2.62-1.57,4.24h-1.39l-1.57-4.24-.88-2.62h-.07c.12,1.07.32,2.68.32,3.76v4.07h-2.25v-11.08Z" fill="#fff"/><path d="M593.14,141.21h4.18v1.77h-4.18v-1.77Z" fill="#fff"/><path d="M598.16,145.09l1.12-1.58c.65.6,1.41,1.08,2.33,1.08,1.1,0,1.81-.59,1.81-1.69s-.7-1.67-1.7-1.67c-.62,0-.95.14-1.6.55l-1.11-.72.3-5.45h6.12v2.1h-3.96l-.18,2.02c.41-.17.76-.25,1.2-.25,1.86,0,3.44,1.05,3.44,3.35s-1.85,3.77-3.96,3.77c-1.76,0-2.97-.67-3.81-1.52Z" fill="#fff"/><path d="M607.44,141.25c0-4.04,2.09-5.85,4.36-5.85,1.43,0,2.47.6,3.16,1.3l-1.32,1.5c-.37-.42-1.04-.78-1.67-.78-1.26,0-2.25.96-2.25,3.83,0,2.68.84,3.47,1.75,3.47.74,0,1.36-.52,1.36-1.74,0-1.14-.6-1.57-1.42-1.57-.56,0-1.19.31-1.68,1.16l-.11-1.63c.56-.82,1.56-1.29,2.27-1.29,1.85,0,3.22,1.05,3.22,3.34s-1.63,3.62-3.59,3.62c-2.09,0-4.08-1.56-4.08-5.35Z" fill="#fff"/><path d="M616.46,145.3l1.32-1.5c.37.42,1.04.78,1.67.78,1.27,0,2.25-.96,2.25-3.83,0-2.68-.84-3.47-1.75-3.47-.74,0-1.36.52-1.36,1.74,0,1.14.6,1.57,1.42,1.57.56,0,1.19-.31,1.68-1.16l.11,1.63c-.56.82-1.56,1.3-2.27,1.3-1.85,0-3.22-1.05-3.22-3.34s1.63-3.62,3.59-3.62c2.09,0,4.08,1.56,4.08,5.35,0,4.04-2.09,5.85-4.36,5.85-1.43,0-2.47-.6-3.16-1.3Z" fill="#fff"/><rect x="1016.36" y="21.84" width="182.78" height="50.11" rx="5.25" ry="5.25" fill="#223654"/><path d="M1024.03,32.59h3.99c2.35,0,4.28.82,4.28,3.45s-1.93,3.64-4.28,3.64h-1.48v3.99h-2.51v-11.08ZM1027.81,37.69c1.32,0,2.03-.56,2.03-1.65s-.71-1.46-2.03-1.46h-1.28v3.11h1.28ZM1027.56,39.02l1.73-1.6,3.54,6.25h-2.8l-2.46-4.65Z" fill="#fff"/><path d="M1033.58,39.46c0-2.74,1.95-4.42,3.98-4.42,2.4,0,3.59,1.75,3.59,4.05,0,.45-.06.9-.1,1.1h-5.04c.22,1.22,1.06,1.79,2.19,1.79.64,0,1.21-.19,1.82-.55l.83,1.51c-.86.6-1.99.95-2.99.95-2.4,0-4.27-1.63-4.27-4.42ZM1039.02,38.53c0-.93-.4-1.59-1.4-1.59-.79,0-1.47.53-1.64,1.59h3.04Z" fill="#fff"/><path d="M1042.88,35.24h2.04l.18,1.08h.06c.69-.7,1.45-1.29,2.56-1.29,1.19,0,1.9.51,2.33,1.42.74-.77,1.53-1.42,2.65-1.42,1.82,0,2.64,1.29,2.64,3.4v5.24h-2.5v-4.92c0-1.21-.33-1.59-1.04-1.59-.42,0-.9.26-1.44.82v5.69h-2.5v-4.92c0-1.21-.33-1.59-1.04-1.59-.42,0-.9.26-1.44.82v5.69h-2.5v-8.43Z" fill="#fff"/><path d="M1057.25,32.7c0-.77.61-1.31,1.45-1.31s1.45.54,1.45,1.31-.61,1.31-1.45,1.31-1.45-.55-1.45-1.31ZM1057.45,35.24h2.5v8.43h-2.5v-8.43Z" fill="#fff"/><path d="M1062.14,35.24h2.04l.18,1.07h.06c.71-.68,1.56-1.27,2.71-1.27,1.83,0,2.62,1.29,2.62,3.4v5.24h-2.5v-4.92c0-1.21-.33-1.59-1.05-1.59-.63,0-1.01.29-1.56.82v5.69h-2.5v-8.43Z" fill="#fff"/><path d="M1071.43,39.46c0-2.76,1.72-4.42,3.5-4.42.93,0,1.5.35,2.07.88l-.09-1.28v-2.87h2.5v11.91h-2.04l-.18-.84h-.06c-.6.6-1.43,1.04-2.24,1.04-2.1,0-3.45-1.66-3.45-4.42ZM1076.9,41.07v-3.46c-.44-.4-.94-.53-1.39-.53-.81,0-1.52.75-1.52,2.35s.57,2.4,1.54,2.4c.53,0,.96-.2,1.38-.76Z" fill="#fff"/><path d="M1085.34,40.6v-3.41h-1.15v-1.86l1.29-.1.29-2.24h2.07v2.24h2.02v1.96h-2.02v3.38c0,.96.43,1.34,1.09,1.34.28,0,.58-.08.8-.16l.39,1.82c-.45.14-1.06.31-1.88.31-2.08,0-2.91-1.32-2.91-3.27Z" fill="#fff"/><path d="M1091.51,31.76h2.5v2.91l-.11,1.53c.63-.58,1.45-1.17,2.6-1.17,1.83,0,2.62,1.29,2.62,3.4v5.24h-2.5v-4.92c0-1.21-.33-1.59-1.05-1.59-.63,0-1.01.29-1.56.82v5.69h-2.5v-11.91Z" fill="#fff"/><path d="M1100.73,39.46c0-2.74,1.95-4.42,3.98-4.42,2.4,0,3.59,1.75,3.59,4.05,0,.45-.06.9-.1,1.1h-5.04c.22,1.22,1.06,1.79,2.19,1.79.64,0,1.21-.19,1.82-.55l.83,1.51c-.87.6-1.99.95-2.99.95-2.4,0-4.27-1.63-4.27-4.42ZM1106.17,38.53c0-.93-.4-1.59-1.4-1.59-.79,0-1.47.53-1.64,1.59h3.04Z" fill="#fff"/><path d="M1113.35,40.47v-5.24h2.5v4.92c0,1.21.33,1.59,1.05,1.59.63,0,1.01-.26,1.5-.93v-5.58h2.5v8.43h-2.04l-.18-1.17h-.06c-.7.84-1.5,1.37-2.65,1.37-1.83,0-2.62-1.29-2.62-3.4Z" fill="#fff"/><path d="M1122.34,42.7l1.12-1.56c.76.58,1.47.89,2.18.89.74,0,1.07-.28,1.07-.73,0-.56-.84-.81-1.7-1.15-1.04-.4-2.23-1.09-2.23-2.48,0-1.57,1.28-2.64,3.22-2.64,1.29,0,2.25.52,2.97,1.07l-1.12,1.5c-.6-.44-1.19-.72-1.78-.72-.65,0-.96.25-.96.67,0,.54.79.74,1.66,1.06,1.07.39,2.27,1,2.27,2.54s-1.2,2.72-3.46,2.72c-1.11,0-2.38-.48-3.24-1.18Z" fill="#fff"/><path d="M1130.12,39.46c0-2.74,1.95-4.42,3.98-4.42,2.4,0,3.59,1.75,3.59,4.05,0,.45-.06.9-.1,1.1h-5.04c.22,1.22,1.06,1.79,2.19,1.79.64,0,1.21-.19,1.82-.55l.83,1.51c-.87.6-1.99.95-2.99.95-2.4,0-4.27-1.63-4.27-4.42ZM1135.56,38.53c0-.93-.4-1.59-1.4-1.59-.79,0-1.47.53-1.64,1.59h3.04Z" fill="#fff"/><path d="M1139.42,35.24h2.04l.18,1.47h.06c.61-1.12,1.54-1.68,2.4-1.68.48,0,.76.06,1.01.17l-.42,2.16c-.3-.07-.55-.14-.91-.14-.64,0-1.41.41-1.86,1.56v4.89h-2.5v-8.43Z" fill="#fff"/><path d="M1149.2,41.33c0-1.78,1.41-2.74,4.75-3.09-.05-.74-.42-1.22-1.33-1.22-.71,0-1.41.3-2.23.76l-.89-1.64c1.07-.65,2.28-1.11,3.6-1.11,2.16,0,3.35,1.23,3.35,3.82v4.82h-2.04l-.18-.86h-.06c-.71.62-1.51,1.07-2.45,1.07-1.54,0-2.51-1.12-2.51-2.54ZM1153.95,41.22v-1.47c-1.78.24-2.36.75-2.36,1.38,0,.54.37.81.97.81s.95-.28,1.39-.72Z" fill="#fff"/><path d="M1160.77,42.77h-.06l-.21.9h-1.96v-11.91h2.5v2.91l-.06,1.3c.64-.57,1.44-.93,2.23-.93,2.04,0,3.31,1.69,3.31,4.27,0,2.91-1.72,4.57-3.55,4.57-.75,0-1.53-.38-2.2-1.1ZM1163.96,39.35c0-1.51-.47-2.27-1.47-2.27-.51,0-.96.23-1.45.76v3.46c.45.4.92.53,1.35.53.87,0,1.57-.74,1.57-2.48Z" fill="#fff"/><path d="M1167.79,39.46c0-2.8,1.97-4.42,4.11-4.42s4.11,1.62,4.11,4.42-1.97,4.42-4.11,4.42-4.11-1.62-4.11-4.42ZM1173.45,39.46c0-1.46-.51-2.41-1.55-2.41s-1.55.95-1.55,2.41.51,2.4,1.55,2.4,1.55-.94,1.55-2.4Z" fill="#fff"/><path d="M1177.64,40.47v-5.24h2.5v4.92c0,1.21.33,1.59,1.05,1.59.63,0,1.01-.26,1.5-.93v-5.58h2.5v8.43h-2.04l-.18-1.17h-.06c-.7.84-1.5,1.37-2.65,1.37-1.83,0-2.62-1.29-2.62-3.4Z" fill="#fff"/><path d="M1187.71,40.6v-3.41h-1.15v-1.86l1.29-.1.29-2.24h2.07v2.24h2.02v1.96h-2.02v3.38c0,.96.43,1.34,1.09,1.34.28,0,.58-.08.8-.16l.39,1.82c-.45.14-1.06.31-1.88.31-2.08,0-2.91-1.32-2.91-3.27Z" fill="#fff"/><path d="M1056.87,55.64h2.04l.18.83h.06c.66-.59,1.52-1.03,2.4-1.03,2.04,0,3.29,1.69,3.29,4.29,0,2.89-1.72,4.55-3.55,4.55-.73,0-1.41-.32-2.01-.88l.08,1.33v2.47h-2.5v-11.56ZM1062.28,59.75c0-1.51-.47-2.27-1.47-2.27-.51,0-.96.23-1.45.76v3.46c.46.4.92.53,1.35.53.87,0,1.57-.74,1.57-2.48Z" fill="#fff"/><path d="M1066.47,52.16h2.5v2.91l-.11,1.53c.63-.58,1.45-1.17,2.6-1.17,1.83,0,2.62,1.29,2.62,3.4v5.24h-2.5v-4.92c0-1.21-.33-1.59-1.05-1.59-.63,0-1.01.29-1.56.82v5.69h-2.5v-11.91Z" fill="#fff"/><path d="M1075.99,53.1c0-.77.61-1.31,1.45-1.31s1.45.54,1.45,1.31-.61,1.31-1.45,1.31-1.45-.55-1.45-1.31ZM1076.18,55.64h2.5v8.43h-2.5v-8.43Z" fill="#fff"/><path d="M1080.12,63.1l1.12-1.56c.76.58,1.47.89,2.18.89.74,0,1.06-.28,1.06-.73,0-.56-.84-.81-1.7-1.15-1.03-.4-2.23-1.09-2.23-2.48,0-1.57,1.28-2.64,3.22-2.64,1.29,0,2.25.52,2.97,1.07l-1.12,1.5c-.6-.44-1.19-.72-1.78-.72-.65,0-.96.25-.96.67,0,.54.79.74,1.66,1.06,1.07.39,2.27,1,2.27,2.54s-1.2,2.72-3.46,2.72c-1.11,0-2.38-.48-3.24-1.18Z" fill="#fff"/><path d="M1088.4,52.16h2.5v2.91l-.11,1.53c.63-.58,1.45-1.17,2.6-1.17,1.83,0,2.62,1.29,2.62,3.4v5.24h-2.5v-4.92c0-1.21-.33-1.59-1.05-1.59-.63,0-1.01.29-1.56.82v5.69h-2.5v-11.91Z" fill="#fff"/><path d="M1097.92,53.1c0-.77.61-1.31,1.45-1.31s1.45.54,1.45,1.31-.61,1.31-1.45,1.31-1.45-.55-1.45-1.31ZM1098.11,55.64h2.5v8.43h-2.5v-8.43Z" fill="#fff"/><path d="M1102.8,55.64h2.04l.18,1.07h.06c.71-.68,1.56-1.27,2.71-1.27,1.83,0,2.62,1.29,2.62,3.4v5.24h-2.5v-4.92c0-1.21-.33-1.59-1.05-1.59-.63,0-1.01.29-1.56.82v5.69h-2.5v-8.43Z" fill="#fff"/><path d="M1112.01,65.52c0-.7.42-1.27,1.2-1.7v-.07c-.44-.29-.77-.74-.77-1.43,0-.61.4-1.2.94-1.58v-.07c-.59-.41-1.13-1.2-1.13-2.19,0-2.02,1.67-3.05,3.49-3.05.47,0,.93.07,1.31.2h3.08v1.82h-1.36c.16.25.29.67.29,1.11,0,1.94-1.48,2.83-3.32,2.83-.31,0-.66-.05-1.03-.16-.21.18-.29.33-.29.63,0,.42.34.62,1.26.62h1.37c2.07,0,3.22.63,3.22,2.14,0,1.75-1.83,3.03-4.72,3.03-1.96,0-3.53-.64-3.53-2.14ZM1117.86,65.05c0-.53-.46-.65-1.29-.65h-.88c-.58,0-.91-.03-1.18-.11-.31.26-.46.52-.46.83,0,.64.74.97,1.87.97s1.93-.45,1.93-1.03ZM1116.88,58.48c0-.9-.49-1.37-1.15-1.37s-1.15.47-1.15,1.37.49,1.41,1.15,1.41,1.15-.48,1.15-1.41Z" fill="#fff"/><path d="M1125,55.64h2.04l.18,1.47h.06c.61-1.12,1.54-1.68,2.4-1.68.48,0,.76.06,1.01.17l-.42,2.16c-.3-.07-.55-.14-.91-.14-.64,0-1.41.41-1.86,1.56v4.89h-2.5v-8.43Z" fill="#fff"/><path d="M1131.57,53.1c0-.77.61-1.31,1.45-1.31s1.45.54,1.45,1.31-.61,1.31-1.45,1.31-1.45-.55-1.45-1.31ZM1131.77,55.64h2.5v8.43h-2.5v-8.43Z" fill="#fff"/><path d="M1135.71,63.1l1.12-1.56c.76.58,1.47.89,2.18.89.74,0,1.07-.28,1.07-.73,0-.56-.84-.81-1.7-1.15-1.03-.4-2.23-1.09-2.23-2.48,0-1.57,1.28-2.64,3.22-2.64,1.29,0,2.25.52,2.97,1.07l-1.12,1.5c-.6-.44-1.19-.72-1.78-.72-.65,0-.96.25-.96.67,0,.54.79.74,1.66,1.06,1.07.39,2.27,1,2.27,2.54s-1.2,2.72-3.46,2.72c-1.11,0-2.38-.48-3.24-1.18Z" fill="#fff"/><path d="M1143.99,52.16h2.44v6.82h.06l2.67-3.35h2.71l-2.95,3.48,3.18,4.96h-2.71l-1.9-3.29-1.07,1.21v2.08h-2.44v-11.91Z" fill="#fff"/><path d="M1152.56,63.1l1.12-1.56c.76.58,1.47.89,2.18.89.74,0,1.06-.28,1.06-.73,0-.56-.84-.81-1.7-1.15-1.03-.4-2.23-1.09-2.23-2.48,0-1.57,1.28-2.64,3.22-2.64,1.29,0,2.25.52,2.97,1.07l-1.12,1.5c-.6-.44-1.19-.72-1.78-.72-.65,0-.96.25-.96.67,0,.54.79.74,1.66,1.06,1.07.39,2.27,1,2.27,2.54s-1.2,2.72-3.46,2.72c-1.11,0-2.38-.48-3.24-1.18Z" fill="#fff"/><rect x="1295.92" y="106.17" width="133.63" height="27.96" rx="3.52" ry="3.52" fill="#223654"/><path d="M1302.63,114.7h2.73l1.8,4.92c.22.65.42,1.36.64,2.05h.07c.22-.68.41-1.39.63-2.05l1.74-4.92h2.73v11.08h-2.28v-4.07c0-1.08.2-2.69.32-3.76h-.07l-.91,2.62-1.57,4.24h-1.39l-1.57-4.24-.88-2.62h-.07c.12,1.07.32,2.68.32,3.76v4.07h-2.25v-11.08Z" fill="#fff"/><path d="M1315.32,124.42c0-.89.64-1.58,1.51-1.58s1.51.69,1.51,1.58-.64,1.57-1.51,1.57-1.51-.69-1.51-1.57Z" fill="#fff"/><path d="M1320.16,120.31c0-3.68,2.43-5.81,5.23-5.81,1.43,0,2.59.67,3.33,1.44l-1.32,1.61c-.56-.52-1.15-.88-1.96-.88-1.52,0-2.72,1.34-2.72,3.56s1.06,3.6,2.68,3.6c.91,0,1.62-.45,2.17-1.04l1.32,1.57c-.92,1.07-2.14,1.63-3.58,1.63-2.81,0-5.16-1.95-5.16-5.68Z" fill="#fff"/><path d="M1330.37,123.16v-9.29h2.5v9.39c0,.54.25.71.45.71.1,0,.16,0,.31-.03l.3,1.84c-.28.12-.69.21-1.25.21-1.71,0-2.3-1.12-2.3-2.82Z" fill="#fff"/><path d="M1334.84,123.44c0-1.78,1.41-2.74,4.75-3.09-.05-.74-.42-1.22-1.33-1.22-.71,0-1.41.3-2.23.76l-.89-1.64c1.07-.65,2.28-1.11,3.6-1.11,2.16,0,3.35,1.23,3.35,3.82v4.82h-2.04l-.18-.86h-.06c-.71.62-1.51,1.07-2.45,1.07-1.54,0-2.51-1.12-2.51-2.54ZM1339.59,123.33v-1.47c-1.78.24-2.36.75-2.36,1.38,0,.54.37.81.97.81s.95-.28,1.39-.72Z" fill="#fff"/><path d="M1344.19,117.35h2.04l.18,1.47h.06c.61-1.12,1.54-1.68,2.4-1.68.48,0,.76.06,1.01.17l-.42,2.16c-.3-.07-.55-.14-.91-.14-.64,0-1.41.41-1.86,1.56v4.89h-2.5v-8.43Z" fill="#fff"/><path d="M1350.95,113.87h2.44v6.82h.06l2.67-3.35h2.71l-2.95,3.48,3.18,4.96h-2.71l-1.9-3.29-1.07,1.21v2.08h-2.44v-11.91Z" fill="#fff"/><path d="M1362.98,117.44l1.26-.1h3.88v1.96h-5.14v-1.86ZM1364.1,116.91c0-1.78.83-3.24,3.1-3.24.7,0,1.31.16,1.68.3l-.45,1.84c-.28-.11-.6-.18-.87-.18-.61,0-.96.34-.96,1.21v8.94h-2.5v-8.87Z" fill="#fff"/><path d="M1369.47,117.35h2.04l.18,1.47h.06c.61-1.12,1.54-1.68,2.4-1.68.48,0,.76.06,1.01.17l-.42,2.16c-.3-.07-.55-.14-.91-.14-.64,0-1.41.41-1.86,1.56v4.89h-2.5v-8.43Z" fill="#fff"/><path d="M1375.57,121.57c0-2.8,1.97-4.42,4.11-4.42s4.11,1.62,4.11,4.42-1.97,4.42-4.11,4.42-4.11-1.62-4.11-4.42ZM1381.23,121.57c0-1.46-.51-2.41-1.55-2.41s-1.55.95-1.55,2.41.51,2.4,1.55,2.4,1.55-.94,1.55-2.4Z" fill="#fff"/><path d="M1385.5,117.35h2.04l.18,1.08h.06c.69-.7,1.45-1.29,2.56-1.29,1.19,0,1.9.51,2.33,1.42.74-.77,1.53-1.42,2.65-1.42,1.82,0,2.64,1.29,2.64,3.4v5.24h-2.5v-4.92c0-1.21-.33-1.59-1.04-1.59-.42,0-.9.26-1.44.82v5.69h-2.5v-4.92c0-1.21-.33-1.59-1.04-1.59-.42,0-.9.26-1.44.82v5.69h-2.5v-8.43Z" fill="#fff"/><path d="M1403.67,114.7h2.5v4.27h3.82v-4.27h2.5v11.08h-2.5v-4.62h-3.82v4.62h-2.5v-11.08Z" fill="#fff"/><path d="M1415.13,114.7h3.99c2.35,0,4.28.82,4.28,3.45s-1.93,3.64-4.28,3.64h-1.49v3.99h-2.5v-11.08ZM1418.92,119.81c1.32,0,2.03-.56,2.03-1.65s-.71-1.46-2.03-1.46h-1.28v3.11h1.28ZM1418.66,121.13l1.73-1.6,3.54,6.25h-2.8l-2.47-4.65Z" fill="#fff"/><rect x="66.26" y="329.86" width="56.7" height="27.96" rx="3.52" ry="3.52" fill="#223654"/><path d="M86.58,338.35h2.65v9.51h4.63v2.22h-7.29v-11.74Z" fill="#fff"/><path d="M95.77,347.95h2.5v-6.62h-2.14v-1.64c1.23-.23,2.04-.54,2.84-1.04h1.95v9.3h2.14v2.14h-7.29v-2.14Z" fill="#fff"/><rect x="821.19" y="329.86" width="56.7" height="27.96" rx="3.52" ry="3.52" fill="#223654"/><path d="M841.51,338.35h2.65v9.51h4.63v2.22h-7.29v-11.74Z" fill="#fff"/><path d="M850.12,348.57c2.91-2.75,4.96-4.7,4.96-6.34,0-1.11-.61-1.72-1.62-1.72-.81,0-1.46.56-2.03,1.16l-1.43-1.43c1.12-1.2,2.19-1.81,3.83-1.81,2.25,0,3.79,1.44,3.79,3.64,0,1.93-1.8,3.98-3.67,5.91.59-.07,1.38-.13,1.92-.13h2.3v2.22h-8.04v-1.52Z" fill="#fff"/><rect x="1285.47" y="374.87" width="152.81" height="29.06" rx="3.66" ry="3.66" fill="#223654"/><path d="M1294.31,384.1h6.94v2.1h-4.44v2.22h3.78v2.1h-3.78v2.55h4.61v2.1h-7.11v-11.08Z" fill="#fff"/><path d="M1303.41,386.74h2.04l.18,1.08h.06c.69-.7,1.45-1.29,2.56-1.29,1.19,0,1.9.51,2.33,1.42.74-.77,1.53-1.42,2.65-1.42,1.82,0,2.64,1.29,2.64,3.4v5.24h-2.5v-4.92c0-1.21-.33-1.59-1.04-1.59-.42,0-.9.26-1.44.82v5.69h-2.5v-4.92c0-1.21-.33-1.59-1.04-1.59-.42,0-.9.26-1.44.82v5.69h-2.5v-8.43Z" fill="#fff"/><path d="M1317.6,392.84c0-1.78,1.41-2.74,4.75-3.09-.05-.74-.42-1.22-1.33-1.22-.71,0-1.41.3-2.23.76l-.89-1.64c1.07-.65,2.28-1.11,3.6-1.11,2.16,0,3.35,1.23,3.35,3.82v4.82h-2.04l-.18-.86h-.06c-.71.62-1.51,1.07-2.45,1.07-1.54,0-2.51-1.12-2.51-2.54ZM1322.34,392.73v-1.47c-1.78.24-2.36.75-2.36,1.38,0,.54.37.81.97.81s.95-.28,1.39-.72Z" fill="#fff"/><path d="M1326.75,384.2c0-.77.61-1.31,1.45-1.31s1.45.54,1.45,1.31-.61,1.31-1.45,1.31-1.45-.55-1.45-1.31ZM1326.94,386.74h2.5v8.43h-2.5v-8.43Z" fill="#fff"/><path d="M1331.63,392.56v-9.29h2.5v9.39c0,.54.25.71.45.71.1,0,.16,0,.31-.03l.3,1.84c-.28.12-.69.21-1.25.21-1.71,0-2.3-1.12-2.3-2.82Z" fill="#fff"/><path d="M1342.17,384.1h3l3.48,11.08h-2.65l-1.45-5.61c-.31-1.11-.6-2.42-.9-3.57h-.07c-.27,1.17-.56,2.47-.87,3.57l-1.46,5.61h-2.56l3.48-11.08ZM1340.98,390.59h5.33v1.95h-5.33v-1.95Z" fill="#fff"/><path d="M1349.2,390.96c0-2.76,1.72-4.42,3.5-4.42.93,0,1.5.35,2.07.88l-.09-1.28v-2.87h2.5v11.91h-2.04l-.18-.84h-.06c-.6.6-1.43,1.04-2.24,1.04-2.1,0-3.45-1.66-3.45-4.42ZM1354.68,392.58v-3.46c-.44-.4-.94-.53-1.4-.53-.81,0-1.52.75-1.52,2.35s.57,2.4,1.54,2.4c.53,0,.96-.2,1.38-.76Z" fill="#fff"/><path d="M1359.38,386.74h2.04l.18,1.08h.06c.69-.7,1.45-1.29,2.56-1.29,1.19,0,1.9.51,2.33,1.42.74-.77,1.53-1.42,2.65-1.42,1.82,0,2.64,1.29,2.64,3.4v5.24h-2.5v-4.92c0-1.21-.33-1.59-1.04-1.59-.42,0-.9.26-1.44.82v5.69h-2.5v-4.92c0-1.21-.33-1.59-1.04-1.59-.42,0-.9.26-1.44.82v5.69h-2.5v-8.43Z" fill="#fff"/><path d="M1373.75,384.2c0-.77.61-1.31,1.45-1.31s1.45.54,1.45,1.31-.61,1.31-1.45,1.31-1.45-.55-1.45-1.31ZM1373.95,386.74h2.5v8.43h-2.5v-8.43Z" fill="#fff"/><path d="M1378.64,386.74h2.04l.18,1.07h.06c.71-.68,1.56-1.27,2.71-1.27,1.83,0,2.62,1.29,2.62,3.4v5.24h-2.5v-4.92c0-1.21-.33-1.59-1.05-1.59-.63,0-1.01.29-1.56.82v5.69h-2.5v-8.43Z" fill="#fff"/><path d="M1391.97,384.1h3.81c2.44,0,4.4.87,4.4,3.56s-1.99,3.76-4.34,3.76h-1.37v3.76h-2.5v-11.08ZM1395.7,389.43c1.38,0,2.03-.61,2.03-1.77s-.74-1.58-2.1-1.58h-1.15v3.34h1.22Z" fill="#fff"/><path d="M1400.93,392.84c0-1.78,1.41-2.74,4.75-3.09-.05-.74-.42-1.22-1.33-1.22-.71,0-1.41.3-2.23.76l-.89-1.64c1.07-.65,2.28-1.11,3.6-1.11,2.16,0,3.35,1.23,3.35,3.82v4.82h-2.04l-.18-.86h-.06c-.71.62-1.51,1.07-2.45,1.07-1.54,0-2.51-1.12-2.51-2.54ZM1405.68,392.73v-1.47c-1.78.24-2.36.75-2.36,1.38,0,.54.37.81.97.81s.95-.28,1.39-.72Z" fill="#fff"/><path d="M1410.27,386.74h2.04l.18,1.07h.06c.71-.68,1.56-1.27,2.71-1.27,1.83,0,2.62,1.29,2.62,3.4v5.24h-2.5v-4.92c0-1.21-.33-1.59-1.05-1.59-.63,0-1.01.29-1.56.82v5.69h-2.5v-8.43Z" fill="#fff"/><path d="M1419.51,390.96c0-2.74,1.95-4.42,3.98-4.42,2.4,0,3.59,1.75,3.59,4.05,0,.45-.06.9-.1,1.1h-5.04c.22,1.22,1.06,1.79,2.19,1.79.64,0,1.21-.19,1.82-.55l.83,1.51c-.86.6-1.99.95-2.99.95-2.4,0-4.27-1.63-4.27-4.42ZM1424.94,390.04c0-.93-.4-1.59-1.4-1.59-.79,0-1.47.53-1.64,1.59h3.04Z" fill="#fff"/><path d="M1428.8,392.56v-9.29h2.5v9.39c0,.54.25.71.45.71.1,0,.16,0,.31-.03l.3,1.84c-.28.12-.69.21-1.25.21-1.71,0-2.3-1.12-2.3-2.82Z" fill="#fff"/><rect x="1051.92" y="279.18" width="111.67" height="51.34" rx="5.37" ry="5.37" fill="#223654"/><path d="M1060.5,290.56h3.99c2.35,0,4.28.82,4.28,3.45s-1.93,3.64-4.28,3.64h-1.49v3.99h-2.5v-11.08ZM1064.29,295.66c1.32,0,2.03-.56,2.03-1.65s-.71-1.46-2.03-1.46h-1.28v3.11h1.28ZM1064.03,296.99l1.73-1.6,3.54,6.25h-2.8l-2.47-4.65Z" fill="#fff"/><path d="M1070.05,297.42c0-2.8,1.97-4.42,4.11-4.42s4.11,1.62,4.11,4.42-1.97,4.42-4.11,4.42-4.11-1.62-4.11-4.42ZM1075.71,297.42c0-1.46-.51-2.41-1.55-2.41s-1.55.95-1.55,2.41.51,2.4,1.55,2.4,1.55-.94,1.55-2.4Z" fill="#fff"/><path d="M1079.87,298.57v-3.41h-1.15v-1.86l1.29-.1.29-2.24h2.07v2.24h2.02v1.96h-2.02v3.38c0,.96.43,1.34,1.09,1.34.28,0,.58-.08.8-.16l.39,1.82c-.45.14-1.06.31-1.87.31-2.08,0-2.91-1.32-2.91-3.27Z" fill="#fff"/><path d="M1085.32,299.3c0-1.78,1.41-2.74,4.75-3.09-.05-.74-.42-1.22-1.33-1.22-.71,0-1.41.3-2.23.76l-.89-1.64c1.07-.65,2.28-1.11,3.6-1.11,2.16,0,3.35,1.23,3.35,3.82v4.82h-2.04l-.18-.86h-.06c-.71.62-1.51,1.07-2.45,1.07-1.54,0-2.51-1.12-2.51-2.54ZM1090.07,299.18v-1.47c-1.78.24-2.36.75-2.36,1.38,0,.54.37.81.97.81s.95-.28,1.39-.72Z" fill="#fff"/><path d="M1094.7,298.57v-3.41h-1.15v-1.86l1.29-.1.29-2.24h2.07v2.24h2.02v1.96h-2.02v3.38c0,.96.43,1.34,1.09,1.34.28,0,.58-.08.8-.16l.39,1.82c-.45.14-1.06.31-1.87.31-2.08,0-2.91-1.32-2.91-3.27Z" fill="#fff"/><path d="M1100.08,297.42c0-2.74,1.95-4.42,3.98-4.42,2.4,0,3.59,1.75,3.59,4.05,0,.45-.06.9-.1,1.1h-5.05c.22,1.22,1.06,1.79,2.19,1.79.64,0,1.21-.19,1.82-.55l.83,1.51c-.86.6-1.99.95-2.99.95-2.4,0-4.27-1.63-4.27-4.42ZM1105.51,296.5c0-.93-.4-1.59-1.4-1.59-.79,0-1.47.53-1.64,1.59h3.04Z" fill="#fff"/><path d="M1112.69,298.44v-5.24h2.5v4.92c0,1.21.33,1.59,1.05,1.59.63,0,1.01-.26,1.5-.93v-5.58h2.5v8.43h-2.04l-.18-1.17h-.06c-.7.84-1.5,1.37-2.65,1.37-1.83,0-2.62-1.29-2.62-3.4Z" fill="#fff"/><path d="M1121.68,300.66l1.12-1.56c.76.58,1.47.89,2.18.89.74,0,1.07-.28,1.07-.73,0-.56-.84-.81-1.7-1.15-1.03-.4-2.23-1.09-2.23-2.48,0-1.57,1.28-2.64,3.22-2.64,1.29,0,2.25.52,2.97,1.07l-1.12,1.5c-.6-.44-1.19-.72-1.78-.72-.65,0-.96.25-.96.67,0,.54.79.74,1.66,1.06,1.07.39,2.27,1,2.27,2.54s-1.2,2.72-3.46,2.72c-1.11,0-2.38-.48-3.24-1.18Z" fill="#fff"/><path d="M1129.47,297.42c0-2.74,1.95-4.42,3.98-4.42,2.4,0,3.59,1.75,3.59,4.05,0,.45-.06.9-.1,1.1h-5.05c.22,1.22,1.06,1.79,2.19,1.79.64,0,1.21-.19,1.82-.55l.83,1.51c-.86.6-1.99.95-2.99.95-2.4,0-4.27-1.63-4.27-4.42ZM1134.9,296.5c0-.93-.4-1.59-1.4-1.59-.79,0-1.47.53-1.64,1.59h3.04Z" fill="#fff"/><path d="M1138.76,293.2h2.04l.18,1.47h.06c.61-1.12,1.54-1.68,2.4-1.68.48,0,.76.06,1.01.17l-.42,2.16c-.3-.07-.55-.14-.91-.14-.64,0-1.41.41-1.86,1.56v4.89h-2.5v-8.43Z" fill="#fff"/><path d="M1145.48,294.56c1.02-.5,1.54-1.16,1.54-2.16l-.07-1.47.82,1.14c-.25.2-.57.36-.92.36-.72,0-1.31-.48-1.31-1.24,0-.85.55-1.39,1.31-1.39,1.05,0,1.6.82,1.6,2.22,0,1.6-.79,2.83-2.42,3.64l-.55-1.09Z" fill="#fff"/><path d="M1149.14,300.66l1.12-1.56c.76.58,1.47.89,2.18.89.74,0,1.07-.28,1.07-.73,0-.56-.84-.81-1.7-1.15-1.03-.4-2.23-1.09-2.23-2.48,0-1.57,1.28-2.64,3.22-2.64,1.29,0,2.25.52,2.97,1.07l-1.12,1.5c-.6-.44-1.19-.72-1.78-.72-.65,0-.96.25-.96.67,0,.54.79.74,1.66,1.06,1.07.39,2.27,1,2.27,2.54s-1.2,2.72-3.46,2.72c-1.11,0-2.38-.48-3.24-1.18Z" fill="#fff"/><path d="M1066.28,317.82c0-2.8,2.06-4.42,4.39-4.42,1.04,0,1.84.37,2.46.91l-1.18,1.61c-.4-.34-.74-.5-1.14-.5-1.2,0-1.97.95-1.97,2.41s.8,2.4,1.89,2.4c.55,0,1.08-.27,1.52-.62l.98,1.63c-.82.72-1.87,1-2.78,1-2.35,0-4.17-1.62-4.17-4.42Z" fill="#fff"/><path d="M1074.71,313.6h2.04l.18,1.47h.06c.61-1.12,1.54-1.68,2.4-1.68.48,0,.76.06,1.01.17l-.42,2.16c-.3-.07-.55-.14-.91-.14-.64,0-1.41.41-1.86,1.56v4.89h-2.5v-8.43Z" fill="#fff"/><path d="M1080.82,317.82c0-2.74,1.95-4.42,3.98-4.42,2.4,0,3.59,1.75,3.59,4.05,0,.45-.06.9-.1,1.1h-5.05c.22,1.22,1.06,1.79,2.19,1.79.64,0,1.21-.19,1.82-.55l.83,1.51c-.86.6-1.99.95-2.99.95-2.4,0-4.27-1.63-4.27-4.42ZM1086.25,316.9c0-.93-.4-1.59-1.4-1.59-.79,0-1.47.53-1.64,1.59h3.04Z" fill="#fff"/><path d="M1089.68,317.82c0-2.76,1.72-4.42,3.5-4.42.93,0,1.5.35,2.07.88l-.09-1.28v-2.87h2.5v11.91h-2.04l-.18-.84h-.06c-.6.6-1.43,1.04-2.24,1.04-2.1,0-3.45-1.66-3.45-4.42ZM1095.15,319.44v-3.46c-.44-.4-.94-.53-1.4-.53-.81,0-1.52.75-1.52,2.35s.57,2.4,1.54,2.4c.53,0,.96-.2,1.38-.76Z" fill="#fff"/><path d="M1099.36,317.82c0-2.74,1.95-4.42,3.98-4.42,2.4,0,3.59,1.75,3.59,4.05,0,.45-.06.9-.1,1.1h-5.04c.22,1.22,1.06,1.79,2.19,1.79.64,0,1.21-.19,1.82-.55l.83,1.51c-.86.6-1.99.95-2.99.95-2.4,0-4.27-1.63-4.27-4.42ZM1104.8,316.9c0-.93-.4-1.59-1.4-1.59-.79,0-1.47.53-1.64,1.59h3.04Z" fill="#fff"/><path d="M1108.66,313.6h2.04l.18,1.07h.06c.71-.68,1.56-1.27,2.71-1.27,1.83,0,2.62,1.29,2.62,3.4v5.24h-2.5v-4.92c0-1.21-.33-1.59-1.05-1.59-.63,0-1.01.29-1.56.82v5.69h-2.5v-8.43Z" fill="#fff"/><path d="M1118.72,318.97v-3.41h-1.15v-1.86l1.29-.1.29-2.24h2.07v2.24h2.02v1.96h-2.02v3.38c0,.96.43,1.34,1.09,1.34.28,0,.58-.08.8-.16l.39,1.82c-.45.14-1.06.31-1.87.31-2.08,0-2.91-1.32-2.91-3.27Z" fill="#fff"/><path d="M1124.7,311.06c0-.77.61-1.31,1.45-1.31s1.45.54,1.45,1.31-.61,1.31-1.45,1.31-1.45-.55-1.45-1.31ZM1124.89,313.6h2.5v8.43h-2.5v-8.43Z" fill="#fff"/><path d="M1129.2,319.7c0-1.78,1.41-2.74,4.75-3.09-.05-.74-.42-1.22-1.33-1.22-.71,0-1.41.3-2.23.76l-.89-1.64c1.07-.65,2.28-1.11,3.6-1.11,2.16,0,3.35,1.23,3.35,3.82v4.82h-2.04l-.18-.86h-.06c-.71.62-1.51,1.07-2.45,1.07-1.54,0-2.51-1.12-2.51-2.54ZM1133.95,319.58v-1.47c-1.78.24-2.36.75-2.36,1.38,0,.54.37.81.97.81s.95-.28,1.39-.72Z" fill="#fff"/><path d="M1138.54,319.41v-9.29h2.5v9.39c0,.54.25.71.45.71.1,0,.16,0,.31-.03l.3,1.84c-.28.12-.69.21-1.25.21-1.71,0-2.3-1.12-2.3-2.82Z" fill="#fff"/><path d="M1142.66,321.06l1.12-1.56c.76.58,1.47.89,2.18.89.74,0,1.07-.28,1.07-.73,0-.56-.84-.81-1.7-1.15-1.03-.4-2.23-1.09-2.23-2.48,0-1.57,1.28-2.64,3.22-2.64,1.29,0,2.25.52,2.97,1.07l-1.12,1.5c-.6-.44-1.19-.72-1.78-.72-.65,0-.96.25-.96.67,0,.54.79.74,1.66,1.06,1.07.39,2.27,1,2.27,2.54s-1.2,2.72-3.46,2.72c-1.11,0-2.38-.48-3.24-1.18Z" fill="#fff"/><rect x="189.3" y="68.06" width="554.89" height="52.03" rx="5.5" ry="5.5" fill="#223654"/><path d="M202.33,78.91h2.5v4.27h3.82v-4.27h2.5v11.08h-2.5v-4.62h-3.82v4.62h-2.5v-11.08Z" fill="#fff"/><path d="M213.09,85.78c0-2.74,1.95-4.42,3.98-4.42,2.4,0,3.59,1.75,3.59,4.05,0,.45-.06.9-.1,1.1h-5.04c.22,1.22,1.06,1.79,2.19,1.79.64,0,1.21-.19,1.82-.55l.83,1.51c-.86.6-1.99.95-2.99.95-2.4,0-4.27-1.63-4.27-4.42ZM218.53,84.85c0-.93-.4-1.59-1.4-1.59-.79,0-1.47.53-1.64,1.59h3.04Z" fill="#fff"/><path d="M222.03,93.12l.44-1.9c.16.04.39.11.57.11.82,0,1.26-.45,1.48-1.11l.13-.44-3.25-8.22h2.51l1.21,3.63c.24.76.44,1.56.67,2.39h.07c.19-.8.38-1.6.59-2.39l1.02-3.63h2.39l-2.93,8.53c-.8,2.11-1.7,3.21-3.68,3.21-.52,0-.86-.07-1.2-.17Z" fill="#fff"/><path d="M229.81,91.97c1.26-.44,1.92-1.23,1.91-2.11l-.04-1.67.82,1.4c-.25.21-.56.31-.91.31-.79,0-1.51-.51-1.51-1.42,0-.86.7-1.42,1.56-1.42,1.11,0,1.73.88,1.73,2.37,0,1.86-1.07,3.28-3.05,3.88l-.51-1.33Z" fill="#fff"/><path d="M238.83,78.91h2.73l1.8,4.92c.22.65.42,1.36.64,2.05h.07c.22-.68.41-1.39.63-2.05l1.74-4.92h2.73v11.08h-2.28v-4.07c0-1.08.2-2.69.32-3.76h-.07l-.91,2.62-1.57,4.24h-1.39l-1.57-4.24-.88-2.62h-.07c.12,1.07.32,2.68.32,3.76v4.07h-2.25v-11.08Z" fill="#fff"/><path d="M251.52,88.63c0-.89.64-1.58,1.51-1.58s1.51.69,1.51,1.58-.64,1.57-1.51,1.57-1.51-.69-1.51-1.57Z" fill="#fff"/><path d="M256.36,84.52c0-3.68,2.43-5.81,5.23-5.81,1.43,0,2.59.67,3.33,1.44l-1.32,1.61c-.56-.52-1.15-.88-1.96-.88-1.52,0-2.72,1.34-2.72,3.56s1.06,3.6,2.68,3.6c.91,0,1.63-.45,2.17-1.04l1.32,1.57c-.92,1.07-2.14,1.63-3.58,1.63-2.81,0-5.16-1.95-5.16-5.68Z" fill="#fff"/><path d="M266.57,87.37v-9.29h2.5v9.39c0,.54.25.71.45.71.1,0,.16,0,.31-.03l.3,1.84c-.28.12-.69.21-1.25.21-1.71,0-2.3-1.12-2.3-2.83Z" fill="#fff"/><path d="M271.04,87.65c0-1.78,1.41-2.74,4.75-3.09-.05-.74-.42-1.22-1.33-1.22-.71,0-1.41.3-2.23.76l-.89-1.64c1.07-.65,2.28-1.11,3.6-1.11,2.16,0,3.35,1.23,3.35,3.82v4.82h-2.04l-.18-.86h-.06c-.71.62-1.51,1.07-2.45,1.07-1.54,0-2.51-1.12-2.51-2.54ZM275.79,87.54v-1.47c-1.78.24-2.36.75-2.36,1.38,0,.54.37.81.97.81s.95-.28,1.39-.72Z" fill="#fff"/><path d="M280.39,81.56h2.04l.18,1.47h.06c.61-1.12,1.54-1.68,2.4-1.68.48,0,.76.06,1.01.17l-.42,2.16c-.3-.07-.55-.14-.91-.14-.64,0-1.41.41-1.86,1.56v4.89h-2.5v-8.43Z" fill="#fff"/><path d="M287.16,78.08h2.44v6.82h.06l2.67-3.35h2.71l-2.95,3.48,3.18,4.96h-2.71l-1.9-3.29-1.07,1.21v2.08h-2.44v-11.91Z" fill="#fff"/><path d="M299.18,81.65l1.26-.1h3.88v1.96h-5.14v-1.86ZM300.3,81.12c0-1.78.83-3.24,3.1-3.24.7,0,1.31.16,1.68.3l-.45,1.84c-.28-.11-.6-.18-.87-.18-.61,0-.96.34-.96,1.21v8.94h-2.5v-8.87Z" fill="#fff"/><path d="M305.67,81.56h2.04l.18,1.47h.06c.61-1.12,1.54-1.68,2.4-1.68.48,0,.76.06,1.01.17l-.42,2.16c-.3-.07-.55-.14-.91-.14-.64,0-1.41.41-1.86,1.56v4.89h-2.5v-8.43Z" fill="#fff"/><path d="M311.77,85.78c0-2.8,1.97-4.42,4.11-4.42s4.11,1.62,4.11,4.42-1.97,4.42-4.11,4.42-4.11-1.62-4.11-4.42ZM317.43,85.78c0-1.46-.51-2.41-1.55-2.41s-1.55.95-1.55,2.41.51,2.4,1.55,2.4,1.55-.94,1.55-2.4Z" fill="#fff"/><path d="M321.7,81.56h2.04l.18,1.08h.06c.69-.7,1.45-1.29,2.56-1.29,1.19,0,1.9.51,2.33,1.42.74-.77,1.53-1.42,2.65-1.42,1.82,0,2.64,1.29,2.64,3.4v5.24h-2.5v-4.92c0-1.21-.33-1.59-1.04-1.59-.42,0-.9.26-1.44.82v5.69h-2.5v-4.92c0-1.21-.33-1.59-1.04-1.59-.42,0-.9.26-1.44.82v5.69h-2.5v-8.43Z" fill="#fff"/><path d="M339.88,78.91h2.5v4.27h3.82v-4.27h2.5v11.08h-2.5v-4.62h-3.82v4.62h-2.5v-11.08Z" fill="#fff"/><path d="M351.33,78.91h3.99c2.35,0,4.28.82,4.28,3.45s-1.93,3.64-4.28,3.64h-1.49v3.99h-2.5v-11.08ZM355.12,84.02c1.32,0,2.03-.56,2.03-1.65s-.71-1.46-2.03-1.46h-1.28v3.11h1.28ZM354.87,85.34l1.73-1.6,3.54,6.25h-2.8l-2.47-4.65Z" fill="#fff"/><path d="M364.43,91.44c0-.7.42-1.27,1.2-1.7v-.07c-.44-.29-.77-.74-.77-1.43,0-.61.4-1.2.94-1.58v-.07c-.59-.41-1.13-1.2-1.13-2.19,0-2.02,1.67-3.05,3.49-3.05.47,0,.93.07,1.31.2h3.08v1.82h-1.36c.16.25.29.67.29,1.11,0,1.94-1.48,2.83-3.32,2.83-.31,0-.66-.05-1.03-.16-.21.18-.29.33-.29.63,0,.42.34.62,1.26.62h1.37c2.07,0,3.22.63,3.22,2.14,0,1.75-1.83,3.03-4.72,3.03-1.96,0-3.53-.64-3.53-2.14ZM370.28,90.98c0-.53-.46-.65-1.29-.65h-.88c-.58,0-.91-.03-1.18-.11-.31.26-.46.52-.46.83,0,.64.74.97,1.87.97s1.93-.45,1.93-1.03ZM369.3,84.41c0-.9-.49-1.37-1.15-1.37s-1.15.47-1.15,1.37.49,1.41,1.15,1.41,1.15-.48,1.15-1.41Z" fill="#fff"/><path d="M373.23,85.78c0-2.8,1.97-4.42,4.11-4.42s4.11,1.62,4.11,4.42-1.97,4.42-4.11,4.42-4.11-1.62-4.11-4.42ZM378.88,85.78c0-1.46-.51-2.41-1.55-2.41s-1.55.95-1.55,2.41.51,2.4,1.55,2.4,1.55-.94,1.55-2.4Z" fill="#fff"/><path d="M383.05,86.93v-3.41h-1.15v-1.86l1.29-.1.29-2.24h2.07v2.24h2.02v1.96h-2.02v3.38c0,.96.43,1.34,1.09,1.34.28,0,.58-.08.8-.16l.39,1.81c-.45.14-1.06.31-1.87.31-2.08,0-2.91-1.32-2.91-3.27Z" fill="#fff"/><path d="M392.62,81.56h2.04l.18.83h.06c.66-.59,1.52-1.03,2.4-1.03,2.04,0,3.29,1.69,3.29,4.29,0,2.89-1.72,4.55-3.55,4.55-.73,0-1.41-.32-2.01-.88l.08,1.33v2.47h-2.5v-11.56ZM398.04,85.67c0-1.51-.47-2.27-1.47-2.27-.51,0-.96.23-1.45.76v3.46c.45.4.92.53,1.35.53.87,0,1.57-.74,1.57-2.48Z" fill="#fff"/><path d="M402.23,78.08h2.5v2.91l-.11,1.53c.63-.58,1.45-1.17,2.6-1.17,1.83,0,2.62,1.29,2.62,3.4v5.24h-2.5v-4.92c0-1.21-.33-1.59-1.05-1.59-.63,0-1.01.29-1.56.82v5.69h-2.5v-11.91Z" fill="#fff"/><path d="M411.74,79.02c0-.77.61-1.31,1.45-1.31s1.45.54,1.45,1.31-.61,1.31-1.45,1.31-1.45-.55-1.45-1.31ZM411.94,81.56h2.5v8.43h-2.5v-8.43Z" fill="#fff"/><path d="M415.88,89.02l1.12-1.56c.76.58,1.47.89,2.18.89.74,0,1.07-.28,1.07-.73,0-.56-.84-.81-1.7-1.15-1.03-.4-2.23-1.09-2.23-2.48,0-1.57,1.28-2.64,3.22-2.64,1.29,0,2.25.52,2.97,1.07l-1.12,1.5c-.6-.44-1.19-.72-1.78-.72-.65,0-.96.25-.96.67,0,.54.79.74,1.66,1.06,1.07.39,2.27,1,2.27,2.54s-1.2,2.72-3.46,2.72c-1.11,0-2.38-.48-3.24-1.18Z" fill="#fff"/><path d="M424.16,78.08h2.5v2.91l-.11,1.53c.63-.58,1.45-1.17,2.6-1.17,1.83,0,2.62,1.29,2.62,3.4v5.24h-2.5v-4.92c0-1.21-.33-1.59-1.05-1.59-.63,0-1.01.29-1.56.82v5.69h-2.5v-11.91Z" fill="#fff"/><path d="M433.37,85.78c0-2.74,1.95-4.42,3.98-4.42,2.4,0,3.59,1.75,3.59,4.05,0,.45-.06.9-.1,1.1h-5.04c.22,1.22,1.06,1.79,2.19,1.79.64,0,1.21-.19,1.82-.55l.83,1.51c-.86.6-1.99.95-2.99.95-2.4,0-4.27-1.63-4.27-4.42ZM438.81,84.85c0-.93-.4-1.59-1.4-1.59-.79,0-1.47.53-1.64,1.59h3.04Z" fill="#fff"/><path d="M442.24,85.78c0-2.76,1.72-4.42,3.5-4.42.93,0,1.5.35,2.07.88l-.09-1.28v-2.87h2.5v11.91h-2.04l-.18-.84h-.06c-.6.6-1.43,1.04-2.24,1.04-2.1,0-3.45-1.66-3.45-4.42ZM447.71,87.4v-3.46c-.44-.4-.94-.53-1.4-.53-.81,0-1.52.75-1.52,2.35s.57,2.4,1.54,2.4c.53,0,.96-.2,1.38-.75Z" fill="#fff"/><path d="M455.42,87.65c0-1.78,1.41-2.74,4.75-3.09-.05-.74-.42-1.22-1.33-1.22-.71,0-1.41.3-2.23.76l-.89-1.64c1.07-.65,2.28-1.11,3.6-1.11,2.16,0,3.35,1.23,3.35,3.82v4.82h-2.04l-.18-.86h-.06c-.71.62-1.51,1.07-2.45,1.07-1.54,0-2.51-1.12-2.51-2.54ZM460.17,87.54v-1.47c-1.78.24-2.36.75-2.36,1.38,0,.54.37.81.97.81s.95-.28,1.39-.72Z" fill="#fff"/><path d="M464.25,91.44c0-.7.42-1.27,1.2-1.7v-.07c-.44-.29-.77-.74-.77-1.43,0-.61.4-1.2.94-1.58v-.07c-.59-.41-1.13-1.2-1.13-2.19,0-2.02,1.67-3.05,3.49-3.05.47,0,.93.07,1.31.2h3.08v1.82h-1.36c.16.25.29.67.29,1.11,0,1.94-1.48,2.83-3.32,2.83-.31,0-.66-.05-1.03-.16-.21.18-.29.33-.29.63,0,.42.34.62,1.26.62h1.37c2.07,0,3.22.63,3.22,2.14,0,1.75-1.83,3.03-4.72,3.03-1.96,0-3.53-.64-3.53-2.14ZM470.11,90.98c0-.53-.46-.65-1.29-.65h-.88c-.58,0-.91-.03-1.18-.11-.31.26-.46.52-.46.83,0,.64.74.97,1.87.97s1.93-.45,1.93-1.03ZM469.13,84.41c0-.9-.49-1.37-1.15-1.37s-1.15.47-1.15,1.37.49,1.41,1.15,1.41,1.15-.48,1.15-1.41Z" fill="#fff"/><path d="M473.14,87.65c0-1.78,1.41-2.74,4.75-3.09-.05-.74-.42-1.22-1.33-1.22-.71,0-1.41.3-2.23.76l-.89-1.64c1.07-.65,2.28-1.11,3.6-1.11,2.16,0,3.35,1.23,3.35,3.82v4.82h-2.04l-.18-.86h-.06c-.71.62-1.51,1.07-2.45,1.07-1.54,0-2.51-1.12-2.51-2.54ZM477.89,87.54v-1.47c-1.78.24-2.36.75-2.36,1.38,0,.54.37.81.97.81s.95-.28,1.39-.72Z" fill="#fff"/><path d="M482.29,79.02c0-.77.61-1.31,1.45-1.31s1.45.54,1.45,1.31-.61,1.31-1.45,1.31-1.45-.55-1.45-1.31ZM482.49,81.56h2.5v8.43h-2.5v-8.43Z" fill="#fff"/><path d="M487.18,81.56h2.04l.18,1.07h.06c.71-.68,1.56-1.27,2.71-1.27,1.83,0,2.62,1.29,2.62,3.4v5.24h-2.5v-4.92c0-1.21-.33-1.59-1.05-1.59-.63,0-1.01.29-1.56.82v5.69h-2.5v-8.43Z" fill="#fff"/><path d="M499.91,87.65c0-1.78,1.41-2.74,4.75-3.09-.05-.74-.42-1.22-1.33-1.22-.71,0-1.41.3-2.23.76l-.89-1.64c1.07-.65,2.28-1.11,3.6-1.11,2.16,0,3.35,1.23,3.35,3.82v4.82h-2.04l-.18-.86h-.06c-.71.62-1.51,1.07-2.45,1.07-1.54,0-2.51-1.12-2.51-2.54ZM504.66,87.54v-1.47c-1.78.24-2.36.75-2.36,1.38,0,.54.37.81.97.81s.95-.28,1.39-.72Z" fill="#fff"/><path d="M509.26,81.56h2.04l.18,1.07h.06c.71-.68,1.56-1.27,2.71-1.27,1.83,0,2.62,1.29,2.62,3.4v5.24h-2.5v-4.92c0-1.21-.33-1.59-1.05-1.59-.63,0-1.01.29-1.56.82v5.69h-2.5v-8.43Z" fill="#fff"/><path d="M518.55,85.78c0-2.76,1.72-4.42,3.5-4.42.93,0,1.5.35,2.07.88l-.09-1.28v-2.87h2.5v11.91h-2.04l-.18-.84h-.06c-.6.6-1.43,1.04-2.24,1.04-2.1,0-3.45-1.66-3.45-4.42ZM524.02,87.4v-3.46c-.44-.4-.94-.53-1.4-.53-.81,0-1.52.75-1.52,2.35s.57,2.4,1.54,2.4c.53,0,.96-.2,1.38-.75Z" fill="#fff"/><path d="M531.63,85.78c0-2.74,1.95-4.42,3.98-4.42,2.4,0,3.59,1.75,3.59,4.05,0,.45-.06.9-.1,1.1h-5.04c.22,1.22,1.06,1.79,2.19,1.79.64,0,1.21-.19,1.82-.55l.83,1.51c-.86.6-1.99.95-2.99.95-2.4,0-4.27-1.63-4.27-4.42ZM537.07,84.85c0-.93-.4-1.59-1.4-1.59-.79,0-1.47.53-1.64,1.59h3.04Z" fill="#fff"/><path d="M540.93,81.56h2.04l.18,1.07h.06c.71-.68,1.56-1.27,2.71-1.27,1.83,0,2.62,1.29,2.62,3.4v5.24h-2.5v-4.92c0-1.21-.33-1.59-1.05-1.59-.63,0-1.01.29-1.56.82v5.69h-2.5v-8.43Z" fill="#fff"/><path d="M550.99,86.93v-3.41h-1.15v-1.86l1.29-.1.29-2.24h2.07v2.24h2.02v1.96h-2.02v3.38c0,.96.43,1.34,1.09,1.34.28,0,.58-.08.8-.16l.39,1.81c-.45.14-1.06.31-1.87.31-2.08,0-2.91-1.32-2.91-3.27Z" fill="#fff"/><path d="M556.37,85.78c0-2.74,1.95-4.42,3.98-4.42,2.4,0,3.59,1.75,3.59,4.05,0,.45-.06.9-.1,1.1h-5.05c.22,1.22,1.06,1.79,2.19,1.79.64,0,1.21-.19,1.82-.55l.83,1.51c-.86.6-1.99.95-2.99.95-2.4,0-4.27-1.63-4.27-4.42ZM561.8,84.85c0-.93-.4-1.59-1.4-1.59-.79,0-1.47.53-1.64,1.59h3.04Z" fill="#fff"/><path d="M565.66,81.56h2.04l.18,1.47h.06c.61-1.12,1.54-1.68,2.4-1.68.48,0,.76.06,1.01.17l-.42,2.16c-.3-.07-.55-.14-.91-.14-.64,0-1.41.41-1.86,1.56v4.89h-2.5v-8.43Z" fill="#fff"/><path d="M571.77,85.78c0-2.74,1.95-4.42,3.98-4.42,2.4,0,3.59,1.75,3.59,4.05,0,.45-.06.9-.1,1.1h-5.04c.22,1.22,1.06,1.79,2.19,1.79.64,0,1.21-.19,1.82-.55l.83,1.51c-.86.6-1.99.95-2.99.95-2.4,0-4.27-1.63-4.27-4.42ZM577.21,84.85c0-.93-.4-1.59-1.4-1.59-.79,0-1.47.53-1.64,1.59h3.04Z" fill="#fff"/><path d="M580.63,85.78c0-2.76,1.72-4.42,3.5-4.42.93,0,1.5.35,2.07.88l-.09-1.28v-2.87h2.5v11.91h-2.04l-.18-.84h-.06c-.6.6-1.43,1.04-2.24,1.04-2.1,0-3.45-1.66-3.45-4.42ZM586.11,87.4v-3.46c-.44-.4-.94-.53-1.4-.53-.81,0-1.52.75-1.52,2.35s.57,2.4,1.54,2.4c.53,0,.96-.2,1.38-.75Z" fill="#fff"/><path d="M594.21,78.08h2.5v2.91l-.11,1.53c.63-.58,1.45-1.17,2.6-1.17,1.83,0,2.62,1.29,2.62,3.4v5.24h-2.5v-4.92c0-1.21-.33-1.59-1.05-1.59-.63,0-1.01.29-1.56.82v5.69h-2.5v-11.91Z" fill="#fff"/><path d="M603.42,85.78c0-2.74,1.95-4.42,3.98-4.42,2.4,0,3.59,1.75,3.59,4.05,0,.45-.06.9-.1,1.1h-5.05c.22,1.22,1.06,1.79,2.19,1.79.64,0,1.21-.19,1.82-.55l.83,1.51c-.86.6-1.99.95-2.99.95-2.4,0-4.27-1.63-4.27-4.42ZM608.86,84.85c0-.93-.4-1.59-1.4-1.59-.79,0-1.47.53-1.64,1.59h3.04Z" fill="#fff"/><path d="M612.72,81.56h2.04l.18,1.47h.06c.61-1.12,1.54-1.68,2.4-1.68.48,0,.76.06,1.01.17l-.42,2.16c-.3-.07-.55-.14-.91-.14-.64,0-1.41.41-1.86,1.56v4.89h-2.5v-8.43Z" fill="#fff"/><path d="M622.88,81.56h2.04l.18.83h.06c.66-.59,1.52-1.03,2.4-1.03,2.04,0,3.29,1.69,3.29,4.29,0,2.89-1.72,4.55-3.55,4.55-.73,0-1.41-.32-2.01-.88l.08,1.33v2.47h-2.5v-11.56ZM628.3,85.67c0-1.51-.47-2.27-1.46-2.27-.51,0-.96.23-1.45.76v3.46c.45.4.92.53,1.35.53.87,0,1.57-.74,1.57-2.48Z" fill="#fff"/><path d="M632.05,87.65c0-1.78,1.41-2.74,4.75-3.09-.05-.74-.42-1.22-1.33-1.22-.71,0-1.41.3-2.23.76l-.89-1.64c1.07-.65,2.28-1.11,3.6-1.11,2.16,0,3.35,1.23,3.35,3.82v4.82h-2.04l-.18-.86h-.06c-.71.62-1.51,1.07-2.45,1.07-1.54,0-2.51-1.12-2.51-2.54ZM636.8,87.54v-1.47c-1.78.24-2.36.75-2.36,1.38,0,.54.37.81.97.81s.95-.28,1.39-.72Z" fill="#fff"/><path d="M640.65,89.02l1.12-1.56c.76.58,1.47.89,2.18.89.74,0,1.07-.28,1.07-.73,0-.56-.84-.81-1.7-1.15-1.03-.4-2.23-1.09-2.23-2.48,0-1.57,1.28-2.64,3.22-2.64,1.29,0,2.25.52,2.97,1.07l-1.12,1.5c-.6-.44-1.19-.72-1.78-.72-.65,0-.96.25-.96.67,0,.54.79.74,1.66,1.06,1.07.39,2.27,1,2.27,2.54s-1.2,2.72-3.46,2.72c-1.11,0-2.38-.48-3.24-1.18Z" fill="#fff"/><path d="M648.18,89.02l1.12-1.56c.76.58,1.47.89,2.18.89.74,0,1.07-.28,1.07-.73,0-.56-.84-.81-1.7-1.15-1.03-.4-2.23-1.09-2.23-2.48,0-1.57,1.28-2.64,3.22-2.64,1.29,0,2.25.52,2.97,1.07l-1.12,1.5c-.6-.44-1.19-.72-1.78-.72-.65,0-.96.25-.96.67,0,.54.79.74,1.66,1.06,1.07.39,2.27,1,2.27,2.54s-1.2,2.72-3.46,2.72c-1.11,0-2.38-.48-3.24-1.18Z" fill="#fff"/><path d="M655.77,81.56h2.48l.81,3.91c.15.83.24,1.65.38,2.51h.07c.15-.85.3-1.7.5-2.51l.92-3.91h2.17l.95,3.91c.2.83.35,1.65.53,2.51h.07c.15-.85.24-1.67.39-2.51l.8-3.91h2.31l-2.02,8.43h-2.93l-.77-3.37c-.15-.78-.3-1.56-.45-2.47h-.07c-.15.91-.27,1.69-.43,2.47l-.74,3.36h-2.86l-2.11-8.43Z" fill="#fff"/><path d="M669.03,85.78c0-2.8,1.97-4.42,4.11-4.42s4.11,1.62,4.11,4.42-1.97,4.42-4.11,4.42-4.11-1.62-4.11-4.42ZM674.68,85.78c0-1.46-.51-2.41-1.55-2.41s-1.55.95-1.55,2.41.51,2.4,1.55,2.4,1.55-.94,1.55-2.4Z" fill="#fff"/><path d="M678.95,81.56h2.04l.18,1.47h.06c.61-1.12,1.54-1.68,2.4-1.68.48,0,.76.06,1.01.17l-.42,2.16c-.3-.07-.55-.14-.91-.14-.64,0-1.41.41-1.86,1.56v4.89h-2.5v-8.43Z" fill="#fff"/><path d="M685.11,85.78c0-2.76,1.72-4.42,3.5-4.42.93,0,1.5.35,2.07.88l-.09-1.28v-2.87h2.5v11.91h-2.04l-.18-.84h-.06c-.6.6-1.43,1.04-2.24,1.04-2.1,0-3.45-1.66-3.45-4.42ZM690.59,87.4v-3.46c-.44-.4-.94-.53-1.4-.53-.81,0-1.52.75-1.52,2.35s.57,2.4,1.54,2.4c.53,0,.96-.2,1.38-.75Z" fill="#fff"/><path d="M698.49,79.02c0-.77.61-1.31,1.45-1.31s1.45.54,1.45,1.31-.61,1.31-1.45,1.31-1.45-.55-1.45-1.31ZM698.69,81.56h2.5v8.43h-2.5v-8.43Z" fill="#fff"/><path d="M703.38,81.56h2.04l.18,1.07h.06c.71-.68,1.56-1.27,2.71-1.27,1.83,0,2.62,1.29,2.62,3.4v5.24h-2.5v-4.92c0-1.21-.33-1.59-1.05-1.59-.63,0-1.01.29-1.56.82v5.69h-2.5v-8.43Z" fill="#fff"/><path d="M713.44,86.93v-3.41h-1.15v-1.86l1.29-.1.29-2.24h2.07v2.24h2.02v1.96h-2.02v3.38c0,.96.43,1.34,1.09,1.34.28,0,.58-.08.8-.16l.39,1.81c-.45.14-1.06.31-1.87.31-2.08,0-2.91-1.32-2.91-3.27Z" fill="#fff"/><path d="M718.82,85.78c0-2.8,1.97-4.42,4.11-4.42s4.11,1.62,4.11,4.42-1.97,4.42-4.11,4.42-4.11-1.62-4.11-4.42ZM724.47,85.78c0-1.46-.51-2.41-1.55-2.41s-1.55.95-1.55,2.41.51,2.4,1.55,2.4,1.55-.94,1.55-2.4Z" fill="#fff"/><path d="M201.35,108.05c0-1.78,1.41-2.74,4.75-3.09-.05-.74-.42-1.22-1.33-1.22-.71,0-1.41.3-2.23.76l-.89-1.64c1.07-.65,2.28-1.11,3.6-1.11,2.16,0,3.35,1.23,3.35,3.82v4.82h-2.04l-.18-.86h-.06c-.71.62-1.51,1.07-2.45,1.07-1.54,0-2.51-1.12-2.51-2.54ZM206.1,107.94v-1.47c-1.78.24-2.36.75-2.36,1.38,0,.54.37.81.97.81s.95-.28,1.39-.72Z" fill="#fff"/><path d="M213.41,102.05l1.26-.1h3.88v1.96h-5.14v-1.86ZM214.53,101.52c0-1.78.83-3.24,3.1-3.24.7,0,1.31.16,1.68.3l-.45,1.84c-.28-.11-.6-.18-.87-.18-.61,0-.96.34-.96,1.21v8.94h-2.5v-8.87Z" fill="#fff"/><path d="M219.17,108.05c0-1.78,1.41-2.74,4.75-3.09-.05-.74-.42-1.22-1.33-1.22-.71,0-1.41.3-2.23.76l-.89-1.64c1.07-.65,2.28-1.11,3.6-1.11,2.16,0,3.35,1.23,3.35,3.82v4.82h-2.04l-.18-.86h-.06c-.71.62-1.51,1.07-2.45,1.07-1.54,0-2.51-1.12-2.51-2.54ZM223.92,107.94v-1.47c-1.78.24-2.36.75-2.36,1.38,0,.54.37.81.97.81s.95-.28,1.39-.72Z" fill="#fff"/><path d="M228.52,98.48h2.44v6.82h.06l2.67-3.35h2.71l-2.95,3.48,3.18,4.96h-2.71l-1.9-3.29-1.07,1.21v2.08h-2.44v-11.91Z" fill="#fff"/><path d="M236.87,106.18c0-2.74,1.95-4.42,3.98-4.42,2.4,0,3.59,1.75,3.59,4.05,0,.45-.06.9-.1,1.1h-5.04c.22,1.22,1.06,1.79,2.19,1.79.64,0,1.21-.19,1.82-.55l.83,1.51c-.86.6-1.99.95-2.99.95-2.4,0-4.27-1.63-4.27-4.42ZM242.3,105.25c0-.93-.4-1.59-1.4-1.59-.79,0-1.47.53-1.64,1.59h3.04Z" fill="#fff"/><path d="M249.56,107.77v-9.29h2.5v9.39c0,.54.25.71.45.71.1,0,.16,0,.31-.03l.3,1.84c-.28.12-.69.21-1.25.21-1.71,0-2.3-1.12-2.3-2.82Z" fill="#fff"/><path d="M253.93,106.18c0-2.8,1.97-4.42,4.11-4.42s4.11,1.62,4.11,4.42-1.97,4.42-4.11,4.42-4.11-1.62-4.11-4.42ZM259.59,106.18c0-1.46-.51-2.41-1.55-2.41s-1.55.95-1.55,2.41.51,2.4,1.55,2.4,1.55-.94,1.55-2.4Z" fill="#fff"/><path d="M263.34,111.84c0-.7.42-1.27,1.2-1.7v-.07c-.44-.29-.77-.74-.77-1.43,0-.61.4-1.2.94-1.58v-.07c-.59-.41-1.13-1.2-1.13-2.19,0-2.02,1.67-3.05,3.49-3.05.47,0,.93.07,1.31.2h3.08v1.82h-1.36c.16.25.29.67.29,1.11,0,1.94-1.48,2.83-3.32,2.83-.31,0-.66-.05-1.03-.16-.21.18-.29.33-.29.63,0,.42.34.62,1.26.62h1.37c2.07,0,3.22.63,3.22,2.14,0,1.75-1.83,3.03-4.72,3.03-1.96,0-3.53-.64-3.53-2.14ZM269.2,111.37c0-.53-.46-.65-1.29-.65h-.88c-.58,0-.91-.03-1.18-.11-.31.26-.46.52-.46.83,0,.64.74.97,1.87.97s1.93-.45,1.93-1.03ZM268.21,104.81c0-.9-.49-1.37-1.15-1.37s-1.15.47-1.15,1.37.49,1.41,1.15,1.41,1.15-.48,1.15-1.41Z" fill="#fff"/><path d="M272.74,99.42c0-.77.61-1.31,1.45-1.31s1.45.54,1.45,1.31-.61,1.31-1.45,1.31-1.45-.55-1.45-1.31ZM272.94,101.96h2.5v8.43h-2.5v-8.43Z" fill="#fff"/><path d="M277.63,101.96h2.04l.18,1.07h.06c.71-.68,1.56-1.27,2.71-1.27,1.83,0,2.62,1.29,2.62,3.4v5.24h-2.5v-4.92c0-1.21-.33-1.59-1.05-1.59-.63,0-1.01.29-1.56.82v5.69h-2.5v-8.43Z" fill="#fff"/><path d="M290.75,101.96h2.04l.18.83h.06c.66-.59,1.52-1.03,2.4-1.03,2.04,0,3.29,1.69,3.29,4.29,0,2.89-1.72,4.55-3.55,4.55-.73,0-1.41-.32-2.01-.88l.08,1.33v2.47h-2.5v-11.56ZM296.16,106.07c0-1.51-.47-2.27-1.46-2.27-.51,0-.96.23-1.45.76v3.46c.45.4.92.53,1.35.53.87,0,1.57-.74,1.57-2.48Z" fill="#fff"/><path d="M299.92,108.05c0-1.78,1.41-2.74,4.75-3.09-.05-.74-.42-1.22-1.33-1.22-.71,0-1.41.3-2.23.76l-.89-1.64c1.07-.65,2.28-1.11,3.6-1.11,2.16,0,3.35,1.23,3.35,3.82v4.82h-2.04l-.18-.86h-.06c-.71.62-1.51,1.07-2.45,1.07-1.54,0-2.51-1.12-2.51-2.54ZM304.67,107.94v-1.47c-1.78.24-2.36.75-2.36,1.38,0,.54.37.81.97.81s.95-.28,1.39-.72Z" fill="#fff"/><path d="M308.75,111.84c0-.7.42-1.27,1.2-1.7v-.07c-.44-.29-.77-.74-.77-1.43,0-.61.4-1.2.94-1.58v-.07c-.59-.41-1.13-1.2-1.13-2.19,0-2.02,1.67-3.05,3.49-3.05.47,0,.93.07,1.31.2h3.08v1.82h-1.36c.16.25.29.67.29,1.11,0,1.94-1.48,2.83-3.32,2.83-.31,0-.66-.05-1.03-.16-.21.18-.29.33-.29.63,0,.42.34.62,1.26.62h1.37c2.07,0,3.22.63,3.22,2.14,0,1.75-1.83,3.03-4.72,3.03-1.96,0-3.53-.64-3.53-2.14ZM314.6,111.37c0-.53-.46-.65-1.29-.65h-.88c-.58,0-.91-.03-1.18-.11-.31.26-.46.52-.46.83,0,.64.74.97,1.87.97s1.93-.45,1.93-1.03ZM313.62,104.81c0-.9-.49-1.37-1.15-1.37s-1.15.47-1.15,1.37.49,1.41,1.15,1.41,1.15-.48,1.15-1.41Z" fill="#fff"/><path d="M317.55,106.18c0-2.74,1.95-4.42,3.98-4.42,2.4,0,3.59,1.75,3.59,4.05,0,.45-.06.9-.1,1.1h-5.05c.22,1.22,1.06,1.79,2.19,1.79.64,0,1.21-.19,1.82-.55l.83,1.51c-.86.6-1.99.95-2.99.95-2.4,0-4.27-1.63-4.27-4.42ZM322.98,105.25c0-.93-.4-1.59-1.4-1.59-.79,0-1.47.53-1.64,1.59h3.04Z" fill="#fff"/><path d="M326.53,112.36c1.26-.44,1.92-1.23,1.91-2.11l-.04-1.67.82,1.4c-.25.21-.56.31-.91.31-.79,0-1.51-.51-1.51-1.42,0-.86.7-1.42,1.56-1.42,1.11,0,1.73.88,1.73,2.37,0,1.86-1.07,3.28-3.05,3.88l-.51-1.33Z" fill="#fff"/><path d="M335.34,101.96h2.04l.18,1.08h.06c.69-.7,1.45-1.29,2.56-1.29,1.19,0,1.9.51,2.33,1.42.74-.77,1.53-1.42,2.65-1.42,1.82,0,2.64,1.29,2.64,3.4v5.24h-2.5v-4.92c0-1.21-.33-1.59-1.04-1.59-.42,0-.9.26-1.44.82v5.69h-2.5v-4.92c0-1.21-.33-1.59-1.04-1.59-.42,0-.9.26-1.44.82v5.69h-2.5v-8.43Z" fill="#fff"/><path d="M349.72,99.42c0-.77.61-1.31,1.45-1.31s1.45.54,1.45,1.31-.61,1.31-1.45,1.31-1.45-.55-1.45-1.31ZM349.91,101.96h2.5v8.43h-2.5v-8.43Z" fill="#fff"/><path d="M354.08,111.84c0-.7.42-1.27,1.2-1.7v-.07c-.44-.29-.77-.74-.77-1.43,0-.61.4-1.2.94-1.58v-.07c-.59-.41-1.13-1.2-1.13-2.19,0-2.02,1.67-3.05,3.49-3.05.47,0,.93.07,1.31.2h3.08v1.82h-1.36c.16.25.29.67.29,1.11,0,1.94-1.48,2.83-3.32,2.83-.31,0-.66-.05-1.03-.16-.21.18-.29.33-.29.63,0,.42.34.62,1.26.62h1.37c2.07,0,3.22.63,3.22,2.14,0,1.75-1.83,3.03-4.72,3.03-1.96,0-3.53-.64-3.53-2.14ZM359.94,111.37c0-.53-.46-.65-1.29-.65h-.88c-.58,0-.91-.03-1.18-.11-.31.26-.46.52-.46.83,0,.64.74.97,1.87.97s1.93-.45,1.93-1.03ZM358.96,104.81c0-.9-.49-1.37-1.15-1.37s-1.15.47-1.15,1.37.49,1.41,1.15,1.41,1.15-.48,1.15-1.41Z" fill="#fff"/><path d="M363.68,98.48h2.5v2.91l-.11,1.53c.63-.58,1.45-1.17,2.6-1.17,1.83,0,2.62,1.29,2.62,3.4v5.24h-2.5v-4.92c0-1.21-.33-1.59-1.05-1.59-.63,0-1.01.29-1.56.82v5.69h-2.5v-11.91Z" fill="#fff"/><path d="M373.73,107.32v-3.41h-1.15v-1.86l1.29-.1.29-2.24h2.07v2.24h2.02v1.96h-2.02v3.38c0,.96.43,1.34,1.09,1.34.28,0,.58-.08.8-.16l.39,1.82c-.45.14-1.06.31-1.87.31-2.08,0-2.91-1.32-2.91-3.27Z" fill="#fff"/><path d="M383.3,101.96h2.04l.18,1.07h.06c.71-.68,1.56-1.27,2.71-1.27,1.83,0,2.62,1.29,2.62,3.4v5.24h-2.5v-4.92c0-1.21-.33-1.59-1.05-1.59-.63,0-1.01.29-1.56.82v5.69h-2.5v-8.43Z" fill="#fff"/><path d="M392.53,106.18c0-2.74,1.95-4.42,3.98-4.42,2.4,0,3.59,1.75,3.59,4.05,0,.45-.06.9-.1,1.1h-5.05c.22,1.22,1.06,1.79,2.19,1.79.64,0,1.21-.19,1.82-.55l.83,1.51c-.86.6-1.99.95-2.99.95-2.4,0-4.27-1.63-4.27-4.42ZM397.97,105.25c0-.93-.4-1.59-1.4-1.59-.79,0-1.47.53-1.64,1.59h3.04Z" fill="#fff"/><path d="M401.34,106.18c0-2.74,1.95-4.42,3.98-4.42,2.4,0,3.59,1.75,3.59,4.05,0,.45-.06.9-.1,1.1h-5.05c.22,1.22,1.06,1.79,2.19,1.79.64,0,1.21-.19,1.82-.55l.83,1.51c-.86.6-1.99.95-2.99.95-2.4,0-4.27-1.63-4.27-4.42ZM406.77,105.25c0-.93-.4-1.59-1.4-1.59-.79,0-1.47.53-1.64,1.59h3.04Z" fill="#fff"/><path d="M410.2,106.18c0-2.76,1.72-4.42,3.5-4.42.93,0,1.5.35,2.07.88l-.09-1.28v-2.87h2.5v11.91h-2.04l-.18-.84h-.06c-.6.6-1.43,1.04-2.24,1.04-2.1,0-3.45-1.66-3.45-4.42ZM415.67,107.79v-3.46c-.44-.4-.94-.53-1.4-.53-.81,0-1.52.75-1.52,2.35s.57,2.4,1.54,2.4c.53,0,.96-.2,1.38-.76Z" fill="#fff"/><path d="M424.11,107.32v-3.41h-1.15v-1.86l1.29-.1.29-2.24h2.07v2.24h2.02v1.96h-2.02v3.38c0,.96.43,1.34,1.09,1.34.28,0,.58-.08.8-.16l.39,1.82c-.45.14-1.06.31-1.87.31-2.08,0-2.91-1.32-2.91-3.27Z" fill="#fff"/><path d="M429.49,106.18c0-2.8,1.97-4.42,4.11-4.42s4.11,1.62,4.11,4.42-1.97,4.42-4.11,4.42-4.11-1.62-4.11-4.42ZM435.14,106.18c0-1.46-.51-2.41-1.55-2.41s-1.55.95-1.55,2.41.51,2.4,1.55,2.4,1.55-.94,1.55-2.4Z" fill="#fff"/><path d="M442.19,106.18c0-2.8,2.06-4.42,4.39-4.42,1.04,0,1.83.37,2.46.91l-1.18,1.61c-.4-.34-.74-.5-1.14-.5-1.2,0-1.97.95-1.97,2.41s.8,2.4,1.89,2.4c.55,0,1.08-.27,1.52-.62l.98,1.63c-.82.72-1.87,1-2.78,1-2.35,0-4.17-1.62-4.17-4.42Z" fill="#fff"/><path d="M449.65,106.18c0-2.8,1.97-4.42,4.11-4.42s4.11,1.62,4.11,4.42-1.97,4.42-4.11,4.42-4.11-1.62-4.11-4.42ZM455.31,106.18c0-1.46-.51-2.41-1.55-2.41s-1.55.95-1.55,2.41.51,2.4,1.55,2.4,1.55-.94,1.55-2.4Z" fill="#fff"/><path d="M459.58,101.96h2.04l.18,1.07h.06c.71-.68,1.56-1.27,2.71-1.27,1.83,0,2.62,1.29,2.62,3.4v5.24h-2.5v-4.92c0-1.21-.33-1.59-1.05-1.59-.63,0-1.01.29-1.56.82v5.69h-2.5v-8.43Z" fill="#fff"/><path d="M469.64,107.32v-3.41h-1.15v-1.86l1.29-.1.29-2.24h2.07v2.24h2.02v1.96h-2.02v3.38c0,.96.43,1.34,1.09,1.34.28,0,.58-.08.8-.16l.39,1.82c-.45.14-1.06.31-1.87.31-2.08,0-2.91-1.32-2.91-3.27Z" fill="#fff"/><path d="M475.08,108.05c0-1.78,1.41-2.74,4.75-3.09-.05-.74-.42-1.22-1.33-1.22-.71,0-1.41.3-2.23.76l-.89-1.64c1.07-.65,2.28-1.11,3.6-1.11,2.16,0,3.35,1.23,3.35,3.82v4.82h-2.04l-.18-.86h-.06c-.71.62-1.51,1.07-2.45,1.07-1.54,0-2.51-1.12-2.51-2.54ZM479.83,107.94v-1.47c-1.78.24-2.36.75-2.36,1.38,0,.54.37.81.97.81s.95-.28,1.39-.72Z" fill="#fff"/><path d="M483.94,106.18c0-2.8,2.06-4.42,4.39-4.42,1.04,0,1.84.37,2.46.91l-1.18,1.61c-.4-.34-.74-.5-1.14-.5-1.2,0-1.97.95-1.97,2.41s.8,2.4,1.89,2.4c.55,0,1.08-.27,1.52-.62l.98,1.63c-.82.72-1.87,1-2.78,1-2.35,0-4.17-1.62-4.17-4.42Z" fill="#fff"/><path d="M492.54,107.32v-3.41h-1.15v-1.86l1.29-.1.29-2.24h2.07v2.24h2.02v1.96h-2.02v3.38c0,.96.43,1.34,1.09,1.34.28,0,.58-.08.8-.16l.39,1.82c-.45.14-1.06.31-1.87.31-2.08,0-2.91-1.32-2.91-3.27Z" fill="#fff"/><path d="M502.11,98.48h2.5v2.91l-.11,1.53c.63-.58,1.45-1.17,2.6-1.17,1.83,0,2.62,1.29,2.62,3.4v5.24h-2.5v-4.92c0-1.21-.33-1.59-1.05-1.59-.63,0-1.01.29-1.56.82v5.69h-2.5v-11.91Z" fill="#fff"/><path d="M511.33,106.18c0-2.74,1.95-4.42,3.98-4.42,2.4,0,3.59,1.75,3.59,4.05,0,.45-.06.9-.1,1.1h-5.05c.22,1.22,1.06,1.79,2.19,1.79.64,0,1.21-.19,1.82-.55l.83,1.51c-.86.6-1.99.95-2.99.95-2.4,0-4.27-1.63-4.27-4.42ZM516.76,105.25c0-.93-.4-1.59-1.4-1.59-.79,0-1.47.53-1.64,1.59h3.04Z" fill="#fff"/><path d="M520.62,101.96h2.04l.18,1.47h.06c.61-1.12,1.54-1.68,2.4-1.68.48,0,.76.06,1.01.17l-.42,2.16c-.3-.07-.55-.14-.91-.14-.64,0-1.41.41-1.86,1.56v4.89h-2.5v-8.43Z" fill="#fff"/><path d="M530.4,108.05c0-1.78,1.41-2.74,4.75-3.09-.05-.74-.42-1.22-1.33-1.22-.71,0-1.41.3-2.23.76l-.89-1.64c1.07-.65,2.28-1.11,3.6-1.11,2.16,0,3.35,1.23,3.35,3.82v4.82h-2.04l-.18-.86h-.06c-.71.62-1.51,1.07-2.45,1.07-1.54,0-2.51-1.12-2.51-2.54ZM535.15,107.94v-1.47c-1.78.24-2.36.75-2.36,1.38,0,.54.37.81.97.81s.95-.28,1.39-.72Z" fill="#fff"/><path d="M539.75,101.96h2.04l.18,1.07h.06c.71-.68,1.56-1.27,2.71-1.27,1.83,0,2.62,1.29,2.62,3.4v5.24h-2.5v-4.92c0-1.21-.33-1.59-1.05-1.59-.63,0-1.01.29-1.56.82v5.69h-2.5v-8.43Z" fill="#fff"/><path d="M549.04,106.18c0-2.76,1.72-4.42,3.5-4.42.93,0,1.5.35,2.07.88l-.09-1.28v-2.87h2.5v11.91h-2.04l-.18-.84h-.06c-.6.6-1.43,1.04-2.24,1.04-2.1,0-3.45-1.66-3.45-4.42ZM554.51,107.79v-3.46c-.44-.4-.94-.53-1.4-.53-.81,0-1.52.75-1.52,2.35s.57,2.4,1.54,2.4c.53,0,.96-.2,1.38-.76Z" fill="#fff"/><path d="M562.61,101.96h2.04l.18,1.47h.06c.61-1.12,1.54-1.68,2.4-1.68.48,0,.76.06,1.01.17l-.42,2.16c-.3-.07-.55-.14-.91-.14-.64,0-1.41.41-1.86,1.56v4.89h-2.5v-8.43Z" fill="#fff"/><path d="M568.72,106.18c0-2.8,1.97-4.42,4.11-4.42s4.11,1.62,4.11,4.42-1.97,4.42-4.11,4.42-4.11-1.62-4.11-4.42ZM574.37,106.18c0-1.46-.51-2.41-1.55-2.41s-1.55.95-1.55,2.41.51,2.4,1.55,2.4,1.55-.94,1.55-2.4Z" fill="#fff"/><path d="M578.54,107.32v-3.41h-1.15v-1.86l1.29-.1.29-2.24h2.07v2.24h2.02v1.96h-2.02v3.38c0,.96.43,1.34,1.09,1.34.28,0,.58-.08.8-.16l.39,1.82c-.45.14-1.06.31-1.87.31-2.08,0-2.91-1.32-2.91-3.27Z" fill="#fff"/><path d="M583.98,108.05c0-1.78,1.41-2.74,4.75-3.09-.05-.74-.42-1.22-1.33-1.22-.71,0-1.41.3-2.23.76l-.89-1.64c1.07-.65,2.28-1.11,3.6-1.11,2.16,0,3.35,1.23,3.35,3.82v4.82h-2.04l-.18-.86h-.06c-.71.62-1.51,1.07-2.45,1.07-1.54,0-2.51-1.12-2.51-2.54ZM588.73,107.94v-1.47c-1.78.24-2.36.75-2.36,1.38,0,.54.37.81.97.81s.95-.28,1.39-.72Z" fill="#fff"/><path d="M593.36,107.32v-3.41h-1.15v-1.86l1.29-.1.29-2.24h2.07v2.24h2.02v1.96h-2.02v3.38c0,.96.43,1.34,1.09,1.34.28,0,.58-.08.8-.16l.39,1.82c-.45.14-1.06.31-1.87.31-2.08,0-2.91-1.32-2.91-3.27Z" fill="#fff"/><path d="M598.74,106.18c0-2.74,1.95-4.42,3.98-4.42,2.4,0,3.59,1.75,3.59,4.05,0,.45-.06.9-.1,1.1h-5.04c.22,1.22,1.06,1.79,2.19,1.79.64,0,1.21-.19,1.82-.55l.83,1.51c-.86.6-1.99.95-2.99.95-2.4,0-4.27-1.63-4.27-4.42ZM604.18,105.25c0-.93-.4-1.59-1.4-1.59-.79,0-1.47.53-1.64,1.59h3.04Z" fill="#fff"/><path d="M611.77,107.32v-3.41h-1.15v-1.86l1.29-.1.29-2.24h2.07v2.24h2.02v1.96h-2.02v3.38c0,.96.43,1.34,1.09,1.34.28,0,.58-.08.8-.16l.39,1.82c-.45.14-1.06.31-1.87.31-2.08,0-2.91-1.32-2.91-3.27Z" fill="#fff"/><path d="M617.95,98.48h2.5v2.91l-.11,1.53c.63-.58,1.45-1.17,2.6-1.17,1.83,0,2.62,1.29,2.62,3.4v5.24h-2.5v-4.92c0-1.21-.33-1.59-1.05-1.59-.63,0-1.01.29-1.56.82v5.69h-2.5v-11.91Z" fill="#fff"/><path d="M627.16,106.18c0-2.74,1.95-4.42,3.98-4.42,2.4,0,3.59,1.75,3.59,4.05,0,.45-.06.9-.1,1.1h-5.05c.22,1.22,1.06,1.79,2.19,1.79.64,0,1.21-.19,1.82-.55l.83,1.51c-.86.6-1.99.95-2.99.95-2.4,0-4.27-1.63-4.27-4.42ZM632.6,105.25c0-.93-.4-1.59-1.4-1.59-.79,0-1.47.53-1.64,1.59h3.04Z" fill="#fff"/><path d="M639.37,106.18c0-2.8,2.06-4.42,4.39-4.42,1.04,0,1.83.37,2.46.91l-1.18,1.61c-.4-.34-.74-.5-1.14-.5-1.2,0-1.97.95-1.97,2.41s.8,2.4,1.89,2.4c.55,0,1.08-.27,1.52-.62l.98,1.63c-.82.72-1.87,1-2.78,1-2.35,0-4.17-1.62-4.17-4.42Z" fill="#fff"/><path d="M647.8,101.96h2.04l.18,1.47h.06c.61-1.12,1.54-1.68,2.4-1.68.48,0,.76.06,1.01.17l-.42,2.16c-.3-.07-.55-.14-.91-.14-.64,0-1.41.41-1.86,1.56v4.89h-2.5v-8.43Z" fill="#fff"/><path d="M653.9,106.18c0-2.74,1.95-4.42,3.98-4.42,2.4,0,3.59,1.75,3.59,4.05,0,.45-.06.9-.1,1.1h-5.04c.22,1.22,1.06,1.79,2.19,1.79.64,0,1.21-.19,1.82-.55l.83,1.51c-.86.6-1.99.95-2.99.95-2.4,0-4.27-1.63-4.27-4.42ZM659.34,105.25c0-.93-.4-1.59-1.4-1.59-.79,0-1.47.53-1.64,1.59h3.04Z" fill="#fff"/><path d="M662.77,106.18c0-2.76,1.72-4.42,3.5-4.42.93,0,1.5.35,2.07.88l-.09-1.28v-2.87h2.5v11.91h-2.04l-.18-.84h-.06c-.6.6-1.43,1.04-2.24,1.04-2.1,0-3.45-1.66-3.45-4.42ZM668.24,107.79v-3.46c-.44-.4-.94-.53-1.4-.53-.81,0-1.52.75-1.52,2.35s.57,2.4,1.54,2.4c.53,0,.96-.2,1.38-.76Z" fill="#fff"/><path d="M672.45,106.18c0-2.74,1.95-4.42,3.98-4.42,2.4,0,3.59,1.75,3.59,4.05,0,.45-.06.9-.1,1.1h-5.05c.22,1.22,1.06,1.79,2.19,1.79.64,0,1.21-.19,1.82-.55l.83,1.51c-.86.6-1.99.95-2.99.95-2.4,0-4.27-1.63-4.27-4.42ZM677.89,105.25c0-.93-.4-1.59-1.4-1.59-.79,0-1.47.53-1.64,1.59h3.04Z" fill="#fff"/><path d="M681.75,101.96h2.04l.18,1.07h.06c.71-.68,1.56-1.27,2.71-1.27,1.83,0,2.62,1.29,2.62,3.4v5.24h-2.5v-4.92c0-1.21-.33-1.59-1.05-1.59-.63,0-1.01.29-1.56.82v5.69h-2.5v-8.43Z" fill="#fff"/><path d="M691.81,107.32v-3.41h-1.15v-1.86l1.29-.1.29-2.24h2.07v2.24h2.02v1.96h-2.02v3.38c0,.96.43,1.34,1.09,1.34.28,0,.58-.08.8-.16l.39,1.82c-.45.14-1.06.31-1.87.31-2.08,0-2.91-1.32-2.91-3.27Z" fill="#fff"/><path d="M697.79,99.42c0-.77.61-1.31,1.45-1.31s1.45.54,1.45,1.31-.61,1.31-1.45,1.31-1.45-.55-1.45-1.31ZM697.98,101.96h2.5v8.43h-2.5v-8.43Z" fill="#fff"/><path d="M702.28,108.05c0-1.78,1.41-2.74,4.75-3.09-.05-.74-.42-1.22-1.33-1.22-.71,0-1.41.3-2.23.76l-.89-1.64c1.07-.65,2.28-1.11,3.6-1.11,2.16,0,3.35,1.23,3.35,3.82v4.82h-2.04l-.18-.86h-.06c-.71.62-1.5,1.07-2.45,1.07-1.54,0-2.51-1.12-2.51-2.54ZM707.03,107.94v-1.47c-1.78.24-2.36.75-2.36,1.38,0,.54.37.81.97.81s.95-.28,1.39-.72Z" fill="#fff"/><path d="M711.63,107.77v-9.29h2.5v9.39c0,.54.25.71.45.71.1,0,.16,0,.31-.03l.3,1.84c-.28.12-.69.21-1.25.21-1.71,0-2.3-1.12-2.3-2.82Z" fill="#fff"/><path d="M715.75,109.42l1.12-1.56c.76.58,1.47.89,2.17.89.74,0,1.07-.28,1.07-.73,0-.56-.84-.81-1.7-1.15-1.03-.4-2.23-1.09-2.23-2.48,0-1.57,1.28-2.64,3.22-2.64,1.29,0,2.25.52,2.97,1.07l-1.12,1.5c-.6-.44-1.19-.72-1.78-.72-.65,0-.96.25-.96.67,0,.54.79.74,1.66,1.06,1.07.39,2.27,1,2.27,2.54s-1.2,2.72-3.46,2.72c-1.11,0-2.38-.48-3.24-1.18Z" fill="#fff"/><path d="M723.97,109.03c0-.89.64-1.58,1.51-1.58s1.51.69,1.51,1.58-.64,1.57-1.51,1.57-1.51-.69-1.51-1.57Z" fill="#fff"/><g id="Desktop_Computer"><path d="M1368.1,295.81v63.27c0,2.11-1.46,3.94-3.52,4.4l-8.74,1.97-17.66,3.98c.55-.17,2.19-1.05,2.23-5.5.02-2.38-.26-19.06-.58-36.83-.33-18.25-.7-37.67-.82-43.93-.02-.86-.27-1.69-.71-2.4-.39-.62-.92-1.15-1.56-1.55-.1-.06-.19-.11-.29-.17-.35-.19-.71-.35-1.08-.45l.82-.03,2.63-.11c2.44-.1,4.86.5,6.96,1.73l20.09,11.73c1.39.81,2.24,2.29,2.24,3.9Z" fill="#525a6a"/><path d="M1355.82,365.45l-17.66,3.98c.55-.17,2.19-1.05,2.23-5.5.02-2.38-.26-19.06-.58-36.83,1.05,5.51,6.66,32.59,16.01,38.36Z" fill="#525a6a"/><path d="M1368.1,295.81v4.83c-4.01-8.65-22.2-18.34-25.07-18.96-1.92-.41-3.68-.74-4.74-.93-.65-.12-1.04-.18-1.04-.18l-.82-1.54-.6-.96,2.42.08c2.81.09,5.56.88,7.99,2.3l19.62,11.46c1.39.81,2.24,2.29,2.24,3.9Z" fill="#525a6a"/><path d="M1338.16,369.42c-.11.03-.18.04-.18.04l.18-.04Z" fill="#2c2c2c"/><path d="M1308.65,280.26l26.55-2.09c2.21-.17,4.11,1.43,4.13,3.48l1.06,84.58c.03,2.06-1.84,3.7-4.06,3.56l-27.61-1.68c-2-.12-3.56-1.66-3.56-3.52v-80.82c0-1.83,1.52-3.36,3.49-3.52Z" fill="#89bd27"/><path d="M1338.83,365.32c.03,2.03-1.74,3.65-3.83,3.52l-26.11-1.66c-1.9-.12-3.37-1.64-3.37-3.47v-79.75c0-1.81,1.44-3.32,3.31-3.48l6.61-.54,18.53-1.52c2.09-.17,3.89,1.4,3.91,3.43l.36,37.52.54,42.57.04,3.37Z" fill="#727c92"/><path d="M1338.83,365.27c.03,2.03-1.74,3.65-3.83,3.52l-26.11-1.66c-1.9-.12-3.37-1.64-3.37-3.47v-79.64c0-1.81,1.44-3.32,3.3-3.47l6.6-.54,23.37,81.9.04,3.37Z" fill="#525a6a" opacity=".65"/><path d="M1306.6,284.81v4.69c0,.61.53,1.09,1.16,1.05l27.5-1.93c.57-.04,1.01-.5,1.01-1.05v-5.18c0-.62-.55-1.1-1.18-1.04l-27.5,2.42c-.56.05-.99.5-.99,1.04Z" fill="#d4d8df"/><path d="M1306.6,294.21v4.7c0,.6.52,1.08,1.14,1.05l27.5-1.45c.58-.03,1.03-.49,1.03-1.05v-5.18c0-.61-.53-1.09-1.16-1.05l-27.5,1.93c-.57.04-1.01.5-1.01,1.05Z" fill="#d4d8df"/><path d="M1306.6,303.62v4.7c0,.59.51,1.07,1.12,1.05l27.5-.97c.58-.02,1.05-.48,1.05-1.05v-5.18c0-.6-.52-1.08-1.14-1.05l-27.5,1.45c-.58.03-1.03.49-1.03,1.05Z" fill="#d4d8df"/><polygon points="1331.59 327.31 1331.59 328.75 1311.81 328.75 1311.81 318.32 1312.53 318.3 1312.53 327.31 1331.59 327.31" fill="#1c2538"/><polygon points="1331.59 317.83 1331.59 327.31 1312.53 327.31 1312.53 318.33 1331.59 317.83" fill="#d4d8df"/><polyline points="1315.05 358.43 1315.05 360.04 1318.1 360.04 1318.1 358.43 1315.05 358.43" fill="#d4d8df"/><polyline points="1322.42 358.61 1322.42 360.22 1326.02 360.22 1326.02 358.61 1322.42 358.61" fill="#d4d8df"/><polygon points="1331.59 322.94 1312.71 323.09 1312.71 324.03 1331.59 324.03 1331.59 322.94" fill="#1c2538"/><path d="M1338.8,365.28c.03,2.02-1.74,3.64-3.83,3.51l-26.08-1.65c-1.89-.12-3.37-1.64-3.37-3.47v-36.81c.5,5.98.06,32.03,4.39,36.64,3.51,3.74,19.19,3.6,24.16,2.46,4.88-1.12,4.02-32.35,4.18-46.52l.55,45.84Z" fill="#1c2538"/><polygon points="1364.86 301.76 1365.09 358.17 1363.24 358.62 1362.78 300.44 1364.86 301.76" fill="#727c92" opacity=".65"/><path d="M1309.93,363.52l-3.28,2.21-.33.15s.42.8,1.7,1.16l3.03-2.62s-1.03-.66-1.12-.9Z" fill="#e8e8e8" opacity=".26"/><path d="M1306.15,366.81s2.16,1.17,3.2,1.24l24.71,1.6c1.12.08,2.32-.11,3.26-.72l1.93-1.67-.1-.02-1.55.99c-1.24.79-2.78,1.07-4.25.98l-23.74-1.44c-1.1-.07-3.46-.94-3.46-.94h0Z" fill="#64930a"/><path d="M1309.66,365.95s5.37,1.48,12.15,1.67c6.78.2,12.99-.44,14.71-.93,0,0-10.97.69-14.71.54s-12.4-1.37-12.4-1.37" fill="#e8e8e8" opacity=".26"/><path d="M1337.2,279s1.2,1,1.2,2.3.39,30.31.39,30.31c0,0,.89-28.12.55-30.02-.35-1.9-2.14-2.59-2.14-2.59Z" fill="#a3ea2a" opacity=".36"/></g><g id="Desktop_Computer-2"><path d="M1409.78,281.22v63.27c0,2.11-1.46,3.94-3.52,4.4l-8.74,1.97-17.66,3.98c.55-.17,2.19-1.05,2.23-5.5.02-2.38-.26-19.06-.58-36.83-.33-18.25-.7-37.67-.82-43.93-.02-.86-.27-1.69-.71-2.4-.39-.62-.92-1.15-1.56-1.55-.1-.06-.19-.11-.29-.17-.35-.19-.71-.35-1.08-.45l.82-.03,2.63-.11c2.44-.1,4.86.5,6.96,1.73l20.09,11.73c1.39.81,2.24,2.29,2.24,3.9Z" fill="#525a6a"/><path d="M1397.5,350.87l-17.66,3.98c.55-.17,2.19-1.05,2.23-5.5.02-2.38-.26-19.06-.58-36.83,1.05,5.51,6.66,32.59,16.01,38.36Z" fill="#525a6a"/><path d="M1409.78,281.22v4.83c-4.01-8.65-22.2-18.34-25.07-18.96-1.92-.41-3.68-.74-4.74-.93-.65-.12-1.04-.18-1.04-.18l-.82-1.54-.6-.96,2.42.08c2.81.09,5.56.88,7.99,2.3l19.62,11.46c1.39.81,2.24,2.29,2.24,3.9Z" fill="#525a6a"/><path d="M1379.84,354.84c-.11.03-.18.04-.18.04l.18-.04Z" fill="#2c2c2c"/><path d="M1350.32,265.68l26.55-2.09c2.21-.17,4.11,1.43,4.13,3.48l1.06,84.58c.03,2.06-1.84,3.7-4.06,3.56l-27.61-1.68c-2-.12-3.56-1.66-3.56-3.52v-80.82c0-1.83,1.52-3.36,3.49-3.52Z" fill="#89bd27"/><path d="M1380.5,350.74c.03,2.03-1.74,3.65-3.83,3.52l-26.11-1.66c-1.9-.12-3.37-1.64-3.37-3.47v-79.75c0-1.81,1.44-3.32,3.31-3.48l6.61-.54,18.53-1.52c2.09-.17,3.89,1.4,3.91,3.43l.36,37.52.54,42.57.04,3.37Z" fill="#727c92"/><path d="M1380.5,350.69c.03,2.03-1.74,3.65-3.83,3.52l-26.11-1.66c-1.9-.12-3.37-1.64-3.37-3.47v-79.64c0-1.81,1.44-3.32,3.3-3.47l6.6-.54,23.37,81.9.04,3.37Z" fill="#525a6a" opacity=".65"/><path d="M1348.27,270.22v4.69c0,.61.53,1.09,1.16,1.05l27.5-1.93c.57-.04,1.01-.5,1.01-1.05v-5.18c0-.62-.55-1.1-1.18-1.04l-27.5,2.42c-.56.05-.99.5-.99,1.04Z" fill="#d4d8df"/><path d="M1348.27,279.63v4.7c0,.6.52,1.08,1.14,1.05l27.5-1.45c.58-.03,1.03-.49,1.03-1.05v-5.18c0-.61-.53-1.09-1.16-1.05l-27.5,1.93c-.57.04-1.01.5-1.01,1.05Z" fill="#d4d8df"/><path d="M1348.27,289.04v4.7c0,.59.51,1.07,1.12,1.05l27.5-.97c.58-.02,1.05-.48,1.05-1.05v-5.18c0-.6-.52-1.08-1.14-1.05l-27.5,1.45c-.58.03-1.03.49-1.03,1.05Z" fill="#d4d8df"/><polygon points="1373.27 312.73 1373.27 314.17 1353.49 314.17 1353.49 303.74 1354.21 303.72 1354.21 312.73 1373.27 312.73" fill="#1c2538"/><polygon points="1373.27 303.24 1373.27 312.73 1354.21 312.73 1354.21 303.75 1373.27 303.24" fill="#d4d8df"/><polyline points="1356.73 343.84 1356.73 345.46 1359.78 345.46 1359.78 343.84 1356.73 343.84" fill="#d4d8df"/><polyline points="1364.1 344.02 1364.1 345.64 1367.7 345.64 1367.7 344.02 1364.1 344.02" fill="#d4d8df"/><polygon points="1373.27 308.36 1354.39 308.51 1354.39 309.45 1373.27 309.45 1373.27 308.36" fill="#1c2538"/><path d="M1380.48,350.69c.03,2.02-1.74,3.64-3.83,3.51l-26.08-1.65c-1.89-.12-3.37-1.64-3.37-3.47v-36.81c.5,5.98.06,32.03,4.39,36.64,3.51,3.74,19.19,3.6,24.16,2.46,4.88-1.12,4.02-32.35,4.18-46.52l.55,45.84Z" fill="#1c2538"/><polygon points="1406.54 287.18 1406.77 343.59 1404.92 344.03 1404.46 285.86 1406.54 287.18" fill="#727c92" opacity=".65"/><path d="M1351.61,348.94l-3.28,2.21-.33.15s.42.8,1.7,1.16l3.03-2.62s-1.03-.66-1.12-.9Z" fill="#e8e8e8" opacity=".26"/><path d="M1347.83,352.23s2.16,1.17,3.2,1.24l24.71,1.6c1.12.08,2.32-.11,3.26-.72l1.93-1.67-.1-.02-1.55.99c-1.24.79-2.78,1.07-4.25.98l-23.74-1.44c-1.1-.07-3.46-.94-3.46-.94h0Z" fill="#64930a"/><path d="M1351.34,351.37s5.37,1.48,12.15,1.67c6.78.2,12.99-.44,14.71-.93,0,0-10.97.69-14.71.54s-12.4-1.37-12.4-1.37" fill="#e8e8e8" opacity=".26"/><path d="M1378.88,264.42s1.2,1,1.2,2.3c0,1.3.39,30.31.39,30.31,0,0,.89-28.12.55-30.02-.35-1.9-2.14-2.59-2.14-2.59Z" fill="#a3ea2a" opacity=".36"/></g></svg>