<?xml version="1.0" encoding="UTF-8"?>
<svg id="Layer_1" data-name="Layer 1" xmlns="http://www.w3.org/2000/svg" width="1439.65" height="247.41" xmlns:xlink="http://www.w3.org/1999/xlink" viewBox="0 0 1439.65 247.41">
  <defs>
    <linearGradient id="linear-gradient" x1="-41.78" y1="123.71" x2="576.6" y2="123.71" gradientUnits="userSpaceOnUse">
      <stop offset=".4" stop-color="#223654"/>
      <stop offset=".45" stop-color="#426349"/>
      <stop offset=".51" stop-color="#5f8c3f"/>
      <stop offset=".56" stop-color="#78ae37"/>
      <stop offset=".62" stop-color="#8ac831"/>
      <stop offset=".68" stop-color="#98db2d"/>
      <stop offset=".74" stop-color="#a0e62a"/>
      <stop offset=".81" stop-color="#a3ea2a"/>
    </linearGradient>
    <linearGradient id="linear-gradient-2" x1="742.91" y1="59.37" x2="915.22" y2="59.37" gradientUnits="userSpaceOnUse">
      <stop offset=".48" stop-color="#223654"/>
      <stop offset=".52" stop-color="#38554c"/>
      <stop offset=".59" stop-color="#5e8940"/>
      <stop offset=".66" stop-color="#7bb336"/>
      <stop offset=".72" stop-color="#91d12f"/>
      <stop offset=".77" stop-color="#9ee32b"/>
      <stop offset=".81" stop-color="#a3ea2a"/>
    </linearGradient>
    <linearGradient id="linear-gradient-3" y1="175.85" y2="175.85" gradientTransform="translate(0 365.14) scale(1 -1)" xlink:href="#linear-gradient-2"/>
    <linearGradient id="linear-gradient-4" x1="1058.09" y1="55.92" x2="1197.14" y2="55.92" gradientUnits="userSpaceOnUse">
      <stop offset=".12" stop-color="#223654"/>
      <stop offset=".2" stop-color="#38554c"/>
      <stop offset=".35" stop-color="#5e8940"/>
      <stop offset=".49" stop-color="#7bb336"/>
      <stop offset=".62" stop-color="#91d12f"/>
      <stop offset=".73" stop-color="#9ee32b"/>
      <stop offset=".81" stop-color="#a3ea2a"/>
    </linearGradient>
    <linearGradient id="linear-gradient-5" y1="277.99" y2="277.99" gradientTransform="translate(0 465.39) scale(1 -1)" xlink:href="#linear-gradient-4"/>
    <linearGradient id="linear-gradient-6" x1="760.29" y1="123.71" x2="915.75" y2="123.71" gradientUnits="userSpaceOnUse">
      <stop offset=".46" stop-color="#223654"/>
      <stop offset=".5" stop-color="#38554c"/>
      <stop offset=".58" stop-color="#5e8940"/>
      <stop offset=".65" stop-color="#7bb336"/>
      <stop offset=".71" stop-color="#91d12f"/>
      <stop offset=".77" stop-color="#9ee32b"/>
      <stop offset=".81" stop-color="#a3ea2a"/>
    </linearGradient>
    <linearGradient id="linear-gradient-7" x1="998.43" y1="123.71" x2="1153.89" y2="123.71" gradientUnits="userSpaceOnUse">
      <stop offset=".48" stop-color="#223654"/>
      <stop offset=".52" stop-color="#38554c"/>
      <stop offset=".59" stop-color="#5e8940"/>
      <stop offset=".66" stop-color="#7bb336"/>
      <stop offset=".72" stop-color="#91d12f"/>
      <stop offset=".77" stop-color="#9ee32b"/>
      <stop offset=".81" stop-color="#a3ea2a"/>
    </linearGradient>
  </defs>
  <g id="arrow_styles_for_diagrams_etc" data-name="arrow styles for diagrams etc">
    <g id="arrow_styles_for_diagrams_etc-2" data-name="arrow styles for diagrams etc">
      <g id="arrow_styles_for_diagrams_etc-3" data-name="arrow styles for diagrams etc">
        <path d="m595.26,124.84l-29.85,17.17c-.88.5-1.98-.13-1.98-1.15v-8.85H198.79c-2.65,0-4.79-2.14-4.79-4.79v-7.03c0-2.64,2.14-4.78,4.78-4.78h364.65v-8.85c0-1.02,1.1-1.65,1.98-1.15l29.85,17.17c.88.5.88,1.77,0,2.27Z" style="fill: url(#linear-gradient); stroke-width: 0px;"/>
      </g>
    </g>
  </g>
  <path d="m919.94,36.97l-29.85-17.17c-.88-.5-1.98.13-1.98,1.15v8.85h-74.72c-2.64,0-4.78,2.14-4.78,4.78v64.52h16.6v-52.7h62.9v8.85c0,1.02,1.1,1.65,1.98,1.15l29.85-17.17c.88-.5.88-1.77,0-2.27Z" style="fill: url(#linear-gradient-2); stroke-width: 0px;"/>
  <path d="m919.94,210.44l-29.85,17.17c-.88.5-1.98-.13-1.98-1.15v-8.85h-74.72c-2.64,0-4.78-2.14-4.78-4.78v-62.03h16.6v50.21h62.9v-8.85c0-1.02,1.1-1.65,1.98-1.15l29.85,17.17c.88.5.88,1.77,0,2.27Z" style="fill: url(#linear-gradient-3); stroke-width: 0px;"/>
  <path d="m1191.99,85l17.17-29.85c.5-.88-.13-1.98-1.15-1.98h-8.85v-22.21c0-2.64-2.14-4.78-4.78-4.78h-124.84v16.6h113.02v10.39h-8.85c-1.02,0-1.65,1.1-1.15,1.98l17.17,29.85c.5.88,1.77.88,2.27,0Z" style="fill: url(#linear-gradient-4); stroke-width: 0px;"/>
  <path d="m1191.99,158.32l17.17,29.85c.5.88-.13,1.98-1.15,1.98h-8.85v22.21c0,2.64-2.14,4.78-4.78,4.78h-124.84v-16.6h113.02v-10.39h-8.85c-1.02,0-1.65-1.1-1.15-1.98l17.17-29.85c.5-.88,1.77-.88,2.27,0Z" style="fill: url(#linear-gradient-5); stroke-width: 0px;"/>
  <g>
    <rect x="12.65" y="95.66" width="194.47" height="56.08" rx="7.48" ry="7.48" style="fill: #223654; stroke-width: 0px;"/>
    <g>
      <path d="m90.23,134.27c-1.28,0-2.38-.18-3.31-.54-.93-.36-1.7-.86-2.3-1.5s-1.05-1.4-1.34-2.29-.43-1.86-.43-2.93v-11.33h4.1v10.99c0,.74.08,1.36.25,1.88.17.52.39.94.68,1.26.29.33.64.56,1.05.7.41.14.86.21,1.35.21,1,0,1.81-.31,2.43-.92.62-.61.93-1.66.93-3.13v-10.99h4.1v11.33c0,1.07-.15,2.05-.45,2.94-.3.89-.75,1.66-1.37,2.3-.61.64-1.39,1.13-2.34,1.48-.95.35-2.07.53-3.36.53Z" style="fill: #a3ea2a; stroke-width: 0px;"/>
      <path d="m105.39,131.09c.72,0,1.23-.07,1.52-.21.3-.14.45-.41.45-.81,0-.32-.19-.59-.58-.83-.39-.24-.97-.5-1.76-.8-.61-.23-1.17-.46-1.67-.71-.5-.25-.92-.54-1.27-.88-.35-.34-.62-.75-.81-1.22-.19-.47-.29-1.04-.29-1.71,0-1.3.48-2.32,1.45-3.08.96-.75,2.29-1.13,3.97-1.13.84,0,1.65.08,2.42.22.77.15,1.38.31,1.84.49l-.68,3.05c-.46-.16-.95-.3-1.48-.42-.53-.12-1.13-.18-1.8-.18-1.23,0-1.84.34-1.84,1.03,0,.16.03.3.08.42.05.12.16.24.32.35.16.11.37.24.64.37.27.13.62.28,1.04.44.86.32,1.57.63,2.13.94.56.31,1,.64,1.33,1,.32.36.55.76.68,1.19.13.44.2.94.2,1.52,0,1.36-.51,2.4-1.54,3.09-1.03.7-2.48,1.05-4.35,1.05-1.23,0-2.25-.11-3.06-.32-.81-.21-1.38-.39-1.7-.53l.66-3.18c.67.26,1.35.47,2.05.62.7.15,1.39.22,2.08.22Z" style="fill: #a3ea2a; stroke-width: 0px;"/>
      <path d="m113.51,127.1c0-1.23.19-2.3.57-3.22.38-.92.87-1.69,1.48-2.3.61-.61,1.32-1.08,2.12-1.39.8-.32,1.62-.47,2.46-.47,1.96,0,3.51.6,4.65,1.8,1.14,1.2,1.71,2.97,1.71,5.3,0,.23,0,.48-.03.75-.02.27-.04.51-.05.72h-8.88c.09.81.46,1.45,1.13,1.92.67.47,1.56.71,2.68.71.72,0,1.42-.07,2.12-.2.69-.13,1.26-.29,1.7-.49l.53,3.18c-.21.11-.49.21-.84.32-.35.11-.74.2-1.17.28-.43.08-.89.14-1.38.2-.49.05-.98.08-1.47.08-1.24,0-2.33-.18-3.25-.55-.92-.37-1.68-.87-2.29-1.51s-1.05-1.4-1.34-2.27c-.29-.88-.43-1.82-.43-2.84Zm9.2-1.5c-.02-.33-.07-.66-.17-.97-.1-.32-.25-.6-.45-.84-.2-.25-.46-.45-.76-.6-.31-.16-.69-.24-1.14-.24s-.81.07-1.13.22c-.32.15-.58.35-.79.59-.21.25-.37.53-.49.85-.11.32-.2.65-.25.99h5.18Z" style="fill: #a3ea2a; stroke-width: 0px;"/>
      <path d="m137.85,123.55c-.35-.09-.76-.18-1.24-.28-.47-.1-.98-.14-1.52-.14-.25,0-.54.02-.88.07-.34.04-.6.09-.78.14v10.57h-3.92v-13.09c.7-.25,1.53-.48,2.48-.7s2.02-.33,3.19-.33c.21,0,.46.01.76.04.3.03.6.06.89.1.3.04.6.1.89.16.3.06.55.14.76.22l-.66,3.23Z" style="fill: #a3ea2a; stroke-width: 0px;"/>
    </g>
  </g>
  <rect x="602.49" y="93.38" width="229.03" height="60.66" rx="7.48" ry="7.48" style="fill: #223654; stroke-width: 0px;"/>
  <g>
    <rect x="316.21" y="95.66" width="194.47" height="56.08" rx="7.48" ry="7.48" style="fill: #223654; stroke-width: 0px;"/>
    <g>
      <path d="m369.21,115.48c2.73,0,4.83.49,6.28,1.46,1.45.97,2.18,2.48,2.18,4.53,0,1.28-.29,2.32-.88,3.11-.59.8-1.43,1.42-2.54,1.88.37.46.75.98,1.16,1.56.4.59.8,1.2,1.2,1.84.39.64.78,1.31,1.14,2s.71,1.37,1.02,2.04h-4.58c-.33-.6-.67-1.2-1.02-1.81s-.69-1.21-1.06-1.79c-.36-.58-.72-1.12-1.07-1.64-.35-.52-.7-.99-1.06-1.41h-2.02v6.65h-4.1v-17.95c.89-.18,1.82-.3,2.77-.37.95-.07,1.81-.1,2.56-.1Zm.24,3.5c-.3,0-.57,0-.8.03-.24.02-.46.04-.67.05v4.94h1.16c1.54,0,2.65-.19,3.31-.58s1-1.04,1-1.97-.34-1.53-1.01-1.91c-.67-.38-1.67-.57-2.98-.57Z" style="fill: #a3ea2a; stroke-width: 0px;"/>
      <path d="m379.83,127.1c0-1.23.19-2.3.57-3.22.38-.92.87-1.69,1.48-2.3.61-.61,1.32-1.08,2.12-1.39.8-.32,1.62-.47,2.46-.47,1.96,0,3.51.6,4.65,1.8,1.14,1.2,1.71,2.97,1.71,5.3,0,.23,0,.48-.03.75-.02.27-.04.51-.05.72h-8.88c.09.81.46,1.45,1.13,1.92.67.47,1.56.71,2.68.71.72,0,1.42-.07,2.12-.2.69-.13,1.26-.29,1.7-.49l.53,3.18c-.21.11-.49.21-.84.32-.35.11-.74.2-1.17.28-.43.08-.89.14-1.38.2-.49.05-.98.08-1.47.08-1.24,0-2.33-.18-3.25-.55-.92-.37-1.68-.87-2.29-1.51s-1.05-1.4-1.34-2.27c-.29-.88-.43-1.82-.43-2.84Zm9.2-1.5c-.02-.33-.07-.66-.17-.97-.1-.32-.25-.6-.45-.84-.2-.25-.46-.45-.76-.6-.31-.16-.69-.24-1.14-.24s-.81.07-1.13.22c-.32.15-.58.35-.79.59-.21.25-.37.53-.49.85-.11.32-.2.65-.25.99h5.18Z" style="fill: #a3ea2a; stroke-width: 0px;"/>
      <path d="m395.18,126.99c0-1.07.16-2.05.49-2.93.32-.88.79-1.65,1.41-2.29.61-.64,1.37-1.13,2.26-1.48.89-.35,1.91-.53,3.05-.53.47,0,.97.02,1.48.07.52.04,1.03.1,1.52.17.5.07.98.15,1.43.25.46.1.86.2,1.21.3v18.22h-3.92v-5.2c-.44.19-.89.34-1.37.45-.47.11-.98.16-1.52.16-1.96,0-3.46-.64-4.49-1.93-1.03-1.29-1.55-3.04-1.55-5.24Zm4,.11c0,2.51.93,3.76,2.79,3.76.4,0,.8-.05,1.2-.16s.71-.24.96-.39v-7.07c-.19-.04-.44-.07-.74-.09-.3-.03-.62-.04-.97-.04-1.07,0-1.88.36-2.42,1.09s-.81,1.7-.81,2.9Z" style="fill: #a3ea2a; stroke-width: 0px;"/>
      <path d="m423.51,133.43c-.67.19-1.52.37-2.58.54-1.05.17-2.16.25-3.31.25s-2.15-.16-2.93-.47c-.78-.32-1.4-.76-1.85-1.33-.46-.57-.78-1.25-.97-2.04-.19-.79-.29-1.66-.29-2.6v-7.7h3.92v7.23c0,1.26.17,2.17.5,2.73.33.56.95.84,1.87.84.28,0,.58-.01.89-.04s.6-.06.84-.09v-10.67h3.92v13.35Z" style="fill: #a3ea2a; stroke-width: 0px;"/>
      <path d="m426.53,127.1c0-1.23.19-2.3.57-3.22.38-.92.87-1.69,1.48-2.3.61-.61,1.32-1.08,2.12-1.39.8-.32,1.62-.47,2.46-.47,1.96,0,3.51.6,4.65,1.8,1.14,1.2,1.71,2.97,1.71,5.3,0,.23,0,.48-.03.75-.02.27-.04.51-.05.72h-8.88c.09.81.46,1.45,1.13,1.92.67.47,1.56.71,2.68.71.72,0,1.42-.07,2.12-.2.69-.13,1.26-.29,1.7-.49l.53,3.18c-.21.11-.49.21-.84.32-.35.11-.74.2-1.17.28-.43.08-.89.14-1.38.2-.49.05-.98.08-1.47.08-1.24,0-2.33-.18-3.25-.55-.92-.37-1.68-.87-2.29-1.51s-1.05-1.4-1.34-2.27c-.29-.88-.43-1.82-.43-2.84Zm9.2-1.5c-.02-.33-.07-.66-.17-.97-.1-.32-.25-.6-.45-.84-.2-.25-.46-.45-.76-.6-.31-.16-.69-.24-1.14-.24s-.81.07-1.13.22c-.32.15-.58.35-.79.59-.21.25-.37.53-.49.85-.11.32-.2.65-.25.99h5.18Z" style="fill: #a3ea2a; stroke-width: 0px;"/>
      <path d="m446.51,131.09c.72,0,1.23-.07,1.52-.21.3-.14.45-.41.45-.81,0-.32-.19-.59-.58-.83-.39-.24-.97-.5-1.76-.8-.61-.23-1.17-.46-1.67-.71-.5-.25-.92-.54-1.27-.88-.35-.34-.62-.75-.81-1.22-.19-.47-.29-1.04-.29-1.71,0-1.3.48-2.32,1.45-3.08.96-.75,2.29-1.13,3.97-1.13.84,0,1.65.08,2.42.22.77.15,1.38.31,1.84.49l-.68,3.05c-.46-.16-.95-.3-1.48-.42-.53-.12-1.13-.18-1.8-.18-1.23,0-1.84.34-1.84,1.03,0,.16.03.3.08.42.05.12.16.24.32.35.16.11.37.24.64.37.27.13.62.28,1.04.44.86.32,1.57.63,2.13.94.56.31,1,.64,1.33,1,.32.36.55.76.68,1.19.13.44.2.94.2,1.52,0,1.36-.51,2.4-1.54,3.09-1.03.7-2.48,1.05-4.35,1.05-1.23,0-2.25-.11-3.06-.32-.81-.21-1.38-.39-1.7-.53l.66-3.18c.67.26,1.35.47,2.05.62.7.15,1.39.22,2.08.22Z" style="fill: #a3ea2a; stroke-width: 0px;"/>
      <path d="m455.16,116.63l3.92-.63v4.07h4.7v3.26h-4.7v4.86c0,.82.14,1.48.43,1.97s.87.74,1.75.74c.42,0,.85-.04,1.3-.12.45-.08.85-.19,1.22-.33l.55,3.05c-.47.19-1,.36-1.58.5-.58.14-1.29.21-2.13.21-1.07,0-1.95-.14-2.65-.43-.7-.29-1.26-.69-1.68-1.21-.42-.52-.71-1.14-.88-1.88s-.25-1.55-.25-2.44v-11.62Z" style="fill: #a3ea2a; stroke-width: 0px;"/>
    </g>
  </g>
  <g>
    <rect x="930.76" y="10.06" width="143.02" height="56.08" rx="7.48" ry="7.48" style="fill: #223654; stroke-width: 0px;"/>
    <g>
      <path d="m957.18,45.18c.58,0,1.06-.05,1.43-.14.38-.1.68-.23.91-.39.23-.17.38-.36.47-.59s.13-.48.13-.76c0-.6-.28-1.09-.84-1.49-.56-.39-1.52-.82-2.89-1.27-.6-.21-1.19-.45-1.79-.72s-1.13-.61-1.6-1.03c-.47-.41-.86-.91-1.16-1.5-.3-.59-.45-1.3-.45-2.14s.16-1.6.47-2.27c.32-.67.76-1.25,1.34-1.72.58-.47,1.28-.84,2.1-1.09.82-.25,1.75-.38,2.79-.38,1.23,0,2.29.13,3.18.39s1.63.55,2.21.87l-1.18,3.23c-.51-.26-1.07-.5-1.7-.7-.62-.2-1.37-.3-2.25-.3-.98,0-1.69.14-2.12.41-.43.27-.64.69-.64,1.25,0,.33.08.61.24.84.16.23.38.43.67.62.29.18.62.35,1,.5.38.15.79.3,1.25.46.95.35,1.77.7,2.47,1.04.7.34,1.28.74,1.75,1.2.46.46.81.99,1.04,1.6.23.61.34,1.36.34,2.23,0,1.7-.6,3.02-1.79,3.96s-2.99,1.41-5.39,1.41c-.81,0-1.53-.05-2.18-.14-.65-.1-1.22-.21-1.72-.36-.5-.14-.93-.29-1.29-.45-.36-.16-.66-.31-.91-.45l1.16-3.26c.54.3,1.21.56,2.01.8.8.24,1.77.35,2.93.35Z" style="fill: #a3ea2a; stroke-width: 0px;"/>
      <path d="m966.59,41.5c0-1.23.19-2.3.57-3.22.38-.92.87-1.69,1.48-2.3s1.32-1.08,2.12-1.39c.8-.32,1.62-.47,2.46-.47,1.96,0,3.51.6,4.65,1.8,1.14,1.2,1.71,2.97,1.71,5.3,0,.23,0,.48-.03.75s-.04.51-.05.72h-8.88c.09.81.46,1.45,1.13,1.92.67.47,1.56.71,2.68.71.72,0,1.42-.07,2.12-.2.69-.13,1.26-.29,1.7-.49l.53,3.18c-.21.1-.49.21-.84.32-.35.1-.74.2-1.17.28-.43.08-.89.14-1.38.2-.49.05-.98.08-1.47.08-1.24,0-2.33-.18-3.25-.55-.92-.37-1.68-.87-2.29-1.51s-1.05-1.4-1.34-2.27-.43-1.82-.43-2.84Zm9.2-1.5c-.02-.33-.07-.66-.17-.97-.1-.32-.25-.6-.45-.84-.2-.25-.46-.45-.76-.6-.31-.16-.69-.24-1.14-.24s-.81.08-1.13.22c-.32.15-.58.35-.79.59-.21.25-.37.53-.49.85-.11.33-.2.65-.25.99h5.18Z" style="fill: #a3ea2a; stroke-width: 0px;"/>
      <path d="m990.93,37.95c-.35-.09-.76-.18-1.24-.28-.47-.1-.98-.14-1.52-.14-.25,0-.54.02-.88.07s-.6.09-.78.14v10.57h-3.92v-13.09c.7-.25,1.53-.48,2.48-.7s2.02-.33,3.19-.33c.21,0,.46.01.76.04.3.03.59.06.89.1.3.04.6.1.89.16s.55.14.76.22l-.66,3.23Z" style="fill: #a3ea2a; stroke-width: 0px;"/>
      <path d="m998.28,48.3c-.9-1.75-1.81-3.8-2.73-6.15-.92-2.35-1.8-4.91-2.62-7.67h4.15c.18.68.38,1.42.62,2.22.24.8.48,1.6.74,2.42.26.81.51,1.61.77,2.38.26.77.51,1.47.75,2.1.23-.63.47-1.33.74-2.1.26-.77.52-1.56.78-2.38.26-.81.5-1.62.74-2.42.24-.8.44-1.54.62-2.22h4.05c-.83,2.77-1.7,5.33-2.62,7.67-.92,2.35-1.83,4.4-2.73,6.15h-3.25Z" style="fill: #a3ea2a; stroke-width: 0px;"/>
      <path d="m1007.93,41.5c0-1.23.19-2.3.57-3.22.38-.92.87-1.69,1.48-2.3s1.32-1.08,2.12-1.39c.8-.32,1.62-.47,2.46-.47,1.96,0,3.51.6,4.65,1.8,1.14,1.2,1.71,2.97,1.71,5.3,0,.23,0,.48-.03.75s-.04.51-.05.72h-8.88c.09.81.46,1.45,1.13,1.92.67.47,1.56.71,2.68.71.72,0,1.42-.07,2.12-.2.69-.13,1.26-.29,1.7-.49l.53,3.18c-.21.1-.49.21-.84.32-.35.1-.74.2-1.17.28-.43.08-.89.14-1.38.2-.49.05-.98.08-1.47.08-1.24,0-2.33-.18-3.25-.55-.92-.37-1.68-.87-2.29-1.51s-1.05-1.4-1.34-2.27-.43-1.82-.43-2.84Zm9.2-1.5c-.02-.33-.07-.66-.17-.97-.1-.32-.25-.6-.45-.84-.2-.25-.46-.45-.76-.6-.31-.16-.69-.24-1.14-.24s-.81.08-1.13.22c-.32.15-.58.35-.79.59-.21.25-.37.53-.49.85-.11.33-.2.65-.25.99h5.18Z" style="fill: #a3ea2a; stroke-width: 0px;"/>
      <path d="m1032.27,37.95c-.35-.09-.76-.18-1.24-.28-.47-.1-.98-.14-1.52-.14-.25,0-.54.02-.88.07s-.6.09-.78.14v10.57h-3.92v-13.09c.7-.25,1.53-.48,2.48-.7s2.02-.33,3.19-.33c.21,0,.46.01.76.04.3.03.59.06.89.1.3.04.6.1.89.16s.55.14.76.22l-.66,3.23Z" style="fill: #a3ea2a; stroke-width: 0px;"/>
      <path d="m1041.34,33.87c.51-.21,1.04-.45,1.59-.72.55-.27,1.09-.57,1.62-.89.53-.32,1.03-.67,1.51-1.03.48-.36.92-.74,1.3-1.14h2.73v18.21h-3.92v-13.12c-.53.35-1.11.67-1.76.96s-1.28.54-1.89.75l-1.18-3.02Z" style="fill: #a3ea2a; stroke-width: 0px;"/>
    </g>
  </g>
  <g>
    <rect x="930.76" y="95.66" width="143.02" height="56.08" rx="7.48" ry="7.48" style="fill: #223654; stroke-width: 0px;"/>
    <g>
      <path d="m957.18,130.77c.58,0,1.06-.05,1.43-.14.38-.1.68-.23.91-.39.23-.17.38-.36.47-.59s.13-.48.13-.76c0-.6-.28-1.09-.84-1.49-.56-.39-1.52-.82-2.89-1.27-.6-.21-1.19-.45-1.79-.72s-1.13-.61-1.6-1.02c-.47-.41-.86-.91-1.16-1.5-.3-.59-.45-1.3-.45-2.14s.16-1.6.47-2.27c.32-.67.76-1.25,1.34-1.72.58-.47,1.28-.84,2.1-1.09.82-.25,1.75-.38,2.79-.38,1.23,0,2.29.13,3.18.39s1.63.55,2.21.87l-1.18,3.23c-.51-.26-1.07-.5-1.7-.7-.62-.2-1.37-.3-2.25-.3-.98,0-1.69.14-2.12.41-.43.27-.64.69-.64,1.25,0,.33.08.61.24.84.16.23.38.43.67.62.29.18.62.35,1,.5.38.15.79.3,1.25.46.95.35,1.77.7,2.47,1.04.7.34,1.28.74,1.75,1.19.46.46.81.99,1.04,1.6.23.61.34,1.36.34,2.23,0,1.7-.6,3.02-1.79,3.96s-2.99,1.41-5.39,1.41c-.81,0-1.53-.05-2.18-.14-.65-.1-1.22-.21-1.72-.36-.5-.14-.93-.29-1.29-.45-.36-.16-.66-.31-.91-.45l1.16-3.26c.54.3,1.21.56,2.01.8.8.24,1.77.35,2.93.35Z" style="fill: #a3ea2a; stroke-width: 0px;"/>
      <path d="m966.59,127.09c0-1.23.19-2.3.57-3.22.38-.92.87-1.69,1.48-2.3s1.32-1.08,2.12-1.39c.8-.32,1.62-.47,2.46-.47,1.96,0,3.51.6,4.65,1.8,1.14,1.2,1.71,2.97,1.71,5.3,0,.23,0,.48-.03.75s-.04.51-.05.72h-8.88c.09.81.46,1.45,1.13,1.92.67.47,1.56.71,2.68.71.72,0,1.42-.07,2.12-.2.69-.13,1.26-.29,1.7-.49l.53,3.18c-.21.1-.49.21-.84.32-.35.1-.74.2-1.17.28-.43.08-.89.14-1.38.2-.49.05-.98.08-1.47.08-1.24,0-2.33-.18-3.25-.55-.92-.37-1.68-.87-2.29-1.51s-1.05-1.4-1.34-2.27-.43-1.82-.43-2.84Zm9.2-1.5c-.02-.33-.07-.66-.17-.97-.1-.32-.25-.6-.45-.84-.2-.25-.46-.45-.76-.6-.31-.16-.69-.24-1.14-.24s-.81.08-1.13.22c-.32.15-.58.35-.79.59-.21.25-.37.53-.49.85-.11.32-.2.65-.25.99h5.18Z" style="fill: #a3ea2a; stroke-width: 0px;"/>
      <path d="m990.93,123.55c-.35-.09-.76-.18-1.24-.28-.47-.1-.98-.14-1.52-.14-.25,0-.54.02-.88.07s-.6.09-.78.14v10.57h-3.92v-13.09c.7-.25,1.53-.48,2.48-.7s2.02-.33,3.19-.33c.21,0,.46.01.76.04.3.03.59.06.89.1.3.04.6.1.89.16s.55.14.76.22l-.66,3.23Z" style="fill: #a3ea2a; stroke-width: 0px;"/>
      <path d="m998.28,133.9c-.9-1.75-1.81-3.8-2.73-6.15-.92-2.35-1.8-4.91-2.62-7.67h4.15c.18.68.38,1.42.62,2.22.24.8.48,1.6.74,2.42.26.81.51,1.61.77,2.38.26.77.51,1.47.75,2.1.23-.63.47-1.33.74-2.1.26-.77.52-1.56.78-2.38.26-.81.5-1.62.74-2.42.24-.8.44-1.54.62-2.22h4.05c-.83,2.77-1.7,5.33-2.62,7.67-.92,2.35-1.83,4.4-2.73,6.15h-3.25Z" style="fill: #a3ea2a; stroke-width: 0px;"/>
      <path d="m1007.93,127.09c0-1.23.19-2.3.57-3.22.38-.92.87-1.69,1.48-2.3s1.32-1.08,2.12-1.39c.8-.32,1.62-.47,2.46-.47,1.96,0,3.51.6,4.65,1.8,1.14,1.2,1.71,2.97,1.71,5.3,0,.23,0,.48-.03.75s-.04.51-.05.72h-8.88c.09.81.46,1.45,1.13,1.92.67.47,1.56.71,2.68.71.72,0,1.42-.07,2.12-.2.69-.13,1.26-.29,1.7-.49l.53,3.18c-.21.1-.49.21-.84.32-.35.1-.74.2-1.17.28-.43.08-.89.14-1.38.2-.49.05-.98.08-1.47.08-1.24,0-2.33-.18-3.25-.55-.92-.37-1.68-.87-2.29-1.51s-1.05-1.4-1.34-2.27-.43-1.82-.43-2.84Zm9.2-1.5c-.02-.33-.07-.66-.17-.97-.1-.32-.25-.6-.45-.84-.2-.25-.46-.45-.76-.6-.31-.16-.69-.24-1.14-.24s-.81.08-1.13.22c-.32.15-.58.35-.79.59-.21.25-.37.53-.49.85-.11.32-.2.65-.25.99h5.18Z" style="fill: #a3ea2a; stroke-width: 0px;"/>
      <path d="m1032.27,123.55c-.35-.09-.76-.18-1.24-.28-.47-.1-.98-.14-1.52-.14-.25,0-.54.02-.88.07s-.6.09-.78.14v10.57h-3.92v-13.09c.7-.25,1.53-.48,2.48-.7s2.02-.33,3.19-.33c.21,0,.46.01.76.04.3.03.59.06.89.1.3.04.6.1.89.16s.55.14.76.22l-.66,3.23Z" style="fill: #a3ea2a; stroke-width: 0px;"/>
      <path d="m1052.54,120.47c0,.67-.13,1.31-.39,1.92s-.6,1.21-1.03,1.77c-.42.57-.89,1.12-1.42,1.64s-1.04,1.03-1.55,1.5c-.26.25-.55.52-.85.83s-.6.62-.88.93-.53.61-.75.88c-.22.27-.35.5-.41.67h7.83v3.29h-12.14c-.04-.19-.05-.44-.05-.74v-.63c0-.84.14-1.61.41-2.31s.63-1.35,1.07-1.96c.44-.6.93-1.17,1.48-1.7.55-.53,1.1-1.05,1.64-1.58.42-.4.82-.78,1.18-1.14.37-.36.69-.71.97-1.05.28-.34.5-.68.66-1.02.16-.34.24-.69.24-1.04,0-.77-.22-1.31-.66-1.63-.44-.32-.98-.47-1.63-.47-.47,0-.92.08-1.33.22-.41.15-.79.32-1.13.53-.34.2-.63.4-.88.6-.25.2-.43.36-.55.49l-1.95-2.73c.77-.72,1.67-1.31,2.69-1.77,1.02-.46,2.12-.7,3.3-.7,1.07,0,1.99.12,2.76.37.77.25,1.41.59,1.91,1.04s.87.99,1.1,1.63c.24.64.36,1.36.36,2.17Z" style="fill: #a3ea2a; stroke-width: 0px;"/>
    </g>
  </g>
  <g>
    <rect x="930.76" y="181.26" width="143.02" height="56.08" rx="7.48" ry="7.48" style="fill: #223654; stroke-width: 0px;"/>
    <g>
      <path d="m957.18,216.37c.58,0,1.06-.05,1.43-.14.38-.1.68-.23.91-.39.23-.17.38-.36.47-.59s.13-.48.13-.76c0-.6-.28-1.09-.84-1.49-.56-.39-1.52-.82-2.89-1.27-.6-.21-1.19-.45-1.79-.72s-1.13-.61-1.6-1.03c-.47-.41-.86-.91-1.16-1.5-.3-.59-.45-1.3-.45-2.14s.16-1.6.47-2.27c.32-.67.76-1.25,1.34-1.72.58-.47,1.28-.84,2.1-1.09.82-.25,1.75-.38,2.79-.38,1.23,0,2.29.13,3.18.39s1.63.55,2.21.87l-1.18,3.23c-.51-.26-1.07-.5-1.7-.7-.62-.2-1.37-.3-2.25-.3-.98,0-1.69.14-2.12.41-.43.27-.64.69-.64,1.25,0,.33.08.61.24.84.16.23.38.43.67.62.29.18.62.35,1,.5.38.15.79.3,1.25.46.95.35,1.77.7,2.47,1.04.7.34,1.28.74,1.75,1.2.46.46.81.99,1.04,1.6.23.61.34,1.36.34,2.23,0,1.7-.6,3.02-1.79,3.96s-2.99,1.41-5.39,1.41c-.81,0-1.53-.05-2.18-.14-.65-.1-1.22-.21-1.72-.36-.5-.14-.93-.29-1.29-.45-.36-.16-.66-.31-.91-.45l1.16-3.26c.54.3,1.21.56,2.01.8.8.24,1.77.35,2.93.35Z" style="fill: #a3ea2a; stroke-width: 0px;"/>
      <path d="m966.59,212.69c0-1.23.19-2.3.57-3.22.38-.92.87-1.69,1.48-2.3s1.32-1.08,2.12-1.39c.8-.32,1.62-.47,2.46-.47,1.96,0,3.51.6,4.65,1.8,1.14,1.2,1.71,2.97,1.71,5.3,0,.23,0,.48-.03.75s-.04.51-.05.72h-8.88c.09.81.46,1.45,1.13,1.92.67.47,1.56.71,2.68.71.72,0,1.42-.07,2.12-.2.69-.13,1.26-.29,1.7-.49l.53,3.18c-.21.1-.49.21-.84.32-.35.1-.74.2-1.17.28-.43.08-.89.14-1.38.2-.49.05-.98.08-1.47.08-1.24,0-2.33-.18-3.25-.55-.92-.37-1.68-.87-2.29-1.51s-1.05-1.4-1.34-2.27-.43-1.82-.43-2.84Zm9.2-1.5c-.02-.33-.07-.66-.17-.97-.1-.32-.25-.6-.45-.84-.2-.25-.46-.45-.76-.6-.31-.16-.69-.24-1.14-.24s-.81.08-1.13.22c-.32.15-.58.35-.79.59-.21.25-.37.53-.49.85-.11.33-.2.65-.25.99h5.18Z" style="fill: #a3ea2a; stroke-width: 0px;"/>
      <path d="m990.93,209.15c-.35-.09-.76-.18-1.24-.28-.47-.1-.98-.14-1.52-.14-.25,0-.54.02-.88.07s-.6.09-.78.14v10.57h-3.92v-13.09c.7-.25,1.53-.48,2.48-.7s2.02-.33,3.19-.33c.21,0,.46.01.76.04.3.03.59.06.89.1.3.04.6.1.89.16s.55.14.76.22l-.66,3.23Z" style="fill: #a3ea2a; stroke-width: 0px;"/>
      <path d="m998.28,219.5c-.9-1.75-1.81-3.8-2.73-6.15-.92-2.35-1.8-4.91-2.62-7.67h4.15c.18.68.38,1.42.62,2.22.24.8.48,1.6.74,2.42.26.81.51,1.61.77,2.38.26.77.51,1.47.75,2.1.23-.63.47-1.33.74-2.1.26-.77.52-1.56.78-2.38.26-.81.5-1.62.74-2.42.24-.8.44-1.54.62-2.22h4.05c-.83,2.77-1.7,5.33-2.62,7.67-.92,2.35-1.83,4.4-2.73,6.15h-3.25Z" style="fill: #a3ea2a; stroke-width: 0px;"/>
      <path d="m1007.93,212.69c0-1.23.19-2.3.57-3.22.38-.92.87-1.69,1.48-2.3s1.32-1.08,2.12-1.39c.8-.32,1.62-.47,2.46-.47,1.96,0,3.51.6,4.65,1.8,1.14,1.2,1.71,2.97,1.71,5.3,0,.23,0,.48-.03.75s-.04.51-.05.72h-8.88c.09.81.46,1.45,1.13,1.92.67.47,1.56.71,2.68.71.72,0,1.42-.07,2.12-.2.69-.13,1.26-.29,1.7-.49l.53,3.18c-.21.1-.49.21-.84.32-.35.1-.74.2-1.17.28-.43.08-.89.14-1.38.2-.49.05-.98.08-1.47.08-1.24,0-2.33-.18-3.25-.55-.92-.37-1.68-.87-2.29-1.51s-1.05-1.4-1.34-2.27-.43-1.82-.43-2.84Zm9.2-1.5c-.02-.33-.07-.66-.17-.97-.1-.32-.25-.6-.45-.84-.2-.25-.46-.45-.76-.6-.31-.16-.69-.24-1.14-.24s-.81.08-1.13.22c-.32.15-.58.35-.79.59-.21.25-.37.53-.49.85-.11.33-.2.65-.25.99h5.18Z" style="fill: #a3ea2a; stroke-width: 0px;"/>
      <path d="m1032.27,209.15c-.35-.09-.76-.18-1.24-.28-.47-.1-.98-.14-1.52-.14-.25,0-.54.02-.88.07s-.6.09-.78.14v10.57h-3.92v-13.09c.7-.25,1.53-.48,2.48-.7s2.02-.33,3.19-.33c.21,0,.46.01.76.04.3.03.59.06.89.1.3.04.6.1.89.16s.55.14.76.22l-.66,3.23Z" style="fill: #a3ea2a; stroke-width: 0px;"/>
      <path d="m1045.49,219.9c-.47,0-.97-.03-1.5-.09-.53-.06-1.03-.15-1.52-.25-.49-.11-.94-.22-1.34-.34-.4-.12-.72-.24-.95-.34l.76-3.26c.46.19,1.04.4,1.75.62.71.22,1.59.33,2.64.33,1.21,0,2.09-.23,2.65-.68.56-.46.84-1.07.84-1.84,0-.47-.1-.87-.3-1.2s-.48-.59-.83-.79c-.35-.2-.77-.34-1.25-.42-.48-.08-1-.12-1.54-.12h-1.52v-3.15h1.74c.38,0,.76-.04,1.12-.11.36-.07.68-.19.96-.35.28-.17.5-.39.67-.68.17-.29.25-.65.25-1.09,0-.33-.07-.62-.21-.87-.14-.25-.32-.45-.54-.6-.22-.16-.47-.28-.76-.36-.29-.08-.58-.12-.88-.12-.75,0-1.45.11-2.09.34-.64.23-1.22.51-1.75.84l-1.39-2.87c.28-.17.61-.36.99-.55.38-.19.79-.37,1.25-.53.46-.16.94-.29,1.46-.39.52-.11,1.06-.16,1.64-.16,1.07,0,1.99.13,2.77.38.78.25,1.42.61,1.93,1.08s.88,1.01,1.13,1.63c.25.62.37,1.3.37,2.03s-.2,1.41-.6,2.09c-.4.67-.95,1.19-1.63,1.54.95.39,1.68.96,2.19,1.72.52.76.78,1.68.78,2.75,0,.84-.14,1.62-.42,2.33-.28.71-.72,1.33-1.31,1.84-.6.52-1.35.92-2.27,1.21s-2.01.43-3.27.43Z" style="fill: #a3ea2a; stroke-width: 0px;"/>
    </g>
  </g>
  <g id="arrow_styles_for_diagrams_etc-4" data-name="arrow styles for diagrams etc">
    <g id="arrow_styles_for_diagrams_etc-5" data-name="arrow styles for diagrams etc">
      <g id="arrow_styles_for_diagrams_etc-6" data-name="arrow styles for diagrams etc">
        <path d="m919.94,124.84l-29.85,17.17c-.88.5-1.98-.13-1.98-1.15v-8.85h-63.75c-2.65,0-4.79-2.14-4.79-4.79v-7.03c0-2.64,2.14-4.78,4.78-4.78h63.77v-8.85c0-1.02,1.1-1.65,1.98-1.15l29.85,17.17c.88.5.88,1.77,0,2.27Z" style="fill: url(#linear-gradient-6); stroke-width: 0px;"/>
      </g>
    </g>
  </g>
  <g>
    <g>
      <path d="m637.61,116.64v3.52h-12.17v-18.21h4.1v14.69h8.07Z" style="fill: #a3ea2a; stroke-width: 0px;"/>
      <path d="m652.91,113.22c0,1.09-.16,2.08-.47,2.98-.32.9-.77,1.67-1.37,2.31s-1.31,1.13-2.14,1.49c-.83.35-1.77.53-2.8.53s-1.94-.18-2.77-.53c-.83-.35-1.55-.85-2.14-1.49s-1.06-1.41-1.39-2.31c-.33-.9-.5-1.9-.5-2.98s.17-2.08.51-2.97.81-1.66,1.42-2.29c.61-.63,1.32-1.12,2.16-1.47.83-.35,1.74-.53,2.72-.53s1.91.17,2.75.53c.83.35,1.55.84,2.14,1.47.59.63,1.06,1.39,1.39,2.29s.5,1.88.5,2.97Zm-4,0c0-1.21-.24-2.16-.72-2.85-.48-.69-1.17-1.04-2.06-1.04s-1.59.35-2.08,1.04c-.49.69-.74,1.64-.74,2.85s.25,2.17.74,2.88c.49.71,1.18,1.06,2.08,1.06s1.58-.36,2.06-1.06c.48-.71.72-1.67.72-2.88Z" style="fill: #a3ea2a; stroke-width: 0px;"/>
      <path d="m660.9,105.97c1.16,0,2.12.13,2.89.39.77.26,1.39.64,1.85,1.13.46.49.79,1.09.99,1.79.19.7.29,1.48.29,2.34v8.15c-.56.12-1.34.27-2.34.43-1,.17-2.21.25-3.63.25-.89,0-1.7-.08-2.43-.24-.73-.16-1.35-.42-1.88-.78-.53-.36-.93-.83-1.21-1.41-.28-.58-.42-1.29-.42-2.13s.16-1.49.49-2.05c.32-.56.76-1.01,1.3-1.34s1.17-.57,1.87-.72c.7-.15,1.43-.22,2.18-.22.51,0,.96.02,1.35.07.39.04.71.1.96.17v-.37c0-.67-.2-1.2-.6-1.6-.4-.4-1.1-.6-2.1-.6-.67,0-1.32.05-1.97.14-.65.1-1.21.23-1.68.41l-.5-3.15c.23-.07.51-.14.85-.22s.71-.15,1.12-.21c.4-.06.83-.11,1.27-.16.45-.04.9-.07,1.35-.07Zm.32,11.46c.39,0,.75,0,1.1-.03.35-.02.63-.04.84-.08v-2.97c-.16-.04-.39-.07-.71-.11s-.6-.05-.87-.05c-.37,0-.71.02-1.04.07-.33.04-.61.13-.85.25-.25.12-.44.29-.58.5-.14.21-.21.47-.21.79,0,.61.21,1.04.62,1.27.41.24.98.36,1.7.36Z" style="fill: #a3ea2a; stroke-width: 0px;"/>
      <path d="m682.66,119.71c-.35.11-.75.21-1.21.3-.46.1-.93.18-1.43.25-.5.07-1.01.13-1.52.17-.52.04-1.01.07-1.49.07-1.14,0-2.16-.17-3.05-.5-.89-.33-1.65-.81-2.26-1.43s-1.08-1.38-1.41-2.26-.49-1.88-.49-2.98.14-2.13.42-3.04c.28-.9.68-1.67,1.21-2.3s1.17-1.11,1.93-1.45c.76-.33,1.63-.5,2.62-.5.54,0,1.03.05,1.46.16s.86.25,1.3.45v-6.26l3.92-.63v19.95Zm-8.86-6.57c0,1.21.27,2.18.82,2.92.54.74,1.35,1.1,2.42,1.1.35,0,.67-.01.97-.04.3-.03.54-.06.74-.09v-7.12c-.25-.16-.56-.29-.96-.39-.39-.1-.79-.16-1.2-.16-1.86,0-2.79,1.26-2.79,3.79Z" style="fill: #a3ea2a; stroke-width: 0px;"/>
      <path d="m698.99,120.4c-1,0-1.99-.03-2.98-.09-.99-.06-2.02-.21-3.09-.43v-17.66c.84-.16,1.76-.28,2.76-.36,1-.08,1.93-.12,2.79-.12,1.16,0,2.22.08,3.19.25.97.17,1.81.45,2.51.85.7.4,1.25.93,1.64,1.59s.59,1.47.59,2.43c0,1.45-.7,2.6-2.1,3.44,1.16.44,1.94,1.03,2.37,1.79.42.75.63,1.6.63,2.55,0,1.91-.7,3.35-2.09,4.31-1.39.96-3.46,1.45-6.22,1.45Zm-2.08-11.3h2c1.26,0,2.16-.16,2.71-.49s.82-.85.82-1.56-.28-1.25-.84-1.55c-.56-.3-1.38-.45-2.47-.45-.35,0-.73,0-1.13.01-.4,0-.76.03-1.08.07v3.97Zm0,3.13v4.7c.3.04.62.06.97.08s.74.03,1.16.03c1.23,0,2.22-.17,2.97-.53.75-.35,1.13-1,1.13-1.95,0-.84-.32-1.44-.95-1.8-.63-.36-1.53-.54-2.71-.54h-2.58Z" style="fill: #a3ea2a; stroke-width: 0px;"/>
      <path d="m715.28,105.97c1.16,0,2.12.13,2.89.39.77.26,1.39.64,1.85,1.13.46.49.79,1.09.99,1.79.19.7.29,1.48.29,2.34v8.15c-.56.12-1.34.27-2.34.43-1,.17-2.21.25-3.63.25-.89,0-1.7-.08-2.43-.24-.73-.16-1.35-.42-1.88-.78-.53-.36-.93-.83-1.21-1.41-.28-.58-.42-1.29-.42-2.13s.16-1.49.49-2.05c.32-.56.76-1.01,1.3-1.34s1.17-.57,1.87-.72c.7-.15,1.43-.22,2.18-.22.51,0,.96.02,1.35.07.39.04.71.1.96.17v-.37c0-.67-.2-1.2-.6-1.6-.4-.4-1.1-.6-2.1-.6-.67,0-1.32.05-1.97.14-.65.1-1.21.23-1.68.41l-.5-3.15c.23-.07.51-.14.85-.22s.71-.15,1.12-.21c.4-.06.83-.11,1.27-.16.45-.04.9-.07,1.35-.07Zm.32,11.46c.39,0,.75,0,1.1-.03.35-.02.63-.04.84-.08v-2.97c-.16-.04-.39-.07-.71-.11s-.6-.05-.87-.05c-.37,0-.71.02-1.04.07-.33.04-.61.13-.85.25-.25.12-.44.29-.58.5-.14.21-.21.47-.21.79,0,.61.21,1.04.62,1.27.41.24.98.36,1.7.36Z" style="fill: #a3ea2a; stroke-width: 0px;"/>
      <path d="m730.37,120.42c-1.14-.02-2.06-.14-2.77-.37-.71-.23-1.27-.55-1.68-.96-.41-.41-.69-.91-.84-1.5-.15-.59-.22-1.25-.22-1.98v-15.22l3.92-.63v15.06c0,.35.03.67.08.95s.15.52.3.71c.15.19.36.35.64.47.28.12.66.2,1.13.24l-.55,3.23Z" style="fill: #a3ea2a; stroke-width: 0px;"/>
      <path d="m738.52,105.97c1.16,0,2.12.13,2.89.39.77.26,1.39.64,1.85,1.13.46.49.79,1.09.99,1.79.19.7.29,1.48.29,2.34v8.15c-.56.12-1.34.27-2.34.43-1,.17-2.21.25-3.63.25-.89,0-1.7-.08-2.43-.24-.73-.16-1.35-.42-1.88-.78-.53-.36-.93-.83-1.21-1.41-.28-.58-.42-1.29-.42-2.13s.16-1.49.49-2.05c.32-.56.76-1.01,1.3-1.34s1.17-.57,1.87-.72c.7-.15,1.43-.22,2.18-.22.51,0,.96.02,1.35.07.39.04.71.1.96.17v-.37c0-.67-.2-1.2-.6-1.6-.4-.4-1.1-.6-2.1-.6-.67,0-1.32.05-1.97.14-.65.1-1.21.23-1.68.41l-.5-3.15c.23-.07.51-.14.85-.22s.71-.15,1.12-.21c.4-.06.83-.11,1.27-.16.45-.04.9-.07,1.35-.07Zm.32,11.46c.39,0,.75,0,1.1-.03.35-.02.63-.04.84-.08v-2.97c-.16-.04-.39-.07-.71-.11s-.6-.05-.87-.05c-.37,0-.71.02-1.04.07-.33.04-.61.13-.85.25-.25.12-.44.29-.58.5-.14.21-.21.47-.21.79,0,.61.21,1.04.62,1.27.41.24.98.36,1.7.36Z" style="fill: #a3ea2a; stroke-width: 0px;"/>
      <path d="m748.08,106.81c.67-.19,1.52-.37,2.58-.54,1.05-.17,2.16-.25,3.31-.25s2.15.15,2.93.46,1.4.74,1.85,1.3c.46.56.78,1.23.97,2,.19.77.29,1.63.29,2.58v7.81h-3.92v-7.33c0-1.26-.17-2.16-.5-2.68-.33-.53-.96-.79-1.87-.79-.28,0-.58.01-.89.04s-.6.06-.84.09v10.67h-3.92v-13.35Z" style="fill: #a3ea2a; stroke-width: 0px;"/>
      <path d="m762.91,113.25c0-1,.16-1.94.49-2.83s.79-1.66,1.41-2.31,1.36-1.18,2.23-1.56c.88-.39,1.88-.58,3-.58.74,0,1.41.07,2.02.2.61.13,1.21.32,1.79.56l-.81,3.13c-.37-.14-.77-.26-1.21-.37-.44-.1-.93-.16-1.47-.16-1.16,0-2.02.36-2.59,1.08-.57.72-.85,1.67-.85,2.84,0,1.25.27,2.21.8,2.89s1.47,1.03,2.8,1.03c.47,0,.98-.04,1.52-.13.54-.09,1.04-.23,1.5-.42l.55,3.21c-.46.19-1.02.36-1.71.5-.68.14-1.44.21-2.26.21-1.26,0-2.35-.19-3.26-.57s-1.66-.89-2.25-1.54-1.02-1.42-1.29-2.3c-.27-.88-.41-1.84-.41-2.88Z" style="fill: #a3ea2a; stroke-width: 0px;"/>
      <path d="m775.39,113.35c0-1.23.19-2.3.57-3.22s.87-1.69,1.49-2.3c.61-.61,1.32-1.08,2.12-1.39.8-.32,1.62-.47,2.46-.47,1.96,0,3.51.6,4.65,1.8,1.14,1.2,1.71,2.97,1.71,5.3,0,.23,0,.48-.03.75s-.04.51-.05.72h-8.88c.09.81.46,1.45,1.13,1.92.67.47,1.56.71,2.68.71.72,0,1.42-.07,2.12-.2.69-.13,1.26-.29,1.7-.49l.53,3.18c-.21.1-.49.21-.84.32-.35.1-.74.2-1.17.28-.43.08-.89.14-1.38.2-.49.05-.98.08-1.47.08-1.25,0-2.33-.18-3.25-.55-.92-.37-1.68-.87-2.29-1.51s-1.05-1.4-1.34-2.27-.43-1.82-.43-2.84Zm9.2-1.5c-.02-.33-.08-.66-.17-.97-.1-.32-.25-.6-.45-.84s-.46-.45-.76-.6c-.31-.16-.69-.24-1.14-.24s-.82.08-1.13.22c-.32.15-.58.35-.79.59s-.37.53-.49.85c-.11.33-.2.65-.25.99h5.18Z" style="fill: #a3ea2a; stroke-width: 0px;"/>
      <path d="m799.73,109.81c-.35-.09-.76-.18-1.24-.28-.47-.1-.98-.14-1.52-.14-.25,0-.54.02-.88.07-.34.04-.6.09-.78.14v10.57h-3.92v-13.09c.7-.25,1.53-.48,2.48-.7.95-.22,2.02-.33,3.19-.33.21,0,.46.01.76.04s.6.06.89.1c.3.04.6.1.89.16.3.06.55.14.76.22l-.66,3.23Z" style="fill: #a3ea2a; stroke-width: 0px;"/>
      <path d="m802.55,125.02h-4.02l8.83-25.44h3.97l-8.78,25.44Z" style="fill: #a3ea2a; stroke-width: 0px;"/>
    </g>
    <g>
      <path d="m634.46,125.64c2.73,0,4.83.49,6.28,1.46,1.45.97,2.18,2.48,2.18,4.53,0,1.28-.29,2.32-.88,3.12-.59.8-1.43,1.42-2.54,1.88.37.46.75.98,1.16,1.56.4.59.8,1.2,1.2,1.84.39.64.78,1.31,1.14,2,.37.69.71,1.37,1.02,2.04h-4.58c-.33-.6-.67-1.2-1.02-1.81s-.69-1.21-1.05-1.79c-.36-.58-.72-1.13-1.07-1.64-.35-.52-.7-.99-1.05-1.41h-2.02v6.65h-4.1v-17.95c.89-.17,1.82-.3,2.77-.37.96-.07,1.81-.11,2.56-.11Zm.24,3.5c-.3,0-.56,0-.8.03-.24.02-.46.04-.67.05v4.94h1.16c1.54,0,2.65-.19,3.31-.58.67-.39,1-1.04,1-1.97s-.34-1.53-1.01-1.91-1.67-.57-2.98-.57Z" style="fill: #a3ea2a; stroke-width: 0px;"/>
      <path d="m645.08,137.26c0-1.23.19-2.3.57-3.22s.87-1.69,1.49-2.3c.61-.61,1.32-1.08,2.12-1.39.8-.32,1.62-.47,2.46-.47,1.96,0,3.51.6,4.65,1.8,1.14,1.2,1.71,2.97,1.71,5.3,0,.23,0,.48-.03.75s-.04.51-.05.72h-8.88c.09.81.46,1.45,1.13,1.92.67.47,1.56.71,2.68.71.72,0,1.42-.07,2.12-.2.69-.13,1.26-.29,1.7-.49l.53,3.18c-.21.1-.49.21-.84.32-.35.1-.74.2-1.17.28-.43.08-.89.14-1.38.2-.49.05-.98.08-1.47.08-1.25,0-2.33-.18-3.25-.55-.92-.37-1.68-.87-2.29-1.51s-1.05-1.4-1.34-2.27-.43-1.82-.43-2.84Zm9.2-1.5c-.02-.33-.08-.66-.17-.97-.1-.32-.25-.6-.45-.84s-.46-.45-.76-.6c-.31-.16-.69-.24-1.14-.24s-.82.08-1.13.22c-.32.15-.58.35-.79.59s-.37.53-.49.85c-.11.33-.2.65-.25.99h5.18Z" style="fill: #a3ea2a; stroke-width: 0px;"/>
      <path d="m664.86,144.07c-.9-1.75-1.81-3.8-2.73-6.15-.92-2.35-1.8-4.91-2.62-7.67h4.15c.18.68.38,1.42.62,2.22.24.8.48,1.6.74,2.42s.51,1.61.77,2.38c.26.77.51,1.47.75,2.1.23-.63.47-1.33.74-2.1.26-.77.52-1.56.78-2.38s.5-1.62.74-2.42c.24-.8.44-1.54.62-2.22h4.05c-.83,2.77-1.7,5.33-2.62,7.67-.92,2.35-1.83,4.4-2.73,6.15h-3.25Z" style="fill: #a3ea2a; stroke-width: 0px;"/>
      <path d="m674.52,137.26c0-1.23.19-2.3.57-3.22s.87-1.69,1.49-2.3c.61-.61,1.32-1.08,2.12-1.39.8-.32,1.62-.47,2.46-.47,1.96,0,3.51.6,4.65,1.8,1.14,1.2,1.71,2.97,1.71,5.3,0,.23,0,.48-.03.75s-.04.51-.05.72h-8.88c.09.81.46,1.45,1.13,1.92.67.47,1.56.71,2.68.71.72,0,1.42-.07,2.12-.2.69-.13,1.26-.29,1.7-.49l.53,3.18c-.21.1-.49.21-.84.32-.35.1-.74.2-1.17.28-.43.08-.89.14-1.38.2-.49.05-.98.08-1.47.08-1.25,0-2.33-.18-3.25-.55-.92-.37-1.68-.87-2.29-1.51s-1.05-1.4-1.34-2.27-.43-1.82-.43-2.84Zm9.2-1.5c-.02-.33-.08-.66-.17-.97-.1-.32-.25-.6-.45-.84s-.46-.45-.76-.6c-.31-.16-.69-.24-1.14-.24s-.82.08-1.13.22c-.32.15-.58.35-.79.59s-.37.53-.49.85c-.11.33-.2.65-.25.99h5.18Z" style="fill: #a3ea2a; stroke-width: 0px;"/>
      <path d="m698.85,133.71c-.35-.09-.76-.18-1.24-.28-.47-.1-.98-.14-1.52-.14-.25,0-.54.02-.88.07-.34.04-.6.09-.78.14v10.57h-3.92v-13.09c.7-.25,1.53-.48,2.48-.7.95-.22,2.02-.33,3.19-.33.21,0,.46.01.76.04s.6.06.89.1c.3.04.6.1.89.16.3.06.55.14.76.22l-.66,3.23Z" style="fill: #a3ea2a; stroke-width: 0px;"/>
      <path d="m705.58,141.25c.72,0,1.23-.07,1.52-.21s.45-.41.45-.82c0-.32-.19-.59-.58-.83-.39-.24-.97-.5-1.76-.8-.61-.23-1.17-.46-1.67-.71-.5-.25-.92-.54-1.27-.88s-.62-.75-.81-1.22c-.19-.47-.29-1.04-.29-1.71,0-1.3.48-2.32,1.45-3.08.96-.75,2.29-1.13,3.97-1.13.84,0,1.65.07,2.42.22.77.15,1.38.31,1.84.49l-.68,3.05c-.46-.16-.95-.3-1.49-.42-.54-.12-1.13-.18-1.8-.18-1.23,0-1.84.34-1.84,1.02,0,.16.03.3.08.42.05.12.16.24.32.35.16.11.37.24.64.37s.62.28,1.04.44c.86.32,1.57.63,2.13.94.56.31,1,.64,1.33,1s.55.76.68,1.19c.13.44.2.94.2,1.52,0,1.36-.51,2.4-1.54,3.1s-2.48,1.05-4.35,1.05c-1.23,0-2.25-.11-3.06-.32-.82-.21-1.38-.39-1.7-.53l.66-3.18c.67.26,1.35.47,2.05.62.7.15,1.39.22,2.08.22Z" style="fill: #a3ea2a; stroke-width: 0px;"/>
      <path d="m713.71,137.26c0-1.23.19-2.3.57-3.22s.87-1.69,1.49-2.3c.61-.61,1.32-1.08,2.12-1.39.8-.32,1.62-.47,2.46-.47,1.96,0,3.51.6,4.65,1.8,1.14,1.2,1.71,2.97,1.71,5.3,0,.23,0,.48-.03.75s-.04.51-.05.72h-8.88c.09.81.46,1.45,1.13,1.92.67.47,1.56.71,2.68.71.72,0,1.42-.07,2.12-.2.69-.13,1.26-.29,1.7-.49l.53,3.18c-.21.1-.49.21-.84.32-.35.1-.74.2-1.17.28-.43.08-.89.14-1.38.2-.49.05-.98.08-1.47.08-1.25,0-2.33-.18-3.25-.55-.92-.37-1.68-.87-2.29-1.51s-1.05-1.4-1.34-2.27-.43-1.82-.43-2.84Zm9.2-1.5c-.02-.33-.08-.66-.17-.97-.1-.32-.25-.6-.45-.84s-.46-.45-.76-.6c-.31-.16-.69-.24-1.14-.24s-.82.08-1.13.22c-.32.15-.58.35-.79.59s-.37.53-.49.85c-.11.33-.2.65-.25.99h5.18Z" style="fill: #a3ea2a; stroke-width: 0px;"/>
      <path d="m741.75,125.64c2.72,0,4.8.48,6.25,1.43,1.46.96,2.18,2.52,2.18,4.69s-.74,3.77-2.21,4.74c-1.47.97-3.58,1.46-6.31,1.46h-1.29v6.1h-4.1v-17.95c.89-.17,1.84-.3,2.84-.37,1-.07,1.88-.11,2.63-.11Zm.26,3.5c-.3,0-.59,0-.88.03s-.54.04-.75.05v5.26h1.29c1.42,0,2.49-.19,3.21-.58.72-.39,1.08-1.1,1.08-2.16,0-.51-.09-.93-.28-1.26-.18-.33-.45-.6-.79-.8s-.76-.34-1.25-.42c-.49-.08-1.03-.12-1.63-.12Z" style="fill: #a3ea2a; stroke-width: 0px;"/>
      <path d="m761.28,133.71c-.35-.09-.76-.18-1.24-.28-.47-.1-.98-.14-1.52-.14-.25,0-.54.02-.88.07-.34.04-.6.09-.78.14v10.57h-3.92v-13.09c.7-.25,1.53-.48,2.48-.7.95-.22,2.02-.33,3.19-.33.21,0,.46.01.76.04s.6.06.89.1c.3.04.6.1.89.16.3.06.55.14.76.22l-.66,3.23Z" style="fill: #a3ea2a; stroke-width: 0px;"/>
      <path d="m776.71,137.13c0,1.09-.16,2.08-.47,2.98-.32.9-.77,1.67-1.37,2.31s-1.31,1.13-2.14,1.49c-.83.35-1.77.53-2.8.53s-1.94-.18-2.77-.53c-.83-.35-1.55-.85-2.14-1.49s-1.06-1.41-1.39-2.31c-.33-.9-.5-1.9-.5-2.98s.17-2.08.51-2.97.81-1.66,1.42-2.29c.61-.63,1.32-1.12,2.16-1.47.83-.35,1.74-.53,2.72-.53s1.91.17,2.75.53c.83.35,1.55.84,2.14,1.47.59.63,1.06,1.39,1.39,2.29s.5,1.88.5,2.97Zm-4,0c0-1.21-.24-2.16-.72-2.85-.48-.69-1.17-1.04-2.06-1.04s-1.59.35-2.08,1.04c-.49.69-.74,1.64-.74,2.85s.25,2.17.74,2.88c.49.71,1.18,1.06,2.08,1.06s1.58-.36,2.06-1.06c.48-.71.72-1.67.72-2.88Z" style="fill: #a3ea2a; stroke-width: 0px;"/>
      <path d="m784.74,134.12l2.75-3.88h4.05l-4.8,6.72c1.1,1.26,2.08,2.52,2.93,3.77.85,1.25,1.54,2.36,2.05,3.34h-4.2c-.14-.26-.32-.59-.53-.99-.21-.39-.45-.81-.71-1.24-.26-.43-.54-.79-.82-1.09-.29-.3-.57-.57-.84-.81-.26.23-.53.48-.81.75s-.53.62-.78,1.03-.49.82-.73,1.22-.45.78-.63,1.13h-3.98c.22-.43.51-.95.87-1.55.36-.6.76-1.22,1.19-1.86.43-.64.9-1.26,1.4-1.86.5-.6.99-1.17,1.48-1.7-.86-1.22-1.69-2.4-2.48-3.52-.79-1.13-1.58-2.24-2.35-3.34h4.23l2.72,3.88Z" style="fill: #a3ea2a; stroke-width: 0px;"/>
      <path d="m806.75,130.24c-.79,2.66-1.62,5.16-2.48,7.49-.86,2.33-1.8,4.59-2.82,6.78-.37.79-.74,1.46-1.11,2.01-.37.55-.77,1.01-1.21,1.37s-.93.62-1.49.79c-.55.17-1.2.25-1.93.25-.62,0-1.18-.06-1.7-.17s-.94-.24-1.28-.38l.68-3.13c.4.14.76.24,1.08.29s.65.08,1,.08c.7,0,1.24-.19,1.62-.57s.7-.9.96-1.56c-.89-1.75-1.79-3.72-2.68-5.9-.89-2.18-1.74-4.63-2.52-7.35h4.15c.18.68.38,1.42.62,2.22.24.8.49,1.6.75,2.42.26.81.53,1.61.8,2.38.27.77.53,1.47.78,2.1.23-.63.47-1.33.71-2.1.25-.77.49-1.56.73-2.38.24-.81.47-1.62.69-2.42.22-.8.42-1.54.59-2.22h4.05Z" style="fill: #a3ea2a; stroke-width: 0px;"/>
    </g>
  </g>
  <rect x="1166.09" y="95.66" width="270.2" height="56.08" rx="7.48" ry="7.48" style="fill: #223654; stroke-width: 0px;"/>
  <g>
    <path d="m1184.76,134.14c-1,0-1.99-.03-2.98-.09-.99-.06-2.02-.21-3.09-.43v-17.66c.84-.16,1.76-.28,2.76-.36,1-.08,1.93-.12,2.79-.12,1.16,0,2.22.08,3.19.25.97.17,1.81.45,2.51.85.7.4,1.25.93,1.64,1.59s.59,1.47.59,2.43c0,1.45-.7,2.6-2.1,3.44,1.16.44,1.94,1.03,2.37,1.79.42.75.63,1.6.63,2.55,0,1.91-.7,3.35-2.09,4.31-1.39.96-3.46,1.45-6.22,1.45Zm-2.08-11.3h2c1.26,0,2.16-.16,2.71-.49s.82-.85.82-1.56-.28-1.25-.84-1.55c-.56-.3-1.38-.45-2.47-.45-.35,0-.73,0-1.13.01-.4,0-.76.03-1.08.07v3.97Zm0,3.13v4.7c.3.04.62.06.97.08s.74.03,1.16.03c1.23,0,2.22-.17,2.97-.53.75-.35,1.13-1,1.13-1.95,0-.84-.32-1.44-.95-1.8-.63-.36-1.53-.54-2.71-.54h-2.58Z" style="fill: #a3ea2a; stroke-width: 0px;"/>
    <path d="m1201.05,119.71c1.16,0,2.12.13,2.89.39.77.26,1.39.64,1.85,1.13.46.49.79,1.09.99,1.79.19.7.29,1.48.29,2.34v8.15c-.56.12-1.34.27-2.34.43-1,.17-2.21.25-3.63.25-.89,0-1.7-.08-2.43-.24-.73-.16-1.35-.42-1.88-.78-.53-.36-.93-.83-1.21-1.41-.28-.58-.42-1.29-.42-2.13s.16-1.49.49-2.05c.32-.56.76-1.01,1.3-1.34s1.17-.57,1.87-.72c.7-.15,1.43-.22,2.18-.22.51,0,.96.02,1.35.07.39.04.71.1.96.17v-.37c0-.67-.2-1.2-.6-1.6-.4-.4-1.1-.6-2.1-.6-.67,0-1.32.05-1.97.14-.65.1-1.21.23-1.68.41l-.5-3.15c.23-.07.51-.14.85-.22s.71-.15,1.12-.21c.4-.06.83-.11,1.27-.16.45-.04.9-.07,1.35-.07Zm.32,11.46c.39,0,.75,0,1.1-.03.35-.02.63-.04.84-.08v-2.97c-.16-.04-.39-.07-.71-.11s-.6-.05-.87-.05c-.37,0-.71.02-1.04.07-.33.04-.61.13-.85.25-.25.12-.44.29-.58.5-.14.21-.21.47-.21.79,0,.61.21,1.04.62,1.27.41.24.98.36,1.7.36Z" style="fill: #a3ea2a; stroke-width: 0px;"/>
    <path d="m1209.96,126.99c0-1,.16-1.94.49-2.82.32-.88.79-1.66,1.41-2.31s1.36-1.18,2.23-1.56c.88-.39,1.88-.58,3-.58.74,0,1.41.07,2.02.2.61.13,1.21.32,1.79.56l-.81,3.13c-.37-.14-.77-.26-1.21-.37-.44-.1-.93-.16-1.47-.16-1.16,0-2.02.36-2.59,1.08-.57.72-.85,1.66-.85,2.84,0,1.25.27,2.21.8,2.89s1.47,1.03,2.8,1.03c.47,0,.98-.04,1.52-.13.54-.09,1.04-.23,1.5-.42l.55,3.21c-.46.19-1.02.36-1.71.5-.68.14-1.44.21-2.26.21-1.26,0-2.35-.19-3.26-.57s-1.66-.89-2.25-1.54-1.02-1.42-1.29-2.3c-.27-.88-.41-1.84-.41-2.88Z" style="fill: #a3ea2a; stroke-width: 0px;"/>
    <path d="m1227.68,125.04c.39-.42.78-.85,1.2-1.31.41-.45.81-.9,1.19-1.35.39-.44.75-.87,1.09-1.27.34-.4.63-.75.88-1.04h4.66c-.93,1.07-1.83,2.08-2.72,3.05-.89.97-1.85,1.97-2.9,3,.53.47,1.07,1.04,1.63,1.7.56.66,1.1,1.34,1.63,2.04s1.01,1.4,1.45,2.11c.44.7.81,1.34,1.1,1.92h-4.5c-.28-.46-.6-.96-.96-1.51-.36-.55-.74-1.11-1.14-1.66-.4-.55-.83-1.08-1.27-1.59-.45-.51-.89-.94-1.33-1.29v6.06h-3.92v-19.77l3.92-.63v11.54Z" style="fill: #a3ea2a; stroke-width: 0px;"/>
    <path d="m1236.64,124.28h7.62v3.55h-7.62v-3.55Z" style="fill: #a3ea2a; stroke-width: 0px;"/>
    <path d="m1246.42,127.09c0-1.23.19-2.3.57-3.22.38-.92.87-1.69,1.49-2.3.61-.61,1.32-1.08,2.12-1.39.8-.32,1.62-.47,2.46-.47,1.96,0,3.51.6,4.65,1.8,1.14,1.2,1.71,2.97,1.71,5.3,0,.23,0,.48-.03.75s-.04.51-.05.72h-8.88c.09.81.46,1.45,1.13,1.92.67.47,1.56.71,2.68.71.72,0,1.42-.07,2.12-.2.69-.13,1.26-.29,1.7-.49l.53,3.18c-.21.1-.49.21-.84.32-.35.1-.74.2-1.17.28-.43.08-.89.14-1.38.2-.49.05-.98.08-1.47.08-1.25,0-2.33-.18-3.25-.55-.92-.37-1.68-.87-2.29-1.51s-1.05-1.4-1.34-2.27-.43-1.82-.43-2.84Zm9.2-1.5c-.02-.33-.08-.66-.17-.97-.1-.32-.25-.6-.45-.84s-.46-.45-.76-.6c-.31-.16-.69-.24-1.14-.24s-.82.08-1.13.22c-.32.15-.58.35-.79.59s-.37.53-.49.85c-.11.32-.2.65-.25.99h5.18Z" style="fill: #a3ea2a; stroke-width: 0px;"/>
    <path d="m1262.43,120.55c.67-.19,1.52-.37,2.58-.54,1.05-.17,2.16-.25,3.31-.25s2.15.15,2.93.46,1.4.74,1.85,1.3c.46.56.78,1.23.97,2,.19.77.29,1.63.29,2.58v7.81h-3.92v-7.33c0-1.26-.17-2.15-.5-2.68-.33-.53-.96-.79-1.87-.79-.28,0-.58.01-.89.04s-.6.06-.84.09v10.67h-3.92v-13.35Z" style="fill: #a3ea2a; stroke-width: 0px;"/>
    <path d="m1290.1,133.46c-.35.11-.75.21-1.21.3-.46.1-.93.18-1.43.25-.5.07-1.01.13-1.52.17-.52.04-1.01.07-1.49.07-1.14,0-2.16-.17-3.05-.5-.89-.33-1.65-.81-2.26-1.43s-1.08-1.38-1.41-2.26-.49-1.88-.49-2.98.14-2.13.42-3.04c.28-.9.68-1.67,1.21-2.3s1.17-1.11,1.93-1.45c.76-.33,1.63-.5,2.62-.5.54,0,1.03.05,1.46.16s.86.25,1.3.45v-6.26l3.92-.63v19.95Zm-8.86-6.57c0,1.21.27,2.18.82,2.92.54.74,1.35,1.1,2.42,1.1.35,0,.67-.01.97-.04.3-.03.54-.06.74-.09v-7.12c-.25-.16-.56-.29-.96-.39-.39-.1-.79-.16-1.2-.16-1.86,0-2.79,1.26-2.79,3.78Z" style="fill: #a3ea2a; stroke-width: 0px;"/>
    <path d="m1305.69,115.48c2.73,0,4.83.49,6.28,1.46,1.45.97,2.18,2.48,2.18,4.53,0,1.28-.29,2.32-.88,3.12-.59.8-1.43,1.42-2.54,1.88.37.46.75.98,1.16,1.56.4.59.8,1.2,1.2,1.84.39.64.78,1.31,1.14,2,.37.69.71,1.37,1.02,2.04h-4.58c-.33-.6-.67-1.2-1.02-1.81s-.69-1.21-1.05-1.79c-.36-.58-.72-1.13-1.07-1.64-.35-.52-.7-.99-1.05-1.41h-2.02v6.65h-4.1v-17.95c.89-.17,1.82-.3,2.77-.37.96-.07,1.81-.11,2.56-.11Zm.24,3.5c-.3,0-.56,0-.8.03-.24.02-.46.04-.67.05v4.94h1.16c1.54,0,2.65-.19,3.31-.58.67-.39,1-1.04,1-1.97s-.34-1.53-1.01-1.91-1.67-.57-2.98-.57Z" style="fill: #a3ea2a; stroke-width: 0px;"/>
    <path d="m1316.31,127.09c0-1.23.19-2.3.57-3.22.38-.92.87-1.69,1.49-2.3.61-.61,1.32-1.08,2.12-1.39.8-.32,1.62-.47,2.46-.47,1.96,0,3.51.6,4.65,1.8,1.14,1.2,1.71,2.97,1.71,5.3,0,.23,0,.48-.03.75s-.04.51-.05.72h-8.88c.09.81.46,1.45,1.13,1.92.67.47,1.56.71,2.68.71.72,0,1.42-.07,2.12-.2.69-.13,1.26-.29,1.7-.49l.53,3.18c-.21.1-.49.21-.84.32-.35.1-.74.2-1.17.28-.43.08-.89.14-1.38.2-.49.05-.98.08-1.47.08-1.25,0-2.33-.18-3.25-.55-.92-.37-1.68-.87-2.29-1.51s-1.05-1.4-1.34-2.27-.43-1.82-.43-2.84Zm9.2-1.5c-.02-.33-.08-.66-.17-.97-.1-.32-.25-.6-.45-.84s-.46-.45-.76-.6c-.31-.16-.69-.24-1.14-.24s-.82.08-1.13.22c-.32.15-.58.35-.79.59s-.37.53-.49.85c-.11.32-.2.65-.25.99h5.18Z" style="fill: #a3ea2a; stroke-width: 0px;"/>
    <path d="m1336.29,131.09c.72,0,1.23-.07,1.52-.21s.45-.41.45-.82c0-.32-.19-.59-.58-.83-.39-.24-.97-.5-1.76-.8-.61-.23-1.17-.46-1.67-.71-.5-.25-.92-.54-1.27-.88s-.62-.75-.81-1.22c-.19-.47-.29-1.04-.29-1.71,0-1.3.48-2.32,1.45-3.08.96-.75,2.29-1.13,3.97-1.13.84,0,1.65.07,2.42.22.77.15,1.38.31,1.84.49l-.68,3.05c-.46-.16-.95-.3-1.49-.42-.54-.12-1.13-.18-1.8-.18-1.23,0-1.84.34-1.84,1.02,0,.16.03.3.08.42.05.12.16.24.32.35.16.11.37.24.64.37s.62.28,1.04.44c.86.32,1.57.63,2.13.94.56.31,1,.64,1.33,1s.55.76.68,1.19c.13.44.2.94.2,1.52,0,1.36-.51,2.4-1.54,3.1s-2.48,1.05-4.35,1.05c-1.23,0-2.25-.11-3.06-.32-.82-.21-1.38-.39-1.7-.53l.66-3.18c.67.26,1.35.47,2.05.62.7.15,1.39.22,2.08.22Z" style="fill: #a3ea2a; stroke-width: 0px;"/>
    <path d="m1358,126.96c0,1.09-.16,2.08-.47,2.98-.32.9-.77,1.67-1.37,2.31s-1.31,1.13-2.14,1.49c-.83.35-1.77.53-2.8.53s-1.94-.18-2.77-.53c-.83-.35-1.55-.85-2.14-1.49s-1.06-1.41-1.39-2.31c-.33-.9-.5-1.9-.5-2.98s.17-2.08.51-2.97c.34-.89.81-1.66,1.42-2.29.61-.63,1.32-1.12,2.16-1.47.83-.35,1.74-.53,2.72-.53s1.91.17,2.75.53c.83.35,1.55.84,2.14,1.47.59.63,1.06,1.39,1.39,2.29.33.89.5,1.88.5,2.97Zm-4,0c0-1.21-.24-2.16-.72-2.85-.48-.69-1.17-1.04-2.06-1.04s-1.59.35-2.08,1.04c-.49.69-.74,1.64-.74,2.85s.25,2.17.74,2.88c.49.71,1.18,1.06,2.08,1.06s1.58-.36,2.06-1.06c.48-.71.72-1.67.72-2.88Z" style="fill: #a3ea2a; stroke-width: 0px;"/>
    <path d="m1372.82,133.43c-.67.19-1.52.37-2.58.54-1.05.17-2.16.25-3.31.25s-2.15-.16-2.93-.47c-.78-.32-1.4-.76-1.85-1.33-.46-.57-.78-1.25-.97-2.04-.19-.79-.29-1.66-.29-2.6v-7.7h3.92v7.23c0,1.26.17,2.17.5,2.73.33.56.96.84,1.87.84.28,0,.58-.01.89-.04s.6-.06.84-.09v-10.67h3.92v13.35Z" style="fill: #a3ea2a; stroke-width: 0px;"/>
    <path d="m1384.83,123.55c-.35-.09-.76-.18-1.24-.28-.47-.1-.98-.14-1.52-.14-.25,0-.54.02-.88.07-.34.04-.6.09-.78.14v10.57h-3.92v-13.09c.7-.25,1.53-.48,2.48-.7.95-.22,2.02-.33,3.19-.33.21,0,.46.01.76.04s.6.06.89.1c.3.04.6.1.89.16.3.06.55.14.76.22l-.66,3.23Z" style="fill: #a3ea2a; stroke-width: 0px;"/>
    <path d="m1386.67,126.99c0-1,.16-1.94.49-2.82.32-.88.79-1.66,1.41-2.31s1.36-1.18,2.23-1.56c.88-.39,1.88-.58,3-.58.74,0,1.41.07,2.02.2.61.13,1.21.32,1.79.56l-.81,3.13c-.37-.14-.77-.26-1.21-.37-.44-.1-.93-.16-1.47-.16-1.16,0-2.02.36-2.59,1.08-.57.72-.85,1.66-.85,2.84,0,1.25.27,2.21.8,2.89s1.47,1.03,2.8,1.03c.47,0,.98-.04,1.52-.13.54-.09,1.04-.23,1.5-.42l.55,3.21c-.46.19-1.02.36-1.71.5-.68.14-1.44.21-2.26.21-1.26,0-2.35-.19-3.26-.57s-1.66-.89-2.25-1.54-1.02-1.42-1.29-2.3c-.27-.88-.41-1.84-.41-2.88Z" style="fill: #a3ea2a; stroke-width: 0px;"/>
    <path d="m1399.16,127.09c0-1.23.19-2.3.57-3.22.38-.92.87-1.69,1.49-2.3.61-.61,1.32-1.08,2.12-1.39.8-.32,1.62-.47,2.46-.47,1.96,0,3.51.6,4.65,1.8,1.14,1.2,1.71,2.97,1.71,5.3,0,.23,0,.48-.03.75s-.04.51-.05.72h-8.88c.09.81.46,1.45,1.13,1.92.67.47,1.56.71,2.68.71.72,0,1.42-.07,2.12-.2.69-.13,1.26-.29,1.7-.49l.53,3.18c-.21.1-.49.21-.84.32-.35.1-.74.2-1.17.28-.43.08-.89.14-1.38.2-.49.05-.98.08-1.47.08-1.25,0-2.33-.18-3.25-.55-.92-.37-1.68-.87-2.29-1.51s-1.05-1.4-1.34-2.27-.43-1.82-.43-2.84Zm9.2-1.5c-.02-.33-.08-.66-.17-.97-.1-.32-.25-.6-.45-.84s-.46-.45-.76-.6c-.31-.16-.69-.24-1.14-.24s-.82.08-1.13.22c-.32.15-.58.35-.79.59s-.37.53-.49.85c-.11.32-.2.65-.25.99h5.18Z" style="fill: #a3ea2a; stroke-width: 0px;"/>
    <path d="m1419.13,131.09c.72,0,1.23-.07,1.52-.21s.45-.41.45-.82c0-.32-.19-.59-.58-.83-.39-.24-.97-.5-1.76-.8-.61-.23-1.17-.46-1.67-.71-.5-.25-.92-.54-1.27-.88s-.62-.75-.81-1.22c-.19-.47-.29-1.04-.29-1.71,0-1.3.48-2.32,1.45-3.08.96-.75,2.29-1.13,3.97-1.13.84,0,1.65.07,2.42.22.77.15,1.38.31,1.84.49l-.68,3.05c-.46-.16-.95-.3-1.49-.42-.54-.12-1.13-.18-1.8-.18-1.23,0-1.84.34-1.84,1.02,0,.16.03.3.08.42.05.12.16.24.32.35.16.11.37.24.64.37s.62.28,1.04.44c.86.32,1.57.63,2.13.94.56.31,1,.64,1.33,1s.55.76.68,1.19c.13.44.2.94.2,1.52,0,1.36-.51,2.4-1.54,3.1s-2.48,1.05-4.35,1.05c-1.23,0-2.25-.11-3.06-.32-.82-.21-1.38-.39-1.7-.53l.66-3.18c.67.26,1.35.47,2.05.62.7.15,1.39.22,2.08.22Z" style="fill: #a3ea2a; stroke-width: 0px;"/>
  </g>
  <g id="arrow_styles_for_diagrams_etc-7" data-name="arrow styles for diagrams etc">
    <g id="arrow_styles_for_diagrams_etc-8" data-name="arrow styles for diagrams etc">
      <g id="arrow_styles_for_diagrams_etc-9" data-name="arrow styles for diagrams etc">
        <path d="m1158.09,124.84l-29.85,17.17c-.88.5-1.98-.13-1.98-1.15v-8.85h-63.75c-2.65,0-4.79-2.14-4.79-4.79v-7.03c0-2.64,2.14-4.78,4.78-4.78h63.77v-8.85c0-1.02,1.1-1.65,1.98-1.15l29.85,17.17c.88.5.88,1.77,0,2.27Z" style="fill: url(#linear-gradient-7); stroke-width: 0px;"/>
      </g>
    </g>
  </g>
  <g id="Artwork_35" data-name="Artwork 35" style="opacity: .4;">
    <g>
      <path id="cloud" d="m51.86,119.23c-.59-3.05-3.3-5.37-6.55-5.37h-1.18c-.88-4.36-4.7-7.55-9.2-7.55s-8.35,3.21-9.22,7.59c-3.34.36-5.95,3.17-5.95,6.57,0,3.65,2.99,6.61,6.67,6.61h9.87c.52-.02.93-.46.91-.98-.02-.49-.41-.89-.91-.91h-9.87c-2.64,0-4.78-2.12-4.78-4.72s2.14-4.72,4.78-4.72c.97,0,1.93.3,2.72.86.38.27.89.23,1.22-.09h0c.37-.36.37-.95,0-1.32h0s-.07-.07-.12-.1c-.79-.56-1.69-.94-2.64-1.11.81-3.35,3.79-5.77,7.29-5.77,3.71,0,6.84,2.71,7.41,6.36-.3.15-.59.33-.86.52-.43.3-.52.89-.23,1.32.03.04.06.09.1.12h0c.33.33.84.36,1.22.09.79-.57,1.75-.87,2.72-.86,2.33,0,4.27,1.65,4.69,3.83.09.44.47.77.93.77h0c.52,0,.94-.41.95-.94h0c.01-.06.01-.13,0-.19Z" style="fill: #fff; stroke-width: 0px;"/>
      <g id="numbers">
        <path d="m40.11,125.55h-.81v-2.59s.02-.4.02-.4c-.09.09-.18.18-.28.26l-.44.36-.39-.49,1.24-.99h.67v3.84Z" style="fill: #fff; stroke-width: 0px;"/>
        <path d="m43.84,123.63c0,.67-.11,1.17-.33,1.49s-.56.48-1.02.48-.78-.17-1-.5-.34-.83-.34-1.47.11-1.18.33-1.5.55-.48,1.01-.48.78.17,1,.51c.24.34.35.83.35,1.48Zm-1.88,0c0,.47.04.81.12,1.02s.22.31.41.31.33-.1.41-.31.12-.54.12-1.02-.04-.81-.13-1.02-.22-.31-.41-.31-.33.1-.41.31-.12.54-.12,1.02Z" style="fill: #fff; stroke-width: 0px;"/>
        <path d="m40.11,131.38h-.81v-2.59s.02-.4.02-.4c-.09.09-.18.18-.28.26l-.44.36-.39-.49,1.24-.99h.67v3.84Z" style="fill: #fff; stroke-width: 0px;"/>
        <path d="m43.18,131.38h-.81v-2.59s.02-.4.02-.4c-.09.09-.18.18-.28.26l-.44.36-.39-.49,1.24-.99h.67v3.84h.01Z" style="fill: #fff; stroke-width: 0px;"/>
        <path d="m46.26,131.38h-.81v-2.59s.02-.4.02-.4c-.09.09-.18.18-.28.26l-.44.36-.39-.49,1.24-.99h.67v3.84Z" style="fill: #fff; stroke-width: 0px;"/>
        <path d="m49.99,129.46c0,.67-.11,1.17-.33,1.49s-.56.49-1.02.49-.78-.17-1-.5-.34-.83-.34-1.48.11-1.18.33-1.5.55-.48,1.01-.48.78.17,1,.51c.24.33.36.83.35,1.48Zm-1.88,0c0,.47.04.81.12,1.02s.22.31.41.31.33-.1.41-.31.12-.54.12-1.01-.04-.81-.13-1.02-.22-.31-.41-.31-.33.1-.41.31-.12.54-.12,1.01Z" style="fill: #fff; stroke-width: 0px;"/>
        <path d="m51.74,134.07c0,.49-.08.85-.24,1.08s-.41.35-.74.35-.57-.12-.73-.36-.25-.6-.25-1.07.08-.86.24-1.09c.16-.23.41-.35.74-.35s.57.12.73.37.25.6.24,1.07Zm-1.37,0c0,.34.03.59.09.74.04.14.16.22.3.22s.23-.07.3-.23.09-.39.09-.73-.03-.59-.09-.74-.16-.23-.3-.23-.24.07-.3.23-.09.39-.09.74h0Z" style="fill: #fff; stroke-width: 0px;"/>
        <path d="m53.5,135.47h-.59v-1.88s.02-.29.02-.29c-.1.1-.17.16-.2.19l-.32.26-.28-.36.9-.71h.49v2.8h0Z" style="fill: #fff; stroke-width: 0px;"/>
        <path d="m39.93,134.1c0,.48-.08.83-.23,1.06s-.4.34-.73.34-.55-.12-.71-.36-.24-.59-.24-1.05.08-.84.23-1.07.39-.34.72-.34.55.12.71.36.25.59.25,1.05Zm-1.34,0c0,.33.03.58.09.72.04.13.16.22.3.22.14,0,.23-.07.29-.22s.09-.39.09-.72-.03-.58-.09-.72-.15-.22-.29-.22-.23.07-.29.22-.1.39-.09.73h0Z" style="fill: #fff; stroke-width: 0px;"/>
        <path d="m41.66,135.47h-.58v-1.84s.02-.28.02-.28c-.1.1-.16.16-.2.19l-.31.25-.28-.35.88-.7h.47v2.73Z" style="fill: #fff; stroke-width: 0px;"/>
        <path d="m44.31,134.1c0,.48-.08.83-.23,1.06s-.4.34-.73.34-.55-.12-.71-.36-.24-.59-.24-1.05.08-.84.23-1.07.39-.34.72-.34.55.12.71.36.25.59.25,1.05Zm-1.34,0c0,.33.03.58.09.72.04.13.16.22.3.22.14,0,.23-.07.29-.22s.09-.39.09-.72-.03-.58-.09-.72-.16-.22-.29-.22-.23.07-.29.22-.1.39-.09.73h0Z" style="fill: #fff; stroke-width: 0px;"/>
        <path d="m46.03,135.47h-.58v-1.84s.02-.28.02-.28c-.1.1-.17.16-.2.19l-.31.25-.28-.35.88-.7h.47v2.74Z" style="fill: #fff; stroke-width: 0px;"/>
        <path d="m39.36,137.59c0,.34-.06.6-.17.76s-.28.25-.52.25c-.2.01-.4-.09-.51-.26-.12-.17-.17-.43-.17-.76,0-.35.06-.6.17-.77s.28-.25.52-.25c.2-.01.4.09.52.26.11.18.17.43.17.76Zm-.97,0c0,.24.02.41.06.52.03.12.15.18.26.15h0c.07-.02.13-.07.15-.15.04-.1.06-.28.06-.52,0-.18-.01-.36-.07-.52-.03-.11-.15-.18-.26-.15h-.01c-.07.02-.13.07-.15.15-.04.18-.06.35-.06.53Z" style="fill: #fff; stroke-width: 0px;"/>
        <path d="m40.6,138.58h-.42v-1.32s.01-.2.01-.2c-.07.07-.12.12-.14.14l-.23.18-.2-.25.63-.51h.34v1.97Z" style="fill: #fff; stroke-width: 0px;"/>
        <path d="m44.83,140.05c0,.34-.06.6-.17.76s-.29.25-.52.25c-.2.01-.4-.09-.51-.26-.12-.17-.17-.43-.17-.76s.06-.6.17-.77.28-.25.52-.25c.2-.01.4.09.52.26.12.18.18.43.18.76Zm-.96,0c0,.24.02.41.06.52.03.11.15.18.26.15h.01c.07-.02.13-.07.15-.15.04-.1.06-.28.06-.52,0-.18-.01-.36-.07-.52-.02-.09-.11-.16-.21-.16s-.18.06-.21.16c-.04.1-.06.27-.06.52Z" style="fill: #fff; stroke-width: 0px;"/>
        <path d="m46.07,141.03h-.42v-1.32s.01-.2.01-.2c-.07.07-.12.12-.14.14l-.23.18-.2-.25.63-.51h.34v1.97Z" style="fill: #fff; stroke-width: 0px;"/>
        <path d="m49.35,137.21c0,.48-.08.83-.23,1.06s-.4.34-.73.34-.55-.12-.71-.36-.24-.59-.24-1.05.08-.84.23-1.07.39-.34.72-.34.55.12.71.36.25.59.25,1.05Zm-1.34,0c0,.34.03.58.09.72.04.13.16.22.3.22.14,0,.23-.07.29-.22s.09-.39.09-.72-.03-.58-.09-.73-.16-.22-.3-.22-.23.07-.29.22-.09.4-.09.73h0Z" style="fill: #fff; stroke-width: 0px;"/>
        <path d="m51.07,138.58h-.58v-1.84s.02-.28.02-.28c-.1.1-.16.16-.2.19l-.31.25-.28-.35.88-.7h.47v2.74h0Z" style="fill: #fff; stroke-width: 0px;"/>
        <path d="m53.72,137.21c0,.48-.08.83-.23,1.06s-.4.34-.73.34-.55-.12-.71-.36-.24-.59-.24-1.05.08-.84.23-1.07.39-.34.72-.34.55.12.71.36.25.59.25,1.05Zm-1.34,0c0,.34.03.58.09.72.04.13.16.22.3.22.14,0,.23-.07.29-.22s.09-.39.09-.72-.03-.58-.09-.73-.16-.22-.29-.22-.23.07-.29.22-.09.4-.09.73h0Z" style="fill: #fff; stroke-width: 0px;"/>
        <path d="m49.52,125.55h-.81v-2.59s.02-.4.02-.4c-.09.09-.18.18-.28.26l-.44.36-.39-.49,1.24-.99h.67v3.84h0Z" style="fill: #fff; stroke-width: 0px;"/>
        <path d="m53.26,123.63c0,.67-.11,1.17-.33,1.49s-.56.48-1.02.48-.78-.17-1-.5-.34-.83-.34-1.47.11-1.18.33-1.5.55-.48,1.01-.48.78.17,1,.51.34.83.35,1.48Zm-1.88,0c0,.47.04.81.12,1.02s.22.31.41.31.33-.1.41-.31.12-.54.12-1.02-.04-.81-.13-1.02-.22-.31-.41-.31-.33.1-.41.31-.12.54-.12,1.02h0Z" style="fill: #fff; stroke-width: 0px;"/>
      </g>
    </g>
  </g>
<script xmlns="" id="bw-fido2-page-script"/></svg>