<?xml version="1.0" encoding="UTF-8"?>
<svg id="Layer_1" data-name="Layer 1" xmlns="http://www.w3.org/2000/svg" width="987.25" height="800" xmlns:xlink="http://www.w3.org/1999/xlink" viewBox="0 0 987.25 800">
  <defs>
    <radialGradient id="radial-gradient" cx="-310.04" cy="1211.07" fx="-310.04" fy="1211.07" r="252.52" gradientTransform="translate(1492.66 709.5) rotate(90)" gradientUnits="userSpaceOnUse">
      <stop offset="0" stop-color="#fff"/>
      <stop offset="1" stop-color="#dead0a"/>
    </radialGradient>
    <linearGradient id="linear-gradient" x1="-89.63" y1="1699.04" x2="339.55" y2="1699.04" gradientTransform="translate(1847.61 1170.73) rotate(130.55)" gradientUnits="userSpaceOnUse">
      <stop offset=".4" stop-color="#223654"/>
      <stop offset=".45" stop-color="#38554c"/>
      <stop offset=".54" stop-color="#5e8940"/>
      <stop offset=".62" stop-color="#7bb336"/>
      <stop offset=".7" stop-color="#91d12f"/>
      <stop offset=".76" stop-color="#9ee32b"/>
      <stop offset=".81" stop-color="#a3ea2a"/>
    </linearGradient>
    <linearGradient id="linear-gradient-2" x1="-109.97" y1="1601.98" x2="319.21" y2="1601.98" gradientTransform="translate(1478.71 1558.67) rotate(149.59)" gradientUnits="userSpaceOnUse">
      <stop offset=".49" stop-color="#223654"/>
      <stop offset=".53" stop-color="#38554c"/>
      <stop offset=".6" stop-color="#5e8940"/>
      <stop offset=".66" stop-color="#7bb336"/>
      <stop offset=".72" stop-color="#91d12f"/>
      <stop offset=".77" stop-color="#9ee32b"/>
      <stop offset=".81" stop-color="#a3ea2a"/>
    </linearGradient>
    <linearGradient id="linear-gradient-3" x1="-140.29" y1="1524.5" x2="288.9" y2="1524.5" gradientTransform="translate(1115.27 1758.97) rotate(165.07)" xlink:href="#linear-gradient-2"/>
    <linearGradient id="linear-gradient-4" x1="-155.85" y1="1437.46" x2="273.34" y2="1437.46" gradientTransform="translate(744.69 1839.79) rotate(-180)" xlink:href="#linear-gradient-2"/>
    <linearGradient id="linear-gradient-5" x1="40.18" y1="1254.55" x2="253.96" y2="1254.55" gradientTransform="translate(334.78 1830.71) rotate(-161.26)" gradientUnits="userSpaceOnUse">
      <stop offset=".56" stop-color="#223654"/>
      <stop offset=".59" stop-color="#38554c"/>
      <stop offset=".64" stop-color="#5e8940"/>
      <stop offset=".69" stop-color="#7bb336"/>
      <stop offset=".74" stop-color="#91d12f"/>
      <stop offset=".78" stop-color="#9ee32b"/>
      <stop offset=".81" stop-color="#a3ea2a"/>
    </linearGradient>
    <linearGradient id="linear-gradient-6" x1="133.71" y1="1153.68" x2="269.71" y2="1153.68" gradientTransform="translate(-168.25 1633.28) rotate(-134.47)" gradientUnits="userSpaceOnUse">
      <stop offset=".61" stop-color="#223654"/>
      <stop offset=".63" stop-color="#38554c"/>
      <stop offset=".68" stop-color="#5e8940"/>
      <stop offset=".72" stop-color="#7bb336"/>
      <stop offset=".75" stop-color="#91d12f"/>
      <stop offset=".79" stop-color="#9ee32b"/>
      <stop offset=".81" stop-color="#a3ea2a"/>
    </linearGradient>
    <linearGradient id="linear-gradient-7" x1="-108" y1="1346.74" x2="244.26" y2="1346.74" gradientTransform="translate(555.2 1842.1) rotate(-172.13)" gradientUnits="userSpaceOnUse">
      <stop offset=".53" stop-color="#223654"/>
      <stop offset=".56" stop-color="#38554c"/>
      <stop offset=".62" stop-color="#5e8940"/>
      <stop offset=".68" stop-color="#7bb336"/>
      <stop offset=".73" stop-color="#91d12f"/>
      <stop offset=".78" stop-color="#9ee32b"/>
      <stop offset=".81" stop-color="#a3ea2a"/>
    </linearGradient>
  </defs>
  <g>
    <g>
      <path d="m480.14,581.89c-40.46,67.88-114.51,89.83-198.82,84.34-84.31-5.49-145.12-34.04-180.77-78.61-35.66-44.57-62.68-157.95-53.76-222.4,8.91-64.45,44.57-98.74,72-151.54s104.91-93.25,181.02-78.85c76.11,14.4,110.4,44.57,130.28,68.57s54.56,65.27,60.73,87.21c6.17,21.94,21.81,92.75,24.47,112.17,6.17,45.1,5.31,111.24-35.14,179.12Z" style="fill: #d4d8df;"/>
      <path d="m538.42,493.44c-2.74,34.28-4.8,68.57-20.32,79.54-15.52,10.97-29.74,48-51.68,67.88-21.94,19.88-50.06,26.06-67.2,38.4-17.14,12.34-36.34,17.83-50.06,14.4-13.71-3.43-41.14,6.86-102.85,0-61.71-6.86-117.25-34.97-138.51-56.23-21.26-21.26-22.63-37.71-54.17-78.17-31.54-40.46-43.88-125.48-39.08-142.62,4.8-17.14,9.6-44.57,9.6-61.03s-2.06-34.97,20.91-80.91c22.97-45.94,40.11-56.91,50.4-68.57,10.29-11.66,6.86-21.94,40.46-52.8,33.6-30.86,93.25-44.57,111.77-43.2s50.06-6.86,61.03-6.17c10.97.69,41.14,23.31,67.88,23.31s61.03,36.34,62.4,52.11c1.37,15.77,31.54,37.03,46.63,45.26s26.06,32.91,26.06,55.54,22.57,55.22,26.74,75.43c17.83,86.4,2.74,103.54,0,137.82Zm-9.84-90.48c-2.81-20.52-19.34-95.36-25.86-118.55-6.52-23.19-43.17-66.81-64.19-92.18-21.02-25.37-57.25-57.25-137.7-72.47-80.44-15.22-162.34,27.54-191.33,83.34-28.99,55.8-66.67,92.04-76.1,160.16-9.42,68.12,19.14,187.96,56.82,235.06,37.69,47.11,101.95,77.29,191.06,83.09,89.11,5.8,167.38-17.39,210.14-89.14,42.76-71.75,43.67-141.65,37.14-189.31Z" style="fill: #ecbb0a;"/>
      <path d="m480.14,581.89c-40.46,67.88-114.51,89.83-198.82,84.34-84.31-5.49-145.12-34.04-180.77-78.61-35.66-44.57-62.68-157.95-53.76-222.4,8.91-64.45,44.57-98.74,72-151.54s104.91-93.25,181.02-78.85c76.11,14.4,110.4,44.57,130.28,68.57s54.56,65.27,60.73,87.21c6.17,21.94,21.81,92.75,24.47,112.17,6.17,45.1,5.31,111.24-35.14,179.12Zm48.45-178.93c-2.81-20.52-19.34-95.36-25.86-118.55-6.52-23.19-43.17-66.81-64.19-92.18-21.02-25.37-57.25-57.25-137.7-72.47-80.44-15.22-162.34,27.54-191.33,83.34-28.99,55.8-66.67,92.04-76.1,160.16-9.42,68.12,19.14,187.96,56.82,235.06,37.69,47.11,101.95,77.29,191.06,83.09,89.11,5.8,167.38-17.39,210.14-89.14,42.76-71.75,43.67-141.65,37.14-189.31Z" style="fill: #ecbb0a;"/>
      <g style="opacity: .2;">
        <path d="m352.38,399.46c-5.48-42.52-37.5-72.81-67.83-70.05-30.33,2.76-60.11,36.4-54.59,97.06,5.51,60.66,41.58,68.79,77.2,63.97,35.62-4.83,49.88-54.79,45.22-90.97Z" style="fill: #ecbb0a;"/>
        <path d="m351.94,399.52c-2.28-18.68-11.52-36.59-25.34-49.16-13.09-12.07-30.86-20.21-48.6-15.98-18.08,4.08-32.31,18.32-39.49,35.19-9.31,21.74-8.82,46.58-3.71,69.33,5.2,22.81,16.98,42.35,41.63,46.62,8.72,1.59,17.89,1.51,27.04.53,3.26-.35,6.44-.77,9.53-1.81,9.3-2.91,16.94-10,22.56-17.85,13.3-19.2,19.11-43.66,16.38-66.87h0Zm.89-.12c3.13,27.43.27,62.58-20.17,83.25-7.4,7.42-17.64,12.05-28.12,12.94-9.79,1.15-19.96,1.3-29.99-.86-15.22-2.95-29.18-12.73-36.64-26.38-9.76-17.4-11.09-37.87-10.51-57.39,1.11-24.1,7.1-49.05,23.52-67.56,18.57-20.74,46.35-24.31,68.91-7.29,19.73,15.01,29.71,39.44,33,63.28h0Z" style="fill: #7a1123;"/>
      </g>
      <g style="opacity: .2;">
        <path d="m390.54,388.97c-1.27-40.42-32.89-82.45-66.53-102.99-19.82-12.16-45.26-10.48-67.19-5.75-21.41,4.92-50.3,15.88-62.2,35.34-7.78,14.58-11.96,30.98-13.08,47.45-1.57,27.69,3.48,55.13,3.73,82.94.46,5.52,1.21,11.17,2.68,16.49,7.98,31.85,35.97,54.74,66.29,64.79,6.87,2.19,16.9,5.42,23.84,7.79,19.12,6.32,39.13,11.82,59.23,8.68,19.18-3.18,37.39-14.83,46.62-32.28,18.16-35.24,6.99-84.05,6.6-122.46h0Zm.9-.01c.22,43.7,20.97,103.08-9.64,139.95-13.83,16.07-35,25.25-56.17,25.3-17.32.16-34.44-4.67-50.55-10.27-7.09-2.53-16.75-5.84-23.8-8.2-20.33-7.39-39.38-19.49-52.83-36.65-13.88-17.48-19.48-38.8-18.39-60.88.86-43.73-8.99-82.48,11.32-124.4,8.28-15.16,24.32-25,39.49-32.23,27.47-12.57,67.06-19.93,94.27-3.51,34.6,21.17,65.01,70.18,66.3,110.88h0Z" style="fill: #7a1123;"/>
      </g>
      <g style="opacity: .2;">
        <path d="m430.69,368.01c-9.22-57.04-52.39-117.46-82.72-141.72-30.33-24.26-140.07-11.03-162.13,18.75-22.06,29.78-53.69,75.44-61.01,116.26-7.93,44.22-2.21,130.8,54.49,184.29,56.7,53.49,155.96,58.45,200.63,21.51,44.67-36.95,65.62-106.98,50.73-199.08Z" style="fill: #7a1123;"/>
        <path d="m430.25,368.08c-6.36-36.75-24.58-70.53-46.94-99.98-8.67-11.02-18.15-22.08-28.58-31.47,0,0-3.13-2.84-3.13-2.84l-3.24-2.66c-2.01-1.67-4.15-3.43-6.5-4.61-26.13-13.06-70.55-9.26-98.98-3.93-17.61,3.71-35.92,8.24-50.33,19.33-3.2,2.63-5.5,5.76-8.12,9.22-20.67,27.21-40.42,55.91-52.17,88.21-7.89,21.47-9.39,44.65-8.12,67.33,1.75,29.74,8.71,59.26,21.7,86.1,27.17,57.59,81.68,89.44,144.27,93.07,32.64,1.64,68.43-4.08,92.93-27.32,50.7-47.46,57.73-125.31,47.2-190.46h0Zm.89-.14c8.93,55.98,9.46,118.94-20.2,169.15-9.11,15.15-21.13,29.15-35.88,39.14-20.68,13.49-45.64,18.81-70.04,19.51-96.92.68-166.43-58.76-181.39-154.32-4.72-29.95-5.3-61.05,2.15-90.55,10.69-37.59,32.69-70.77,54.65-102.65,1.7-2.36,3.17-4.67,5.29-7.14,1.97-2.29,4.4-4.33,6.77-6.2,32.13-22.91,98.07-30.74,136.03-21.25,8.61,2.23,17.65,5.89,24.28,12.26,0,0,3.31,2.93,3.31,2.93l3.12,3.09c1.78,1.66,4.38,4.48,6.06,6.32,31.53,35.28,57.49,83.01,65.85,129.71h0Z" style="fill: #7a1123;"/>
      </g>
      <g style="opacity: .2;">
        <path d="m478.22,360.91c-8.37-45.85-51.74-119.6-84.43-152.97-9.99-10.46-23.17-16.82-36.45-22.21-49.87-19.15-114.96-26.41-163.52-.46-.92.49-5.02,2.9-5.85,3.35-3.93,2.54-8.46,5.68-12.21,8.57-12.97,10.05-24.89,21.56-35.22,34.32-13.96,17.04-25.29,36.13-34.69,56.03-12.67,26.68-21.69,54.85-31.96,82.51-16.28,49.14,12.17,123.93,36.88,167.17,10.52,17.86,22.19,35.5,37.62,49.48,15.62,13.6,34.4,23.33,53.72,30.58,74.87,27.45,181.48,24.85,238.99-36.72,52.63-57.45,48.76-147.53,37.12-219.67h0Zm.89-.15c10.46,63.86,17.52,140.7-14.26,199.53-32.61,60.09-101.61,83.38-166.64,83.31-45.81-.1-95.5-11.25-134.72-35.46-12.89-7.95-24.81-17.94-34.24-29.88-23.31-29.29-39.58-63.66-50.91-99.18-8.69-28.38-15-58.27-12.2-88.09.77-7.45,2.22-14.89,4.87-21.98,5.39-13.76,10.19-27.7,15.38-41.57,18.25-50.39,43.29-100.48,85.71-134.82,3.79-3.11,8.4-6.55,12.44-9.33,0,0,1.21-.75,1.21-.75l4.85-2.98c9.86-5.64,20.49-9.99,31.43-13.04,49.76-13.82,116.9-2.83,160.6,24.42,5.63,3.6,10.77,8.09,15.27,13.01,19.94,22.21,34.94,48.18,48.98,74.34,13.36,26.29,26.53,53.33,32.22,82.47h0Z" style="fill: #7a1123;"/>
      </g>
      <path d="m538.42,493.44c-2.74,34.28-4.8,68.57-20.32,79.54-15.52,10.97-29.74,48-51.68,67.88-21.94,19.88-50.06,26.06-67.2,38.4-17.14,12.34-36.34,17.83-50.06,14.4-13.71-3.43-41.14,6.86-102.85,0-61.71-6.86-117.25-34.97-138.51-56.23-21.26-21.26-22.63-37.71-54.17-78.17-31.54-40.46-43.88-125.48-39.08-142.62,4.8-17.14,9.6-44.57,9.6-61.03s-2.06-34.97,20.91-80.91c22.97-45.94,40.11-56.91,50.4-68.57,10.29-11.66,6.86-21.94,40.46-52.8,33.6-30.86,93.25-44.57,111.77-43.2s50.06-6.86,61.03-6.17c10.97.69,41.14,23.31,67.88,23.31s61.03,36.34,62.4,52.11c1.37,15.77,31.54,37.03,46.63,45.26s26.06,32.91,26.06,55.54,22.57,55.22,26.74,75.43c17.83,86.4,2.74,103.54,0,137.82Zm-9.84-90.48c-2.81-20.52-19.34-95.36-25.86-118.55-6.52-23.19-43.17-66.81-64.19-92.18-21.02-25.37-57.25-57.25-137.7-72.47-80.44-15.22-162.34,27.54-191.33,83.34-28.99,55.8-66.67,92.04-76.1,160.16-9.42,68.12,19.14,187.96,56.82,235.06,37.69,47.11,101.95,77.29,191.06,83.09,89.11,5.8,167.38-17.39,210.14-89.14,42.76-71.75,43.67-141.65,37.14-189.31Z" style="fill: #7a1123; opacity: .6;"/>
      <path d="m480.14,581.89c-40.46,67.88-114.51,89.83-198.82,84.34-84.31-5.49-145.12-34.04-180.77-78.61-35.66-44.57-62.68-157.95-53.76-222.4,8.91-64.45,44.57-98.74,72-151.54s104.91-93.25,181.02-78.85c76.11,14.4,110.4,44.57,130.28,68.57s54.56,65.27,60.73,87.21c6.17,21.94,21.81,92.75,24.47,112.17,6.17,45.1,5.31,111.24-35.14,179.12Zm48.45-178.93c-2.81-20.52-19.34-95.36-25.86-118.55-6.52-23.19-43.17-66.81-64.19-92.18-21.02-25.37-57.25-57.25-137.7-72.47-80.44-15.22-162.34,27.54-191.33,83.34-28.99,55.8-66.67,92.04-76.1,160.16-9.42,68.12,19.14,187.96,56.82,235.06,37.69,47.11,101.95,77.29,191.06,83.09,89.11,5.8,167.38-17.39,210.14-89.14,42.76-71.75,43.67-141.65,37.14-189.31Z" style="fill: #7a1123; opacity: .3;"/>
      <path d="m480.14,581.89c-40.46,67.88-114.51,89.83-198.82,84.34-84.31-5.49-145.12-34.04-180.77-78.61-35.66-44.57-62.68-157.95-53.76-222.4,8.91-64.45,44.57-98.74,72-151.54s104.91-93.25,181.02-78.85c76.11,14.4,110.4,44.57,130.28,68.57s54.56,65.27,60.73,87.21c6.17,21.94,21.81,92.75,24.47,112.17,6.17,45.1,5.31,111.24-35.14,179.12Z" style="fill: url(#radial-gradient); opacity: .4;"/>
      <polygon points="179.33 319.36 286.8 392.53 286.8 363.95 298.81 392.53 376.55 331.93 311.38 402.77 363.98 418.83 311.38 418.83 356.55 514.87 296.52 425.12 255.36 572.03 281.58 430.83 248.5 438.84 281.58 412.54 179.33 319.36" style="fill: #151c2b;"/>
      <path d="m273.23,695.75c-2.54-2.96,5.06-25.72,4.71-34.62-.37-9.44.3-29.74,2.33-31.63,0,0-16.86,13.69-16.86,25.96s-7.08,24.34-9.44,26.8c-2.36,2.46-12.79,10.73-12.84,10.76,1.72.23,3.45.44,5.18.63,9.81,1.09,18.75,1.74,26.91,2.09Z" style="fill: #151c2b; opacity: .7;"/>
      <path d="m86.68,509.45c8.42-5.76,42.52-27.02,49.61-33.66,7.09-6.64,43.04-12.85,43.04-12.85,0,0-33.29,2.21-41.27,3.1-7.97.89-41.64,26.58-50.05,33.22-8.41,6.64-45.29,5.89-57.7,14.36,1.79,5.08,3.73,10.07,5.81,14.89,6.15-7.94,42.14-13.31,50.55-19.07Z" style="fill: #151c2b; opacity: .7;"/>
      <path d="m512.69,289.27s-32.15,22.98-36.87,30.09c-4.72,7.11-69.39,34.96-69.39,34.96,0,0,48.15-14.63,63.72-16.99,15.58-2.36,16.52-5.66,24.07-12.74,4.7-4.4,16.51-11.36,24.77-15.99-2.75-6.65-5.06-13.2-6.31-19.32h0Z" style="fill: #151c2b; opacity: .7;"/>
      <g style="opacity: .2;">
        <path d="m455.6,372.29c-15.03-116.61-102.84-199.68-186.02-192.12-83.18,7.56-182.84,109.11-171.54,247.45,13.6,166.49,135.85,207.4,233.55,194.17,97.69-13.23,136.81-150.26,124.01-249.49Z" style="fill: #ecbb0a;"/>
        <path d="m455.15,372.34c-8.2-65.21-43.36-128.19-98.85-164.29-21.66-13.93-46.78-23.46-72.65-24.3-25.91-.99-51.54,7.49-73.92,20.27-45.78,26.24-80.29,70.53-97.44,120.22-16.61,46.85-16.41,98.3-4.79,146.28,18.65,78.21,71.33,132.97,151.94,145.68,19.27,3.19,38.94,3.84,58.42,2.22,12.94-.97,25.53-2.82,37.54-7.64,81.6-33.14,110.57-158.83,99.76-238.44h0Zm.89-.12c10.54,83.6-10.37,210.71-97.22,247.16-28.77,11.62-70.55,11.2-100.96,6.25-78.9-13.23-134.94-66.49-153.82-143.98-9.59-38.97-11.9-80.04-4.61-119.59,12.06-65.62,50.1-127.66,107.12-163.39,20.14-12.46,43.19-21.28,67.05-22.77,30.86-1.84,61.55,8.74,86.7,26.14,55.65,38.57,87.09,104.42,95.74,170.19h0Z" style="fill: #7a1123;"/>
      </g>
    </g>
    <g>
      <rect x="500.16" y="60.83" width="247.17" height="71.42" rx="9.72" ry="9.72" style="fill: #223654;"/>
      <g>
        <path d="m570.64,89.22v3.19h-5.02v13.44h-3.74v-13.44h-5.02v-3.19h13.78Z" style="fill: #a3ea2a;"/>
        <path d="m576.71,89.58c0,.66-.21,1.17-.64,1.55-.42.38-.92.56-1.5.56s-1.08-.19-1.5-.56c-.42-.38-.64-.89-.64-1.55s.21-1.17.64-1.55.92-.56,1.5-.56,1.08.19,1.5.56.64.89.64,1.55Zm-.34,16.27h-3.58v-12.62h3.58v12.62Z" style="fill: #a3ea2a;"/>
        <path d="m586.67,99.15c0-1.15-.15-1.97-.44-2.45s-.8-.72-1.52-.72c-.22,0-.46.01-.7.04s-.47.05-.7.08v9.74h-3.58v-12.19c.3-.08.66-.16,1.07-.25s.84-.17,1.3-.24c.46-.07.92-.13,1.4-.17.48-.04.95-.06,1.42-.06.91,0,1.65.12,2.22.35.57.23,1.04.51,1.4.83.51-.37,1.1-.66,1.76-.86.66-.21,1.28-.31,1.84-.31,1.01,0,1.84.14,2.48.42.65.28,1.16.68,1.55,1.19.38.51.65,1.12.79,1.82.14.7.22,1.49.22,2.35v7.13h-3.58v-6.7c0-1.15-.15-1.97-.44-2.45-.3-.48-.8-.72-1.52-.72-.19,0-.46.05-.8.14-.34.1-.63.22-.85.36.11.37.18.76.22,1.16.03.41.05.84.05,1.31v6.89h-3.58v-6.7Z" style="fill: #a3ea2a;"/>
        <path d="m599.82,99.63c0-1.12.17-2.1.52-2.94.34-.84.8-1.54,1.36-2.1.56-.56,1.2-.98,1.93-1.27.73-.29,1.48-.43,2.24-.43,1.79,0,3.21.55,4.25,1.64,1.04,1.1,1.56,2.71,1.56,4.84,0,.21,0,.44-.02.68-.02.25-.03.47-.05.66h-8.11c.08.74.42,1.32,1.03,1.75.61.43,1.42.65,2.45.65.66,0,1.3-.06,1.93-.18s1.15-.27,1.55-.44l.48,2.9c-.19.1-.45.19-.77.29s-.68.18-1.07.25c-.39.07-.81.13-1.26.18-.45.05-.9.07-1.34.07-1.14,0-2.12-.17-2.96-.5s-1.54-.8-2.09-1.38-.96-1.28-1.22-2.08c-.26-.8-.4-1.66-.4-2.59Zm8.4-1.37c-.02-.3-.07-.6-.16-.89-.09-.29-.22-.54-.41-.77-.18-.22-.42-.41-.7-.55s-.63-.22-1.04-.22-.74.07-1.03.2c-.29.14-.53.32-.72.54-.19.22-.34.48-.44.78-.1.3-.18.6-.23.9h4.73Z" style="fill: #a3ea2a;"/>
        <path d="m624.97,102.99c.53,0,.96-.04,1.31-.13s.62-.21.83-.36c.21-.15.35-.33.43-.54.08-.21.12-.44.12-.7,0-.54-.26-1-.77-1.36-.51-.36-1.39-.75-2.64-1.16-.54-.19-1.09-.41-1.63-.66-.54-.25-1.03-.56-1.46-.94-.43-.38-.78-.83-1.06-1.37-.27-.54-.41-1.19-.41-1.96s.14-1.46.43-2.08c.29-.62.7-1.14,1.22-1.57.53-.43,1.17-.76,1.92-1s1.6-.35,2.54-.35c1.12,0,2.09.12,2.9.36.82.24,1.49.5,2.02.79l-1.08,2.95c-.46-.24-.98-.45-1.55-.64-.57-.18-1.25-.28-2.05-.28-.9,0-1.54.12-1.93.37-.39.25-.59.63-.59,1.14,0,.3.07.56.22.77.14.21.35.4.61.56.26.17.57.32.91.46.34.14.72.28,1.14.42.86.32,1.62.64,2.26.95.64.31,1.17.68,1.6,1.09s.74.9.95,1.46c.21.56.31,1.24.31,2.04,0,1.55-.54,2.76-1.63,3.61-1.09.86-2.73,1.28-4.92,1.28-.74,0-1.4-.04-1.99-.13-.59-.09-1.12-.2-1.57-.32s-.85-.26-1.18-.41-.6-.28-.83-.41l1.06-2.98c.5.27,1.11.52,1.84.73.73.22,1.62.32,2.68.32Z" style="fill: #a3ea2a;"/>
        <path d="m634.04,90.08l3.58-.58v3.72h4.3v2.98h-4.3v4.44c0,.75.13,1.35.4,1.8.26.45.8.67,1.6.67.38,0,.78-.04,1.19-.11.41-.07.78-.17,1.12-.3l.5,2.78c-.43.18-.91.33-1.44.46-.53.13-1.18.19-1.94.19-.98,0-1.78-.13-2.42-.4-.64-.26-1.15-.63-1.54-1.1-.38-.47-.65-1.04-.8-1.72-.15-.67-.23-1.42-.23-2.23v-10.61Z" style="fill: #a3ea2a;"/>
        <path d="m648.87,92.89c1.06,0,1.94.12,2.64.36.7.24,1.27.58,1.69,1.03s.72.99.9,1.63c.18.64.26,1.35.26,2.14v7.44c-.51.11-1.22.24-2.14.4s-2.02.23-3.31.23c-.82,0-1.56-.07-2.22-.22s-1.24-.38-1.72-.71c-.48-.33-.85-.76-1.1-1.28-.26-.53-.38-1.18-.38-1.94s.15-1.36.44-1.87c.3-.51.69-.92,1.19-1.22.5-.3,1.06-.52,1.7-.66.64-.14,1.3-.2,1.99-.2.46,0,.88.02,1.24.06.36.04.65.09.88.16v-.34c0-.61-.18-1.1-.55-1.46-.37-.37-1.01-.55-1.92-.55-.61,0-1.21.04-1.8.13-.59.09-1.1.21-1.54.37l-.46-2.88c.21-.06.47-.13.78-.2.31-.07.65-.14,1.02-.19.37-.06.76-.1,1.16-.14.41-.04.82-.06,1.24-.06Zm.29,10.46c.35,0,.69,0,1.01-.02.32-.02.58-.04.77-.07v-2.71c-.14-.03-.36-.06-.65-.1-.29-.03-.55-.05-.79-.05-.34,0-.65.02-.95.06-.3.04-.56.12-.78.23s-.4.26-.53.46-.19.43-.19.72c0,.56.19.95.56,1.16.38.22.89.32,1.55.32Z" style="fill: #a3ea2a;"/>
        <path d="m664.55,99.15c0-1.15-.15-1.97-.44-2.45s-.8-.72-1.52-.72c-.22,0-.46.01-.7.04s-.47.05-.7.08v9.74h-3.58v-12.19c.3-.08.66-.16,1.07-.25s.84-.17,1.3-.24c.46-.07.92-.13,1.4-.17.48-.04.95-.06,1.42-.06.91,0,1.65.12,2.22.35.57.23,1.04.51,1.4.83.51-.37,1.1-.66,1.76-.86.66-.21,1.28-.31,1.84-.31,1.01,0,1.84.14,2.48.42.65.28,1.16.68,1.55,1.19.38.51.65,1.12.79,1.82.14.7.22,1.49.22,2.35v7.13h-3.58v-6.7c0-1.15-.15-1.97-.44-2.45-.3-.48-.8-.72-1.52-.72-.19,0-.46.05-.8.14-.34.1-.63.22-.85.36.11.37.18.76.22,1.16.03.41.05.84.05,1.31v6.89h-3.58v-6.7Z" style="fill: #a3ea2a;"/>
        <path d="m690.03,99.54c0,.98-.12,1.86-.36,2.66-.24.8-.59,1.49-1.06,2.06s-1.04,1.02-1.73,1.34c-.69.32-1.48.48-2.38.48-.5,0-.96-.05-1.39-.14-.43-.1-.85-.23-1.25-.41v4.75h-3.58v-16.63c.32-.1.69-.19,1.1-.28s.85-.16,1.31-.23.92-.12,1.39-.16c.47-.04.92-.06,1.36-.06,1.04,0,1.97.16,2.78.47s1.5.75,2.06,1.32c.56.57.99,1.26,1.28,2.08s.44,1.73.44,2.74Zm-3.65.1c0-1.1-.25-1.99-.74-2.65-.5-.66-1.23-1-2.21-1-.32,0-.62.01-.89.04s-.5.05-.67.08v6.46c.22.14.52.26.88.36.36.1.72.14,1.09.14,1.7,0,2.54-1.14,2.54-3.43Z" style="fill: #a3ea2a;"/>
      </g>
    </g>
    <g>
      <rect x="666.99" y="263.14" width="247.17" height="71.42" rx="9.72" ry="9.72" style="fill: #223654;"/>
      <g>
        <path d="m758.05,305.3c.53,0,.96-.04,1.31-.13s.62-.21.83-.36c.21-.15.35-.33.43-.54.08-.21.12-.44.12-.7,0-.54-.26-1-.77-1.36-.51-.36-1.39-.75-2.64-1.16-.54-.19-1.09-.41-1.63-.66-.54-.25-1.03-.56-1.46-.94-.43-.38-.78-.83-1.06-1.37-.27-.54-.41-1.19-.41-1.96s.14-1.46.43-2.08c.29-.62.7-1.14,1.22-1.57.53-.43,1.17-.76,1.92-1s1.6-.35,2.54-.35c1.12,0,2.09.12,2.9.36.82.24,1.49.5,2.02.79l-1.08,2.95c-.46-.24-.98-.45-1.55-.64-.57-.18-1.25-.28-2.05-.28-.9,0-1.54.12-1.93.37-.39.25-.59.63-.59,1.14,0,.3.07.56.22.77.14.21.35.4.61.56.26.17.57.32.91.46.34.14.72.28,1.14.42.86.32,1.62.64,2.26.95.64.31,1.17.68,1.6,1.09s.74.9.95,1.46c.21.56.31,1.24.31,2.04,0,1.55-.54,2.76-1.63,3.61-1.09.86-2.73,1.28-4.92,1.28-.74,0-1.4-.04-1.99-.13-.59-.09-1.12-.2-1.57-.32s-.85-.26-1.18-.41-.6-.28-.83-.41l1.06-2.98c.5.27,1.11.52,1.84.73.73.22,1.62.32,2.68.32Z" style="fill: #a3ea2a;"/>
        <path d="m779.05,301.82c0,.99-.14,1.9-.43,2.72s-.7,1.53-1.25,2.11c-.54.58-1.2,1.04-1.96,1.36s-1.61.48-2.56.48-1.77-.16-2.53-.48-1.41-.77-1.96-1.36c-.54-.58-.97-1.29-1.27-2.11-.3-.82-.46-1.73-.46-2.72s.16-1.9.47-2.71c.31-.82.74-1.51,1.3-2.09.55-.58,1.21-1.02,1.97-1.34.76-.32,1.59-.48,2.48-.48s1.75.16,2.51.48c.76.32,1.41.77,1.96,1.34.54.58.97,1.27,1.27,2.09.3.82.46,1.72.46,2.71Zm-3.65,0c0-1.1-.22-1.97-.66-2.6-.44-.63-1.07-.95-1.88-.95s-1.45.32-1.9.95c-.45.63-.67,1.5-.67,2.6s.22,1.98.67,2.63c.45.65,1.08.97,1.9.97s1.44-.32,1.88-.97c.44-.65.66-1.52.66-2.63Z" style="fill: #a3ea2a;"/>
        <path d="m792.58,307.73c-.61.18-1.39.34-2.35.49-.96.15-1.97.23-3.02.23s-1.96-.14-2.68-.43c-.71-.29-1.28-.69-1.69-1.21s-.71-1.14-.89-1.86c-.18-.72-.26-1.51-.26-2.38v-7.03h3.58v6.6c0,1.15.15,1.98.46,2.5s.87.77,1.7.77c.26,0,.53-.01.82-.04s.54-.05.77-.08v-9.74h3.58v12.19Z" style="fill: #a3ea2a;"/>
        <path d="m803.55,298.7c-.32-.08-.7-.16-1.13-.25-.43-.09-.9-.13-1.39-.13-.22,0-.49.02-.8.06-.31.04-.55.08-.71.13v9.65h-3.58v-11.95c.64-.22,1.4-.44,2.27-.64s1.84-.3,2.92-.3c.19,0,.42.01.7.04.27.02.54.06.82.1.27.04.54.09.82.14.27.06.5.12.7.2l-.6,2.95Z" style="fill: #a3ea2a;"/>
        <path d="m805.23,301.85c0-.91.15-1.77.44-2.58.3-.81.72-1.51,1.28-2.11.56-.6,1.24-1.08,2.04-1.43.8-.35,1.71-.53,2.74-.53.67,0,1.29.06,1.85.18.56.12,1.1.29,1.63.52l-.74,2.86c-.34-.13-.7-.24-1.1-.34-.4-.1-.85-.14-1.34-.14-1.06,0-1.84.33-2.36.98s-.78,1.52-.78,2.59c0,1.14.24,2.02.73,2.64s1.34.94,2.56.94c.43,0,.9-.04,1.39-.12.5-.08.95-.21,1.37-.38l.5,2.93c-.42.18-.94.33-1.56.46-.62.13-1.31.19-2.06.19-1.15,0-2.14-.17-2.98-.52-.83-.34-1.52-.81-2.05-1.4-.54-.59-.93-1.29-1.18-2.1-.25-.81-.37-1.68-.37-2.63Z" style="fill: #a3ea2a;"/>
        <path d="m816.63,301.94c0-1.12.17-2.1.52-2.94.34-.84.8-1.54,1.36-2.1.56-.56,1.2-.98,1.93-1.27.73-.29,1.48-.43,2.24-.43,1.79,0,3.21.55,4.25,1.64,1.04,1.1,1.56,2.71,1.56,4.84,0,.21,0,.44-.02.68-.02.25-.03.47-.05.66h-8.11c.08.74.42,1.32,1.03,1.75.61.43,1.42.65,2.45.65.66,0,1.3-.06,1.93-.18s1.15-.27,1.55-.44l.48,2.9c-.19.1-.45.19-.77.29s-.68.18-1.07.25c-.39.07-.81.13-1.26.18-.45.05-.9.07-1.34.07-1.14,0-2.12-.17-2.96-.5s-1.54-.8-2.09-1.38-.96-1.28-1.22-2.08c-.26-.8-.4-1.66-.4-2.59Zm8.4-1.37c-.02-.3-.07-.6-.16-.89-.09-.29-.22-.54-.41-.77-.18-.22-.42-.41-.7-.55s-.63-.22-1.04-.22-.74.07-1.03.2c-.29.14-.53.32-.72.54-.19.22-.34.48-.44.78-.1.3-.18.6-.23.9h4.73Z" style="fill: #a3ea2a;"/>
      </g>
    </g>
    <g>
      <rect x="726.53" y="364.29" width="247.17" height="71.42" rx="9.72" ry="9.72" style="fill: #223654;"/>
      <g>
        <path d="m745.99,409.31v-16.63h11.23v3.14h-7.49v3.26h6.65v3.07h-6.65v4.01h8.04v3.14h-11.78Z" style="fill: #a3ea2a;"/>
        <path d="m765.8,400.23l2.51-3.54h3.7l-4.38,6.14c1,1.15,1.9,2.3,2.67,3.44.78,1.14,1.4,2.16,1.87,3.05h-3.83c-.13-.24-.29-.54-.48-.9-.19-.36-.41-.74-.65-1.13-.24-.39-.49-.72-.75-1-.26-.27-.52-.52-.77-.74-.24.21-.49.44-.74.69-.25.25-.49.56-.71.94-.22.38-.45.75-.66,1.11s-.41.71-.58,1.03h-3.64c.2-.39.47-.87.8-1.41.33-.55.69-1.11,1.09-1.7.39-.58.82-1.15,1.28-1.7.46-.55.91-1.07,1.35-1.55-.78-1.12-1.54-2.19-2.26-3.22-.72-1.03-1.44-2.05-2.15-3.05h3.86l2.48,3.54Z" style="fill: #a3ea2a;"/>
        <path d="m772.92,403.1c0-1.12.17-2.1.52-2.94.34-.84.8-1.54,1.36-2.1.56-.56,1.2-.98,1.93-1.27.73-.29,1.48-.43,2.24-.43,1.79,0,3.21.55,4.25,1.64,1.04,1.1,1.56,2.71,1.56,4.84,0,.21,0,.44-.02.68-.02.25-.03.47-.05.66h-8.11c.08.74.42,1.32,1.03,1.75.61.43,1.42.65,2.45.65.66,0,1.3-.06,1.93-.18s1.15-.27,1.55-.44l.48,2.9c-.19.1-.45.19-.77.29-.32.1-.68.18-1.07.25-.39.07-.81.13-1.26.18s-.9.07-1.34.07c-1.14,0-2.12-.17-2.96-.5s-1.54-.8-2.09-1.38-.96-1.28-1.22-2.08c-.26-.8-.4-1.66-.4-2.59Zm8.4-1.37c-.02-.3-.07-.6-.16-.89-.09-.29-.22-.54-.41-.77-.18-.22-.42-.41-.7-.55s-.63-.22-1.04-.22-.74.07-1.03.2c-.29.14-.53.32-.72.54-.19.22-.34.48-.44.78-.1.3-.18.6-.23.9h4.73Z" style="fill: #a3ea2a;"/>
        <path d="m786.93,403c0-.91.15-1.77.44-2.58.3-.81.72-1.51,1.28-2.11.56-.6,1.24-1.08,2.04-1.43.8-.35,1.71-.53,2.74-.53.67,0,1.29.06,1.85.18.56.12,1.1.29,1.63.52l-.74,2.86c-.34-.13-.7-.24-1.1-.34-.4-.1-.85-.14-1.34-.14-1.06,0-1.84.33-2.36.98s-.78,1.52-.78,2.59c0,1.14.24,2.02.73,2.64s1.34.94,2.56.94c.43,0,.9-.04,1.39-.12.5-.08.95-.21,1.37-.38l.5,2.93c-.42.18-.94.33-1.56.46s-1.31.19-2.06.19c-1.15,0-2.14-.17-2.98-.52-.83-.34-1.52-.81-2.05-1.4s-.93-1.29-1.18-2.1c-.25-.81-.37-1.68-.37-2.63Z" style="fill: #a3ea2a;"/>
        <path d="m810.31,408.88c-.61.18-1.39.34-2.35.49-.96.15-1.97.23-3.02.23s-1.96-.14-2.68-.43c-.71-.29-1.28-.69-1.69-1.21-.42-.52-.71-1.14-.89-1.86-.18-.72-.26-1.51-.26-2.38v-7.03h3.58v6.6c0,1.15.15,1.98.46,2.5.3.51.87.77,1.7.77.26,0,.53-.01.82-.04.29-.02.54-.05.77-.08v-9.74h3.58v12.19Z" style="fill: #a3ea2a;"/>
        <path d="m813.55,393.54l3.58-.58v3.72h4.3v2.98h-4.3v4.44c0,.75.13,1.35.4,1.8.26.45.8.67,1.6.67.38,0,.78-.04,1.19-.11.41-.07.78-.17,1.12-.3l.5,2.78c-.43.18-.91.33-1.44.46s-1.18.19-1.94.19c-.98,0-1.78-.13-2.42-.4s-1.15-.63-1.54-1.1-.65-1.04-.8-1.72c-.15-.67-.23-1.42-.23-2.23v-10.61Z" style="fill: #a3ea2a;"/>
        <path d="m828.23,393.04c0,.66-.21,1.17-.64,1.55-.42.38-.92.56-1.5.56s-1.08-.19-1.5-.56c-.42-.38-.64-.89-.64-1.55s.21-1.17.64-1.55.92-.56,1.5-.56,1.08.19,1.5.56.64.89.64,1.55Zm-.34,16.27h-3.58v-12.62h3.58v12.62Z" style="fill: #a3ea2a;"/>
        <path d="m843.07,402.98c0,.99-.14,1.9-.43,2.72s-.7,1.53-1.25,2.11-1.2,1.04-1.96,1.36c-.76.32-1.61.48-2.56.48s-1.77-.16-2.53-.48c-.76-.32-1.41-.77-1.96-1.36s-.97-1.29-1.27-2.11c-.3-.82-.46-1.73-.46-2.72s.16-1.9.47-2.71c.31-.82.74-1.51,1.3-2.09.55-.58,1.21-1.02,1.97-1.34.76-.32,1.59-.48,2.48-.48s1.75.16,2.51.48c.76.32,1.41.77,1.96,1.34.54.58.97,1.27,1.27,2.09.3.82.46,1.72.46,2.71Zm-3.65,0c0-1.1-.22-1.97-.66-2.6-.44-.63-1.07-.95-1.88-.95s-1.45.32-1.9.95c-.45.63-.67,1.5-.67,2.6s.22,1.98.67,2.63c.45.65,1.08.97,1.9.97s1.44-.32,1.88-.97c.44-.65.66-1.52.66-2.63Z" style="fill: #a3ea2a;"/>
        <path d="m845.83,397.12c.61-.18,1.39-.34,2.35-.49.96-.15,1.97-.23,3.02-.23s1.96.14,2.68.42c.71.28,1.28.68,1.69,1.19.42.51.71,1.12.89,1.82.18.7.26,1.49.26,2.35v7.13h-3.58v-6.7c0-1.15-.15-1.97-.46-2.45s-.87-.72-1.7-.72c-.26,0-.53.01-.82.04-.29.02-.54.05-.77.08v9.74h-3.58v-12.19Z" style="fill: #a3ea2a;"/>
        <path d="m873.55,409.65c-2.7,0-4.76-.75-6.18-2.26s-2.12-3.64-2.12-6.41c0-1.38.22-2.6.65-3.68.43-1.08,1.02-1.99,1.78-2.74s1.65-1.31,2.69-1.69c1.04-.38,2.17-.58,3.38-.58.7,0,1.34.05,1.92.16s1.08.22,1.51.36c.43.14.79.28,1.08.42s.5.26.62.34l-1.08,3.02c-.51-.27-1.11-.5-1.79-.7s-1.45-.29-2.32-.29c-.58,0-1.14.1-1.69.29s-1.04.5-1.46.92c-.42.42-.76.97-1.02,1.64-.26.67-.38,1.49-.38,2.45,0,.77.08,1.48.25,2.15s.44,1.24.82,1.72c.38.48.87.86,1.48,1.14.61.28,1.34.42,2.21.42.54,0,1.03-.03,1.46-.1.43-.06.82-.14,1.15-.23s.63-.19.89-.3c.26-.11.49-.22.7-.31l1.03,3c-.53.32-1.27.61-2.23.86-.96.25-2.07.38-3.34.38Z" style="fill: #a3ea2a;"/>
        <path d="m892.79,402.98c0,.99-.14,1.9-.43,2.72s-.7,1.53-1.25,2.11-1.2,1.04-1.96,1.36c-.76.32-1.61.48-2.56.48s-1.77-.16-2.53-.48c-.76-.32-1.41-.77-1.96-1.36s-.97-1.29-1.27-2.11c-.3-.82-.46-1.73-.46-2.72s.16-1.9.47-2.71c.31-.82.74-1.51,1.3-2.09.55-.58,1.21-1.02,1.97-1.34.76-.32,1.59-.48,2.48-.48s1.75.16,2.51.48c.76.32,1.41.77,1.96,1.34.54.58.97,1.27,1.27,2.09.3.82.46,1.72.46,2.71Zm-3.65,0c0-1.1-.22-1.97-.66-2.6-.44-.63-1.07-.95-1.88-.95s-1.45.32-1.9.95c-.45.63-.67,1.5-.67,2.6s.22,1.98.67,2.63c.45.65,1.08.97,1.9.97s1.44-.32,1.88-.97c.44-.65.66-1.52.66-2.63Z" style="fill: #a3ea2a;"/>
        <path d="m895.55,397.12c.61-.18,1.39-.34,2.35-.49.96-.15,1.97-.23,3.02-.23s1.96.14,2.68.42c.71.28,1.28.68,1.69,1.19.42.51.71,1.12.89,1.82.18.7.26,1.49.26,2.35v7.13h-3.58v-6.7c0-1.15-.15-1.97-.46-2.45s-.87-.72-1.7-.72c-.26,0-.53.01-.82.04-.29.02-.54.05-.77.08v9.74h-3.58v-12.19Z" style="fill: #a3ea2a;"/>
        <path d="m909.57,393.54l3.58-.58v3.72h4.3v2.98h-4.3v4.44c0,.75.13,1.35.4,1.8.26.45.8.67,1.6.67.38,0,.78-.04,1.19-.11.41-.07.78-.17,1.12-.3l.5,2.78c-.43.18-.91.33-1.44.46s-1.18.19-1.94.19c-.98,0-1.78-.13-2.42-.4s-1.15-.63-1.54-1.1-.65-1.04-.8-1.72c-.15-.67-.23-1.42-.23-2.23v-10.61Z" style="fill: #a3ea2a;"/>
        <path d="m919.27,403.1c0-1.12.17-2.1.52-2.94.34-.84.8-1.54,1.36-2.1.56-.56,1.2-.98,1.93-1.27.73-.29,1.48-.43,2.24-.43,1.79,0,3.21.55,4.25,1.64,1.04,1.1,1.56,2.71,1.56,4.84,0,.21,0,.44-.02.68-.02.25-.03.47-.05.66h-8.11c.08.74.42,1.32,1.03,1.75.61.43,1.42.65,2.45.65.66,0,1.3-.06,1.93-.18s1.15-.27,1.55-.44l.48,2.9c-.19.1-.45.19-.77.29-.32.1-.68.18-1.07.25-.39.07-.81.13-1.26.18s-.9.07-1.34.07c-1.14,0-2.12-.17-2.96-.5s-1.54-.8-2.09-1.38-.96-1.28-1.22-2.08c-.26-.8-.4-1.66-.4-2.59Zm8.4-1.37c-.02-.3-.07-.6-.16-.89-.09-.29-.22-.54-.41-.77-.18-.22-.42-.41-.7-.55s-.63-.22-1.04-.22-.74.07-1.03.2c-.29.14-.53.32-.72.54-.19.22-.34.48-.44.78-.1.3-.18.6-.23.9h4.73Z" style="fill: #a3ea2a;"/>
        <path d="m938.88,400.23l2.51-3.54h3.7l-4.38,6.14c1,1.15,1.9,2.3,2.67,3.44.78,1.14,1.4,2.16,1.87,3.05h-3.83c-.13-.24-.29-.54-.48-.9-.19-.36-.41-.74-.65-1.13-.24-.39-.49-.72-.75-1-.26-.27-.52-.52-.77-.74-.24.21-.49.44-.74.69-.25.25-.49.56-.71.94-.22.38-.45.75-.66,1.11s-.41.71-.58,1.03h-3.64c.2-.39.47-.87.8-1.41.33-.55.69-1.11,1.09-1.7.39-.58.82-1.15,1.28-1.7.46-.55.91-1.07,1.35-1.55-.78-1.12-1.54-2.19-2.26-3.22-.72-1.03-1.44-2.05-2.15-3.05h3.86l2.48,3.54Z" style="fill: #a3ea2a;"/>
        <path d="m947.06,393.54l3.58-.58v3.72h4.3v2.98h-4.3v4.44c0,.75.13,1.35.4,1.8.26.45.8.67,1.6.67.38,0,.78-.04,1.19-.11.41-.07.78-.17,1.12-.3l.5,2.78c-.43.18-.91.33-1.44.46s-1.18.19-1.94.19c-.98,0-1.78-.13-2.42-.4s-1.15-.63-1.54-1.1-.65-1.04-.8-1.72c-.15-.67-.23-1.42-.23-2.23v-10.61Z" style="fill: #a3ea2a;"/>
      </g>
    </g>
    <g>
      <rect x="666.99" y="465.45" width="247.17" height="71.42" rx="9.72" ry="9.72" style="fill: #223654;"/>
      <g>
        <path d="m740.47,502.14c0,1.44-.22,2.7-.67,3.77-.45,1.07-1.08,1.96-1.91,2.66-.82.7-1.83,1.23-3.01,1.58-1.18.35-2.51.53-3.98.53-.67,0-1.46-.03-2.35-.08-.9-.06-1.78-.17-2.64-.35v-16.2c.86-.16,1.76-.27,2.7-.32.94-.06,1.74-.08,2.41-.08,1.42,0,2.72.16,3.88.48,1.16.32,2.16.83,2.99,1.51.83.69,1.47,1.57,1.92,2.64.45,1.07.67,2.36.67,3.86Zm-10.82,5.28c.18.02.38.03.61.04.23,0,.51.01.83.01,1.87,0,3.26-.47,4.16-1.42.9-.94,1.36-2.25,1.36-3.91s-.43-3.06-1.3-3.96-2.23-1.34-4.1-1.34c-.26,0-.52,0-.79.01-.27,0-.53.03-.77.06v10.51Z" style="fill: #a3ea2a;"/>
        <path d="m742.75,504.25c0-1.12.17-2.1.52-2.94s.8-1.54,1.36-2.1c.56-.56,1.2-.98,1.93-1.27s1.48-.43,2.24-.43c1.79,0,3.21.55,4.25,1.64,1.04,1.1,1.56,2.71,1.56,4.84,0,.21,0,.44-.02.68-.02.25-.03.47-.05.66h-8.11c.08.74.42,1.32,1.03,1.75.61.43,1.42.65,2.45.65.66,0,1.3-.06,1.93-.18s1.15-.27,1.55-.44l.48,2.9c-.19.1-.45.19-.77.29-.32.1-.68.18-1.07.25-.39.07-.81.13-1.26.18s-.9.07-1.34.07c-1.14,0-2.12-.17-2.96-.5s-1.54-.8-2.09-1.38-.96-1.28-1.22-2.08c-.26-.8-.4-1.66-.4-2.59Zm8.4-1.37c-.02-.3-.07-.6-.16-.89-.09-.29-.22-.54-.41-.77-.18-.22-.42-.41-.7-.55-.28-.14-.63-.22-1.04-.22s-.74.07-1.03.2c-.29.14-.53.32-.72.54-.19.22-.34.48-.44.78-.1.3-.18.6-.23.9h4.73Z" style="fill: #a3ea2a;"/>
        <path d="m760.99,507.9c.66,0,1.12-.06,1.39-.19.27-.13.41-.38.41-.74,0-.29-.18-.54-.53-.76-.35-.22-.89-.46-1.61-.73-.56-.21-1.07-.42-1.52-.65-.46-.22-.84-.49-1.16-.8-.32-.31-.57-.68-.74-1.12-.18-.43-.26-.95-.26-1.56,0-1.18.44-2.12,1.32-2.81.88-.69,2.09-1.03,3.62-1.03.77,0,1.5.07,2.21.2s1.26.28,1.68.44l-.62,2.78c-.42-.14-.87-.27-1.36-.38s-1.04-.17-1.64-.17c-1.12,0-1.68.31-1.68.94,0,.14.02.27.07.38.05.11.14.22.29.32.14.1.34.22.59.34s.56.25.95.4c.78.29,1.43.58,1.94.86.51.28.92.59,1.21.91.3.33.5.69.62,1.09.12.4.18.86.18,1.39,0,1.25-.47,2.19-1.4,2.83-.94.64-2.26.96-3.97.96-1.12,0-2.05-.1-2.8-.29-.74-.19-1.26-.35-1.55-.48l.6-2.9c.61.24,1.23.43,1.87.56.64.14,1.27.2,1.9.2Z" style="fill: #a3ea2a;"/>
        <path d="m768.4,504.15c0-.91.15-1.77.44-2.58.3-.81.72-1.51,1.28-2.11.56-.6,1.24-1.08,2.04-1.43.8-.35,1.71-.53,2.74-.53.67,0,1.29.06,1.85.18.56.12,1.1.29,1.63.52l-.74,2.86c-.34-.13-.7-.24-1.1-.34s-.85-.14-1.34-.14c-1.06,0-1.84.33-2.36.98s-.78,1.52-.78,2.59c0,1.14.24,2.02.73,2.64s1.34.94,2.56.94c.43,0,.9-.04,1.39-.12.5-.08.95-.21,1.37-.38l.5,2.93c-.42.18-.94.33-1.56.46s-1.31.19-2.06.19c-1.15,0-2.14-.17-2.98-.52-.83-.34-1.52-.81-2.05-1.4s-.93-1.29-1.18-2.1c-.25-.81-.37-1.68-.37-2.63Z" style="fill: #a3ea2a;"/>
        <path d="m788.61,501.01c-.32-.08-.7-.16-1.13-.25-.43-.09-.9-.13-1.39-.13-.22,0-.49.02-.8.06-.31.04-.55.08-.71.13v9.65h-3.58v-11.95c.64-.22,1.4-.44,2.27-.64s1.84-.3,2.92-.3c.19,0,.42.01.7.04.27.02.54.06.82.1.27.04.54.09.82.14.27.06.5.12.7.2l-.6,2.95Z" style="fill: #a3ea2a;"/>
        <path d="m795.04,494.19c0,.66-.21,1.17-.64,1.55-.42.38-.92.56-1.5.56s-1.08-.19-1.5-.56c-.42-.38-.64-.89-.64-1.55s.21-1.17.64-1.55.92-.56,1.5-.56,1.08.19,1.5.56.64.89.64,1.55Zm-.34,16.27h-3.58v-12.62h3.58v12.62Z" style="fill: #a3ea2a;"/>
        <path d="m809.8,504.15c0,.98-.12,1.86-.36,2.66-.24.8-.59,1.49-1.06,2.06s-1.04,1.02-1.73,1.34c-.69.32-1.48.48-2.38.48-.5,0-.96-.05-1.39-.14s-.85-.23-1.25-.41v4.75h-3.58v-16.63c.32-.1.69-.19,1.1-.28s.85-.16,1.31-.23c.46-.06.92-.12,1.39-.16.47-.04.92-.06,1.36-.06,1.04,0,1.97.16,2.78.47.82.31,1.5.75,2.06,1.32.56.57.99,1.26,1.28,2.08.3.82.44,1.73.44,2.74Zm-3.65.1c0-1.1-.25-1.99-.74-2.65-.5-.66-1.23-1-2.21-1-.32,0-.62.01-.89.04-.27.02-.5.05-.67.08v6.46c.22.14.52.26.88.36.36.1.72.14,1.09.14,1.7,0,2.54-1.14,2.54-3.43Z" style="fill: #a3ea2a;"/>
        <path d="m812.44,494.7l3.58-.58v3.72h4.3v2.98h-4.3v4.44c0,.75.13,1.35.4,1.8.26.45.8.67,1.6.67.38,0,.78-.04,1.19-.11.41-.07.78-.17,1.12-.3l.5,2.78c-.43.18-.91.33-1.44.46s-1.18.19-1.94.19c-.98,0-1.78-.13-2.42-.4s-1.15-.63-1.54-1.1-.65-1.04-.8-1.72c-.15-.67-.23-1.42-.23-2.23v-10.61Z" style="fill: #a3ea2a;"/>
        <path d="m827.13,494.19c0,.66-.21,1.17-.64,1.55-.42.38-.92.56-1.5.56s-1.08-.19-1.5-.56c-.42-.38-.64-.89-.64-1.55s.21-1.17.64-1.55.92-.56,1.5-.56,1.08.19,1.5.56.64.89.64,1.55Zm-.34,16.27h-3.58v-12.62h3.58v12.62Z" style="fill: #a3ea2a;"/>
        <path d="m841.96,504.13c0,.99-.14,1.9-.43,2.72s-.7,1.53-1.25,2.11-1.2,1.04-1.96,1.36c-.76.32-1.61.48-2.56.48s-1.77-.16-2.53-.48c-.76-.32-1.41-.77-1.96-1.36s-.97-1.29-1.27-2.11c-.3-.82-.46-1.73-.46-2.72s.16-1.9.47-2.71c.31-.82.74-1.51,1.3-2.09.55-.58,1.21-1.02,1.97-1.34.76-.32,1.59-.48,2.48-.48s1.75.16,2.51.48c.76.32,1.41.77,1.96,1.34.54.58.97,1.27,1.27,2.09.3.82.46,1.72.46,2.71Zm-3.65,0c0-1.1-.22-1.97-.66-2.6-.44-.63-1.07-.95-1.88-.95s-1.45.32-1.9.95c-.45.63-.67,1.5-.67,2.6s.22,1.98.67,2.63c.45.65,1.08.97,1.9.97s1.44-.32,1.88-.97c.44-.65.66-1.52.66-2.63Z" style="fill: #a3ea2a;"/>
        <path d="m844.72,498.27c.61-.18,1.39-.34,2.35-.49.96-.15,1.97-.23,3.02-.23s1.96.14,2.68.42c.71.28,1.28.68,1.69,1.19.42.51.71,1.12.89,1.82.18.7.26,1.49.26,2.35v7.13h-3.58v-6.7c0-1.15-.15-1.97-.46-2.45-.3-.48-.87-.72-1.7-.72-.26,0-.53.01-.82.04-.29.02-.54.05-.77.08v9.74h-3.58v-12.19Z" style="fill: #a3ea2a;"/>
      </g>
    </g>
    <g>
      <rect x="581.32" y="566.6" width="247.17" height="71.42" rx="9.72" ry="9.72" style="fill: #223654;"/>
      <g>
        <path d="m629.51,608.76c.53,0,.96-.04,1.31-.13s.62-.21.83-.36c.21-.15.35-.33.43-.54.08-.21.12-.44.12-.7,0-.54-.26-1-.77-1.36-.51-.36-1.39-.75-2.64-1.16-.54-.19-1.09-.41-1.63-.66-.54-.25-1.03-.56-1.46-.94-.43-.38-.78-.83-1.06-1.37-.27-.54-.41-1.19-.41-1.96s.14-1.46.43-2.08c.29-.62.7-1.14,1.22-1.57.53-.43,1.17-.76,1.92-1,.75-.23,1.6-.35,2.54-.35,1.12,0,2.09.12,2.9.36.82.24,1.49.5,2.02.79l-1.08,2.95c-.46-.24-.98-.45-1.55-.64-.57-.18-1.25-.28-2.05-.28-.9,0-1.54.12-1.93.37-.39.25-.59.63-.59,1.14,0,.3.07.56.22.77.14.21.35.4.61.56.26.17.57.32.91.46.34.14.72.28,1.14.42.86.32,1.62.64,2.26.95.64.31,1.17.68,1.6,1.09s.74.9.95,1.46c.21.56.31,1.24.31,2.04,0,1.55-.54,2.76-1.63,3.61-1.09.86-2.73,1.28-4.92,1.28-.74,0-1.4-.04-1.99-.13-.59-.09-1.12-.2-1.57-.32s-.85-.26-1.18-.41c-.33-.14-.6-.28-.83-.41l1.06-2.98c.5.27,1.11.52,1.84.73.73.22,1.62.32,2.68.32Z" style="fill: #a3ea2a;"/>
        <path d="m638.1,605.4c0-1.12.17-2.1.52-2.94s.8-1.54,1.36-2.1c.56-.56,1.2-.98,1.93-1.27s1.48-.43,2.24-.43c1.79,0,3.21.55,4.25,1.64,1.04,1.1,1.56,2.71,1.56,4.84,0,.21,0,.44-.02.68-.02.25-.03.47-.05.66h-8.11c.08.74.42,1.32,1.03,1.75.61.43,1.42.65,2.45.65.66,0,1.3-.06,1.93-.18s1.15-.27,1.55-.44l.48,2.9c-.19.1-.45.19-.77.29-.32.1-.68.18-1.07.25-.39.07-.81.13-1.26.18s-.9.07-1.34.07c-1.14,0-2.12-.17-2.96-.5s-1.54-.8-2.09-1.38-.96-1.28-1.22-2.08c-.26-.8-.4-1.66-.4-2.59Zm8.4-1.37c-.02-.3-.07-.6-.16-.89-.09-.29-.22-.54-.41-.77-.18-.22-.42-.41-.7-.55-.28-.14-.63-.22-1.04-.22s-.74.07-1.03.2c-.29.14-.53.32-.72.54-.19.22-.34.48-.44.78-.1.3-.18.6-.23.9h4.73Z" style="fill: #a3ea2a;"/>
        <path d="m656.16,611.62c-.82-1.6-1.65-3.47-2.49-5.62-.84-2.14-1.64-4.48-2.4-7.01h3.79c.16.62.35,1.3.57,2.03.22.73.44,1.46.67,2.21.23.74.47,1.47.7,2.17s.46,1.34.69,1.92c.21-.58.43-1.22.67-1.92.24-.7.48-1.43.71-2.17.23-.74.46-1.48.67-2.21.22-.73.41-1.4.57-2.03h3.7c-.75,2.53-1.55,4.86-2.4,7.01-.84,2.14-1.67,4.02-2.49,5.62h-2.97Z" style="fill: #a3ea2a;"/>
        <path d="m664.98,605.4c0-1.12.17-2.1.52-2.94s.8-1.54,1.36-2.1c.56-.56,1.2-.98,1.93-1.27s1.48-.43,2.24-.43c1.79,0,3.21.55,4.25,1.64,1.04,1.1,1.56,2.71,1.56,4.84,0,.21,0,.44-.02.68-.02.25-.03.47-.05.66h-8.11c.08.74.42,1.32,1.03,1.75.61.43,1.42.65,2.45.65.66,0,1.3-.06,1.93-.18s1.15-.27,1.55-.44l.48,2.9c-.19.1-.45.19-.77.29-.32.1-.68.18-1.07.25-.39.07-.81.13-1.26.18s-.9.07-1.34.07c-1.14,0-2.12-.17-2.96-.5s-1.54-.8-2.09-1.38-.96-1.28-1.22-2.08c-.26-.8-.4-1.66-.4-2.59Zm8.4-1.37c-.02-.3-.07-.6-.16-.89-.09-.29-.22-.54-.41-.77-.18-.22-.42-.41-.7-.55-.28-.14-.63-.22-1.04-.22s-.74.07-1.03.2c-.29.14-.53.32-.72.54-.19.22-.34.48-.44.78-.1.3-.18.6-.23.9h4.73Z" style="fill: #a3ea2a;"/>
        <path d="m687.2,602.16c-.32-.08-.7-.16-1.13-.25-.43-.09-.9-.13-1.39-.13-.22,0-.49.02-.8.06-.31.04-.55.08-.71.13v9.65h-3.58v-11.95c.64-.22,1.4-.44,2.27-.64s1.84-.3,2.92-.3c.19,0,.42.01.7.04.27.02.54.06.82.1.27.04.54.09.82.14.27.06.5.12.7.2l-.6,2.95Z" style="fill: #a3ea2a;"/>
        <path d="m693.63,595.35c0,.66-.21,1.17-.64,1.55-.42.38-.92.56-1.5.56s-1.08-.19-1.5-.56c-.42-.38-.64-.89-.64-1.55s.21-1.17.64-1.55.92-.56,1.5-.56,1.08.19,1.5.56.64.89.64,1.55Zm-.34,16.27h-3.58v-12.62h3.58v12.62Z" style="fill: #a3ea2a;"/>
        <path d="m696.54,595.85l3.58-.58v3.72h4.3v2.98h-4.3v4.44c0,.75.13,1.35.4,1.8.26.45.8.67,1.6.67.38,0,.78-.04,1.19-.11.41-.07.78-.17,1.12-.3l.5,2.78c-.43.18-.91.33-1.44.46s-1.18.19-1.94.19c-.98,0-1.78-.13-2.42-.4s-1.15-.63-1.54-1.1-.65-1.04-.8-1.72c-.15-.67-.23-1.42-.23-2.23v-10.61Z" style="fill: #a3ea2a;"/>
        <path d="m718.78,599c-.72,2.43-1.48,4.71-2.26,6.84s-1.64,4.19-2.58,6.19c-.34.72-.67,1.33-1.01,1.84-.34.5-.71.92-1.11,1.25-.4.33-.85.57-1.36.72-.5.15-1.09.23-1.77.23-.56,0-1.08-.05-1.55-.16-.47-.1-.86-.22-1.17-.35l.62-2.86c.37.13.7.22.98.26s.59.07.91.07c.64,0,1.13-.17,1.48-.52.34-.34.64-.82.88-1.43-.82-1.6-1.63-3.4-2.45-5.39s-1.58-4.23-2.3-6.71h3.79c.16.62.35,1.3.57,2.03.22.73.45,1.46.69,2.21.24.74.49,1.47.74,2.17s.49,1.34.71,1.92c.21-.58.42-1.22.65-1.92.22-.7.45-1.43.66-2.17.22-.74.43-1.48.63-2.21.2-.73.38-1.4.54-2.03h3.7Z" style="fill: #a3ea2a;"/>
        <path d="m737.79,608.4v3.22h-11.11v-16.63h3.74v13.42h7.37Z" style="fill: #a3ea2a;"/>
        <path d="m739.35,605.4c0-1.12.17-2.1.52-2.94s.8-1.54,1.36-2.1c.56-.56,1.2-.98,1.93-1.27s1.48-.43,2.24-.43c1.79,0,3.21.55,4.25,1.64,1.04,1.1,1.56,2.71,1.56,4.84,0,.21,0,.44-.02.68-.02.25-.03.47-.05.66h-8.11c.08.74.42,1.32,1.03,1.75.61.43,1.42.65,2.45.65.66,0,1.3-.06,1.93-.18s1.15-.27,1.55-.44l.48,2.9c-.19.1-.45.19-.77.29-.32.1-.68.18-1.07.25-.39.07-.81.13-1.26.18s-.9.07-1.34.07c-1.14,0-2.12-.17-2.96-.5s-1.54-.8-2.09-1.38-.96-1.28-1.22-2.08c-.26-.8-.4-1.66-.4-2.59Zm8.4-1.37c-.02-.3-.07-.6-.16-.89-.09-.29-.22-.54-.41-.77-.18-.22-.42-.41-.7-.55-.28-.14-.63-.22-1.04-.22s-.74.07-1.03.2c-.29.14-.53.32-.72.54-.19.22-.34.48-.44.78-.1.3-.18.6-.23.9h4.73Z" style="fill: #a3ea2a;"/>
        <path d="m757.42,611.62c-.82-1.6-1.65-3.47-2.49-5.62-.84-2.14-1.64-4.48-2.4-7.01h3.79c.16.62.35,1.3.57,2.03.22.73.44,1.46.67,2.21.23.74.47,1.47.7,2.17s.46,1.34.69,1.92c.21-.58.43-1.22.67-1.92.24-.7.48-1.43.71-2.17.23-.74.46-1.48.67-2.21.22-.73.41-1.4.57-2.03h3.7c-.75,2.53-1.55,4.86-2.4,7.01-.84,2.14-1.67,4.02-2.49,5.62h-2.97Z" style="fill: #a3ea2a;"/>
        <path d="m766.23,605.4c0-1.12.17-2.1.52-2.94s.8-1.54,1.36-2.1c.56-.56,1.2-.98,1.93-1.27s1.48-.43,2.24-.43c1.79,0,3.21.55,4.25,1.64,1.04,1.1,1.56,2.71,1.56,4.84,0,.21,0,.44-.02.68-.02.25-.03.47-.05.66h-8.11c.08.74.42,1.32,1.03,1.75.61.43,1.42.65,2.45.65.66,0,1.3-.06,1.93-.18s1.15-.27,1.55-.44l.48,2.9c-.19.1-.45.19-.77.29-.32.1-.68.18-1.07.25-.39.07-.81.13-1.26.18s-.9.07-1.34.07c-1.14,0-2.12-.17-2.96-.5s-1.54-.8-2.09-1.38-.96-1.28-1.22-2.08c-.26-.8-.4-1.66-.4-2.59Zm8.4-1.37c-.02-.3-.07-.6-.16-.89-.09-.29-.22-.54-.41-.77-.18-.22-.42-.41-.7-.55-.28-.14-.63-.22-1.04-.22s-.74.07-1.03.2c-.29.14-.53.32-.72.54-.19.22-.34.48-.44.78-.1.3-.18.6-.23.9h4.73Z" style="fill: #a3ea2a;"/>
        <path d="m785.89,611.86c-1.04-.02-1.88-.13-2.53-.34-.65-.21-1.16-.5-1.54-.88-.38-.38-.63-.83-.77-1.37s-.2-1.14-.2-1.81v-13.9l3.58-.58v13.75c0,.32.02.61.07.86s.14.47.28.65c.14.18.33.32.59.43.25.11.6.18,1.03.22l-.5,2.95Z" style="fill: #a3ea2a;"/>
      </g>
    </g>
    <g>
      <rect x="500.16" y="667.75" width="247.17" height="71.42" rx="9.72" ry="9.72" style="fill: #223654;"/>
      <g>
        <path d="m576.77,699.77c-.19-.58-.38-1.17-.6-1.78s-.43-1.22-.64-1.82h-6.5c-.21.61-.42,1.21-.63,1.82s-.41,1.2-.59,1.78h-3.89c.63-1.79,1.22-3.45,1.78-4.97.56-1.52,1.11-2.95,1.65-4.3.54-1.34,1.07-2.62,1.59-3.83s1.06-2.39,1.62-3.54h3.55c.55,1.15,1.08,2.33,1.62,3.54s1.06,2.48,1.6,3.83c.54,1.34,1.09,2.78,1.65,4.3.56,1.52,1.16,3.18,1.78,4.97h-4.01Zm-4.5-12.86c-.08.24-.21.57-.37.99-.16.42-.34.9-.55,1.44-.21.54-.44,1.14-.69,1.8s-.51,1.34-.77,2.06h4.76c-.25-.72-.5-1.41-.74-2.07-.24-.66-.46-1.26-.68-1.8s-.4-1.03-.56-1.44c-.16-.42-.29-.74-.39-.98Z" style="fill: #a3ea2a;"/>
        <path d="m593.54,699.37c-.32.1-.69.19-1.1.28s-.85.16-1.31.23c-.46.06-.92.12-1.39.16s-.92.06-1.36.06c-1.04,0-1.97-.15-2.78-.46s-1.5-.74-2.06-1.31c-.56-.57-.99-1.26-1.28-2.06-.3-.81-.44-1.72-.44-2.72s.13-1.95.38-2.77.62-1.52,1.1-2.1c.48-.58,1.07-1.02,1.76-1.32s1.49-.46,2.39-.46c.5,0,.94.05,1.33.14.39.1.79.23,1.19.41v-5.71l3.58-.58v18.22Zm-8.09-6c0,1.1.25,1.99.74,2.66.5.67,1.23,1.01,2.21,1.01.32,0,.62-.01.89-.04.27-.02.5-.05.67-.08v-6.5c-.22-.14-.52-.26-.88-.36-.36-.1-.72-.14-1.09-.14-1.7,0-2.54,1.15-2.54,3.46Z" style="fill: #a3ea2a;"/>
        <path d="m608.04,699.37c-.32.1-.69.19-1.1.28s-.85.16-1.31.23c-.46.06-.92.12-1.39.16s-.92.06-1.36.06c-1.04,0-1.97-.15-2.78-.46s-1.5-.74-2.06-1.31c-.56-.57-.99-1.26-1.28-2.06-.3-.81-.44-1.72-.44-2.72s.13-1.95.38-2.77.62-1.52,1.1-2.1c.48-.58,1.07-1.02,1.76-1.32s1.49-.46,2.39-.46c.5,0,.94.05,1.33.14.39.1.79.23,1.19.41v-5.71l3.58-.58v18.22Zm-8.09-6c0,1.1.25,1.99.74,2.66.5.67,1.23,1.01,2.21,1.01.32,0,.62-.01.89-.04.27-.02.5-.05.67-.08v-6.5c-.22-.14-.52-.26-.88-.36-.36-.1-.72-.14-1.09-.14-1.7,0-2.54,1.15-2.54,3.46Z" style="fill: #a3ea2a;"/>
        <path d="m615.31,683.5c0,.66-.21,1.17-.64,1.55s-.92.56-1.5.56-1.08-.19-1.5-.56-.64-.89-.64-1.55.21-1.17.64-1.55.92-.56,1.5-.56,1.08.19,1.5.56.64.89.64,1.55Zm-.34,16.27h-3.58v-12.62h3.58v12.62Z" style="fill: #a3ea2a;"/>
        <path d="m618.22,684.01l3.58-.58v3.72h4.3v2.98h-4.3v4.44c0,.75.13,1.35.4,1.8.26.45.8.67,1.6.67.38,0,.78-.04,1.19-.11.41-.07.78-.17,1.12-.3l.5,2.78c-.43.18-.91.33-1.44.46-.53.13-1.18.19-1.94.19-.98,0-1.78-.13-2.42-.4-.64-.26-1.15-.63-1.54-1.1-.38-.47-.65-1.04-.8-1.72-.15-.67-.23-1.42-.23-2.23v-10.61Z" style="fill: #a3ea2a;"/>
        <path d="m632.9,683.5c0,.66-.21,1.17-.64,1.55s-.92.56-1.5.56-1.08-.19-1.5-.56-.64-.89-.64-1.55.21-1.17.64-1.55.92-.56,1.5-.56,1.08.19,1.5.56.64.89.64,1.55Zm-.34,16.27h-3.58v-12.62h3.58v12.62Z" style="fill: #a3ea2a;"/>
        <path d="m647.74,693.44c0,.99-.14,1.9-.43,2.72s-.7,1.53-1.25,2.11c-.54.58-1.2,1.04-1.96,1.36-.76.32-1.61.48-2.56.48s-1.77-.16-2.53-.48c-.76-.32-1.41-.77-1.96-1.36-.54-.58-.97-1.29-1.27-2.11-.3-.82-.46-1.73-.46-2.72s.16-1.9.47-2.71c.31-.82.74-1.51,1.3-2.09.55-.58,1.21-1.02,1.97-1.34s1.59-.48,2.48-.48,1.75.16,2.51.48,1.41.77,1.96,1.34.97,1.27,1.27,2.09c.3.82.46,1.72.46,2.71Zm-3.65,0c0-1.1-.22-1.97-.66-2.6-.44-.63-1.07-.95-1.88-.95s-1.45.32-1.9.95c-.45.63-.67,1.5-.67,2.6s.22,1.98.67,2.63c.45.65,1.08.97,1.9.97s1.44-.32,1.88-.97c.44-.65.66-1.52.66-2.63Z" style="fill: #a3ea2a;"/>
        <path d="m650.49,687.58c.61-.18,1.39-.34,2.35-.49s1.97-.23,3.02-.23,1.96.14,2.68.42c.71.28,1.28.68,1.69,1.19s.71,1.12.89,1.82c.18.7.26,1.49.26,2.35v7.13h-3.58v-6.7c0-1.15-.15-1.97-.46-2.45-.3-.48-.87-.72-1.7-.72-.26,0-.53.01-.82.04-.29.02-.54.05-.77.08v9.74h-3.58v-12.19Z" style="fill: #a3ea2a;"/>
        <path d="m669.17,686.81c1.06,0,1.94.12,2.64.36.7.24,1.27.58,1.69,1.03.42.45.72.99.9,1.63.18.64.26,1.35.26,2.14v7.44c-.51.11-1.22.24-2.14.4-.91.15-2.02.23-3.31.23-.82,0-1.56-.07-2.22-.22-.66-.14-1.24-.38-1.72-.71-.48-.33-.85-.76-1.1-1.28-.26-.53-.38-1.18-.38-1.94s.15-1.36.44-1.87c.3-.51.69-.92,1.19-1.22s1.06-.52,1.7-.66,1.3-.2,1.99-.2c.46,0,.88.02,1.24.06.36.04.65.09.88.16v-.34c0-.61-.18-1.1-.55-1.46s-1.01-.55-1.92-.55c-.61,0-1.21.04-1.8.13s-1.1.21-1.54.37l-.46-2.88c.21-.06.47-.13.78-.2.31-.07.65-.14,1.02-.19.37-.06.76-.1,1.16-.14.41-.04.82-.06,1.24-.06Zm.29,10.46c.35,0,.69,0,1.01-.02s.58-.04.77-.07v-2.71c-.14-.03-.36-.06-.65-.1s-.55-.05-.79-.05c-.34,0-.65.02-.95.06s-.56.12-.78.23c-.22.11-.4.26-.53.46-.13.19-.19.43-.19.72,0,.56.19.95.56,1.16.38.22.89.32,1.55.32Z" style="fill: #a3ea2a;"/>
        <path d="m682.94,700.01c-1.04-.02-1.88-.13-2.53-.34-.65-.21-1.16-.5-1.54-.88-.38-.38-.63-.83-.77-1.37s-.2-1.14-.2-1.81v-13.9l3.58-.58v13.75c0,.32.02.61.07.86s.14.47.28.65c.14.18.33.32.59.43.25.11.6.18,1.03.22l-.5,2.95Z" style="fill: #a3ea2a;"/>
        <path d="m557.36,709.14h3.74v16.63h-3.74v-16.63Z" style="fill: #a3ea2a;"/>
        <path d="m564.71,713.58c.61-.18,1.39-.34,2.35-.49s1.97-.23,3.02-.23,1.96.14,2.68.42c.71.28,1.28.68,1.69,1.19s.71,1.12.89,1.82c.18.7.26,1.49.26,2.35v7.13h-3.58v-6.7c0-1.15-.15-1.97-.46-2.45-.3-.48-.87-.72-1.7-.72-.26,0-.53.01-.82.04-.29.02-.54.05-.77.08v9.74h-3.58v-12.19Z" style="fill: #a3ea2a;"/>
        <path d="m584.32,707.15c.67,0,1.29.07,1.85.2.56.14.99.27,1.3.4l-.7,2.86c-.32-.14-.67-.25-1.04-.32-.38-.07-.72-.11-1.04-.11-.43,0-.8.06-1.09.18s-.53.28-.7.49-.29.46-.36.74c-.07.29-.11.6-.11.94v.62h4.42v2.98h-4.42v9.65h-3.58v-13.3c0-1.63.46-2.93,1.38-3.89s2.28-1.44,4.09-1.44Z" style="fill: #a3ea2a;"/>
        <path d="m600.59,719.44c0,.99-.14,1.9-.43,2.72s-.7,1.53-1.25,2.11c-.54.58-1.2,1.04-1.96,1.36-.76.32-1.61.48-2.56.48s-1.77-.16-2.53-.48c-.76-.32-1.41-.77-1.96-1.36-.54-.58-.97-1.29-1.27-2.11-.3-.82-.46-1.73-.46-2.72s.16-1.9.47-2.71c.31-.82.74-1.51,1.3-2.09.55-.58,1.21-1.02,1.97-1.34s1.59-.48,2.48-.48,1.75.16,2.51.48,1.41.77,1.96,1.34.97,1.27,1.27,2.09c.3.82.46,1.72.46,2.71Zm-3.65,0c0-1.1-.22-1.97-.66-2.6-.44-.63-1.07-.95-1.88-.95s-1.45.32-1.9.95c-.45.63-.67,1.5-.67,2.6s.22,1.98.67,2.63c.45.65,1.08.97,1.9.97s1.44-.32,1.88-.97c.44-.65.66-1.52.66-2.63Z" style="fill: #a3ea2a;"/>
        <path d="m610.96,716.32c-.32-.08-.7-.16-1.13-.25-.43-.09-.9-.13-1.39-.13-.22,0-.49.02-.8.06-.31.04-.55.08-.71.13v9.65h-3.58v-11.95c.64-.22,1.4-.44,2.27-.64s1.84-.3,2.92-.3c.19,0,.42.01.7.04.27.02.54.06.82.1.27.04.54.09.82.14.27.06.5.12.7.2l-.6,2.95Z" style="fill: #a3ea2a;"/>
        <path d="m620.41,719.08c0-1.15-.15-1.97-.44-2.45-.3-.48-.8-.72-1.52-.72-.22,0-.46.01-.7.04-.24.02-.47.05-.7.08v9.74h-3.58v-12.19c.3-.08.66-.16,1.07-.25s.84-.17,1.3-.24.92-.13,1.4-.17c.48-.04.95-.06,1.42-.06.91,0,1.65.12,2.22.35.57.23,1.04.51,1.4.83.51-.37,1.1-.66,1.76-.86s1.28-.31,1.84-.31c1.01,0,1.84.14,2.48.42.65.28,1.16.68,1.55,1.19s.65,1.12.79,1.82c.14.7.22,1.49.22,2.35v7.13h-3.58v-6.7c0-1.15-.15-1.97-.44-2.45-.3-.48-.8-.72-1.52-.72-.19,0-.46.05-.8.14-.34.1-.63.22-.85.36.11.37.18.76.22,1.16.03.41.05.84.05,1.31v6.89h-3.58v-6.7Z" style="fill: #a3ea2a;"/>
        <path d="m638.7,712.81c1.06,0,1.94.12,2.64.36.7.24,1.27.58,1.69,1.03.42.45.72.99.9,1.63.18.64.26,1.35.26,2.14v7.44c-.51.11-1.22.24-2.14.4-.91.15-2.02.23-3.31.23-.82,0-1.56-.07-2.22-.22-.66-.14-1.24-.38-1.72-.71-.48-.33-.85-.76-1.1-1.28-.26-.53-.38-1.18-.38-1.94s.15-1.36.44-1.87c.3-.51.69-.92,1.19-1.22s1.06-.52,1.7-.66,1.3-.2,1.99-.2c.46,0,.88.02,1.24.06.36.04.65.09.88.16v-.34c0-.61-.18-1.1-.55-1.46s-1.01-.55-1.92-.55c-.61,0-1.21.04-1.8.13s-1.1.21-1.54.37l-.46-2.88c.21-.06.47-.13.78-.2.31-.07.65-.14,1.02-.19.37-.06.76-.1,1.16-.14.41-.04.82-.06,1.24-.06Zm.29,10.46c.35,0,.69,0,1.01-.02s.58-.04.77-.07v-2.71c-.14-.03-.36-.06-.65-.1s-.55-.05-.79-.05c-.34,0-.65.02-.95.06s-.56.12-.78.23c-.22.11-.4.26-.53.46-.13.19-.19.43-.19.72,0,.56.19.95.56,1.16.38.22.89.32,1.55.32Z" style="fill: #a3ea2a;"/>
        <path d="m647.32,710.01l3.58-.58v3.72h4.3v2.98h-4.3v4.44c0,.75.13,1.35.4,1.8.26.45.8.67,1.6.67.38,0,.78-.04,1.19-.11.41-.07.78-.17,1.12-.3l.5,2.78c-.43.18-.91.33-1.44.46-.53.13-1.18.19-1.94.19-.98,0-1.78-.13-2.42-.4-.64-.26-1.15-.63-1.54-1.1-.38-.47-.65-1.04-.8-1.72-.15-.67-.23-1.42-.23-2.23v-10.61Z" style="fill: #a3ea2a;"/>
        <path d="m662,709.5c0,.66-.21,1.17-.64,1.55s-.92.56-1.5.56-1.08-.19-1.5-.56-.64-.89-.64-1.55.21-1.17.64-1.55.92-.56,1.5-.56,1.08.19,1.5.56.64.89.64,1.55Zm-.34,16.27h-3.58v-12.62h3.58v12.62Z" style="fill: #a3ea2a;"/>
        <path d="m676.83,719.44c0,.99-.14,1.9-.43,2.72s-.7,1.53-1.25,2.11c-.54.58-1.2,1.04-1.96,1.36-.76.32-1.61.48-2.56.48s-1.77-.16-2.53-.48c-.76-.32-1.41-.77-1.96-1.36-.54-.58-.97-1.29-1.27-2.11-.3-.82-.46-1.73-.46-2.72s.16-1.9.47-2.71c.31-.82.74-1.51,1.3-2.09.55-.58,1.21-1.02,1.97-1.34s1.59-.48,2.48-.48,1.75.16,2.51.48,1.41.77,1.96,1.34.97,1.27,1.27,2.09c.3.82.46,1.72.46,2.71Zm-3.65,0c0-1.1-.22-1.97-.66-2.6-.44-.63-1.07-.95-1.88-.95s-1.45.32-1.9.95c-.45.63-.67,1.5-.67,2.6s.22,1.98.67,2.63c.45.65,1.08.97,1.9.97s1.44-.32,1.88-.97c.44-.65.66-1.52.66-2.63Z" style="fill: #a3ea2a;"/>
        <path d="m679.59,713.58c.61-.18,1.39-.34,2.35-.49s1.97-.23,3.02-.23,1.96.14,2.68.42c.71.28,1.28.68,1.69,1.19s.71,1.12.89,1.82c.18.7.26,1.49.26,2.35v7.13h-3.58v-6.7c0-1.15-.15-1.97-.46-2.45-.3-.48-.87-.72-1.7-.72-.26,0-.53.01-.82.04-.29.02-.54.05-.77.08v9.74h-3.58v-12.19Z" style="fill: #a3ea2a;"/>
      </g>
    </g>
    <g id="arrow_styles_for_diagrams_etc" data-name="arrow styles for diagrams etc">
      <g id="arrow_styles_for_diagrams_etc-2" data-name="arrow styles for diagrams etc">
        <g id="arrow_styles_for_diagrams_etc-3" data-name="arrow styles for diagrams etc">
          <path d="m326.8,333.1l5.97-31.75c.18-.94,1.3-1.33,2.03-.71l6.31,5.4,158.62-185.37c1.61-1.89,4.45-2.11,6.34-.49l5.01,4.29c1.88,1.61,2.1,4.44.49,6.32l-158.63,185.38,6.31,5.4c.73.62.51,1.79-.39,2.11l-30.44,10.81c-.9.32-1.8-.45-1.62-1.39Z" style="fill: url(#linear-gradient);"/>
        </g>
      </g>
    </g>
    <g id="arrow_styles_for_diagrams_etc-4" data-name="arrow styles for diagrams etc">
      <g id="arrow_styles_for_diagrams_etc-5" data-name="arrow styles for diagrams etc">
        <g id="arrow_styles_for_diagrams_etc-6" data-name="arrow styles for diagrams etc">
          <path d="m380.89,344.27l16-28.06c.47-.83,1.67-.84,2.15-.01l4.2,7.16,210.4-123.5c2.14-1.26,4.89-.54,6.15,1.6l3.34,5.69c1.25,2.13.54,4.88-1.6,6.13l-210.41,123.51,4.2,7.16c.48.82-.11,1.86-1.06,1.87l-32.3.29c-.95.01-1.55-1.01-1.08-1.84Z" style="fill: url(#linear-gradient-2);"/>
        </g>
      </g>
    </g>
    <g id="arrow_styles_for_diagrams_etc-7" data-name="arrow styles for diagrams etc">
      <g id="arrow_styles_for_diagrams_etc-8" data-name="arrow styles for diagrams etc">
        <g id="arrow_styles_for_diagrams_etc-9" data-name="arrow styles for diagrams etc">
          <path d="m430.79,362.6l22.91-22.77c.68-.67,1.83-.36,2.08.56l2.14,8.03,235.74-62.85c2.4-.64,4.86.79,5.5,3.18l1.7,6.37c.64,2.39-.78,4.85-3.18,5.48l-235.75,62.85,2.14,8.03c.25.92-.6,1.76-1.52,1.52l-31.21-8.35c-.92-.24-1.23-1.39-.55-2.06Z" style="fill: url(#linear-gradient-3);"/>
        </g>
      </g>
    </g>
    <g id="arrow_styles_for_diagrams_etc-10" data-name="arrow styles for diagrams etc">
      <g id="arrow_styles_for_diagrams_etc-11" data-name="arrow styles for diagrams etc">
        <g id="arrow_styles_for_diagrams_etc-12" data-name="arrow styles for diagrams etc">
          <path d="m458.57,401.26l28-16.1c.83-.47,1.86.12,1.86,1.08v8.31s243.97,0,243.97,0c2.48,0,4.49,2.01,4.49,4.49v6.6c0,2.48-2.01,4.48-4.48,4.48h-243.98s0,8.31,0,8.31c0,.96-1.03,1.55-1.86,1.08l-28-16.1c-.83-.47-.83-1.66,0-2.13Z" style="fill: url(#linear-gradient-4);"/>
        </g>
      </g>
    </g>
    <g id="arrow_styles_for_diagrams_etc-13" data-name="arrow styles for diagrams etc">
      <g id="arrow_styles_for_diagrams_etc-14" data-name="arrow styles for diagrams etc">
        <g id="arrow_styles_for_diagrams_etc-15" data-name="arrow styles for diagrams etc">
          <path d="m491.89,558.11l31.69-6.25c.93-.18,1.72.71,1.42,1.62l-2.67,7.87,98.46,33.4c2.35.8,3.61,3.35,2.81,5.7l-2.12,6.25c-.8,2.34-3.34,3.6-5.68,2.8l-98.47-33.4-2.67,7.87c-.31.91-1.48,1.14-2.11.42l-21.35-24.25c-.63-.71-.25-1.84.68-2.02Z" style="fill: url(#linear-gradient-5);"/>
        </g>
      </g>
    </g>
    <g id="arrow_styles_for_diagrams_etc-16" data-name="arrow styles for diagrams etc">
      <g id="arrow_styles_for_diagrams_etc-17" data-name="arrow styles for diagrams etc">
        <g id="arrow_styles_for_diagrams_etc-18" data-name="arrow styles for diagrams etc">
          <path d="m464.28,629.26l31.11,8.7c.92.26,1.22,1.41.53,2.08l-5.93,5.82,37.62,37.92c1.74,1.77,1.71,4.62-.06,6.35l-4.71,4.62c-1.77,1.73-4.6,1.71-6.34-.06l-37.63-37.93-5.93,5.82c-.68.67-1.83.35-2.07-.57l-8.13-31.27c-.24-.92.6-1.75,1.52-1.49Z" style="fill: url(#linear-gradient-6);"/>
        </g>
      </g>
    </g>
    <g id="arrow_styles_for_diagrams_etc-19" data-name="arrow styles for diagrams etc">
      <g id="arrow_styles_for_diagrams_etc-20" data-name="arrow styles for diagrams etc">
        <g id="arrow_styles_for_diagrams_etc-21" data-name="arrow styles for diagrams etc">
          <path d="m487.42,472.13l29.94-12.12c.88-.35,1.83.37,1.7,1.32l-1.14,8.23,192.14,26.55c2.46.34,4.18,2.61,3.84,5.07l-.9,6.53c-.34,2.45-2.6,4.16-5.05,3.83l-192.16-26.55-1.14,8.23c-.13.95-1.24,1.39-1.99.81l-25.54-19.78c-.75-.58-.59-1.76.29-2.11Z" style="fill: url(#linear-gradient-7);"/>
        </g>
      </g>
    </g>
    <g>
      <rect x="581.32" y="161.98" width="247.17" height="71.42" rx="9.72" ry="9.72" style="fill: #223654;"/>
      <g>
        <path d="m615.62,207.34c-1.17,0-2.18-.16-3.02-.49-.85-.33-1.55-.78-2.1-1.37s-.96-1.28-1.22-2.09c-.26-.81-.4-1.7-.4-2.68v-10.34h3.74v10.03c0,.67.08,1.24.23,1.72.15.47.36.86.62,1.15.26.3.58.51.96.64.38.13.79.19,1.24.19.91,0,1.65-.28,2.22-.84.57-.56.85-1.51.85-2.86v-10.03h3.74v10.34c0,.98-.14,1.87-.41,2.69s-.69,1.52-1.25,2.1c-.56.58-1.27,1.04-2.14,1.36s-1.89.48-3.07.48Z" style="fill: #a3ea2a;"/>
        <path d="m625.85,194.81c.61-.18,1.39-.34,2.35-.49.96-.15,1.97-.23,3.02-.23s1.96.14,2.68.42c.71.28,1.28.68,1.69,1.19.42.51.71,1.12.89,1.82.18.7.26,1.49.26,2.35v7.13h-3.58v-6.7c0-1.15-.15-1.97-.46-2.45s-.87-.72-1.7-.72c-.26,0-.53.01-.82.04-.29.02-.54.05-.77.08v9.74h-3.58v-12.19Z" style="fill: #a3ea2a;"/>
        <path d="m643.89,190.73c0,.66-.21,1.17-.64,1.55-.42.38-.92.56-1.5.56s-1.08-.19-1.5-.56c-.42-.38-.64-.89-.64-1.55s.21-1.17.64-1.55.92-.56,1.5-.56,1.08.19,1.5.56.64.89.64,1.55Zm-.34,16.27h-3.58v-12.62h3.58v12.62Z" style="fill: #a3ea2a;"/>
        <path d="m646.32,200.69c0-.98.15-1.87.44-2.68.3-.81.72-1.5,1.28-2.09.56-.58,1.25-1.04,2.06-1.36.82-.32,1.74-.48,2.78-.48.43,0,.88.02,1.36.06.47.04.94.09,1.39.16s.89.14,1.31.23.78.18,1.1.28v16.63h-3.58v-4.75c-.4.18-.82.31-1.25.41-.43.1-.9.14-1.39.14-1.79,0-3.16-.59-4.1-1.76-.94-1.18-1.42-2.77-1.42-4.79Zm3.65.1c0,2.29.85,3.43,2.54,3.43.37,0,.73-.05,1.09-.14.36-.1.65-.22.88-.36v-6.46c-.18-.03-.4-.06-.67-.08-.27-.02-.57-.04-.89-.04-.98,0-1.71.33-2.21,1-.5.66-.74,1.55-.74,2.65Z" style="fill: #a3ea2a;"/>
        <path d="m672.19,206.57c-.61.18-1.39.34-2.35.49-.96.15-1.97.23-3.02.23s-1.96-.14-2.68-.43c-.71-.29-1.28-.69-1.69-1.21s-.71-1.14-.89-1.86c-.18-.72-.26-1.51-.26-2.38v-7.03h3.58v6.6c0,1.15.15,1.98.46,2.5s.87.77,1.7.77c.26,0,.53-.01.82-.04s.54-.05.77-.08v-9.74h3.58v12.19Z" style="fill: #a3ea2a;"/>
        <path d="m674.95,200.79c0-1.12.17-2.1.52-2.94.34-.84.8-1.54,1.36-2.1.56-.56,1.2-.98,1.93-1.27.73-.29,1.48-.43,2.24-.43,1.79,0,3.21.55,4.25,1.64,1.04,1.1,1.56,2.71,1.56,4.84,0,.21,0,.44-.02.68-.02.25-.03.47-.05.66h-8.11c.08.74.42,1.32,1.03,1.75.61.43,1.42.65,2.45.65.66,0,1.3-.06,1.93-.18s1.15-.27,1.55-.44l.48,2.9c-.19.1-.45.19-.77.29s-.68.18-1.07.25c-.39.07-.81.13-1.26.18-.45.05-.9.07-1.34.07-1.14,0-2.12-.17-2.96-.5s-1.54-.8-2.09-1.38-.96-1.28-1.22-2.08c-.26-.8-.4-1.66-.4-2.59Zm8.4-1.37c-.02-.3-.07-.6-.16-.89-.09-.29-.22-.54-.41-.77-.18-.22-.42-.41-.7-.55s-.63-.22-1.04-.22-.74.07-1.03.2c-.29.14-.53.32-.72.54-.19.22-.34.48-.44.78-.1.3-.18.6-.23.9h4.73Z" style="fill: #a3ea2a;"/>
        <path d="m695.57,190.37h3.74v16.63h-3.74v-16.63Z" style="fill: #a3ea2a;"/>
        <path d="m714.05,206.6c-.32.1-.69.19-1.1.28s-.85.16-1.31.23c-.46.06-.92.12-1.39.16s-.92.06-1.36.06c-1.04,0-1.97-.15-2.78-.46s-1.5-.74-2.06-1.31c-.56-.57-.99-1.26-1.28-2.06-.3-.81-.44-1.72-.44-2.72s.13-1.95.38-2.77c.26-.82.62-1.52,1.1-2.1.48-.58,1.07-1.02,1.76-1.32.7-.3,1.49-.46,2.39-.46.5,0,.94.05,1.33.14.39.1.79.23,1.19.41v-5.71l3.58-.58v18.22Zm-8.09-6c0,1.1.25,1.99.74,2.66.5.67,1.23,1.01,2.21,1.01.32,0,.62-.01.89-.04.27-.02.5-.05.67-.08v-6.5c-.22-.14-.52-.26-.88-.36-.36-.1-.72-.14-1.09-.14-1.7,0-2.54,1.15-2.54,3.46Z" style="fill: #a3ea2a;"/>
        <path d="m716.81,200.79c0-1.12.17-2.1.52-2.94.34-.84.8-1.54,1.36-2.1.56-.56,1.2-.98,1.93-1.27.73-.29,1.48-.43,2.24-.43,1.79,0,3.21.55,4.25,1.64,1.04,1.1,1.56,2.71,1.56,4.84,0,.21,0,.44-.02.68-.02.25-.03.47-.05.66h-8.11c.08.74.42,1.32,1.03,1.75.61.43,1.42.65,2.45.65.66,0,1.3-.06,1.93-.18s1.15-.27,1.55-.44l.48,2.9c-.19.1-.45.19-.77.29s-.68.18-1.07.25c-.39.07-.81.13-1.26.18-.45.05-.9.07-1.34.07-1.14,0-2.12-.17-2.96-.5s-1.54-.8-2.09-1.38-.96-1.28-1.22-2.08c-.26-.8-.4-1.66-.4-2.59Zm8.4-1.37c-.02-.3-.07-.6-.16-.89-.09-.29-.22-.54-.41-.77-.18-.22-.42-.41-.7-.55s-.63-.22-1.04-.22-.74.07-1.03.2c-.29.14-.53.32-.72.54-.19.22-.34.48-.44.78-.1.3-.18.6-.23.9h4.73Z" style="fill: #a3ea2a;"/>
        <path d="m731.42,194.81c.61-.18,1.39-.34,2.35-.49.96-.15,1.97-.23,3.02-.23s1.96.14,2.68.42c.71.28,1.28.68,1.69,1.19.42.51.71,1.12.89,1.82.18.7.26,1.49.26,2.35v7.13h-3.58v-6.7c0-1.15-.15-1.97-.46-2.45s-.87-.72-1.7-.72c-.26,0-.53.01-.82.04-.29.02-.54.05-.77.08v9.74h-3.58v-12.19Z" style="fill: #a3ea2a;"/>
        <path d="m745.44,191.24l3.58-.58v3.72h4.3v2.98h-4.3v4.44c0,.75.13,1.35.4,1.8.26.45.8.67,1.6.67.38,0,.78-.04,1.19-.11.41-.07.78-.17,1.12-.3l.5,2.78c-.43.18-.91.33-1.44.46-.53.13-1.18.19-1.94.19-.98,0-1.78-.13-2.42-.4-.64-.26-1.15-.63-1.54-1.1-.38-.47-.65-1.04-.8-1.72-.15-.67-.23-1.42-.23-2.23v-10.61Z" style="fill: #a3ea2a;"/>
        <path d="m760.12,190.73c0,.66-.21,1.17-.64,1.55-.42.38-.92.56-1.5.56s-1.08-.19-1.5-.56c-.42-.38-.64-.89-.64-1.55s.21-1.17.64-1.55.92-.56,1.5-.56,1.08.19,1.5.56.64.89.64,1.55Zm-.34,16.27h-3.58v-12.62h3.58v12.62Z" style="fill: #a3ea2a;"/>
        <path d="m768.62,188.38c.67,0,1.23.06,1.67.17.44.11.81.23,1.12.36l-.62,2.81c-.26-.11-.54-.19-.85-.24-.31-.05-.63-.07-.95-.07-.43,0-.8.06-1.09.18s-.53.28-.7.49c-.17.21-.29.46-.36.74-.07.29-.11.6-.11.94v.62h4.42v2.98h-4.42v9.65h-3.58v-13.3c0-1.63.46-2.93,1.38-3.89s2.28-1.44,4.09-1.44Zm8.5,2.35c0,.66-.21,1.17-.64,1.55-.42.38-.92.56-1.5.56s-1.08-.19-1.5-.56c-.42-.38-.64-.89-.64-1.55s.21-1.17.64-1.55.92-.56,1.5-.56,1.08.19,1.5.56.64.89.64,1.55Zm-.34,16.27h-3.58v-12.62h3.58v12.62Z" style="fill: #a3ea2a;"/>
        <path d="m779.54,200.79c0-1.12.17-2.1.52-2.94.34-.84.8-1.54,1.36-2.1.56-.56,1.2-.98,1.93-1.27.73-.29,1.48-.43,2.24-.43,1.79,0,3.21.55,4.25,1.64,1.04,1.1,1.56,2.71,1.56,4.84,0,.21,0,.44-.02.68-.02.25-.03.47-.05.66h-8.11c.08.74.42,1.32,1.03,1.75.61.43,1.42.65,2.45.65.66,0,1.3-.06,1.93-.18s1.15-.27,1.55-.44l.48,2.9c-.19.1-.45.19-.77.29s-.68.18-1.07.25c-.39.07-.81.13-1.26.18-.45.05-.9.07-1.34.07-1.14,0-2.12-.17-2.96-.5s-1.54-.8-2.09-1.38-.96-1.28-1.22-2.08c-.26-.8-.4-1.66-.4-2.59Zm8.4-1.37c-.02-.3-.07-.6-.16-.89-.09-.29-.22-.54-.41-.77-.18-.22-.42-.41-.7-.55s-.63-.22-1.04-.22-.74.07-1.03.2c-.29.14-.53.32-.72.54-.19.22-.34.48-.44.78-.1.3-.18.6-.23.9h4.73Z" style="fill: #a3ea2a;"/>
        <path d="m801.76,197.55c-.32-.08-.7-.16-1.13-.25-.43-.09-.9-.13-1.39-.13-.22,0-.49.02-.8.06-.31.04-.55.08-.71.13v9.65h-3.58v-11.95c.64-.22,1.4-.44,2.27-.64s1.84-.3,2.92-.3c.19,0,.42.01.7.04.27.02.54.06.82.1.27.04.54.09.82.14.27.06.5.12.7.2l-.6,2.95Z" style="fill: #a3ea2a;"/>
      </g>
    </g>
  </g>
  <g id="Artwork_35" data-name="Artwork 35" style="opacity: .6;">
    <g>
      <path id="cloud" d="m899.14,293.58c-.69-3.6-3.9-6.34-7.75-6.34h-1.39c-1.04-5.15-5.56-8.93-10.88-8.93s-9.87,3.79-10.89,8.97c-3.95.42-7.03,3.74-7.03,7.76,0,4.31,3.54,7.81,7.89,7.81h11.67c.61-.02,1.1-.54,1.07-1.16-.02-.58-.49-1.06-1.07-1.07h-11.67c-3.12,0-5.65-2.5-5.65-5.58s2.53-5.58,5.65-5.58c1.15,0,2.28.35,3.22,1.02.44.32,1.06.28,1.44-.11h0c.44-.43.44-1.13,0-1.57h0c-.04-.05-.09-.09-.14-.12-.93-.66-1.99-1.11-3.12-1.32.95-3.96,4.48-6.82,8.62-6.82,4.38,0,8.08,3.2,8.76,7.52-.35.18-.69.39-1.01.61-.5.36-.62,1.06-.27,1.56.04.05.07.1.12.15h0c.39.39,1,.43,1.44.11.94-.67,2.07-1.03,3.22-1.02,2.75,0,5.05,1.95,5.55,4.52.1.52.56.91,1.1.91h0c.61,0,1.11-.49,1.12-1.11h0c.01-.07.01-.15,0-.23Z" style="fill: #fff;"/>
      <g id="numbers">
        <path d="m885.24,301.04h-.96v-3.06s.02-.47.02-.47c-.11.11-.22.21-.33.31l-.52.42-.47-.58,1.46-1.16h.79v4.54Z" style="fill: #fff;"/>
        <path d="m889.66,298.77c0,.79-.13,1.38-.39,1.76s-.66.57-1.2.57-.92-.2-1.19-.59-.4-.98-.4-1.74.13-1.39.39-1.78.66-.57,1.19-.57.92.2,1.19.6c.28.4.42.98.42,1.75Zm-2.22,0c0,.55.05.95.15,1.2s.26.36.49.36.39-.12.49-.36.15-.64.15-1.2-.05-.96-.15-1.2-.26-.36-.48-.36-.39.12-.49.36-.15.64-.15,1.2Z" style="fill: #fff;"/>
        <path d="m885.24,307.94h-.96v-3.06s.02-.47.02-.47c-.11.11-.22.21-.33.31l-.52.42-.47-.58,1.46-1.16h.79v4.54Z" style="fill: #fff;"/>
        <path d="m888.88,307.94h-.96v-3.06s.02-.47.02-.47c-.11.11-.22.21-.33.31l-.52.42-.47-.58,1.46-1.16h.79v4.54h.01Z" style="fill: #fff;"/>
        <path d="m892.52,307.94h-.96v-3.06s.02-.47.02-.47c-.11.11-.22.21-.33.31l-.52.42-.47-.58,1.46-1.16h.79v4.54Z" style="fill: #fff;"/>
        <path d="m896.92,305.67c0,.79-.13,1.38-.39,1.76s-.66.58-1.2.58-.92-.2-1.19-.59-.4-.98-.4-1.75.13-1.39.39-1.78.66-.57,1.19-.57.92.2,1.19.6c.28.39.42.98.42,1.75Zm-2.22,0c0,.55.05.95.15,1.2s.25.36.49.36.39-.12.49-.36.15-.64.15-1.19-.05-.96-.15-1.2-.26-.36-.48-.36-.39.12-.49.36-.15.63-.15,1.19Z" style="fill: #fff;"/>
        <path d="m899,311.12c0,.58-.09,1-.28,1.28s-.48.42-.87.42-.67-.15-.86-.43-.29-.71-.29-1.27.09-1.01.28-1.29c.19-.28.48-.42.87-.42s.67.15.87.44.29.71.28,1.27Zm-1.62,0c0,.41.04.7.1.87.04.16.19.26.36.26s.28-.09.35-.27.11-.47.11-.87-.04-.7-.11-.87-.19-.27-.35-.27-.28.09-.35.27-.11.47-.11.87h0Z" style="fill: #fff;"/>
        <path d="m901.08,312.77h-.7v-2.23s.02-.34.02-.34c-.12.12-.2.19-.24.23l-.38.31-.33-.42,1.06-.84h.58v3.31h0Z" style="fill: #fff;"/>
        <path d="m885.04,311.16c0,.57-.09.98-.28,1.25s-.47.41-.86.41-.66-.14-.84-.42-.28-.69-.28-1.24.09-.99.28-1.26.47-.41.85-.41.66.14.84.42.29.7.29,1.25Zm-1.58,0c0,.39.04.68.1.85.04.15.19.26.35.25.16,0,.28-.09.34-.26s.11-.46.11-.85-.04-.68-.11-.85-.18-.26-.34-.26-.28.09-.34.26-.12.46-.11.86h0Z" style="fill: #fff;"/>
        <path d="m887.08,312.77h-.68v-2.18s.02-.33.02-.33c-.12.12-.19.19-.23.23l-.37.3-.33-.42,1.04-.83h.56v3.23Z" style="fill: #fff;"/>
        <path d="m890.22,311.16c0,.57-.09.98-.28,1.25s-.47.41-.86.41-.66-.14-.84-.42-.28-.69-.28-1.24.09-.99.28-1.26.47-.41.85-.41.66.14.84.42.29.7.29,1.25Zm-1.58,0c0,.39.04.68.1.85.04.15.19.26.35.25.17,0,.28-.09.34-.26s.11-.46.11-.85-.04-.68-.11-.85-.19-.26-.34-.26-.28.09-.34.26-.12.46-.11.86h0Z" style="fill: #fff;"/>
        <path d="m892.25,312.77h-.68v-2.18s.02-.33.02-.33c-.12.12-.2.19-.24.23l-.37.3-.33-.42,1.04-.83h.56v3.23Z" style="fill: #fff;"/>
        <path d="m884.36,315.28c0,.41-.07.71-.2.9s-.33.29-.62.29c-.24.01-.47-.1-.6-.31-.14-.2-.2-.5-.2-.9,0-.42.07-.71.2-.91s.33-.29.61-.29c.24-.01.47.1.61.31.13.21.2.51.2.9Zm-1.14,0c0,.28.02.49.07.61.04.14.17.21.31.17h0c.09-.02.15-.09.17-.17.05-.12.07-.33.07-.61,0-.21-.01-.42-.08-.62-.04-.13-.17-.21-.31-.18h-.01c-.09.02-.15.09-.17.17-.05.21-.07.41-.07.63Z" style="fill: #fff;"/>
        <path d="m885.83,316.44h-.5v-1.57s.01-.24.01-.24c-.08.08-.14.14-.17.16l-.27.21-.24-.29.75-.6h.4v2.32Z" style="fill: #fff;"/>
        <path d="m890.83,318.18c0,.41-.07.71-.2.9s-.34.29-.62.29c-.24.01-.47-.1-.6-.31-.14-.2-.2-.5-.2-.9s.07-.71.2-.91.33-.29.61-.29c.24-.01.47.1.61.31.15.21.21.51.21.9Zm-1.14,0c0,.28.02.49.07.61.04.13.17.21.31.18h.01c.09-.02.15-.09.17-.17.05-.12.07-.33.07-.61,0-.21-.01-.42-.08-.62-.03-.11-.13-.19-.25-.19s-.22.07-.25.19c-.04.12-.07.32-.07.61Z" style="fill: #fff;"/>
        <path d="m892.3,319.35h-.5v-1.57s.01-.24.01-.24c-.08.08-.14.14-.17.16l-.27.22-.24-.3.75-.6h.41v2.32Z" style="fill: #fff;"/>
        <path d="m896.16,314.83c0,.57-.09.98-.28,1.25s-.47.41-.86.41-.66-.14-.84-.42-.28-.69-.28-1.24.09-.99.28-1.26.47-.41.85-.41.66.14.84.42.29.7.29,1.25Zm-1.58,0c0,.4.04.68.1.85.04.15.19.26.35.25.16,0,.28-.09.34-.26s.11-.46.11-.85-.04-.68-.11-.86-.19-.26-.35-.26-.28.09-.34.26-.1.47-.1.87h0Z" style="fill: #fff;"/>
        <path d="m898.2,316.44h-.68v-2.18s.02-.33.02-.33c-.12.12-.19.19-.23.23l-.37.3-.33-.42,1.04-.83h.56v3.23h0Z" style="fill: #fff;"/>
        <path d="m901.34,314.83c0,.57-.09.98-.28,1.25s-.47.41-.86.41-.66-.14-.84-.42-.28-.69-.28-1.24.09-.99.28-1.26.47-.41.85-.41.66.14.84.42.29.7.29,1.25Zm-1.58,0c0,.4.04.68.1.85.04.15.19.26.35.25.16,0,.28-.09.34-.26s.11-.46.11-.85-.04-.68-.11-.86-.19-.26-.34-.26-.28.09-.34.26-.11.47-.11.87h0Z" style="fill: #fff;"/>
        <path d="m896.38,301.04h-.96v-3.06s.02-.47.02-.47c-.11.11-.22.21-.33.31l-.52.42-.47-.58,1.46-1.16h.79v4.54h0Z" style="fill: #fff;"/>
        <path d="m900.79,298.77c0,.79-.13,1.38-.39,1.76s-.66.57-1.2.57-.92-.2-1.19-.59-.4-.98-.4-1.74.13-1.39.39-1.78.66-.57,1.19-.57.92.2,1.19.6.41.98.42,1.75Zm-2.23,0c0,.55.05.95.15,1.2s.26.36.49.36.39-.12.49-.36.15-.64.15-1.2-.05-.96-.15-1.2-.26-.36-.48-.36-.39.12-.49.36-.15.64-.15,1.2h0Z" style="fill: #fff;"/>
      </g>
    </g>
  </g>
</svg>