<?xml version="1.0" encoding="UTF-8"?>
<svg id="Layer_1" data-name="Layer 1" xmlns="http://www.w3.org/2000/svg" width="1200" height="96.79" xmlns:xlink="http://www.w3.org/1999/xlink" viewBox="0 0 1200 96.79">
  <defs>
    <linearGradient id="linear-gradient" x1="0" y1="48.39" x2="1172.41" y2="48.39" gradientUnits="userSpaceOnUse">
      <stop offset="0" stop-color="#1c2538"/>
      <stop offset="1" stop-color="#223654"/>
    </linearGradient>
  </defs>
  <path d="m206.58,48.39l-38.15-39.67h151.85l37.56,39.67-37.56,39.67h-151.85l38.15-39.67ZM0,88.07h151.85l37.56-39.67-37.56-39.67H0l38.15,39.67L0,88.07Zm505.29,0h151.85l37.56-39.67-37.56-39.67h-151.85l38.15,39.67-38.15,39.67Zm-168.43,0h151.85l37.56-39.67-37.56-39.67h-151.85l38.15,39.67-38.15,39.67Zm336.86,0h151.85l37.56-39.67-37.56-39.67h-151.85l38.15,39.67-38.15,39.67Zm336.86,0h151.85l37.56-39.67-37.56-39.67h-151.85l38.15,39.67-38.15,39.67Zm-168.43,0h151.85l37.56-39.67-37.56-39.67h-151.85l38.15,39.67-38.15,39.67Z" style="fill: url(#linear-gradient);"/>
  <g>
    <path d="m1078.28,27.78c1.63,0,2.88.29,3.75.87.87.58,1.3,1.48,1.3,2.71,0,.76-.17,1.38-.53,1.86-.35.48-.86.85-1.52,1.12.22.27.45.58.69.93.24.35.48.72.71,1.1.24.38.46.78.68,1.19.22.41.42.82.61,1.22h-2.74c-.2-.36-.4-.72-.61-1.08-.21-.37-.42-.72-.63-1.07-.21-.35-.43-.67-.64-.98-.21-.31-.42-.59-.63-.84h-1.21v3.97h-2.45v-10.73c.53-.1,1.09-.18,1.66-.22.57-.04,1.08-.06,1.53-.06Zm.14,2.09c-.18,0-.34,0-.48.02s-.28.02-.4.03v2.95h.69c.92,0,1.58-.12,1.98-.35.4-.23.6-.62.6-1.18s-.2-.91-.6-1.14c-.4-.23-1-.34-1.78-.34Z" style="fill: #a3ea2a;"/>
    <path d="m1087.97,28.14c0,.43-.14.77-.42,1.01-.28.25-.6.37-.98.37s-.7-.12-.98-.37c-.28-.25-.42-.58-.42-1.01s.14-.77.42-1.01.61-.37.98-.37.7.12.98.37.42.58.42,1.01Zm-.22,10.65h-2.34v-8.26h2.34v8.26Z" style="fill: #a3ea2a;"/>
    <path d="m1092.32,37.1c.43,0,.73-.04.91-.13s.27-.25.27-.49c0-.19-.12-.35-.35-.49-.23-.14-.58-.3-1.05-.48-.37-.14-.7-.28-1-.42-.3-.15-.55-.32-.76-.53-.21-.2-.37-.45-.49-.73s-.17-.62-.17-1.02c0-.77.29-1.39.86-1.84.58-.45,1.37-.68,2.37-.68.5,0,.98.04,1.44.13.46.09.83.19,1.1.29l-.41,1.82c-.27-.09-.57-.18-.89-.25s-.68-.11-1.08-.11c-.73,0-1.1.2-1.1.61,0,.09.02.18.05.25s.09.14.19.21c.09.07.22.14.38.22.16.08.37.17.62.26.51.19.94.38,1.27.56.33.18.6.38.79.6.19.21.33.45.41.71.08.26.12.56.12.91,0,.81-.31,1.43-.92,1.85-.61.42-1.48.63-2.6.63-.73,0-1.34-.06-1.83-.19-.49-.13-.82-.23-1.01-.31l.39-1.9c.4.16.81.28,1.22.37s.83.13,1.24.13Z" style="fill: #a3ea2a;"/>
    <path d="m1099.91,33.49c.23-.25.47-.51.71-.78.25-.27.48-.54.71-.8.23-.27.45-.52.65-.76s.38-.45.53-.62h2.78c-.56.64-1.1,1.25-1.62,1.83-.53.58-1.11,1.18-1.74,1.79.31.28.64.62.97,1.01.33.39.66.8.97,1.22.31.42.6.84.86,1.26.26.42.48.8.66,1.15h-2.69c-.17-.27-.36-.57-.57-.91-.21-.33-.44-.66-.68-.99-.24-.33-.49-.65-.76-.95s-.53-.56-.79-.77v3.62h-2.34v-11.81l2.34-.38v6.89Z" style="fill: #a3ea2a;"/>
    <path d="m1113.39,30.3c.69,0,1.27.08,1.73.24.46.16.83.38,1.11.68.28.29.47.65.59,1.07.12.42.17.88.17,1.4v4.87c-.33.07-.8.16-1.4.26-.6.1-1.32.15-2.17.15-.53,0-1.02-.05-1.45-.14s-.81-.25-1.12-.46c-.31-.21-.56-.49-.72-.84-.17-.35-.25-.77-.25-1.27s.1-.89.29-1.22.45-.6.78-.8.7-.34,1.12-.43c.42-.09.85-.13,1.3-.13.3,0,.57.01.81.04.24.03.43.06.57.1v-.22c0-.4-.12-.72-.36-.96-.24-.24-.66-.36-1.26-.36-.4,0-.79.03-1.18.09-.39.06-.72.14-1,.24l-.3-1.88c.14-.04.31-.09.51-.13.2-.05.43-.09.67-.13.24-.04.49-.07.76-.09.27-.03.54-.04.81-.04Zm.19,6.85c.23,0,.45,0,.66-.02.21-.01.38-.03.5-.05v-1.77c-.09-.02-.24-.04-.42-.06s-.36-.03-.52-.03c-.22,0-.43.01-.62.04-.19.03-.36.08-.51.15s-.26.17-.35.3-.12.28-.12.47c0,.37.12.62.37.76.25.14.58.21,1.01.21Z" style="fill: #a3ea2a;"/>
    <path d="m1119.11,30.81c.4-.12.91-.22,1.54-.32.63-.1,1.29-.15,1.98-.15s1.29.09,1.75.27.83.44,1.11.78.47.73.58,1.19c.12.46.17.97.17,1.54v4.66h-2.34v-4.38c0-.75-.1-1.29-.3-1.6-.2-.31-.57-.47-1.11-.47-.17,0-.35,0-.53.02s-.36.03-.5.05v6.38h-2.34v-7.98Z" style="fill: #a3ea2a;"/>
    <path d="m1135.65,38.52c-.21.06-.45.12-.72.18-.27.06-.56.11-.86.15-.3.04-.6.08-.91.1-.31.03-.6.04-.89.04-.68,0-1.29-.1-1.82-.3s-.98-.48-1.35-.86c-.37-.37-.65-.82-.84-1.35s-.29-1.12-.29-1.78.08-1.27.25-1.81c.17-.54.41-1,.72-1.37.31-.38.7-.66,1.15-.86.46-.2.98-.3,1.56-.3.32,0,.62.03.87.09.26.06.52.15.78.27v-3.74l2.34-.38v11.92Zm-5.29-3.93c0,.72.16,1.3.49,1.74.32.44.81.66,1.44.66.21,0,.4,0,.58-.02.18-.02.33-.03.44-.06v-4.26c-.15-.09-.34-.17-.57-.24-.24-.06-.47-.09-.71-.09-1.11,0-1.66.75-1.66,2.26Z" style="fill: #a3ea2a;"/>
    <path d="m1080.8,43.61h2.45v10.88h-2.45v-10.88Z" style="fill: #a3ea2a;"/>
    <path d="m1090.15,50.11c0-.75-.1-1.29-.29-1.6s-.53-.47-1-.47c-.15,0-.3,0-.46.02s-.31.03-.46.05v6.38h-2.34v-7.98c.2-.05.43-.11.7-.17.27-.06.55-.11.85-.16.3-.05.6-.08.92-.11.31-.03.62-.04.93-.04.6,0,1.08.08,1.45.23.37.15.68.33.92.54.33-.24.72-.43,1.15-.57.43-.14.83-.2,1.2-.2.66,0,1.2.09,1.62.27s.76.44,1.01.78.42.73.52,1.19c.09.46.14.97.14,1.54v4.66h-2.34v-4.38c0-.75-.1-1.29-.29-1.6s-.53-.47-1-.47c-.13,0-.3.03-.53.09-.22.06-.41.14-.56.24.07.24.12.49.14.76.02.27.03.55.03.86v4.51h-2.34v-4.38Z" style="fill: #a3ea2a;"/>
    <path d="m1106.82,50.36c0,.64-.08,1.22-.24,1.74-.16.52-.39.97-.69,1.35s-.68.67-1.13.88c-.45.21-.97.31-1.55.31-.32,0-.63-.03-.91-.09-.28-.06-.56-.15-.82-.27v3.11h-2.34v-10.88c.21-.06.45-.12.72-.18.27-.06.56-.11.86-.15.3-.04.6-.08.91-.1.31-.03.6-.04.89-.04.68,0,1.29.1,1.82.31s.98.49,1.35.86c.37.37.65.82.84,1.36s.29,1.13.29,1.79Zm-2.39.06c0-.72-.16-1.3-.49-1.73-.32-.43-.81-.65-1.44-.65-.21,0-.4,0-.58.02-.18.02-.33.03-.44.05v4.22c.15.09.34.17.57.24.24.06.47.09.71.09,1.11,0,1.66-.75,1.66-2.25Z" style="fill: #a3ea2a;"/>
    <path d="m1111.6,46.01c.69,0,1.27.08,1.73.24.46.16.83.38,1.11.68.28.29.47.65.59,1.07.12.42.17.88.17,1.4v4.87c-.33.07-.8.16-1.4.26s-1.32.15-2.17.15c-.53,0-1.02-.05-1.45-.14-.43-.09-.81-.25-1.12-.46-.31-.21-.56-.5-.72-.84-.17-.35-.25-.77-.25-1.27s.1-.89.29-1.22.45-.6.78-.8.7-.34,1.12-.43c.42-.09.85-.13,1.3-.13.3,0,.57.01.81.04.24.03.43.06.57.1v-.22c0-.4-.12-.72-.36-.96-.24-.24-.66-.36-1.26-.36-.4,0-.79.03-1.18.09-.39.06-.72.14-1,.24l-.3-1.88c.14-.04.31-.09.51-.13.2-.05.43-.09.67-.13.24-.04.49-.07.76-.09.27-.03.54-.04.81-.04Zm.19,6.85c.23,0,.45,0,.66-.02.21-.01.38-.03.5-.05v-1.77c-.09-.02-.24-.04-.42-.06-.19-.02-.36-.03-.52-.03-.22,0-.43.01-.62.04-.19.03-.36.08-.51.15s-.26.17-.35.3c-.08.13-.12.28-.12.47,0,.37.12.62.37.76.25.14.58.21,1.01.21Z" style="fill: #a3ea2a;"/>
    <path d="m1116.92,50.36c0-.6.1-1.16.29-1.69.19-.53.47-.99.84-1.38s.81-.7,1.33-.93c.52-.23,1.12-.35,1.79-.35.44,0,.84.04,1.21.12s.72.19,1.07.34l-.49,1.87c-.22-.08-.46-.16-.72-.22-.26-.06-.56-.09-.88-.09-.69,0-1.21.21-1.55.64-.34.43-.51.99-.51,1.7,0,.74.16,1.32.48,1.73s.88.61,1.67.61c.28,0,.59-.03.91-.08.32-.05.62-.14.9-.25l.33,1.92c-.27.12-.61.21-1.02.3-.41.08-.86.13-1.35.13-.75,0-1.4-.11-1.95-.34-.54-.22-.99-.53-1.34-.92-.35-.39-.61-.85-.77-1.37-.16-.53-.24-1.1-.24-1.72Z" style="fill: #a3ea2a;"/>
    <path d="m1125.08,44.17l2.34-.38v2.43h2.81v1.95h-2.81v2.91c0,.49.09.88.26,1.18s.52.44,1.04.44c.25,0,.51-.02.78-.07.27-.05.51-.11.73-.2l.33,1.82c-.28.12-.6.21-.94.3-.35.08-.77.13-1.27.13-.64,0-1.17-.09-1.59-.26-.42-.17-.75-.41-1-.72-.25-.31-.43-.68-.53-1.12-.1-.44-.15-.93-.15-1.46v-6.94Z" style="fill: #a3ea2a;"/>
    <path d="m1082.65,70.19c-.12-.38-.25-.77-.39-1.17s-.28-.79-.42-1.19h-4.25c-.14.4-.28.79-.41,1.19-.14.4-.27.79-.39,1.16h-2.54c.41-1.17.8-2.26,1.17-3.25.37-1,.73-1.93,1.08-2.81.35-.88.7-1.71,1.04-2.5.34-.79.7-1.56,1.06-2.32h2.32c.36.75.71,1.53,1.06,2.32.35.79.7,1.62,1.05,2.5.35.88.71,1.82,1.08,2.81.37.99.76,2.08,1.17,3.25h-2.62Zm-2.94-8.42c-.05.16-.13.37-.24.65-.11.27-.23.59-.36.94-.13.36-.29.75-.45,1.18s-.33.88-.51,1.35h3.11c-.17-.47-.33-.92-.48-1.35-.16-.43-.3-.82-.44-1.18s-.26-.67-.37-.94c-.11-.27-.19-.48-.26-.64Z" style="fill: #a3ea2a;"/>
    <path d="m1086.51,62.21c.4-.12.91-.22,1.54-.32.63-.1,1.29-.15,1.98-.15s1.29.09,1.75.28c.47.18.83.44,1.11.78.27.34.47.73.58,1.19.12.46.17.97.17,1.54v4.66h-2.34v-4.38c0-.75-.1-1.29-.3-1.6-.2-.31-.57-.47-1.11-.47-.17,0-.35,0-.53.02s-.36.03-.5.06v6.38h-2.34v-7.98Z" style="fill: #a3ea2a;"/>
    <path d="m1098.73,61.71c.69,0,1.27.08,1.73.24.46.16.83.38,1.11.68s.47.65.59,1.07.17.88.17,1.4v4.87c-.33.07-.8.16-1.4.26s-1.32.15-2.17.15c-.53,0-1.02-.05-1.45-.14-.43-.09-.81-.25-1.12-.46-.31-.21-.56-.5-.72-.84-.17-.35-.25-.77-.25-1.27s.1-.89.29-1.22.45-.6.78-.8.7-.34,1.12-.43c.42-.09.85-.13,1.3-.13.3,0,.57.01.81.04.24.03.43.06.57.1v-.22c0-.4-.12-.72-.36-.96s-.66-.36-1.26-.36c-.4,0-.79.03-1.18.09-.39.06-.72.14-1,.24l-.3-1.88c.14-.04.31-.09.51-.13.2-.05.43-.09.67-.12.24-.04.49-.07.76-.09.27-.03.54-.04.81-.04Zm.19,6.85c.23,0,.45,0,.66-.02.21-.01.38-.03.5-.05v-1.77c-.09-.02-.24-.04-.42-.06-.19-.02-.36-.03-.52-.03-.22,0-.43.01-.62.04-.19.03-.36.08-.51.15s-.26.17-.35.3c-.08.13-.12.28-.12.47,0,.37.12.62.37.76.25.14.58.21,1.01.21Z" style="fill: #a3ea2a;"/>
    <path d="m1107.74,70.35c-.68-.01-1.23-.08-1.66-.22-.42-.14-.76-.33-1-.57s-.41-.54-.5-.9c-.09-.35-.13-.75-.13-1.19v-9.09l2.34-.38v9c0,.21.02.4.05.57.03.17.09.31.18.42.09.12.22.21.38.28.17.07.39.12.67.14l-.33,1.93Z" style="fill: #a3ea2a;"/>
    <path d="m1116.58,61.93c-.47,1.59-.97,3.08-1.48,4.48-.51,1.39-1.08,2.74-1.68,4.05-.22.47-.44.87-.66,1.2-.22.33-.46.6-.72.82-.26.21-.56.37-.89.47-.33.1-.72.15-1.16.15-.37,0-.71-.03-1.01-.1-.31-.07-.56-.14-.76-.23l.41-1.87c.24.08.46.14.64.17.19.03.39.05.6.05.42,0,.74-.11.97-.34.22-.23.42-.54.57-.93-.53-1.05-1.07-2.22-1.6-3.53-.53-1.3-1.04-2.77-1.51-4.39h2.48c.11.41.23.85.37,1.33s.29.96.45,1.44c.16.49.32.96.48,1.42.16.46.32.88.46,1.26.14-.38.28-.8.43-1.26.15-.46.29-.93.43-1.42.14-.49.28-.97.41-1.44.13-.48.25-.92.35-1.33h2.42Z" style="fill: #a3ea2a;"/>
    <path d="m1120.19,68.51c.43,0,.73-.04.91-.12s.27-.25.27-.49c0-.19-.12-.35-.35-.49-.23-.14-.58-.3-1.05-.48-.37-.14-.7-.28-1-.42-.3-.15-.55-.32-.76-.53-.21-.2-.37-.45-.49-.73-.12-.28-.17-.62-.17-1.02,0-.77.29-1.39.86-1.84.58-.45,1.37-.67,2.37-.67.5,0,.98.04,1.44.13s.83.19,1.1.29l-.41,1.82c-.27-.09-.57-.18-.89-.25s-.68-.11-1.08-.11c-.73,0-1.1.2-1.1.61,0,.09.02.18.05.25s.09.14.19.21c.09.07.22.14.38.22s.37.17.62.26c.51.19.94.38,1.27.56.33.18.6.38.79.6.19.21.33.45.41.71.08.26.12.56.12.91,0,.81-.31,1.43-.92,1.85-.61.42-1.48.63-2.6.63-.73,0-1.34-.06-1.83-.19-.49-.12-.82-.23-1.01-.31l.39-1.9c.4.16.81.28,1.22.37s.83.13,1.24.13Z" style="fill: #a3ea2a;"/>
    <path d="m1128,59.54c0,.43-.14.77-.42,1.01s-.6.37-.98.37-.7-.12-.98-.37-.42-.58-.42-1.01.14-.77.42-1.01.61-.37.98-.37.7.12.98.37.42.58.42,1.01Zm-.22,10.65h-2.34v-8.26h2.34v8.26Z" style="fill: #a3ea2a;"/>
    <path d="m1132.35,68.51c.43,0,.73-.04.91-.12s.27-.25.27-.49c0-.19-.12-.35-.35-.49-.23-.14-.58-.3-1.05-.48-.37-.14-.7-.28-1-.42-.3-.15-.55-.32-.76-.53-.21-.2-.37-.45-.49-.73-.12-.28-.17-.62-.17-1.02,0-.77.29-1.39.86-1.84.58-.45,1.37-.67,2.37-.67.5,0,.98.04,1.44.13s.83.19,1.1.29l-.41,1.82c-.27-.09-.57-.18-.89-.25s-.68-.11-1.08-.11c-.73,0-1.1.2-1.1.61,0,.09.02.18.05.25s.09.14.19.21c.09.07.22.14.38.22s.37.17.62.26c.51.19.94.38,1.27.56.33.18.6.38.79.6.19.21.33.45.41.71.08.26.12.56.12.91,0,.81-.31,1.43-.92,1.85-.61.42-1.48.63-2.6.63-.73,0-1.34-.06-1.83-.19-.49-.12-.82-.23-1.01-.31l.39-1.9c.4.16.81.28,1.22.37s.83.13,1.24.13Z" style="fill: #a3ea2a;"/>
  </g>
  <g>
    <path d="m565.09,46.64c-.12-.38-.25-.77-.39-1.17-.14-.4-.28-.8-.42-1.19h-4.25c-.14.4-.28.79-.41,1.19s-.27.79-.39,1.16h-2.54c.41-1.17.8-2.26,1.17-3.25.37-.99.73-1.93,1.08-2.81.35-.88.7-1.71,1.04-2.5.34-.79.7-1.56,1.06-2.32h2.32c.36.75.71,1.53,1.06,2.32.35.79.7,1.63,1.05,2.5.35.88.71,1.82,1.08,2.81.37.99.76,2.08,1.17,3.25h-2.62Zm-2.94-8.42c-.05.16-.13.37-.24.65-.11.27-.23.59-.36.94-.13.36-.28.75-.45,1.18s-.33.88-.51,1.35h3.11c-.17-.47-.33-.92-.48-1.35-.16-.43-.3-.82-.44-1.18-.14-.36-.26-.67-.37-.94-.11-.27-.19-.48-.26-.64Z" style="fill: #a3ea2a;"/>
    <path d="m568.95,38.66c.4-.12.91-.22,1.54-.32.63-.1,1.29-.15,1.98-.15s1.28.09,1.75.27c.47.18.83.44,1.11.78.27.33.47.73.58,1.19.11.46.17.97.17,1.54v4.66h-2.34v-4.38c0-.75-.1-1.29-.3-1.6-.2-.31-.57-.47-1.12-.47-.17,0-.35,0-.53.02s-.36.03-.5.05v6.38h-2.34v-7.98Z" style="fill: #a3ea2a;"/>
    <path d="m581.17,38.16c.69,0,1.27.08,1.73.24.46.16.83.38,1.11.68.28.29.47.65.59,1.07.12.42.17.88.17,1.4v4.87c-.34.07-.8.16-1.4.26-.6.1-1.32.15-2.17.15-.53,0-1.02-.05-1.45-.14-.43-.09-.81-.25-1.12-.46-.31-.21-.55-.49-.72-.84-.17-.35-.25-.77-.25-1.27s.1-.89.29-1.22c.19-.33.45-.6.78-.8.32-.2.7-.34,1.12-.43.42-.09.85-.13,1.3-.13.3,0,.57.01.81.04.24.03.43.06.57.1v-.22c0-.4-.12-.72-.36-.96-.24-.24-.66-.36-1.26-.36-.4,0-.79.03-1.18.09-.39.06-.72.14-1.01.24l-.3-1.88c.14-.04.31-.09.51-.13.2-.05.43-.09.67-.13.24-.04.49-.07.76-.09.27-.03.54-.04.81-.04Zm.19,6.85c.23,0,.45,0,.66-.02.21-.01.38-.03.5-.05v-1.77c-.09-.02-.24-.04-.42-.06s-.36-.03-.52-.03c-.22,0-.43.01-.62.04-.19.03-.36.08-.51.15-.15.07-.26.17-.35.3-.08.13-.13.28-.13.47,0,.37.12.62.37.76.25.14.58.21,1.01.21Z" style="fill: #a3ea2a;"/>
    <path d="m590.18,46.79c-.68-.01-1.23-.08-1.66-.22-.42-.14-.76-.33-1-.57-.25-.25-.41-.54-.5-.9-.09-.35-.13-.75-.13-1.19v-9.09l2.34-.38v9c0,.21.02.4.05.56.03.17.09.31.18.42s.22.21.38.28.39.12.68.14l-.33,1.93Z" style="fill: #a3ea2a;"/>
    <path d="m599.02,38.38c-.47,1.59-.97,3.08-1.48,4.48-.51,1.39-1.08,2.74-1.68,4.05-.22.47-.44.87-.66,1.2s-.46.6-.72.82c-.26.21-.56.37-.89.47-.33.1-.72.15-1.16.15-.37,0-.71-.03-1.01-.1-.31-.07-.56-.14-.76-.23l.41-1.87c.24.08.46.14.64.17s.39.05.6.05c.42,0,.74-.11.97-.34.23-.23.42-.54.57-.93-.53-1.05-1.07-2.22-1.6-3.52s-1.04-2.77-1.51-4.39h2.48c.1.41.23.85.37,1.33.14.48.29.96.45,1.44.16.49.32.96.48,1.42.16.46.32.88.47,1.26.14-.38.28-.8.43-1.26.15-.46.29-.93.43-1.42.14-.49.28-.97.41-1.44.13-.48.25-.92.35-1.33h2.42Z" style="fill: #a3ea2a;"/>
    <path d="m602.63,44.96c.43,0,.73-.04.91-.13s.27-.25.27-.49c0-.19-.12-.35-.35-.49-.23-.14-.58-.3-1.05-.48-.37-.14-.7-.28-1-.42s-.55-.32-.76-.53-.37-.45-.49-.73-.17-.62-.17-1.02c0-.77.29-1.39.86-1.84.58-.45,1.37-.68,2.37-.68.5,0,.98.04,1.44.13.46.09.83.19,1.1.29l-.41,1.82c-.27-.09-.57-.18-.89-.25-.32-.07-.68-.11-1.08-.11-.73,0-1.1.2-1.1.61,0,.09.02.18.05.25s.1.14.19.21c.09.07.22.14.38.22.16.08.37.17.62.26.51.19.94.38,1.27.56.33.18.6.38.79.6.19.21.33.45.41.71.08.26.12.56.12.91,0,.81-.31,1.43-.92,1.85-.61.42-1.48.63-2.6.63-.73,0-1.34-.06-1.83-.19-.49-.13-.82-.23-1.01-.31l.39-1.9c.4.16.81.28,1.23.37.42.09.83.13,1.24.13Z" style="fill: #a3ea2a;"/>
    <path d="m607.48,42.57c0-.73.11-1.37.34-1.92.23-.55.52-1.01.89-1.37.37-.37.79-.64,1.26-.83s.97-.28,1.47-.28c1.17,0,2.1.36,2.78,1.08.68.72,1.02,1.77,1.02,3.16,0,.14,0,.29-.02.45-.01.16-.02.31-.03.43h-5.31c.05.48.28.86.67,1.15.4.28.93.42,1.6.42.43,0,.85-.04,1.26-.12.41-.08.75-.18,1.01-.29l.31,1.9c-.12.06-.29.13-.5.19-.21.06-.44.12-.7.17-.26.05-.53.09-.82.12-.29.03-.59.05-.88.05-.74,0-1.39-.11-1.94-.33s-1-.52-1.37-.9-.63-.83-.8-1.36-.26-1.09-.26-1.7Zm5.5-.9c0-.2-.04-.39-.1-.58s-.15-.36-.27-.5c-.12-.15-.27-.27-.46-.36-.18-.09-.41-.14-.68-.14s-.49.04-.68.13-.34.21-.47.35-.22.32-.29.51c-.07.19-.12.39-.15.59h3.09Z" style="fill: #a3ea2a;"/>
    <path d="m620.74,36.32l2.34-.38v2.43h2.81v1.95h-2.81v2.9c0,.49.09.88.26,1.18.17.29.52.44,1.04.44.25,0,.51-.02.78-.07.27-.05.51-.11.73-.2l.33,1.82c-.28.12-.6.21-.94.3-.35.08-.77.13-1.27.13-.64,0-1.17-.09-1.59-.26-.42-.17-.75-.41-1-.72-.25-.31-.43-.68-.53-1.12-.1-.44-.15-.93-.15-1.46v-6.94Z" style="fill: #a3ea2a;"/>
    <path d="m627.79,46.64v-11.81l2.34-.38v3.96c.16-.05.36-.1.61-.15.25-.05.48-.07.71-.07.67,0,1.23.09,1.67.27.44.18.8.44,1.07.78s.46.73.57,1.19c.11.46.17.97.17,1.54v4.66h-2.34v-4.38c0-.75-.1-1.29-.29-1.6-.19-.31-.55-.47-1.08-.47-.21,0-.41.02-.59.05-.18.04-.35.08-.5.12v6.28h-2.34Z" style="fill: #a3ea2a;"/>
    <path d="m636.64,42.57c0-.73.11-1.37.34-1.92.23-.55.52-1.01.89-1.37.37-.37.79-.64,1.26-.83s.97-.28,1.47-.28c1.17,0,2.1.36,2.78,1.08.68.72,1.02,1.77,1.02,3.16,0,.14,0,.29-.02.45-.01.16-.02.31-.03.43h-5.31c.05.48.28.86.67,1.15.4.28.93.42,1.6.42.43,0,.85-.04,1.26-.12.41-.08.75-.18,1.01-.29l.31,1.9c-.12.06-.29.13-.5.19-.21.06-.44.12-.7.17-.26.05-.53.09-.82.12-.29.03-.59.05-.88.05-.74,0-1.39-.11-1.94-.33s-1-.52-1.37-.9-.63-.83-.8-1.36-.26-1.09-.26-1.7Zm5.5-.9c0-.2-.04-.39-.1-.58s-.15-.36-.27-.5c-.12-.15-.27-.27-.46-.36-.18-.09-.41-.14-.68-.14s-.49.04-.68.13-.34.21-.47.35-.22.32-.29.51c-.07.19-.12.39-.15.59h3.09Z" style="fill: #a3ea2a;"/>
    <path d="m581.25,51.46v2.09h-3.28v8.79h-2.45v-8.79h-3.28v-2.09h9.01Z" style="fill: #a3ea2a;"/>
    <path d="m582.66,62.34v-11.81l2.34-.38v3.96c.16-.05.36-.1.6-.15.25-.05.48-.07.71-.07.67,0,1.23.09,1.67.28.44.18.8.44,1.07.78.27.34.46.73.57,1.19.11.46.16.97.16,1.54v4.66h-2.34v-4.38c0-.75-.1-1.29-.29-1.6-.19-.31-.55-.47-1.08-.47-.21,0-.41.02-.59.06-.18.04-.35.08-.49.12v6.28h-2.34Z" style="fill: #a3ea2a;"/>
    <path d="m596.89,56.15c-.21-.05-.46-.11-.74-.17s-.59-.09-.91-.09c-.15,0-.32.01-.53.04-.2.03-.36.05-.46.09v6.31h-2.34v-7.82c.42-.15.91-.29,1.48-.42.57-.13,1.21-.2,1.91-.2.13,0,.28,0,.46.02.18.02.36.04.53.06.18.03.36.06.53.09.18.04.33.08.46.13l-.39,1.93Z" style="fill: #a3ea2a;"/>
    <path d="m597.98,58.27c0-.73.11-1.37.34-1.92.22-.55.52-1.01.89-1.37.37-.37.79-.64,1.26-.83.48-.19.97-.28,1.47-.28,1.17,0,2.1.36,2.78,1.08.68.72,1.02,1.77,1.02,3.16,0,.14,0,.29-.02.45-.01.16-.02.31-.03.43h-5.31c.05.48.28.86.67,1.15.4.28.93.42,1.6.42.43,0,.85-.04,1.26-.12.41-.08.75-.17,1.01-.29l.31,1.9c-.12.06-.29.13-.5.19-.21.06-.44.12-.7.17-.26.05-.53.09-.82.12s-.59.05-.88.05c-.74,0-1.39-.11-1.94-.33-.55-.22-1-.52-1.37-.9s-.63-.83-.8-1.36-.26-1.09-.26-1.7Zm5.5-.89c0-.2-.04-.39-.1-.58s-.15-.36-.27-.5c-.12-.15-.27-.27-.46-.36-.18-.09-.41-.14-.68-.14s-.49.04-.68.13c-.19.09-.35.21-.47.35s-.22.32-.29.51c-.07.19-.12.39-.15.59h3.09Z" style="fill: #a3ea2a;"/>
    <path d="m610.52,53.86c.69,0,1.27.08,1.73.24.46.16.83.38,1.11.68s.47.65.59,1.07.17.88.17,1.4v4.87c-.33.07-.8.16-1.4.26s-1.32.15-2.17.15c-.53,0-1.02-.05-1.45-.14-.43-.09-.81-.25-1.12-.46-.31-.21-.56-.5-.72-.84-.17-.35-.25-.77-.25-1.27s.1-.89.29-1.22.45-.6.78-.8.7-.34,1.12-.43c.42-.09.85-.13,1.3-.13.3,0,.57.01.81.04.24.03.43.06.57.1v-.22c0-.4-.12-.72-.36-.96s-.66-.36-1.26-.36c-.4,0-.79.03-1.18.09-.39.06-.72.14-1,.24l-.3-1.88c.14-.04.31-.09.51-.13.2-.05.43-.09.67-.12.24-.04.49-.07.76-.09.27-.03.54-.04.81-.04Zm.19,6.85c.23,0,.45,0,.66-.02.21-.01.38-.03.5-.05v-1.77c-.09-.02-.24-.04-.42-.06-.19-.02-.36-.03-.52-.03-.22,0-.43.01-.62.04-.19.03-.36.08-.51.15s-.26.17-.35.3c-.08.13-.12.28-.12.47,0,.37.12.62.37.76.25.14.58.21,1.01.21Z" style="fill: #a3ea2a;"/>
    <path d="m616.15,52.02l2.34-.38v2.43h2.81v1.95h-2.81v2.91c0,.49.09.88.26,1.18s.52.44,1.04.44c.25,0,.51-.02.78-.07.27-.05.51-.11.73-.2l.33,1.82c-.28.12-.6.21-.94.3-.35.08-.77.13-1.27.13-.64,0-1.17-.09-1.59-.26-.42-.17-.75-.41-1-.72-.25-.31-.43-.68-.53-1.12-.1-.44-.15-.93-.15-1.46v-6.94Z" style="fill: #a3ea2a;"/>
    <path d="m625.57,60.66c.43,0,.73-.04.91-.12s.27-.25.27-.49c0-.19-.12-.35-.35-.49-.23-.14-.58-.3-1.05-.48-.37-.14-.7-.28-1-.42-.3-.15-.55-.32-.76-.53-.21-.2-.37-.45-.49-.73-.12-.28-.17-.62-.17-1.02,0-.77.29-1.39.86-1.84.58-.45,1.37-.67,2.37-.67.5,0,.98.04,1.44.13s.83.19,1.1.29l-.41,1.82c-.27-.09-.57-.18-.89-.25s-.68-.11-1.08-.11c-.73,0-1.1.2-1.1.61,0,.09.02.18.05.25s.09.14.19.21c.09.07.22.14.38.22s.37.17.62.26c.51.19.94.38,1.27.56.33.18.6.38.79.6.19.21.33.45.41.71.08.26.12.56.12.91,0,.81-.31,1.43-.92,1.85-.61.42-1.48.63-2.6.63-.73,0-1.34-.06-1.83-.19-.49-.12-.82-.23-1.01-.31l.39-1.9c.4.16.81.28,1.22.37s.83.13,1.24.13Z" style="fill: #a3ea2a;"/>
  </g>
  <g>
    <path d="m725.85,38.78c-.43-.91-.86-1.86-1.28-2.85-.42-.98-.82-1.96-1.2-2.92-.38-.96-.73-1.88-1.05-2.76-.32-.88-.59-1.67-.82-2.36h2.7c.2.63.43,1.31.68,2.03s.5,1.45.76,2.17c.26.72.51,1.41.74,2.07s.46,1.23.68,1.71c.2-.48.43-1.05.67-1.71.24-.66.49-1.35.75-2.07.26-.72.51-1.45.76-2.17s.48-1.41.68-2.04h2.61c-.24.69-.52,1.48-.84,2.36s-.66,1.8-1.04,2.76c-.38.96-.77,1.94-1.19,2.92-.42.98-.84,1.93-1.27,2.84h-2.34Z" style="fill: #a3ea2a;"/>
    <path d="m740.5,38.5c-.4.12-.91.22-1.54.32-.63.1-1.29.15-1.98.15s-1.29-.09-1.75-.28c-.47-.19-.83-.45-1.11-.79-.27-.34-.47-.75-.58-1.22-.12-.47-.17-.99-.17-1.55v-4.6h2.34v4.32c0,.75.1,1.3.3,1.63.2.33.57.5,1.11.5.17,0,.35,0,.53-.02.19-.02.36-.03.5-.05v-6.38h2.34v7.98Z" style="fill: #a3ea2a;"/>
    <path d="m746,38.94c-.68-.01-1.23-.08-1.66-.22-.42-.14-.76-.33-1-.57s-.41-.54-.5-.9c-.09-.35-.13-.75-.13-1.19v-9.09l2.34-.38v9c0,.21.02.4.05.56.03.17.09.31.18.42.09.12.22.21.38.28.17.07.39.12.67.14l-.33,1.93Z" style="fill: #a3ea2a;"/>
    <path d="m747.66,30.81c.4-.12.91-.22,1.54-.32.63-.1,1.29-.15,1.98-.15s1.29.09,1.75.27.83.44,1.11.78.47.73.58,1.19c.12.46.17.97.17,1.54v4.66h-2.34v-4.38c0-.75-.1-1.29-.3-1.6-.2-.31-.57-.47-1.11-.47-.17,0-.35,0-.53.02s-.36.03-.5.05v6.38h-2.34v-7.98Z" style="fill: #a3ea2a;"/>
    <path d="m756.52,34.72c0-.73.11-1.37.34-1.92.23-.55.52-1.01.89-1.37.37-.37.79-.64,1.26-.83s.97-.28,1.47-.28c1.17,0,2.1.36,2.78,1.08.68.72,1.02,1.77,1.02,3.16,0,.14,0,.29-.02.45-.01.16-.02.31-.03.43h-5.31c.05.48.28.86.67,1.15.4.28.93.42,1.6.42.43,0,.85-.04,1.26-.12.41-.08.75-.18,1.01-.29l.31,1.9c-.12.06-.29.13-.5.19-.21.06-.44.12-.7.17-.26.05-.53.09-.82.12-.29.03-.59.05-.88.05-.74,0-1.39-.11-1.94-.33s-1-.52-1.37-.9-.63-.83-.8-1.36-.26-1.09-.26-1.7Zm5.5-.9c0-.2-.04-.39-.1-.58s-.15-.36-.27-.5c-.12-.15-.27-.27-.46-.36-.18-.09-.41-.14-.68-.14s-.49.04-.68.13-.34.21-.47.35-.22.32-.29.51c-.07.19-.12.39-.15.59h3.09Z" style="fill: #a3ea2a;"/>
    <path d="m771.06,32.6c-.21-.05-.46-.11-.74-.16-.28-.06-.59-.09-.91-.09-.15,0-.32.01-.53.04-.2.03-.36.06-.46.09v6.31h-2.34v-7.82c.42-.15.91-.29,1.48-.42.57-.13,1.21-.2,1.91-.2.12,0,.28,0,.46.02s.36.04.53.06c.18.03.36.06.53.09.18.04.33.08.46.13l-.39,1.93Z" style="fill: #a3ea2a;"/>
    <path d="m775.52,30.3c.69,0,1.27.08,1.73.24.46.16.83.38,1.11.68.28.29.47.65.59,1.07.12.42.17.88.17,1.4v4.87c-.33.07-.8.16-1.4.26-.6.1-1.32.15-2.17.15-.53,0-1.02-.05-1.45-.14s-.81-.25-1.12-.46c-.31-.21-.56-.49-.72-.84-.17-.35-.25-.77-.25-1.27s.1-.89.29-1.22.45-.6.78-.8.7-.34,1.12-.43c.42-.09.85-.13,1.3-.13.3,0,.57.01.81.04.24.03.43.06.57.1v-.22c0-.4-.12-.72-.36-.96-.24-.24-.66-.36-1.26-.36-.4,0-.79.03-1.18.09-.39.06-.72.14-1,.24l-.3-1.88c.14-.04.31-.09.51-.13.2-.05.43-.09.67-.13.24-.04.49-.07.76-.09.27-.03.54-.04.81-.04Zm.19,6.85c.23,0,.45,0,.66-.02.21-.01.38-.03.5-.05v-1.77c-.09-.02-.24-.04-.42-.06s-.36-.03-.52-.03c-.22,0-.43.01-.62.04-.19.03-.36.08-.51.15s-.26.17-.35.3-.12.28-.12.47c0,.37.12.62.37.76.25.14.58.21,1.01.21Z" style="fill: #a3ea2a;"/>
    <path d="m788.91,34.65c0,.66-.1,1.26-.29,1.79-.19.53-.47.99-.84,1.37-.37.38-.82.67-1.35.87s-1.14.31-1.82.31c-.28,0-.58-.01-.89-.04-.31-.03-.61-.06-.91-.1-.3-.04-.58-.09-.86-.15-.27-.06-.51-.12-.72-.18v-11.54l2.34-.38v4.11c.26-.12.53-.2.82-.27.28-.06.59-.09.91-.09.59,0,1.1.1,1.55.31.45.2.83.49,1.13.87.3.38.53.83.69,1.36.16.53.24,1.12.24,1.77Zm-2.39-.06c0-1.51-.55-2.26-1.66-2.26-.24,0-.48.03-.71.09-.24.06-.43.14-.57.24v4.26c.12.02.26.04.44.06.18.02.37.02.58.02.64,0,1.12-.22,1.44-.66.32-.44.49-1.02.49-1.74Z" style="fill: #a3ea2a;"/>
    <path d="m793.28,28.14c0,.43-.14.77-.42,1.01-.28.25-.6.37-.98.37s-.7-.12-.98-.37c-.28-.25-.42-.58-.42-1.01s.14-.77.42-1.01.61-.37.98-.37.7.12.98.37.42.58.42,1.01Zm-.22,10.65h-2.34v-8.26h2.34v8.26Z" style="fill: #a3ea2a;"/>
    <path d="m798.55,38.94c-.68-.01-1.23-.08-1.66-.22-.42-.14-.76-.33-1-.57s-.41-.54-.5-.9c-.09-.35-.13-.75-.13-1.19v-9.09l2.34-.38v9c0,.21.02.4.05.56.03.17.09.31.18.42.09.12.22.21.38.28.17.07.39.12.67.14l-.33,1.93Z" style="fill: #a3ea2a;"/>
    <path d="m802.78,28.14c0,.43-.14.77-.42,1.01-.28.25-.6.37-.98.37s-.7-.12-.98-.37c-.28-.25-.42-.58-.42-1.01s.14-.77.42-1.01.61-.37.98-.37.7.12.98.37.42.58.42,1.01Zm-.22,10.65h-2.34v-8.26h2.34v8.26Z" style="fill: #a3ea2a;"/>
    <path d="m804.68,28.47l2.34-.38v2.43h2.81v1.95h-2.81v2.9c0,.49.09.88.26,1.18.17.29.52.44,1.04.44.25,0,.51-.02.78-.07.27-.05.51-.11.73-.2l.33,1.82c-.28.12-.6.21-.94.3-.35.08-.77.13-1.27.13-.64,0-1.17-.09-1.59-.26-.42-.17-.75-.41-1-.72-.25-.31-.43-.68-.53-1.12-.1-.44-.15-.93-.15-1.46v-6.94Z" style="fill: #a3ea2a;"/>
    <path d="m814.29,28.14c0,.43-.14.77-.42,1.01-.28.25-.6.37-.98.37s-.7-.12-.98-.37c-.28-.25-.42-.58-.42-1.01s.14-.77.42-1.01.61-.37.98-.37.7.12.98.37.42.58.42,1.01Zm-.22,10.65h-2.34v-8.26h2.34v8.26Z" style="fill: #a3ea2a;"/>
    <path d="m815.87,34.72c0-.73.11-1.37.34-1.92.23-.55.52-1.01.89-1.37.37-.37.79-.64,1.26-.83s.97-.28,1.47-.28c1.17,0,2.1.36,2.78,1.08.68.72,1.02,1.77,1.02,3.16,0,.14,0,.29-.02.45-.01.16-.02.31-.03.43h-5.31c.05.48.28.86.67,1.15.4.28.93.42,1.6.42.43,0,.85-.04,1.26-.12.41-.08.75-.18,1.01-.29l.31,1.9c-.12.06-.29.13-.5.19-.21.06-.44.12-.7.17-.26.05-.53.09-.82.12-.29.03-.59.05-.88.05-.74,0-1.39-.11-1.94-.33s-1-.52-1.37-.9-.63-.83-.8-1.36-.26-1.09-.26-1.7Zm5.5-.9c0-.2-.04-.39-.1-.58s-.15-.36-.27-.5c-.12-.15-.27-.27-.46-.36-.18-.09-.41-.14-.68-.14s-.49.04-.68.13-.34.21-.47.35-.22.32-.29.51c-.07.19-.12.39-.15.59h3.09Z" style="fill: #a3ea2a;"/>
    <path d="m827.81,37.1c.43,0,.73-.04.91-.13s.27-.25.27-.49c0-.19-.12-.35-.35-.49-.23-.14-.58-.3-1.05-.48-.37-.14-.7-.28-1-.42-.3-.15-.55-.32-.76-.53-.21-.2-.37-.45-.49-.73s-.17-.62-.17-1.02c0-.77.29-1.39.86-1.84.58-.45,1.37-.68,2.37-.68.5,0,.98.04,1.44.13.46.09.83.19,1.1.29l-.41,1.82c-.27-.09-.57-.18-.89-.25s-.68-.11-1.08-.11c-.73,0-1.1.2-1.1.61,0,.09.02.18.05.25s.09.14.19.21c.09.07.22.14.38.22.16.08.37.17.62.26.51.19.94.38,1.27.56.33.18.6.38.79.6.19.21.33.45.41.71.08.26.12.56.12.91,0,.81-.31,1.43-.92,1.85-.61.42-1.48.63-2.6.63-.73,0-1.34-.06-1.83-.19-.49-.13-.82-.23-1.01-.31l.39-1.9c.4.16.81.28,1.22.37s.83.13,1.24.13Z" style="fill: #a3ea2a;"/>
    <path d="m719.25,46.01c.69,0,1.27.08,1.73.24.46.16.83.38,1.11.68.28.29.47.65.59,1.07.12.42.17.88.17,1.4v4.87c-.33.07-.8.16-1.4.26s-1.32.15-2.17.15c-.53,0-1.02-.05-1.45-.14-.43-.09-.81-.25-1.12-.46-.31-.21-.56-.5-.72-.84-.17-.35-.25-.77-.25-1.27s.1-.89.29-1.22.45-.6.78-.8.7-.34,1.12-.43c.42-.09.85-.13,1.3-.13.3,0,.57.01.81.04.24.03.43.06.57.1v-.22c0-.4-.12-.72-.36-.96-.24-.24-.66-.36-1.26-.36-.4,0-.79.03-1.18.09-.39.06-.72.14-1,.24l-.3-1.88c.14-.04.31-.09.51-.13.2-.05.43-.09.67-.13.24-.04.49-.07.76-.09.27-.03.54-.04.81-.04Zm.19,6.85c.23,0,.45,0,.66-.02.21-.01.38-.03.5-.05v-1.77c-.09-.02-.24-.04-.42-.06-.19-.02-.36-.03-.52-.03-.22,0-.43.01-.62.04-.19.03-.36.08-.51.15s-.26.17-.35.3c-.08.13-.12.28-.12.47,0,.37.12.62.37.76.25.14.58.21,1.01.21Z" style="fill: #a3ea2a;"/>
    <path d="m724.96,46.51c.4-.12.91-.22,1.54-.32.63-.1,1.29-.15,1.98-.15s1.29.09,1.75.27.83.44,1.11.78.47.73.58,1.19c.12.46.17.97.17,1.54v4.66h-2.34v-4.38c0-.75-.1-1.29-.3-1.6-.2-.31-.57-.47-1.11-.47-.17,0-.35,0-.53.02s-.36.03-.5.05v6.38h-2.34v-7.98Z" style="fill: #a3ea2a;"/>
    <path d="m741.5,54.22c-.21.06-.45.12-.72.18s-.56.11-.86.15c-.3.04-.6.08-.91.1-.31.03-.6.04-.89.04-.68,0-1.29-.1-1.82-.3-.53-.2-.98-.48-1.35-.86-.37-.37-.65-.82-.84-1.35-.19-.53-.29-1.12-.29-1.78s.08-1.27.25-1.81c.17-.54.41-1,.72-1.37.31-.38.7-.66,1.15-.86.46-.2.98-.3,1.56-.3.32,0,.62.03.87.09.26.06.52.15.78.27v-3.74l2.34-.38v11.92Zm-5.29-3.93c0,.72.16,1.3.49,1.74.32.44.81.66,1.44.66.21,0,.4,0,.58-.02.18-.02.33-.03.44-.05v-4.26c-.15-.09-.34-.17-.57-.24-.24-.06-.47-.09-.71-.09-1.11,0-1.66.75-1.66,2.26Z" style="fill: #a3ea2a;"/>
    <path d="m754.93,44.77c.12.43.26.91.42,1.45.15.54.31,1.1.49,1.67.17.58.35,1.15.52,1.73.18.58.35,1.11.52,1.6.14-.53.28-1.11.42-1.74.14-.63.28-1.28.4-1.95.13-.67.25-1.34.37-2,.12-.66.23-1.31.34-1.92h2.54c-.37,1.82-.79,3.67-1.27,5.54-.48,1.87-1,3.65-1.56,5.34h-2.24c-.37-1-.72-2.06-1.07-3.16s-.68-2.21-1.02-3.32c-.34,1.11-.67,2.22-1.01,3.32-.33,1.1-.69,2.16-1.05,3.16h-2.24c-.56-1.69-1.08-3.46-1.55-5.34-.48-1.87-.9-3.72-1.27-5.54h2.65c.11.62.22,1.26.35,1.92.13.67.26,1.33.39,2,.14.67.28,1.32.42,1.95.14.63.29,1.21.43,1.74.19-.51.37-1.06.55-1.63.18-.58.35-1.15.52-1.73.17-.58.32-1.13.46-1.66.14-.53.27-1.01.38-1.43h2.09Z" style="fill: #a3ea2a;"/>
    <path d="m761.44,50.42c0-.73.11-1.37.34-1.92.23-.55.52-1.01.89-1.37.37-.37.79-.64,1.26-.83s.97-.28,1.47-.28c1.17,0,2.1.36,2.78,1.08.68.72,1.02,1.77,1.02,3.16,0,.14,0,.29-.02.45-.01.16-.02.31-.03.43h-5.31c.05.48.28.86.67,1.15.4.28.93.42,1.6.42.43,0,.85-.04,1.26-.12.41-.08.75-.17,1.01-.29l.31,1.9c-.12.06-.29.13-.5.19-.21.06-.44.12-.7.17-.26.05-.53.09-.82.12s-.59.05-.88.05c-.74,0-1.39-.11-1.94-.33-.55-.22-1-.52-1.37-.9s-.63-.83-.8-1.36-.26-1.09-.26-1.7Zm5.5-.89c0-.2-.04-.39-.1-.58s-.15-.36-.27-.5c-.12-.15-.27-.27-.46-.36-.18-.09-.41-.14-.68-.14s-.49.04-.68.13-.34.21-.47.35-.22.32-.29.51c-.07.19-.12.39-.15.59h3.09Z" style="fill: #a3ea2a;"/>
    <path d="m773.97,46.01c.69,0,1.27.08,1.73.24.46.16.83.38,1.11.68.28.29.47.65.59,1.07.12.42.17.88.17,1.4v4.87c-.33.07-.8.16-1.4.26s-1.32.15-2.17.15c-.53,0-1.02-.05-1.45-.14-.43-.09-.81-.25-1.12-.46-.31-.21-.56-.5-.72-.84-.17-.35-.25-.77-.25-1.27s.1-.89.29-1.22.45-.6.78-.8.7-.34,1.12-.43c.42-.09.85-.13,1.3-.13.3,0,.57.01.81.04.24.03.43.06.57.1v-.22c0-.4-.12-.72-.36-.96-.24-.24-.66-.36-1.26-.36-.4,0-.79.03-1.18.09-.39.06-.72.14-1,.24l-.3-1.88c.14-.04.31-.09.51-.13.2-.05.43-.09.67-.13.24-.04.49-.07.76-.09.27-.03.54-.04.81-.04Zm.19,6.85c.23,0,.45,0,.66-.02.21-.01.38-.03.5-.05v-1.77c-.09-.02-.24-.04-.42-.06-.19-.02-.36-.03-.52-.03-.22,0-.43.01-.62.04-.19.03-.36.08-.51.15s-.26.17-.35.3c-.08.13-.12.28-.12.47,0,.37.12.62.37.76.25.14.58.21,1.01.21Z" style="fill: #a3ea2a;"/>
    <path d="m782.03,49.19c.23-.25.47-.51.71-.78.25-.27.48-.54.71-.8.23-.27.45-.52.65-.76s.38-.45.53-.62h2.78c-.56.64-1.1,1.25-1.62,1.83-.53.58-1.11,1.18-1.74,1.79.31.28.64.62.97,1.01.33.39.66.8.97,1.22.31.42.6.84.86,1.26.26.42.48.8.66,1.15h-2.69c-.17-.27-.36-.57-.57-.91-.21-.33-.44-.66-.68-.99-.24-.33-.49-.65-.76-.95-.27-.3-.53-.56-.79-.77v3.62h-2.34v-11.81l2.34-.38v6.89Z" style="fill: #a3ea2a;"/>
    <path d="m788.78,46.51c.4-.12.91-.22,1.54-.32.63-.1,1.29-.15,1.98-.15s1.29.09,1.75.27.83.44,1.11.78.47.73.58,1.19c.12.46.17.97.17,1.54v4.66h-2.34v-4.38c0-.75-.1-1.29-.3-1.6-.2-.31-.57-.47-1.11-.47-.17,0-.35,0-.53.02s-.36.03-.5.05v6.38h-2.34v-7.98Z" style="fill: #a3ea2a;"/>
    <path d="m797.64,50.42c0-.73.11-1.37.34-1.92.23-.55.52-1.01.89-1.37.37-.37.79-.64,1.26-.83s.97-.28,1.47-.28c1.17,0,2.1.36,2.78,1.08.68.72,1.02,1.77,1.02,3.16,0,.14,0,.29-.02.45-.01.16-.02.31-.03.43h-5.31c.05.48.28.86.67,1.15.4.28.93.42,1.6.42.43,0,.85-.04,1.26-.12.41-.08.75-.17,1.01-.29l.31,1.9c-.12.06-.29.13-.5.19-.21.06-.44.12-.7.17-.26.05-.53.09-.82.12s-.59.05-.88.05c-.74,0-1.39-.11-1.94-.33-.55-.22-1-.52-1.37-.9s-.63-.83-.8-1.36-.26-1.09-.26-1.7Zm5.5-.89c0-.2-.04-.39-.1-.58s-.15-.36-.27-.5c-.12-.15-.27-.27-.46-.36-.18-.09-.41-.14-.68-.14s-.49.04-.68.13-.34.21-.47.35-.22.32-.29.51c-.07.19-.12.39-.15.59h3.09Z" style="fill: #a3ea2a;"/>
    <path d="m809.57,52.81c.43,0,.73-.04.91-.12s.27-.25.27-.49c0-.19-.12-.35-.35-.49-.23-.14-.58-.3-1.05-.48-.37-.14-.7-.28-1-.42-.3-.15-.55-.32-.76-.53-.21-.2-.37-.45-.49-.73-.12-.28-.17-.62-.17-1.02,0-.77.29-1.39.86-1.84.58-.45,1.37-.68,2.37-.68.5,0,.98.04,1.44.13.46.09.83.19,1.1.29l-.41,1.82c-.27-.09-.57-.18-.89-.25s-.68-.11-1.08-.11c-.73,0-1.1.2-1.1.61,0,.09.02.18.05.25s.09.14.19.21c.09.07.22.14.38.22.16.08.37.17.62.26.51.19.94.38,1.27.56.33.18.6.38.79.6.19.21.33.45.41.71.08.26.12.56.12.91,0,.81-.31,1.43-.92,1.85-.61.42-1.48.63-2.6.63-.73,0-1.34-.06-1.83-.19-.49-.12-.82-.23-1.01-.31l.39-1.9c.4.16.81.28,1.22.37s.83.13,1.24.13Z" style="fill: #a3ea2a;"/>
    <path d="m817.19,52.81c.43,0,.73-.04.91-.12s.27-.25.27-.49c0-.19-.12-.35-.35-.49-.23-.14-.58-.3-1.05-.48-.37-.14-.7-.28-1-.42-.3-.15-.55-.32-.76-.53-.21-.2-.37-.45-.49-.73-.12-.28-.17-.62-.17-1.02,0-.77.29-1.39.86-1.84.58-.45,1.37-.68,2.37-.68.5,0,.98.04,1.44.13.46.09.83.19,1.1.29l-.41,1.82c-.27-.09-.57-.18-.89-.25s-.68-.11-1.08-.11c-.73,0-1.1.2-1.1.61,0,.09.02.18.05.25s.09.14.19.21c.09.07.22.14.38.22.16.08.37.17.62.26.51.19.94.38,1.27.56.33.18.6.38.79.6.19.21.33.45.41.71.08.26.12.56.12.91,0,.81-.31,1.43-.92,1.85-.61.42-1.48.63-2.6.63-.73,0-1.34-.06-1.83-.19-.49-.12-.82-.23-1.01-.31l.39-1.9c.4.16.81.28,1.22.37s.83.13,1.24.13Z" style="fill: #a3ea2a;"/>
    <path d="m822.04,50.42c0-.73.11-1.37.34-1.92.23-.55.52-1.01.89-1.37.37-.37.79-.64,1.26-.83s.97-.28,1.47-.28c1.17,0,2.1.36,2.78,1.08.68.72,1.02,1.77,1.02,3.16,0,.14,0,.29-.02.45-.01.16-.02.31-.03.43h-5.31c.05.48.28.86.67,1.15.4.28.93.42,1.6.42.43,0,.85-.04,1.26-.12.41-.08.75-.17,1.01-.29l.31,1.9c-.12.06-.29.13-.5.19-.21.06-.44.12-.7.17-.26.05-.53.09-.82.12s-.59.05-.88.05c-.74,0-1.39-.11-1.94-.33-.55-.22-1-.52-1.37-.9s-.63-.83-.8-1.36-.26-1.09-.26-1.7Zm5.5-.89c0-.2-.04-.39-.1-.58s-.15-.36-.27-.5c-.12-.15-.27-.27-.46-.36-.18-.09-.41-.14-.68-.14s-.49.04-.68.13-.34.21-.47.35-.22.32-.29.51c-.07.19-.12.39-.15.59h3.09Z" style="fill: #a3ea2a;"/>
    <path d="m833.97,52.81c.43,0,.73-.04.91-.12s.27-.25.27-.49c0-.19-.12-.35-.35-.49-.23-.14-.58-.3-1.05-.48-.37-.14-.7-.28-1-.42-.3-.15-.55-.32-.76-.53-.21-.2-.37-.45-.49-.73-.12-.28-.17-.62-.17-1.02,0-.77.29-1.39.86-1.84.58-.45,1.37-.68,2.37-.68.5,0,.98.04,1.44.13.46.09.83.19,1.1.29l-.41,1.82c-.27-.09-.57-.18-.89-.25s-.68-.11-1.08-.11c-.73,0-1.1.2-1.1.61,0,.09.02.18.05.25s.09.14.19.21c.09.07.22.14.38.22.16.08.37.17.62.26.51.19.94.38,1.27.56.33.18.6.38.79.6.19.21.33.45.41.71.08.26.12.56.12.91,0,.81-.31,1.43-.92,1.85-.61.42-1.48.63-2.6.63-.73,0-1.34-.06-1.83-.19-.49-.12-.82-.23-1.01-.31l.39-1.9c.4.16.81.28,1.22.37s.83.13,1.24.13Z" style="fill: #a3ea2a;"/>
    <path d="m754,70.19c-.12-.38-.25-.77-.39-1.17s-.28-.79-.42-1.19h-4.25c-.14.4-.28.79-.41,1.19-.14.4-.27.79-.39,1.16h-2.54c.41-1.17.8-2.26,1.17-3.25.37-1,.73-1.93,1.08-2.81.35-.88.7-1.71,1.04-2.5.34-.79.7-1.56,1.06-2.32h2.32c.36.75.71,1.53,1.06,2.32.35.79.7,1.62,1.05,2.5.35.88.71,1.82,1.08,2.81.37.99.76,2.08,1.17,3.25h-2.62Zm-2.94-8.42c-.05.16-.13.37-.24.65-.11.27-.23.59-.36.94-.13.36-.29.75-.45,1.18s-.33.88-.51,1.35h3.11c-.17-.47-.33-.92-.48-1.35-.16-.43-.3-.82-.44-1.18s-.26-.67-.37-.94c-.11-.27-.19-.48-.26-.64Z" style="fill: #a3ea2a;"/>
    <path d="m757.87,62.21c.4-.12.91-.22,1.54-.32.63-.1,1.29-.15,1.98-.15s1.29.09,1.75.28c.47.18.83.44,1.11.78.27.34.47.73.58,1.19.12.46.17.97.17,1.54v4.66h-2.34v-4.38c0-.75-.1-1.29-.3-1.6-.2-.31-.57-.47-1.11-.47-.17,0-.35,0-.53.02s-.36.03-.5.06v6.38h-2.34v-7.98Z" style="fill: #a3ea2a;"/>
    <path d="m770.08,61.71c.69,0,1.27.08,1.73.24.46.16.83.38,1.11.68s.47.65.59,1.07.17.88.17,1.4v4.87c-.33.07-.8.16-1.4.26s-1.32.15-2.17.15c-.53,0-1.02-.05-1.45-.14-.43-.09-.81-.25-1.12-.46-.31-.21-.56-.5-.72-.84-.17-.35-.25-.77-.25-1.27s.1-.89.29-1.22.45-.6.78-.8.7-.34,1.12-.43c.42-.09.85-.13,1.3-.13.3,0,.57.01.81.04.24.03.43.06.57.1v-.22c0-.4-.12-.72-.36-.96s-.66-.36-1.26-.36c-.4,0-.79.03-1.18.09-.39.06-.72.14-1,.24l-.3-1.88c.14-.04.31-.09.51-.13.2-.05.43-.09.67-.12.24-.04.49-.07.76-.09.27-.03.54-.04.81-.04Zm.19,6.85c.23,0,.45,0,.66-.02.21-.01.38-.03.5-.05v-1.77c-.09-.02-.24-.04-.42-.06-.19-.02-.36-.03-.52-.03-.22,0-.43.01-.62.04-.19.03-.36.08-.51.15s-.26.17-.35.3c-.08.13-.12.28-.12.47,0,.37.12.62.37.76.25.14.58.21,1.01.21Z" style="fill: #a3ea2a;"/>
    <path d="m779.1,70.35c-.68-.01-1.23-.08-1.66-.22-.42-.14-.76-.33-1-.57s-.41-.54-.5-.9c-.09-.35-.13-.75-.13-1.19v-9.09l2.34-.38v9c0,.21.02.4.05.57.03.17.09.31.18.42.09.12.22.21.38.28.17.07.39.12.67.14l-.33,1.93Z" style="fill: #a3ea2a;"/>
    <path d="m787.94,61.93c-.47,1.59-.97,3.08-1.48,4.48-.51,1.39-1.08,2.74-1.68,4.05-.22.47-.44.87-.66,1.2-.22.33-.46.6-.72.82-.26.21-.56.37-.89.47-.33.1-.72.15-1.16.15-.37,0-.71-.03-1.01-.1-.31-.07-.56-.14-.76-.23l.41-1.87c.24.08.46.14.64.17.19.03.39.05.6.05.42,0,.74-.11.97-.34.22-.23.42-.54.57-.93-.53-1.05-1.07-2.22-1.6-3.53-.53-1.3-1.04-2.77-1.51-4.39h2.48c.11.41.23.85.37,1.33s.29.96.45,1.44c.16.49.32.96.48,1.42.16.46.32.88.46,1.26.14-.38.28-.8.43-1.26.15-.46.29-.93.43-1.42.14-.49.28-.97.41-1.44.13-.48.25-.92.35-1.33h2.42Z" style="fill: #a3ea2a;"/>
    <path d="m791.55,68.51c.43,0,.73-.04.91-.12s.27-.25.27-.49c0-.19-.12-.35-.35-.49-.23-.14-.58-.3-1.05-.48-.37-.14-.7-.28-1-.42-.3-.15-.55-.32-.76-.53-.21-.2-.37-.45-.49-.73-.12-.28-.17-.62-.17-1.02,0-.77.29-1.39.86-1.84.58-.45,1.37-.67,2.37-.67.5,0,.98.04,1.44.13s.83.19,1.1.29l-.41,1.82c-.27-.09-.57-.18-.89-.25s-.68-.11-1.08-.11c-.73,0-1.1.2-1.1.61,0,.09.02.18.05.25s.09.14.19.21c.09.07.22.14.38.22s.37.17.62.26c.51.19.94.38,1.27.56.33.18.6.38.79.6.19.21.33.45.41.71.08.26.12.56.12.91,0,.81-.31,1.43-.92,1.85-.61.42-1.48.63-2.6.63-.73,0-1.34-.06-1.83-.19-.49-.12-.82-.23-1.01-.31l.39-1.9c.4.16.81.28,1.22.37s.83.13,1.24.13Z" style="fill: #a3ea2a;"/>
    <path d="m799.35,59.54c0,.43-.14.77-.42,1.01s-.6.37-.98.37-.7-.12-.98-.37-.42-.58-.42-1.01.14-.77.42-1.01.61-.37.98-.37.7.12.98.37.42.58.42,1.01Zm-.22,10.65h-2.34v-8.26h2.34v8.26Z" style="fill: #a3ea2a;"/>
    <path d="m803.7,68.51c.43,0,.73-.04.91-.12s.27-.25.27-.49c0-.19-.12-.35-.35-.49-.23-.14-.58-.3-1.05-.48-.37-.14-.7-.28-1-.42-.3-.15-.55-.32-.76-.53-.21-.2-.37-.45-.49-.73-.12-.28-.17-.62-.17-1.02,0-.77.29-1.39.86-1.84.58-.45,1.37-.67,2.37-.67.5,0,.98.04,1.44.13s.83.19,1.1.29l-.41,1.82c-.27-.09-.57-.18-.89-.25s-.68-.11-1.08-.11c-.73,0-1.1.2-1.1.61,0,.09.02.18.05.25s.09.14.19.21c.09.07.22.14.38.22s.37.17.62.26c.51.19.94.38,1.27.56.33.18.6.38.79.6.19.21.33.45.41.71.08.26.12.56.12.91,0,.81-.31,1.43-.92,1.85-.61.42-1.48.63-2.6.63-.73,0-1.34-.06-1.83-.19-.49-.12-.82-.23-1.01-.31l.39-1.9c.4.16.81.28,1.22.37s.83.13,1.24.13Z" style="fill: #a3ea2a;"/>
  </g>
  <g>
    <path d="m900.31,46.64c-.12-.38-.25-.77-.39-1.17s-.28-.8-.42-1.19h-4.25c-.14.4-.28.79-.41,1.19-.14.4-.27.79-.39,1.16h-2.54c.41-1.17.8-2.26,1.17-3.25.37-.99.73-1.93,1.08-2.81.35-.88.7-1.71,1.04-2.5.34-.79.7-1.56,1.06-2.32h2.32c.36.75.71,1.53,1.06,2.32.35.79.7,1.63,1.05,2.5.35.88.71,1.82,1.08,2.81s.76,2.08,1.17,3.25h-2.62Zm-2.94-8.42c-.05.16-.13.37-.24.65s-.23.59-.36.94c-.13.36-.29.75-.45,1.18s-.33.88-.51,1.35h3.11c-.17-.47-.33-.92-.48-1.35-.16-.43-.3-.82-.44-1.18s-.26-.67-.37-.94c-.11-.27-.19-.48-.26-.64Z" style="fill: #a3ea2a;"/>
    <path d="m904.17,38.66c.4-.12.91-.22,1.54-.32.63-.1,1.29-.15,1.98-.15s1.29.09,1.75.27.83.44,1.11.78.47.73.58,1.19c.12.46.17.97.17,1.54v4.66h-2.34v-4.38c0-.75-.1-1.29-.3-1.6-.2-.31-.57-.47-1.11-.47-.17,0-.35,0-.53.02s-.36.03-.5.05v6.38h-2.34v-7.98Z" style="fill: #a3ea2a;"/>
    <path d="m916.39,38.16c.69,0,1.27.08,1.73.24.46.16.83.38,1.11.68.28.29.47.65.59,1.07.12.42.17.88.17,1.4v4.87c-.33.07-.8.16-1.4.26-.6.1-1.32.15-2.17.15-.53,0-1.02-.05-1.45-.14s-.81-.25-1.12-.46c-.31-.21-.56-.49-.72-.84-.17-.35-.25-.77-.25-1.27s.1-.89.29-1.22.45-.6.78-.8.7-.34,1.12-.43c.42-.09.85-.13,1.3-.13.3,0,.57.01.81.04.24.03.43.06.57.1v-.22c0-.4-.12-.72-.36-.96-.24-.24-.66-.36-1.26-.36-.4,0-.79.03-1.18.09-.39.06-.72.14-1,.24l-.3-1.88c.14-.04.31-.09.51-.13.2-.05.43-.09.67-.13.24-.04.49-.07.76-.09.27-.03.54-.04.81-.04Zm.19,6.85c.23,0,.45,0,.66-.02.21-.01.38-.03.5-.05v-1.77c-.09-.02-.24-.04-.42-.06s-.36-.03-.52-.03c-.22,0-.43.01-.62.04-.19.03-.36.08-.51.15s-.26.17-.35.3-.12.28-.12.47c0,.37.12.62.37.76.25.14.58.21,1.01.21Z" style="fill: #a3ea2a;"/>
    <path d="m925.4,46.79c-.68-.01-1.23-.08-1.66-.22-.42-.14-.76-.33-1-.57s-.41-.54-.5-.9c-.09-.35-.13-.75-.13-1.19v-9.09l2.34-.38v9c0,.21.02.4.05.56.03.17.09.31.18.42.09.12.22.21.38.28.17.07.39.12.67.14l-.33,1.93Z" style="fill: #a3ea2a;"/>
    <path d="m934.24,38.38c-.47,1.59-.97,3.08-1.48,4.48-.51,1.39-1.08,2.74-1.68,4.05-.22.47-.44.87-.66,1.2-.22.33-.46.6-.72.82-.26.21-.56.37-.89.47-.33.1-.72.15-1.16.15-.37,0-.71-.03-1.01-.1-.31-.07-.56-.14-.76-.23l.41-1.87c.24.08.46.14.64.17s.39.05.6.05c.42,0,.74-.11.97-.34.22-.23.42-.54.57-.93-.53-1.05-1.07-2.22-1.6-3.52s-1.04-2.77-1.51-4.39h2.48c.11.41.23.85.37,1.33.14.48.29.96.45,1.44.16.49.32.96.48,1.42s.32.88.46,1.26c.14-.38.28-.8.43-1.26.15-.46.29-.93.43-1.42s.28-.97.41-1.44c.13-.48.25-.92.35-1.33h2.42Z" style="fill: #a3ea2a;"/>
    <path d="m937.86,44.96c.43,0,.73-.04.91-.13s.27-.25.27-.49c0-.19-.12-.35-.35-.49-.23-.14-.58-.3-1.05-.48-.37-.14-.7-.28-1-.42-.3-.15-.55-.32-.76-.53-.21-.2-.37-.45-.49-.73s-.17-.62-.17-1.02c0-.77.29-1.39.86-1.84.58-.45,1.37-.68,2.37-.68.5,0,.98.04,1.44.13.46.09.83.19,1.1.29l-.41,1.82c-.27-.09-.57-.18-.89-.25s-.68-.11-1.08-.11c-.73,0-1.1.2-1.1.61,0,.09.02.18.05.25s.09.14.19.21c.09.07.22.14.38.22.16.08.37.17.62.26.51.19.94.38,1.27.56.33.18.6.38.79.6.19.21.33.45.41.71.08.26.12.56.12.91,0,.81-.31,1.43-.92,1.85-.61.42-1.48.63-2.6.63-.73,0-1.34-.06-1.83-.19-.49-.13-.82-.23-1.01-.31l.39-1.9c.4.16.81.28,1.22.37s.83.13,1.24.13Z" style="fill: #a3ea2a;"/>
    <path d="m942.71,42.57c0-.73.11-1.37.34-1.92.23-.55.52-1.01.89-1.37.37-.37.79-.64,1.26-.83s.97-.28,1.47-.28c1.17,0,2.1.36,2.78,1.08.68.72,1.02,1.77,1.02,3.16,0,.14,0,.29-.02.45-.01.16-.02.31-.03.43h-5.31c.05.48.28.86.67,1.15.4.28.93.42,1.6.42.43,0,.85-.04,1.26-.12.41-.08.75-.18,1.01-.29l.31,1.9c-.12.06-.29.13-.5.19-.21.06-.44.12-.7.17-.26.05-.53.09-.82.12-.29.03-.59.05-.88.05-.74,0-1.39-.11-1.94-.33s-1-.52-1.37-.9-.63-.83-.8-1.36-.26-1.09-.26-1.7Zm5.5-.9c0-.2-.04-.39-.1-.58s-.15-.36-.27-.5c-.12-.15-.27-.27-.46-.36-.18-.09-.41-.14-.68-.14s-.49.04-.68.13-.34.21-.47.35-.22.32-.29.51c-.07.19-.12.39-.15.59h3.09Z" style="fill: #a3ea2a;"/>
    <path d="m955.96,36.32l2.34-.38v2.43h2.81v1.95h-2.81v2.9c0,.49.09.88.26,1.18.17.29.52.44,1.04.44.25,0,.51-.02.78-.07.27-.05.51-.11.73-.2l.33,1.82c-.28.12-.6.21-.94.3-.35.08-.77.13-1.27.13-.64,0-1.17-.09-1.59-.26-.42-.17-.75-.41-1-.72-.25-.31-.43-.68-.53-1.12-.1-.44-.15-.93-.15-1.46v-6.94Z" style="fill: #a3ea2a;"/>
    <path d="m963.01,46.64v-11.81l2.34-.38v3.96c.16-.05.36-.1.61-.15.25-.05.48-.07.71-.07.67,0,1.23.09,1.67.27.44.18.8.44,1.07.78s.46.73.57,1.19c.11.46.17.97.17,1.54v4.66h-2.34v-4.38c0-.75-.1-1.29-.29-1.6-.19-.31-.55-.47-1.08-.47-.21,0-.41.02-.59.05-.18.04-.35.08-.5.12v6.28h-2.34Z" style="fill: #a3ea2a;"/>
    <path d="m971.87,42.57c0-.73.11-1.37.34-1.92.23-.55.52-1.01.89-1.37.37-.37.79-.64,1.26-.83s.97-.28,1.47-.28c1.17,0,2.1.36,2.78,1.08.68.72,1.02,1.77,1.02,3.16,0,.14,0,.29-.02.45-.01.16-.02.31-.03.43h-5.31c.05.48.28.86.67,1.15.4.28.93.42,1.6.42.43,0,.85-.04,1.26-.12.41-.08.75-.18,1.01-.29l.31,1.9c-.12.06-.29.13-.5.19-.21.06-.44.12-.7.17-.26.05-.53.09-.82.12-.29.03-.59.05-.88.05-.74,0-1.39-.11-1.94-.33s-1-.52-1.37-.9-.63-.83-.8-1.36-.26-1.09-.26-1.7Zm5.5-.9c0-.2-.04-.39-.1-.58s-.15-.36-.27-.5c-.12-.15-.27-.27-.46-.36-.18-.09-.41-.14-.68-.14s-.49.04-.68.13-.34.21-.47.35-.22.32-.29.51c-.07.19-.12.39-.15.59h3.09Z" style="fill: #a3ea2a;"/>
    <path d="m915.5,62.34c-.12-.38-.25-.77-.39-1.17s-.28-.79-.42-1.19h-4.25c-.14.4-.28.79-.41,1.19-.14.4-.27.79-.39,1.16h-2.54c.41-1.17.8-2.26,1.17-3.25.37-1,.73-1.93,1.08-2.81.35-.88.7-1.71,1.04-2.5.34-.79.7-1.56,1.06-2.32h2.32c.36.75.71,1.53,1.06,2.32.35.79.7,1.62,1.05,2.5.35.88.71,1.82,1.08,2.81.37.99.76,2.08,1.17,3.25h-2.62Zm-2.94-8.42c-.05.16-.13.37-.24.65-.11.27-.23.59-.36.94-.13.36-.29.75-.45,1.18s-.33.88-.51,1.35h3.11c-.17-.47-.33-.92-.48-1.35-.16-.43-.3-.82-.44-1.18s-.26-.67-.37-.94c-.11-.27-.19-.48-.26-.64Z" style="fill: #a3ea2a;"/>
    <path d="m919.29,52.02l2.34-.38v2.43h2.81v1.95h-2.81v2.91c0,.49.09.88.26,1.18s.52.44,1.04.44c.25,0,.51-.02.78-.07.27-.05.51-.11.73-.2l.33,1.82c-.28.12-.6.21-.94.3-.35.08-.77.13-1.27.13-.64,0-1.17-.09-1.59-.26-.42-.17-.75-.41-1-.72-.25-.31-.43-.68-.53-1.12-.1-.44-.15-.93-.15-1.46v-6.94Z" style="fill: #a3ea2a;"/>
    <path d="m926.26,52.02l2.34-.38v2.43h2.81v1.95h-2.81v2.91c0,.49.09.88.26,1.18s.52.44,1.04.44c.25,0,.51-.02.78-.07.27-.05.51-.11.73-.2l.33,1.82c-.28.12-.6.21-.94.3-.35.08-.77.13-1.27.13-.64,0-1.17-.09-1.59-.26-.42-.17-.75-.41-1-.72-.25-.31-.43-.68-.53-1.12-.1-.44-.15-.93-.15-1.46v-6.94Z" style="fill: #a3ea2a;"/>
    <path d="m935.96,53.86c.69,0,1.27.08,1.73.24.46.16.83.38,1.11.68s.47.65.59,1.07.17.88.17,1.4v4.87c-.33.07-.8.16-1.4.26s-1.32.15-2.17.15c-.53,0-1.02-.05-1.45-.14-.43-.09-.81-.25-1.12-.46-.31-.21-.56-.5-.72-.84-.17-.35-.25-.77-.25-1.27s.1-.89.29-1.22.45-.6.78-.8.7-.34,1.12-.43c.42-.09.85-.13,1.3-.13.3,0,.57.01.81.04.24.03.43.06.57.1v-.22c0-.4-.12-.72-.36-.96s-.66-.36-1.26-.36c-.4,0-.79.03-1.18.09-.39.06-.72.14-1,.24l-.3-1.88c.14-.04.31-.09.51-.13.2-.05.43-.09.67-.12.24-.04.49-.07.76-.09.27-.03.54-.04.81-.04Zm.19,6.85c.23,0,.45,0,.66-.02.21-.01.38-.03.5-.05v-1.77c-.09-.02-.24-.04-.42-.06-.19-.02-.36-.03-.52-.03-.22,0-.43.01-.62.04-.19.03-.36.08-.51.15s-.26.17-.35.3c-.08.13-.12.28-.12.47,0,.37.12.62.37.76.25.14.58.21,1.01.21Z" style="fill: #a3ea2a;"/>
    <path d="m941.29,58.21c0-.6.1-1.16.29-1.69.19-.53.47-.99.84-1.38s.81-.7,1.33-.93,1.12-.35,1.79-.35c.44,0,.84.04,1.21.12.37.08.72.19,1.07.34l-.49,1.87c-.22-.08-.46-.16-.72-.22-.26-.06-.56-.09-.88-.09-.69,0-1.21.21-1.55.64-.34.43-.51,1-.51,1.7,0,.74.16,1.32.48,1.73s.88.61,1.67.61c.28,0,.59-.03.91-.08.32-.05.62-.14.9-.25l.33,1.92c-.27.12-.61.21-1.02.3-.41.08-.86.13-1.35.13-.75,0-1.4-.11-1.95-.34-.54-.22-.99-.53-1.34-.92-.35-.39-.61-.85-.77-1.37-.16-.53-.24-1.1-.24-1.72Z" style="fill: #a3ea2a;"/>
    <path d="m951.87,57.04c.23-.25.47-.51.71-.78.25-.27.48-.54.71-.8.23-.27.45-.52.65-.76s.38-.45.53-.62h2.78c-.56.64-1.1,1.25-1.62,1.83-.53.58-1.11,1.18-1.74,1.79.31.28.64.62.97,1.01.33.39.66.8.97,1.22.31.42.6.84.86,1.26.26.42.48.8.66,1.15h-2.69c-.17-.27-.36-.57-.57-.91-.21-.33-.44-.66-.68-.99-.24-.33-.49-.65-.76-.95-.27-.3-.53-.56-.79-.77v3.62h-2.34v-11.81l2.34-.38v6.89Z" style="fill: #a3ea2a;"/>
    <path d="m960.99,60.66c.43,0,.73-.04.91-.12s.27-.25.27-.49c0-.19-.12-.35-.35-.49-.23-.14-.58-.3-1.05-.48-.37-.14-.7-.28-1-.42-.3-.15-.55-.32-.76-.53-.21-.2-.37-.45-.49-.73-.12-.28-.17-.62-.17-1.02,0-.77.29-1.39.86-1.84.58-.45,1.37-.67,2.37-.67.5,0,.98.04,1.44.13s.83.19,1.1.29l-.41,1.82c-.27-.09-.57-.18-.89-.25s-.68-.11-1.08-.11c-.73,0-1.1.2-1.1.61,0,.09.02.18.05.25s.09.14.19.21c.09.07.22.14.38.22s.37.17.62.26c.51.19.94.38,1.27.56.33.18.6.38.79.6.19.21.33.45.41.71.08.26.12.56.12.91,0,.81-.31,1.43-.92,1.85-.61.42-1.48.63-2.6.63-.73,0-1.34-.06-1.83-.19-.49-.12-.82-.23-1.01-.31l.39-1.9c.4.16.81.28,1.22.37s.83.13,1.24.13Z" style="fill: #a3ea2a;"/>
  </g>
  <g>
    <path d="m65.99,41.19c0,.94-.15,1.76-.44,2.47s-.71,1.28-1.25,1.74c-.54.46-1.2.81-1.97,1.04s-1.64.35-2.61.35c-.44,0-.95-.02-1.54-.05s-1.16-.11-1.73-.23v-10.6c.56-.1,1.15-.18,1.77-.21.61-.04,1.14-.06,1.58-.06.93,0,1.78.1,2.54.31.76.21,1.41.54,1.96.99s.96,1.03,1.26,1.73c.29.7.44,1.54.44,2.53Zm-7.08,3.45c.11.01.25.02.4.02.15,0,.33,0,.54,0,1.23,0,2.13-.31,2.72-.93.59-.62.89-1.47.89-2.56s-.28-2-.85-2.59c-.57-.59-1.46-.88-2.69-.88-.17,0-.34,0-.52,0-.18,0-.35.02-.5.04v6.88Z" style="fill: #a3ea2a;"/>
    <path d="m67.48,42.57c0-.73.11-1.37.34-1.92.22-.55.52-1.01.89-1.37s.79-.64,1.26-.83c.48-.19.97-.28,1.47-.28,1.17,0,2.1.36,2.78,1.08.68.72,1.02,1.77,1.02,3.16,0,.14,0,.29-.02.45-.01.16-.02.31-.03.43h-5.31c.05.48.28.86.67,1.15.4.28.93.42,1.6.42.43,0,.85-.04,1.26-.12.41-.08.75-.18,1.01-.29l.31,1.9c-.13.06-.29.13-.5.19-.21.06-.44.12-.7.17-.26.05-.53.09-.82.12-.29.03-.59.05-.88.05-.74,0-1.39-.11-1.94-.33-.55-.22-1-.52-1.37-.9s-.63-.83-.8-1.36-.26-1.09-.26-1.7Zm5.5-.9c-.01-.2-.04-.39-.1-.58-.06-.19-.15-.36-.27-.5-.12-.15-.27-.27-.46-.36-.18-.09-.41-.14-.68-.14s-.49.04-.68.13-.35.21-.47.35-.22.32-.29.51c-.07.19-.12.39-.15.59h3.09Z" style="fill: #a3ea2a;"/>
    <path d="m80.62,34.45c.44,0,.8.04,1.09.11.29.07.53.15.73.24l-.41,1.84c-.17-.07-.35-.13-.56-.16s-.41-.05-.62-.05c-.28,0-.52.04-.71.12-.19.08-.35.19-.46.32-.11.14-.19.3-.24.49-.05.19-.07.39-.07.61v.41h2.89v1.95h-2.89v6.31h-2.34v-8.7c0-1.07.3-1.92.9-2.54s1.49-.94,2.68-.94Zm5.56,1.54c0,.43-.14.77-.42,1.01-.28.25-.6.37-.98.37s-.7-.12-.98-.37c-.28-.25-.42-.58-.42-1.01s.14-.77.42-1.01c.28-.25.6-.37.98-.37s.7.12.98.37c.28.25.42.58.42,1.01Zm-.22,10.65h-2.34v-8.26h2.34v8.26Z" style="fill: #a3ea2a;"/>
    <path d="m88.16,38.66c.4-.12.91-.22,1.54-.32.63-.1,1.29-.15,1.98-.15s1.28.09,1.75.27c.47.18.83.44,1.11.78.27.33.47.73.58,1.19.11.46.17.97.17,1.54v4.66h-2.34v-4.38c0-.75-.1-1.29-.3-1.6-.2-.31-.57-.47-1.12-.47-.17,0-.35,0-.53.02s-.36.03-.5.05v6.38h-2.34v-7.98Z" style="fill: #a3ea2a;"/>
    <path d="m97.01,42.57c0-.73.11-1.37.34-1.92.22-.55.52-1.01.89-1.37s.79-.64,1.26-.83c.48-.19.97-.28,1.47-.28,1.17,0,2.1.36,2.78,1.08.68.72,1.02,1.77,1.02,3.16,0,.14,0,.29-.02.45-.01.16-.02.31-.03.43h-5.31c.05.48.28.86.67,1.15.4.28.93.42,1.6.42.43,0,.85-.04,1.26-.12.41-.08.75-.18,1.01-.29l.31,1.9c-.13.06-.29.13-.5.19-.21.06-.44.12-.7.17-.26.05-.53.09-.82.12-.29.03-.59.05-.88.05-.74,0-1.39-.11-1.94-.33-.55-.22-1-.52-1.37-.9s-.63-.83-.8-1.36-.26-1.09-.26-1.7Zm5.5-.9c-.01-.2-.04-.39-.1-.58-.06-.19-.15-.36-.27-.5-.12-.15-.27-.27-.46-.36-.18-.09-.41-.14-.68-.14s-.49.04-.68.13-.35.21-.47.35-.22.32-.29.51c-.07.19-.12.39-.15.59h3.09Z" style="fill: #a3ea2a;"/>
    <path d="m110.27,36.32l2.34-.38v2.43h2.81v1.95h-2.81v2.9c0,.49.09.88.26,1.18.17.29.52.44,1.04.44.25,0,.51-.02.78-.07.27-.05.51-.11.73-.2l.33,1.82c-.28.12-.6.21-.94.3-.35.08-.77.13-1.27.13-.64,0-1.17-.09-1.59-.26-.42-.17-.75-.41-1-.72-.25-.31-.43-.68-.53-1.12-.1-.44-.15-.93-.15-1.46v-6.94Z" style="fill: #a3ea2a;"/>
    <path d="m117.32,46.64v-11.81l2.34-.38v3.96c.16-.05.36-.1.6-.15s.48-.07.71-.07c.67,0,1.23.09,1.67.27s.8.44,1.07.78.46.73.57,1.19c.11.46.16.97.16,1.54v4.66h-2.34v-4.38c0-.75-.1-1.29-.29-1.6-.19-.31-.55-.47-1.08-.47-.21,0-.41.02-.59.05s-.35.08-.49.12v6.28h-2.34Z" style="fill: #a3ea2a;"/>
    <path d="m126.17,42.57c0-.73.11-1.37.34-1.92.22-.55.52-1.01.89-1.37s.79-.64,1.26-.83c.48-.19.97-.28,1.47-.28,1.17,0,2.1.36,2.78,1.08.68.72,1.02,1.77,1.02,3.16,0,.14,0,.29-.02.45-.01.16-.02.31-.03.43h-5.31c.05.48.28.86.67,1.15.4.28.93.42,1.6.42.43,0,.85-.04,1.26-.12.41-.08.75-.18,1.01-.29l.31,1.9c-.13.06-.29.13-.5.19-.21.06-.44.12-.7.17-.26.05-.53.09-.82.12-.29.03-.59.05-.88.05-.74,0-1.39-.11-1.94-.33-.55-.22-1-.52-1.37-.9s-.63-.83-.8-1.36-.26-1.09-.26-1.7Zm5.5-.9c-.01-.2-.04-.39-.1-.58-.06-.19-.15-.36-.27-.5-.12-.15-.27-.27-.46-.36-.18-.09-.41-.14-.68-.14s-.49.04-.68.13-.35.21-.47.35-.22.32-.29.51c-.07.19-.12.39-.15.59h3.09Z" style="fill: #a3ea2a;"/>
    <path d="m66.58,56.89c0,.93-.14,1.75-.42,2.46-.28.71-.66,1.3-1.14,1.77s-1.05.83-1.72,1.08c-.67.24-1.38.36-2.14.36s-1.44-.12-2.1-.36c-.66-.24-1.24-.6-1.73-1.08s-.88-1.07-1.16-1.77c-.28-.71-.42-1.53-.42-2.46s.15-1.75.44-2.46c.29-.71.69-1.3,1.19-1.78s1.07-.84,1.73-1.08c.65-.24,1.34-.36,2.06-.36s1.44.12,2.1.36c.66.24,1.24.6,1.73,1.08.49.48.88,1.08,1.16,1.78.28.71.42,1.53.42,2.46Zm-8.31,0c0,.53.06,1.02.2,1.45.13.43.32.8.56,1.11.25.31.55.55.9.71.36.17.76.25,1.22.25s.86-.08,1.22-.25c.36-.17.67-.41.91-.71.25-.31.43-.68.56-1.11.13-.43.2-.91.2-1.45s-.07-1.02-.2-1.45-.32-.81-.56-1.12c-.25-.31-.55-.55-.91-.71-.36-.17-.77-.25-1.22-.25s-.87.09-1.22.26c-.36.17-.66.41-.9.72-.25.31-.43.68-.56,1.12-.13.43-.2.91-.2,1.44Z" style="fill: #a3ea2a;"/>
    <path d="m76.15,58.21c0,.66-.1,1.26-.29,1.79s-.47.99-.84,1.37c-.37.38-.82.67-1.35.87-.53.21-1.14.31-1.82.31-.28,0-.58-.01-.89-.04-.31-.03-.61-.06-.91-.1s-.58-.09-.86-.15c-.27-.06-.51-.12-.72-.18v-11.54l2.34-.38v4.11c.26-.12.53-.2.82-.27.28-.06.59-.09.91-.09.59,0,1.1.1,1.55.31s.83.49,1.13.87c.3.38.53.83.69,1.36.16.53.24,1.12.24,1.77Zm-2.39-.06c0-1.51-.56-2.26-1.66-2.26-.24,0-.48.03-.71.09-.24.06-.43.14-.57.24v4.26c.12.02.26.04.44.05.18.02.37.02.58.02.64,0,1.12-.22,1.44-.66.32-.44.49-1.02.49-1.74Z" style="fill: #a3ea2a;"/>
    <path d="m77.18,65.24c-.15,0-.36-.02-.65-.05-.29-.03-.56-.09-.81-.17l.31-1.9c.16.05.3.09.43.11.13.02.3.03.49.03.37,0,.62-.11.77-.33.15-.22.22-.54.22-.96v-7.9h2.34v7.96c0,1.09-.27,1.9-.8,2.42-.53.52-1.3.79-2.31.79Zm3.33-13.55c0,.43-.14.77-.42,1.01s-.6.37-.98.37-.7-.12-.98-.37-.42-.58-.42-1.01.14-.77.42-1.01.6-.37.98-.37.7.12.98.37.42.58.42,1.01Z" style="fill: #a3ea2a;"/>
    <path d="m82.1,58.27c0-.73.11-1.37.34-1.92.22-.55.52-1.01.89-1.37.37-.37.79-.64,1.26-.83.48-.19.97-.28,1.47-.28,1.17,0,2.1.36,2.78,1.08.68.72,1.02,1.77,1.02,3.16,0,.14,0,.29-.02.45-.01.16-.02.31-.03.43h-5.31c.05.48.28.86.67,1.15.4.28.93.42,1.6.42.43,0,.85-.04,1.26-.12.41-.08.75-.17,1.01-.29l.31,1.9c-.13.06-.29.13-.5.19-.21.06-.44.12-.7.17-.26.05-.53.09-.82.12s-.59.05-.88.05c-.74,0-1.39-.11-1.94-.33-.55-.22-1-.52-1.37-.9s-.63-.83-.8-1.36-.26-1.09-.26-1.7Zm5.5-.89c-.01-.2-.04-.39-.1-.58-.06-.19-.15-.36-.27-.5-.12-.15-.27-.27-.46-.36-.18-.09-.41-.14-.68-.14s-.49.04-.68.13c-.19.09-.35.21-.47.35s-.22.32-.29.51c-.07.19-.12.39-.15.59h3.09Z" style="fill: #a3ea2a;"/>
    <path d="m91.27,58.21c0-.6.1-1.16.29-1.69.19-.53.47-.99.84-1.38.37-.39.81-.7,1.33-.93s1.12-.35,1.79-.35c.44,0,.84.04,1.21.12.37.08.72.19,1.07.34l-.49,1.87c-.22-.08-.46-.16-.72-.22-.26-.06-.55-.09-.88-.09-.69,0-1.21.21-1.55.64-.34.43-.51,1-.51,1.7,0,.74.16,1.32.48,1.73s.88.61,1.67.61c.28,0,.59-.03.91-.08.32-.05.62-.14.9-.25l.33,1.92c-.27.12-.61.21-1.02.3-.41.08-.86.13-1.35.13-.75,0-1.4-.11-1.95-.34-.54-.22-.99-.53-1.34-.92-.35-.39-.61-.85-.77-1.37-.16-.53-.24-1.1-.24-1.72Z" style="fill: #a3ea2a;"/>
    <path d="m99.43,52.02l2.34-.38v2.43h2.81v1.95h-2.81v2.91c0,.49.09.88.26,1.18.17.29.52.44,1.04.44.25,0,.51-.02.78-.07.27-.05.51-.11.73-.2l.33,1.82c-.28.12-.6.21-.94.3-.35.08-.77.13-1.27.13-.64,0-1.17-.09-1.59-.26-.42-.17-.75-.41-1-.72-.25-.31-.43-.68-.53-1.12-.1-.44-.15-.93-.15-1.46v-6.94Z" style="fill: #a3ea2a;"/>
    <path d="m109.04,51.69c0,.43-.14.77-.42,1.01s-.6.37-.98.37-.7-.12-.98-.37-.42-.58-.42-1.01.14-.77.42-1.01.6-.37.98-.37.7.12.98.37.42.58.42,1.01Zm-.22,10.65h-2.34v-8.26h2.34v8.26Z" style="fill: #a3ea2a;"/>
    <path d="m113.03,62.34c-.54-1.05-1.08-2.27-1.63-3.67-.55-1.4-1.07-2.93-1.57-4.58h2.48c.1.41.23.85.37,1.33.14.48.29.96.44,1.44.15.49.3.96.46,1.42.15.46.3.88.45,1.26.14-.38.28-.8.44-1.26.16-.46.31-.93.46-1.42.15-.49.3-.97.44-1.44.14-.48.27-.92.37-1.33h2.42c-.49,1.65-1.02,3.18-1.57,4.58-.55,1.4-1.09,2.63-1.63,3.67h-1.94Z" style="fill: #a3ea2a;"/>
    <path d="m118.79,58.27c0-.73.11-1.37.34-1.92.22-.55.52-1.01.89-1.37.37-.37.79-.64,1.26-.83.48-.19.97-.28,1.47-.28,1.17,0,2.1.36,2.78,1.08.68.72,1.02,1.77,1.02,3.16,0,.14,0,.29-.02.45-.01.16-.02.31-.03.43h-5.31c.05.48.28.86.67,1.15.4.28.93.42,1.6.42.43,0,.85-.04,1.26-.12.41-.08.75-.17,1.01-.29l.31,1.9c-.13.06-.29.13-.5.19-.21.06-.44.12-.7.17-.26.05-.53.09-.82.12s-.59.05-.88.05c-.74,0-1.39-.11-1.94-.33-.55-.22-1-.52-1.37-.9s-.63-.83-.8-1.36-.26-1.09-.26-1.7Zm5.5-.89c-.01-.2-.04-.39-.1-.58-.06-.19-.15-.36-.27-.5-.12-.15-.27-.27-.46-.36-.18-.09-.41-.14-.68-.14s-.49.04-.68.13c-.19.09-.35.21-.47.35s-.22.32-.29.51c-.07.19-.12.39-.15.59h3.09Z" style="fill: #a3ea2a;"/>
    <path d="m130.73,60.66c.43,0,.73-.04.91-.12.18-.08.27-.25.27-.49,0-.19-.12-.35-.35-.49-.23-.14-.58-.3-1.05-.48-.37-.14-.7-.28-1-.42-.3-.15-.55-.32-.76-.53s-.37-.45-.49-.73c-.12-.28-.17-.62-.17-1.02,0-.77.29-1.39.86-1.84.58-.45,1.37-.67,2.37-.67.5,0,.98.04,1.44.13.46.09.83.19,1.1.29l-.41,1.82c-.27-.09-.57-.18-.89-.25s-.68-.11-1.08-.11c-.73,0-1.1.2-1.1.61,0,.09.02.18.05.25.03.07.09.14.19.21s.22.14.38.22.37.17.62.26c.51.19.94.38,1.27.56s.6.38.79.6c.19.21.33.45.41.71.08.26.12.56.12.91,0,.81-.31,1.43-.92,1.85-.61.42-1.48.63-2.6.63-.73,0-1.34-.06-1.83-.19-.49-.12-.82-.23-1.01-.31l.39-1.9c.4.16.81.28,1.23.37.42.09.83.13,1.24.13Z" style="fill: #a3ea2a;"/>
  </g>
  <g>
    <path d="m235.17,33.34c0,.94-.15,1.76-.44,2.47s-.71,1.28-1.25,1.74c-.54.46-1.2.81-1.97,1.04s-1.64.35-2.61.35c-.44,0-.95-.02-1.54-.05s-1.16-.11-1.73-.23v-10.6c.56-.1,1.15-.18,1.77-.21.61-.04,1.14-.06,1.58-.06.93,0,1.78.1,2.54.31.76.21,1.41.54,1.96.99s.96,1.03,1.26,1.73c.29.7.44,1.54.44,2.53Zm-7.08,3.45c.11.01.25.02.4.02.15,0,.33,0,.54,0,1.23,0,2.13-.31,2.72-.93.59-.62.89-1.47.89-2.56s-.28-2-.85-2.59c-.57-.59-1.46-.88-2.69-.88-.17,0-.34,0-.52,0-.18,0-.35.02-.5.04v6.88Z" style="fill: #a3ea2a;"/>
    <path d="m236.66,34.72c0-.73.11-1.37.34-1.92.22-.55.52-1.01.89-1.37s.79-.64,1.26-.83c.48-.19.97-.28,1.47-.28,1.17,0,2.1.36,2.78,1.08.68.72,1.02,1.77,1.02,3.16,0,.14,0,.29-.02.45-.01.16-.02.31-.03.43h-5.31c.05.48.28.86.67,1.15.4.28.93.42,1.6.42.43,0,.85-.04,1.26-.12.41-.08.75-.18,1.01-.29l.31,1.9c-.13.06-.29.13-.5.19-.21.06-.44.12-.7.17-.26.05-.53.09-.82.12-.29.03-.59.05-.88.05-.74,0-1.39-.11-1.94-.33-.55-.22-1-.52-1.37-.9s-.63-.83-.8-1.36-.26-1.09-.26-1.7Zm5.5-.9c-.01-.2-.04-.39-.1-.58-.06-.19-.15-.36-.27-.5-.12-.15-.27-.27-.46-.36-.18-.09-.41-.14-.68-.14s-.49.04-.68.13-.35.21-.47.35-.22.32-.29.51c-.07.19-.12.39-.15.59h3.09Z" style="fill: #a3ea2a;"/>
    <path d="m249.8,26.6c.44,0,.8.04,1.09.11.29.07.53.15.73.24l-.41,1.84c-.17-.07-.35-.13-.56-.16s-.41-.05-.62-.05c-.28,0-.52.04-.71.12-.19.08-.35.19-.46.32-.11.14-.19.3-.24.49-.05.19-.07.39-.07.61v.41h2.89v1.95h-2.89v6.31h-2.34v-8.7c0-1.07.3-1.92.9-2.54s1.49-.94,2.68-.94Zm5.56,1.54c0,.43-.14.77-.42,1.01-.28.25-.6.37-.98.37s-.7-.12-.98-.37c-.28-.25-.42-.58-.42-1.01s.14-.77.42-1.01c.28-.25.6-.37.98-.37s.7.12.98.37c.28.25.42.58.42,1.01Zm-.22,10.65h-2.34v-8.26h2.34v8.26Z" style="fill: #a3ea2a;"/>
    <path d="m257.34,30.81c.4-.12.91-.22,1.54-.32.63-.1,1.29-.15,1.98-.15s1.28.09,1.75.27c.47.18.83.44,1.11.78.27.33.47.73.58,1.19.11.46.17.97.17,1.54v4.66h-2.34v-4.38c0-.75-.1-1.29-.3-1.6-.2-.31-.57-.47-1.12-.47-.17,0-.35,0-.53.02s-.36.03-.5.05v6.38h-2.34v-7.98Z" style="fill: #a3ea2a;"/>
    <path d="m266.2,34.72c0-.73.11-1.37.34-1.92.22-.55.52-1.01.89-1.37s.79-.64,1.26-.83c.48-.19.97-.28,1.47-.28,1.17,0,2.1.36,2.78,1.08.68.72,1.02,1.77,1.02,3.16,0,.14,0,.29-.02.45-.01.16-.02.31-.03.43h-5.31c.05.48.28.86.67,1.15.4.28.93.42,1.6.42.43,0,.85-.04,1.26-.12.41-.08.75-.18,1.01-.29l.31,1.9c-.13.06-.29.13-.5.19-.21.06-.44.12-.7.17-.26.05-.53.09-.82.12-.29.03-.59.05-.88.05-.74,0-1.39-.11-1.94-.33-.55-.22-1-.52-1.37-.9s-.63-.83-.8-1.36-.26-1.09-.26-1.7Zm5.5-.9c-.01-.2-.04-.39-.1-.58-.06-.19-.15-.36-.27-.5-.12-.15-.27-.27-.46-.36-.18-.09-.41-.14-.68-.14s-.49.04-.68.13-.35.21-.47.35-.22.32-.29.51c-.07.19-.12.39-.15.59h3.09Z" style="fill: #a3ea2a;"/>
    <path d="m279.45,28.47l2.34-.38v2.43h2.81v1.95h-2.81v2.9c0,.49.09.88.26,1.18.17.29.52.44,1.04.44.25,0,.51-.02.78-.07.27-.05.51-.11.73-.2l.33,1.82c-.28.12-.6.21-.94.3-.35.08-.77.13-1.27.13-.64,0-1.17-.09-1.59-.26-.42-.17-.75-.41-1-.72-.25-.31-.43-.68-.53-1.12-.1-.44-.15-.93-.15-1.46v-6.94Z" style="fill: #a3ea2a;"/>
    <path d="m286.5,38.78v-11.81l2.34-.38v3.96c.16-.05.36-.1.6-.15s.48-.07.71-.07c.67,0,1.23.09,1.67.27s.8.44,1.07.78.46.73.57,1.19c.11.46.16.97.16,1.54v4.66h-2.34v-4.38c0-.75-.1-1.29-.29-1.6-.19-.31-.55-.47-1.08-.47-.21,0-.41.02-.59.05s-.35.08-.49.12v6.28h-2.34Z" style="fill: #a3ea2a;"/>
    <path d="m295.36,34.72c0-.73.11-1.37.34-1.92.22-.55.52-1.01.89-1.37s.79-.64,1.26-.83c.48-.19.97-.28,1.47-.28,1.17,0,2.1.36,2.78,1.08.68.72,1.02,1.77,1.02,3.16,0,.14,0,.29-.02.45-.01.16-.02.31-.03.43h-5.31c.05.48.28.86.67,1.15.4.28.93.42,1.6.42.43,0,.85-.04,1.26-.12.41-.08.75-.18,1.01-.29l.31,1.9c-.13.06-.29.13-.5.19-.21.06-.44.12-.7.17-.26.05-.53.09-.82.12-.29.03-.59.05-.88.05-.74,0-1.39-.11-1.94-.33-.55-.22-1-.52-1.37-.9s-.63-.83-.8-1.36-.26-1.09-.26-1.7Zm5.5-.9c-.01-.2-.04-.39-.1-.58-.06-.19-.15-.36-.27-.5-.12-.15-.27-.27-.46-.36-.18-.09-.41-.14-.68-.14s-.49.04-.68.13-.35.21-.47.35-.22.32-.29.51c-.07.19-.12.39-.15.59h3.09Z" style="fill: #a3ea2a;"/>
    <path d="m238.61,43.61v2.09h-3.28v8.79h-2.45v-8.79h-3.28v-2.09h9.01Z" style="fill: #a3ea2a;"/>
    <path d="m238.46,50.42c0-.73.11-1.37.34-1.92.22-.55.52-1.01.89-1.37s.79-.64,1.26-.83c.48-.19.97-.28,1.47-.28,1.17,0,2.1.36,2.78,1.08.68.72,1.02,1.77,1.02,3.16,0,.14,0,.29-.02.45-.01.16-.02.31-.03.43h-5.31c.05.48.28.86.67,1.15.4.28.93.42,1.6.42.43,0,.85-.04,1.26-.12.41-.08.75-.17,1.01-.29l.31,1.9c-.13.06-.29.13-.5.19-.21.06-.44.12-.7.17-.26.05-.53.09-.82.12s-.59.05-.88.05c-.74,0-1.39-.11-1.94-.33-.55-.22-1-.52-1.37-.9s-.63-.83-.8-1.36-.26-1.09-.26-1.7Zm5.5-.89c-.01-.2-.04-.39-.1-.58-.06-.19-.15-.36-.27-.5-.12-.15-.27-.27-.46-.36-.18-.09-.41-.14-.68-.14s-.49.04-.68.13-.35.21-.47.35-.22.32-.29.51c-.07.19-.12.39-.15.59h3.09Z" style="fill: #a3ea2a;"/>
    <path d="m247.63,50.36c0-.6.1-1.16.29-1.69.19-.53.47-.99.84-1.38.37-.39.81-.7,1.33-.93.52-.23,1.12-.35,1.79-.35.44,0,.84.04,1.21.12.37.08.72.19,1.07.34l-.49,1.87c-.22-.08-.46-.16-.72-.22-.26-.06-.55-.09-.88-.09-.69,0-1.21.21-1.55.64-.34.43-.51.99-.51,1.7,0,.74.16,1.32.48,1.73s.88.61,1.67.61c.28,0,.59-.03.91-.08.32-.05.62-.14.9-.25l.33,1.92c-.27.12-.61.21-1.02.3-.41.08-.86.13-1.35.13-.75,0-1.4-.11-1.95-.34-.54-.22-.99-.53-1.34-.92-.35-.39-.61-.85-.77-1.37-.16-.53-.24-1.1-.24-1.72Z" style="fill: #a3ea2a;"/>
    <path d="m255.87,54.49v-11.81l2.34-.38v3.96c.16-.05.36-.1.6-.15s.48-.07.71-.07c.67,0,1.23.09,1.67.27s.8.44,1.07.78.46.73.57,1.19c.11.46.16.97.16,1.54v4.66h-2.34v-4.38c0-.75-.1-1.29-.29-1.6-.19-.31-.55-.47-1.08-.47-.21,0-.41.02-.59.05s-.35.08-.49.12v6.28h-2.34Z" style="fill: #a3ea2a;"/>
    <path d="m265.12,46.51c.4-.12.91-.22,1.54-.32.63-.1,1.29-.15,1.98-.15s1.28.09,1.75.27c.47.18.83.44,1.11.78.27.33.47.73.58,1.19.11.46.17.97.17,1.54v4.66h-2.34v-4.38c0-.75-.1-1.29-.3-1.6-.2-.31-.57-.47-1.12-.47-.17,0-.35,0-.53.02s-.36.03-.5.05v6.38h-2.34v-7.98Z" style="fill: #a3ea2a;"/>
    <path d="m276.93,43.84c0,.43-.14.77-.42,1.01-.28.25-.6.37-.98.37s-.7-.12-.98-.37c-.28-.25-.42-.58-.42-1.01s.14-.77.42-1.01.6-.37.98-.37.7.12.98.37.42.58.42,1.01Zm-.22,10.65h-2.34v-8.26h2.34v8.26Z" style="fill: #a3ea2a;"/>
    <path d="m278.51,50.36c0-.6.1-1.16.29-1.69.19-.53.47-.99.84-1.38.37-.39.81-.7,1.33-.93.52-.23,1.12-.35,1.79-.35.44,0,.84.04,1.21.12.37.08.72.19,1.07.34l-.49,1.87c-.22-.08-.46-.16-.72-.22-.26-.06-.55-.09-.88-.09-.69,0-1.21.21-1.55.64-.34.43-.51.99-.51,1.7,0,.74.16,1.32.48,1.73s.88.61,1.67.61c.28,0,.59-.03.91-.08.32-.05.62-.14.9-.25l.33,1.92c-.27.12-.61.21-1.02.3-.41.08-.86.13-1.35.13-.75,0-1.4-.11-1.95-.34-.54-.22-.99-.53-1.34-.92-.35-.39-.61-.85-.77-1.37-.16-.53-.24-1.1-.24-1.72Z" style="fill: #a3ea2a;"/>
    <path d="m289.33,46.01c.69,0,1.27.08,1.73.24.46.16.83.38,1.11.68.28.29.47.65.59,1.07.12.42.17.88.17,1.4v4.87c-.34.07-.8.16-1.4.26s-1.32.15-2.17.15c-.53,0-1.02-.05-1.45-.14-.43-.09-.81-.25-1.12-.46-.31-.21-.55-.5-.72-.84-.17-.35-.25-.77-.25-1.27s.1-.89.29-1.22c.19-.33.45-.6.78-.8.32-.2.7-.34,1.12-.43.42-.09.85-.13,1.3-.13.3,0,.57.01.81.04.24.03.43.06.57.1v-.22c0-.4-.12-.72-.36-.96-.24-.24-.66-.36-1.26-.36-.4,0-.79.03-1.18.09-.39.06-.72.14-1.01.24l-.3-1.88c.14-.04.31-.09.51-.13.2-.05.43-.09.67-.13.24-.04.49-.07.76-.09.27-.03.54-.04.81-.04Zm.19,6.85c.23,0,.45,0,.66-.02.21-.01.38-.03.5-.05v-1.77c-.09-.02-.24-.04-.42-.06-.19-.02-.36-.03-.52-.03-.22,0-.43.01-.62.04s-.36.08-.51.15c-.15.07-.26.17-.35.3-.08.13-.13.28-.13.47,0,.37.12.62.37.76.25.14.58.21,1.01.21Z" style="fill: #a3ea2a;"/>
    <path d="m298.35,54.64c-.68-.01-1.23-.08-1.66-.22-.42-.14-.76-.33-1-.57-.25-.25-.41-.54-.5-.9-.09-.35-.13-.75-.13-1.19v-9.09l2.34-.38v9c0,.21.02.4.05.57.03.17.09.31.18.42s.22.21.38.28.39.12.68.14l-.33,1.93Z" style="fill: #a3ea2a;"/>
    <path d="m245.93,68.32c.35,0,.63-.03.86-.09.22-.06.41-.14.54-.24.14-.1.23-.22.28-.35.05-.14.08-.29.08-.46,0-.36-.17-.65-.5-.89-.34-.24-.91-.49-1.73-.76-.36-.12-.71-.27-1.07-.43-.36-.16-.68-.37-.96-.61-.28-.25-.51-.54-.69-.89-.18-.35-.27-.78-.27-1.28s.09-.96.28-1.36c.19-.4.46-.75.8-1.03.35-.28.76-.5,1.26-.65.49-.15,1.05-.23,1.66-.23.73,0,1.37.08,1.9.24.53.16.97.33,1.32.52l-.71,1.93c-.3-.16-.64-.3-1.01-.42-.37-.12-.82-.18-1.34-.18-.59,0-1.01.08-1.26.24-.26.16-.38.41-.38.75,0,.2.05.37.14.5.09.14.23.26.4.37.17.11.37.21.6.3s.47.18.75.27c.57.21,1.06.42,1.48.62.42.2.77.44,1.04.71.28.27.48.59.62.96s.2.81.2,1.33c0,1.02-.36,1.8-1.07,2.36-.71.56-1.79.84-3.22.84-.48,0-.92-.03-1.3-.09-.39-.06-.73-.13-1.03-.21-.3-.08-.55-.17-.77-.27-.21-.09-.4-.18-.54-.27l.69-1.95c.32.18.72.34,1.2.48.48.14,1.06.21,1.75.21Z" style="fill: #a3ea2a;"/>
    <path d="m251.55,66.06c0-.6.1-1.16.29-1.69.19-.53.47-.99.84-1.38.37-.39.81-.7,1.33-.93s1.12-.35,1.79-.35c.44,0,.84.04,1.21.12.37.08.72.19,1.07.34l-.49,1.87c-.22-.08-.46-.16-.72-.22-.26-.06-.55-.09-.88-.09-.69,0-1.21.21-1.55.64-.34.43-.51,1-.51,1.7,0,.74.16,1.32.48,1.73s.88.61,1.67.61c.28,0,.59-.03.91-.08.32-.05.62-.14.9-.25l.33,1.92c-.27.12-.61.21-1.02.3-.41.08-.86.13-1.35.13-.75,0-1.4-.11-1.95-.34-.54-.22-.99-.53-1.34-.92-.35-.39-.61-.85-.77-1.37-.16-.53-.24-1.1-.24-1.72Z" style="fill: #a3ea2a;"/>
    <path d="m267.13,66.04c0,.65-.09,1.24-.28,1.78s-.46,1-.82,1.38-.78.68-1.28.89c-.5.21-1.05.31-1.67.31s-1.16-.1-1.66-.31c-.5-.21-.92-.51-1.28-.89-.36-.38-.63-.84-.83-1.38s-.3-1.13-.3-1.78.1-1.24.31-1.77.49-.99.85-1.37.79-.67,1.29-.88c.5-.21,1.04-.31,1.62-.31s1.14.1,1.64.31c.5.21.92.5,1.28.88s.63.83.83,1.37c.2.53.3,1.12.3,1.77Zm-2.39,0c0-.72-.14-1.29-.43-1.7-.29-.41-.7-.62-1.23-.62s-.95.21-1.24.62c-.29.41-.44.98-.44,1.7s.15,1.3.44,1.72c.29.42.71.64,1.24.64s.94-.21,1.23-.64c.29-.42.43-1,.43-1.72Z" style="fill: #a3ea2a;"/>
    <path d="m276.61,66.06c0,.64-.08,1.22-.24,1.74-.16.52-.39.97-.69,1.35-.3.38-.68.67-1.13.88-.45.21-.97.31-1.55.31-.32,0-.63-.03-.91-.09-.28-.06-.55-.15-.82-.27v3.11h-2.34v-10.88c.21-.06.45-.12.72-.18.27-.06.56-.11.86-.15s.6-.08.91-.1c.31-.03.6-.04.89-.04.68,0,1.29.1,1.82.31.53.2.98.49,1.35.86.37.37.65.82.84,1.36s.29,1.13.29,1.79Zm-2.39.06c0-.72-.16-1.3-.49-1.73-.32-.43-.81-.65-1.44-.65-.21,0-.4,0-.58.02-.18.02-.32.03-.44.06v4.22c.15.09.34.17.57.24.24.06.47.09.71.09,1.11,0,1.66-.75,1.66-2.25Z" style="fill: #a3ea2a;"/>
    <path d="m278.03,66.12c0-.73.11-1.37.34-1.92.22-.55.52-1.01.89-1.37.37-.37.79-.64,1.26-.83.48-.19.97-.28,1.47-.28,1.17,0,2.1.36,2.78,1.08.68.72,1.02,1.77,1.02,3.16,0,.14,0,.29-.02.45-.01.16-.02.31-.03.43h-5.31c.05.48.28.86.67,1.15.4.28.93.42,1.6.42.43,0,.85-.04,1.26-.12.41-.08.75-.17,1.01-.29l.31,1.9c-.13.06-.29.13-.5.19-.21.06-.44.12-.7.17-.26.05-.53.09-.82.12s-.59.05-.88.05c-.74,0-1.39-.11-1.94-.33-.55-.22-1-.52-1.37-.9s-.63-.83-.8-1.36-.26-1.09-.26-1.7Zm5.5-.89c-.01-.2-.04-.39-.1-.58-.06-.19-.15-.36-.27-.5-.12-.15-.27-.27-.46-.36-.18-.09-.41-.14-.68-.14s-.49.04-.68.13c-.19.09-.35.21-.47.35s-.22.32-.29.51c-.07.19-.12.39-.15.59h3.09Z" style="fill: #a3ea2a;"/>
  </g>
  <g>
    <path d="m398.82,33.34c0,.94-.15,1.76-.44,2.47s-.71,1.28-1.25,1.74c-.54.46-1.2.81-1.97,1.04s-1.64.35-2.61.35c-.44,0-.95-.02-1.54-.05s-1.16-.11-1.73-.23v-10.6c.56-.1,1.15-.18,1.77-.21.61-.04,1.14-.06,1.58-.06.93,0,1.78.1,2.54.31.76.21,1.41.54,1.96.99s.96,1.03,1.26,1.73c.29.7.44,1.54.44,2.53Zm-7.08,3.45c.11.01.25.02.4.02.15,0,.33,0,.54,0,1.23,0,2.13-.31,2.72-.93.59-.62.89-1.47.89-2.56s-.28-2-.85-2.59c-.57-.59-1.46-.88-2.69-.88-.17,0-.34,0-.52,0-.18,0-.35.02-.5.04v6.88Z" style="fill: #a3ea2a;"/>
    <path d="m400.31,34.72c0-.73.11-1.37.34-1.92.22-.55.52-1.01.89-1.37s.79-.64,1.26-.83c.48-.19.97-.28,1.47-.28,1.17,0,2.1.36,2.78,1.08.68.72,1.02,1.77,1.02,3.16,0,.14,0,.29-.02.45-.01.16-.02.31-.03.43h-5.31c.05.48.28.86.67,1.15.4.28.93.42,1.6.42.43,0,.85-.04,1.26-.12.41-.08.75-.18,1.01-.29l.31,1.9c-.13.06-.29.13-.5.19-.21.06-.44.12-.7.17-.26.05-.53.09-.82.12-.29.03-.59.05-.88.05-.74,0-1.39-.11-1.94-.33-.55-.22-1-.52-1.37-.9s-.63-.83-.8-1.36-.26-1.09-.26-1.7Zm5.5-.9c-.01-.2-.04-.39-.1-.58-.06-.19-.15-.36-.27-.5-.12-.15-.27-.27-.46-.36-.18-.09-.41-.14-.68-.14s-.49.04-.68.13-.35.21-.47.35-.22.32-.29.51c-.07.19-.12.39-.15.59h3.09Z" style="fill: #a3ea2a;"/>
    <path d="m409.48,34.65c0-.6.1-1.16.29-1.69.19-.53.47-.99.84-1.38.37-.39.81-.7,1.33-.93.52-.23,1.12-.35,1.79-.35.44,0,.84.04,1.21.12.37.08.72.19,1.07.34l-.49,1.87c-.22-.08-.46-.16-.72-.22-.26-.06-.55-.09-.88-.09-.69,0-1.21.21-1.55.64-.34.43-.51.99-.51,1.7,0,.74.16,1.32.48,1.73.32.41.88.61,1.67.61.28,0,.59-.03.91-.08.32-.05.62-.14.9-.25l.33,1.92c-.27.12-.61.21-1.02.3-.41.08-.86.13-1.35.13-.75,0-1.4-.11-1.95-.34s-.99-.53-1.34-.92c-.35-.39-.61-.85-.77-1.37-.16-.53-.24-1.1-.24-1.72Z" style="fill: #a3ea2a;"/>
    <path d="m425.06,34.64c0,.65-.09,1.24-.28,1.78s-.46,1-.82,1.38c-.36.38-.78.68-1.28.89s-1.05.31-1.67.31-1.16-.1-1.66-.31c-.5-.21-.92-.5-1.28-.89-.36-.38-.63-.84-.83-1.38s-.3-1.13-.3-1.78.1-1.24.31-1.77.49-.99.85-1.37.79-.67,1.29-.88c.5-.21,1.04-.31,1.62-.31s1.14.1,1.64.31c.5.21.92.5,1.28.88s.63.83.83,1.37c.2.53.3,1.13.3,1.77Zm-2.39,0c0-.72-.14-1.29-.43-1.7-.29-.41-.7-.62-1.23-.62s-.95.21-1.24.62c-.29.41-.44.98-.44,1.7s.15,1.3.44,1.72c.29.42.71.64,1.24.64s.94-.21,1.23-.64c.29-.42.43-1,.43-1.72Z" style="fill: #a3ea2a;"/>
    <path d="m431.4,34.4c0-.75-.1-1.29-.29-1.6s-.53-.47-1-.47c-.15,0-.3,0-.46.02-.16.02-.31.03-.46.05v6.38h-2.34v-7.98c.2-.05.43-.11.7-.17.27-.06.55-.11.85-.16.3-.05.6-.08.92-.11.31-.03.62-.04.93-.04.6,0,1.08.08,1.45.23s.68.33.92.54c.33-.24.72-.43,1.15-.57.43-.14.83-.2,1.2-.2.66,0,1.2.09,1.62.27s.76.44,1.01.78c.25.33.42.73.52,1.19.09.46.14.97.14,1.54v4.66h-2.34v-4.38c0-.75-.1-1.29-.29-1.6s-.53-.47-1-.47c-.13,0-.3.03-.53.09-.23.06-.41.14-.56.24.07.24.12.49.14.76.02.27.03.55.03.86v4.51h-2.34v-4.38Z" style="fill: #a3ea2a;"/>
    <path d="m448.08,34.65c0,.64-.08,1.22-.24,1.74-.16.52-.39.97-.69,1.35-.3.38-.68.67-1.13.88-.45.21-.97.31-1.55.31-.32,0-.63-.03-.91-.09-.28-.06-.55-.15-.82-.27v3.11h-2.34v-10.88c.21-.06.45-.12.72-.18.27-.06.56-.11.86-.15s.6-.08.91-.1c.31-.03.6-.04.89-.04.68,0,1.29.1,1.82.31.53.2.98.49,1.35.86.37.37.65.82.84,1.36s.29,1.13.29,1.79Zm-2.39.06c0-.72-.16-1.3-.49-1.74-.32-.43-.81-.65-1.44-.65-.21,0-.4,0-.58.02-.18.02-.32.03-.44.05v4.22c.15.09.34.17.57.24.24.06.47.09.71.09,1.11,0,1.66-.75,1.66-2.25Z" style="fill: #a3ea2a;"/>
    <path d="m457.61,34.64c0,.65-.09,1.24-.28,1.78s-.46,1-.82,1.38c-.36.38-.78.68-1.28.89s-1.05.31-1.67.31-1.16-.1-1.66-.31c-.5-.21-.92-.5-1.28-.89-.36-.38-.63-.84-.83-1.38s-.3-1.13-.3-1.78.1-1.24.31-1.77.49-.99.85-1.37.79-.67,1.29-.88c.5-.21,1.04-.31,1.62-.31s1.14.1,1.64.31c.5.21.92.5,1.28.88s.63.83.83,1.37c.2.53.3,1.13.3,1.77Zm-2.39,0c0-.72-.14-1.29-.43-1.7-.29-.41-.7-.62-1.23-.62s-.95.21-1.24.62c-.29.41-.44.98-.44,1.7s.15,1.3.44,1.72c.29.42.71.64,1.24.64s.94-.21,1.23-.64c.29-.42.43-1,.43-1.72Z" style="fill: #a3ea2a;"/>
    <path d="m461.79,37.1c.43,0,.73-.04.91-.13.18-.08.27-.25.27-.49,0-.19-.12-.35-.35-.49-.23-.14-.58-.3-1.05-.48-.37-.14-.7-.28-1-.42s-.55-.32-.76-.53-.37-.45-.49-.73-.17-.62-.17-1.02c0-.77.29-1.39.86-1.84s1.37-.68,2.37-.68c.5,0,.98.04,1.44.13.46.09.83.19,1.1.29l-.41,1.82c-.27-.09-.57-.18-.89-.25s-.68-.11-1.08-.11c-.73,0-1.1.2-1.1.61,0,.09.02.18.05.25.03.07.09.14.19.21.09.07.22.14.38.22.16.08.37.17.62.26.51.19.94.38,1.27.56s.6.38.79.6c.19.21.33.45.41.71.08.26.12.56.12.91,0,.81-.31,1.43-.92,1.85-.61.42-1.48.63-2.6.63-.73,0-1.34-.06-1.83-.19-.49-.13-.82-.23-1.01-.31l.39-1.9c.4.16.81.28,1.23.37.42.09.83.13,1.24.13Z" style="fill: #a3ea2a;"/>
    <path d="m466.64,34.72c0-.73.11-1.37.34-1.92.22-.55.52-1.01.89-1.37s.79-.64,1.26-.83c.48-.19.97-.28,1.47-.28,1.17,0,2.1.36,2.78,1.08.68.72,1.02,1.77,1.02,3.16,0,.14,0,.29-.02.45-.01.16-.02.31-.03.43h-5.31c.05.48.28.86.67,1.15.4.28.93.42,1.6.42.43,0,.85-.04,1.26-.12.41-.08.75-.18,1.01-.29l.31,1.9c-.13.06-.29.13-.5.19-.21.06-.44.12-.7.17-.26.05-.53.09-.82.12-.29.03-.59.05-.88.05-.74,0-1.39-.11-1.94-.33-.55-.22-1-.52-1.37-.9s-.63-.83-.8-1.36-.26-1.09-.26-1.7Zm5.5-.9c-.01-.2-.04-.39-.1-.58-.06-.19-.15-.36-.27-.5-.12-.15-.27-.27-.46-.36-.18-.09-.41-.14-.68-.14s-.49.04-.68.13-.35.21-.47.35-.22.32-.29.51c-.07.19-.12.39-.15.59h3.09Z" style="fill: #a3ea2a;"/>
    <path d="m419.89,44.17l2.34-.38v2.43h2.81v1.95h-2.81v2.91c0,.49.09.88.26,1.18.17.29.52.44,1.04.44.25,0,.51-.02.78-.07.27-.05.51-.11.73-.2l.33,1.82c-.28.12-.6.21-.94.3-.35.08-.77.13-1.27.13-.64,0-1.17-.09-1.59-.26-.42-.17-.75-.41-1-.72-.25-.31-.43-.68-.53-1.12-.1-.44-.15-.93-.15-1.46v-6.94Z" style="fill: #a3ea2a;"/>
    <path d="m426.94,54.49v-11.81l2.34-.38v3.96c.16-.05.36-.1.6-.15s.48-.07.71-.07c.67,0,1.23.09,1.67.27s.8.44,1.07.78.46.73.57,1.19c.11.46.16.97.16,1.54v4.66h-2.34v-4.38c0-.75-.1-1.29-.29-1.6-.19-.31-.55-.47-1.08-.47-.21,0-.41.02-.59.05s-.35.08-.49.12v6.28h-2.34Z" style="fill: #a3ea2a;"/>
    <path d="m435.8,50.42c0-.73.11-1.37.34-1.92.22-.55.52-1.01.89-1.37s.79-.64,1.26-.83c.48-.19.97-.28,1.47-.28,1.17,0,2.1.36,2.78,1.08.68.72,1.02,1.77,1.02,3.16,0,.14,0,.29-.02.45-.01.16-.02.31-.03.43h-5.31c.05.48.28.86.67,1.15.4.28.93.42,1.6.42.43,0,.85-.04,1.26-.12.41-.08.75-.17,1.01-.29l.31,1.9c-.13.06-.29.13-.5.19-.21.06-.44.12-.7.17-.26.05-.53.09-.82.12s-.59.05-.88.05c-.74,0-1.39-.11-1.94-.33-.55-.22-1-.52-1.37-.9s-.63-.83-.8-1.36-.26-1.09-.26-1.7Zm5.5-.89c-.01-.2-.04-.39-.1-.58-.06-.19-.15-.36-.27-.5-.12-.15-.27-.27-.46-.36-.18-.09-.41-.14-.68-.14s-.49.04-.68.13-.35.21-.47.35-.22.32-.29.51c-.07.19-.12.39-.15.59h3.09Z" style="fill: #a3ea2a;"/>
    <path d="m397.01,70.19c-.12-.38-.25-.77-.39-1.17-.14-.4-.28-.79-.42-1.19h-4.25c-.14.4-.28.79-.41,1.19-.14.4-.27.79-.39,1.16h-2.54c.41-1.17.8-2.26,1.17-3.25.37-1,.73-1.93,1.08-2.81.35-.88.7-1.71,1.04-2.5.34-.79.7-1.56,1.06-2.32h2.32c.36.75.71,1.53,1.06,2.32.35.79.7,1.62,1.05,2.5.35.88.71,1.82,1.08,2.81.37.99.76,2.08,1.17,3.25h-2.62Zm-2.94-8.42c-.05.16-.13.37-.24.65-.11.27-.23.59-.36.94-.13.36-.28.75-.45,1.18s-.33.88-.51,1.35h3.11c-.17-.47-.33-.92-.48-1.35-.16-.43-.3-.82-.44-1.18-.14-.36-.26-.67-.37-.94-.11-.27-.19-.48-.26-.64Z" style="fill: #a3ea2a;"/>
    <path d="m408.56,66.06c0,.64-.08,1.22-.24,1.74-.16.52-.39.97-.69,1.35-.3.38-.68.67-1.13.88-.45.21-.97.31-1.55.31-.32,0-.63-.03-.91-.09-.28-.06-.55-.15-.82-.27v3.11h-2.34v-10.88c.21-.06.45-.12.72-.18.27-.06.56-.11.86-.15s.6-.08.91-.1c.31-.03.6-.04.89-.04.68,0,1.29.1,1.82.31.53.2.98.49,1.35.86.37.37.65.82.84,1.36s.29,1.13.29,1.79Zm-2.39.06c0-.72-.16-1.3-.49-1.73-.32-.43-.81-.65-1.44-.65-.21,0-.4,0-.58.02-.18.02-.32.03-.44.06v4.22c.15.09.34.17.57.24.24.06.47.09.71.09,1.11,0,1.66-.75,1.66-2.25Z" style="fill: #a3ea2a;"/>
    <path d="m418.04,66.06c0,.64-.08,1.22-.24,1.74-.16.52-.39.97-.69,1.35-.3.38-.68.67-1.13.88-.45.21-.97.31-1.55.31-.32,0-.63-.03-.91-.09-.28-.06-.55-.15-.82-.27v3.11h-2.34v-10.88c.21-.06.45-.12.72-.18.27-.06.56-.11.86-.15s.6-.08.91-.1c.31-.03.6-.04.89-.04.68,0,1.29.1,1.82.31.53.2.98.49,1.35.86.37.37.65.82.84,1.36s.29,1.13.29,1.79Zm-2.39.06c0-.72-.16-1.3-.49-1.73-.32-.43-.81-.65-1.44-.65-.21,0-.4,0-.58.02-.18.02-.32.03-.44.06v4.22c.15.09.34.17.57.24.24.06.47.09.71.09,1.11,0,1.66-.75,1.66-2.25Z" style="fill: #a3ea2a;"/>
    <path d="m423.15,70.35c-.68-.01-1.23-.08-1.66-.22-.42-.14-.76-.33-1-.57-.25-.25-.41-.54-.5-.9-.09-.35-.13-.75-.13-1.19v-9.09l2.34-.38v9c0,.21.02.4.05.57.03.17.09.31.18.42s.22.21.38.28.39.12.68.14l-.33,1.93Z" style="fill: #a3ea2a;"/>
    <path d="m427.37,59.54c0,.43-.14.77-.42,1.01s-.6.37-.98.37-.7-.12-.98-.37-.42-.58-.42-1.01.14-.77.42-1.01.6-.37.98-.37.7.12.98.37.42.58.42,1.01Zm-.22,10.65h-2.34v-8.26h2.34v8.26Z" style="fill: #a3ea2a;"/>
    <path d="m428.96,66.06c0-.6.1-1.16.29-1.69.19-.53.47-.99.84-1.38.37-.39.81-.7,1.33-.93s1.12-.35,1.79-.35c.44,0,.84.04,1.21.12.37.08.72.19,1.07.34l-.49,1.87c-.22-.08-.46-.16-.72-.22-.26-.06-.55-.09-.88-.09-.69,0-1.21.21-1.55.64-.34.43-.51,1-.51,1.7,0,.74.16,1.32.48,1.73s.88.61,1.67.61c.28,0,.59-.03.91-.08.32-.05.62-.14.9-.25l.33,1.92c-.27.12-.61.21-1.02.3-.41.08-.86.13-1.35.13-.75,0-1.4-.11-1.95-.34-.54-.22-.99-.53-1.34-.92-.35-.39-.61-.85-.77-1.37-.16-.53-.24-1.1-.24-1.72Z" style="fill: #a3ea2a;"/>
    <path d="m439.77,61.71c.69,0,1.27.08,1.73.24.46.16.83.38,1.11.68s.47.65.59,1.07.17.88.17,1.4v4.87c-.34.07-.8.16-1.4.26s-1.32.15-2.17.15c-.53,0-1.02-.05-1.45-.14-.43-.09-.81-.25-1.12-.46-.31-.21-.55-.5-.72-.84-.17-.35-.25-.77-.25-1.27s.1-.89.29-1.22c.19-.33.45-.6.78-.8.32-.2.7-.34,1.12-.43.42-.09.85-.13,1.3-.13.3,0,.57.01.81.04.24.03.43.06.57.1v-.22c0-.4-.12-.72-.36-.96-.24-.24-.66-.36-1.26-.36-.4,0-.79.03-1.18.09-.39.06-.72.14-1.01.24l-.3-1.88c.14-.04.31-.09.51-.13.2-.05.43-.09.67-.12.24-.04.49-.07.76-.09.27-.03.54-.04.81-.04Zm.19,6.85c.23,0,.45,0,.66-.02.21-.01.38-.03.5-.05v-1.77c-.09-.02-.24-.04-.42-.06-.19-.02-.36-.03-.52-.03-.22,0-.43.01-.62.04s-.36.08-.51.15c-.15.07-.26.17-.35.3-.08.13-.13.28-.13.47,0,.37.12.62.37.76.25.14.58.21,1.01.21Z" style="fill: #a3ea2a;"/>
    <path d="m445.41,59.87l2.34-.38v2.43h2.81v1.95h-2.81v2.91c0,.49.09.88.26,1.18.17.29.52.44,1.04.44.25,0,.51-.02.78-.07.27-.05.51-.11.73-.2l.33,1.82c-.28.12-.6.21-.94.3-.35.08-.77.13-1.27.13-.64,0-1.17-.09-1.59-.26-.42-.17-.75-.41-1-.72-.25-.31-.43-.68-.53-1.12-.1-.44-.15-.93-.15-1.46v-6.94Z" style="fill: #a3ea2a;"/>
    <path d="m455.02,59.54c0,.43-.14.77-.42,1.01s-.6.37-.98.37-.7-.12-.98-.37-.42-.58-.42-1.01.14-.77.42-1.01.6-.37.98-.37.7.12.98.37.42.58.42,1.01Zm-.22,10.65h-2.34v-8.26h2.34v8.26Z" style="fill: #a3ea2a;"/>
    <path d="m464.73,66.04c0,.65-.09,1.24-.28,1.78s-.46,1-.82,1.38-.78.68-1.28.89c-.5.21-1.05.31-1.67.31s-1.16-.1-1.66-.31c-.5-.21-.92-.51-1.28-.89-.36-.38-.63-.84-.83-1.38s-.3-1.13-.3-1.78.1-1.24.31-1.77.49-.99.85-1.37.79-.67,1.29-.88c.5-.21,1.04-.31,1.62-.31s1.14.1,1.64.31c.5.21.92.5,1.28.88s.63.83.83,1.37c.2.53.3,1.12.3,1.77Zm-2.39,0c0-.72-.14-1.29-.43-1.7-.29-.41-.7-.62-1.23-.62s-.95.21-1.24.62c-.29.41-.44.98-.44,1.7s.15,1.3.44,1.72c.29.42.71.64,1.24.64s.94-.21,1.23-.64c.29-.42.43-1,.43-1.72Z" style="fill: #a3ea2a;"/>
    <path d="m466.53,62.21c.4-.12.91-.22,1.54-.32.63-.1,1.29-.15,1.98-.15s1.28.09,1.75.28c.47.18.83.44,1.11.78.27.34.47.73.58,1.19.11.46.17.97.17,1.54v4.66h-2.34v-4.38c0-.75-.1-1.29-.3-1.6-.2-.31-.57-.47-1.12-.47-.17,0-.35,0-.53.02s-.36.03-.5.06v6.38h-2.34v-7.98Z" style="fill: #a3ea2a;"/>
  </g>
  <g id="Artwork_35" data-name="Artwork 35">
    <g>
      <path id="cloud" d="m49.94,25.05c-.33-1.7-1.84-3-3.66-3h-.66c-.49-2.44-2.63-4.22-5.14-4.22s-4.66,1.79-5.15,4.24c-1.86.2-3.32,1.77-3.32,3.67,0,2.04,1.67,3.69,3.73,3.69h5.51c.29-.01.52-.25.51-.55-.01-.28-.23-.5-.51-.51h-5.51c-1.47,0-2.67-1.18-2.67-2.64s1.2-2.64,2.67-2.64c.54,0,1.08.17,1.52.48.21.15.5.13.68-.05h0c.21-.2.21-.53,0-.74h0s-.04-.04-.07-.06c-.44-.31-.94-.53-1.47-.62.45-1.87,2.12-3.22,4.07-3.22,2.07,0,3.82,1.51,4.14,3.55-.17.09-.33.18-.48.29-.24.17-.29.5-.13.74.02.02.03.05.06.07h0c.18.18.47.2.68.05.44-.32.98-.49,1.52-.48,1.3,0,2.38.92,2.62,2.14.05.25.26.43.52.43h0c.29,0,.53-.23.53-.52h0s0-.07,0-.11Z" style="fill: #fff;"/>
      <g id="numbers">
        <path d="m43.37,28.57h-.45v-1.44s.01-.22.01-.22c-.05.05-.1.1-.16.15l-.25.2-.22-.27.69-.55h.37v2.14Z" style="fill: #fff;"/>
        <path d="m45.46,27.5c0,.38-.06.65-.19.83s-.31.27-.57.27-.43-.09-.56-.28-.19-.46-.19-.82.06-.66.18-.84.31-.27.56-.27.43.09.56.28c.13.19.2.46.2.83Zm-1.05,0c0,.26.02.45.07.57s.12.17.23.17.18-.06.23-.17.07-.3.07-.57-.02-.45-.07-.57-.12-.17-.23-.17-.18.06-.23.17-.07.3-.07.57Z" style="fill: #fff;"/>
        <path d="m43.37,31.83h-.45v-1.44s.01-.22.01-.22c-.05.05-.1.1-.16.15l-.25.2-.22-.27.69-.55h.37v2.14Z" style="fill: #fff;"/>
        <path d="m45.09,31.83h-.45v-1.44s.01-.22.01-.22c-.05.05-.1.1-.16.15l-.25.2-.22-.27.69-.55h.37v2.14h0Z" style="fill: #fff;"/>
        <path d="m46.81,31.83h-.45v-1.44s.01-.22.01-.22c-.05.05-.1.1-.16.15l-.25.2-.22-.27.69-.55h.37v2.14Z" style="fill: #fff;"/>
        <path d="m48.89,30.76c0,.38-.06.65-.19.83s-.31.27-.57.27-.43-.09-.56-.28-.19-.46-.19-.83.06-.66.18-.84.31-.27.56-.27.43.09.56.28c.13.19.2.46.2.83Zm-1.05,0c0,.26.02.45.07.57s.12.17.23.17.18-.06.23-.17.07-.3.07-.56-.02-.45-.07-.57-.12-.17-.23-.17-.18.06-.23.17-.07.3-.07.56Z" style="fill: #fff;"/>
        <path d="m49.87,33.34c0,.27-.04.47-.13.61s-.23.2-.41.2-.32-.07-.41-.2-.14-.33-.14-.6.04-.48.13-.61c.09-.13.23-.2.41-.2s.32.07.41.21.14.34.13.6Zm-.76,0c0,.19.02.33.05.41.02.08.09.12.17.12s.13-.04.17-.13.05-.22.05-.41-.02-.33-.05-.41-.09-.13-.17-.13-.13.04-.17.13-.05.22-.05.41h0Z" style="fill: #fff;"/>
        <path d="m50.85,34.12h-.33v-1.05s.01-.16.01-.16c-.06.06-.09.09-.11.11l-.18.14-.16-.2.5-.4h.27v1.56h0Z" style="fill: #fff;"/>
        <path d="m43.28,33.35c0,.27-.04.46-.13.59s-.22.19-.41.19-.31-.07-.4-.2-.13-.33-.13-.58.04-.47.13-.6.22-.19.4-.19.31.07.4.2.14.33.14.59Zm-.75,0c0,.19.02.32.05.4.02.07.09.12.17.12.08,0,.13-.04.16-.12s.05-.22.05-.4-.02-.32-.05-.4-.09-.12-.16-.12-.13.04-.16.12-.06.22-.05.41h0Z" style="fill: #fff;"/>
        <path d="m44.24,34.12h-.32v-1.03s.01-.16.01-.16c-.06.06-.09.09-.11.11l-.18.14-.15-.2.49-.39h.26v1.53Z" style="fill: #fff;"/>
        <path d="m45.72,33.35c0,.27-.04.46-.13.59s-.22.19-.41.19-.31-.07-.4-.2-.13-.33-.13-.58.04-.47.13-.6.22-.19.4-.19.31.07.4.2.14.33.14.59Zm-.75,0c0,.19.02.32.05.4.02.07.09.12.17.12.08,0,.13-.04.16-.12s.05-.22.05-.4-.02-.32-.05-.4-.09-.12-.16-.12-.13.04-.16.12-.06.22-.05.41h0Z" style="fill: #fff;"/>
        <path d="m46.68,34.12h-.32v-1.03s.01-.16.01-.16c-.06.06-.09.09-.11.11l-.18.14-.15-.2.49-.39h.26v1.53Z" style="fill: #fff;"/>
        <path d="m42.96,35.3c0,.19-.03.33-.09.43s-.16.14-.29.14c-.11,0-.22-.05-.29-.14-.07-.1-.1-.24-.1-.42,0-.2.03-.34.09-.43s.16-.14.29-.14c.11,0,.22.05.29.14.06.1.1.24.1.43Zm-.54,0c0,.13.01.23.03.29.02.07.08.1.15.08h0s.07-.04.08-.08c.02-.06.03-.15.03-.29,0-.1,0-.2-.04-.29-.02-.06-.08-.1-.14-.09h0s-.07.04-.08.08c-.02.1-.03.2-.03.3Z" style="fill: #fff;"/>
        <path d="m43.65,35.85h-.23v-.74s0-.11,0-.11c-.04.04-.07.07-.08.08l-.13.1-.11-.14.35-.28h.19v1.1Z" style="fill: #fff;"/>
        <path d="m46.01,36.67c0,.19-.03.33-.1.43s-.16.14-.29.14c-.11,0-.22-.05-.29-.14-.07-.1-.1-.24-.1-.42s.03-.34.09-.43.16-.14.29-.14c.11,0,.22.05.29.14.07.1.1.24.1.43Zm-.54,0c0,.13.01.23.03.29.02.06.08.1.14.09h0s.07-.04.08-.08c.02-.06.03-.15.03-.29,0-.1,0-.2-.04-.29-.01-.05-.06-.09-.12-.09s-.1.03-.12.09c-.02.06-.03.15-.03.29Z" style="fill: #fff;"/>
        <path d="m46.71,37.22h-.23v-.74s0-.11,0-.11c-.04.04-.07.07-.08.08l-.13.1-.11-.14.35-.28h.19v1.1Z" style="fill: #fff;"/>
        <path d="m48.53,35.09c0,.27-.04.46-.13.59s-.22.19-.41.19-.31-.07-.4-.2-.13-.33-.13-.58.04-.47.13-.6.22-.19.4-.19.31.07.4.2.14.33.14.59Zm-.75,0c0,.19.02.32.05.4.02.07.09.12.17.12.08,0,.13-.04.16-.12s.05-.22.05-.4-.02-.32-.05-.41-.09-.12-.17-.12-.13.04-.16.12-.05.22-.05.41h0Z" style="fill: #fff;"/>
        <path d="m49.5,35.85h-.32v-1.03s.01-.16.01-.16c-.06.06-.09.09-.11.11l-.18.14-.15-.2.49-.39h.26v1.53h0Z" style="fill: #fff;"/>
        <path d="m50.98,35.09c0,.27-.04.46-.13.59s-.22.19-.41.19-.31-.07-.4-.2-.13-.33-.13-.58.04-.47.13-.6.22-.19.4-.19.31.07.4.2.14.33.14.59Zm-.75,0c0,.19.02.32.05.4.02.07.09.12.17.12.08,0,.13-.04.16-.12s.05-.22.05-.4-.02-.32-.05-.41-.09-.12-.16-.12-.13.04-.16.12-.05.22-.05.41h0Z" style="fill: #fff;"/>
        <path d="m48.63,28.57h-.45v-1.44s.01-.22.01-.22c-.05.05-.1.1-.16.15l-.25.2-.22-.27.69-.55h.38v2.14h0Z" style="fill: #fff;"/>
        <path d="m50.72,27.5c0,.38-.06.65-.19.83s-.31.27-.57.27-.43-.09-.56-.28-.19-.46-.19-.82.06-.66.18-.84.31-.27.56-.27.43.09.56.28.19.46.2.83Zm-1.05,0c0,.26.02.45.07.57s.12.17.23.17.18-.06.23-.17.07-.3.07-.57-.02-.45-.07-.57-.12-.17-.23-.17-.18.06-.23.17-.07.3-.07.57h0Z" style="fill: #fff;"/>
      </g>
    </g>
  </g>
</svg>