<?xml version="1.0" encoding="UTF-8"?>
<svg id="Layer_1" data-name="Layer 1" xmlns="http://www.w3.org/2000/svg" width="999.92" height="316.28" xmlns:xlink="http://www.w3.org/1999/xlink" viewBox="0 0 999.92 316.28">
  <defs>
    <linearGradient id="linear-gradient" x1="413.86" y1="73.8" x2="586.17" y2="73.8" gradientUnits="userSpaceOnUse">
      <stop offset=".48" stop-color="#223654"/>
      <stop offset=".52" stop-color="#38554c"/>
      <stop offset=".59" stop-color="#5e8940"/>
      <stop offset=".66" stop-color="#7bb336"/>
      <stop offset=".72" stop-color="#91d12f"/>
      <stop offset=".77" stop-color="#9ee32b"/>
      <stop offset=".81" stop-color="#a3ea2a"/>
    </linearGradient>
    <linearGradient id="linear-gradient-2" y1="190.29" y2="190.29" gradientTransform="translate(0 434.01) scale(1 -1)" xlink:href="#linear-gradient"/>
    <linearGradient id="linear-gradient-3" x1="140.64" y1="158.14" x2="296.1" y2="158.14" gradientUnits="userSpaceOnUse">
      <stop offset=".46" stop-color="#223654"/>
      <stop offset=".5" stop-color="#38554c"/>
      <stop offset=".58" stop-color="#5e8940"/>
      <stop offset=".65" stop-color="#7bb336"/>
      <stop offset=".71" stop-color="#91d12f"/>
      <stop offset=".77" stop-color="#9ee32b"/>
      <stop offset=".81" stop-color="#a3ea2a"/>
    </linearGradient>
    <linearGradient id="linear-gradient-4" x1="431.24" y1="103.82" x2="586.7" y2="103.82" gradientUnits="userSpaceOnUse">
      <stop offset=".48" stop-color="#223654"/>
      <stop offset=".52" stop-color="#38554c"/>
      <stop offset=".59" stop-color="#5e8940"/>
      <stop offset=".66" stop-color="#7bb336"/>
      <stop offset=".72" stop-color="#91d12f"/>
      <stop offset=".77" stop-color="#9ee32b"/>
      <stop offset=".81" stop-color="#a3ea2a"/>
    </linearGradient>
    <linearGradient id="linear-gradient-5" y1="212.46" y2="212.46" xlink:href="#linear-gradient-4"/>
  </defs>
  <path d="m590.89,31.4l-29.85-17.17c-.88-.5-1.98.13-1.98,1.15v8.85h-74.72c-2.64,0-4.78,2.14-4.78,4.78v104.52h16.6V40.84h62.9v8.85c0,1.02,1.1,1.65,1.98,1.15l29.85-17.17c.88-.5.88-1.77,0-2.27Z" style="fill: url(#linear-gradient); stroke-width: 0px;"/>
  <path d="m590.89,284.87l-29.85,17.17c-.88.5-1.98-.13-1.98-1.15v-8.85h-74.72c-2.64,0-4.78-2.14-4.78-4.78v-102.03h16.6v90.21h62.9v-8.85c0-1.02,1.1-1.65,1.98-1.15l29.85,17.17c.88.5.88,1.77,0,2.27Z" style="fill: url(#linear-gradient-2); stroke-width: 0px;"/>
  <rect x="6.85" y="130.1" width="206.06" height="56.08" rx="7.48" ry="7.48" style="fill: #223654; stroke-width: 0px;"/>
  <g>
    <path d="m33.56,150.12h4.1v18.22h-4.1v-7.73h-6.89v7.73h-4.1v-18.22h4.1v6.97h6.89v-6.97Z" style="fill: #a3ea2a; stroke-width: 0px;"/>
    <path d="m55.37,150.12v3.5h-5.49v14.72h-4.1v-14.72h-5.49v-3.5h15.09Z" style="fill: #a3ea2a; stroke-width: 0px;"/>
    <path d="m72.19,150.12v3.5h-5.49v14.72h-4.1v-14.72h-5.49v-3.5h15.09Z" style="fill: #a3ea2a; stroke-width: 0px;"/>
    <path d="m80.29,149.91c2.72,0,4.8.48,6.26,1.43,1.45.96,2.18,2.52,2.18,4.69s-.74,3.77-2.21,4.75c-1.47.97-3.57,1.46-6.31,1.46h-1.29v6.1h-4.1v-17.95c.89-.18,1.84-.3,2.84-.37,1-.07,1.88-.1,2.63-.1Zm.26,3.5c-.3,0-.59,0-.88.03-.29.02-.54.04-.75.05v5.26h1.29c1.42,0,2.49-.19,3.21-.58.72-.39,1.08-1.1,1.08-2.16,0-.51-.09-.93-.28-1.26s-.45-.6-.79-.8c-.34-.2-.76-.34-1.25-.42-.49-.08-1.03-.12-1.63-.12Z" style="fill: #a3ea2a; stroke-width: 0px;"/>
    <path d="m103.39,149.91c2.73,0,4.83.49,6.28,1.46,1.45.97,2.18,2.48,2.18,4.53,0,1.28-.29,2.32-.88,3.11-.59.8-1.43,1.42-2.54,1.88.37.46.75.98,1.16,1.56.4.59.8,1.2,1.2,1.84.39.64.78,1.31,1.14,2s.71,1.37,1.02,2.04h-4.58c-.33-.6-.67-1.2-1.02-1.81s-.69-1.21-1.06-1.79c-.36-.58-.72-1.12-1.07-1.64-.35-.52-.7-.99-1.06-1.41h-2.02v6.65h-4.1v-17.95c.89-.18,1.82-.3,2.77-.37.95-.07,1.81-.1,2.56-.1Zm.24,3.5c-.3,0-.57,0-.8.03-.24.02-.46.04-.67.05v4.94h1.16c1.54,0,2.65-.19,3.31-.58s1-1.04,1-1.97-.34-1.53-1.01-1.91c-.67-.38-1.67-.57-2.98-.57Z" style="fill: #a3ea2a; stroke-width: 0px;"/>
    <path d="m114.01,161.53c0-1.23.19-2.3.57-3.22.38-.92.87-1.69,1.48-2.3.61-.61,1.32-1.08,2.12-1.39.8-.32,1.62-.47,2.46-.47,1.96,0,3.51.6,4.65,1.8,1.14,1.2,1.71,2.97,1.71,5.3,0,.23,0,.48-.03.75-.02.27-.04.51-.05.72h-8.88c.09.81.46,1.45,1.13,1.92.67.47,1.56.71,2.68.71.72,0,1.42-.07,2.12-.2.69-.13,1.26-.29,1.7-.49l.53,3.18c-.21.11-.49.21-.84.32-.35.11-.74.2-1.17.28-.43.08-.89.14-1.38.2-.49.05-.98.08-1.47.08-1.24,0-2.33-.18-3.25-.55-.92-.37-1.68-.87-2.29-1.51s-1.05-1.4-1.34-2.27c-.29-.88-.43-1.82-.43-2.84Zm9.2-1.5c-.02-.33-.07-.66-.17-.97-.1-.32-.25-.6-.45-.84-.2-.25-.46-.45-.76-.6-.31-.16-.69-.24-1.14-.24s-.81.07-1.13.22c-.32.15-.58.35-.79.59-.21.25-.37.53-.49.85-.11.32-.2.65-.25.99h5.18Z" style="fill: #a3ea2a; stroke-width: 0px;"/>
    <path d="m129.36,161.42c0-1.07.16-2.05.49-2.93.32-.88.79-1.65,1.41-2.29.61-.64,1.37-1.13,2.26-1.48.89-.35,1.91-.53,3.05-.53.47,0,.97.02,1.48.07.52.04,1.03.1,1.52.17.5.07.98.15,1.43.25.46.1.86.2,1.21.3v18.22h-3.92v-5.2c-.44.19-.89.34-1.37.45-.47.11-.98.16-1.52.16-1.96,0-3.46-.64-4.49-1.93-1.03-1.29-1.55-3.04-1.55-5.24Zm4,.11c0,2.51.93,3.76,2.79,3.76.4,0,.8-.05,1.2-.16s.71-.24.96-.39v-7.07c-.19-.04-.44-.07-.74-.09-.3-.03-.62-.04-.97-.04-1.07,0-1.88.36-2.42,1.09s-.81,1.7-.81,2.9Z" style="fill: #a3ea2a; stroke-width: 0px;"/>
    <path d="m157.7,167.86c-.67.19-1.52.37-2.58.54-1.05.17-2.16.25-3.31.25s-2.15-.16-2.93-.47c-.78-.32-1.4-.76-1.85-1.33-.46-.57-.78-1.25-.97-2.04-.19-.79-.29-1.66-.29-2.6v-7.7h3.92v7.23c0,1.26.17,2.17.5,2.73.33.56.95.84,1.87.84.28,0,.58-.01.89-.04s.6-.06.84-.09v-10.67h3.92v13.35Z" style="fill: #a3ea2a; stroke-width: 0px;"/>
    <path d="m160.72,161.53c0-1.23.19-2.3.57-3.22.38-.92.87-1.69,1.48-2.3.61-.61,1.32-1.08,2.12-1.39.8-.32,1.62-.47,2.46-.47,1.96,0,3.51.6,4.65,1.8,1.14,1.2,1.71,2.97,1.71,5.3,0,.23,0,.48-.03.75-.02.27-.04.51-.05.72h-8.88c.09.81.46,1.45,1.13,1.92.67.47,1.56.71,2.68.71.72,0,1.42-.07,2.12-.2.69-.13,1.26-.29,1.7-.49l.53,3.18c-.21.11-.49.21-.84.32-.35.11-.74.2-1.17.28-.43.08-.89.14-1.38.2-.49.05-.98.08-1.47.08-1.24,0-2.33-.18-3.25-.55-.92-.37-1.68-.87-2.29-1.51s-1.05-1.4-1.34-2.27c-.29-.88-.43-1.82-.43-2.84Zm9.2-1.5c-.02-.33-.07-.66-.17-.97-.1-.32-.25-.6-.45-.84-.2-.25-.46-.45-.76-.6-.31-.16-.69-.24-1.14-.24s-.81.07-1.13.22c-.32.15-.58.35-.79.59-.21.25-.37.53-.49.85-.11.32-.2.65-.25.99h5.18Z" style="fill: #a3ea2a; stroke-width: 0px;"/>
    <path d="m180.7,165.52c.72,0,1.23-.07,1.52-.21.3-.14.45-.41.45-.81,0-.32-.19-.59-.58-.83-.39-.24-.97-.5-1.76-.8-.61-.23-1.17-.46-1.67-.71-.5-.25-.92-.54-1.27-.88-.35-.34-.62-.75-.81-1.22-.19-.47-.29-1.04-.29-1.71,0-1.3.48-2.32,1.45-3.08.96-.75,2.29-1.13,3.97-1.13.84,0,1.65.08,2.42.22.77.15,1.38.31,1.84.49l-.68,3.05c-.46-.16-.95-.3-1.48-.42-.53-.12-1.13-.18-1.8-.18-1.23,0-1.84.34-1.84,1.03,0,.16.03.3.08.42.05.12.16.24.32.35.16.11.37.24.64.37.27.13.62.28,1.04.44.86.32,1.57.63,2.13.94.56.31,1,.64,1.33,1,.32.36.55.76.68,1.19.13.44.2.94.2,1.52,0,1.36-.51,2.4-1.54,3.09-1.03.7-2.48,1.05-4.35,1.05-1.23,0-2.25-.11-3.06-.32-.81-.21-1.38-.39-1.7-.53l.66-3.18c.67.26,1.35.47,2.05.62.7.15,1.39.22,2.08.22Z" style="fill: #a3ea2a; stroke-width: 0px;"/>
    <path d="m189.34,151.07l3.92-.63v4.07h4.7v3.26h-4.7v4.86c0,.82.14,1.48.43,1.97s.87.74,1.75.74c.42,0,.85-.04,1.3-.12.45-.08.85-.19,1.22-.33l.55,3.05c-.47.19-1,.36-1.58.5-.58.14-1.29.21-2.13.21-1.07,0-1.95-.14-2.65-.43-.7-.29-1.26-.69-1.68-1.21-.42-.52-.71-1.14-.88-1.88s-.25-1.55-.25-2.44v-11.62Z" style="fill: #a3ea2a; stroke-width: 0px;"/>
  </g>
  <rect x="602.49" y="6.39" width="261.85" height="56.08" rx="7.48" ry="7.48" style="fill: #223654; stroke-width: 0px;"/>
  <g>
    <path d="m619.54,26.21c2.73,0,4.83.49,6.28,1.46,1.45.97,2.18,2.48,2.18,4.53,0,1.28-.29,2.32-.88,3.12-.59.8-1.43,1.42-2.54,1.88.37.46.75.98,1.16,1.56.4.59.8,1.2,1.2,1.84.39.64.78,1.31,1.14,2,.37.69.71,1.37,1.02,2.04h-4.58c-.33-.6-.67-1.2-1.02-1.81s-.69-1.21-1.05-1.79c-.36-.58-.72-1.13-1.07-1.64-.35-.52-.7-.99-1.05-1.41h-2.02v6.65h-4.1v-17.95c.89-.17,1.82-.3,2.77-.37.96-.07,1.81-.11,2.56-.11Zm.24,3.5c-.3,0-.56,0-.8.03-.24.02-.46.04-.67.05v4.94h1.16c1.54,0,2.65-.19,3.31-.58.67-.39,1-1.04,1-1.97s-.34-1.53-1.01-1.91-1.67-.57-2.98-.57Z" style="fill: #a3ea2a; stroke-width: 0px;"/>
    <path d="m630.16,37.82c0-1.23.19-2.3.57-3.22s.87-1.69,1.49-2.3c.61-.61,1.32-1.08,2.12-1.39.8-.32,1.62-.47,2.46-.47,1.96,0,3.51.6,4.65,1.8,1.14,1.2,1.71,2.97,1.71,5.3,0,.23,0,.48-.03.75s-.04.51-.05.72h-8.88c.09.81.46,1.45,1.13,1.92.67.47,1.56.71,2.68.71.72,0,1.42-.07,2.12-.2.69-.13,1.26-.29,1.7-.49l.53,3.18c-.21.1-.49.21-.84.32-.35.1-.74.2-1.17.28-.43.08-.89.14-1.38.2-.49.05-.98.08-1.47.08-1.25,0-2.33-.18-3.25-.55-.92-.37-1.68-.87-2.29-1.51s-1.05-1.4-1.34-2.27-.43-1.82-.43-2.84Zm9.2-1.5c-.02-.33-.08-.66-.17-.97-.1-.32-.25-.6-.45-.84s-.46-.45-.76-.6c-.31-.16-.69-.24-1.14-.24s-.82.08-1.13.22c-.32.15-.58.35-.79.59s-.37.53-.49.85c-.11.33-.2.65-.25.99h5.18Z" style="fill: #a3ea2a; stroke-width: 0px;"/>
    <path d="m645.51,37.72c0-1.07.16-2.05.49-2.93s.79-1.65,1.41-2.29,1.37-1.13,2.26-1.49,1.91-.53,3.05-.53c.47,0,.97.02,1.49.07.52.04,1.02.1,1.52.17.5.07.98.15,1.43.25.46.1.86.2,1.21.3v18.21h-3.92v-5.2c-.44.19-.89.34-1.37.45-.47.1-.98.16-1.52.16-1.96,0-3.46-.64-4.5-1.93s-1.55-3.04-1.55-5.24Zm4,.11c0,2.51.93,3.76,2.79,3.76.4,0,.8-.05,1.2-.16.39-.1.71-.24.96-.39v-7.07c-.19-.03-.44-.07-.74-.09-.3-.03-.62-.04-.97-.04-1.07,0-1.88.36-2.42,1.09-.54.73-.82,1.7-.82,2.9Z" style="fill: #a3ea2a; stroke-width: 0px;"/>
    <path d="m673.85,44.16c-.67.19-1.52.37-2.58.54-1.05.17-2.16.25-3.31.25s-2.15-.16-2.93-.47c-.78-.32-1.4-.76-1.85-1.33-.46-.57-.78-1.25-.97-2.04-.19-.79-.29-1.66-.29-2.6v-7.7h3.92v7.23c0,1.26.17,2.17.5,2.73.33.56.96.84,1.87.84.28,0,.58-.01.89-.04s.6-.06.84-.09v-10.67h3.92v13.35Z" style="fill: #a3ea2a; stroke-width: 0px;"/>
    <path d="m676.87,37.82c0-1.23.19-2.3.57-3.22s.87-1.69,1.49-2.3c.61-.61,1.32-1.08,2.12-1.39.8-.32,1.62-.47,2.46-.47,1.96,0,3.51.6,4.65,1.8,1.14,1.2,1.71,2.97,1.71,5.3,0,.23,0,.48-.03.75s-.04.51-.05.72h-8.88c.09.81.46,1.45,1.13,1.92.67.47,1.56.71,2.68.71.72,0,1.42-.07,2.12-.2.69-.13,1.26-.29,1.7-.49l.53,3.18c-.21.1-.49.21-.84.32-.35.1-.74.2-1.17.28-.43.08-.89.14-1.38.2-.49.05-.98.08-1.47.08-1.25,0-2.33-.18-3.25-.55-.92-.37-1.68-.87-2.29-1.51s-1.05-1.4-1.34-2.27-.43-1.82-.43-2.84Zm9.2-1.5c-.02-.33-.08-.66-.17-.97-.1-.32-.25-.6-.45-.84s-.46-.45-.76-.6c-.31-.16-.69-.24-1.14-.24s-.82.08-1.13.22c-.32.15-.58.35-.79.59s-.37.53-.49.85c-.11.33-.2.65-.25.99h5.18Z" style="fill: #a3ea2a; stroke-width: 0px;"/>
    <path d="m696.85,41.82c.72,0,1.23-.07,1.52-.21s.45-.41.45-.82c0-.32-.19-.59-.58-.83-.39-.24-.97-.5-1.76-.8-.61-.23-1.17-.46-1.67-.71-.5-.25-.92-.54-1.27-.88s-.62-.75-.81-1.22c-.19-.47-.29-1.04-.29-1.71,0-1.3.48-2.32,1.45-3.08.96-.75,2.29-1.13,3.97-1.13.84,0,1.65.07,2.42.22.77.15,1.38.31,1.84.49l-.68,3.05c-.46-.16-.95-.3-1.49-.42-.54-.12-1.13-.18-1.8-.18-1.23,0-1.84.34-1.84,1.02,0,.16.03.3.08.42.05.12.16.24.32.35.16.11.37.24.64.37s.62.28,1.04.44c.86.32,1.57.63,2.13.94.56.31,1,.64,1.33,1s.55.76.68,1.19c.13.44.2.94.2,1.52,0,1.36-.51,2.4-1.54,3.1s-2.48,1.05-4.35,1.05c-1.23,0-2.25-.11-3.06-.32-.82-.21-1.38-.39-1.7-.53l.66-3.18c.67.26,1.35.47,2.05.62.7.15,1.39.22,2.08.22Z" style="fill: #a3ea2a; stroke-width: 0px;"/>
    <path d="m705.49,27.36l3.92-.63v4.07h4.71v3.26h-4.71v4.86c0,.82.14,1.48.43,1.97.29.49.87.74,1.75.74.42,0,.85-.04,1.3-.12.45-.08.85-.19,1.22-.33l.55,3.05c-.47.19-1,.36-1.58.5-.58.14-1.29.21-2.13.21-1.07,0-1.95-.14-2.66-.43-.7-.29-1.26-.69-1.68-1.21s-.71-1.14-.88-1.88c-.17-.74-.25-1.55-.25-2.44v-11.62Z" style="fill: #a3ea2a; stroke-width: 0px;"/>
    <path d="m729.33,26.21c2.72,0,4.8.48,6.25,1.43,1.46.96,2.18,2.52,2.18,4.69s-.74,3.77-2.21,4.74c-1.47.97-3.58,1.46-6.31,1.46h-1.29v6.1h-4.1v-17.95c.89-.17,1.84-.3,2.84-.37,1-.07,1.88-.11,2.63-.11Zm.26,3.5c-.3,0-.59,0-.88.03s-.54.04-.75.05v5.26h1.29c1.42,0,2.49-.19,3.21-.58.72-.39,1.08-1.1,1.08-2.16,0-.51-.09-.93-.28-1.26-.18-.33-.45-.6-.79-.8s-.76-.34-1.25-.42c-.49-.08-1.03-.12-1.63-.12Z" style="fill: #a3ea2a; stroke-width: 0px;"/>
    <path d="m748.86,34.28c-.35-.09-.76-.18-1.24-.28-.47-.1-.98-.14-1.52-.14-.25,0-.54.02-.88.07-.34.04-.6.09-.78.14v10.57h-3.92v-13.09c.7-.25,1.53-.48,2.48-.7.95-.22,2.02-.33,3.19-.33.21,0,.46.01.76.04s.6.06.89.1c.3.04.6.1.89.16.3.06.55.14.76.22l-.66,3.23Z" style="fill: #a3ea2a; stroke-width: 0px;"/>
    <path d="m764.29,37.69c0,1.09-.16,2.08-.47,2.98-.32.9-.77,1.67-1.37,2.31s-1.31,1.13-2.14,1.49c-.83.35-1.77.53-2.8.53s-1.94-.18-2.77-.53c-.83-.35-1.55-.85-2.14-1.49s-1.06-1.41-1.39-2.31c-.33-.9-.5-1.9-.5-2.98s.17-2.08.51-2.97.81-1.66,1.42-2.29c.61-.63,1.32-1.12,2.16-1.47.83-.35,1.74-.53,2.72-.53s1.91.17,2.75.53c.83.35,1.55.84,2.14,1.47.59.63,1.06,1.39,1.39,2.29s.5,1.88.5,2.97Zm-4,0c0-1.21-.24-2.16-.72-2.85-.48-.69-1.17-1.04-2.06-1.04s-1.59.35-2.08,1.04c-.49.69-.74,1.64-.74,2.85s.25,2.17.74,2.88c.49.71,1.18,1.06,2.08,1.06s1.58-.36,2.06-1.06c.48-.71.72-1.67.72-2.88Z" style="fill: #a3ea2a; stroke-width: 0px;"/>
    <path d="m766.66,37.72c0-1,.16-1.94.49-2.83s.79-1.66,1.41-2.31,1.36-1.18,2.23-1.56c.88-.39,1.88-.58,3-.58.74,0,1.41.07,2.02.2.61.13,1.21.32,1.79.56l-.81,3.13c-.37-.14-.77-.26-1.21-.37-.44-.1-.93-.16-1.47-.16-1.16,0-2.02.36-2.59,1.08-.57.72-.85,1.67-.85,2.84,0,1.25.27,2.21.8,2.89s1.47,1.03,2.8,1.03c.47,0,.98-.04,1.52-.13.54-.09,1.04-.23,1.5-.42l.55,3.21c-.46.19-1.02.36-1.71.5-.68.14-1.44.21-2.26.21-1.26,0-2.35-.19-3.26-.57s-1.66-.89-2.25-1.54-1.02-1.42-1.29-2.3c-.27-.88-.41-1.84-.41-2.88Z" style="fill: #a3ea2a; stroke-width: 0px;"/>
    <path d="m779.14,37.82c0-1.23.19-2.3.57-3.22s.87-1.69,1.49-2.3c.61-.61,1.32-1.08,2.12-1.39.8-.32,1.62-.47,2.46-.47,1.96,0,3.51.6,4.65,1.8,1.14,1.2,1.71,2.97,1.71,5.3,0,.23,0,.48-.03.75s-.04.51-.05.72h-8.88c.09.81.46,1.45,1.13,1.92.67.47,1.56.71,2.68.71.72,0,1.42-.07,2.12-.2.69-.13,1.26-.29,1.7-.49l.53,3.18c-.21.1-.49.21-.84.32-.35.1-.74.2-1.17.28-.43.08-.89.14-1.38.2-.49.05-.98.08-1.47.08-1.25,0-2.33-.18-3.25-.55-.92-.37-1.68-.87-2.29-1.51s-1.05-1.4-1.34-2.27-.43-1.82-.43-2.84Zm9.2-1.5c-.02-.33-.08-.66-.17-.97-.1-.32-.25-.6-.45-.84s-.46-.45-.76-.6c-.31-.16-.69-.24-1.14-.24s-.82.08-1.13.22c-.32.15-.58.35-.79.59s-.37.53-.49.85c-.11.33-.2.65-.25.99h5.18Z" style="fill: #a3ea2a; stroke-width: 0px;"/>
    <path d="m799.12,41.82c.72,0,1.23-.07,1.52-.21s.45-.41.45-.82c0-.32-.19-.59-.58-.83-.39-.24-.97-.5-1.76-.8-.61-.23-1.17-.46-1.67-.71-.5-.25-.92-.54-1.27-.88s-.62-.75-.81-1.22c-.19-.47-.29-1.04-.29-1.71,0-1.3.48-2.32,1.45-3.08.96-.75,2.29-1.13,3.97-1.13.84,0,1.65.07,2.42.22.77.15,1.38.31,1.84.49l-.68,3.05c-.46-.16-.95-.3-1.49-.42-.54-.12-1.13-.18-1.8-.18-1.23,0-1.84.34-1.84,1.02,0,.16.03.3.08.42.05.12.16.24.32.35.16.11.37.24.64.37s.62.28,1.04.44c.86.32,1.57.63,2.13.94.56.31,1,.64,1.33,1s.55.76.68,1.19c.13.44.2.94.2,1.52,0,1.36-.51,2.4-1.54,3.1s-2.48,1.05-4.35,1.05c-1.23,0-2.25-.11-3.06-.32-.82-.21-1.38-.39-1.7-.53l.66-3.18c.67.26,1.35.47,2.05.62.7.15,1.39.22,2.08.22Z" style="fill: #a3ea2a; stroke-width: 0px;"/>
    <path d="m811.87,41.82c.72,0,1.23-.07,1.52-.21s.45-.41.45-.82c0-.32-.19-.59-.58-.83-.39-.24-.97-.5-1.76-.8-.61-.23-1.17-.46-1.67-.71-.5-.25-.92-.54-1.27-.88s-.62-.75-.81-1.22c-.19-.47-.29-1.04-.29-1.71,0-1.3.48-2.32,1.45-3.08.96-.75,2.29-1.13,3.97-1.13.84,0,1.65.07,2.42.22.77.15,1.38.31,1.84.49l-.68,3.05c-.46-.16-.95-.3-1.49-.42-.54-.12-1.13-.18-1.8-.18-1.23,0-1.84.34-1.84,1.02,0,.16.03.3.08.42.05.12.16.24.32.35.16.11.37.24.64.37s.62.28,1.04.44c.86.32,1.57.63,2.13.94.56.31,1,.64,1.33,1s.55.76.68,1.19c.13.44.2.94.2,1.52,0,1.36-.51,2.4-1.54,3.1s-2.48,1.05-4.35,1.05c-1.23,0-2.25-.11-3.06-.32-.82-.21-1.38-.39-1.7-.53l.66-3.18c.67.26,1.35.47,2.05.62.7.15,1.39.22,2.08.22Z" style="fill: #a3ea2a; stroke-width: 0px;"/>
    <path d="m824.93,26.81c0,.72-.23,1.28-.7,1.7-.46.41-1.01.62-1.64.62s-1.18-.21-1.64-.62c-.46-.41-.7-.98-.7-1.7s.23-1.28.7-1.7c.46-.41,1.01-.62,1.64-.62s1.18.21,1.64.62c.46.41.7.98.7,1.7Zm-.37,17.82h-3.92v-13.83h3.92v13.83Z" style="fill: #a3ea2a; stroke-width: 0px;"/>
    <path d="m828.24,31.28c.67-.19,1.52-.37,2.58-.54,1.05-.17,2.16-.25,3.31-.25s2.15.15,2.93.46,1.4.74,1.85,1.3c.46.56.78,1.23.97,2,.19.77.29,1.63.29,2.58v7.81h-3.92v-7.33c0-1.26-.17-2.16-.5-2.68-.33-.53-.96-.79-1.87-.79-.28,0-.58.01-.89.04s-.6.06-.84.09v10.67h-3.92v-13.35Z" style="fill: #a3ea2a; stroke-width: 0px;"/>
    <path d="m855.66,42.9c0,2.26-.57,3.94-1.72,5.03-1.15,1.09-2.92,1.64-5.32,1.64-.84,0-1.68-.07-2.52-.22-.84-.15-1.62-.35-2.34-.59l.68-3.29c.61.25,1.26.44,1.93.58.67.14,1.44.21,2.3.21,1.12,0,1.91-.25,2.38-.74.46-.49.7-1.12.7-1.89v-.5c-.42.19-.85.34-1.3.43-.45.1-.93.14-1.46.14-1.91,0-3.37-.57-4.39-1.7s-1.52-2.71-1.52-4.74c0-1.02.16-1.94.47-2.77.32-.83.78-1.55,1.38-2.14s1.34-1.06,2.22-1.38c.88-.32,1.87-.49,2.97-.49.47,0,.96.02,1.46.07.5.04.99.1,1.49.17.49.07.96.15,1.41.25.45.1.84.2,1.2.3v11.62Zm-8.6-5.62c0,2.19.88,3.29,2.66,3.29.4,0,.78-.05,1.13-.16.35-.11.65-.23.89-.37v-6.26c-.19-.04-.42-.07-.68-.09-.26-.03-.57-.04-.92-.04-1.03,0-1.8.34-2.31,1.03-.51.68-.76,1.55-.76,2.6Z" style="fill: #a3ea2a; stroke-width: 0px;"/>
  </g>
  <rect x="602.49" y="75.78" width="229.03" height="56.08" rx="7.48" ry="7.48" style="fill: #223654; stroke-width: 0px;"/>
  <g>
    <path d="m643.57,114.26c-1,0-1.99-.03-2.98-.09-.99-.06-2.02-.21-3.09-.43v-17.66c.84-.16,1.76-.28,2.76-.36,1-.08,1.93-.12,2.79-.12,1.16,0,2.22.08,3.19.25.97.17,1.81.45,2.51.85.7.4,1.25.93,1.64,1.59s.59,1.47.59,2.43c0,1.45-.7,2.6-2.1,3.44,1.16.44,1.94,1.03,2.37,1.79.42.75.63,1.6.63,2.55,0,1.91-.7,3.35-2.09,4.31-1.39.96-3.46,1.45-6.22,1.45Zm-2.08-11.3h2c1.26,0,2.16-.16,2.71-.49s.82-.85.82-1.56-.28-1.25-.84-1.55c-.56-.3-1.38-.45-2.47-.45-.35,0-.73,0-1.13.01-.4,0-.76.03-1.08.07v3.97Zm0,3.13v4.7c.3.04.62.06.97.08s.74.03,1.16.03c1.23,0,2.22-.17,2.97-.53.75-.35,1.13-1,1.13-1.95,0-.84-.32-1.44-.95-1.8-.63-.36-1.53-.54-2.71-.54h-2.58Z" style="fill: #a3ea2a; stroke-width: 0px;"/>
    <path d="m667.83,107.08c0,1.09-.16,2.08-.47,2.98-.32.9-.77,1.67-1.37,2.31s-1.31,1.13-2.14,1.49c-.83.35-1.77.53-2.8.53s-1.94-.18-2.77-.53c-.83-.35-1.55-.85-2.14-1.49s-1.06-1.41-1.39-2.31c-.33-.9-.5-1.9-.5-2.98s.17-2.08.51-2.97.81-1.66,1.42-2.29c.61-.63,1.32-1.12,2.16-1.47.83-.35,1.74-.53,2.72-.53s1.91.17,2.75.53c.83.35,1.55.84,2.14,1.47.59.63,1.06,1.39,1.39,2.29s.5,1.88.5,2.97Zm-4,0c0-1.21-.24-2.16-.72-2.85-.48-.69-1.17-1.04-2.06-1.04s-1.59.35-2.08,1.04c-.49.69-.74,1.64-.74,2.85s.25,2.17.74,2.88c.49.71,1.18,1.06,2.08,1.06s1.58-.36,2.06-1.06c.48-.71.72-1.67.72-2.88Z" style="fill: #a3ea2a; stroke-width: 0px;"/>
    <path d="m683.05,113.57c-.35.11-.75.21-1.21.3-.46.1-.93.18-1.43.25-.5.07-1.01.13-1.52.17-.52.04-1.01.07-1.49.07-1.14,0-2.16-.17-3.05-.5-.89-.33-1.65-.81-2.26-1.43s-1.08-1.38-1.41-2.26-.49-1.88-.49-2.98.14-2.13.42-3.04c.28-.9.68-1.67,1.21-2.3s1.17-1.11,1.93-1.45c.76-.33,1.63-.5,2.62-.5.54,0,1.03.05,1.46.16s.86.25,1.3.45v-6.26l3.92-.63v19.95Zm-8.86-6.57c0,1.21.27,2.18.82,2.92.54.74,1.35,1.1,2.42,1.1.35,0,.67-.01.97-.04.3-.03.54-.06.74-.09v-7.12c-.25-.16-.56-.29-.96-.39-.39-.1-.79-.16-1.2-.16-1.86,0-2.79,1.26-2.79,3.79Z" style="fill: #a3ea2a; stroke-width: 0px;"/>
    <path d="m698.61,100.2c-.79,2.66-1.62,5.16-2.48,7.49-.86,2.33-1.8,4.59-2.82,6.78-.37.79-.74,1.46-1.11,2.01-.37.55-.77,1.01-1.21,1.37s-.93.62-1.49.79c-.55.17-1.2.25-1.93.25-.62,0-1.18-.06-1.7-.17s-.94-.24-1.28-.38l.68-3.13c.4.14.76.24,1.08.29s.65.08,1,.08c.7,0,1.24-.19,1.62-.57s.7-.9.96-1.56c-.89-1.75-1.79-3.72-2.68-5.9-.89-2.18-1.74-4.63-2.52-7.35h4.15c.18.68.38,1.42.62,2.22.24.8.49,1.6.75,2.42.26.81.53,1.61.8,2.38.27.77.53,1.47.78,2.1.23-.63.47-1.33.71-2.1.25-.77.49-1.56.73-2.38.24-.81.47-1.62.69-2.42.22-.8.42-1.54.59-2.22h4.05Z" style="fill: #a3ea2a; stroke-width: 0px;"/>
    <path d="m712.72,95.59c2.72,0,4.8.48,6.25,1.43,1.46.96,2.18,2.52,2.18,4.69s-.74,3.77-2.21,4.74c-1.47.97-3.58,1.46-6.31,1.46h-1.29v6.1h-4.1v-17.95c.89-.17,1.84-.3,2.84-.37,1-.07,1.88-.11,2.63-.11Zm.26,3.5c-.3,0-.59,0-.88.03s-.54.04-.75.05v5.26h1.29c1.42,0,2.49-.19,3.21-.58.72-.39,1.08-1.1,1.08-2.16,0-.51-.09-.93-.28-1.26-.18-.33-.45-.6-.79-.8s-.76-.34-1.25-.42c-.49-.08-1.03-.12-1.63-.12Z" style="fill: #a3ea2a; stroke-width: 0px;"/>
    <path d="m728.36,99.83c1.16,0,2.12.13,2.89.39.77.26,1.39.64,1.85,1.13.46.49.79,1.09.99,1.79.19.7.29,1.48.29,2.34v8.15c-.56.12-1.34.27-2.34.43-1,.17-2.21.25-3.63.25-.89,0-1.7-.08-2.43-.24-.73-.16-1.35-.42-1.88-.78-.53-.36-.93-.83-1.21-1.41-.28-.58-.42-1.29-.42-2.13s.16-1.49.49-2.05c.32-.56.76-1.01,1.3-1.34s1.17-.57,1.87-.72c.7-.15,1.43-.22,2.18-.22.51,0,.96.02,1.35.07.39.04.71.1.96.17v-.37c0-.67-.2-1.2-.6-1.6-.4-.4-1.1-.6-2.1-.6-.67,0-1.32.05-1.97.14-.65.1-1.21.23-1.68.41l-.5-3.15c.23-.07.51-.14.85-.22s.71-.15,1.12-.21c.4-.06.83-.11,1.27-.16.45-.04.9-.07,1.35-.07Zm.32,11.46c.39,0,.75,0,1.1-.03.35-.02.63-.04.84-.08v-2.97c-.16-.04-.39-.07-.71-.11s-.6-.05-.87-.05c-.37,0-.71.02-1.04.07-.33.04-.61.13-.85.25-.25.12-.44.29-.58.5-.14.21-.21.47-.21.79,0,.61.21,1.04.62,1.27.41.24.98.36,1.7.36Z" style="fill: #a3ea2a; stroke-width: 0px;"/>
    <path d="m746.26,103.66c-.35-.09-.76-.18-1.24-.28-.47-.1-.98-.14-1.52-.14-.25,0-.54.02-.88.07-.34.04-.6.09-.78.14v10.57h-3.92v-13.09c.7-.25,1.53-.48,2.48-.7.95-.22,2.02-.33,3.19-.33.21,0,.46.01.76.04s.6.06.89.1c.3.04.6.1.89.16.3.06.55.14.76.22l-.66,3.23Z" style="fill: #a3ea2a; stroke-width: 0px;"/>
    <path d="m752.99,111.21c.72,0,1.23-.07,1.52-.21s.45-.41.45-.82c0-.32-.19-.59-.58-.83-.39-.24-.97-.5-1.76-.8-.61-.23-1.17-.46-1.67-.71-.5-.25-.92-.54-1.27-.88s-.62-.75-.81-1.22c-.19-.47-.29-1.04-.29-1.71,0-1.3.48-2.32,1.45-3.08.96-.75,2.29-1.13,3.97-1.13.84,0,1.65.07,2.42.22.77.15,1.38.31,1.84.49l-.68,3.05c-.46-.16-.95-.3-1.49-.42-.54-.12-1.13-.18-1.8-.18-1.23,0-1.84.34-1.84,1.02,0,.16.03.3.08.42.05.12.16.24.32.35.16.11.37.24.64.37s.62.28,1.04.44c.86.32,1.57.63,2.13.94.56.31,1,.64,1.33,1s.55.76.68,1.19c.13.44.2.94.2,1.52,0,1.36-.51,2.4-1.54,3.1s-2.48,1.05-4.35,1.05c-1.23,0-2.25-.11-3.06-.32-.82-.21-1.38-.39-1.7-.53l.66-3.18c.67.26,1.35.47,2.05.62.7.15,1.39.22,2.08.22Z" style="fill: #a3ea2a; stroke-width: 0px;"/>
    <path d="m766.05,96.2c0,.72-.23,1.28-.7,1.7-.46.41-1.01.62-1.64.62s-1.18-.21-1.64-.62c-.46-.41-.7-.98-.7-1.7s.23-1.28.7-1.7c.46-.41,1.01-.62,1.64-.62s1.18.21,1.64.62c.46.41.7.98.7,1.7Zm-.37,17.82h-3.92v-13.83h3.92v13.83Z" style="fill: #a3ea2a; stroke-width: 0px;"/>
    <path d="m769.36,100.67c.67-.19,1.52-.37,2.58-.54,1.05-.17,2.16-.25,3.31-.25s2.15.15,2.93.46,1.4.74,1.85,1.3c.46.56.78,1.23.97,2,.19.77.29,1.63.29,2.58v7.81h-3.92v-7.33c0-1.26-.17-2.16-.5-2.68-.33-.53-.96-.79-1.87-.79-.28,0-.58.01-.89.04s-.6.06-.84.09v10.67h-3.92v-13.35Z" style="fill: #a3ea2a; stroke-width: 0px;"/>
    <path d="m796.78,112.29c0,2.26-.57,3.94-1.72,5.03-1.15,1.09-2.92,1.64-5.32,1.64-.84,0-1.68-.07-2.52-.22-.84-.15-1.62-.35-2.34-.59l.68-3.29c.61.25,1.26.44,1.93.58.67.14,1.44.21,2.3.21,1.12,0,1.91-.25,2.38-.74.46-.49.7-1.12.7-1.89v-.5c-.42.19-.85.34-1.3.43-.45.1-.93.14-1.46.14-1.91,0-3.37-.57-4.39-1.7s-1.52-2.71-1.52-4.74c0-1.02.16-1.94.47-2.77.32-.83.78-1.55,1.38-2.14s1.34-1.06,2.22-1.38c.88-.32,1.87-.49,2.97-.49.47,0,.96.02,1.46.07.5.04.99.1,1.49.17.49.07.96.15,1.41.25.45.1.84.2,1.2.3v11.62Zm-8.6-5.62c0,2.19.88,3.29,2.66,3.29.4,0,.78-.05,1.13-.16.35-.11.65-.23.89-.37v-6.26c-.19-.04-.42-.07-.68-.09-.26-.03-.57-.04-.92-.04-1.03,0-1.8.34-2.31,1.03-.51.68-.76,1.55-.76,2.6Z" style="fill: #a3ea2a; stroke-width: 0px;"/>
  </g>
  <rect x="602.49" y="184.41" width="311.42" height="56.08" rx="7.48" ry="7.48" style="fill: #223654; stroke-width: 0px;"/>
  <g>
    <path d="m623.02,223.02c-2.96,0-5.22-.82-6.77-2.47s-2.33-3.99-2.33-7.02c0-1.51.24-2.85.71-4.03.47-1.18,1.12-2.18,1.95-3,.82-.82,1.8-1.43,2.94-1.85,1.14-.42,2.37-.63,3.71-.63.77,0,1.47.06,2.1.17s1.18.25,1.66.39c.47.15.87.3,1.18.46.32.16.54.28.68.37l-1.18,3.31c-.56-.3-1.21-.55-1.96-.76-.75-.21-1.59-.32-2.54-.32-.63,0-1.25.11-1.85.32-.6.21-1.14.55-1.6,1.01-.46.46-.84,1.06-1.12,1.8-.28.74-.42,1.63-.42,2.68,0,.84.09,1.62.28,2.35.18.73.48,1.35.89,1.88.41.53.95.94,1.62,1.25.67.31,1.47.46,2.42.46.6,0,1.13-.03,1.6-.1.47-.07.89-.15,1.26-.25.37-.1.69-.21.97-.33.28-.12.53-.24.76-.34l1.13,3.29c-.58.35-1.39.67-2.44.95-1.05.28-2.27.42-3.65.42Z" style="fill: #a3ea2a; stroke-width: 0px;"/>
    <path d="m636.72,208.46c1.16,0,2.12.13,2.89.39.77.26,1.39.64,1.85,1.13.46.49.79,1.09.99,1.79.19.7.29,1.48.29,2.34v8.15c-.56.12-1.34.27-2.34.43-1,.17-2.21.25-3.63.25-.89,0-1.7-.08-2.43-.24-.73-.16-1.35-.42-1.88-.78-.53-.36-.93-.83-1.21-1.41-.28-.58-.42-1.29-.42-2.13s.16-1.49.49-2.05c.32-.56.76-1.01,1.3-1.34s1.17-.57,1.87-.72c.7-.15,1.43-.22,2.18-.22.51,0,.96.02,1.35.07.39.04.71.1.96.17v-.37c0-.67-.2-1.2-.6-1.6-.4-.4-1.1-.6-2.1-.6-.67,0-1.32.05-1.97.14-.65.1-1.21.23-1.68.41l-.5-3.15c.23-.07.51-.14.85-.22s.71-.15,1.12-.21c.4-.06.83-.11,1.27-.16.45-.04.9-.07,1.35-.07Zm.32,11.46c.39,0,.75,0,1.1-.03.35-.02.63-.04.84-.08v-2.97c-.16-.04-.39-.07-.71-.11s-.6-.05-.87-.05c-.37,0-.71.02-1.04.07-.33.04-.61.13-.85.25-.25.12-.44.29-.58.5-.14.21-.21.47-.21.79,0,.61.21,1.04.62,1.27.41.24.98.36,1.7.36Z" style="fill: #a3ea2a; stroke-width: 0px;"/>
    <path d="m645.63,215.74c0-1,.16-1.94.49-2.83s.79-1.66,1.41-2.31,1.36-1.18,2.23-1.56c.88-.39,1.88-.58,3-.58.74,0,1.41.07,2.02.2.61.13,1.21.32,1.79.56l-.81,3.13c-.37-.14-.77-.26-1.21-.37-.44-.1-.93-.16-1.47-.16-1.16,0-2.02.36-2.59,1.08-.57.72-.85,1.67-.85,2.84,0,1.25.27,2.21.8,2.89s1.47,1.03,2.8,1.03c.47,0,.98-.04,1.52-.13.54-.09,1.04-.23,1.5-.42l.55,3.21c-.46.19-1.02.36-1.71.5-.68.14-1.44.21-2.26.21-1.26,0-2.35-.19-3.26-.57s-1.66-.89-2.25-1.54-1.02-1.42-1.29-2.3c-.27-.88-.41-1.84-.41-2.88Z" style="fill: #a3ea2a; stroke-width: 0px;"/>
    <path d="m659.43,222.65v-19.77l3.92-.63v6.62c.26-.09.6-.17,1.01-.25.41-.08.81-.12,1.2-.12,1.12,0,2.05.15,2.8.46.74.31,1.34.74,1.79,1.3.45.56.76,1.23.95,2,.18.77.28,1.63.28,2.58v7.81h-3.92v-7.33c0-1.26-.16-2.16-.49-2.68-.32-.53-.92-.79-1.8-.79-.35,0-.68.03-.99.09s-.58.13-.83.2v10.51h-3.92Z" style="fill: #a3ea2a; stroke-width: 0px;"/>
    <path d="m679.19,204.83c0,.72-.23,1.28-.7,1.7-.46.41-1.01.62-1.64.62s-1.18-.21-1.64-.62c-.46-.41-.7-.98-.7-1.7s.23-1.28.7-1.7c.46-.41,1.01-.62,1.64-.62s1.18.21,1.64.62c.46.41.7.98.7,1.7Zm-.37,17.82h-3.92v-13.83h3.92v13.83Z" style="fill: #a3ea2a; stroke-width: 0px;"/>
    <path d="m682.51,209.3c.67-.19,1.52-.37,2.58-.54,1.05-.17,2.16-.25,3.31-.25s2.15.15,2.93.46,1.4.74,1.85,1.3c.46.56.78,1.23.97,2,.19.77.29,1.63.29,2.58v7.81h-3.92v-7.33c0-1.26-.17-2.16-.5-2.68-.33-.53-.96-.79-1.87-.79-.28,0-.58.01-.89.04s-.6.06-.84.09v10.67h-3.92v-13.35Z" style="fill: #a3ea2a; stroke-width: 0px;"/>
    <path d="m709.92,220.92c0,2.26-.57,3.94-1.72,5.03-1.15,1.09-2.92,1.64-5.32,1.64-.84,0-1.68-.07-2.52-.22-.84-.15-1.62-.35-2.34-.59l.68-3.29c.61.25,1.26.44,1.93.58.67.14,1.44.21,2.3.21,1.12,0,1.91-.25,2.38-.74.46-.49.7-1.12.7-1.89v-.5c-.42.19-.85.34-1.3.43-.45.1-.93.14-1.46.14-1.91,0-3.37-.57-4.39-1.7s-1.52-2.71-1.52-4.74c0-1.02.16-1.94.47-2.77.32-.83.78-1.55,1.38-2.14s1.34-1.06,2.22-1.38c.88-.32,1.87-.49,2.97-.49.47,0,.96.02,1.46.07.5.04.99.1,1.49.17.49.07.96.15,1.41.25.45.1.84.2,1.2.3v11.62Zm-8.6-5.62c0,2.19.88,3.29,2.66,3.29.4,0,.78-.05,1.13-.16.35-.11.65-.23.89-.37v-6.26c-.19-.04-.42-.07-.68-.09-.26-.03-.57-.04-.92-.04-1.03,0-1.8.34-2.31,1.03-.51.68-.76,1.55-.76,2.6Z" style="fill: #a3ea2a; stroke-width: 0px;"/>
    <path d="m718.99,217.82c0-.67.1-1.27.29-1.83s.45-1.05.77-1.5.7-.84,1.13-1.18c.43-.34.88-.64,1.35-.91-.41-.51-.79-1.06-1.12-1.65s-.5-1.23-.5-1.93c0-1.54.46-2.73,1.39-3.56.93-.83,2.21-1.25,3.84-1.25.82,0,1.54.11,2.16.33.61.22,1.13.52,1.54.89.41.38.72.82.93,1.31.21.5.32,1.04.32,1.62,0,1.07-.3,2.02-.91,2.85-.61.83-1.37,1.53-2.3,2.09l2.96,2.93c.16-.35.31-.79.45-1.32s.24-1,.27-1.4l3.26.42c-.04.33-.1.7-.18,1.09s-.2.79-.33,1.2-.28.81-.45,1.21c-.17.4-.35.77-.54,1.1.56.63,1.11,1.32,1.64,2.06s1,1.49,1.38,2.25h-4.01c-.15-.23-.34-.52-.59-.86s-.49-.64-.73-.88c-.7.56-1.52,1.03-2.45,1.41-.93.38-1.97.57-3.13.57-1.23,0-2.25-.15-3.08-.46-.82-.31-1.49-.7-1.99-1.18-.5-.48-.86-1.02-1.07-1.63-.21-.6-.32-1.2-.32-1.8Zm3.65-.39c0,.26.05.53.16.81s.28.54.51.77c.24.24.54.43.91.58s.82.22,1.34.22c.74,0,1.38-.1,1.94-.29.55-.2,1.01-.45,1.38-.77l-4.23-4.21c-.24.12-.48.27-.72.45-.23.17-.45.38-.64.62-.19.24-.35.5-.47.8-.12.3-.18.64-.18,1.02Zm5.1-9.07c0-.4-.13-.76-.39-1.08-.26-.32-.7-.47-1.31-.47-.56,0-.99.17-1.3.51s-.46.78-.46,1.33c0,.46.13.9.39,1.33.26.43.6.84,1.02,1.23.56-.32,1.05-.69,1.45-1.13.41-.44.61-1.01.61-1.71Z" style="fill: #a3ea2a; stroke-width: 0px;"/>
    <path d="m753.31,223.02c-2.96,0-5.22-.82-6.77-2.47s-2.33-3.99-2.33-7.02c0-1.51.24-2.85.71-4.03.47-1.18,1.12-2.18,1.95-3,.82-.82,1.8-1.43,2.94-1.85,1.14-.42,2.37-.63,3.71-.63.77,0,1.47.06,2.1.17s1.18.25,1.66.39c.47.15.87.3,1.18.46.32.16.54.28.68.37l-1.18,3.31c-.56-.3-1.21-.55-1.96-.76-.75-.21-1.59-.32-2.54-.32-.63,0-1.25.11-1.85.32-.6.21-1.14.55-1.6,1.01-.46.46-.84,1.06-1.12,1.8-.28.74-.42,1.63-.42,2.68,0,.84.09,1.62.28,2.35.18.73.48,1.35.89,1.88.41.53.95.94,1.62,1.25.67.31,1.47.46,2.42.46.6,0,1.13-.03,1.6-.1.47-.07.89-.15,1.26-.25.37-.1.69-.21.97-.33.28-.12.53-.24.76-.34l1.13,3.29c-.58.35-1.39.67-2.44.95-1.05.28-2.27.42-3.65.42Z" style="fill: #a3ea2a; stroke-width: 0px;"/>
    <path d="m774.39,215.71c0,1.09-.16,2.08-.47,2.98-.32.9-.77,1.67-1.37,2.31s-1.31,1.13-2.14,1.49c-.83.35-1.77.53-2.8.53s-1.94-.18-2.77-.53c-.83-.35-1.55-.85-2.14-1.49s-1.06-1.41-1.39-2.31c-.33-.9-.5-1.9-.5-2.98s.17-2.08.51-2.97.81-1.66,1.42-2.29c.61-.63,1.32-1.12,2.16-1.47.83-.35,1.74-.53,2.72-.53s1.91.17,2.75.53c.83.35,1.55.84,2.14,1.47.59.63,1.06,1.39,1.39,2.29s.5,1.88.5,2.97Zm-4,0c0-1.21-.24-2.16-.72-2.85-.48-.69-1.17-1.04-2.06-1.04s-1.59.35-2.08,1.04c-.49.69-.74,1.64-.74,2.85s.25,2.17.74,2.88c.49.71,1.18,1.06,2.08,1.06s1.58-.36,2.06-1.06c.48-.71.72-1.67.72-2.88Z" style="fill: #a3ea2a; stroke-width: 0px;"/>
    <path d="m785.01,215.32c0-1.26-.16-2.16-.49-2.68-.33-.53-.88-.79-1.67-.79-.25,0-.5.01-.76.04s-.52.06-.76.09v10.67h-3.92v-13.35c.33-.09.72-.18,1.17-.28.45-.1.92-.18,1.42-.26.5-.08,1.01-.14,1.54-.18.53-.04,1.04-.07,1.55-.07,1,0,1.81.13,2.43.38s1.13.56,1.54.91c.56-.4,1.2-.72,1.93-.95.73-.23,1.4-.34,2.01-.34,1.1,0,2.01.15,2.72.46s1.27.74,1.7,1.3.71,1.23.87,2c.16.77.24,1.63.24,2.58v7.81h-3.92v-7.33c0-1.26-.16-2.16-.49-2.68-.32-.53-.88-.79-1.67-.79-.21,0-.5.05-.88.16-.38.11-.69.24-.93.39.12.4.2.83.24,1.27.04.45.05.92.05,1.43v7.54h-3.92v-7.33Z" style="fill: #a3ea2a; stroke-width: 0px;"/>
    <path d="m812.93,215.74c0,1.07-.13,2.04-.39,2.92s-.65,1.63-1.16,2.26c-.51.63-1.14,1.12-1.89,1.47-.75.35-1.62.53-2.6.53-.54,0-1.05-.05-1.52-.16-.47-.11-.93-.25-1.37-.45v5.2h-3.92v-18.21c.35-.11.75-.21,1.21-.3.46-.1.93-.18,1.43-.25s1.01-.13,1.52-.17,1.01-.07,1.49-.07c1.14,0,2.16.17,3.05.51s1.65.82,2.26,1.45c.61.62,1.08,1.38,1.41,2.27s.49,1.89.49,3Zm-4,.11c0-1.21-.27-2.18-.82-2.9s-1.35-1.09-2.42-1.09c-.35,0-.67.01-.97.04s-.54.06-.74.09v7.07c.25.16.57.29.96.39.39.11.79.16,1.2.16,1.86,0,2.79-1.25,2.79-3.76Z" style="fill: #a3ea2a; stroke-width: 0px;"/>
    <path d="m824.28,212.3c-.35-.09-.76-.18-1.24-.28-.47-.1-.98-.14-1.52-.14-.25,0-.54.02-.88.07-.34.04-.6.09-.78.14v10.57h-3.92v-13.09c.7-.25,1.53-.48,2.48-.7.95-.22,2.02-.33,3.19-.33.21,0,.46.01.76.04s.6.06.89.1c.3.04.6.1.89.16.3.06.55.14.76.22l-.66,3.23Z" style="fill: #a3ea2a; stroke-width: 0px;"/>
    <path d="m826.12,215.85c0-1.23.19-2.3.57-3.22s.87-1.69,1.49-2.3c.61-.61,1.32-1.08,2.12-1.39.8-.32,1.62-.47,2.46-.47,1.96,0,3.51.6,4.65,1.8,1.14,1.2,1.71,2.97,1.71,5.3,0,.23,0,.48-.03.75s-.04.51-.05.72h-8.88c.09.81.46,1.45,1.13,1.92.67.47,1.56.71,2.68.71.72,0,1.42-.07,2.12-.2.69-.13,1.26-.29,1.7-.49l.53,3.18c-.21.1-.49.21-.84.32-.35.1-.74.2-1.17.28-.43.08-.89.14-1.38.2-.49.05-.98.08-1.47.08-1.25,0-2.33-.18-3.25-.55-.92-.37-1.68-.87-2.29-1.51s-1.05-1.4-1.34-2.27-.43-1.82-.43-2.84Zm9.2-1.5c-.02-.33-.08-.66-.17-.97-.1-.32-.25-.6-.45-.84s-.46-.45-.76-.6c-.31-.16-.69-.24-1.14-.24s-.82.08-1.13.22c-.32.15-.58.35-.79.59s-.37.53-.49.85c-.11.33-.2.65-.25.99h5.18Z" style="fill: #a3ea2a; stroke-width: 0px;"/>
    <path d="m846.1,219.84c.72,0,1.23-.07,1.52-.21s.45-.41.45-.82c0-.32-.19-.59-.58-.83-.39-.24-.97-.5-1.76-.8-.61-.23-1.17-.46-1.67-.71-.5-.25-.92-.54-1.27-.88s-.62-.75-.81-1.22c-.19-.47-.29-1.04-.29-1.71,0-1.3.48-2.32,1.45-3.08.96-.75,2.29-1.13,3.97-1.13.84,0,1.65.07,2.42.22.77.15,1.38.31,1.84.49l-.68,3.05c-.46-.16-.95-.3-1.49-.42-.54-.12-1.13-.18-1.8-.18-1.23,0-1.84.34-1.84,1.02,0,.16.03.3.08.42.05.12.16.24.32.35.16.11.37.24.64.37s.62.28,1.04.44c.86.32,1.57.63,2.13.94.56.31,1,.64,1.33,1s.55.76.68,1.19c.13.44.2.94.2,1.52,0,1.36-.51,2.4-1.54,3.1s-2.48,1.05-4.35,1.05c-1.23,0-2.25-.11-3.06-.32-.82-.21-1.38-.39-1.7-.53l.66-3.18c.67.26,1.35.47,2.05.62.7.15,1.39.22,2.08.22Z" style="fill: #a3ea2a; stroke-width: 0px;"/>
    <path d="m858.85,219.84c.72,0,1.23-.07,1.52-.21s.45-.41.45-.82c0-.32-.19-.59-.58-.83-.39-.24-.97-.5-1.76-.8-.61-.23-1.17-.46-1.67-.71-.5-.25-.92-.54-1.27-.88s-.62-.75-.81-1.22c-.19-.47-.29-1.04-.29-1.71,0-1.3.48-2.32,1.45-3.08.96-.75,2.29-1.13,3.97-1.13.84,0,1.65.07,2.42.22.77.15,1.38.31,1.84.49l-.68,3.05c-.46-.16-.95-.3-1.49-.42-.54-.12-1.13-.18-1.8-.18-1.23,0-1.84.34-1.84,1.02,0,.16.03.3.08.42.05.12.16.24.32.35.16.11.37.24.64.37s.62.28,1.04.44c.86.32,1.57.63,2.13.94.56.31,1,.64,1.33,1s.55.76.68,1.19c.13.44.2.94.2,1.52,0,1.36-.51,2.4-1.54,3.1s-2.48,1.05-4.35,1.05c-1.23,0-2.25-.11-3.06-.32-.82-.21-1.38-.39-1.7-.53l.66-3.18c.67.26,1.35.47,2.05.62.7.15,1.39.22,2.08.22Z" style="fill: #a3ea2a; stroke-width: 0px;"/>
    <path d="m871.91,204.83c0,.72-.23,1.28-.7,1.7-.46.41-1.01.62-1.64.62s-1.18-.21-1.64-.62c-.46-.41-.7-.98-.7-1.7s.23-1.28.7-1.7c.46-.41,1.01-.62,1.64-.62s1.18.21,1.64.62c.46.41.7.98.7,1.7Zm-.37,17.82h-3.92v-13.83h3.92v13.83Z" style="fill: #a3ea2a; stroke-width: 0px;"/>
    <path d="m888.15,215.71c0,1.09-.16,2.08-.47,2.98-.32.9-.77,1.67-1.37,2.31s-1.31,1.13-2.14,1.49c-.83.35-1.77.53-2.8.53s-1.94-.18-2.77-.53c-.83-.35-1.55-.85-2.14-1.49s-1.06-1.41-1.39-2.31c-.33-.9-.5-1.9-.5-2.98s.17-2.08.51-2.97.81-1.66,1.42-2.29c.61-.63,1.32-1.12,2.16-1.47.83-.35,1.74-.53,2.72-.53s1.91.17,2.75.53c.83.35,1.55.84,2.14,1.47.59.63,1.06,1.39,1.39,2.29s.5,1.88.5,2.97Zm-4,0c0-1.21-.24-2.16-.72-2.85-.48-.69-1.17-1.04-2.06-1.04s-1.59.35-2.08,1.04c-.49.69-.74,1.64-.74,2.85s.25,2.17.74,2.88c.49.71,1.18,1.06,2.08,1.06s1.58-.36,2.06-1.06c.48-.71.72-1.67.72-2.88Z" style="fill: #a3ea2a; stroke-width: 0px;"/>
    <path d="m891.18,209.3c.67-.19,1.52-.37,2.58-.54,1.05-.17,2.16-.25,3.31-.25s2.15.15,2.93.46,1.4.74,1.85,1.3c.46.56.78,1.23.97,2,.19.77.29,1.63.29,2.58v7.81h-3.92v-7.33c0-1.26-.17-2.16-.5-2.68-.33-.53-.96-.79-1.87-.79-.28,0-.58.01-.89.04s-.6.06-.84.09v10.67h-3.92v-13.35Z" style="fill: #a3ea2a; stroke-width: 0px;"/>
  </g>
  <rect x="602.49" y="253.8" width="386.43" height="56.08" rx="7.48" ry="7.48" style="fill: #223654; stroke-width: 0px;"/>
  <g>
    <path d="m625.98,292.04c-.2-.63-.42-1.28-.65-1.95s-.47-1.33-.7-1.99h-7.11c-.23.66-.46,1.33-.69,2-.23.67-.45,1.32-.65,1.94h-4.26c.69-1.96,1.34-3.78,1.95-5.44.62-1.67,1.22-3.23,1.81-4.71.59-1.47,1.17-2.87,1.74-4.19s1.17-2.62,1.78-3.88h3.89c.6,1.26,1.19,2.55,1.77,3.88s1.17,2.72,1.76,4.19c.59,1.47,1.19,3.04,1.81,4.71.62,1.66,1.27,3.48,1.95,5.44h-4.39Zm-4.93-14.09c-.09.26-.23.62-.4,1.08s-.38.98-.6,1.58c-.23.6-.48,1.25-.75,1.97s-.56,1.47-.85,2.26h5.21c-.28-.79-.55-1.54-.81-2.26-.26-.72-.51-1.38-.74-1.98-.24-.6-.44-1.12-.62-1.58s-.32-.81-.43-1.07Z" style="fill: #a3ea2a; stroke-width: 0px;"/>
    <path d="m644.25,291.57c-.67.19-1.52.37-2.58.54-1.05.17-2.16.25-3.31.25s-2.15-.16-2.93-.47c-.78-.32-1.4-.76-1.85-1.33-.46-.57-.78-1.25-.97-2.04-.19-.79-.29-1.66-.29-2.6v-7.7h3.92v7.23c0,1.26.17,2.17.5,2.73.33.56.96.84,1.87.84.28,0,.58-.01.89-.04s.6-.06.84-.09v-10.67h3.92v13.35Z" style="fill: #a3ea2a; stroke-width: 0px;"/>
    <path d="m647.8,274.77l3.92-.63v4.07h4.71v3.26h-4.71v4.86c0,.82.14,1.48.43,1.97.29.49.87.74,1.75.74.42,0,.85-.04,1.3-.12.45-.08.85-.19,1.22-.33l.55,3.05c-.47.19-1,.36-1.58.5-.58.14-1.29.21-2.13.21-1.07,0-1.95-.14-2.66-.43-.7-.29-1.26-.69-1.68-1.21s-.71-1.14-.88-1.88c-.17-.74-.25-1.55-.25-2.44v-11.62Z" style="fill: #a3ea2a; stroke-width: 0px;"/>
    <path d="m659.6,292.04v-19.77l3.92-.63v6.62c.26-.09.6-.17,1.01-.25.41-.08.81-.12,1.2-.12,1.12,0,2.05.15,2.8.46.74.31,1.34.74,1.79,1.3.45.56.76,1.23.95,2,.18.77.28,1.63.28,2.58v7.81h-3.92v-7.33c0-1.26-.16-2.16-.49-2.68-.32-.53-.92-.79-1.8-.79-.35,0-.68.03-.99.09s-.58.13-.83.2v10.51h-3.92Z" style="fill: #a3ea2a; stroke-width: 0px;"/>
    <path d="m674.42,285.23c0-1.23.19-2.3.57-3.22s.87-1.69,1.49-2.3c.61-.61,1.32-1.08,2.12-1.39.8-.32,1.62-.47,2.46-.47,1.96,0,3.51.6,4.65,1.8,1.14,1.2,1.71,2.97,1.71,5.3,0,.23,0,.48-.03.75s-.04.51-.05.72h-8.88c.09.81.46,1.45,1.13,1.92.67.47,1.56.71,2.68.71.72,0,1.42-.07,2.12-.2.69-.13,1.26-.29,1.7-.49l.53,3.18c-.21.1-.49.21-.84.32-.35.1-.74.2-1.17.28-.43.08-.89.14-1.38.2-.49.05-.98.08-1.47.08-1.25,0-2.33-.18-3.25-.55-.92-.37-1.68-.87-2.29-1.51s-1.05-1.4-1.34-2.27-.43-1.82-.43-2.84Zm9.2-1.5c-.02-.33-.08-.66-.17-.97-.1-.32-.25-.6-.45-.84s-.46-.45-.76-.6c-.31-.16-.69-.24-1.14-.24s-.82.08-1.13.22c-.32.15-.58.35-.79.59s-.37.53-.49.85c-.11.33-.2.65-.25.99h5.18Z" style="fill: #a3ea2a; stroke-width: 0px;"/>
    <path d="m690.43,278.69c.67-.19,1.52-.37,2.58-.54,1.05-.17,2.16-.25,3.31-.25s2.15.15,2.93.46,1.4.74,1.85,1.3c.46.56.78,1.23.97,2,.19.77.29,1.63.29,2.58v7.81h-3.92v-7.33c0-1.26-.17-2.16-.5-2.68-.33-.53-.96-.79-1.87-.79-.28,0-.58.01-.89.04s-.6.06-.84.09v10.67h-3.92v-13.35Z" style="fill: #a3ea2a; stroke-width: 0px;"/>
    <path d="m705.78,274.77l3.92-.63v4.07h4.71v3.26h-4.71v4.86c0,.82.14,1.48.43,1.97.29.49.87.74,1.75.74.42,0,.85-.04,1.3-.12.45-.08.85-.19,1.22-.33l.55,3.05c-.47.19-1,.36-1.58.5-.58.14-1.29.21-2.13.21-1.07,0-1.95-.14-2.66-.43-.7-.29-1.26-.69-1.68-1.21s-.71-1.14-.88-1.88c-.17-.74-.25-1.55-.25-2.44v-11.62Z" style="fill: #a3ea2a; stroke-width: 0px;"/>
    <path d="m721.87,274.22c0,.72-.23,1.28-.7,1.7-.46.41-1.01.62-1.64.62s-1.18-.21-1.64-.62c-.46-.41-.7-.98-.7-1.7s.23-1.28.7-1.7c.46-.41,1.01-.62,1.64-.62s1.18.21,1.64.62c.46.41.7.98.7,1.7Zm-.37,17.82h-3.92v-13.83h3.92v13.83Z" style="fill: #a3ea2a; stroke-width: 0px;"/>
    <path d="m724.52,285.13c0-1,.16-1.94.49-2.83s.79-1.66,1.41-2.31,1.36-1.18,2.23-1.56c.88-.39,1.88-.58,3-.58.74,0,1.41.07,2.02.2.61.13,1.21.32,1.79.56l-.81,3.13c-.37-.14-.77-.26-1.21-.37-.44-.1-.93-.16-1.47-.16-1.16,0-2.02.36-2.59,1.08-.57.72-.85,1.67-.85,2.84,0,1.25.27,2.21.8,2.89s1.47,1.03,2.8,1.03c.47,0,.98-.04,1.52-.13.54-.09,1.04-.23,1.5-.42l.55,3.21c-.46.19-1.02.36-1.71.5-.68.14-1.44.21-2.26.21-1.26,0-2.35-.19-3.26-.57s-1.66-.89-2.25-1.54-1.02-1.42-1.29-2.3c-.27-.88-.41-1.84-.41-2.88Z" style="fill: #a3ea2a; stroke-width: 0px;"/>
    <path d="m742.63,277.85c1.16,0,2.12.13,2.89.39.77.26,1.39.64,1.85,1.13.46.49.79,1.09.99,1.79.19.7.29,1.48.29,2.34v8.15c-.56.12-1.34.27-2.34.43-1,.17-2.21.25-3.63.25-.89,0-1.7-.08-2.43-.24-.73-.16-1.35-.42-1.88-.78-.53-.36-.93-.83-1.21-1.41-.28-.58-.42-1.29-.42-2.13s.16-1.49.49-2.05c.32-.56.76-1.01,1.3-1.34s1.17-.57,1.87-.72c.7-.15,1.43-.22,2.18-.22.51,0,.96.02,1.35.07.39.04.71.1.96.17v-.37c0-.67-.2-1.2-.6-1.6-.4-.4-1.1-.6-2.1-.6-.67,0-1.32.05-1.97.14-.65.1-1.21.23-1.68.41l-.5-3.15c.23-.07.51-.14.85-.22s.71-.15,1.12-.21c.4-.06.83-.11,1.27-.16.45-.04.9-.07,1.35-.07Zm.32,11.46c.39,0,.75,0,1.1-.03.35-.02.63-.04.84-.08v-2.97c-.16-.04-.39-.07-.71-.11s-.6-.05-.87-.05c-.37,0-.71.02-1.04.07-.33.04-.61.13-.85.25-.25.12-.44.29-.58.5-.14.21-.21.47-.21.79,0,.61.21,1.04.62,1.27.41.24.98.36,1.7.36Z" style="fill: #a3ea2a; stroke-width: 0px;"/>
    <path d="m752.07,274.77l3.92-.63v4.07h4.71v3.26h-4.71v4.86c0,.82.14,1.48.43,1.97.29.49.87.74,1.75.74.42,0,.85-.04,1.3-.12.45-.08.85-.19,1.22-.33l.55,3.05c-.47.19-1,.36-1.58.5-.58.14-1.29.21-2.13.21-1.07,0-1.95-.14-2.66-.43-.7-.29-1.26-.69-1.68-1.21s-.71-1.14-.88-1.88c-.17-.74-.25-1.55-.25-2.44v-11.62Z" style="fill: #a3ea2a; stroke-width: 0px;"/>
    <path d="m768.15,274.22c0,.72-.23,1.28-.7,1.7-.46.41-1.01.62-1.64.62s-1.18-.21-1.64-.62c-.46-.41-.7-.98-.7-1.7s.23-1.28.7-1.7c.46-.41,1.01-.62,1.64-.62s1.18.21,1.64.62c.46.41.7.98.7,1.7Zm-.37,17.82h-3.92v-13.83h3.92v13.83Z" style="fill: #a3ea2a; stroke-width: 0px;"/>
    <path d="m784.4,285.1c0,1.09-.16,2.08-.47,2.98-.32.9-.77,1.67-1.37,2.31s-1.31,1.13-2.14,1.49c-.83.35-1.77.53-2.8.53s-1.94-.18-2.77-.53c-.83-.35-1.55-.85-2.14-1.49s-1.06-1.41-1.39-2.31c-.33-.9-.5-1.9-.5-2.98s.17-2.08.51-2.97.81-1.66,1.42-2.29c.61-.63,1.32-1.12,2.16-1.47.83-.35,1.74-.53,2.72-.53s1.91.17,2.75.53c.83.35,1.55.84,2.14,1.47.59.63,1.06,1.39,1.39,2.29s.5,1.88.5,2.97Zm-4,0c0-1.21-.24-2.16-.72-2.85-.48-.69-1.17-1.04-2.06-1.04s-1.59.35-2.08,1.04c-.49.69-.74,1.64-.74,2.85s.25,2.17.74,2.88c.49.71,1.18,1.06,2.08,1.06s1.58-.36,2.06-1.06c.48-.71.72-1.67.72-2.88Z" style="fill: #a3ea2a; stroke-width: 0px;"/>
    <path d="m787.42,278.69c.67-.19,1.52-.37,2.58-.54,1.05-.17,2.16-.25,3.31-.25s2.15.15,2.93.46,1.4.74,1.85,1.3c.46.56.78,1.23.97,2,.19.77.29,1.63.29,2.58v7.81h-3.92v-7.33c0-1.26-.17-2.16-.5-2.68-.33-.53-.96-.79-1.87-.79-.28,0-.58.01-.89.04s-.6.06-.84.09v10.67h-3.92v-13.35Z" style="fill: #a3ea2a; stroke-width: 0px;"/>
    <path d="m808.29,287.21c0-.67.1-1.27.29-1.83s.45-1.05.77-1.5.7-.84,1.13-1.18c.43-.34.88-.64,1.35-.91-.41-.51-.79-1.06-1.12-1.65s-.5-1.23-.5-1.93c0-1.54.46-2.73,1.39-3.56.93-.83,2.21-1.25,3.84-1.25.82,0,1.54.11,2.16.33.61.22,1.13.52,1.54.89.41.38.72.82.93,1.31.21.5.32,1.04.32,1.62,0,1.07-.3,2.02-.91,2.85-.61.83-1.37,1.53-2.3,2.09l2.96,2.93c.16-.35.31-.79.45-1.32s.24-1,.27-1.4l3.26.42c-.04.33-.1.7-.18,1.09s-.2.79-.33,1.2-.28.81-.45,1.21c-.17.4-.35.77-.54,1.1.56.63,1.11,1.32,1.64,2.06s1,1.49,1.38,2.25h-4.01c-.15-.23-.34-.52-.59-.86s-.49-.64-.73-.88c-.7.56-1.52,1.03-2.45,1.41-.93.38-1.97.57-3.13.57-1.23,0-2.25-.15-3.08-.46-.82-.31-1.49-.7-1.99-1.18-.5-.48-.86-1.02-1.07-1.63-.21-.6-.32-1.2-.32-1.8Zm3.65-.39c0,.26.05.53.16.81s.28.54.51.77c.24.24.54.43.91.58s.82.22,1.34.22c.74,0,1.38-.1,1.94-.29.55-.2,1.01-.45,1.38-.77l-4.23-4.21c-.24.12-.48.27-.72.45-.23.17-.45.38-.64.62-.19.24-.35.5-.47.8-.12.3-.18.64-.18,1.02Zm5.1-9.07c0-.4-.13-.76-.39-1.08-.26-.32-.7-.47-1.31-.47-.56,0-.99.17-1.3.51s-.46.78-.46,1.33c0,.46.13.9.39,1.33.26.43.6.84,1.02,1.23.56-.32,1.05-.69,1.45-1.13.41-.44.61-1.01.61-1.71Z" style="fill: #a3ea2a; stroke-width: 0px;"/>
    <path d="m839.64,273.62c2.73,0,4.83.49,6.28,1.46,1.45.97,2.18,2.48,2.18,4.53,0,1.28-.29,2.32-.88,3.12-.59.8-1.43,1.42-2.54,1.88.37.46.75.98,1.16,1.56.4.59.8,1.2,1.2,1.84.39.64.78,1.31,1.14,2,.37.69.71,1.37,1.02,2.04h-4.58c-.33-.6-.67-1.2-1.02-1.81s-.69-1.21-1.05-1.79c-.36-.58-.72-1.13-1.07-1.64-.35-.52-.7-.99-1.05-1.41h-2.02v6.65h-4.1v-17.95c.89-.17,1.82-.3,2.77-.37.96-.07,1.81-.11,2.56-.11Zm.24,3.5c-.3,0-.56,0-.8.03-.24.02-.46.04-.67.05v4.94h1.16c1.54,0,2.65-.19,3.31-.58.67-.39,1-1.04,1-1.97s-.34-1.53-1.01-1.91-1.67-.57-2.98-.57Z" style="fill: #a3ea2a; stroke-width: 0px;"/>
    <path d="m850.26,285.23c0-1.23.19-2.3.57-3.22s.87-1.69,1.49-2.3c.61-.61,1.32-1.08,2.12-1.39.8-.32,1.62-.47,2.46-.47,1.96,0,3.51.6,4.65,1.8,1.14,1.2,1.71,2.97,1.71,5.3,0,.23,0,.48-.03.75s-.04.51-.05.72h-8.88c.09.81.46,1.45,1.13,1.92.67.47,1.56.71,2.68.71.72,0,1.42-.07,2.12-.2.69-.13,1.26-.29,1.7-.49l.53,3.18c-.21.1-.49.21-.84.32-.35.1-.74.2-1.17.28-.43.08-.89.14-1.38.2-.49.05-.98.08-1.47.08-1.25,0-2.33-.18-3.25-.55-.92-.37-1.68-.87-2.29-1.51s-1.05-1.4-1.34-2.27-.43-1.82-.43-2.84Zm9.2-1.5c-.02-.33-.08-.66-.17-.97-.1-.32-.25-.6-.45-.84s-.46-.45-.76-.6c-.31-.16-.69-.24-1.14-.24s-.82.08-1.13.22c-.32.15-.58.35-.79.59s-.37.53-.49.85c-.11.33-.2.65-.25.99h5.18Z" style="fill: #a3ea2a; stroke-width: 0px;"/>
    <path d="m878.47,291.59c-.35.11-.75.21-1.21.3-.46.1-.93.18-1.43.25-.5.07-1.01.13-1.52.17-.52.04-1.01.07-1.49.07-1.14,0-2.16-.17-3.05-.5-.89-.33-1.65-.81-2.26-1.43s-1.08-1.38-1.41-2.26-.49-1.88-.49-2.98.14-2.13.42-3.04c.28-.9.68-1.67,1.21-2.3s1.17-1.11,1.93-1.45c.76-.33,1.63-.5,2.62-.5.54,0,1.03.05,1.46.16s.86.25,1.3.45v-6.26l3.92-.63v19.95Zm-8.86-6.57c0,1.21.27,2.18.82,2.92.54.74,1.35,1.1,2.42,1.1.35,0,.67-.01.97-.04.3-.03.54-.06.74-.09v-7.12c-.25-.16-.56-.29-.96-.39-.39-.1-.79-.16-1.2-.16-1.86,0-2.79,1.26-2.79,3.79Z" style="fill: #a3ea2a; stroke-width: 0px;"/>
    <path d="m886.43,274.22c0,.72-.23,1.28-.7,1.7-.46.41-1.01.62-1.64.62s-1.18-.21-1.64-.62c-.46-.41-.7-.98-.7-1.7s.23-1.28.7-1.7c.46-.41,1.01-.62,1.64-.62s1.18.21,1.64.62c.46.41.7.98.7,1.7Zm-.37,17.82h-3.92v-13.83h3.92v13.83Z" style="fill: #a3ea2a; stroke-width: 0px;"/>
    <path d="m898.08,281.69c-.35-.09-.76-.18-1.24-.28-.47-.1-.98-.14-1.52-.14-.25,0-.54.02-.88.07-.34.04-.6.09-.78.14v10.57h-3.92v-13.09c.7-.25,1.53-.48,2.48-.7.95-.22,2.02-.33,3.19-.33.21,0,.46.01.76.04s.6.06.89.1c.3.04.6.1.89.16.3.06.55.14.76.22l-.66,3.23Z" style="fill: #a3ea2a; stroke-width: 0px;"/>
    <path d="m899.92,285.23c0-1.23.19-2.3.57-3.22s.87-1.69,1.49-2.3c.61-.61,1.32-1.08,2.12-1.39.8-.32,1.62-.47,2.46-.47,1.96,0,3.51.6,4.65,1.8,1.14,1.2,1.71,2.97,1.71,5.3,0,.23,0,.48-.03.75s-.04.51-.05.72h-8.88c.09.81.46,1.45,1.13,1.92.67.47,1.56.71,2.68.71.72,0,1.42-.07,2.12-.2.69-.13,1.26-.29,1.7-.49l.53,3.18c-.21.1-.49.21-.84.32-.35.1-.74.2-1.17.28-.43.08-.89.14-1.38.2-.49.05-.98.08-1.47.08-1.25,0-2.33-.18-3.25-.55-.92-.37-1.68-.87-2.29-1.51s-1.05-1.4-1.34-2.27-.43-1.82-.43-2.84Zm9.2-1.5c-.02-.33-.08-.66-.17-.97-.1-.32-.25-.6-.45-.84s-.46-.45-.76-.6c-.31-.16-.69-.24-1.14-.24s-.82.08-1.13.22c-.32.15-.58.35-.79.59s-.37.53-.49.85c-.11.33-.2.65-.25.99h5.18Z" style="fill: #a3ea2a; stroke-width: 0px;"/>
    <path d="m915.27,285.13c0-1,.16-1.94.49-2.83s.79-1.66,1.41-2.31,1.36-1.18,2.23-1.56c.88-.39,1.88-.58,3-.58.74,0,1.41.07,2.02.2.61.13,1.21.32,1.79.56l-.81,3.13c-.37-.14-.77-.26-1.21-.37-.44-.1-.93-.16-1.47-.16-1.16,0-2.02.36-2.59,1.08-.57.72-.85,1.67-.85,2.84,0,1.25.27,2.21.8,2.89s1.47,1.03,2.8,1.03c.47,0,.98-.04,1.52-.13.54-.09,1.04-.23,1.5-.42l.55,3.21c-.46.19-1.02.36-1.71.5-.68.14-1.44.21-2.26.21-1.26,0-2.35-.19-3.26-.57s-1.66-.89-2.25-1.54-1.02-1.42-1.29-2.3c-.27-.88-.41-1.84-.41-2.88Z" style="fill: #a3ea2a; stroke-width: 0px;"/>
    <path d="m928.93,274.77l3.92-.63v4.07h4.71v3.26h-4.71v4.86c0,.82.14,1.48.43,1.97.29.49.87.74,1.75.74.42,0,.85-.04,1.3-.12.45-.08.85-.19,1.22-.33l.55,3.05c-.47.19-1,.36-1.58.5-.58.14-1.29.21-2.13.21-1.07,0-1.95-.14-2.66-.43-.7-.29-1.26-.69-1.68-1.21s-.71-1.14-.88-1.88c-.17-.74-.25-1.55-.25-2.44v-11.62Z" style="fill: #a3ea2a; stroke-width: 0px;"/>
    <path d="m945.02,274.22c0,.72-.23,1.28-.7,1.7-.46.41-1.01.62-1.64.62s-1.18-.21-1.64-.62c-.46-.41-.7-.98-.7-1.7s.23-1.28.7-1.7c.46-.41,1.01-.62,1.64-.62s1.18.21,1.64.62c.46.41.7.98.7,1.7Zm-.37,17.82h-3.92v-13.83h3.92v13.83Z" style="fill: #a3ea2a; stroke-width: 0px;"/>
    <path d="m961.26,285.1c0,1.09-.16,2.08-.47,2.98-.32.9-.77,1.67-1.37,2.31s-1.31,1.13-2.14,1.49c-.83.35-1.77.53-2.8.53s-1.94-.18-2.77-.53c-.83-.35-1.55-.85-2.14-1.49s-1.06-1.41-1.39-2.31c-.33-.9-.5-1.9-.5-2.98s.17-2.08.51-2.97.81-1.66,1.42-2.29c.61-.63,1.32-1.12,2.16-1.47.83-.35,1.74-.53,2.72-.53s1.91.17,2.75.53c.83.35,1.55.84,2.14,1.47.59.63,1.06,1.39,1.39,2.29s.5,1.88.5,2.97Zm-4,0c0-1.21-.24-2.16-.72-2.85-.48-.69-1.17-1.04-2.06-1.04s-1.59.35-2.08,1.04c-.49.69-.74,1.64-.74,2.85s.25,2.17.74,2.88c.49.71,1.18,1.06,2.08,1.06s1.58-.36,2.06-1.06c.48-.71.72-1.67.72-2.88Z" style="fill: #a3ea2a; stroke-width: 0px;"/>
    <path d="m964.29,278.69c.67-.19,1.52-.37,2.58-.54,1.05-.17,2.16-.25,3.31-.25s2.15.15,2.93.46,1.4.74,1.85,1.3c.46.56.78,1.23.97,2,.19.77.29,1.63.29,2.58v7.81h-3.92v-7.33c0-1.26-.17-2.16-.5-2.68-.33-.53-.96-.79-1.87-.79-.28,0-.58.01-.89.04s-.6.06-.84.09v10.67h-3.92v-13.35Z" style="fill: #a3ea2a; stroke-width: 0px;"/>
  </g>
  <g>
    <rect x="316.21" y="130.1" width="194.47" height="56.08" rx="7.48" ry="7.48" style="fill: #223654; stroke-width: 0px;"/>
    <g>
      <path d="m374.41,150.12h4.1v18.22h-4.1v-7.73h-6.89v7.73h-4.1v-18.22h4.1v6.97h6.89v-6.97Z" style="fill: #a3ea2a; stroke-width: 0px;"/>
      <path d="m381.8,161.53c0-1.23.19-2.3.57-3.22.38-.92.87-1.69,1.48-2.3.61-.61,1.32-1.08,2.12-1.39.8-.32,1.62-.47,2.46-.47,1.96,0,3.51.6,4.65,1.8,1.14,1.2,1.71,2.97,1.71,5.3,0,.23,0,.48-.03.75-.02.27-.04.51-.05.72h-8.88c.09.81.46,1.45,1.13,1.92.67.47,1.56.71,2.68.71.72,0,1.42-.07,2.12-.2.69-.13,1.26-.29,1.7-.49l.53,3.18c-.21.11-.49.21-.84.32-.35.11-.74.2-1.17.28-.43.08-.89.14-1.38.2-.49.05-.98.08-1.47.08-1.24,0-2.33-.18-3.25-.55-.92-.37-1.68-.87-2.29-1.51s-1.05-1.4-1.34-2.27c-.29-.88-.43-1.82-.43-2.84Zm9.2-1.5c-.02-.33-.07-.66-.17-.97-.1-.32-.25-.6-.45-.84-.2-.25-.46-.45-.76-.6-.31-.16-.69-.24-1.14-.24s-.81.07-1.13.22c-.32.15-.58.35-.79.59-.21.25-.37.53-.49.85-.11.32-.2.65-.25.99h5.18Z" style="fill: #a3ea2a; stroke-width: 0px;"/>
      <path d="m402.77,154.14c1.16,0,2.12.13,2.89.39.77.26,1.39.64,1.85,1.13.46.49.79,1.09.99,1.79.19.7.29,1.48.29,2.34v8.15c-.56.12-1.34.27-2.34.43-1,.17-2.21.25-3.63.25-.89,0-1.7-.08-2.43-.24-.73-.16-1.35-.42-1.88-.78-.53-.36-.93-.83-1.21-1.41-.28-.58-.42-1.29-.42-2.13s.16-1.49.49-2.05c.32-.56.76-1.01,1.3-1.34.54-.33,1.17-.57,1.87-.72.7-.15,1.43-.22,2.18-.22.51,0,.96.02,1.35.07.39.04.71.1.96.17v-.37c0-.67-.2-1.2-.6-1.6-.4-.4-1.1-.6-2.1-.6-.67,0-1.32.05-1.97.14-.65.1-1.21.23-1.68.41l-.5-3.15c.23-.07.51-.14.85-.22.34-.08.71-.15,1.12-.21.4-.06.83-.11,1.27-.16.45-.04.9-.07,1.35-.07Zm.32,11.46c.39,0,.75,0,1.1-.03.35-.02.63-.04.84-.08v-2.97c-.16-.03-.39-.07-.71-.1s-.6-.05-.87-.05c-.37,0-.71.02-1.04.07-.32.04-.61.13-.85.25-.25.12-.44.29-.58.5-.14.21-.21.47-.21.79,0,.61.21,1.04.62,1.27.41.24.98.36,1.7.36Z" style="fill: #a3ea2a; stroke-width: 0px;"/>
      <path d="m424.54,167.89c-.35.11-.75.21-1.21.3s-.93.18-1.43.25c-.5.07-1.01.13-1.52.17s-1.01.07-1.48.07c-1.14,0-2.16-.17-3.05-.5-.89-.33-1.65-.81-2.26-1.43-.61-.62-1.08-1.38-1.41-2.26s-.49-1.88-.49-2.98.14-2.13.42-3.04c.28-.9.68-1.67,1.21-2.3.53-.63,1.17-1.11,1.93-1.45.76-.33,1.63-.5,2.62-.5.54,0,1.03.05,1.46.16.43.1.86.25,1.3.45v-6.26l3.92-.63v19.95Zm-8.86-6.57c0,1.21.27,2.18.81,2.92s1.35,1.1,2.42,1.1c.35,0,.67-.01.97-.04.3-.03.54-.06.74-.09v-7.12c-.25-.16-.57-.29-.96-.39-.39-.11-.79-.16-1.2-.16-1.86,0-2.79,1.26-2.79,3.78Z" style="fill: #a3ea2a; stroke-width: 0px;"/>
      <path d="m427.56,161.53c0-1.23.19-2.3.57-3.22.38-.92.87-1.69,1.48-2.3.61-.61,1.32-1.08,2.12-1.39.8-.32,1.62-.47,2.46-.47,1.96,0,3.51.6,4.65,1.8,1.14,1.2,1.71,2.97,1.71,5.3,0,.23,0,.48-.03.75-.02.27-.04.51-.05.72h-8.88c.09.81.46,1.45,1.13,1.92.67.47,1.56.71,2.68.71.72,0,1.42-.07,2.12-.2.69-.13,1.26-.29,1.7-.49l.53,3.18c-.21.11-.49.21-.84.32-.35.11-.74.2-1.17.28-.43.08-.89.14-1.38.2-.49.05-.98.08-1.47.08-1.24,0-2.33-.18-3.25-.55-.92-.37-1.68-.87-2.29-1.51s-1.05-1.4-1.34-2.27c-.29-.88-.43-1.82-.43-2.84Zm9.2-1.5c-.02-.33-.07-.66-.17-.97-.1-.32-.25-.6-.45-.84-.2-.25-.46-.45-.76-.6-.31-.16-.69-.24-1.14-.24s-.81.07-1.13.22c-.32.15-.58.35-.79.59-.21.25-.37.53-.49.85-.11.32-.2.65-.25.99h5.18Z" style="fill: #a3ea2a; stroke-width: 0px;"/>
      <path d="m451.9,157.98c-.35-.09-.76-.18-1.24-.28-.47-.1-.98-.14-1.52-.14-.25,0-.54.02-.88.07-.34.04-.6.09-.78.14v10.57h-3.92v-13.09c.7-.25,1.53-.48,2.48-.7s2.02-.33,3.19-.33c.21,0,.46.01.76.04.3.03.6.06.89.1.3.04.6.1.89.16.3.06.55.14.76.22l-.66,3.23Z" style="fill: #a3ea2a; stroke-width: 0px;"/>
      <path d="m458.63,165.52c.72,0,1.23-.07,1.52-.21.3-.14.45-.41.45-.81,0-.32-.19-.59-.58-.83-.39-.24-.97-.5-1.76-.8-.61-.23-1.17-.46-1.67-.71-.5-.25-.92-.54-1.27-.88-.35-.34-.62-.75-.81-1.22-.19-.47-.29-1.04-.29-1.71,0-1.3.48-2.32,1.45-3.08.96-.75,2.29-1.13,3.97-1.13.84,0,1.65.08,2.42.22.77.15,1.38.31,1.84.49l-.68,3.05c-.46-.16-.95-.3-1.48-.42-.53-.12-1.13-.18-1.8-.18-1.23,0-1.84.34-1.84,1.03,0,.16.03.3.08.42.05.12.16.24.32.35.16.11.37.24.64.37.27.13.62.28,1.04.44.86.32,1.57.63,2.13.94.56.31,1,.64,1.33,1,.32.36.55.76.68,1.19.13.44.2.94.2,1.52,0,1.36-.51,2.4-1.54,3.09-1.03.7-2.48,1.05-4.35,1.05-1.23,0-2.25-.11-3.06-.32-.81-.21-1.38-.39-1.7-.53l.66-3.18c.67.26,1.35.47,2.05.62.7.15,1.39.22,2.08.22Z" style="fill: #a3ea2a; stroke-width: 0px;"/>
    </g>
  </g>
  <g id="arrow_styles_for_diagrams_etc" data-name="arrow styles for diagrams etc">
    <g id="arrow_styles_for_diagrams_etc-2" data-name="arrow styles for diagrams etc">
      <g id="arrow_styles_for_diagrams_etc-3" data-name="arrow styles for diagrams etc">
        <path d="m300.29,159.27l-29.85,17.17c-.88.5-1.98-.13-1.98-1.15v-8.85h-63.75c-2.65,0-4.79-2.14-4.79-4.79v-7.03c0-2.64,2.14-4.78,4.78-4.78h63.77v-8.85c0-1.02,1.1-1.65,1.98-1.15l29.85,17.17c.88.5.88,1.77,0,2.27Z" style="fill: url(#linear-gradient-3); stroke-width: 0px;"/>
      </g>
    </g>
  </g>
  <g id="arrow_styles_for_diagrams_etc-4" data-name="arrow styles for diagrams etc">
    <g id="arrow_styles_for_diagrams_etc-5" data-name="arrow styles for diagrams etc">
      <g id="arrow_styles_for_diagrams_etc-6" data-name="arrow styles for diagrams etc">
        <path d="m590.89,104.96l-29.85,17.17c-.88.5-1.98-.13-1.98-1.15v-8.85h-63.75c-2.65,0-4.79-2.14-4.79-4.79v-7.03c0-2.64,2.14-4.78,4.78-4.78h63.77v-8.85c0-1.02,1.1-1.65,1.98-1.15l29.85,17.17c.88.5.88,1.77,0,2.27Z" style="fill: url(#linear-gradient-4); stroke-width: 0px;"/>
      </g>
    </g>
  </g>
  <g id="arrow_styles_for_diagrams_etc-7" data-name="arrow styles for diagrams etc">
    <g id="arrow_styles_for_diagrams_etc-8" data-name="arrow styles for diagrams etc">
      <g id="arrow_styles_for_diagrams_etc-9" data-name="arrow styles for diagrams etc">
        <path d="m590.89,213.59l-29.85,17.17c-.88.5-1.98-.13-1.98-1.15v-8.85h-63.75c-2.65,0-4.79-2.14-4.79-4.79v-7.03c0-2.64,2.14-4.78,4.78-4.78h63.77v-8.85c0-1.02,1.1-1.65,1.98-1.15l29.85,17.17c.88.5.88,1.77,0,2.27Z" style="fill: url(#linear-gradient-5); stroke-width: 0px;"/>
      </g>
    </g>
  </g>
  <g id="Artwork_35" data-name="Artwork 35" style="opacity: .4;">
    <g>
      <path id="cloud" d="m350.81,154.36c-.5-2.59-2.8-4.55-5.56-4.55h-1c-.75-3.7-3.99-6.4-7.81-6.4s-7.08,2.72-7.82,6.44c-2.83.3-5.05,2.69-5.05,5.57,0,3.09,2.54,5.61,5.66,5.61h8.37c.44-.02.79-.39.77-.83-.02-.42-.35-.76-.77-.77h-8.37c-2.24,0-4.05-1.8-4.05-4s1.82-4,4.05-4c.83,0,1.64.25,2.31.73.32.23.76.2,1.03-.08h0c.31-.31.31-.81,0-1.12h0s-.06-.06-.1-.09c-.67-.48-1.43-.8-2.24-.95.68-2.84,3.21-4.9,6.19-4.9,3.15,0,5.8,2.3,6.28,5.4-.25.13-.5.28-.73.44-.36.26-.44.76-.19,1.12.03.04.05.07.09.1h0c.28.28.72.31,1.03.08.67-.48,1.48-.74,2.31-.73,1.97,0,3.62,1.4,3.98,3.24.07.38.4.65.79.65h0c.44,0,.8-.35.8-.79h0c.01-.05.01-.11,0-.16Z" style="fill: #fff; stroke-width: 0px;"/>
      <g id="numbers">
        <path d="m340.84,159.72h-.69v-2.19s.02-.34.02-.34c-.08.08-.16.15-.24.22l-.38.3-.33-.41,1.05-.84h.56v3.25Z" style="fill: #fff; stroke-width: 0px;"/>
        <path d="m344,158.09c0,.57-.09.99-.28,1.26s-.48.41-.86.41-.66-.14-.85-.42-.29-.7-.29-1.25.09-1,.28-1.27.47-.41.86-.41.66.14.85.43c.2.29.3.71.3,1.25Zm-1.59,0c0,.4.04.68.1.86s.19.26.35.26.28-.09.35-.26.1-.46.1-.86-.04-.69-.11-.86-.19-.26-.34-.26-.28.09-.35.26-.1.46-.1.86Z" style="fill: #fff; stroke-width: 0px;"/>
        <path d="m340.84,164.66h-.69v-2.19s.02-.34.02-.34c-.08.08-.16.15-.24.22l-.38.3-.33-.41,1.05-.84h.56v3.25Z" style="fill: #fff; stroke-width: 0px;"/>
        <path d="m343.44,164.66h-.69v-2.19s.02-.34.02-.34c-.08.08-.16.15-.24.22l-.38.3-.33-.41,1.05-.84h.56v3.25h.01Z" style="fill: #fff; stroke-width: 0px;"/>
        <path d="m346.05,164.66h-.69v-2.19s.02-.34.02-.34c-.08.08-.16.15-.24.22l-.38.3-.33-.41,1.05-.84h.56v3.25Z" style="fill: #fff; stroke-width: 0px;"/>
        <path d="m349.21,163.03c0,.57-.09.99-.28,1.26s-.48.41-.86.41-.66-.14-.85-.42-.29-.7-.29-1.25.09-1,.28-1.27.47-.41.86-.41.66.14.85.43c.2.28.3.7.3,1.25Zm-1.59,0c0,.4.04.68.1.86s.18.26.35.26.28-.09.35-.26.1-.46.1-.86-.04-.69-.11-.86-.19-.26-.34-.26-.28.09-.35.26-.1.45-.1.86Z" style="fill: #fff; stroke-width: 0px;"/>
        <path d="m350.7,166.95c0,.41-.07.72-.2.92s-.34.3-.63.3-.48-.1-.62-.31-.21-.51-.21-.91.07-.73.2-.92c.14-.2.34-.3.63-.3s.48.1.62.31.21.51.2.91Zm-1.16,0c0,.29.03.5.07.63.03.11.14.19.26.19s.2-.06.25-.19.08-.33.08-.62-.03-.5-.08-.63-.14-.19-.25-.19-.2.06-.25.19-.08.33-.08.63h0Z" style="fill: #fff; stroke-width: 0px;"/>
        <path d="m352.2,168.13h-.5v-1.6s.02-.25.02-.25c-.08.08-.14.14-.17.16l-.27.22-.24-.3.76-.61h.41v2.37h0Z" style="fill: #fff; stroke-width: 0px;"/>
        <path d="m340.69,166.97c0,.41-.07.71-.2.9s-.34.29-.62.29-.47-.1-.61-.3-.2-.5-.2-.89.07-.71.2-.9.33-.29.61-.29.47.1.61.3.21.5.21.89Zm-1.13,0c0,.28.03.49.07.61.03.11.14.19.25.18.11,0,.2-.06.25-.19s.08-.33.08-.61-.03-.49-.08-.61-.13-.19-.25-.19-.2.06-.25.19-.08.33-.08.62h0Z" style="fill: #fff; stroke-width: 0px;"/>
        <path d="m342.15,168.13h-.49v-1.56s.02-.24.02-.24c-.08.08-.14.14-.17.16l-.27.21-.24-.3.75-.6h.4v2.32Z" style="fill: #fff; stroke-width: 0px;"/>
        <path d="m344.4,166.97c0,.41-.07.71-.2.9s-.34.29-.62.29-.47-.1-.61-.3-.2-.5-.2-.89.07-.71.2-.9.33-.29.61-.29.47.1.61.3.21.5.21.89Zm-1.13,0c0,.28.03.49.07.61.03.11.14.19.25.18.12,0,.2-.06.25-.19s.08-.33.08-.61-.03-.49-.08-.61-.14-.19-.25-.19-.2.06-.25.19-.08.33-.08.62h0Z" style="fill: #fff; stroke-width: 0px;"/>
        <path d="m345.86,168.13h-.49v-1.56s.02-.24.02-.24c-.08.08-.14.14-.17.16l-.27.21-.24-.3.75-.6h.4v2.32Z" style="fill: #fff; stroke-width: 0px;"/>
        <path d="m340.2,169.93c0,.29-.05.51-.14.65s-.24.21-.44.21c-.17.01-.34-.07-.43-.22-.1-.15-.15-.36-.15-.64,0-.3.05-.51.14-.65s.24-.21.44-.21c.17-.01.34.07.44.22.09.15.15.37.15.65Zm-.82,0c0,.2.02.35.05.44.03.1.13.15.22.13h0c.06-.02.11-.06.13-.13.04-.09.05-.24.05-.44,0-.15-.01-.3-.06-.44-.03-.09-.13-.15-.22-.13h-.01c-.06.02-.11.06-.13.13-.04.15-.05.3-.05.45Z" style="fill: #fff; stroke-width: 0px;"/>
        <path d="m341.25,170.77h-.36v-1.12s.01-.17.01-.17c-.06.06-.1.1-.12.11l-.19.15-.17-.21.54-.43h.29v1.67Z" style="fill: #fff; stroke-width: 0px;"/>
        <path d="m344.84,172.01c0,.29-.05.51-.15.65s-.25.21-.44.21c-.17.01-.34-.07-.43-.22-.1-.15-.15-.36-.15-.64s.05-.51.14-.65.24-.21.44-.21c.17-.01.34.07.44.22.1.15.15.37.15.65Zm-.81,0c0,.2.02.35.05.44.03.09.13.15.22.13h.01c.06-.02.11-.06.13-.13.04-.09.05-.24.05-.44,0-.15-.01-.3-.06-.44-.02-.08-.09-.14-.18-.14s-.16.05-.18.14c-.03.08-.05.23-.05.44Z" style="fill: #fff; stroke-width: 0px;"/>
        <path d="m345.9,172.85h-.36v-1.12s.01-.17.01-.17c-.06.06-.1.1-.12.11l-.19.16-.17-.21.54-.43h.29v1.67Z" style="fill: #fff; stroke-width: 0px;"/>
        <path d="m348.67,169.61c0,.41-.07.71-.2.9s-.34.29-.62.29-.47-.1-.61-.3-.2-.5-.2-.89.07-.71.2-.9.33-.29.61-.29.47.1.61.3.21.5.21.89Zm-1.13,0c0,.29.03.49.07.61.03.11.14.19.25.18.11,0,.2-.06.25-.19s.08-.33.08-.61-.03-.49-.08-.62-.14-.19-.25-.19-.2.06-.25.19-.07.34-.07.62h0Z" style="fill: #fff; stroke-width: 0px;"/>
        <path d="m350.13,170.77h-.49v-1.56s.02-.24.02-.24c-.08.08-.14.14-.17.16l-.27.21-.24-.3.75-.6h.4v2.32h0Z" style="fill: #fff; stroke-width: 0px;"/>
        <path d="m352.39,169.61c0,.41-.07.71-.2.9s-.34.29-.62.29-.47-.1-.61-.3-.2-.5-.2-.89.07-.71.2-.9.33-.29.61-.29.47.1.61.3.21.5.21.89Zm-1.13,0c0,.29.03.49.07.61.03.11.14.19.25.18.11,0,.2-.06.25-.19s.08-.33.08-.61-.03-.49-.08-.62-.14-.19-.25-.19-.2.06-.25.19-.08.34-.08.62h0Z" style="fill: #fff; stroke-width: 0px;"/>
        <path d="m348.82,159.72h-.69v-2.19s.02-.34.02-.34c-.08.08-.16.15-.24.22l-.38.3-.33-.41,1.05-.84h.57v3.25h0Z" style="fill: #fff; stroke-width: 0px;"/>
        <path d="m351.99,158.09c0,.57-.09.99-.28,1.26s-.48.41-.86.41-.66-.14-.85-.42-.29-.7-.29-1.25.09-1,.28-1.27.47-.41.86-.41.66.14.85.43.29.71.3,1.25Zm-1.6,0c0,.4.04.68.1.86s.19.26.35.26.28-.09.35-.26.1-.46.1-.86-.04-.69-.11-.86-.19-.26-.34-.26-.28.09-.35.26-.1.46-.1.86h0Z" style="fill: #fff; stroke-width: 0px;"/>
      </g>
    </g>
  </g>
<script xmlns="" id="bw-fido2-page-script"/></svg>