<?xml version="1.0" encoding="UTF-8"?>
<svg id="Layer_2" data-name="Layer 2" xmlns="http://www.w3.org/2000/svg" width="1140" height="800" xmlns:xlink="http://www.w3.org/1999/xlink" viewBox="0 0 1140 800">
  <defs>
    <linearGradient id="linear-gradient" x1="519.25" y1="548.87" x2="57.56" y2="548.87" gradientUnits="userSpaceOnUse">
      <stop offset=".34" stop-color="#223654"/>
      <stop offset=".4" stop-color="#38554c"/>
      <stop offset=".5" stop-color="#5e8940"/>
      <stop offset=".6" stop-color="#7bb336"/>
      <stop offset=".68" stop-color="#91d12f"/>
      <stop offset=".76" stop-color="#9ee32b"/>
      <stop offset=".81" stop-color="#a3ea2a"/>
    </linearGradient>
    <linearGradient id="linear-gradient-2" x1="6520.46" y1="2549.94" x2="6058.77" y2="2549.94" gradientTransform="translate(7166.06 2746.94) rotate(-180)" xlink:href="#linear-gradient"/>
    <linearGradient id="linear-gradient-3" x1="169.8" y1="221.05" x2="409.05" y2="221.05" xlink:href="#linear-gradient"/>
    <linearGradient id="linear-gradient-4" x1="6671.71" y1="2882.95" x2="6910.96" y2="2882.95" gradientTransform="translate(7656.02 3411.11) rotate(-180)" xlink:href="#linear-gradient"/>
    <linearGradient id="linear-gradient-5" x1="5906.99" y1="3413.6" x2="6418.45" y2="3413.6" gradientTransform="translate(6843.2 3866.53) rotate(-180)" gradientUnits="userSpaceOnUse">
      <stop offset=".46" stop-color="#223654"/>
      <stop offset=".52" stop-color="#2a4151"/>
      <stop offset=".61" stop-color="#3f5f4a"/>
      <stop offset=".73" stop-color="#63903e"/>
      <stop offset=".88" stop-color="#93d32f"/>
      <stop offset=".92" stop-color="#a3ea2a"/>
    </linearGradient>
  </defs>
  <g id="arrow_styles_for_diagrams_etc" data-name="arrow styles for diagrams etc">
    <g id="arrow_styles_for_diagrams_etc-2" data-name="arrow styles for diagrams etc">
      <g id="arrow_styles_for_diagrams_etc-3" data-name="arrow styles for diagrams etc">
        <path d="m439.08,611.38h0c0,5.21-4.22,9.43-9.43,9.43h-243.56c-7.43,0-13.46-6.02-13.46-13.46v-94.1h-9.9c-1.14,0-1.85-1.23-1.28-2.22l19.18-33.37c.56-.98,1.98-.98,2.55,0l19.18,33.37c.56.98-.13,2.22-1.29,2.22h-9.89v79.94c0,4.83,3.92,8.75,8.75,8.75h229.7c5.21,0,9.43,4.22,9.43,9.43Z" style="fill: url(#linear-gradient); stroke-width: 0px;"/>
      </g>
    </g>
  </g>
  <g id="arrow_styles_for_diagrams_etc-4" data-name="arrow styles for diagrams etc">
    <g id="arrow_styles_for_diagrams_etc-5" data-name="arrow styles for diagrams etc">
      <g id="arrow_styles_for_diagrams_etc-6" data-name="arrow styles for diagrams etc">
        <path d="m725.78,134.49h0c0-5.21,4.22-9.43,9.43-9.43h243.56c7.43,0,13.46,6.02,13.46,13.46v94.1h9.9c1.14,0,1.85,1.23,1.28,2.22l-19.18,33.37c-.56.98-1.98.98-2.55,0l-19.18-33.37c-.56-.98.13-2.22,1.29-2.22h9.89v-79.94c0-4.83-3.92-8.75-8.75-8.75h-229.7c-5.21,0-9.43-4.22-9.43-9.43Z" style="fill: url(#linear-gradient-2); stroke-width: 0px;"/>
      </g>
    </g>
  </g>
  <g id="arrow_styles_for_diagrams_etc-7" data-name="arrow styles for diagrams etc">
    <g id="arrow_styles_for_diagrams_etc-8" data-name="arrow styles for diagrams etc">
      <g id="arrow_styles_for_diagrams_etc-9" data-name="arrow styles for diagrams etc">
        <path d="m408.3,138.83l-33.37,19.2c-.99.57-2.22-.14-2.22-1.28v-9.9h-174.91c-2.93,0-5.31,2.38-5.31,5.31v165.31c0,4.27-3.46,7.73-7.73,7.73h-7.23c-4.27,0-7.73-3.46-7.73-7.73v-177.52c0-6.58,5.34-11.92,11.92-11.92h10.78v.27h180.22v-9.9c0-1.14,1.23-1.85,2.22-1.28l33.37,19.2c.99.56.99,1.97,0,2.53Z" style="fill: url(#linear-gradient-3); stroke-width: 0px;"/>
      </g>
    </g>
  </g>
  <g id="arrow_styles_for_diagrams_etc-10" data-name="arrow styles for diagrams etc">
    <g id="arrow_styles_for_diagrams_etc-11" data-name="arrow styles for diagrams etc">
      <g id="arrow_styles_for_diagrams_etc-12" data-name="arrow styles for diagrams etc">
        <path d="m745.81,610.38l33.37-19.2c.99-.57,2.22.14,2.22,1.28v9.9h174.91c2.93,0,5.31-2.38,5.31-5.31v-165.31c0-4.27,3.46-7.73,7.73-7.73h7.23c4.27,0,7.73,3.46,7.73,7.73v177.52c0,6.58-5.34,11.92-11.92,11.92h-10.78v-.27h-180.22v9.9c0,1.14-1.23,1.85-2.22,1.28l-33.37-19.2c-.99-.56-.99-1.97,0-2.53Z" style="fill: url(#linear-gradient-4); stroke-width: 0px;"/>
      </g>
    </g>
  </g>
  <rect x="413.97" y="63.78" width="322.04" height="147.56" rx="9.5" ry="9.5" style="fill: #1c2538; stroke-width: 0px;"/>
  <g>
    <path d="m455.64,127.3v3.59h-5.64v15.12h-4.21v-15.12h-5.64v-3.59h15.49Z" style="fill: #a3ea2a; stroke-width: 0px;"/>
    <path d="m458.07,146v-20.3l4.02-.65v6.8c.27-.09.62-.18,1.04-.26.42-.08.83-.12,1.23-.12,1.15,0,2.11.16,2.87.47.76.31,1.38.76,1.84,1.34.46.58.78,1.26.97,2.05.19.79.28,1.67.28,2.65v8.02h-4.02v-7.53c0-1.3-.17-2.21-.5-2.75-.33-.54-.95-.81-1.85-.81-.36,0-.7.03-1.01.09-.31.06-.6.13-.85.2v10.8h-4.02Z" style="fill: #a3ea2a; stroke-width: 0px;"/>
    <path d="m482.52,135.37c-.36-.09-.78-.18-1.27-.28-.49-.1-1.01-.15-1.57-.15-.25,0-.55.02-.9.07-.35.05-.62.09-.8.15v10.85h-4.02v-13.44c.72-.25,1.57-.49,2.55-.72.98-.22,2.07-.34,3.28-.34.22,0,.48.01.78.04.31.03.61.06.92.11.31.05.61.1.92.16s.57.14.78.23l-.67,3.32Z" style="fill: #a3ea2a; stroke-width: 0px;"/>
    <path d="m484.41,139.01c0-1.26.19-2.36.58-3.31.39-.94.9-1.73,1.53-2.36s1.35-1.11,2.17-1.43c.82-.32,1.66-.49,2.52-.49,2.02,0,3.61.62,4.78,1.85,1.17,1.23,1.75,3.05,1.75,5.44,0,.23,0,.49-.03.77-.02.28-.04.53-.05.74h-9.12c.09.83.48,1.48,1.16,1.97.68.49,1.6.73,2.75.73.74,0,1.46-.07,2.17-.2.71-.13,1.29-.3,1.74-.5l.54,3.27c-.22.11-.5.22-.86.32-.36.11-.76.2-1.2.28-.44.08-.91.15-1.42.2-.5.05-1.01.08-1.51.08-1.28,0-2.39-.19-3.33-.57s-1.73-.9-2.35-1.55c-.62-.66-1.08-1.43-1.38-2.33-.3-.9-.45-1.87-.45-2.92Zm9.45-1.54c-.02-.34-.08-.67-.18-1-.1-.32-.25-.61-.46-.86-.21-.25-.47-.46-.78-.62-.31-.16-.71-.24-1.17-.24s-.84.08-1.16.23c-.32.15-.59.36-.81.61s-.38.54-.5.88c-.12.33-.2.67-.26,1.01h5.32Z" style="fill: #a3ea2a; stroke-width: 0px;"/>
    <path d="m505.95,131.43c1.19,0,2.18.14,2.97.4.79.27,1.43.66,1.9,1.16.48.5.81,1.12,1.01,1.84.2.72.3,1.52.3,2.4v8.37c-.58.13-1.38.27-2.4.45s-2.27.26-3.73.26c-.92,0-1.75-.08-2.5-.24-.75-.16-1.39-.43-1.93-.8-.54-.37-.95-.85-1.24-1.44s-.43-1.32-.43-2.19.17-1.53.5-2.11c.33-.58.78-1.03,1.34-1.38.56-.34,1.2-.59,1.92-.74.72-.15,1.47-.23,2.24-.23.52,0,.99.02,1.39.07s.73.1.99.18v-.38c0-.68-.21-1.23-.62-1.65s-1.13-.62-2.16-.62c-.68,0-1.36.05-2.02.15-.67.1-1.24.24-1.73.42l-.51-3.24c.23-.07.53-.15.88-.23.35-.08.73-.15,1.15-.22.41-.06.85-.12,1.31-.16.46-.04.92-.07,1.39-.07Zm.32,11.77c.4,0,.77,0,1.13-.03.36-.02.65-.04.86-.08v-3.05c-.16-.04-.41-.07-.73-.11-.32-.04-.62-.05-.89-.05-.38,0-.73.02-1.07.07s-.63.13-.88.26c-.25.13-.45.3-.59.51-.14.22-.22.49-.22.81,0,.63.21,1.07.63,1.31.42.24,1,.36,1.74.36Z" style="fill: #a3ea2a; stroke-width: 0px;"/>
    <path d="m515.64,128.27l4.02-.65v4.18h4.83v3.35h-4.83v4.99c0,.85.15,1.52.45,2.02s.9.76,1.79.76c.43,0,.88-.04,1.34-.12.46-.08.88-.19,1.25-.34l.57,3.13c-.49.2-1.03.37-1.62.51-.59.14-1.32.22-2.19.22-1.1,0-2.01-.15-2.73-.45-.72-.3-1.3-.71-1.73-1.24-.43-.53-.73-1.17-.9-1.93-.17-.76-.26-1.59-.26-2.51v-11.93Z" style="fill: #a3ea2a; stroke-width: 0px;"/>
    <path d="m534.51,127.3h4.21v18.71h-4.21v-18.71Z" style="fill: #a3ea2a; stroke-width: 0px;"/>
    <path d="m542.77,132.29c.68-.2,1.57-.38,2.65-.55,1.08-.17,2.21-.26,3.4-.26s2.21.16,3.01.47c.8.31,1.44.76,1.9,1.34.47.58.8,1.26,1,2.05.2.79.3,1.67.3,2.65v8.02h-4.02v-7.53c0-1.3-.17-2.21-.51-2.75-.34-.54-.98-.81-1.92-.81-.29,0-.59.01-.92.04-.32.03-.61.06-.86.09v10.96h-4.02v-13.71Z" style="fill: #a3ea2a; stroke-width: 0px;"/>
    <path d="m558.54,128.27l4.02-.65v4.18h4.83v3.35h-4.83v4.99c0,.85.15,1.52.45,2.02s.9.76,1.8.76c.43,0,.88-.04,1.34-.12s.88-.19,1.25-.34l.57,3.13c-.49.2-1.03.37-1.62.51-.59.14-1.32.22-2.19.22-1.1,0-2.01-.15-2.73-.45-.72-.3-1.3-.71-1.73-1.24-.43-.53-.73-1.17-.9-1.93-.17-.76-.26-1.59-.26-2.51v-11.93Z" style="fill: #a3ea2a; stroke-width: 0px;"/>
    <path d="m569.44,139.01c0-1.26.19-2.36.58-3.31.39-.94.9-1.73,1.53-2.36.63-.63,1.35-1.11,2.17-1.43.82-.32,1.66-.49,2.52-.49,2.01,0,3.61.62,4.78,1.85,1.17,1.23,1.75,3.05,1.75,5.44,0,.23,0,.49-.03.77-.02.28-.04.53-.05.74h-9.12c.09.83.48,1.48,1.16,1.97.68.49,1.6.73,2.75.73.74,0,1.46-.07,2.17-.2.71-.13,1.29-.3,1.74-.5l.54,3.27c-.22.11-.5.22-.86.32-.36.11-.76.2-1.2.28-.44.08-.91.15-1.42.2-.5.05-1.01.08-1.51.08-1.28,0-2.39-.19-3.33-.57-.94-.38-1.73-.9-2.35-1.55-.62-.66-1.08-1.43-1.38-2.33-.3-.9-.45-1.87-.45-2.92Zm9.45-1.54c-.02-.34-.08-.67-.17-1-.1-.32-.25-.61-.46-.86-.21-.25-.47-.46-.78-.62-.31-.16-.71-.24-1.17-.24s-.84.08-1.16.23c-.32.15-.59.36-.81.61s-.38.54-.5.88c-.12.33-.2.67-.26,1.01h5.32Z" style="fill: #a3ea2a; stroke-width: 0px;"/>
    <path d="m591.55,146.27c-1.17-.02-2.12-.14-2.85-.38-.73-.23-1.3-.56-1.73-.99-.42-.42-.71-.94-.86-1.54-.15-.6-.23-1.28-.23-2.04v-15.63l4.02-.65v15.47c0,.36.03.68.08.97.05.29.16.53.31.73.15.2.37.36.66.49.29.13.67.21,1.16.24l-.57,3.32Z" style="fill: #a3ea2a; stroke-width: 0px;"/>
    <path d="m609.69,146.38c-3.04,0-5.36-.85-6.95-2.54-1.59-1.69-2.39-4.09-2.39-7.21,0-1.55.24-2.93.73-4.14.49-1.21,1.15-2.24,2-3.08.85-.84,1.85-1.47,3.02-1.9,1.17-.43,2.44-.65,3.81-.65.79,0,1.51.06,2.16.18.65.12,1.21.25,1.7.4.49.15.89.31,1.21.47.32.16.56.29.7.38l-1.21,3.4c-.58-.31-1.25-.57-2.01-.78s-1.63-.32-2.6-.32c-.65,0-1.28.11-1.9.32s-1.17.56-1.65,1.04c-.48.48-.86,1.09-1.15,1.85s-.43,1.67-.43,2.75c0,.86.09,1.67.28,2.42.19.75.5,1.39.92,1.93.42.54.98.97,1.66,1.28.68.32,1.51.47,2.48.47.61,0,1.16-.04,1.65-.11.49-.07.92-.16,1.3-.26s.71-.21,1-.34c.29-.13.55-.24.78-.35l1.16,3.37c-.59.36-1.43.68-2.51.97-1.08.29-2.33.43-3.75.43Z" style="fill: #a3ea2a; stroke-width: 0px;"/>
    <path d="m626.94,135.37c-.36-.09-.78-.18-1.27-.28-.49-.1-1.01-.15-1.57-.15-.25,0-.55.02-.9.07-.35.05-.62.09-.8.15v10.85h-4.02v-13.44c.72-.25,1.57-.49,2.55-.72.98-.22,2.07-.34,3.28-.34.22,0,.48.01.78.04s.61.06.92.11c.31.05.61.1.92.16.31.06.57.14.78.23l-.67,3.32Z" style="fill: #a3ea2a; stroke-width: 0px;"/>
    <path d="m628.83,139.01c0-1.26.19-2.36.58-3.31.39-.94.9-1.73,1.53-2.36.63-.63,1.35-1.11,2.17-1.43.82-.32,1.66-.49,2.52-.49,2.01,0,3.61.62,4.78,1.85,1.17,1.23,1.75,3.05,1.75,5.44,0,.23,0,.49-.03.77-.02.28-.04.53-.05.74h-9.12c.09.83.48,1.48,1.16,1.97.68.49,1.6.73,2.75.73.74,0,1.46-.07,2.17-.2.71-.13,1.29-.3,1.74-.5l.54,3.27c-.22.11-.5.22-.86.32-.36.11-.76.2-1.2.28-.44.08-.91.15-1.42.2-.5.05-1.01.08-1.51.08-1.28,0-2.39-.19-3.33-.57-.94-.38-1.73-.9-2.35-1.55-.62-.66-1.08-1.43-1.38-2.33-.3-.9-.45-1.87-.45-2.92Zm9.45-1.54c-.02-.34-.08-.67-.17-1-.1-.32-.25-.61-.46-.86-.21-.25-.47-.46-.78-.62-.31-.16-.71-.24-1.17-.24s-.84.08-1.16.23c-.32.15-.59.36-.81.61s-.38.54-.5.88c-.12.33-.2.67-.26,1.01h5.32Z" style="fill: #a3ea2a; stroke-width: 0px;"/>
    <path d="m650.37,131.43c1.19,0,2.18.14,2.97.4.79.27,1.43.66,1.9,1.16s.81,1.12,1.01,1.84.3,1.52.3,2.4v8.37c-.58.13-1.38.27-2.4.45s-2.27.26-3.73.26c-.92,0-1.75-.08-2.5-.24-.75-.16-1.39-.43-1.93-.8-.54-.37-.95-.85-1.24-1.44-.29-.59-.43-1.32-.43-2.19s.17-1.53.5-2.11c.33-.58.78-1.03,1.34-1.38s1.2-.59,1.92-.74c.72-.15,1.47-.23,2.24-.23.52,0,.99.02,1.39.07.41.04.73.1.99.18v-.38c0-.68-.21-1.23-.62-1.65-.42-.41-1.13-.62-2.16-.62-.68,0-1.36.05-2.02.15-.67.1-1.24.24-1.73.42l-.51-3.24c.23-.07.53-.15.88-.23.35-.08.73-.15,1.15-.22.41-.06.85-.12,1.31-.16.46-.04.92-.07,1.39-.07Zm.32,11.77c.4,0,.77,0,1.13-.03.36-.02.65-.04.86-.08v-3.05c-.16-.04-.4-.07-.73-.11-.32-.04-.62-.05-.89-.05-.38,0-.73.02-1.07.07s-.63.13-.88.26c-.25.13-.45.3-.59.51-.14.22-.22.49-.22.81,0,.63.21,1.07.63,1.31.42.24,1,.36,1.74.36Z" style="fill: #a3ea2a; stroke-width: 0px;"/>
    <path d="m660.06,128.27l4.02-.65v4.18h4.83v3.35h-4.83v4.99c0,.85.15,1.52.45,2.02s.9.76,1.8.76c.43,0,.88-.04,1.34-.12s.88-.19,1.25-.34l.57,3.13c-.49.2-1.03.37-1.62.51-.59.14-1.32.22-2.19.22-1.1,0-2.01-.15-2.73-.45s-1.29-.71-1.73-1.24c-.43-.53-.73-1.17-.9-1.93-.17-.76-.26-1.59-.26-2.51v-11.93Z" style="fill: #a3ea2a; stroke-width: 0px;"/>
    <path d="m676.58,127.7c0,.74-.24,1.32-.71,1.74-.48.42-1.04.63-1.69.63s-1.21-.21-1.69-.63c-.48-.42-.72-1-.72-1.74s.24-1.32.72-1.74c.48-.42,1.04-.63,1.69-.63s1.21.21,1.69.63c.48.42.71,1,.71,1.74Zm-.38,18.3h-4.02v-14.2h4.02v14.2Z" style="fill: #a3ea2a; stroke-width: 0px;"/>
    <path d="m693.26,138.88c0,1.12-.16,2.14-.49,3.06-.32.93-.79,1.72-1.4,2.38-.61.66-1.35,1.17-2.2,1.52-.86.36-1.81.54-2.88.54s-1.99-.18-2.85-.54c-.86-.36-1.59-.87-2.2-1.52-.61-.66-1.09-1.45-1.43-2.38-.34-.93-.51-1.95-.51-3.06s.18-2.13.53-3.05c.35-.92.84-1.7,1.46-2.35.62-.65,1.36-1.15,2.21-1.51.85-.36,1.79-.54,2.79-.54s1.97.18,2.82.54c.85.36,1.59.86,2.2,1.51.61.65,1.09,1.43,1.43,2.35.34.92.51,1.94.51,3.05Zm-4.1,0c0-1.24-.25-2.22-.74-2.93-.5-.71-1.2-1.07-2.12-1.07s-1.63.36-2.13,1.07c-.5.71-.76,1.69-.76,2.93s.25,2.23.76,2.96c.5.73,1.21,1.09,2.13,1.09s1.62-.36,2.12-1.09c.49-.73.74-1.71.74-2.96Z" style="fill: #a3ea2a; stroke-width: 0px;"/>
    <path d="m696.36,132.29c.68-.2,1.57-.38,2.65-.55,1.08-.17,2.21-.26,3.4-.26s2.21.16,3.01.47c.8.31,1.43.76,1.9,1.34.47.58.8,1.26,1,2.05.2.79.3,1.67.3,2.65v8.02h-4.02v-7.53c0-1.3-.17-2.21-.51-2.75-.34-.54-.98-.81-1.92-.81-.29,0-.59.01-.92.04-.32.03-.61.06-.86.09v10.96h-4.02v-13.71Z" style="fill: #a3ea2a; stroke-width: 0px;"/>
  </g>
  <rect x="411.5" y="278.9" width="322.04" height="147.56" rx="9.5" ry="9.5" style="fill: #1c2538; stroke-width: 0px;"/>
  <g>
    <path d="m449.91,351.76c0,1.62-.25,3.03-.76,4.24-.5,1.21-1.22,2.2-2.15,3s-2.06,1.39-3.39,1.78c-1.33.4-2.83.59-4.48.59-.76,0-1.64-.03-2.65-.09-1.01-.06-2-.19-2.97-.39v-18.22c.97-.18,1.98-.3,3.04-.36,1.05-.06,1.96-.09,2.71-.09,1.6,0,3.05.18,4.36.54,1.3.36,2.42.93,3.36,1.7.94.77,1.66,1.76,2.16,2.97.5,1.21.76,2.65.76,4.35Zm-12.17,5.94c.2.02.43.03.69.04.26,0,.57.01.93.01,2.11,0,3.67-.53,4.68-1.59,1.02-1.06,1.53-2.53,1.53-4.4s-.49-3.45-1.46-4.45c-.97-1.01-2.51-1.51-4.62-1.51-.29,0-.58,0-.89.01-.31,0-.59.03-.86.07v11.82Z" style="fill: #a3ea2a; stroke-width: 0px;"/>
    <path d="m452.48,354.13c0-1.26.19-2.36.58-3.31.39-.94.9-1.73,1.53-2.36s1.35-1.11,2.17-1.43c.82-.32,1.66-.49,2.52-.49,2.02,0,3.61.62,4.78,1.85,1.17,1.23,1.75,3.05,1.75,5.44,0,.23,0,.49-.03.77-.02.28-.04.53-.05.74h-9.12c.09.83.48,1.48,1.16,1.97.68.49,1.6.73,2.75.73.74,0,1.46-.07,2.17-.2.71-.13,1.29-.3,1.74-.5l.54,3.27c-.22.11-.5.22-.86.32-.36.11-.76.2-1.2.28-.44.08-.91.15-1.42.2-.5.05-1.01.08-1.51.08-1.28,0-2.39-.19-3.33-.57s-1.73-.9-2.35-1.55c-.62-.66-1.08-1.43-1.38-2.33-.3-.9-.45-1.87-.45-2.92Zm9.45-1.54c-.02-.34-.08-.67-.18-1-.1-.32-.25-.61-.46-.86-.21-.25-.47-.46-.78-.62-.31-.16-.71-.24-1.17-.24s-.84.08-1.16.23c-.32.15-.59.36-.81.61s-.38.54-.5.88c-.12.33-.2.67-.26,1.01h5.32Z" style="fill: #a3ea2a; stroke-width: 0px;"/>
    <path d="m468.78,343.39l4.02-.65v4.18h4.83v3.35h-4.83v4.99c0,.85.15,1.52.45,2.02s.9.76,1.79.76c.43,0,.88-.04,1.34-.12.46-.08.88-.19,1.25-.34l.57,3.13c-.49.2-1.03.37-1.62.51-.59.14-1.32.22-2.19.22-1.1,0-2.01-.15-2.73-.45-.72-.3-1.3-.71-1.73-1.24-.43-.53-.73-1.17-.9-1.93-.17-.76-.26-1.59-.26-2.51v-11.93Z" style="fill: #a3ea2a; stroke-width: 0px;"/>
    <path d="m479.69,354.13c0-1.26.19-2.36.58-3.31.39-.94.9-1.73,1.53-2.36s1.35-1.11,2.17-1.43c.82-.32,1.66-.49,2.52-.49,2.02,0,3.61.62,4.78,1.85,1.17,1.23,1.75,3.05,1.75,5.44,0,.23,0,.49-.03.77-.02.28-.04.53-.05.74h-9.12c.09.83.48,1.48,1.16,1.97.68.49,1.6.73,2.75.73.74,0,1.46-.07,2.17-.2.71-.13,1.29-.3,1.74-.5l.54,3.27c-.22.11-.5.22-.86.32-.36.11-.76.2-1.2.28-.44.08-.91.15-1.42.2-.5.05-1.01.08-1.51.08-1.28,0-2.39-.19-3.33-.57s-1.73-.9-2.35-1.55c-.62-.66-1.08-1.43-1.38-2.33-.3-.9-.45-1.87-.45-2.92Zm9.45-1.54c-.02-.34-.08-.67-.18-1-.1-.32-.25-.61-.46-.86-.21-.25-.47-.46-.78-.62-.31-.16-.71-.24-1.17-.24s-.84.08-1.16.23c-.32.15-.59.36-.81.61s-.38.54-.5.88c-.12.33-.2.67-.26,1.01h5.32Z" style="fill: #a3ea2a; stroke-width: 0px;"/>
    <path d="m495.45,354.03c0-1.03.17-1.99.5-2.9s.81-1.7,1.44-2.38,1.39-1.21,2.29-1.61c.9-.4,1.93-.59,3.08-.59.76,0,1.45.07,2.08.2.63.13,1.24.33,1.84.58l-.84,3.21c-.38-.14-.79-.27-1.24-.38-.45-.11-.95-.16-1.51-.16-1.19,0-2.07.37-2.66,1.11-.58.74-.88,1.71-.88,2.92,0,1.28.27,2.27.82,2.97.55.7,1.51,1.05,2.88,1.05.49,0,1.01-.04,1.57-.14.56-.09,1.07-.23,1.54-.43l.57,3.29c-.47.2-1.05.37-1.75.51-.7.14-1.48.22-2.32.22-1.3,0-2.41-.19-3.35-.58-.94-.39-1.71-.91-2.31-1.58-.6-.67-1.04-1.45-1.32-2.36-.28-.91-.42-1.89-.42-2.96Z" style="fill: #a3ea2a; stroke-width: 0px;"/>
    <path d="m509.49,343.39l4.02-.65v4.18h4.83v3.35h-4.83v4.99c0,.85.15,1.52.45,2.02s.9.76,1.79.76c.43,0,.88-.04,1.34-.12.46-.08.88-.19,1.25-.34l.57,3.13c-.49.2-1.03.37-1.62.51-.59.14-1.32.22-2.19.22-1.1,0-2.01-.15-2.73-.45-.72-.3-1.3-.71-1.73-1.24-.43-.53-.73-1.17-.9-1.93-.17-.76-.26-1.59-.26-2.51v-11.93Z" style="fill: #a3ea2a; stroke-width: 0px;"/>
    <path d="m526.01,342.82c0,.74-.24,1.32-.72,1.74-.48.42-1.04.63-1.69.63s-1.21-.21-1.69-.63c-.48-.42-.72-1-.72-1.74s.24-1.32.72-1.74c.48-.42,1.04-.63,1.69-.63s1.21.21,1.69.63c.48.42.72,1,.72,1.74Zm-.38,18.3h-4.02v-14.2h4.02v14.2Z" style="fill: #a3ea2a; stroke-width: 0px;"/>
    <path d="m542.69,354c0,1.12-.16,2.14-.49,3.06-.32.93-.79,1.72-1.4,2.38-.61.66-1.35,1.17-2.2,1.52-.85.36-1.81.54-2.88.54s-1.99-.18-2.85-.54c-.85-.36-1.59-.87-2.2-1.52-.61-.66-1.09-1.45-1.43-2.38-.34-.93-.51-1.95-.51-3.06s.18-2.13.53-3.05c.35-.92.84-1.7,1.46-2.35.62-.65,1.36-1.15,2.21-1.51.85-.36,1.79-.54,2.79-.54s1.97.18,2.82.54c.85.36,1.59.86,2.2,1.51.61.65,1.09,1.43,1.43,2.35.34.92.51,1.94.51,3.05Zm-4.1,0c0-1.24-.25-2.22-.74-2.93-.5-.71-1.2-1.07-2.12-1.07s-1.63.36-2.13,1.07c-.5.71-.76,1.69-.76,2.93s.25,2.23.76,2.96c.5.73,1.21,1.09,2.13,1.09s1.62-.36,2.12-1.09c.49-.73.74-1.71.74-2.96Z" style="fill: #a3ea2a; stroke-width: 0px;"/>
    <path d="m545.79,347.41c.68-.2,1.57-.38,2.65-.55,1.08-.17,2.21-.26,3.4-.26s2.21.16,3.01.47c.8.31,1.44.76,1.9,1.34.47.58.8,1.26,1,2.05.2.79.3,1.67.3,2.65v8.02h-4.02v-7.53c0-1.3-.17-2.21-.51-2.75-.34-.54-.98-.81-1.92-.81-.29,0-.59.01-.92.04-.32.03-.61.06-.86.09v10.96h-4.02v-13.71Z" style="fill: #a3ea2a; stroke-width: 0px;"/>
    <path d="m572.05,361.13c-.92-1.8-1.86-3.9-2.8-6.32s-1.85-5.04-2.7-7.88h4.27c.18.7.39,1.46.64,2.28s.5,1.65.76,2.48c.26.84.52,1.65.79,2.44.26.79.52,1.51.77,2.16.23-.65.49-1.37.76-2.16s.54-1.61.8-2.44c.26-.84.51-1.66.76-2.48.24-.82.46-1.58.64-2.28h4.16c-.85,2.84-1.75,5.47-2.69,7.88-.95,2.41-1.88,4.52-2.8,6.32h-3.34Z" style="fill: #a3ea2a; stroke-width: 0px;"/>
    <path d="m587.42,342.82c0,.74-.24,1.32-.71,1.74-.48.42-1.04.63-1.69.63s-1.21-.21-1.69-.63c-.48-.42-.72-1-.72-1.74s.24-1.32.72-1.74c.48-.42,1.04-.63,1.69-.63s1.21.21,1.69.63c.48.42.71,1,.71,1.74Zm-.38,18.3h-4.02v-14.2h4.02v14.2Z" style="fill: #a3ea2a; stroke-width: 0px;"/>
    <path d="m595.92,346.55c1.19,0,2.18.14,2.97.4.79.27,1.43.66,1.9,1.16s.81,1.12,1.01,1.84.3,1.52.3,2.4v8.37c-.58.13-1.38.27-2.4.45s-2.27.26-3.73.26c-.92,0-1.75-.08-2.5-.24-.75-.16-1.39-.43-1.93-.8-.54-.37-.95-.85-1.24-1.44-.29-.59-.43-1.32-.43-2.19s.17-1.53.5-2.11c.33-.58.78-1.03,1.34-1.38s1.2-.59,1.92-.74c.72-.15,1.47-.23,2.24-.23.52,0,.99.02,1.39.07.41.04.73.1.99.18v-.38c0-.68-.21-1.23-.62-1.65-.42-.41-1.13-.62-2.16-.62-.68,0-1.36.05-2.02.15-.67.1-1.24.24-1.73.42l-.51-3.24c.23-.07.53-.15.88-.23.35-.08.73-.15,1.15-.22.41-.06.85-.12,1.31-.16.46-.04.92-.07,1.39-.07Zm.32,11.77c.4,0,.77,0,1.13-.03.36-.02.65-.04.86-.08v-3.05c-.16-.04-.4-.07-.73-.11-.32-.04-.62-.05-.89-.05-.38,0-.73.02-1.07.07s-.63.13-.88.26c-.25.13-.45.3-.59.51-.14.22-.22.49-.22.81,0,.63.21,1.07.63,1.31.42.24,1,.36,1.74.36Z" style="fill: #a3ea2a; stroke-width: 0px;"/>
    <path d="m623.78,342.42h4.21v18.71h-4.21v-7.94h-7.07v7.94h-4.21v-18.71h4.21v7.15h7.07v-7.15Z" style="fill: #a3ea2a; stroke-width: 0px;"/>
    <path d="m644.16,360.64c-.68.2-1.57.38-2.65.55s-2.21.26-3.4.26-2.21-.16-3.01-.49c-.8-.32-1.44-.78-1.9-1.36s-.8-1.28-1-2.09c-.2-.81-.3-1.7-.3-2.67v-7.91h4.02v7.42c0,1.3.17,2.23.51,2.81.34.58.98.86,1.92.86.29,0,.59-.01.92-.04.32-.03.61-.06.86-.09v-10.96h4.02v13.71Z" style="fill: #a3ea2a; stroke-width: 0px;"/>
    <path d="m647.94,347.41c.68-.2,1.57-.38,2.65-.55,1.08-.17,2.21-.26,3.4-.26s2.21.16,3.01.47c.8.31,1.43.76,1.9,1.34.47.58.8,1.26,1,2.05.2.79.3,1.67.3,2.65v8.02h-4.02v-7.53c0-1.3-.17-2.21-.51-2.75-.34-.54-.98-.81-1.92-.81-.29,0-.59.01-.92.04-.32.03-.61.06-.86.09v10.96h-4.02v-13.71Z" style="fill: #a3ea2a; stroke-width: 0px;"/>
    <path d="m663.7,343.39l4.02-.65v4.18h4.83v3.35h-4.83v4.99c0,.85.15,1.52.45,2.02s.9.76,1.8.76c.43,0,.88-.04,1.34-.12s.88-.19,1.25-.34l.57,3.13c-.49.2-1.03.37-1.62.51-.59.14-1.32.22-2.19.22-1.1,0-2.01-.15-2.73-.45s-1.29-.71-1.73-1.24c-.43-.53-.73-1.17-.9-1.93-.17-.76-.26-1.59-.26-2.51v-11.93Z" style="fill: #a3ea2a; stroke-width: 0px;"/>
    <path d="m680.22,342.82c0,.74-.24,1.32-.71,1.74-.48.42-1.04.63-1.69.63s-1.21-.21-1.69-.63c-.48-.42-.72-1-.72-1.74s.24-1.32.72-1.74c.48-.42,1.04-.63,1.69-.63s1.21.21,1.69.63c.48.42.71,1,.71,1.74Zm-.38,18.3h-4.02v-14.2h4.02v14.2Z" style="fill: #a3ea2a; stroke-width: 0px;"/>
    <path d="m683.62,347.41c.68-.2,1.57-.38,2.65-.55,1.08-.17,2.21-.26,3.4-.26s2.21.16,3.01.47c.8.31,1.43.76,1.9,1.34.47.58.8,1.26,1,2.05.2.79.3,1.67.3,2.65v8.02h-4.02v-7.53c0-1.3-.17-2.21-.51-2.75-.34-.54-.98-.81-1.92-.81-.29,0-.59.01-.92.04-.32.03-.61.06-.86.09v10.96h-4.02v-13.71Z" style="fill: #a3ea2a; stroke-width: 0px;"/>
    <path d="m711.77,359.34c0,2.32-.59,4.04-1.77,5.17-1.18,1.12-3,1.69-5.47,1.69-.86,0-1.73-.08-2.59-.23-.86-.15-1.67-.36-2.4-.61l.7-3.37c.63.25,1.29.45,1.98.59.69.14,1.48.22,2.36.22,1.15,0,1.97-.25,2.44-.76.48-.5.72-1.15.72-1.94v-.51c-.43.2-.88.35-1.34.45-.46.1-.96.15-1.5.15-1.96,0-3.46-.58-4.51-1.74-1.04-1.16-1.57-2.78-1.57-4.87,0-1.04.16-1.99.49-2.85.32-.85.8-1.59,1.42-2.2.62-.61,1.38-1.08,2.28-1.42.9-.33,1.92-.5,3.05-.5.49,0,.99.02,1.5.07s1.02.1,1.53.18c.5.07.99.16,1.44.26.46.1.87.2,1.23.31v11.93Zm-8.83-5.78c0,2.25.91,3.37,2.73,3.37.41,0,.8-.05,1.16-.16.36-.11.67-.23.92-.38v-6.42c-.2-.04-.43-.07-.7-.09-.27-.03-.58-.04-.95-.04-1.06,0-1.85.35-2.38,1.05-.52.7-.78,1.59-.78,2.67Z" style="fill: #a3ea2a; stroke-width: 0px;"/>
  </g>
  <rect x="409.05" y="528.16" width="322.04" height="147.56" rx="9.5" ry="9.5" style="fill: #1c2538; stroke-width: 0px;"/>
  <g>
    <path d="m432.68,610.76c-3.04,0-5.36-.85-6.95-2.54-1.59-1.69-2.39-4.09-2.39-7.21,0-1.55.24-2.93.73-4.14.49-1.21,1.15-2.24,2-3.08.85-.84,1.85-1.47,3.02-1.9,1.17-.43,2.44-.65,3.81-.65.79,0,1.51.06,2.16.18s1.21.25,1.7.4c.49.15.89.31,1.21.47.32.16.56.29.7.38l-1.21,3.4c-.58-.31-1.25-.57-2.01-.78-.77-.22-1.63-.32-2.6-.32-.65,0-1.28.11-1.9.32-.62.22-1.17.56-1.65,1.04-.48.48-.86,1.09-1.15,1.85-.29.76-.43,1.67-.43,2.75,0,.86.09,1.67.28,2.42.19.75.5,1.39.92,1.93s.98.97,1.66,1.28c.68.31,1.51.47,2.48.47.61,0,1.16-.04,1.65-.11s.92-.16,1.3-.26c.38-.1.71-.21,1-.34.29-.13.55-.24.78-.35l1.16,3.38c-.59.36-1.43.68-2.51.97-1.08.29-2.33.43-3.75.43Z" style="fill: #a3ea2a; stroke-width: 0px;"/>
    <path d="m454.33,603.26c0,1.12-.16,2.14-.49,3.06s-.79,1.72-1.4,2.38c-.61.66-1.35,1.17-2.2,1.53-.85.36-1.81.54-2.88.54s-1.99-.18-2.85-.54c-.85-.36-1.59-.87-2.2-1.53-.61-.66-1.09-1.45-1.43-2.38s-.51-1.95-.51-3.06.18-2.13.53-3.05c.35-.92.84-1.7,1.46-2.35.62-.65,1.36-1.15,2.21-1.51.85-.36,1.79-.54,2.79-.54s1.97.18,2.82.54c.85.36,1.59.86,2.2,1.51.61.65,1.09,1.43,1.43,2.35.34.92.51,1.93.51,3.05Zm-4.1,0c0-1.24-.25-2.22-.74-2.93-.5-.71-1.2-1.07-2.12-1.07s-1.63.36-2.13,1.07c-.5.71-.76,1.69-.76,2.93s.25,2.23.76,2.96c.5.73,1.21,1.09,2.13,1.09s1.62-.36,2.12-1.09c.49-.73.74-1.71.74-2.96Z" style="fill: #a3ea2a; stroke-width: 0px;"/>
    <path d="m457.44,596.67c.68-.2,1.57-.38,2.65-.55,1.08-.17,2.21-.26,3.4-.26s2.21.16,3.01.47c.8.31,1.44.76,1.9,1.34.47.58.8,1.26,1,2.05.2.79.3,1.67.3,2.64v8.02h-4.02v-7.53c0-1.3-.17-2.21-.51-2.75-.34-.54-.98-.81-1.92-.81-.29,0-.59.01-.92.04-.32.03-.61.06-.86.09v10.96h-4.02v-13.71Z" style="fill: #a3ea2a; stroke-width: 0px;"/>
    <path d="m473.2,592.65l4.02-.65v4.18h4.83v3.35h-4.83v4.99c0,.85.15,1.52.45,2.02s.9.76,1.79.76c.43,0,.88-.04,1.34-.12.46-.08.88-.19,1.25-.34l.57,3.13c-.49.2-1.03.37-1.62.51-.59.14-1.32.22-2.19.22-1.1,0-2.01-.15-2.73-.45-.72-.3-1.3-.71-1.73-1.24-.43-.53-.73-1.17-.9-1.93-.17-.76-.26-1.59-.26-2.51v-11.93Z" style="fill: #a3ea2a; stroke-width: 0px;"/>
    <path d="m489.72,592.08c0,.74-.24,1.32-.72,1.74-.48.42-1.04.63-1.69.63s-1.21-.21-1.69-.63c-.48-.42-.72-1-.72-1.74s.24-1.32.72-1.74c.48-.42,1.04-.63,1.69-.63s1.21.21,1.69.63c.48.42.72,1,.72,1.74Zm-.38,18.3h-4.02v-14.2h4.02v14.2Z" style="fill: #a3ea2a; stroke-width: 0px;"/>
    <path d="m493.12,596.67c.68-.2,1.57-.38,2.65-.55,1.08-.17,2.21-.26,3.4-.26s2.21.16,3.01.47c.8.31,1.44.76,1.9,1.34.47.58.8,1.26,1,2.05.2.79.3,1.67.3,2.64v8.02h-4.02v-7.53c0-1.3-.17-2.21-.51-2.75-.34-.54-.98-.81-1.92-.81-.29,0-.59.01-.92.04-.32.03-.61.06-.86.09v10.96h-4.02v-13.71Z" style="fill: #a3ea2a; stroke-width: 0px;"/>
    <path d="m521.14,609.9c-.68.2-1.57.38-2.65.55s-2.21.26-3.4.26-2.21-.16-3.01-.49-1.44-.78-1.9-1.36c-.47-.58-.8-1.28-1-2.09-.2-.81-.3-1.7-.3-2.67v-7.91h4.02v7.42c0,1.3.17,2.23.51,2.81.34.58.98.86,1.92.86.29,0,.59-.01.92-.04.32-.03.61-.06.86-.09v-10.96h4.02v13.71Z" style="fill: #a3ea2a; stroke-width: 0px;"/>
    <path d="m538.2,603.26c0,1.12-.16,2.14-.49,3.06s-.79,1.72-1.4,2.38c-.61.66-1.35,1.17-2.2,1.53-.85.36-1.81.54-2.88.54s-1.99-.18-2.85-.54c-.85-.36-1.59-.87-2.2-1.53-.61-.66-1.09-1.45-1.43-2.38s-.51-1.95-.51-3.06.18-2.13.53-3.05c.35-.92.84-1.7,1.46-2.35.62-.65,1.36-1.15,2.21-1.51.85-.36,1.79-.54,2.79-.54s1.97.18,2.82.54c.85.36,1.59.86,2.2,1.51.61.65,1.09,1.43,1.43,2.35.34.92.51,1.93.51,3.05Zm-4.1,0c0-1.24-.25-2.22-.74-2.93-.5-.71-1.2-1.07-2.12-1.07s-1.63.36-2.13,1.07c-.5.71-.76,1.69-.76,2.93s.25,2.23.76,2.96c.5.73,1.21,1.09,2.13,1.09s1.62-.36,2.12-1.09c.49-.73.74-1.71.74-2.96Z" style="fill: #a3ea2a; stroke-width: 0px;"/>
    <path d="m553.43,609.9c-.68.2-1.57.38-2.65.55s-2.21.26-3.4.26-2.21-.16-3.01-.49-1.44-.78-1.9-1.36c-.47-.58-.8-1.28-1-2.09-.2-.81-.3-1.7-.3-2.67v-7.91h4.02v7.42c0,1.3.17,2.23.51,2.81.34.58.98.86,1.92.86.29,0,.59-.01.92-.04.32-.03.61-.06.86-.09v-10.96h4.02v13.71Z" style="fill: #a3ea2a; stroke-width: 0px;"/>
    <path d="m561.28,607.5c.74,0,1.26-.07,1.57-.22.31-.14.46-.42.46-.84,0-.32-.2-.61-.59-.85-.4-.24-1-.52-1.81-.82-.63-.23-1.2-.48-1.71-.73-.51-.25-.95-.55-1.31-.9-.36-.35-.64-.77-.84-1.25-.2-.49-.3-1.07-.3-1.75,0-1.33.49-2.38,1.48-3.16.99-.77,2.35-1.16,4.08-1.16.86,0,1.69.08,2.48.23.79.15,1.42.32,1.89.5l-.7,3.13c-.47-.16-.97-.31-1.52-.43-.55-.13-1.17-.19-1.85-.19-1.26,0-1.89.35-1.89,1.05,0,.16.03.31.08.43.05.13.16.25.32.36s.38.24.66.38c.28.14.63.29,1.07.45.88.33,1.61.65,2.19.97.57.32,1.03.66,1.36,1.03.33.37.57.78.7,1.23.13.45.2.97.2,1.56,0,1.4-.53,2.46-1.58,3.18-1.05.72-2.54,1.08-4.47,1.08-1.26,0-2.31-.11-3.14-.32s-1.42-.4-1.74-.54l.67-3.27c.68.27,1.39.48,2.11.63.72.15,1.43.23,2.13.23Z" style="fill: #a3ea2a; stroke-width: 0px;"/>
    <path d="m582.01,591.68c.33.59.7,1.33,1.12,2.2.42.87.87,1.82,1.33,2.83.46,1.02.92,2.06,1.37,3.12.45,1.06.88,2.06,1.27,3,.4-.94.82-1.93,1.27-3,.45-1.06.91-2.1,1.37-3.12s.9-1.96,1.33-2.83c.42-.87.8-1.61,1.12-2.2h3.83c.18,1.24.35,2.63.5,4.17.15,1.54.29,3.14.4,4.8.12,1.67.22,3.33.32,5.01.1,1.67.18,3.25.26,4.72h-4.1c-.05-1.82-.13-3.8-.22-5.94s-.23-4.3-.41-6.48c-.33.76-.69,1.59-1.08,2.51-.4.92-.79,1.83-1.18,2.75s-.76,1.79-1.12,2.63c-.36.84-.67,1.55-.92,2.15h-2.94c-.25-.59-.56-1.31-.92-2.15-.36-.84-.74-1.71-1.12-2.63-.39-.92-.78-1.84-1.18-2.75-.4-.92-.76-1.75-1.08-2.51-.18,2.18-.32,4.34-.41,6.48s-.16,4.12-.22,5.94h-4.1c.07-1.48.16-3.05.26-4.72s.21-3.34.32-5.01c.12-1.66.25-3.27.4-4.8.15-1.54.32-2.93.5-4.17h4.02Z" style="fill: #a3ea2a; stroke-width: 0px;"/>
    <path d="m614.27,603.26c0,1.12-.16,2.14-.49,3.06s-.79,1.72-1.4,2.38c-.61.66-1.35,1.17-2.2,1.53-.86.36-1.81.54-2.88.54s-1.99-.18-2.85-.54c-.86-.36-1.59-.87-2.2-1.53-.61-.66-1.09-1.45-1.43-2.38s-.51-1.95-.51-3.06.18-2.13.53-3.05.84-1.7,1.46-2.35c.62-.65,1.36-1.15,2.21-1.51.85-.36,1.79-.54,2.79-.54s1.97.18,2.82.54c.85.36,1.59.86,2.2,1.51.61.65,1.09,1.43,1.43,2.35s.51,1.93.51,3.05Zm-4.1,0c0-1.24-.25-2.22-.74-2.93-.5-.71-1.2-1.07-2.12-1.07s-1.63.36-2.13,1.07-.76,1.69-.76,2.93.25,2.23.76,2.96c.5.73,1.21,1.09,2.13,1.09s1.62-.36,2.12-1.09c.49-.73.74-1.71.74-2.96Z" style="fill: #a3ea2a; stroke-width: 0px;"/>
    <path d="m617.37,596.67c.68-.2,1.57-.38,2.65-.55,1.08-.17,2.21-.26,3.4-.26s2.21.16,3.01.47c.8.31,1.43.76,1.9,1.34s.8,1.26,1,2.05.3,1.67.3,2.64v8.02h-4.02v-7.53c0-1.3-.17-2.21-.51-2.75-.34-.54-.98-.81-1.92-.81-.29,0-.59.01-.92.04-.32.03-.61.06-.86.09v10.96h-4.02v-13.71Z" style="fill: #a3ea2a; stroke-width: 0px;"/>
    <path d="m637.67,592.08c0,.74-.24,1.32-.71,1.74-.48.42-1.04.63-1.69.63s-1.21-.21-1.69-.63c-.48-.42-.72-1-.72-1.74s.24-1.32.72-1.74c.48-.42,1.04-.63,1.69-.63s1.21.21,1.69.63c.48.42.71,1,.71,1.74Zm-.38,18.3h-4.02v-14.2h4.02v14.2Z" style="fill: #a3ea2a; stroke-width: 0px;"/>
    <path d="m640.94,592.65l4.02-.65v4.18h4.83v3.35h-4.83v4.99c0,.85.15,1.52.45,2.02s.9.76,1.8.76c.43,0,.88-.04,1.34-.12.46-.08.88-.19,1.25-.34l.57,3.13c-.49.2-1.03.37-1.62.51-.59.14-1.32.22-2.19.22-1.1,0-2.01-.15-2.73-.45s-1.29-.71-1.73-1.24c-.43-.53-.73-1.17-.9-1.93s-.26-1.59-.26-2.51v-11.93Z" style="fill: #a3ea2a; stroke-width: 0px;"/>
    <path d="m665.8,603.26c0,1.12-.16,2.14-.49,3.06s-.79,1.72-1.4,2.38c-.61.66-1.35,1.17-2.2,1.53-.86.36-1.81.54-2.88.54s-1.99-.18-2.85-.54c-.86-.36-1.59-.87-2.2-1.53-.61-.66-1.09-1.45-1.43-2.38s-.51-1.95-.51-3.06.18-2.13.53-3.05.84-1.7,1.46-2.35c.62-.65,1.36-1.15,2.21-1.51.85-.36,1.79-.54,2.79-.54s1.97.18,2.82.54c.85.36,1.59.86,2.2,1.51.61.65,1.09,1.43,1.43,2.35s.51,1.93.51,3.05Zm-4.1,0c0-1.24-.25-2.22-.74-2.93-.5-.71-1.2-1.07-2.12-1.07s-1.63.36-2.13,1.07-.76,1.69-.76,2.93.25,2.23.76,2.96c.5.73,1.21,1.09,2.13,1.09s1.62-.36,2.12-1.09c.49-.73.74-1.71.74-2.96Z" style="fill: #a3ea2a; stroke-width: 0px;"/>
    <path d="m677.46,599.75c-.36-.09-.78-.18-1.27-.28-.49-.1-1.01-.15-1.57-.15-.25,0-.55.02-.9.07s-.62.09-.8.15v10.85h-4.02v-13.44c.72-.25,1.57-.49,2.55-.72.98-.22,2.07-.34,3.28-.34.22,0,.48.01.78.04s.61.06.92.11c.31.04.61.1.92.16.31.06.57.14.78.23l-.67,3.32Z" style="fill: #a3ea2a; stroke-width: 0px;"/>
    <path d="m684.69,592.08c0,.74-.24,1.32-.71,1.74-.48.42-1.04.63-1.69.63s-1.21-.21-1.69-.63c-.48-.42-.72-1-.72-1.74s.24-1.32.72-1.74c.48-.42,1.04-.63,1.69-.63s1.21.21,1.69.63c.48.42.71,1,.71,1.74Zm-.38,18.3h-4.02v-14.2h4.02v14.2Z" style="fill: #a3ea2a; stroke-width: 0px;"/>
    <path d="m688.09,596.67c.68-.2,1.57-.38,2.65-.55,1.08-.17,2.21-.26,3.4-.26s2.21.16,3.01.47c.8.31,1.43.76,1.9,1.34s.8,1.26,1,2.05.3,1.67.3,2.64v8.02h-4.02v-7.53c0-1.3-.17-2.21-.51-2.75-.34-.54-.98-.81-1.92-.81-.29,0-.59.01-.92.04-.32.03-.61.06-.86.09v10.96h-4.02v-13.71Z" style="fill: #a3ea2a; stroke-width: 0px;"/>
    <path d="m716.25,608.6c0,2.32-.59,4.04-1.77,5.17-1.18,1.12-3,1.69-5.47,1.69-.86,0-1.73-.08-2.59-.23-.86-.15-1.67-.36-2.4-.61l.7-3.37c.63.25,1.29.45,1.98.59.69.14,1.48.22,2.36.22,1.15,0,1.97-.25,2.44-.76.48-.5.72-1.15.72-1.94v-.51c-.43.2-.88.35-1.34.45-.46.1-.96.15-1.5.15-1.96,0-3.46-.58-4.51-1.74-1.04-1.16-1.57-2.79-1.57-4.87,0-1.04.16-1.99.49-2.85.32-.85.8-1.59,1.42-2.2.62-.61,1.38-1.08,2.28-1.42.9-.33,1.92-.5,3.05-.5.49,0,.99.02,1.5.07s1.02.1,1.53.18c.5.07.99.16,1.44.26.46.1.87.2,1.23.31v11.93Zm-8.83-5.78c0,2.25.91,3.38,2.73,3.38.41,0,.8-.05,1.16-.16.36-.11.67-.23.92-.38v-6.42c-.2-.04-.43-.07-.7-.09-.27-.03-.58-.04-.95-.04-1.06,0-1.85.35-2.38,1.05-.52.7-.78,1.59-.78,2.67Z" style="fill: #a3ea2a; stroke-width: 0px;"/>
  </g>
  <rect x="809.18" y="296.72" width="322.04" height="147.56" rx="9.5" ry="9.5" style="fill: #1c2538; stroke-width: 0px;"/>
  <g>
    <path d="m888.2,360.24v3.59h-5.64v15.12h-4.21v-15.12h-5.64v-3.59h15.49Z" style="fill: #a3ea2a; stroke-width: 0px;"/>
    <path d="m890.63,378.95v-20.3l4.02-.65v6.8c.27-.09.62-.18,1.04-.26.42-.08.83-.12,1.23-.12,1.15,0,2.11.16,2.88.47.76.31,1.38.76,1.84,1.34.46.58.78,1.26.97,2.05.19.79.28,1.67.28,2.65v8.02h-4.02v-7.53c0-1.3-.17-2.21-.5-2.75-.33-.54-.95-.81-1.85-.81-.36,0-.7.03-1.01.09-.31.06-.6.13-.85.2v10.8h-4.02Z" style="fill: #a3ea2a; stroke-width: 0px;"/>
    <path d="m915.08,368.31c-.36-.09-.78-.18-1.27-.28-.49-.1-1.01-.15-1.57-.15-.25,0-.55.02-.9.07-.35.05-.62.09-.8.15v10.85h-4.02v-13.44c.72-.25,1.57-.49,2.55-.72.98-.22,2.07-.34,3.28-.34.22,0,.48.01.78.04s.61.06.92.11c.31.05.61.1.92.16.31.06.57.14.78.23l-.67,3.32Z" style="fill: #a3ea2a; stroke-width: 0px;"/>
    <path d="m916.97,371.96c0-1.26.19-2.36.58-3.31.39-.94.9-1.73,1.53-2.36.63-.63,1.35-1.11,2.17-1.43.82-.32,1.66-.49,2.52-.49,2.01,0,3.61.62,4.78,1.85,1.17,1.23,1.75,3.05,1.75,5.44,0,.23,0,.49-.03.77-.02.28-.04.53-.05.74h-9.12c.09.83.48,1.48,1.16,1.97.68.49,1.6.73,2.75.73.74,0,1.46-.07,2.17-.2.71-.13,1.29-.3,1.74-.5l.54,3.27c-.22.11-.5.22-.86.32-.36.11-.76.2-1.2.28-.44.08-.91.15-1.42.2-.5.05-1.01.08-1.51.08-1.28,0-2.39-.19-3.33-.57-.94-.38-1.73-.9-2.35-1.55-.62-.66-1.08-1.43-1.38-2.33-.3-.9-.45-1.87-.45-2.92Zm9.45-1.54c-.02-.34-.08-.67-.17-1-.1-.32-.25-.61-.46-.86-.21-.25-.47-.46-.78-.62-.31-.16-.71-.24-1.17-.24s-.84.08-1.16.23c-.32.15-.59.36-.81.61s-.38.54-.5.88c-.12.33-.2.67-.26,1.01h5.32Z" style="fill: #a3ea2a; stroke-width: 0px;"/>
    <path d="m938.51,364.37c1.19,0,2.18.14,2.97.4.79.27,1.43.66,1.9,1.16s.81,1.12,1.01,1.84.3,1.52.3,2.4v8.37c-.58.13-1.38.27-2.4.45s-2.27.26-3.73.26c-.92,0-1.75-.08-2.5-.24-.75-.16-1.39-.43-1.93-.8-.54-.37-.95-.85-1.24-1.44-.29-.59-.43-1.32-.43-2.19s.17-1.53.5-2.11c.33-.58.78-1.03,1.34-1.38s1.2-.59,1.92-.74c.72-.15,1.47-.23,2.24-.23.52,0,.99.02,1.39.07.41.04.73.1.99.18v-.38c0-.68-.21-1.23-.62-1.65-.42-.41-1.13-.62-2.16-.62-.68,0-1.36.05-2.02.15-.67.1-1.24.24-1.73.42l-.51-3.24c.23-.07.53-.15.88-.23.35-.08.73-.15,1.15-.22.41-.06.85-.12,1.31-.16.46-.04.92-.07,1.39-.07Zm.32,11.77c.4,0,.77,0,1.13-.03.36-.02.65-.04.86-.08v-3.05c-.16-.04-.4-.07-.73-.11-.32-.04-.62-.05-.89-.05-.38,0-.73.02-1.07.07s-.63.13-.88.26c-.25.13-.45.3-.59.51-.14.22-.22.49-.22.81,0,.63.21,1.07.63,1.31.42.24,1,.36,1.74.36Z" style="fill: #a3ea2a; stroke-width: 0px;"/>
    <path d="m948.2,361.21l4.02-.65v4.18h4.83v3.35h-4.83v4.99c0,.85.15,1.52.45,2.02s.9.76,1.8.76c.43,0,.88-.04,1.34-.12s.88-.19,1.25-.34l.57,3.13c-.49.2-1.03.37-1.62.51-.59.14-1.32.22-2.19.22-1.1,0-2.01-.15-2.73-.45s-1.29-.71-1.73-1.24c-.43-.53-.73-1.17-.9-1.93-.17-.76-.26-1.59-.26-2.51v-11.93Z" style="fill: #a3ea2a; stroke-width: 0px;"/>
    <path d="m978.36,360.24h4.21v18.71h-4.21v-7.94h-7.07v7.94h-4.21v-18.71h4.21v7.15h7.07v-7.15Z" style="fill: #a3ea2a; stroke-width: 0px;"/>
    <path d="m998.74,378.46c-.68.2-1.57.38-2.65.55s-2.21.26-3.4.26-2.21-.16-3.01-.49c-.8-.32-1.44-.78-1.9-1.36s-.8-1.28-1-2.09c-.2-.81-.3-1.7-.3-2.67v-7.91h4.02v7.42c0,1.3.17,2.23.51,2.81.34.58.98.86,1.92.86.29,0,.59-.01.92-.04.32-.03.61-.06.86-.09v-10.96h4.02v13.71Z" style="fill: #a3ea2a; stroke-width: 0px;"/>
    <path d="m1002.51,365.23c.68-.2,1.57-.38,2.65-.55,1.08-.17,2.21-.26,3.4-.26s2.21.16,3.01.47c.8.31,1.43.76,1.9,1.34.47.58.8,1.26,1,2.05.2.79.3,1.67.3,2.65v8.02h-4.02v-7.53c0-1.3-.17-2.21-.51-2.75-.34-.54-.98-.81-1.92-.81-.29,0-.59.01-.92.04-.32.03-.61.06-.86.09v10.96h-4.02v-13.71Z" style="fill: #a3ea2a; stroke-width: 0px;"/>
    <path d="m1018.28,361.21l4.02-.65v4.18h4.83v3.35h-4.83v4.99c0,.85.15,1.52.45,2.02s.9.76,1.8.76c.43,0,.88-.04,1.34-.12s.88-.19,1.25-.34l.57,3.13c-.49.2-1.03.37-1.62.51-.59.14-1.32.22-2.19.22-1.1,0-2.01-.15-2.73-.45s-1.29-.71-1.73-1.24c-.43-.53-.73-1.17-.9-1.93-.17-.76-.26-1.59-.26-2.51v-11.93Z" style="fill: #a3ea2a; stroke-width: 0px;"/>
    <path d="m1034.8,360.65c0,.74-.24,1.32-.71,1.74-.48.42-1.04.63-1.69.63s-1.21-.21-1.69-.63c-.48-.42-.72-1-.72-1.74s.24-1.32.72-1.74c.48-.42,1.04-.63,1.69-.63s1.21.21,1.69.63c.48.42.71,1,.71,1.74Zm-.38,18.3h-4.02v-14.2h4.02v14.2Z" style="fill: #a3ea2a; stroke-width: 0px;"/>
    <path d="m1038.2,365.23c.68-.2,1.57-.38,2.65-.55,1.08-.17,2.21-.26,3.4-.26s2.21.16,3.01.47c.8.31,1.43.76,1.9,1.34.47.58.8,1.26,1,2.05.2.79.3,1.67.3,2.65v8.02h-4.02v-7.53c0-1.3-.17-2.21-.51-2.75-.34-.54-.98-.81-1.92-.81-.29,0-.59.01-.92.04-.32.03-.61.06-.86.09v10.96h-4.02v-13.71Z" style="fill: #a3ea2a; stroke-width: 0px;"/>
    <path d="m1066.35,377.17c0,2.32-.59,4.04-1.77,5.17-1.18,1.12-3,1.69-5.47,1.69-.86,0-1.73-.08-2.59-.23-.86-.15-1.67-.36-2.4-.61l.7-3.37c.63.25,1.29.45,1.98.59.69.14,1.48.22,2.36.22,1.15,0,1.97-.25,2.44-.76.48-.5.72-1.15.72-1.94v-.51c-.43.2-.88.35-1.34.45-.46.1-.96.15-1.5.15-1.96,0-3.46-.58-4.51-1.74-1.04-1.16-1.57-2.78-1.57-4.87,0-1.04.16-1.99.49-2.85.32-.85.8-1.59,1.42-2.2.62-.61,1.38-1.08,2.28-1.42.9-.33,1.92-.5,3.05-.5.49,0,.99.02,1.5.07s1.02.1,1.53.18c.5.07.99.16,1.44.26.46.1.87.2,1.23.31v11.93Zm-8.83-5.78c0,2.25.91,3.37,2.73,3.37.41,0,.8-.05,1.16-.16.36-.11.67-.23.92-.38v-6.42c-.2-.04-.43-.07-.7-.09-.27-.03-.58-.04-.95-.04-1.06,0-1.85.35-2.38,1.05-.52.7-.78,1.59-.78,2.67Z" style="fill: #a3ea2a; stroke-width: 0px;"/>
  </g>
  <rect x="8.78" y="305.36" width="322.04" height="147.56" rx="9.5" ry="9.5" style="fill: #1c2538; stroke-width: 0px;"/>
  <g>
    <path d="m54.07,368.88h4.21v18.71h-4.21v-18.71Z" style="fill: #a3ea2a; stroke-width: 0px;"/>
    <path d="m62.32,373.87c.68-.2,1.57-.38,2.65-.55,1.08-.17,2.21-.26,3.4-.26s2.21.16,3.01.47c.8.31,1.44.76,1.9,1.34.47.58.8,1.26,1,2.05.2.79.3,1.67.3,2.65v8.02h-4.02v-7.53c0-1.3-.17-2.21-.51-2.75-.34-.54-.98-.81-1.92-.81-.29,0-.59.01-.92.04-.32.03-.61.06-.86.09v10.96h-4.02v-13.71Z" style="fill: #a3ea2a; stroke-width: 0px;"/>
    <path d="m77.55,380.49c0-1.03.17-1.99.5-2.9s.81-1.7,1.44-2.38,1.39-1.21,2.29-1.61c.9-.4,1.93-.59,3.08-.59.76,0,1.45.07,2.08.2.63.13,1.24.33,1.84.58l-.84,3.21c-.38-.14-.79-.27-1.24-.38-.45-.11-.95-.16-1.51-.16-1.19,0-2.07.37-2.66,1.11-.58.74-.88,1.71-.88,2.92,0,1.28.27,2.27.82,2.97.55.7,1.51,1.05,2.88,1.05.49,0,1.01-.04,1.57-.14.56-.09,1.07-.23,1.54-.43l.57,3.29c-.47.2-1.05.37-1.75.51-.7.14-1.48.22-2.32.22-1.3,0-2.41-.19-3.35-.58-.94-.39-1.71-.91-2.31-1.58-.6-.67-1.04-1.45-1.32-2.36-.28-.91-.42-1.89-.42-2.96Z" style="fill: #a3ea2a; stroke-width: 0px;"/>
    <path d="m96.12,369.29c0,.74-.24,1.32-.72,1.74-.48.42-1.04.63-1.69.63s-1.21-.21-1.69-.63c-.48-.42-.72-1-.72-1.74s.24-1.32.72-1.74c.48-.42,1.04-.63,1.69-.63s1.21.21,1.69.63c.48.42.72,1,.72,1.74Zm-.38,18.3h-4.02v-14.2h4.02v14.2Z" style="fill: #a3ea2a; stroke-width: 0px;"/>
    <path d="m112.05,387.13c-.36.11-.77.21-1.24.31-.47.1-.96.18-1.47.26-.51.07-1.04.13-1.57.18-.53.04-1.04.07-1.53.07-1.17,0-2.21-.17-3.13-.51-.92-.34-1.69-.83-2.32-1.47-.63-.64-1.11-1.41-1.44-2.32-.33-.91-.5-1.93-.5-3.06s.14-2.19.43-3.12c.29-.93.7-1.71,1.24-2.36.54-.65,1.2-1.14,1.98-1.48.78-.34,1.68-.51,2.69-.51.56,0,1.06.05,1.5.16s.89.26,1.34.46v-6.42l4.02-.65v20.49Zm-9.1-6.75c0,1.24.28,2.24.84,3,.56.76,1.39,1.13,2.48,1.13.36,0,.69-.01,1-.04.31-.03.56-.06.76-.09v-7.31c-.25-.16-.58-.3-.99-.41-.4-.11-.81-.16-1.23-.16-1.91,0-2.86,1.3-2.86,3.89Z" style="fill: #a3ea2a; stroke-width: 0px;"/>
    <path d="m115.15,380.6c0-1.26.19-2.36.58-3.31.39-.94.9-1.73,1.53-2.36s1.35-1.11,2.17-1.43c.82-.32,1.66-.49,2.52-.49,2.02,0,3.61.62,4.78,1.85,1.17,1.23,1.75,3.05,1.75,5.44,0,.23,0,.49-.03.77-.02.28-.04.53-.05.74h-9.12c.09.83.48,1.48,1.16,1.97.68.49,1.6.73,2.75.73.74,0,1.46-.07,2.17-.2.71-.13,1.29-.3,1.74-.5l.54,3.27c-.22.11-.5.22-.86.32-.36.11-.76.2-1.2.28-.44.08-.91.15-1.42.2-.5.05-1.01.08-1.51.08-1.28,0-2.39-.19-3.33-.57s-1.73-.9-2.35-1.55c-.62-.66-1.08-1.43-1.38-2.33-.3-.9-.45-1.87-.45-2.92Zm9.45-1.54c-.02-.34-.08-.67-.18-1-.1-.32-.25-.61-.46-.86-.21-.25-.47-.46-.78-.62-.31-.16-.71-.24-1.17-.24s-.84.08-1.16.23c-.32.15-.59.36-.81.61s-.38.54-.5.88c-.12.33-.2.67-.26,1.01h5.32Z" style="fill: #a3ea2a; stroke-width: 0px;"/>
    <path d="m131.59,373.87c.68-.2,1.57-.38,2.65-.55,1.08-.17,2.21-.26,3.4-.26s2.21.16,3.01.47c.8.31,1.44.76,1.9,1.34.47.58.8,1.26,1,2.05.2.79.3,1.67.3,2.65v8.02h-4.02v-7.53c0-1.3-.17-2.21-.51-2.75-.34-.54-.98-.81-1.92-.81-.29,0-.59.01-.92.04-.32.03-.61.06-.86.09v10.96h-4.02v-13.71Z" style="fill: #a3ea2a; stroke-width: 0px;"/>
    <path d="m147.35,369.85l4.02-.65v4.18h4.83v3.35h-4.83v4.99c0,.85.15,1.52.45,2.02s.9.76,1.79.76c.43,0,.88-.04,1.34-.12.46-.08.88-.19,1.25-.34l.57,3.13c-.49.2-1.03.37-1.62.51-.59.14-1.32.22-2.19.22-1.1,0-2.01-.15-2.73-.45-.72-.3-1.3-.71-1.73-1.24-.43-.53-.73-1.17-.9-1.93-.17-.76-.26-1.59-.26-2.51v-11.93Z" style="fill: #a3ea2a; stroke-width: 0px;"/>
    <path d="m171.7,368.67c2.81,0,4.96.5,6.45,1.5,1.49,1,2.24,2.55,2.24,4.66,0,1.31-.3,2.38-.9,3.2-.6.82-1.47,1.46-2.6,1.93.38.47.77,1,1.19,1.61.41.6.82,1.23,1.23,1.89.4.66.8,1.34,1.17,2.05s.73,1.41,1.05,2.09h-4.71c-.34-.61-.69-1.23-1.04-1.86-.35-.63-.71-1.24-1.08-1.84-.37-.59-.74-1.16-1.1-1.69-.36-.53-.72-1.01-1.08-1.44h-2.08v6.83h-4.21v-18.44c.92-.18,1.87-.31,2.85-.38.98-.07,1.86-.11,2.63-.11Zm.24,3.59c-.31,0-.58,0-.82.03-.24.02-.47.04-.69.05v5.07h1.19c1.58,0,2.72-.2,3.4-.59.68-.4,1.03-1.07,1.03-2.02s-.35-1.57-1.04-1.96c-.69-.39-1.71-.58-3.06-.58Z" style="fill: #a3ea2a; stroke-width: 0px;"/>
    <path d="m182.61,380.6c0-1.26.19-2.36.58-3.31.39-.94.9-1.73,1.53-2.36s1.35-1.11,2.17-1.43c.82-.32,1.66-.49,2.52-.49,2.02,0,3.61.62,4.78,1.85,1.17,1.23,1.75,3.05,1.75,5.44,0,.23,0,.49-.03.77-.02.28-.04.53-.05.74h-9.12c.09.83.48,1.48,1.16,1.97.68.49,1.6.73,2.75.73.74,0,1.46-.07,2.17-.2.71-.13,1.29-.3,1.74-.5l.54,3.27c-.22.11-.5.22-.86.32-.36.11-.76.2-1.2.28-.44.08-.91.15-1.42.2-.5.05-1.01.08-1.51.08-1.28,0-2.39-.19-3.33-.57s-1.73-.9-2.35-1.55c-.62-.66-1.08-1.43-1.38-2.33-.3-.9-.45-1.87-.45-2.92Zm9.45-1.54c-.02-.34-.08-.67-.18-1-.1-.32-.25-.61-.46-.86-.21-.25-.47-.46-.78-.62-.31-.16-.71-.24-1.17-.24s-.84.08-1.16.23c-.32.15-.59.36-.81.61s-.38.54-.5.88c-.12.33-.2.67-.26,1.01h5.32Z" style="fill: #a3ea2a; stroke-width: 0px;"/>
    <path d="m203.12,384.7c.74,0,1.26-.07,1.57-.22.31-.14.46-.42.46-.84,0-.32-.2-.61-.59-.85-.4-.24-1-.52-1.81-.82-.63-.23-1.2-.48-1.71-.73-.51-.25-.95-.55-1.31-.9-.36-.35-.64-.77-.84-1.26-.2-.49-.3-1.07-.3-1.75,0-1.33.49-2.38,1.48-3.16.99-.77,2.35-1.16,4.08-1.16.86,0,1.69.08,2.48.23.79.15,1.42.32,1.89.5l-.7,3.13c-.47-.16-.98-.31-1.53-.43-.55-.13-1.17-.19-1.85-.19-1.26,0-1.89.35-1.89,1.05,0,.16.03.31.08.43.05.13.16.25.32.36.16.12.38.24.66.38.28.14.63.29,1.07.45.88.33,1.61.65,2.19.97.58.32,1.03.66,1.36,1.03.33.37.57.78.7,1.23s.2.97.2,1.56c0,1.4-.53,2.46-1.58,3.18-1.05.72-2.54,1.08-4.47,1.08-1.26,0-2.31-.11-3.14-.32-.84-.22-1.42-.4-1.74-.54l.67-3.27c.68.27,1.39.48,2.11.63s1.43.23,2.13.23Z" style="fill: #a3ea2a; stroke-width: 0px;"/>
    <path d="m225.34,380.49c0,1.1-.13,2.1-.4,3-.27.9-.67,1.67-1.19,2.32-.52.65-1.17,1.15-1.94,1.51-.77.36-1.66.54-2.67.54-.56,0-1.08-.05-1.57-.16s-.95-.26-1.4-.46v5.34h-4.02v-18.71c.36-.11.77-.21,1.24-.31.47-.1.96-.18,1.47-.26.51-.07,1.03-.13,1.57-.18s1.04-.07,1.53-.07c1.17,0,2.21.18,3.13.53.92.35,1.69.85,2.32,1.48.63.64,1.11,1.42,1.44,2.33.33.92.5,1.94.5,3.08Zm-4.1.11c0-1.24-.28-2.24-.84-2.98-.56-.75-1.39-1.12-2.48-1.12-.36,0-.69.01-1,.04-.31.03-.56.06-.76.09v7.26c.25.16.58.3.99.4.4.11.81.16,1.23.16,1.91,0,2.86-1.29,2.86-3.86Z" style="fill: #a3ea2a; stroke-width: 0px;"/>
    <path d="m241.72,380.46c0,1.12-.16,2.14-.49,3.06-.32.93-.79,1.72-1.4,2.38-.61.66-1.35,1.17-2.2,1.52-.85.36-1.81.54-2.88.54s-1.99-.18-2.85-.54c-.85-.36-1.59-.87-2.2-1.52-.61-.66-1.09-1.45-1.43-2.38-.34-.93-.51-1.95-.51-3.06s.18-2.13.53-3.05c.35-.92.84-1.7,1.46-2.35.62-.65,1.36-1.15,2.21-1.51.85-.36,1.79-.54,2.79-.54s1.97.18,2.82.54c.85.36,1.59.86,2.2,1.51.61.65,1.09,1.43,1.43,2.35.34.92.51,1.94.51,3.05Zm-4.1,0c0-1.24-.25-2.22-.74-2.93-.5-.71-1.2-1.07-2.12-1.07s-1.63.36-2.13,1.07c-.5.71-.76,1.69-.76,2.93s.25,2.23.76,2.96c.5.73,1.21,1.09,2.13,1.09s1.62-.36,2.12-1.09c.49-.73.74-1.71.74-2.96Z" style="fill: #a3ea2a; stroke-width: 0px;"/>
    <path d="m244.83,373.87c.68-.2,1.57-.38,2.65-.55,1.08-.17,2.21-.26,3.4-.26s2.21.16,3.01.47c.8.31,1.44.76,1.9,1.34.47.58.8,1.26,1,2.05.2.79.3,1.67.3,2.65v8.02h-4.02v-7.53c0-1.3-.17-2.21-.51-2.75-.34-.54-.98-.81-1.92-.81-.29,0-.59.01-.92.04-.32.03-.61.06-.86.09v10.96h-4.02v-13.71Z" style="fill: #a3ea2a; stroke-width: 0px;"/>
    <path d="m264.8,384.7c.74,0,1.26-.07,1.57-.22.31-.14.46-.42.46-.84,0-.32-.2-.61-.59-.85-.4-.24-1-.52-1.81-.82-.63-.23-1.2-.48-1.71-.73-.51-.25-.95-.55-1.31-.9-.36-.35-.64-.77-.84-1.26-.2-.49-.3-1.07-.3-1.75,0-1.33.49-2.38,1.48-3.16.99-.77,2.35-1.16,4.08-1.16.86,0,1.69.08,2.48.23.79.15,1.42.32,1.89.5l-.7,3.13c-.47-.16-.98-.31-1.53-.43-.55-.13-1.17-.19-1.85-.19-1.26,0-1.89.35-1.89,1.05,0,.16.03.31.08.43.05.13.16.25.32.36.16.12.38.24.66.38.28.14.63.29,1.07.45.88.33,1.61.65,2.19.97.58.32,1.03.66,1.36,1.03.33.37.57.78.7,1.23s.2.97.2,1.56c0,1.4-.53,2.46-1.58,3.18-1.05.72-2.54,1.08-4.47,1.08-1.26,0-2.31-.11-3.14-.32-.84-.22-1.42-.4-1.74-.54l.67-3.27c.68.27,1.39.48,2.11.63s1.43.23,2.13.23Z" style="fill: #a3ea2a; stroke-width: 0px;"/>
    <path d="m273.14,380.6c0-1.26.19-2.36.58-3.31.39-.94.9-1.73,1.53-2.36s1.35-1.11,2.17-1.43c.82-.32,1.66-.49,2.52-.49,2.02,0,3.61.62,4.78,1.85,1.17,1.23,1.75,3.05,1.75,5.44,0,.23,0,.49-.03.77-.02.28-.04.53-.05.74h-9.12c.09.83.48,1.48,1.16,1.97.68.49,1.6.73,2.75.73.74,0,1.46-.07,2.17-.2.71-.13,1.29-.3,1.74-.5l.54,3.27c-.22.11-.5.22-.86.32-.36.11-.76.2-1.2.28-.44.08-.91.15-1.42.2-.5.05-1.01.08-1.51.08-1.28,0-2.39-.19-3.33-.57s-1.73-.9-2.35-1.55c-.62-.66-1.08-1.43-1.38-2.33-.3-.9-.45-1.87-.45-2.92Zm9.45-1.54c-.02-.34-.08-.67-.18-1-.1-.32-.25-.61-.46-.86-.21-.25-.47-.46-.78-.62-.31-.16-.71-.24-1.17-.24s-.84.08-1.16.23c-.32.15-.59.36-.81.61s-.38.54-.5.88c-.12.33-.2.67-.26,1.01h5.32Z" style="fill: #a3ea2a; stroke-width: 0px;"/>
  </g>
  <rect x="141.72" y="655.84" width="226.53" height="71.94" rx="5.56" ry="5.56" style="fill: #1c2538; stroke-width: 0px;"/>
  <g>
    <path d="m209.31,690.88c0,1.62-.25,3.03-.76,4.24-.5,1.21-1.22,2.21-2.15,3-.93.79-2.06,1.39-3.39,1.78s-2.83.59-4.48.59c-.76,0-1.64-.03-2.65-.09-1.01-.06-2-.19-2.97-.39v-18.22c.97-.18,1.98-.3,3.04-.36,1.05-.06,1.96-.09,2.71-.09,1.6,0,3.05.18,4.36.54,1.3.36,2.42.93,3.36,1.7.94.77,1.66,1.76,2.16,2.97.5,1.21.76,2.65.76,4.35Zm-12.17,5.94c.2.02.43.03.69.04s.57.01.93.01c2.11,0,3.67-.53,4.68-1.59s1.53-2.53,1.53-4.4-.49-3.45-1.46-4.45c-.97-1.01-2.51-1.51-4.62-1.51-.29,0-.58,0-.89.01-.31,0-.59.03-.86.07v11.82Z" style="fill: #a3ea2a; stroke-width: 0px;"/>
    <path d="m211.88,693.26c0-1.26.19-2.36.58-3.31.39-.95.9-1.73,1.53-2.36.63-.63,1.35-1.11,2.17-1.43s1.66-.49,2.52-.49c2.02,0,3.61.62,4.78,1.85,1.17,1.23,1.75,3.05,1.75,5.44,0,.23,0,.49-.03.77-.02.28-.04.53-.05.74h-9.12c.09.83.48,1.48,1.16,1.97.68.49,1.6.73,2.75.73.74,0,1.46-.07,2.17-.2.71-.14,1.29-.3,1.74-.5l.54,3.27c-.22.11-.5.22-.86.32-.36.11-.76.2-1.2.28-.44.08-.91.15-1.42.2s-1.01.08-1.51.08c-1.28,0-2.39-.19-3.33-.57-.94-.38-1.73-.9-2.35-1.55-.62-.66-1.08-1.43-1.38-2.33-.3-.9-.45-1.87-.45-2.92Zm9.45-1.54c-.02-.34-.08-.67-.18-1-.1-.32-.25-.61-.46-.86-.21-.25-.47-.46-.78-.62s-.71-.24-1.17-.24-.84.08-1.16.23c-.32.15-.59.36-.81.61-.22.25-.38.54-.5.88-.12.33-.2.67-.26,1.01h5.32Z" style="fill: #a3ea2a; stroke-width: 0px;"/>
    <path d="m228.18,682.51l4.02-.65v4.18h4.83v3.35h-4.83v4.99c0,.85.15,1.52.45,2.02s.9.76,1.79.76c.43,0,.88-.04,1.34-.12.46-.08.88-.19,1.25-.34l.57,3.13c-.49.2-1.03.37-1.62.51-.59.14-1.32.22-2.19.22-1.1,0-2.01-.15-2.73-.45-.72-.3-1.3-.71-1.73-1.24-.43-.53-.73-1.17-.9-1.93-.17-.76-.26-1.59-.26-2.51v-11.93Z" style="fill: #a3ea2a; stroke-width: 0px;"/>
    <path d="m239.09,693.26c0-1.26.19-2.36.58-3.31.39-.95.9-1.73,1.53-2.36.63-.63,1.35-1.11,2.17-1.43s1.66-.49,2.52-.49c2.02,0,3.61.62,4.78,1.85,1.17,1.23,1.75,3.05,1.75,5.44,0,.23,0,.49-.03.77-.02.28-.04.53-.05.74h-9.12c.09.83.48,1.48,1.16,1.97.68.49,1.6.73,2.75.73.74,0,1.46-.07,2.17-.2.71-.14,1.29-.3,1.74-.5l.54,3.27c-.22.11-.5.22-.86.32-.36.11-.76.2-1.2.28-.44.08-.91.15-1.42.2s-1.01.08-1.51.08c-1.28,0-2.39-.19-3.33-.57-.94-.38-1.73-.9-2.35-1.55-.62-.66-1.08-1.43-1.38-2.33-.3-.9-.45-1.87-.45-2.92Zm9.45-1.54c-.02-.34-.08-.67-.18-1-.1-.32-.25-.61-.46-.86-.21-.25-.47-.46-.78-.62s-.71-.24-1.17-.24-.84.08-1.16.23c-.32.15-.59.36-.81.61-.22.25-.38.54-.5.88-.12.33-.2.67-.26,1.01h5.32Z" style="fill: #a3ea2a; stroke-width: 0px;"/>
    <path d="m254.85,693.15c0-1.03.17-1.99.5-2.9.33-.91.81-1.7,1.44-2.38s1.39-1.21,2.29-1.61,1.93-.59,3.08-.59c.76,0,1.45.07,2.08.2s1.24.33,1.84.58l-.84,3.21c-.38-.14-.79-.27-1.24-.38-.45-.11-.95-.16-1.51-.16-1.19,0-2.07.37-2.66,1.11-.58.74-.88,1.71-.88,2.92,0,1.28.27,2.27.82,2.97.55.7,1.51,1.05,2.88,1.05.49,0,1.01-.04,1.57-.13.56-.09,1.07-.23,1.54-.43l.57,3.29c-.47.2-1.05.37-1.75.51-.7.14-1.48.22-2.32.22-1.3,0-2.41-.19-3.35-.58-.94-.39-1.71-.91-2.31-1.58s-1.04-1.45-1.32-2.36c-.28-.91-.42-1.89-.42-2.96Z" style="fill: #a3ea2a; stroke-width: 0px;"/>
    <path d="m268.89,682.51l4.02-.65v4.18h4.83v3.35h-4.83v4.99c0,.85.15,1.52.45,2.02s.9.76,1.79.76c.43,0,.88-.04,1.34-.12.46-.08.88-.19,1.25-.34l.57,3.13c-.49.2-1.03.37-1.62.51-.59.14-1.32.22-2.19.22-1.1,0-2.01-.15-2.73-.45-.72-.3-1.3-.71-1.73-1.24-.43-.53-.73-1.17-.9-1.93-.17-.76-.26-1.59-.26-2.51v-11.93Z" style="fill: #a3ea2a; stroke-width: 0px;"/>
    <path d="m285.41,681.95c0,.74-.24,1.32-.72,1.74-.48.42-1.04.63-1.69.63s-1.21-.21-1.69-.63c-.48-.42-.72-1-.72-1.74s.24-1.32.72-1.74c.48-.42,1.04-.63,1.69-.63s1.21.21,1.69.63c.48.42.72,1,.72,1.74Zm-.38,18.3h-4.02v-14.2h4.02v14.2Z" style="fill: #a3ea2a; stroke-width: 0px;"/>
    <path d="m302.09,693.12c0,1.12-.16,2.14-.49,3.06s-.79,1.72-1.4,2.38c-.61.66-1.35,1.17-2.2,1.53-.85.36-1.81.54-2.88.54s-1.99-.18-2.85-.54c-.85-.36-1.59-.87-2.2-1.53-.61-.66-1.09-1.45-1.43-2.38s-.51-1.95-.51-3.06.18-2.13.53-3.05c.35-.92.84-1.7,1.46-2.35.62-.65,1.36-1.15,2.21-1.51.85-.36,1.79-.54,2.79-.54s1.97.18,2.82.54c.85.36,1.59.86,2.2,1.51.61.65,1.09,1.43,1.43,2.35.34.92.51,1.93.51,3.05Zm-4.1,0c0-1.24-.25-2.22-.74-2.93-.5-.71-1.2-1.07-2.12-1.07s-1.63.36-2.13,1.07c-.5.71-.76,1.69-.76,2.93s.25,2.23.76,2.96c.5.73,1.21,1.09,2.13,1.09s1.62-.36,2.12-1.09c.49-.73.74-1.71.74-2.96Z" style="fill: #a3ea2a; stroke-width: 0px;"/>
    <path d="m305.2,686.54c.68-.2,1.57-.38,2.65-.55,1.08-.17,2.21-.26,3.4-.26s2.21.16,3.01.47c.8.31,1.44.76,1.9,1.34.47.58.8,1.26,1,2.05.2.79.3,1.67.3,2.64v8.02h-4.02v-7.53c0-1.3-.17-2.21-.51-2.75-.34-.54-.98-.81-1.92-.81-.29,0-.59.01-.92.04-.32.03-.61.06-.86.09v10.96h-4.02v-13.71Z" style="fill: #a3ea2a; stroke-width: 0px;"/>
  </g>
  <rect x="809.18" y="664.28" width="226.53" height="71.94" rx="5.56" ry="5.56" style="fill: #1c2538; stroke-width: 0px;"/>
  <g>
    <path d="m876.78,683.13c0,1.62-.25,3.03-.76,4.24-.5,1.21-1.22,2.21-2.15,3-.93.79-2.06,1.39-3.39,1.78s-2.83.59-4.48.59c-.76,0-1.64-.03-2.65-.09-1.01-.06-2-.19-2.97-.39v-18.22c.97-.18,1.98-.3,3.04-.36,1.05-.06,1.96-.09,2.71-.09,1.6,0,3.05.18,4.36.54,1.3.36,2.42.93,3.36,1.7.94.77,1.66,1.76,2.16,2.97.5,1.21.76,2.65.76,4.35Zm-12.17,5.94c.2.02.43.03.69.04s.57.01.93.01c2.11,0,3.67-.53,4.68-1.59,1.02-1.06,1.52-2.53,1.52-4.4s-.49-3.45-1.46-4.45-2.51-1.51-4.62-1.51c-.29,0-.58,0-.89.01-.31,0-.59.03-.86.07v11.82Z" style="fill: #a3ea2a; stroke-width: 0px;"/>
    <path d="m879.34,685.5c0-1.26.19-2.36.58-3.31.39-.95.9-1.73,1.53-2.36s1.35-1.11,2.17-1.43c.82-.32,1.66-.49,2.52-.49,2.01,0,3.61.62,4.78,1.85s1.75,3.05,1.75,5.44c0,.23,0,.49-.03.77-.02.28-.04.53-.05.74h-9.12c.09.83.48,1.48,1.16,1.97.68.49,1.6.73,2.75.73.74,0,1.46-.07,2.17-.2.71-.14,1.29-.3,1.74-.5l.54,3.27c-.22.11-.5.22-.86.32-.36.11-.76.2-1.2.28-.44.08-.91.15-1.42.2s-1.01.08-1.51.08c-1.28,0-2.39-.19-3.33-.57-.94-.38-1.73-.9-2.35-1.55-.62-.66-1.08-1.43-1.38-2.33-.3-.9-.45-1.87-.45-2.92Zm9.45-1.54c-.02-.34-.08-.67-.17-1-.1-.32-.25-.61-.46-.86-.21-.25-.47-.46-.78-.62s-.71-.24-1.17-.24-.84.08-1.16.23c-.32.15-.59.36-.81.61-.22.25-.38.54-.5.88-.12.33-.2.67-.26,1.01h5.32Z" style="fill: #a3ea2a; stroke-width: 0px;"/>
    <path d="m895.64,674.76l4.02-.65v4.18h4.83v3.35h-4.83v4.99c0,.85.15,1.52.45,2.02s.9.76,1.8.76c.43,0,.88-.04,1.34-.12.46-.08.88-.19,1.25-.34l.57,3.13c-.49.2-1.03.37-1.62.51-.59.14-1.32.22-2.19.22-1.1,0-2.01-.15-2.73-.45s-1.29-.71-1.73-1.24c-.43-.53-.73-1.17-.9-1.93s-.26-1.59-.26-2.51v-11.93Z" style="fill: #a3ea2a; stroke-width: 0px;"/>
    <path d="m906.55,685.5c0-1.26.19-2.36.58-3.31.39-.95.9-1.73,1.53-2.36s1.35-1.11,2.17-1.43c.82-.32,1.66-.49,2.52-.49,2.01,0,3.61.62,4.78,1.85s1.75,3.05,1.75,5.44c0,.23,0,.49-.03.77-.02.28-.04.53-.05.74h-9.12c.09.83.48,1.48,1.16,1.97.68.49,1.6.73,2.75.73.74,0,1.46-.07,2.17-.2.71-.14,1.29-.3,1.74-.5l.54,3.27c-.22.11-.5.22-.86.32-.36.11-.76.2-1.2.28-.44.08-.91.15-1.42.2s-1.01.08-1.51.08c-1.28,0-2.39-.19-3.33-.57-.94-.38-1.73-.9-2.35-1.55-.62-.66-1.08-1.43-1.38-2.33-.3-.9-.45-1.87-.45-2.92Zm9.45-1.54c-.02-.34-.08-.67-.17-1-.1-.32-.25-.61-.46-.86-.21-.25-.47-.46-.78-.62s-.71-.24-1.17-.24-.84.08-1.16.23c-.32.15-.59.36-.81.61-.22.25-.38.54-.5.88-.12.33-.2.67-.26,1.01h5.32Z" style="fill: #a3ea2a; stroke-width: 0px;"/>
    <path d="m922.31,685.39c0-1.03.17-1.99.5-2.9.33-.91.81-1.7,1.44-2.38s1.39-1.21,2.29-1.61c.9-.4,1.92-.59,3.08-.59.76,0,1.45.07,2.08.2s1.24.33,1.84.58l-.84,3.21c-.38-.14-.79-.27-1.24-.38-.45-.11-.95-.16-1.51-.16-1.19,0-2.07.37-2.66,1.11-.58.74-.88,1.71-.88,2.92,0,1.28.27,2.27.82,2.97s1.51,1.05,2.88,1.05c.49,0,1.01-.04,1.57-.13s1.07-.23,1.54-.43l.57,3.29c-.47.2-1.05.37-1.75.51-.7.14-1.48.22-2.32.22-1.3,0-2.41-.19-3.35-.58s-1.71-.91-2.31-1.58c-.6-.67-1.04-1.45-1.32-2.36-.28-.91-.42-1.89-.42-2.96Z" style="fill: #a3ea2a; stroke-width: 0px;"/>
    <path d="m936.35,674.76l4.02-.65v4.18h4.83v3.35h-4.83v4.99c0,.85.15,1.52.45,2.02s.9.76,1.8.76c.43,0,.88-.04,1.34-.12.46-.08.88-.19,1.25-.34l.57,3.13c-.49.2-1.03.37-1.62.51-.59.14-1.32.22-2.19.22-1.1,0-2.01-.15-2.73-.45s-1.29-.71-1.73-1.24c-.43-.53-.73-1.17-.9-1.93s-.26-1.59-.26-2.51v-11.93Z" style="fill: #a3ea2a; stroke-width: 0px;"/>
    <path d="m952.87,674.19c0,.74-.24,1.32-.71,1.74-.48.42-1.04.63-1.69.63s-1.21-.21-1.69-.63c-.48-.42-.72-1-.72-1.74s.24-1.32.72-1.74c.48-.42,1.04-.63,1.69-.63s1.21.21,1.69.63c.48.42.71,1,.71,1.74Zm-.38,18.3h-4.02v-14.2h4.02v14.2Z" style="fill: #a3ea2a; stroke-width: 0px;"/>
    <path d="m969.55,685.37c0,1.12-.16,2.14-.49,3.06s-.79,1.72-1.4,2.38c-.61.66-1.35,1.17-2.2,1.53-.86.36-1.81.54-2.88.54s-1.99-.18-2.85-.54c-.86-.36-1.59-.87-2.2-1.53-.61-.66-1.09-1.45-1.43-2.38s-.51-1.95-.51-3.06.18-2.13.53-3.05.84-1.7,1.46-2.35c.62-.65,1.36-1.15,2.21-1.51.85-.36,1.79-.54,2.79-.54s1.97.18,2.82.54c.85.36,1.59.86,2.2,1.51.61.65,1.09,1.43,1.43,2.35s.51,1.93.51,3.05Zm-4.1,0c0-1.24-.25-2.22-.74-2.93-.5-.71-1.2-1.07-2.12-1.07s-1.63.36-2.13,1.07-.76,1.69-.76,2.93.25,2.23.76,2.96c.5.73,1.21,1.09,2.13,1.09s1.62-.36,2.12-1.09c.49-.73.74-1.71.74-2.96Z" style="fill: #a3ea2a; stroke-width: 0px;"/>
    <path d="m972.66,678.78c.68-.2,1.57-.38,2.65-.55,1.08-.17,2.21-.26,3.4-.26s2.21.16,3.01.47c.8.31,1.43.76,1.9,1.34s.8,1.26,1,2.05.3,1.67.3,2.64v8.02h-4.02v-7.53c0-1.3-.17-2.21-.51-2.75-.34-.54-.98-.81-1.92-.81-.29,0-.59.01-.92.04-.32.03-.61.06-.86.09v10.96h-4.02v-13.71Z" style="fill: #a3ea2a; stroke-width: 0px;"/>
    <path d="m857.39,706.18c.33.59.7,1.33,1.12,2.2.42.87.87,1.82,1.33,2.83.46,1.02.92,2.06,1.37,3.12.45,1.06.88,2.06,1.27,3,.4-.94.82-1.93,1.27-3,.45-1.06.91-2.1,1.37-3.12s.9-1.96,1.33-2.83c.42-.87.8-1.61,1.12-2.2h3.83c.18,1.24.35,2.63.5,4.17.15,1.54.29,3.14.4,4.8.12,1.67.22,3.33.32,5.01.1,1.67.18,3.25.26,4.72h-4.1c-.05-1.82-.13-3.8-.22-5.94s-.23-4.3-.41-6.48c-.33.76-.69,1.59-1.08,2.51-.4.92-.79,1.83-1.18,2.75s-.76,1.79-1.12,2.63c-.36.84-.67,1.55-.92,2.15h-2.94c-.25-.59-.56-1.31-.92-2.15-.36-.84-.74-1.71-1.12-2.63-.39-.92-.78-1.84-1.18-2.75-.4-.92-.76-1.75-1.08-2.51-.18,2.18-.32,4.34-.41,6.48s-.16,4.12-.22,5.94h-4.1c.07-1.48.16-3.05.26-4.72s.21-3.34.32-5.01c.12-1.66.25-3.27.4-4.8.15-1.54.32-2.93.5-4.17h4.02Z" style="fill: #a3ea2a; stroke-width: 0px;"/>
    <path d="m875.7,717.9c0-1.26.19-2.36.58-3.31.39-.95.9-1.73,1.53-2.36s1.35-1.11,2.17-1.43c.82-.32,1.66-.49,2.52-.49,2.01,0,3.61.62,4.78,1.85s1.75,3.05,1.75,5.44c0,.23,0,.49-.03.77-.02.28-.04.53-.05.74h-9.12c.09.83.48,1.48,1.16,1.97.68.49,1.6.73,2.75.73.74,0,1.46-.07,2.17-.2.71-.14,1.29-.3,1.74-.5l.54,3.27c-.22.11-.5.22-.86.32-.36.11-.76.2-1.2.28-.44.08-.91.15-1.42.2s-1.01.08-1.51.08c-1.28,0-2.39-.19-3.33-.57-.94-.38-1.73-.9-2.35-1.55-.62-.66-1.08-1.43-1.38-2.33-.3-.9-.45-1.87-.45-2.92Zm9.45-1.54c-.02-.34-.08-.67-.17-1-.1-.32-.25-.61-.46-.86-.21-.25-.47-.46-.78-.62s-.71-.24-1.17-.24-.84.08-1.16.23c-.32.15-.59.36-.81.61-.22.25-.38.54-.5.88-.12.33-.2.67-.26,1.01h5.32Z" style="fill: #a3ea2a; stroke-width: 0px;"/>
    <path d="m891.46,717.79c0-1.03.17-1.99.5-2.9.33-.91.81-1.7,1.44-2.38s1.39-1.21,2.29-1.61c.9-.4,1.92-.59,3.08-.59.76,0,1.45.07,2.08.2s1.24.33,1.84.58l-.84,3.21c-.38-.14-.79-.27-1.24-.38-.45-.11-.95-.16-1.51-.16-1.19,0-2.07.37-2.66,1.11-.58.74-.88,1.71-.88,2.92,0,1.28.27,2.27.82,2.97s1.51,1.05,2.88,1.05c.49,0,1.01-.04,1.57-.13s1.07-.23,1.54-.43l.57,3.29c-.47.2-1.05.37-1.75.51-.7.14-1.48.22-2.32.22-1.3,0-2.41-.19-3.35-.58s-1.71-.91-2.31-1.58c-.6-.67-1.04-1.45-1.32-2.36-.28-.91-.42-1.89-.42-2.96Z" style="fill: #a3ea2a; stroke-width: 0px;"/>
    <path d="m905.63,724.89v-20.3l4.02-.65v6.8c.27-.09.62-.18,1.04-.26.42-.08.83-.12,1.23-.12,1.15,0,2.11.16,2.88.47.76.31,1.38.76,1.84,1.34s.78,1.26.97,2.05c.19.79.28,1.67.28,2.64v8.02h-4.02v-7.53c0-1.3-.17-2.21-.5-2.75-.33-.54-.95-.81-1.85-.81-.36,0-.7.03-1.01.09-.31.06-.6.13-.85.2v10.8h-4.02Z" style="fill: #a3ea2a; stroke-width: 0px;"/>
    <path d="m926.63,710.31c1.19,0,2.18.13,2.97.4.79.27,1.43.66,1.9,1.16s.81,1.12,1.01,1.83c.2.72.3,1.52.3,2.4v8.37c-.58.13-1.38.28-2.4.45-1.03.17-2.27.26-3.73.26-.92,0-1.75-.08-2.5-.24-.75-.16-1.39-.43-1.93-.8s-.95-.85-1.24-1.44c-.29-.59-.43-1.32-.43-2.19s.17-1.53.5-2.11c.33-.58.78-1.03,1.34-1.38.56-.34,1.2-.59,1.92-.74.72-.15,1.47-.23,2.24-.23.52,0,.99.02,1.39.07.41.05.73.1.99.18v-.38c0-.68-.21-1.23-.62-1.65-.42-.41-1.13-.62-2.16-.62-.68,0-1.36.05-2.02.15-.67.1-1.24.24-1.73.42l-.51-3.24c.23-.07.53-.15.88-.23.35-.08.73-.15,1.15-.22.41-.06.85-.12,1.31-.16s.92-.07,1.39-.07Zm.32,11.77c.4,0,.77,0,1.13-.03.36-.02.65-.04.86-.08v-3.05c-.16-.04-.4-.07-.73-.11s-.62-.05-.89-.05c-.38,0-.73.02-1.07.07-.33.05-.63.13-.88.26-.25.13-.45.3-.59.51-.14.22-.22.49-.22.81,0,.63.21,1.07.63,1.31s1,.36,1.74.36Z" style="fill: #a3ea2a; stroke-width: 0px;"/>
    <path d="m936.46,711.17c.68-.2,1.57-.38,2.65-.55,1.08-.17,2.21-.26,3.4-.26s2.21.16,3.01.47c.8.31,1.43.76,1.9,1.34s.8,1.26,1,2.05.3,1.67.3,2.64v8.02h-4.02v-7.53c0-1.3-.17-2.21-.51-2.75-.34-.54-.98-.81-1.92-.81-.29,0-.59.01-.92.04-.32.03-.61.06-.86.09v10.96h-4.02v-13.71Z" style="fill: #a3ea2a; stroke-width: 0px;"/>
    <path d="m956.76,706.58c0,.74-.24,1.32-.71,1.74-.48.42-1.04.63-1.69.63s-1.21-.21-1.69-.63c-.48-.42-.72-1-.72-1.74s.24-1.32.72-1.74c.48-.42,1.04-.63,1.69-.63s1.21.21,1.69.63c.48.42.71,1,.71,1.74Zm-.38,18.3h-4.02v-14.2h4.02v14.2Z" style="fill: #a3ea2a; stroke-width: 0px;"/>
    <path d="m964.23,722c.74,0,1.26-.07,1.57-.22.31-.14.46-.42.46-.84,0-.32-.2-.61-.59-.85-.4-.24-1-.52-1.81-.82-.63-.23-1.2-.48-1.71-.73-.51-.25-.95-.55-1.31-.9-.36-.35-.64-.77-.84-1.25-.2-.49-.3-1.07-.3-1.75,0-1.33.5-2.38,1.48-3.16.99-.77,2.35-1.16,4.08-1.16.86,0,1.69.08,2.48.23.79.15,1.42.32,1.89.5l-.7,3.13c-.47-.16-.98-.31-1.52-.43-.55-.13-1.17-.19-1.85-.19-1.26,0-1.89.35-1.89,1.05,0,.16.03.31.08.43.05.13.16.25.32.36s.38.24.66.38.63.29,1.07.45c.88.33,1.61.65,2.19.97.58.32,1.03.66,1.36,1.03s.57.78.7,1.23c.13.45.2.97.2,1.56,0,1.4-.53,2.46-1.58,3.18-1.05.72-2.54,1.08-4.47,1.08-1.26,0-2.31-.11-3.14-.32s-1.42-.4-1.74-.54l.67-3.27c.68.27,1.39.48,2.11.63.72.15,1.43.23,2.13.23Z" style="fill: #a3ea2a; stroke-width: 0px;"/>
    <path d="m981.05,717.36c0-1.3-.17-2.21-.5-2.75-.33-.54-.9-.81-1.71-.81-.25,0-.51.01-.78.04-.27.03-.53.06-.78.09v10.96h-4.02v-13.71c.34-.09.74-.18,1.2-.28s.94-.19,1.46-.27c.51-.08,1.04-.14,1.58-.19.54-.04,1.07-.07,1.59-.07,1.03,0,1.86.13,2.5.39s1.17.57,1.58.93c.58-.41,1.24-.74,1.98-.97.75-.23,1.43-.35,2.07-.35,1.13,0,2.06.16,2.79.47.73.31,1.31.76,1.74,1.34.43.58.73,1.26.89,2.05.16.79.24,1.67.24,2.64v8.02h-4.02v-7.53c0-1.3-.17-2.21-.5-2.75-.33-.54-.9-.81-1.71-.81-.22,0-.52.05-.9.16-.39.11-.71.24-.96.41.13.41.21.85.24,1.31.04.46.05.95.05,1.47v7.75h-4.02v-7.53Z" style="fill: #a3ea2a; stroke-width: 0px;"/>
  </g>
  <g id="arrow_styles_for_diagrams_etc-13" data-name="arrow styles for diagrams etc">
    <g id="arrow_styles_for_diagrams_etc-14" data-name="arrow styles for diagrams etc">
      <g id="arrow_styles_for_diagrams_etc-15" data-name="arrow styles for diagrams etc">
        <path d="m409.52,451.66l33.37-19.19c.99-.56,2.22.14,2.22,1.28v9.9h290.74c2.96,0,5.36,2.4,5.36,5.36v7.86c0,2.95-2.39,5.34-5.34,5.34h-290.75v9.9c0,1.14-1.23,1.85-2.22,1.28l-33.37-19.19c-.99-.56-.99-1.98,0-2.54Z" style="fill: url(#linear-gradient-5); stroke-width: 0px;"/>
      </g>
    </g>
  </g>
  <g id="Artwork_35" data-name="Artwork 35">
    <g>
      <path id="cloud" d="m450.31,80.82c-.52-2.73-2.95-4.8-5.87-4.8h-1.05c-.79-3.9-4.21-6.76-8.24-6.76s-7.47,2.87-8.25,6.79c-2.99.32-5.33,2.83-5.33,5.88,0,3.26,2.68,5.92,5.97,5.92h8.84c.46-.02.83-.41.81-.88-.02-.44-.37-.8-.81-.81h-8.84c-2.36,0-4.28-1.9-4.28-4.22s1.92-4.22,4.28-4.22c.87,0,1.73.26,2.44.77.34.24.8.21,1.09-.08h0c.33-.33.33-.85,0-1.19h0s-.07-.07-.1-.09c-.71-.5-1.51-.84-2.36-1,.72-3,3.39-5.17,6.53-5.17,3.32,0,6.12,2.43,6.63,5.69-.26.14-.52.29-.77.46-.38.27-.47.8-.2,1.18.03.04.06.08.09.11h0c.29.29.76.33,1.09.08.71-.51,1.57-.78,2.44-.77,2.08,0,3.82,1.48,4.2,3.42.08.4.42.69.83.69h0c.46,0,.84-.37.85-.84h0c.01-.06.01-.12,0-.17Z" style="fill: #fff; stroke-width: 0px;"/>
      <g id="numbers">
        <path d="m439.78,86.47h-.73v-2.32s.02-.36.02-.36c-.08.08-.17.16-.25.24l-.4.32-.35-.44,1.11-.88h.6v3.43Z" style="fill: #fff; stroke-width: 0px;"/>
        <path d="m443.12,84.75c0,.6-.1,1.05-.3,1.33s-.5.43-.91.43-.69-.15-.9-.45-.3-.74-.3-1.32.1-1.05.29-1.35.5-.43.9-.43.69.15.9.45c.21.3.31.74.31,1.32Zm-1.68,0c0,.42.04.72.11.91s.2.28.37.28.29-.09.37-.28.11-.49.11-.91-.04-.73-.12-.91-.2-.28-.36-.28-.29.09-.37.28-.11.49-.11.91Z" style="fill: #fff; stroke-width: 0px;"/>
        <path d="m439.78,91.69h-.73v-2.32s.02-.36.02-.36c-.08.08-.17.16-.25.24l-.4.32-.35-.44,1.11-.88h.6v3.43Z" style="fill: #fff; stroke-width: 0px;"/>
        <path d="m442.53,91.69h-.73v-2.32s.02-.36.02-.36c-.08.08-.17.16-.25.24l-.4.32-.35-.44,1.11-.88h.6v3.43h.01Z" style="fill: #fff; stroke-width: 0px;"/>
        <path d="m445.29,91.69h-.73v-2.32s.02-.36.02-.36c-.08.08-.17.16-.25.24l-.4.32-.35-.44,1.11-.88h.6v3.43Z" style="fill: #fff; stroke-width: 0px;"/>
        <path d="m448.62,89.97c0,.6-.1,1.05-.3,1.33s-.5.44-.91.44-.69-.15-.9-.45-.3-.74-.3-1.32.1-1.05.29-1.35.5-.43.9-.43.69.15.9.45c.21.3.32.74.31,1.32Zm-1.68,0c0,.42.04.72.11.91s.19.28.37.28.29-.09.37-.28.11-.49.11-.9-.04-.73-.12-.91-.2-.28-.36-.28-.29.09-.37.28-.11.48-.11.9Z" style="fill: #fff; stroke-width: 0px;"/>
        <path d="m450.2,94.1c0,.44-.07.76-.21.97s-.36.31-.66.31-.51-.11-.65-.33-.22-.53-.22-.96.07-.77.21-.98c.14-.21.36-.31.66-.31s.51.11.66.33.22.54.21.96Zm-1.22,0c0,.31.03.53.08.66.03.12.14.2.27.2s.21-.07.26-.2.08-.35.08-.66-.03-.53-.08-.66-.14-.2-.26-.2-.21.07-.26.2-.08.35-.08.66h0Z" style="fill: #fff; stroke-width: 0px;"/>
        <path d="m451.77,95.35h-.53v-1.69s.02-.26.02-.26c-.09.09-.15.14-.18.17l-.29.23-.25-.32.8-.64h.44v2.5h0Z" style="fill: #fff; stroke-width: 0px;"/>
        <path d="m439.63,94.13c0,.43-.07.74-.21.95s-.36.31-.65.31-.5-.1-.64-.32-.21-.52-.21-.94.07-.75.21-.95.35-.31.64-.31.5.1.64.32.22.53.22.94Zm-1.2,0c0,.3.03.52.08.64.03.12.14.2.26.19.12,0,.21-.07.26-.2s.08-.35.08-.64-.03-.52-.08-.64-.14-.2-.26-.2-.21.07-.26.2-.09.35-.08.65h0Z" style="fill: #fff; stroke-width: 0px;"/>
        <path d="m441.17,95.35h-.52v-1.65s.02-.25.02-.25c-.09.09-.14.14-.18.17l-.28.23-.25-.31.79-.63h.42v2.45Z" style="fill: #fff; stroke-width: 0px;"/>
        <path d="m443.55,94.13c0,.43-.07.74-.21.95s-.36.31-.65.31-.5-.1-.64-.32-.21-.52-.21-.94.07-.75.21-.95.35-.31.64-.31.5.1.64.32.22.53.22.94Zm-1.2,0c0,.3.03.52.08.64.03.12.14.2.26.19.13,0,.21-.07.26-.2s.08-.35.08-.64-.03-.52-.08-.64-.14-.2-.26-.2-.21.07-.26.2-.09.35-.08.65h0Z" style="fill: #fff; stroke-width: 0px;"/>
        <path d="m445.09,95.35h-.52v-1.65s.02-.25.02-.25c-.09.09-.15.14-.18.17l-.28.23-.25-.31.79-.63h.42v2.45Z" style="fill: #fff; stroke-width: 0px;"/>
        <path d="m439.12,97.25c0,.31-.05.53-.15.68s-.25.22-.47.22c-.18.01-.36-.08-.46-.23-.1-.15-.15-.38-.15-.68,0-.31.05-.54.15-.69s.25-.22.46-.22c.18-.01.36.08.46.23.1.16.15.39.15.68Zm-.87,0c0,.21.02.37.06.46.03.1.13.16.24.13h0c.07-.02.12-.07.13-.13.04-.09.06-.25.06-.46,0-.16-.01-.32-.06-.47-.03-.1-.13-.16-.23-.14h-.01c-.07.02-.12.07-.13.13-.04.16-.06.31-.05.47Z" style="fill: #fff; stroke-width: 0px;"/>
        <path d="m440.22,98.13h-.37v-1.19s.01-.18.01-.18c-.06.06-.1.1-.13.12l-.2.16-.18-.22.57-.45h.3v1.76Z" style="fill: #fff; stroke-width: 0px;"/>
        <path d="m444.01,99.45c0,.31-.05.53-.15.68s-.26.22-.47.22c-.18.01-.36-.08-.46-.23-.1-.15-.15-.38-.15-.68s.05-.54.15-.69.25-.22.46-.22c.18-.01.36.08.46.23.11.16.16.39.16.68Zm-.86,0c0,.21.02.37.06.46.03.1.13.16.23.14h.01c.07-.02.12-.07.13-.13.04-.09.06-.25.06-.46,0-.16-.01-.32-.06-.47-.02-.08-.1-.14-.19-.14s-.17.06-.19.14c-.03.09-.05.24-.05.46Z" style="fill: #fff; stroke-width: 0px;"/>
        <path d="m445.12,100.33h-.37v-1.19s.01-.18.01-.18c-.06.06-.1.1-.13.12l-.2.17-.18-.23.57-.45h.31v1.76Z" style="fill: #fff; stroke-width: 0px;"/>
        <path d="m448.05,96.9c0,.43-.07.74-.21.95s-.36.31-.65.31-.5-.1-.64-.32-.21-.52-.21-.94.07-.75.21-.95.35-.31.64-.31.5.1.64.32.22.53.22.94Zm-1.2,0c0,.3.03.52.08.64.03.12.14.2.26.19.12,0,.21-.07.26-.2s.08-.35.08-.64-.03-.52-.08-.65-.14-.2-.26-.2-.21.07-.26.2-.08.36-.08.66h0Z" style="fill: #fff; stroke-width: 0px;"/>
        <path d="m449.6,98.13h-.52v-1.65s.02-.25.02-.25c-.09.09-.14.14-.18.17l-.28.23-.25-.31.79-.63h.42v2.45h0Z" style="fill: #fff; stroke-width: 0px;"/>
        <path d="m451.97,96.9c0,.43-.07.74-.21.95s-.36.31-.65.31-.5-.1-.64-.32-.21-.52-.21-.94.07-.75.21-.95.35-.31.64-.31.5.1.64.32.22.53.22.94Zm-1.2,0c0,.3.03.52.08.64.03.12.14.2.26.19.12,0,.21-.07.26-.2s.08-.35.08-.64-.03-.52-.08-.65-.14-.2-.26-.2-.21.07-.26.2-.08.36-.08.66h0Z" style="fill: #fff; stroke-width: 0px;"/>
        <path d="m448.21,86.47h-.73v-2.32s.02-.36.02-.36c-.08.08-.17.16-.25.24l-.4.32-.35-.44,1.11-.88h.6v3.43h0Z" style="fill: #fff; stroke-width: 0px;"/>
        <path d="m451.55,84.75c0,.6-.1,1.05-.3,1.33s-.5.43-.91.43-.69-.15-.9-.45-.3-.74-.3-1.32.1-1.05.29-1.35.5-.43.9-.43.69.15.9.45.31.74.31,1.32Zm-1.69,0c0,.42.04.72.11.91s.2.28.37.28.29-.09.37-.28.11-.49.11-.91-.04-.73-.12-.91-.2-.28-.36-.28-.29.09-.37.28-.11.49-.11.91h0Z" style="fill: #fff; stroke-width: 0px;"/>
      </g>
    </g>
  </g>
</svg>