<?xml version="1.0" encoding="UTF-8"?>
<svg id="Layer_1" xmlns="http://www.w3.org/2000/svg" viewBox="0 0 1076.15 605.07"><defs><style>.cls-1{fill:#223654;}.cls-1,.cls-2{stroke-width:0px;}.cls-3{fill:none;}.cls-3,.cls-4{stroke:#a3ea2a;stroke-miterlimit:10;stroke-width:13px;}.cls-4,.cls-2{fill:#fff;}</style></defs><line class="cls-4" x1="232.78" y1="302.54" x2="352.68" y2="302.54"/><polyline class="cls-3" points="450.49 128.51 352.68 128.51 352.68 476.56 450.49 476.56"/><line class="cls-4" x1="450.49" y1="302.54" x2="352.68" y2="302.54"/><polyline class="cls-3" points="856.16 62.17 786.07 62.17 786.07 194.85 856.16 194.85"/><polyline class="cls-3" points="858.1 410.22 786.07 410.22 786.07 542.9 858.1 542.9"/><rect class="cls-1" x="12.26" y="250.19" width="220.52" height="104.68" rx="22.12" ry="22.12"/><rect class="cls-1" x="433.6" y="250.19" width="220.52" height="104.68" rx="22.12" ry="22.12"/><rect class="cls-1" x="433.6" y="424.22" width="220.52" height="104.68" rx="22.12" ry="22.12"/><rect class="cls-1" x="433.6" y="76.17" width="220.52" height="104.68" rx="22.12" ry="22.12"/><rect class="cls-1" x="848.04" y="142.51" width="220.52" height="104.68" rx="22.12" ry="22.12"/><rect class="cls-1" x="848.04" y="9.82" width="220.52" height="104.68" rx="22.12" ry="22.12"/><rect class="cls-1" x="848.04" y="490.56" width="220.52" height="104.68" rx="22.12" ry="22.12"/><rect class="cls-1" x="848.04" y="357.88" width="220.52" height="104.68" rx="22.12" ry="22.12"/><path class="cls-2" d="M59.3,285.16h-4.25v-3.12h12.22v3.12h-4.25v12.5h-3.72v-12.5Z"/><path class="cls-2" d="M68.59,301.98l.65-2.74c.38.1.55.12.79.12,1.15,0,1.73-.6,2.02-1.46l.17-.58-4.58-11.59h3.72l1.63,4.94c.34,1.1.6,2.21.91,3.38h.1c.26-1.13.5-2.26.82-3.38l1.37-4.94h3.55l-4.1,11.95c-1.18,3.07-2.45,4.58-5.3,4.58-.77,0-1.25-.1-1.73-.29Z"/><path class="cls-2" d="M81.53,285.73h3.02l.26,1.15h.1c.91-.84,2.11-1.44,3.34-1.44,2.88,0,4.66,2.38,4.66,6.05,0,4.1-2.42,6.46-4.99,6.46-1.03,0-1.97-.43-2.81-1.22l.12,1.85v3.46h-3.7v-16.3ZM89.09,291.54c0-2.09-.62-3.07-1.94-3.07-.7,0-1.27.31-1.92,1.01v4.73c.6.53,1.22.7,1.8.7,1.15,0,2.06-.94,2.06-3.36Z"/><path class="cls-2" d="M94.65,291.69c0-3.86,2.78-6.24,5.64-6.24,3.46,0,5.14,2.5,5.14,5.74,0,.67-.07,1.3-.14,1.63h-7.03c.34,1.61,1.46,2.3,2.98,2.3.86,0,1.73-.26,2.57-.74l1.2,2.23c-1.25.89-2.88,1.34-4.3,1.34-3.41,0-6.05-2.28-6.05-6.26ZM102.26,290.32c0-1.18-.53-2.06-1.87-2.06-1.06,0-1.94.67-2.18,2.06h4.06Z"/><path class="cls-2" d="M106.77,296.15l1.56-2.09c1.1.86,2.18,1.15,3.12,1.15,1.01,0,1.42-.36,1.42-.94,0-.72-1.01-1.03-2.28-1.51-1.7-.62-3.14-1.7-3.14-3.55,0-2.26,1.82-3.77,4.61-3.77,1.75,0,3.24.65,4.27,1.51l-1.58,2.09c-.86-.62-1.75-.86-2.57-.86-.86,0-1.27.34-1.27.86,0,.62.67.91,2.18,1.39,1.82.58,3.26,1.66,3.26,3.62,0,2.18-1.73,3.89-4.97,3.89-1.58,0-3.41-.62-4.61-1.8Z"/><path class="cls-2" d="M122.64,291.69c0-3.96,2.81-6.24,5.83-6.24s5.86,2.28,5.86,6.24-2.81,6.26-5.86,6.26-5.83-2.3-5.83-6.26ZM130.51,291.69c0-1.97-.65-3.26-2.04-3.26s-2.04,1.3-2.04,3.26.65,3.26,2.04,3.26,2.04-1.27,2.04-3.26Z"/><path class="cls-2" d="M137.18,288.64h-1.58v-2.78l1.58-.1v-.5c0-2.52,1.18-4.66,4.51-4.66,1.03,0,1.9.22,2.42.43l-.7,2.64c-.41-.12-.79-.17-1.2-.17-.82,0-1.32.46-1.32,1.63v.6h2.11v2.9h-2.11v9.02h-3.72v-9.02Z"/><path class="cls-2" d="M148.99,295.67l1.97-2.42c1.1.96,2.62,1.49,3.94,1.49,1.42,0,2.06-.53,2.06-1.37,0-.91-.84-1.2-2.21-1.75l-1.99-.86c-1.66-.65-3.17-2.02-3.17-4.27,0-2.62,2.35-4.73,5.66-4.73,1.87,0,3.72.7,5.06,1.94l-1.94,2.42c-1.06-.74-2.14-1.15-3.12-1.15-1.15,0-1.9.46-1.9,1.27,0,.91.98,1.22,2.38,1.78l1.94.79c1.94.77,3.1,2.06,3.1,4.25,0,2.62-2.18,4.9-5.95,4.9-2.11,0-4.2-.72-5.83-2.28Z"/><path class="cls-2" d="M168.1,297.78c-3.29-.72-5.45-3.6-5.45-7.99,0-5.14,2.9-8.04,7.15-8.04s7.15,2.93,7.15,8.04c0,4.15-1.92,6.94-4.92,7.85.72,1.08,2.11,1.46,3.41,1.46.67,0,1.27-.1,1.75-.24l.65,2.66c-.6.31-1.58.55-2.83.55-3.41,0-5.76-1.8-6.91-4.3ZM173.14,289.79c0-3.05-1.27-4.82-3.34-4.82s-3.34,1.78-3.34,4.82c0,3.24,1.3,5.11,3.34,5.11s3.34-1.87,3.34-5.11Z"/><path class="cls-2" d="M179.85,282.04h3.74v12.51h6.07v3.12h-9.82v-15.63Z"/><path class="cls-2" d="M77.02,310.84h3.74v15.62h-3.74v-15.62Z"/><path class="cls-2" d="M84.07,314.53h3.02l.26,1.49h.1c.98-.96,2.18-1.78,3.82-1.78,2.59,0,3.7,1.85,3.7,4.82v7.39h-3.72v-6.91c0-1.66-.43-2.16-1.39-2.16-.84,0-1.34.41-2.09,1.08v7.99h-3.7v-11.93Z"/><path class="cls-2" d="M95.09,330.78l.65-2.74c.34.1.62.14.91.14.94,0,1.25-.55,1.25-1.87v-11.79h3.72v11.67c0,2.64-1.01,4.92-4.37,4.92-1.03,0-1.66-.14-2.16-.34ZM97.68,310.93c0-1.15.86-1.9,2.09-1.9s2.09.74,2.09,1.9-.86,1.92-2.09,1.92-2.09-.74-2.09-1.92Z"/><path class="cls-2" d="M103.97,320.49c0-3.86,2.78-6.24,5.64-6.24,3.46,0,5.14,2.5,5.14,5.74,0,.67-.07,1.3-.14,1.63h-7.03c.34,1.61,1.46,2.3,2.98,2.3.86,0,1.73-.26,2.57-.74l1.2,2.23c-1.25.89-2.88,1.34-4.3,1.34-3.41,0-6.05-2.28-6.05-6.26ZM111.58,319.12c0-1.18-.53-2.06-1.87-2.06-1.06,0-1.94.67-2.18,2.06h4.06Z"/><path class="cls-2" d="M116.45,320.49c0-3.96,2.95-6.24,6.26-6.24,1.46,0,2.59.5,3.48,1.27l-1.73,2.28c-.55-.41-1.01-.58-1.54-.58-1.66,0-2.69,1.3-2.69,3.26s1.1,3.26,2.57,3.26c.79,0,1.46-.29,2.06-.74l1.44,2.33c-1.15,1.06-2.66,1.42-3.94,1.42-3.36,0-5.93-2.3-5.93-6.26Z"/><path class="cls-2" d="M128.62,322.05v-4.61h-1.61v-2.78l1.82-.12.43-3.65h3.07v3.65h2.81v2.9h-2.81v4.56c0,1.34.62,1.85,1.51,1.85.38,0,.79-.05,1.1-.17l.58,2.59c-.62.24-1.54.48-2.71.48-2.98,0-4.2-1.9-4.2-4.7Z"/><path class="cls-2" d="M137.21,310.93c0-1.15.86-1.9,2.09-1.9s2.09.74,2.09,1.9-.86,1.92-2.09,1.92-2.09-.74-2.09-1.92ZM137.45,314.53h3.7v11.93h-3.7v-11.93Z"/><path class="cls-2" d="M143.49,320.49c0-3.96,2.81-6.24,5.83-6.24s5.86,2.28,5.86,6.24-2.81,6.26-5.86,6.26-5.83-2.3-5.83-6.26ZM151.37,320.49c0-1.97-.65-3.26-2.04-3.26s-2.04,1.3-2.04,3.26.65,3.26,2.04,3.26,2.04-1.27,2.04-3.26Z"/><path class="cls-2" d="M157.53,314.53h3.02l.26,1.49h.1c.98-.96,2.18-1.78,3.82-1.78,2.59,0,3.7,1.85,3.7,4.82v7.39h-3.72v-6.91c0-1.66-.43-2.16-1.39-2.16-.84,0-1.34.41-2.09,1.08v7.99h-3.7v-11.93Z"/><path class="cls-2" d="M504.16,119.58h3.74v15.63h-3.74v-15.63Z"/><path class="cls-2" d="M511.21,123.28h3.02l.26,1.49h.1c.98-.96,2.18-1.78,3.82-1.78,2.59,0,3.7,1.85,3.7,4.82v7.39h-3.72v-6.91c0-1.66-.43-2.16-1.39-2.16-.84,0-1.34.41-2.09,1.08v7.99h-3.7v-11.93Z"/><path class="cls-2" d="M524.56,127.81h5.93v2.62h-5.93v-2.62Z"/><path class="cls-2" d="M536.32,133.93h-.1l-.29,1.27h-2.9v-16.78h3.7v4.03l-.07,1.8c.89-.79,1.97-1.27,3.07-1.27,2.88,0,4.68,2.38,4.68,6.05,0,4.1-2.42,6.46-4.99,6.46-1.08,0-2.16-.53-3.1-1.56ZM540.59,129.08c0-2.09-.62-3.07-1.94-3.07-.7,0-1.27.31-1.92,1.01v4.73c.6.53,1.22.7,1.8.7,1.15,0,2.06-.94,2.06-3.36Z"/><path class="cls-2" d="M546.04,131.87c0-2.52,1.94-3.89,6.65-4.37-.1-.98-.6-1.56-1.82-1.56-.96,0-1.92.34-3.12,1.01l-1.3-2.4c1.56-.96,3.26-1.56,5.14-1.56,3.07,0,4.8,1.7,4.8,5.45v6.77h-3.02l-.26-1.2h-.1c-.98.89-2.06,1.49-3.41,1.49-2.18,0-3.55-1.63-3.55-3.62ZM552.69,131.68v-1.9c-2.38.31-3.1.96-3.1,1.8,0,.7.46,1.03,1.27,1.03.74,0,1.25-.36,1.82-.94Z"/><path class="cls-2" d="M559.28,123.28h3.02l.26,1.49h.1c.98-.96,2.18-1.78,3.82-1.78,2.59,0,3.7,1.85,3.7,4.82v7.39h-3.72v-6.91c0-1.66-.43-2.16-1.39-2.16-.84,0-1.34.41-2.09,1.08v7.99h-3.7v-11.93Z"/><path class="cls-2" d="M572.48,129.23c0-3.89,2.45-6.24,4.92-6.24,1.32,0,2.11.48,2.88,1.22l-.12-1.78v-4.01h3.72v16.78h-3.05l-.26-1.15h-.07c-.84.84-2.02,1.44-3.14,1.44-2.95,0-4.87-2.38-4.87-6.26ZM580.16,131.46v-4.75c-.58-.5-1.27-.7-1.87-.7-1.06,0-1.99.96-1.99,3.19s.77,3.24,2.04,3.24c.72,0,1.27-.24,1.82-.98Z"/><path class="cls-2" d="M898.33,54.93h9.89v3.12h-6.14v2.93h5.26v3.12h-5.26v3.34h6.38v3.12h-10.13v-15.63Z"/><path class="cls-2" d="M911.25,58.63h3.02l.26,2.06h.1c.86-1.61,2.18-2.35,3.38-2.35.7,0,1.1.07,1.44.24l-.7,3.14c-.43-.1-.7-.14-1.22-.14-.89,0-1.97.58-2.59,2.16v6.82h-3.7v-11.93Z"/><path class="cls-2" d="M920.97,58.63h3.02l.26,2.06h.1c.86-1.61,2.18-2.35,3.38-2.35.7,0,1.1.07,1.44.24l-.7,3.14c-.43-.1-.7-.14-1.22-.14-.89,0-1.97.58-2.59,2.16v6.82h-3.7v-11.93Z"/><path class="cls-2" d="M929.77,64.58c0-3.96,2.81-6.24,5.83-6.24s5.86,2.28,5.86,6.24-2.81,6.26-5.86,6.26-5.83-2.3-5.83-6.26ZM937.65,64.58c0-1.97-.65-3.26-2.04-3.26s-2.04,1.3-2.04,3.26.65,3.26,2.04,3.26,2.04-1.27,2.04-3.26Z"/><path class="cls-2" d="M943.81,58.63h3.02l.26,2.06h.1c.86-1.61,2.18-2.35,3.38-2.35.7,0,1.1.07,1.44.24l-.7,3.14c-.43-.1-.7-.14-1.22-.14-.89,0-1.97.58-2.59,2.16v6.82h-3.7v-11.93Z"/><path class="cls-2" d="M961.62,69.28h-.1l-.29,1.27h-2.9v-16.78h3.7v4.03l-.07,1.8c.89-.79,1.97-1.27,3.07-1.27,2.88,0,4.68,2.38,4.68,6.05,0,4.1-2.42,6.46-4.99,6.46-1.08,0-2.16-.53-3.1-1.56ZM965.9,64.44c0-2.09-.62-3.07-1.94-3.07-.7,0-1.27.31-1.92,1.01v4.73c.6.53,1.22.7,1.8.7,1.15,0,2.06-.94,2.06-3.36Z"/><path class="cls-2" d="M971.34,67.22c0-2.52,1.94-3.89,6.65-4.37-.1-.98-.6-1.56-1.82-1.56-.96,0-1.92.34-3.12,1.01l-1.3-2.4c1.56-.96,3.26-1.56,5.14-1.56,3.07,0,4.8,1.7,4.8,5.45v6.77h-3.02l-.26-1.2h-.1c-.98.89-2.06,1.49-3.41,1.49-2.18,0-3.55-1.63-3.55-3.62ZM977.99,67.03v-1.9c-2.38.31-3.1.96-3.1,1.8,0,.7.46,1.03,1.27,1.03.74,0,1.25-.36,1.82-.94Z"/><path class="cls-2" d="M983.56,69.04l1.56-2.09c1.1.86,2.18,1.15,3.12,1.15,1.01,0,1.42-.36,1.42-.94,0-.72-1.01-1.03-2.28-1.51-1.7-.62-3.14-1.7-3.14-3.55,0-2.26,1.82-3.77,4.61-3.77,1.75,0,3.24.65,4.27,1.51l-1.58,2.09c-.86-.62-1.75-.86-2.57-.86-.86,0-1.27.34-1.27.86,0,.62.67.91,2.18,1.39,1.82.58,3.26,1.66,3.26,3.62,0,2.18-1.73,3.89-4.97,3.89-1.58,0-3.41-.62-4.61-1.8Z"/><path class="cls-2" d="M994.62,64.58c0-3.86,2.79-6.24,5.64-6.24,3.46,0,5.14,2.5,5.14,5.74,0,.67-.07,1.3-.14,1.63h-7.03c.34,1.61,1.46,2.3,2.98,2.3.86,0,1.73-.26,2.57-.74l1.2,2.23c-1.25.89-2.88,1.34-4.3,1.34-3.41,0-6.05-2.28-6.05-6.26ZM1002.23,63.21c0-1.18-.53-2.06-1.87-2.06-1.06,0-1.94.67-2.18,2.06h4.06Z"/><path class="cls-2" d="M1007.17,64.58c0-3.89,2.45-6.24,4.92-6.24,1.32,0,2.11.48,2.88,1.22l-.12-1.78v-4.01h3.72v16.78h-3.05l-.26-1.15h-.07c-.84.84-2.02,1.44-3.14,1.44-2.95,0-4.87-2.38-4.87-6.26ZM1014.86,66.81v-4.75c-.58-.5-1.27-.7-1.87-.7-1.06,0-1.99.96-1.99,3.19s.77,3.24,2.04,3.24c.72,0,1.27-.24,1.82-.98Z"/><path class="cls-2" d="M894.16,194.25v-8.28h3.72v8.69c0,2.98.89,4.01,2.59,4.01s2.66-1.03,2.66-4.01v-8.69h3.58v8.28c0,5.28-2.09,7.63-6.24,7.63s-6.31-2.35-6.31-7.63Z"/><path class="cls-2" d="M909.95,189.67h3.02l.26,1.49h.1c.98-.96,2.18-1.78,3.82-1.78,2.59,0,3.7,1.85,3.7,4.82v7.39h-3.72v-6.91c0-1.66-.43-2.16-1.39-2.16-.84,0-1.34.41-2.09,1.08v7.99h-3.7v-11.93Z"/><path class="cls-2" d="M923.51,186.07c0-1.15.86-1.9,2.09-1.9s2.09.74,2.09,1.9-.86,1.92-2.09,1.92-2.09-.74-2.09-1.92ZM923.75,189.67h3.7v11.93h-3.7v-11.93Z"/><path class="cls-2" d="M929.8,195.62c0-3.96,2.81-6.24,5.83-6.24s5.86,2.28,5.86,6.24-2.81,6.26-5.86,6.26-5.83-2.3-5.83-6.26ZM937.67,195.62c0-1.97-.65-3.26-2.04-3.26s-2.04,1.3-2.04,3.26.65,3.26,2.04,3.26,2.04-1.27,2.04-3.26Z"/><path class="cls-2" d="M943.84,189.67h3.02l.26,1.49h.1c.98-.96,2.18-1.78,3.82-1.78,2.59,0,3.7,1.85,3.7,4.82v7.39h-3.72v-6.91c0-1.66-.43-2.16-1.39-2.16-.84,0-1.34.41-2.09,1.08v7.99h-3.7v-11.93Z"/><path class="cls-2" d="M965.73,200.33h-.1l-.29,1.27h-2.9v-16.78h3.7v4.03l-.07,1.8c.89-.79,1.97-1.27,3.07-1.27,2.88,0,4.68,2.38,4.68,6.05,0,4.1-2.42,6.46-4.99,6.46-1.08,0-2.16-.53-3.1-1.56ZM970,195.48c0-2.09-.62-3.07-1.94-3.07-.7,0-1.27.31-1.92,1.01v4.73c.6.53,1.22.7,1.8.7,1.15,0,2.06-.94,2.06-3.36Z"/><path class="cls-2" d="M975.45,198.26c0-2.52,1.94-3.89,6.65-4.37-.1-.98-.6-1.56-1.82-1.56-.96,0-1.92.34-3.12,1.01l-1.3-2.4c1.56-.96,3.26-1.56,5.14-1.56,3.07,0,4.8,1.7,4.8,5.45v6.77h-3.02l-.26-1.2h-.1c-.98.89-2.06,1.49-3.41,1.49-2.18,0-3.55-1.63-3.55-3.62ZM982.1,198.07v-1.9c-2.38.31-3.1.96-3.1,1.8,0,.7.46,1.03,1.27,1.03.74,0,1.25-.36,1.82-.94Z"/><path class="cls-2" d="M987.66,200.09l1.56-2.09c1.1.86,2.18,1.15,3.12,1.15,1.01,0,1.42-.36,1.42-.94,0-.72-1.01-1.03-2.28-1.51-1.7-.62-3.14-1.7-3.14-3.55,0-2.26,1.82-3.77,4.61-3.77,1.75,0,3.24.65,4.27,1.51l-1.58,2.09c-.86-.62-1.75-.86-2.57-.86-.86,0-1.27.34-1.27.86,0,.62.67.91,2.18,1.39,1.82.58,3.26,1.66,3.26,3.62,0,2.18-1.73,3.89-4.97,3.89-1.58,0-3.41-.62-4.61-1.8Z"/><path class="cls-2" d="M998.73,195.62c0-3.86,2.78-6.24,5.64-6.24,3.46,0,5.14,2.5,5.14,5.74,0,.67-.07,1.3-.14,1.63h-7.03c.34,1.61,1.46,2.3,2.98,2.3.86,0,1.73-.26,2.57-.74l1.2,2.23c-1.25.89-2.88,1.34-4.3,1.34-3.41,0-6.05-2.28-6.05-6.26ZM1006.33,194.25c0-1.18-.53-2.06-1.87-2.06-1.06,0-1.94.67-2.18,2.06h4.06Z"/><path class="cls-2" d="M1011.28,195.62c0-3.89,2.45-6.24,4.92-6.24,1.32,0,2.11.48,2.88,1.22l-.12-1.78v-4.01h3.72v16.78h-3.05l-.26-1.15h-.07c-.84.84-2.02,1.44-3.14,1.44-2.95,0-4.87-2.38-4.87-6.26ZM1018.96,197.86v-4.75c-.58-.5-1.27-.7-1.87-.7-1.06,0-1.99.96-1.99,3.19s.77,3.24,2.04,3.24c.72,0,1.27-.24,1.82-.98Z"/><path class="cls-2" d="M882.58,401.76h5.45c3.24,0,5.81.86,5.81,3.89,0,1.37-.77,2.88-2.04,3.36v.1c1.58.43,2.81,1.58,2.81,3.67,0,3.19-2.74,4.61-6.12,4.61h-5.9v-15.62ZM887.88,407.97c1.61,0,2.3-.7,2.3-1.78s-.74-1.58-2.28-1.58h-1.58v3.36h1.56ZM888.19,414.53c1.82,0,2.76-.67,2.76-1.99s-.91-1.82-2.76-1.82h-1.87v3.82h1.87Z"/><path class="cls-2" d="M896.19,411.41c0-3.96,2.81-6.24,5.83-6.24s5.86,2.28,5.86,6.24-2.81,6.26-5.86,6.26-5.83-2.3-5.83-6.26ZM904.06,411.41c0-1.97-.65-3.26-2.04-3.26s-2.04,1.3-2.04,3.26.65,3.26,2.04,3.26,2.04-1.27,2.04-3.26Z"/><path class="cls-2" d="M909.55,411.41c0-3.96,2.81-6.24,5.83-6.24s5.86,2.28,5.86,6.24-2.81,6.26-5.86,6.26-5.83-2.3-5.83-6.26ZM917.43,411.41c0-1.97-.65-3.26-2.04-3.26s-2.04,1.3-2.04,3.26.65,3.26,2.04,3.26,2.04-1.27,2.04-3.26Z"/><path class="cls-2" d="M923.59,413.52v-12.91h3.7v13.06c0,.77.38,1.01.67,1.01.14,0,.24,0,.43-.05l.43,2.74c-.41.17-1.03.31-1.85.31-2.54,0-3.38-1.66-3.38-4.15Z"/><path class="cls-2" d="M929.88,411.41c0-3.86,2.79-6.24,5.64-6.24,3.46,0,5.14,2.5,5.14,5.74,0,.67-.07,1.3-.14,1.63h-7.03c.34,1.61,1.46,2.3,2.98,2.3.86,0,1.73-.26,2.57-.74l1.2,2.23c-1.25.89-2.88,1.34-4.3,1.34-3.41,0-6.05-2.28-6.05-6.26ZM937.49,410.04c0-1.18-.53-2.06-1.87-2.06-1.06,0-1.94.67-2.18,2.06h4.06Z"/><path class="cls-2" d="M942.24,414.05c0-2.52,1.94-3.89,6.65-4.37-.1-.98-.6-1.56-1.82-1.56-.96,0-1.92.34-3.12,1.01l-1.3-2.4c1.56-.96,3.26-1.56,5.14-1.56,3.07,0,4.8,1.7,4.8,5.45v6.77h-3.02l-.26-1.2h-.1c-.98.89-2.06,1.49-3.41,1.49-2.18,0-3.55-1.63-3.55-3.62ZM948.89,413.85v-1.9c-2.38.31-3.1.96-3.1,1.8,0,.7.46,1.03,1.27,1.03.74,0,1.25-.36,1.82-.94Z"/><path class="cls-2" d="M955.49,405.45h3.02l.26,1.49h.1c.98-.96,2.18-1.78,3.82-1.78,2.59,0,3.7,1.85,3.7,4.82v7.39h-3.72v-6.91c0-1.66-.43-2.16-1.39-2.16-.84,0-1.34.41-2.09,1.08v7.99h-3.7v-11.93Z"/><path class="cls-2" d="M977.38,416.11h-.1l-.29,1.27h-2.9v-16.78h3.7v4.03l-.07,1.8c.89-.79,1.97-1.27,3.07-1.27,2.88,0,4.68,2.38,4.68,6.05,0,4.1-2.42,6.46-4.99,6.46-1.08,0-2.16-.53-3.1-1.56ZM981.65,411.26c0-2.09-.62-3.07-1.94-3.07-.7,0-1.27.31-1.92,1.01v4.73c.6.53,1.22.7,1.8.7,1.15,0,2.06-.94,2.06-3.36Z"/><path class="cls-2" d="M987.1,414.05c0-2.52,1.94-3.89,6.65-4.37-.1-.98-.6-1.56-1.82-1.56-.96,0-1.92.34-3.12,1.01l-1.3-2.4c1.56-.96,3.26-1.56,5.14-1.56,3.07,0,4.8,1.7,4.8,5.45v6.77h-3.02l-.26-1.2h-.1c-.98.89-2.06,1.49-3.41,1.49-2.18,0-3.55-1.63-3.55-3.62ZM993.75,413.85v-1.9c-2.38.31-3.1.96-3.1,1.8,0,.7.46,1.03,1.27,1.03.74,0,1.25-.36,1.82-.94Z"/><path class="cls-2" d="M999.31,415.87l1.56-2.09c1.1.86,2.18,1.15,3.12,1.15,1.01,0,1.42-.36,1.42-.94,0-.72-1.01-1.03-2.28-1.51-1.7-.62-3.14-1.7-3.14-3.55,0-2.26,1.82-3.77,4.61-3.77,1.75,0,3.24.65,4.27,1.51l-1.58,2.09c-.86-.62-1.75-.86-2.57-.86-.86,0-1.27.34-1.27.86,0,.62.67.91,2.18,1.39,1.82.58,3.26,1.66,3.26,3.62,0,2.18-1.73,3.89-4.97,3.89-1.58,0-3.41-.62-4.61-1.8Z"/><path class="cls-2" d="M1010.38,411.41c0-3.86,2.79-6.24,5.64-6.24,3.46,0,5.14,2.5,5.14,5.74,0,.67-.07,1.3-.14,1.63h-7.03c.34,1.61,1.46,2.3,2.98,2.3.86,0,1.73-.26,2.57-.74l1.2,2.23c-1.25.89-2.88,1.34-4.3,1.34-3.41,0-6.05-2.28-6.05-6.26ZM1017.99,410.04c0-1.18-.53-2.06-1.87-2.06-1.06,0-1.94.67-2.18,2.06h4.06Z"/><path class="cls-2" d="M1022.93,411.41c0-3.89,2.45-6.24,4.92-6.24,1.32,0,2.11.48,2.88,1.22l-.12-1.78v-4.01h3.72v16.78h-3.05l-.26-1.15h-.07c-.84.84-2.02,1.44-3.14,1.44-2.95,0-4.87-2.38-4.87-6.26ZM1030.61,413.64v-4.75c-.58-.5-1.27-.7-1.87-.7-1.06,0-1.99.96-1.99,3.19s.77,3.24,2.04,3.24c.72,0,1.27-.24,1.82-.98Z"/><path class="cls-2" d="M902.49,536.79h-4.25v-3.12h12.22v3.12h-4.25v12.5h-3.72v-12.5Z"/><path class="cls-2" d="M912.33,533.77c0-1.15.86-1.9,2.09-1.9s2.09.74,2.09,1.9-.86,1.92-2.09,1.92-2.09-.74-2.09-1.92ZM912.57,537.37h3.7v11.93h-3.7v-11.93Z"/><path class="cls-2" d="M919.29,537.37h3.02l.26,1.49h.1c.96-.96,2.02-1.78,3.6-1.78s2.69.7,3.29,1.97c1.03-1.06,2.14-1.97,3.72-1.97,2.59,0,3.74,1.85,3.74,4.82v7.39h-3.7v-6.91c0-1.66-.46-2.16-1.39-2.16-.58,0-1.2.36-1.92,1.08v7.99h-3.72v-6.91c0-1.66-.43-2.16-1.39-2.16-.55,0-1.2.36-1.92,1.08v7.99h-3.7v-11.93Z"/><path class="cls-2" d="M939.28,543.32c0-3.86,2.79-6.24,5.64-6.24,3.46,0,5.14,2.5,5.14,5.74,0,.67-.07,1.3-.14,1.63h-7.03c.34,1.61,1.46,2.3,2.98,2.3.86,0,1.73-.26,2.57-.74l1.2,2.23c-1.25.89-2.88,1.34-4.3,1.34-3.41,0-6.05-2.28-6.05-6.26ZM946.89,541.96c0-1.18-.53-2.06-1.87-2.06-1.06,0-1.94.67-2.18,2.06h4.06Z"/><path class="cls-2" d="M960.52,548.03h-.1l-.29,1.27h-2.9v-16.78h3.7v4.03l-.07,1.8c.89-.79,1.97-1.27,3.07-1.27,2.88,0,4.68,2.38,4.68,6.05,0,4.1-2.42,6.46-4.99,6.46-1.08,0-2.16-.53-3.1-1.56ZM964.79,543.18c0-2.09-.62-3.07-1.94-3.07-.7,0-1.27.31-1.92,1.01v4.73c.6.53,1.22.7,1.8.7,1.15,0,2.06-.94,2.06-3.36Z"/><path class="cls-2" d="M970.24,545.96c0-2.52,1.94-3.89,6.65-4.37-.1-.98-.6-1.56-1.82-1.56-.96,0-1.92.34-3.12,1.01l-1.3-2.4c1.56-.96,3.26-1.56,5.14-1.56,3.07,0,4.8,1.7,4.8,5.45v6.77h-3.02l-.26-1.2h-.1c-.98.89-2.06,1.49-3.41,1.49-2.18,0-3.55-1.63-3.55-3.62ZM976.89,545.77v-1.9c-2.38.31-3.1.96-3.1,1.8,0,.7.46,1.03,1.27,1.03.74,0,1.25-.36,1.82-.94Z"/><path class="cls-2" d="M982.45,547.79l1.56-2.09c1.1.86,2.18,1.15,3.12,1.15,1.01,0,1.42-.36,1.42-.94,0-.72-1.01-1.03-2.28-1.51-1.7-.62-3.14-1.7-3.14-3.55,0-2.26,1.82-3.77,4.61-3.77,1.75,0,3.24.65,4.27,1.51l-1.58,2.09c-.86-.62-1.75-.86-2.57-.86-.86,0-1.27.34-1.27.86,0,.62.67.91,2.18,1.39,1.82.58,3.26,1.66,3.26,3.62,0,2.18-1.73,3.89-4.97,3.89-1.58,0-3.41-.62-4.61-1.8Z"/><path class="cls-2" d="M993.52,543.32c0-3.86,2.78-6.24,5.64-6.24,3.46,0,5.14,2.5,5.14,5.74,0,.67-.07,1.3-.14,1.63h-7.03c.34,1.61,1.46,2.3,2.98,2.3.86,0,1.73-.26,2.57-.74l1.2,2.23c-1.25.89-2.88,1.34-4.3,1.34-3.41,0-6.05-2.28-6.05-6.26ZM1001.13,541.96c0-1.18-.53-2.06-1.87-2.06-1.06,0-1.94.67-2.18,2.06h4.06Z"/><path class="cls-2" d="M1006.07,543.32c0-3.89,2.45-6.24,4.92-6.24,1.32,0,2.11.48,2.88,1.22l-.12-1.78v-4.01h3.72v16.78h-3.05l-.26-1.15h-.07c-.84.84-2.02,1.44-3.14,1.44-2.95,0-4.87-2.38-4.87-6.26ZM1013.75,545.56v-4.75c-.58-.5-1.27-.7-1.87-.7-1.06,0-1.99.96-1.99,3.19s.77,3.24,2.04,3.24c.72,0,1.27-.24,1.82-.98Z"/><path class="cls-2" d="M489.07,469.03h3.74v15.62h-3.74v-15.62Z"/><path class="cls-2" d="M496.13,472.72h3.02l.26,1.49h.1c.98-.96,2.18-1.78,3.82-1.78,2.59,0,3.7,1.85,3.7,4.82v7.39h-3.72v-6.91c0-1.66-.43-2.16-1.39-2.16-.84,0-1.34.41-2.09,1.08v7.99h-3.7v-11.93Z"/><path class="cls-2" d="M510.55,475.63h-1.58v-2.78l1.58-.1v-.5c0-2.52,1.18-4.66,4.51-4.66,1.03,0,1.9.22,2.42.43l-.7,2.64c-.41-.12-.79-.17-1.2-.17-.82,0-1.32.46-1.32,1.63v.6h2.11v2.9h-2.11v9.02h-3.72v-9.02Z"/><path class="cls-2" d="M517.34,478.67c0-3.86,2.78-6.24,5.64-6.24,3.46,0,5.14,2.5,5.14,5.74,0,.67-.07,1.3-.14,1.63h-7.03c.34,1.61,1.46,2.3,2.98,2.3.86,0,1.73-.26,2.57-.74l1.2,2.23c-1.25.89-2.88,1.34-4.3,1.34-3.41,0-6.05-2.28-6.05-6.26ZM524.95,477.31c0-1.18-.53-2.06-1.87-2.06-1.06,0-1.94.67-2.18,2.06h4.06Z"/><path class="cls-2" d="M530.5,472.72h3.02l.26,2.06h.1c.86-1.61,2.18-2.35,3.38-2.35.7,0,1.1.07,1.44.24l-.7,3.14c-.43-.1-.7-.14-1.22-.14-.89,0-1.97.58-2.59,2.16v6.82h-3.7v-11.93Z"/><path class="cls-2" d="M539.3,478.67c0-3.86,2.78-6.24,5.64-6.24,3.46,0,5.14,2.5,5.14,5.74,0,.67-.07,1.3-.14,1.63h-7.03c.34,1.61,1.46,2.3,2.98,2.3.86,0,1.73-.26,2.57-.74l1.2,2.23c-1.25.89-2.88,1.34-4.3,1.34-3.41,0-6.05-2.28-6.05-6.26ZM546.91,477.31c0-1.18-.53-2.06-1.87-2.06-1.06,0-1.94.67-2.18,2.06h4.06Z"/><path class="cls-2" d="M552.46,472.72h3.02l.26,1.49h.1c.98-.96,2.18-1.78,3.82-1.78,2.59,0,3.7,1.85,3.7,4.82v7.39h-3.72v-6.91c0-1.66-.43-2.16-1.39-2.16-.84,0-1.34.41-2.09,1.08v7.99h-3.7v-11.93Z"/><path class="cls-2" d="M566.74,480.24v-4.61h-1.61v-2.78l1.82-.12.43-3.65h3.07v3.65h2.81v2.9h-2.81v4.56c0,1.34.62,1.85,1.51,1.85.38,0,.79-.05,1.1-.17l.58,2.59c-.62.24-1.54.48-2.71.48-2.98,0-4.2-1.9-4.2-4.7Z"/><path class="cls-2" d="M575.33,469.12c0-1.15.86-1.9,2.09-1.9s2.09.74,2.09,1.9-.86,1.92-2.09,1.92-2.09-.74-2.09-1.92ZM575.57,472.72h3.7v11.93h-3.7v-11.93Z"/><path class="cls-2" d="M581.76,481.32c0-2.52,1.94-3.89,6.65-4.37-.1-.98-.6-1.56-1.82-1.56-.96,0-1.92.34-3.12,1.01l-1.3-2.4c1.56-.96,3.26-1.56,5.14-1.56,3.07,0,4.8,1.7,4.8,5.45v6.77h-3.02l-.26-1.2h-.1c-.98.89-2.06,1.49-3.41,1.49-2.18,0-3.55-1.63-3.55-3.62ZM588.41,481.12v-1.9c-2.38.31-3.1.96-3.1,1.8,0,.7.46,1.03,1.27,1.03.74,0,1.25-.36,1.82-.94Z"/><path class="cls-2" d="M595.01,480.79v-12.91h3.7v13.06c0,.77.38,1.01.67,1.01.14,0,.24,0,.43-.05l.43,2.74c-.41.17-1.03.31-1.85.31-2.54,0-3.38-1.66-3.38-4.15Z"/><line class="cls-4" x1="654.12" y1="128.51" x2="786.07" y2="128.51"/><line class="cls-4" x1="654.12" y1="476.56" x2="786.07" y2="476.56"/><path id="path32" class="cls-2" d="M1050.46,578.17v-1.77l-.45.35-.3-.4.79-.58h.52v2.41h-.57"/><path id="path34" class="cls-2" d="M1052.79,576.96c0-.07,0-.16-.01-.25,0-.09-.03-.18-.05-.25-.02-.08-.06-.14-.11-.2-.05-.05-.11-.08-.18-.08s-.14.03-.18.08c-.05.05-.08.12-.11.2-.03.08-.04.16-.05.25,0,.09-.01.17-.01.25s0,.16.01.25c0,.09.03.18.05.25.03.08.06.14.11.2.05.05.11.08.18.08s.14-.03.18-.08c.05-.05.08-.12.11-.2.03-.08.04-.16.05-.25,0-.09.01-.18.01-.25ZM1053.38,576.96c0,.17-.02.33-.05.49-.03.15-.09.29-.16.41-.08.12-.17.21-.29.28-.12.07-.26.1-.43.1s-.32-.03-.44-.1c-.12-.07-.22-.16-.29-.28-.08-.12-.13-.25-.16-.41-.03-.15-.05-.32-.05-.49s.02-.33.05-.48c.03-.15.09-.29.16-.4.08-.11.17-.21.29-.27.12-.07.27-.1.44-.1s.31.03.43.1c.12.07.22.16.29.27.07.11.13.25.16.4.03.15.05.31.05.48"/><path id="path36" class="cls-2" d="M1056.57,578.17v-1.77l-.45.35-.3-.4.79-.58h.52v2.41h-.57"/><path id="path38" class="cls-2" d="M1058.9,576.96c0-.07,0-.16-.01-.25,0-.09-.03-.18-.05-.25-.02-.08-.06-.14-.11-.2-.05-.05-.11-.08-.18-.08s-.14.03-.18.08c-.05.05-.08.12-.11.2-.03.08-.04.16-.05.25,0,.09-.01.17-.01.25s0,.16.01.25c0,.09.03.18.05.25.03.08.06.14.11.2.05.05.11.08.18.08s.14-.03.18-.08c.05-.05.08-.12.11-.2.03-.08.04-.16.05-.25,0-.09.01-.18.01-.25ZM1059.48,576.96c0,.17-.02.33-.05.49-.03.15-.09.29-.16.41-.08.12-.17.21-.29.28-.12.07-.26.1-.43.1s-.32-.03-.44-.1c-.12-.07-.22-.16-.29-.28-.08-.12-.13-.25-.16-.41-.03-.15-.05-.32-.05-.49s.02-.33.05-.48c.03-.15.09-.29.16-.4s.17-.21.29-.27c.12-.07.27-.1.44-.1s.31.03.43.1c.12.07.22.16.29.27.07.11.13.25.16.4.03.15.05.31.05.48"/><path id="path40" class="cls-2" d="M1050.41,581.96v-1.77l-.45.35-.3-.4.79-.58h.52v2.41h-.57"/><path id="path42" class="cls-2" d="M1052.41,581.96v-1.77l-.45.35-.3-.4.79-.58h.52v2.41h-.57"/><path id="path44" class="cls-2" d="M1054.4,581.96v-1.77l-.45.35-.3-.4.79-.58h.52v2.41h-.57"/><path id="path46" class="cls-2" d="M1056.84,580.75c0-.07,0-.16-.01-.25,0-.09-.03-.18-.05-.25-.02-.08-.06-.14-.11-.2-.05-.05-.11-.08-.18-.08s-.14.03-.18.08c-.05.05-.08.12-.11.2-.03.08-.04.16-.05.25,0,.09-.01.17-.01.25s0,.16.01.25c0,.09.03.18.05.25.03.08.06.14.11.2.05.05.11.08.18.08s.14-.03.18-.08c.05-.05.08-.12.11-.2.02-.08.04-.16.05-.25,0-.09.01-.18.01-.25ZM1057.42,580.75c0,.17-.02.33-.05.49-.03.15-.09.29-.16.41-.07.12-.17.21-.29.28-.12.07-.26.1-.43.1s-.32-.03-.44-.1c-.12-.07-.22-.16-.29-.28-.08-.12-.13-.25-.16-.41-.03-.15-.05-.32-.05-.49s.02-.33.05-.48c.03-.15.09-.29.16-.4.08-.11.17-.21.29-.27.12-.07.27-.1.44-.1s.31.03.43.1c.12.07.22.16.29.27.08.11.13.25.16.4.03.15.05.31.05.48"/><path id="path48" class="cls-2" d="M1051.56,584.66v-1.28l-.33.25-.21-.29.58-.42h.38v1.75h-.41"/><path id="path50" class="cls-2" d="M1054.45,584.66v-1.28l-.33.25-.21-.29.57-.42h.38v1.75h-.41"/><path id="path52" class="cls-2" d="M1050.4,583.78c0-.05,0-.11,0-.18,0-.07-.02-.13-.04-.18-.02-.06-.04-.1-.08-.14-.03-.04-.08-.06-.13-.06s-.1.02-.13.06c-.03.04-.06.09-.08.14-.02.06-.03.12-.04.18,0,.07-.01.13-.01.18s0,.12.01.18c0,.07.02.13.04.19.02.06.05.1.08.14.03.04.08.06.13.06s.1-.02.13-.06c.03-.04.06-.09.08-.14.02-.06.03-.12.04-.19,0-.07,0-.13,0-.18ZM1050.83,583.78c0,.12-.01.24-.04.35-.02.11-.06.21-.12.29-.05.09-.12.15-.21.2-.09.05-.19.08-.31.08s-.23-.02-.32-.08c-.09-.05-.16-.12-.21-.2-.06-.08-.09-.18-.12-.29-.02-.11-.04-.23-.04-.35s.01-.24.04-.35c.02-.11.06-.21.12-.29.06-.08.13-.15.21-.2.09-.05.19-.07.32-.07s.23.02.31.07c.09.05.16.12.21.2.05.08.09.18.12.29.02.11.04.23.04.35"/><path id="path54" class="cls-2" d="M1053.31,583.78c0-.05,0-.11,0-.18,0-.07-.02-.13-.04-.18-.02-.06-.04-.1-.08-.14-.03-.04-.08-.06-.13-.06s-.1.02-.13.06c-.03.04-.06.09-.08.14-.02.06-.03.12-.04.18,0,.07-.01.13-.01.18s0,.12.01.18c0,.07.02.13.04.19.02.06.05.1.08.14.03.04.08.06.13.06s.1-.02.13-.06c.03-.04.06-.09.08-.14.02-.06.03-.12.04-.19,0-.07,0-.13,0-.18ZM1053.73,583.78c0,.12-.01.24-.04.35-.02.11-.06.21-.12.29-.05.09-.12.15-.21.2-.09.05-.19.08-.31.08s-.23-.02-.32-.08c-.09-.05-.16-.12-.21-.2-.06-.08-.1-.18-.12-.29-.03-.11-.04-.23-.04-.35s.01-.24.04-.35c.02-.11.06-.21.12-.29.06-.08.13-.15.21-.2.09-.05.19-.07.32-.07s.23.02.31.07c.09.05.16.12.21.2.05.08.09.18.12.29.02.11.04.23.04.35"/><path id="path56" class="cls-2" d="M1059.26,584.66v-1.28l-.33.25-.22-.29.58-.42h.38v1.75h-.41"/><path id="path58" class="cls-2" d="M1058.12,583.78c0-.05,0-.11,0-.18,0-.07-.02-.13-.04-.18-.02-.06-.04-.1-.08-.14-.03-.04-.08-.06-.13-.06s-.1.02-.13.06c-.03.04-.06.09-.08.14-.02.06-.03.12-.04.18,0,.07-.01.13-.01.18s0,.12.01.18c0,.07.02.13.04.19.02.06.05.1.08.14.03.04.08.06.13.06s.1-.02.13-.06c.03-.04.06-.09.08-.14.02-.06.03-.12.04-.19,0-.07,0-.13,0-.18ZM1058.54,583.78c0,.12-.01.24-.04.35-.03.11-.06.21-.12.29-.05.09-.12.15-.21.2-.09.05-.19.08-.31.08s-.23-.02-.32-.08c-.09-.05-.16-.12-.21-.2-.06-.08-.09-.18-.12-.29-.02-.11-.04-.23-.04-.35s.01-.24.04-.35c.02-.11.06-.21.12-.29.06-.08.13-.15.21-.2.09-.05.19-.07.32-.07s.23.02.31.07c.09.05.16.12.21.2.05.08.09.18.12.29.02.11.04.23.04.35"/><path id="path60" class="cls-2" d="M1057.67,586.72v-1.28l-.33.25-.22-.29.58-.42h.38v1.75h-.41"/><path id="path62" class="cls-2" d="M1056.53,585.84c0-.05,0-.11,0-.18,0-.07-.02-.13-.04-.18-.02-.06-.04-.1-.08-.14-.03-.04-.08-.06-.13-.06s-.1.02-.13.06c-.03.04-.06.09-.08.14-.02.06-.03.12-.04.18,0,.07-.01.13-.01.18s0,.12.01.18c0,.07.02.13.04.19.02.06.05.1.08.14.03.04.08.06.13.06s.1-.02.13-.06c.03-.04.06-.09.08-.14.02-.06.03-.12.04-.19,0-.07,0-.13,0-.18ZM1056.96,585.84c0,.12-.01.24-.04.35-.02.11-.06.21-.12.3-.05.08-.12.15-.21.2-.09.05-.19.08-.31.08s-.23-.02-.32-.08c-.09-.05-.16-.12-.21-.2-.06-.08-.09-.18-.12-.3-.02-.11-.04-.23-.04-.35s.01-.24.04-.35c.02-.11.06-.21.12-.29.06-.08.13-.15.21-.2.09-.05.19-.07.32-.07s.23.03.31.07c.09.05.16.12.21.2.05.08.09.18.12.29.02.11.04.23.04.35"/><path id="path64" class="cls-2" d="M1050.98,586.69v-.89l-.23.17-.15-.2.4-.29h.26v1.21h-.29"/><path id="path66" class="cls-2" d="M1050.19,586.08s0-.08,0-.13c0-.05-.01-.09-.03-.13-.01-.04-.03-.07-.05-.1-.02-.03-.05-.04-.09-.04s-.07.01-.09.04c-.02.03-.04.06-.06.1-.01.04-.02.08-.03.13,0,.05,0,.09,0,.13s0,.08,0,.13c0,.05.01.09.03.13.01.04.03.07.06.1.02.03.05.04.09.04s.07-.01.09-.04c.02-.03.04-.06.05-.1.01-.04.02-.08.03-.13,0-.05,0-.09,0-.13ZM1050.49,586.08c0,.09,0,.17-.03.24-.02.08-.04.15-.08.2-.04.06-.09.11-.15.14-.06.03-.13.05-.22.05s-.16-.02-.22-.05c-.06-.03-.11-.08-.15-.14-.04-.06-.07-.13-.08-.2-.02-.08-.03-.16-.03-.24s0-.17.03-.24c.02-.08.04-.14.08-.2.04-.06.09-.1.15-.14.06-.03.13-.05.22-.05s.16.02.22.05c.06.03.11.08.15.14.04.06.06.13.08.2.02.08.03.16.03.24"/><path id="path68" class="cls-2" d="M1054.54,588.25v-.89l-.23.17-.15-.2.4-.29h.26v1.21h-.29"/><path id="path70" class="cls-2" d="M1053.75,587.64s0-.08,0-.13c0-.05-.01-.09-.03-.13s-.03-.07-.05-.1c-.02-.03-.05-.04-.09-.04s-.07.01-.09.04c-.02.03-.04.06-.06.1-.01.04-.02.08-.03.13,0,.05,0,.09,0,.13s0,.08,0,.13c0,.05.01.09.03.13.01.04.03.07.06.1.02.03.05.04.09.04s.07-.01.09-.04c.02-.03.04-.06.05-.1.01-.04.02-.08.03-.13,0-.05,0-.09,0-.13ZM1054.04,587.64c0,.09,0,.17-.03.24-.02.08-.04.15-.08.2-.04.06-.09.11-.15.14-.06.03-.13.05-.22.05s-.16-.02-.22-.05c-.06-.03-.11-.08-.15-.14-.04-.06-.07-.13-.08-.2-.02-.08-.03-.16-.03-.24s0-.17.03-.24c.02-.08.04-.14.08-.2.04-.06.09-.1.15-.14.06-.03.13-.05.22-.05s.16.02.22.05c.06.03.11.08.15.14.04.06.06.12.08.2.02.08.03.16.03.24"/><path id="path72" class="cls-2" d="M1059.41,585.84c0-.05,0-.11,0-.18,0-.07-.02-.13-.04-.18-.02-.06-.04-.1-.08-.14-.03-.04-.08-.06-.13-.06s-.1.02-.13.06c-.03.04-.06.09-.08.14-.02.06-.03.12-.04.18,0,.07,0,.13,0,.18s0,.12,0,.18c0,.07.02.13.04.19.02.06.05.1.08.14.03.04.08.06.13.06s.1-.02.13-.06c.03-.04.06-.09.08-.14.02-.06.03-.12.04-.19,0-.07,0-.13,0-.18ZM1059.84,585.84c0,.12-.01.24-.04.35-.02.11-.06.21-.12.3-.05.08-.12.15-.21.2-.09.05-.19.08-.31.08s-.23-.02-.32-.08c-.09-.05-.16-.12-.21-.2-.06-.08-.1-.18-.12-.3-.02-.11-.04-.23-.04-.35s.01-.24.04-.35c.02-.11.06-.21.12-.29.06-.08.13-.15.21-.2.09-.05.19-.07.32-.07s.23.03.31.07c.09.05.16.12.21.2.05.08.09.18.12.29.02.11.04.23.04.35"/><path id="path74" class="cls-2" d="M1058.62,574.04c-.4-1.97-2.16-3.4-4.17-3.4-.31,0-.61.03-.9.1-.49-2.87-2.99-5.06-6-5.06s-5.46,2.15-5.98,4.98c-2.16.2-3.87,2.02-3.87,4.24,0,2.35,1.91,4.25,4.26,4.25h6.37c.32,0,.59-.26.59-.59s-.26-.59-.59-.59h-6.37c-1.7,0-3.08-1.38-3.08-3.08s1.38-3.08,3.08-3.08c.62,0,1.21.18,1.72.53.27.18.64.11.82-.16.18-.27.11-.64-.16-.82-.48-.32-1.02-.54-1.58-.65.48-2.21,2.45-3.86,4.8-3.86,2.5,0,4.57,1.88,4.87,4.3-.16.09-.31.18-.46.29-.26.19-.32.56-.13.82.19.26.56.32.82.13.53-.38,1.15-.58,1.8-.58,1.46,0,2.72,1.03,3.02,2.46.06.28.3.47.58.47.04,0,.08,0,.12-.01.32-.06.52-.38.46-.69"/><path class="cls-2" d="M482.29,303.45c0-5.14,2.9-8.04,7.15-8.04s7.15,2.93,7.15,8.04-2.9,8.16-7.15,8.16-7.15-3.05-7.15-8.16ZM492.78,303.45c0-3.05-1.27-4.82-3.34-4.82s-3.34,1.78-3.34,4.82,1.3,4.94,3.34,4.94,3.34-1.92,3.34-4.94Z"/><path class="cls-2" d="M499.09,306.78v-7.39h3.72v6.91c0,1.66.43,2.14,1.39,2.14.84,0,1.34-.34,1.99-1.22v-7.82h3.72v11.93h-3.02l-.26-1.63h-.1c-.98,1.18-2.11,1.92-3.72,1.92-2.62,0-3.72-1.85-3.72-4.82Z"/><path class="cls-2" d="M513.42,306.9v-4.61h-1.61v-2.78l1.82-.12.43-3.65h3.07v3.65h2.81v2.9h-2.81v4.56c0,1.34.62,1.85,1.51,1.85.38,0,.79-.05,1.1-.17l.58,2.59c-.62.24-1.54.48-2.71.48-2.98,0-4.2-1.9-4.2-4.7Z"/><path class="cls-2" d="M520.91,303.93h5.93v2.62h-5.93v-2.62Z"/><path class="cls-2" d="M528.71,305.34c0-3.96,2.81-6.24,5.83-6.24s5.86,2.28,5.86,6.24-2.81,6.26-5.86,6.26-5.83-2.3-5.83-6.26ZM536.58,305.34c0-1.97-.65-3.26-2.04-3.26s-2.04,1.3-2.04,3.26.65,3.26,2.04,3.26,2.04-1.27,2.04-3.26Z"/><path class="cls-2" d="M543.25,302.29h-1.58v-2.78l1.58-.1v-.5c0-2.52,1.18-4.66,4.51-4.66,1.03,0,1.9.22,2.42.43l-.7,2.64c-.41-.12-.79-.17-1.2-.17-.82,0-1.32.46-1.32,1.63v.6h2.11v2.9h-2.11v9.02h-3.72v-9.02Z"/><path class="cls-2" d="M550.04,303.93h5.93v2.62h-5.93v-2.62Z"/><path class="cls-2" d="M561.8,310.05h-.1l-.29,1.27h-2.9v-16.78h3.7v4.03l-.07,1.8c.89-.79,1.97-1.27,3.07-1.27,2.88,0,4.68,2.38,4.68,6.05,0,4.1-2.42,6.46-4.99,6.46-1.08,0-2.16-.53-3.1-1.56ZM566.08,305.2c0-2.09-.62-3.07-1.94-3.07-.7,0-1.27.31-1.92,1.01v4.73c.6.53,1.22.7,1.8.7,1.15,0,2.06-.94,2.06-3.36Z"/><path class="cls-2" d="M571.52,307.98c0-2.52,1.94-3.89,6.65-4.37-.1-.98-.6-1.56-1.82-1.56-.96,0-1.92.34-3.12,1.01l-1.3-2.4c1.56-.96,3.26-1.56,5.14-1.56,3.07,0,4.8,1.7,4.8,5.45v6.77h-3.02l-.26-1.2h-.1c-.98.89-2.06,1.49-3.41,1.49-2.18,0-3.55-1.63-3.55-3.62ZM578.17,307.79v-1.9c-2.38.31-3.1.96-3.1,1.8,0,.7.46,1.03,1.27,1.03.74,0,1.25-.36,1.82-.94Z"/><path class="cls-2" d="M584.77,299.39h3.02l.26,1.49h.1c.98-.96,2.18-1.78,3.82-1.78,2.59,0,3.7,1.85,3.7,4.82v7.39h-3.72v-6.91c0-1.66-.43-2.16-1.39-2.16-.84,0-1.34.41-2.09,1.08v7.99h-3.7v-11.93Z"/><path class="cls-2" d="M597.97,305.34c0-3.89,2.45-6.24,4.92-6.24,1.32,0,2.11.48,2.88,1.22l-.12-1.78v-4.01h3.72v16.78h-3.05l-.26-1.15h-.07c-.84.84-2.02,1.44-3.14,1.44-2.95,0-4.87-2.38-4.87-6.26ZM605.65,307.58v-4.75c-.58-.5-1.27-.7-1.87-.7-1.06,0-1.99.96-1.99,3.19s.77,3.24,2.04,3.24c.72,0,1.27-.24,1.82-.98Z"/></svg>