<svg xmlns="http://www.w3.org/2000/svg" width="781" height="440" viewBox="0 0 781 440"><title>Web sockets infographic</title><rect x="254.05" y="75.75" width="318.06" height="57.98" fill="#ebf0f2" stroke="#60bcd8" stroke-miterlimit="10"/><rect x="273.58" y="86.39" width="50.69" height="22.88" fill="#fff" stroke="#60bcd8" stroke-miterlimit="10"/><text transform="translate(280.8 101.92)" font-size="16" fill="#333332" font-family="ArialMT, Arial">{......}</text><line x1="324.27" y1="98.04" x2="339.49" y2="98.04" fill="none" stroke="#60bcd8" stroke-miterlimit="10"/><polygon points="336.18 102.13 335.5 101.4 339.11 98.04 335.5 94.68 336.18 93.95 340.58 98.04 336.18 102.13" fill="#60bcd8"/><rect x="487.69" y="97.83" width="50.69" height="22.88" fill="#fff" stroke="#60bcd8" stroke-miterlimit="10"/><text transform="translate(493.91 113.36)" font-size="16" fill="#333332" font-family="ArialMT, Arial">{......}</text><line x1="538.38" y1="109.48" x2="553.6" y2="109.48" fill="none" stroke="#60bcd8" stroke-miterlimit="10"/><polygon points="550.29 113.57 549.6 112.84 553.22 109.48 549.6 106.12 550.29 105.39 554.68 109.48 550.29 113.57" fill="#60bcd8"/><rect x="345.01" y="103.56" width="50.69" height="22.88" transform="translate(740.71 229.99) rotate(-180)" fill="#fff" stroke="#60bcd8" stroke-miterlimit="10"/><text transform="matrix(-1, 0, 0, 1, 389.48, 119.08)" font-size="16" fill="#333332" font-family="ArialMT, Arial">{......}</text><line x1="345.01" y1="115.2" x2="329.79" y2="115.2" fill="none" stroke="#60bcd8" stroke-miterlimit="10"/><polygon points="333.1 111.11 333.79 111.84 330.18 115.2 333.79 118.56 333.1 119.29 328.71 115.2 333.1 111.11" fill="#60bcd8"/><rect x="417.96" y="86.6" width="50.69" height="22.88" transform="translate(886.6 196.08) rotate(-180)" fill="#fff" stroke="#60bcd8" stroke-miterlimit="10"/><text transform="matrix(-1, 0, 0, 1, 462.42, 102.12)" font-size="16" fill="#333332" font-family="ArialMT, Arial">{......}</text><line x1="417.96" y1="98.25" x2="402.73" y2="98.25" fill="none" stroke="#60bcd8" stroke-miterlimit="10"/><polygon points="406.05 94.16 406.73 94.89 403.12 98.25 406.73 101.6 406.05 102.33 401.65 98.25 406.05 94.16" fill="#60bcd8"/><rect x="245.52" y="160.26" width="336.16" height="58.62" transform="translate(15.46 -30.62) rotate(4.32)" fill="#fcf1e0" stroke="#ffaf10" stroke-miterlimit="10"/><rect x="289.9" y="170.46" width="50.69" height="22.88" transform="translate(615.9 387.04) rotate(-175.68)" fill="#fff" stroke="#ffaf10" stroke-miterlimit="10"/><text transform="matrix(-1, -0.08, -0.08, 1, 333.01, 187.34)" font-size="16" fill="#333332" font-family="ArialMT, Arial">{......}</text><line x1="289.96" y1="180.2" x2="274.78" y2="179.05" fill="none" stroke="#ffaf10" stroke-miterlimit="10"/><polygon points="278.39 175.22 279.02 176.01 275.17 179.08 278.51 182.7 277.78 183.38 273.7 178.97 278.39 175.22" fill="#ffaf10"/><rect x="493" y="195.72" width="50.69" height="22.88" transform="translate(17.08 -38.46) rotate(4.32)" fill="#fff" stroke="#ffaf10" stroke-miterlimit="10"/><text transform="translate(498.96 209.79) rotate(4.32)" font-size="16" fill="#333332" font-family="ArialMT, Arial">{......}</text><line x1="543.6" y1="209.27" x2="558.78" y2="210.42" fill="none" stroke="#ffaf10" stroke-miterlimit="10"/><polygon points="555.16 214.25 554.54 213.47 558.39 210.39 555.04 206.77 555.78 206.09 559.86 210.5 555.16 214.25" fill="#ffaf10"/><rect x="369.47" y="174.96" width="50.69" height="22.88" transform="translate(774.47 402.02) rotate(-175.68)" fill="#fff" stroke="#ffaf10" stroke-miterlimit="10"/><text transform="matrix(-1, -0.08, -0.08, 1, 413.57, 191.92)" font-size="16" fill="#333332" font-family="ArialMT, Arial">{......}</text><line x1="369.53" y1="184.7" x2="354.35" y2="183.55" fill="none" stroke="#ffaf10" stroke-miterlimit="10"/><polygon points="357.96 179.72 358.59 180.51 354.73 183.58 358.08 187.2 357.35 187.88 353.27 183.47 357.96 179.72" fill="#ffaf10"/><rect x="430.39" y="171.03" width="50.69" height="22.88" transform="translate(15.04 -33.82) rotate(4.32)" fill="#fff" stroke="#ffaf10" stroke-miterlimit="10"/><text transform="translate(436.36 185.1) rotate(4.32)" font-size="16" fill="#333332" font-family="ArialMT, Arial">{......}</text><line x1="480.99" y1="184.59" x2="496.17" y2="185.73" fill="none" stroke="#ffaf10" stroke-miterlimit="10"/><polygon points="492.55 189.56 491.93 188.78 495.78 185.71 492.44 182.09 493.17 181.41 497.25 185.82 492.55 189.56" fill="#ffaf10"/><polygon points="573.53 291.62 252.35 317.95 247.55 258.41 572.98 231.73 573.53 291.62" fill="#edd6d6" stroke="#d60000" stroke-miterlimit="10"/><rect x="274.93" y="284.39" width="50.69" height="22.88" transform="translate(-22.77 25.05) rotate(-4.6)" fill="#fff" stroke="#d60000" stroke-miterlimit="10"/><text transform="matrix(1, -0.08, 0.08, 1, 282.54, 301.36)" font-size="16" fill="#333332" font-family="ArialMT, Arial">{......}</text><line x1="325.56" y1="294" x2="340.73" y2="292.78" fill="none" stroke="#d60000" stroke-miterlimit="10"/><polygon points="337.75 297.13 337.02 296.45 340.35 292.81 336.48 289.76 337.1 288.97 341.81 292.7 337.75 297.13" fill="#d60000"/><rect x="491.33" y="252.7" width="50.69" height="22.88" transform="translate(-19.53 42.31) rotate(-4.6)" fill="#fff" stroke="#d60000" stroke-miterlimit="10"/><text transform="matrix(1, -0.08, 0.08, 1, 497.94, 269.75)" font-size="16" fill="#333332" font-family="ArialMT, Arial">{......}</text><line x1="541.95" y1="262.32" x2="557.12" y2="261.09" fill="none" stroke="#d60000" stroke-miterlimit="10"/><polygon points="554.15 265.44 553.41 264.76 556.74 261.13 552.87 258.07 553.49 257.29 558.21 261.01 554.15 265.44" fill="#d60000"/><rect x="362.24" y="253.14" width="50.69" height="22.88" transform="matrix(1, -0.08, 0.08, 1, -19.98, 31.95)" fill="#fff" stroke="#d60000" stroke-miterlimit="10"/><text transform="matrix(1, -0.08, 0.08, 1, 368.85, 270.19)" font-size="16" fill="#333332" font-family="ArialMT, Arial">{......}</text><line x1="412.86" y1="262.75" x2="428.03" y2="261.53" fill="none" stroke="#d60000" stroke-miterlimit="10"/><polygon points="425.06 265.87 424.32 265.2 427.65 261.56 423.78 258.51 424.4 257.72 429.11 261.45 425.06 265.87" fill="#d60000"/><rect x="432.29" y="270.29" width="50.69" height="22.88" transform="translate(936.41 525.84) rotate(175.4)" fill="#fff" stroke="#d60000" stroke-miterlimit="10"/><text transform="matrix(-1, 0.08, 0.08, 1, 477.02, 284.27)" font-size="16" fill="#333332" font-family="ArialMT, Arial">{......}</text><line x1="432.39" y1="283.97" x2="417.22" y2="285.2" fill="none" stroke="#d60000" stroke-miterlimit="10"/><polygon points="420.19 280.85 420.93 281.53 417.6 285.16 421.47 288.22 420.85 289 416.14 285.28 420.19 280.85" fill="#d60000"/><rect x="101.55" y="62.47" width="162.99" height="277.29" fill="#fff"/><rect x="101.06" y="40.27" width="162.99" height="299.48" fill="none" stroke="#70d16d" stroke-miterlimit="10" stroke-width="2"/><rect x="107.61" y="47.53" width="119.2" height="6.41" fill="none" stroke="#70d16d" stroke-miterlimit="10" stroke-width="1.66"/><line x1="101.06" y1="61.82" x2="264.05" y2="61.82" fill="none" stroke="#70d16d" stroke-miterlimit="10" stroke-width="2"/><circle cx="236.04" cy="50.73" r="2.79" fill="#70d16d"/><circle cx="244.9" cy="50.73" r="2.79" fill="#70d16d"/><circle cx="253.76" cy="50.73" r="2.79" fill="#70d16d"/><text transform="translate(24.46 146.66)" font-size="18" fill="#333332" font-family="ArialMT, Arial" style="isolation:isolate">XSS</text><text transform="translate(11.16 242.54)" font-size="18" fill="#333332" font-family="ArialMT, Arial" style="isolation:isolate">CSRF</text><text transform="translate(721.83 93.93) scale(0.89 1)" font-size="18" fill="#333332" font-family="ArialMT, Arial" style="isolation:isolate">SQLi</text><text transform="translate(721.83 192.42)" font-size="18" fill="#333332" font-family="ArialMT, Arial" style="isolation:isolate">XXE</text><text transform="translate(721.83 293.35)" font-size="18" fill="#333332" font-family="ArialMT, Arial" style="isolation:isolate">SSRF</text><rect x="568.11" y="71.9" width="112.36" height="234.73" fill="#e2f6e2"/><rect x="567.73" y="39.08" width="112.74" height="300.72" fill="none" stroke="#70d16d" stroke-miterlimit="10" stroke-width="1.78"/><line x1="568.11" y1="160.13" x2="680.47" y2="160.13" fill="none" stroke="#70d16d" stroke-miterlimit="10" stroke-width="2"/><line x1="568.11" y1="189.43" x2="680.47" y2="189.43" fill="none" stroke="#70d16d" stroke-miterlimit="10" stroke-width="2"/><line x1="568.11" y1="130.84" x2="680.47" y2="130.84" fill="none" stroke="#70d16d" stroke-miterlimit="10" stroke-width="2"/><line x1="568.11" y1="306.63" x2="680.47" y2="306.63" fill="none" stroke="#70d16d" stroke-miterlimit="10" stroke-width="2"/><line x1="568.11" y1="218.73" x2="680.47" y2="218.73" fill="none" stroke="#70d16d" stroke-miterlimit="10" stroke-width="2"/><line x1="568.11" y1="248.03" x2="680.47" y2="248.03" fill="none" stroke="#70d16d" stroke-miterlimit="10" stroke-width="2"/><line x1="568.11" y1="277.33" x2="680.47" y2="277.33" fill="none" stroke="#70d16d" stroke-miterlimit="10" stroke-width="2"/><line x1="568.11" y1="72.24" x2="680.47" y2="72.24" fill="none" stroke="#70d16d" stroke-miterlimit="10" stroke-width="2"/><line x1="568.11" y1="101.54" x2="680.47" y2="101.54" fill="none" stroke="#70d16d" stroke-miterlimit="10" stroke-width="2"/><circle cx="586.41" cy="86.28" r="4.95" fill="#70d16d"/><circle cx="586.41" cy="116.11" r="4.95" fill="#70d16d"/><circle cx="586.41" cy="145.49" r="4.95" fill="#70d16d"/><circle cx="586.65" cy="174.88" r="4.95" fill="#70d16d"/><circle cx="586.41" cy="204.26" r="4.95" fill="#70d16d"/><circle cx="586.41" cy="233.65" r="4.95" fill="#70d16d"/><circle cx="586.41" cy="263.03" r="4.95" fill="#70d16d"/><circle cx="586.41" cy="291.98" r="4.95" fill="#70d16d"/><circle cx="611.34" cy="86.28" r="4.95" fill="#70d16d"/><circle cx="611.34" cy="116.11" r="4.95" fill="#70d16d"/><circle cx="611.34" cy="145.49" r="4.95" fill="#70d16d"/><circle cx="611.5" cy="174.88" r="4.95" fill="#70d16d"/><circle cx="611.34" cy="204.26" r="4.95" fill="#70d16d"/><circle cx="611.34" cy="233.65" r="4.95" fill="#70d16d"/><circle cx="611.34" cy="263.03" r="4.95" fill="#70d16d"/><circle cx="611.34" cy="291.98" r="4.95" fill="#70d16d"/><circle cx="636.31" cy="86.28" r="4.95" fill="#70d16d"/><circle cx="636.31" cy="116.11" r="4.95" fill="#70d16d"/><circle cx="636.31" cy="145.49" r="4.95" fill="#70d16d"/><circle cx="636.31" cy="174.88" r="4.95" fill="#70d16d"/><circle cx="636.31" cy="204.26" r="4.95" fill="#70d16d"/><circle cx="636.31" cy="233.65" r="4.95" fill="#70d16d"/><circle cx="636.31" cy="263.03" r="4.95" fill="#70d16d"/><circle cx="636.31" cy="291.98" r="4.95" fill="#70d16d"/><circle cx="661.21" cy="86.28" r="4.95" fill="#70d16d"/><circle cx="661.21" cy="116.11" r="4.95" fill="#70d16d"/><circle cx="661.21" cy="145.49" r="4.95" fill="#70d16d"/><circle cx="661.21" cy="174.88" r="4.95" fill="#70d16d"/><circle cx="661.21" cy="204.26" r="4.95" fill="#70d16d"/><circle cx="661.21" cy="233.65" r="4.95" fill="#70d16d"/><circle cx="661.21" cy="263.03" r="4.95" fill="#70d16d"/><circle cx="661.21" cy="291.98" r="4.95" fill="#70d16d"/><rect x="585.5" y="372.26" width="79.5" height="31.03" rx="15.51" fill="none" stroke="#70d16d" stroke-miterlimit="10" stroke-width="2"/><text transform="translate(601.57 392.44)" font-size="16" fill="#70d16d" font-family="ArialMT, Arial" style="isolation:isolate">Server</text><rect x="135.03" y="372.26" width="93.5" height="31.03" rx="15.51" fill="none" stroke="#70d16d" stroke-miterlimit="10" stroke-width="2"/><text transform="translate(152.33 393.44)" font-size="16" fill="#70d16d" font-family="ArialMT, Arial" style="isolation:isolate">Browser</text><polygon points="707.28 179.28 717.51 186.06 707.24 193.1 707.28 179.28" fill="#cbd0d1"/><line x1="686.04" y1="186.19" x2="710.47" y2="186.19" fill="none" stroke="#cbd0d1" stroke-miterlimit="10"/><line x1="625.36" y1="372.26" x2="625.36" y2="339.75" fill="none" stroke="#70d16d" stroke-miterlimit="10" stroke-width="2"/><circle cx="625.36" cy="339.75" r="5.5" fill="#fff" stroke="#70d16d" stroke-miterlimit="10" stroke-width="2"/><line x1="182.05" y1="372.26" x2="182.05" y2="339.75" fill="none" stroke="#70d16d" stroke-miterlimit="10" stroke-width="2"/><circle cx="182.05" cy="339.75" r="5.5" fill="#fff" stroke="#70d16d" stroke-miterlimit="10" stroke-width="2"/><rect x="350.34" y="334.26" width="130.86" height="31.03" rx="15.51" fill="none" stroke="#333332" stroke-miterlimit="10" stroke-width="2"/><text transform="translate(371 355.44)" font-size="16" fill="#333332" font-family="ArialMT, Arial"><tspan letter-spacing="-0.02em">W</tspan><tspan x="14.81" y="0">ebSockets</tspan></text><polygon points="74.31 147.56 64.07 140.77 74.35 133.73 74.31 147.56" fill="#cbd0d1"/><polyline points="95.55 174.37 87.86 174.37 87.86 140.64 69.78 140.64" fill="none" stroke="#cbd0d1" stroke-miterlimit="10"/><polygon points="74.31 231.04 64.07 237.82 74.35 244.86 74.31 231.04" fill="#cbd0d1"/><polyline points="95.55 204.22 87.86 204.22 87.86 237.95 69.78 237.95" fill="none" stroke="#cbd0d1" stroke-miterlimit="10"/><polygon points="707.28 94.69 717.51 87.9 707.24 80.86 707.28 94.69" fill="#cbd0d1"/><polyline points="686.04 121.5 693.72 121.5 693.72 87.77 711.81 87.77" fill="none" stroke="#cbd0d1" stroke-miterlimit="10"/><polygon points="707.28 280.86 717.51 287.64 707.24 294.68 707.28 280.86" fill="#cbd0d1"/><polyline points="686.04 254.04 693.72 254.04 693.72 287.77 711.81 287.77" fill="none" stroke="#cbd0d1" stroke-miterlimit="10"/><rect x="115.61" y="75.66" width="134.87" height="65.47" fill="#e2f6e2" stroke="#70d16d" stroke-miterlimit="10" stroke-width="2"/><rect x="115.61" y="151.12" width="81.96" height="82.59" fill="#e2f6e2" stroke="#70d16d" stroke-miterlimit="10" stroke-width="2"/><rect x="208.03" y="151.12" width="42.45" height="82.59" fill="#e2f6e2" stroke="#70d16d" stroke-miterlimit="10" stroke-width="2"/><line x1="115.61" y1="279.54" x2="152.61" y2="279.54" fill="#e2f6e2" stroke="#70d16d" stroke-miterlimit="10" stroke-width="2"/><line x1="115.61" y1="288.01" x2="152.61" y2="288.01" fill="#e2f6e2" stroke="#70d16d" stroke-miterlimit="10" stroke-width="2"/><line x1="115.61" y1="296.48" x2="152.61" y2="296.48" fill="#e2f6e2" stroke="#70d16d" stroke-miterlimit="10" stroke-width="2"/><line x1="115.61" y1="304.94" x2="152.61" y2="304.94" fill="#e2f6e2" stroke="#70d16d" stroke-miterlimit="10" stroke-width="2"/><line x1="115.61" y1="313.41" x2="152.61" y2="313.41" fill="#e2f6e2" stroke="#70d16d" stroke-miterlimit="10" stroke-width="2"/><circle cx="133.75" cy="256.38" r="9.66" fill="#e2f6e2" stroke="#70d16d" stroke-miterlimit="10" stroke-width="2"/><line x1="164.54" y1="280.3" x2="201.54" y2="280.3" fill="#e2f6e2" stroke="#70d16d" stroke-miterlimit="10" stroke-width="2"/><line x1="164.54" y1="288.77" x2="201.54" y2="288.77" fill="#e2f6e2" stroke="#70d16d" stroke-miterlimit="10" stroke-width="2"/><line x1="164.54" y1="297.24" x2="201.54" y2="297.24" fill="#e2f6e2" stroke="#70d16d" stroke-miterlimit="10" stroke-width="2"/><line x1="164.54" y1="305.71" x2="201.54" y2="305.71" fill="#e2f6e2" stroke="#70d16d" stroke-miterlimit="10" stroke-width="2"/><line x1="164.54" y1="314.18" x2="201.54" y2="314.18" fill="#e2f6e2" stroke="#70d16d" stroke-miterlimit="10" stroke-width="2"/><circle cx="182.69" cy="256.38" r="9.66" fill="#e2f6e2" stroke="#70d16d" stroke-miterlimit="10" stroke-width="2"/><line x1="213.71" y1="279.54" x2="250.72" y2="279.54" fill="#e2f6e2" stroke="#70d16d" stroke-miterlimit="10" stroke-width="2"/><line x1="213.71" y1="288.01" x2="250.72" y2="288.01" fill="#e2f6e2" stroke="#70d16d" stroke-miterlimit="10" stroke-width="2"/><line x1="213.71" y1="296.48" x2="250.72" y2="296.48" fill="#e2f6e2" stroke="#70d16d" stroke-miterlimit="10" stroke-width="2"/><line x1="213.71" y1="304.94" x2="250.72" y2="304.94" fill="#e2f6e2" stroke="#70d16d" stroke-miterlimit="10" stroke-width="2"/><line x1="213.71" y1="313.41" x2="250.72" y2="313.41" fill="#e2f6e2" stroke="#70d16d" stroke-miterlimit="10" stroke-width="2"/><circle cx="231.86" cy="256.38" r="9.66" fill="#e2f6e2" stroke="#70d16d" stroke-miterlimit="10" stroke-width="2"/></svg>